ISO-10303-21;
HEADER;
FILE_DESCRIPTION(('ViewDefinition [SchedulingView]'),'2;1');
FILE_NAME('Zuidas Office Building.ifc','2026-08-14T12:18:59',('Mark Bakker'),('Zuidas Development BV'),'Open Planner Studio 0.1','Open Planner Studio','');
FILE_SCHEMA(('IFC4X3'));
ENDSEC;
DATA;
#1=IFCPERSON($,'Mark Bakker',$,$,$,$,$,$);
#2=IFCORGANIZATION($,'Zuidas Development BV',$,$,$);
#3=IFCPERSONANDORGANIZATION(#1,#2,$);
#4=IFCORGANIZATION($,'OpenAEC Foundation',$,$,$);
#5=IFCAPPLICATION(#4,'0.1','Open Planner Studio','OPS');
#6=IFCOWNERHISTORY(#3,#5,$,.NOCHANGE.,$,$,$,1786709939);
#7=IFCSIUNIT(*,.LENGTHUNIT.,$,.METRE.);
#8=IFCSIUNIT(*,.TIMEUNIT.,$,.SECOND.);
#9=IFCUNITASSIGNMENT((#7,#8));
#10=IFCCARTESIANPOINT((0.,0.,0.));
#11=IFCAXIS2PLACEMENT3D(#10,$,$);
#12=IFCGEOMETRICREPRESENTATIONCONTEXT($,'Plan',3,1.0E-05,#11,$);
#13=IFCPROJECT('whsZCv1P79AT5R4FFts9Gl',#6,'Zuidas Office Building','Eight-storey office building with basement car park, BREEAM Excellent',$,$,$,(#12),#9);
#14=IFCTIMEPERIOD('07:00:00','16:00:00');
#15=IFCRECURRENCEPATTERN(.WEEKLY.,$,(1,2,3,4,5),$,$,$,$,(#14));
#16=IFCWORKTIME('Standard work week',.PREDICTED.,$,#15,$,$);
#17=IFCWORKTIME('New Year''s Day',.PREDICTED.,$,$,'2027-01-01','2027-01-01');
#18=IFCWORKTIME('Good Friday',.PREDICTED.,$,$,'2027-03-26','2027-03-26');
#19=IFCWORKTIME('Easter',.PREDICTED.,$,$,'2027-03-28','2027-03-29');
#20=IFCWORKTIME('King''s Day',.PREDICTED.,$,$,'2027-04-27','2027-04-27');
#21=IFCWORKTIME('Liberation Day',.PREDICTED.,$,$,'2027-05-05','2027-05-05');
#22=IFCWORKTIME('Ascension Day',.PREDICTED.,$,$,'2027-05-06','2027-05-06');
#23=IFCWORKTIME('Whitsun',.PREDICTED.,$,$,'2027-05-16','2027-05-17');
#24=IFCWORKTIME('Christmas',.PREDICTED.,$,$,'2027-12-25','2027-12-26');
#25=IFCWORKTIME('Construction holiday (northern region)',.PREDICTED.,$,$,'2027-07-26','2027-08-15');
#26=IFCWORKTIME('New Year''s Day',.PREDICTED.,$,$,'2028-01-01','2028-01-01');
#27=IFCWORKTIME('Good Friday',.PREDICTED.,$,$,'2028-04-14','2028-04-14');
#28=IFCWORKTIME('Easter',.PREDICTED.,$,$,'2028-04-16','2028-04-17');
#29=IFCWORKTIME('King''s Day',.PREDICTED.,$,$,'2028-04-27','2028-04-27');
#30=IFCWORKTIME('Liberation Day',.PREDICTED.,$,$,'2028-05-05','2028-05-05');
#31=IFCWORKTIME('Ascension Day',.PREDICTED.,$,$,'2028-05-25','2028-05-25');
#32=IFCWORKTIME('Whitsun',.PREDICTED.,$,$,'2028-06-04','2028-06-05');
#33=IFCWORKTIME('Christmas',.PREDICTED.,$,$,'2028-12-25','2028-12-26');
#34=IFCWORKTIME('Construction holiday (northern region)',.PREDICTED.,$,$,'2028-07-24','2028-08-13');
#35=IFCWORKCALENDAR('_HlbW$VPl1Yxnv_nBDbFBd',#6,'Construction calendar NL','Standard construction calendar: Mon-Fri 07:00-16:00',$,(#16),(#17,#18,#19,#20,#21,#22,#23,#24,#25,#26,#27,#28,#29,#30,#31,#32,#33,#34),.FIRSTSHIFT.);
#36=IFCWORKPLAN('_D_Vyz4lp5N5NbmVyLNTjz',#6,'Zuidas Office Building','Eight-storey office building with basement car park, BREEAM Excellent',$,$,'2026-08-14T12:18:59',$,$,$,$,$,'2027-03-01T07:00:00','2027-03-26T07:00:00',.PLANNED.);
#37=IFCWORKSCHEDULE('X$9x_vXdzzkdunjnZZareT',#6,'Construction schedule v1.0',$,$,$,'2026-08-14T12:18:59',$,$,$,$,$,'2027-03-01T07:00:00','2027-03-26T07:00:00',.PLANNED.);
#38=IFCRELAGGREGATES('X$Ph9TPtbVDd8te$ftI1sz',#6,$,$,#36,(#37));
#39=IFCTASKTIME('1. Preparation Time',.PREDICTED.,$,.WORKTIME.,'P0Y0M5D','2027-03-01T07:00:00','2027-03-05T07:00:00','2027-03-01T07:00:00','2027-03-30T07:00:00','2027-03-01T07:00:00','2028-05-04T07:00:00','P0Y0M0D','P0Y0M0D',.T.,$,$,$,$,$,0.0);
#40=IFCTASK('IbDPTtBl19$55xu1R1tB8R',#6,'1. Preparation',$,$,'1',$,$,$,.F.,$,#39,.CONSTRUCTION.);
#41=IFCTASKTIME('Set up site Time',.PREDICTED.,$,.WORKTIME.,'P0Y0M8D','2027-03-01T07:00:00','2027-03-10T07:00:00','2027-03-01T07:00:00','2027-03-10T07:00:00','2027-03-01T07:00:00','2027-03-10T07:00:00','P0Y0M0D','P0Y0M0D',.T.,$,$,$,$,$,0.0);
#42=IFCTASK('KxnDZNtNst7D4TLlD7OHrz',#6,'Set up site',$,$,'1.1',$,$,$,.F.,$,#41,.LOGISTIC.);
#43=IFCTASKTIME('Stakeholder management Time',.PREDICTED.,$,.WORKTIME.,'P0Y0M5D','2027-03-01T07:00:00','2027-03-05T07:00:00','2027-03-11T07:00:00','2027-03-17T07:00:00','2028-04-18T07:00:00','2028-04-24T07:00:00','P0Y0M0D','P0Y0M265D',.F.,$,$,$,$,$,0.0);
#44=IFCTASK('YXj7RVzlDbJNBjDlf9_Hll',#6,'Stakeholder management',$,$,'1.2',$,$,$,.F.,$,#43,.ATTENDANCE.);
#45=IFCTASKTIME('Traffic management Time',.PREDICTED.,$,.WORKTIME.,'P0Y0M3D','2027-03-01T07:00:00','2027-03-03T07:00:00','2027-03-18T07:00:00','2027-03-22T07:00:00','2028-04-25T07:00:00','2028-04-28T07:00:00','P0Y0M0D','P0Y0M265D',.F.,$,$,$,$,$,0.0);
#46=IFCTASK('VZuF9V_FOHWH5bKlOj7RdB',#6,'Traffic management',$,$,'1.3',$,$,$,.F.,$,#45,.LOGISTIC.);
#47=IFCTASKTIME('Piezometer monitoring Time',.PREDICTED.,$,.WORKTIME.,'P0Y0M3D','2027-03-01T07:00:00','2027-03-03T07:00:00','2027-03-23T07:00:00','2027-03-25T07:00:00','2028-05-01T07:00:00','2028-05-03T07:00:00','P0Y0M0D','P0Y0M265D',.F.,$,$,$,$,$,0.0);
#48=IFCTASK('4DU$E3hHbB$xN5yFzD2B4P',#6,'Piezometer monitoring',$,$,'1.4',$,$,$,.F.,$,#47,.INSTALLATION.);
#49=IFCTASKTIME('Start of construction Time',.PREDICTED.,$,.WORKTIME.,'P0Y0M0D','2027-03-01T07:00:00','2027-03-01T07:00:00','2027-03-30T07:00:00','2027-03-30T07:00:00','2028-05-04T07:00:00','2028-05-04T07:00:00','P0Y0M265D','P0Y0M265D',.F.,$,$,$,$,$,0.0);
#50=IFCTASK('tD9DXtqF4nFDytqlk3eV4d',#6,'Start of construction',$,$,'1.5',$,$,$,.T.,$,#49,.CONSTRUCTION.);
#51=IFCTASKTIME('2. Earthworks & foundations Time',.PREDICTED.,$,.WORKTIME.,'P0Y0M5D','2027-03-01T07:00:00','2027-03-05T07:00:00','2027-03-15T07:00:00','2027-09-09T07:00:00','2027-03-15T07:00:00','2028-05-04T07:00:00','P0Y0M0D','P0Y0M0D',.T.,$,$,$,$,$,0.0);
#52=IFCTASK('ktKJvdTHT$EBuFpFjfYLsz',#6,'2. Earthworks & foundations',$,$,'2',$,$,$,.F.,$,#51,.CONSTRUCTION.);
#53=IFCTASKTIME('Sheet pile sections Time',.PREDICTED.,$,.WORKTIME.,'P0Y0M15D','2027-03-01T07:00:00','2027-03-19T07:00:00','2027-03-15T07:00:00','2027-04-06T07:00:00','2027-03-15T07:00:00','2027-04-06T07:00:00','P0Y0M0D','P0Y0M0D',.T.,$,$,$,$,$,0.0);
#54=IFCTASK('WXxFfFiFkXR1qF71QvqDOT',#6,'Sheet pile sections',$,$,'2.1',$,$,$,.F.,$,#53,.CONSTRUCTION.);
#55=IFCTASKTIME('Wellpoint dewatering Time',.PREDICTED.,$,.WORKTIME.,'P0Y0M5D','2027-03-01T07:00:00','2027-03-05T07:00:00','2027-04-07T07:00:00','2027-04-13T07:00:00','2027-12-23T07:00:00','2027-12-29T07:00:00','P0Y0M0D','P0Y0M167D',.F.,$,$,$,$,$,0.0);
#56=IFCTASK('$ldz_dTlZVgnNvslKXj7lH',#6,'Wellpoint dewatering',$,$,'2.2',$,$,$,.F.,$,#55,.INSTALLATION.);
#57=IFCTASKTIME('Excavate to level -2 Time',.PREDICTED.,$,.WORKTIME.,'P0Y0M12D','2027-03-01T07:00:00','2027-03-16T07:00:00','2027-04-14T07:00:00','2027-04-30T07:00:00','2027-12-30T07:00:00','2028-01-14T07:00:00','P0Y0M0D','P0Y0M167D',.F.,$,$,$,$,$,0.0);
#58=IFCTASK('mdQJbX5VbVDdunJFbXRFpJ',#6,'Excavate to level -2',$,$,'2.3',$,$,$,.F.,$,#57,.CONSTRUCTION.);
#59=IFCTASKTIME('Excavate to level -1 Time',.PREDICTED.,$,.WORKTIME.,'P0Y0M10D','2027-03-01T07:00:00','2027-03-12T07:00:00','2027-05-03T07:00:00','2027-05-19T07:00:00','2028-01-17T07:00:00','2028-01-28T07:00:00','P0Y0M0D','P0Y0M167D',.F.,$,$,$,$,$,0.0);
#60=IFCTASK('Y$t5QNePjrrF3bWXDPCDyr',#6,'Excavate to level -1',$,$,'2.4',$,$,$,.F.,$,#59,.CONSTRUCTION.);
#61=IFCTASKTIME('Bore foundation piles Time',.PREDICTED.,$,.WORKTIME.,'P0Y0M20D','2027-03-01T07:00:00','2027-03-26T07:00:00','2027-05-20T07:00:00','2027-06-16T07:00:00','2028-01-31T07:00:00','2028-02-25T07:00:00','P0Y0M0D','P0Y0M167D',.F.,$,$,$,$,$,0.0);
#62=IFCTASK('ORuntXcVdJkLwjHVPlLlJX',#6,'Bore foundation piles',$,$,'2.5',$,$,$,.F.,$,#61,.CONSTRUCTION.);
#63=IFCTASKTIME('Foundation beams Time',.PREDICTED.,$,.WORKTIME.,'P0Y0M10D','2027-03-01T07:00:00','2027-03-12T07:00:00','2027-06-17T07:00:00','2027-06-30T07:00:00','2028-02-28T07:00:00','2028-03-10T07:00:00','P0Y0M0D','P0Y0M167D',.F.,$,$,$,$,$,0.0);
#64=IFCTASK('gdmdDl87c1orOVhFJtwdZb',#6,'Foundation beams',$,$,'2.6',$,$,$,.F.,$,#63,.CONSTRUCTION.);
#65=IFCTASKTIME('Basement floor P2 Time',.PREDICTED.,$,.WORKTIME.,'P0Y0M8D','2027-03-01T07:00:00','2027-03-10T07:00:00','2027-07-01T07:00:00','2027-07-12T07:00:00','2028-03-13T07:00:00','2028-03-22T07:00:00','P0Y0M0D','P0Y0M167D',.F.,$,$,$,$,$,0.0);
#66=IFCTASK('0lXhFF5nKjaJsvwHjf2rCz',#6,'Basement floor P2',$,$,'2.7',$,$,$,.F.,$,#65,.CONSTRUCTION.);
#67=IFCTASKTIME('Basement floor P1 Time',.PREDICTED.,$,.WORKTIME.,'P0Y0M8D','2027-03-01T07:00:00','2027-03-10T07:00:00','2027-07-13T07:00:00','2027-07-22T07:00:00','2028-03-23T07:00:00','2028-04-03T07:00:00','P0Y0M0D','P0Y0M167D',.F.,$,$,$,$,$,0.0);
#68=IFCTASK('$nxV0Hff0Lb$0Tt$$3u$E9',#6,'Basement floor P1',$,$,'2.8',$,$,$,.F.,$,#67,.CONSTRUCTION.);
#69=IFCTASKTIME('Pour basement walls Time',.PREDICTED.,$,.WORKTIME.,'P0Y0M12D','2027-03-01T07:00:00','2027-03-16T07:00:00','2027-07-23T07:00:00','2027-08-30T07:00:00','2028-04-04T07:00:00','2028-04-21T07:00:00','P0Y0M0D','P0Y0M167D',.F.,$,$,$,$,$,0.0);
#70=IFCTASK('cXztcjUFExFDy3$XyrR$gf',#6,'Pour basement walls',$,$,'2.9',$,$,$,.F.,$,#69,.CONSTRUCTION.);
#71=IFCTASKTIME('Basement waterproofing Time',.PREDICTED.,$,.WORKTIME.,'P0Y0M8D','2027-03-01T07:00:00','2027-03-10T07:00:00','2027-08-31T07:00:00','2027-09-09T07:00:00','2028-04-24T07:00:00','2028-05-04T07:00:00','P0Y0M167D','P0Y0M167D',.F.,$,$,$,$,$,0.0);
#72=IFCTASK('Mde1slvtxxV3npFV$XFhYp',#6,'Basement waterproofing',$,$,'2.10',$,$,$,.F.,$,#71,.CONSTRUCTION.);
#73=IFCTASKTIME('3. Structural works Time',.PREDICTED.,$,.WORKTIME.,'P0Y0M5D','2027-03-01T07:00:00','2027-03-05T07:00:00','2027-03-23T07:00:00','2027-09-08T07:00:00','2027-03-23T07:00:00','2028-05-04T07:00:00','P0Y0M0D','P0Y0M0D',.T.,$,$,$,$,$,0.0);
#74=IFCTASK('e5qDxhT1sLtzFpXVSNULEN',#6,'3. Structural works',$,$,'3',$,$,$,.F.,$,#73,.CONSTRUCTION.);
#75=IFCTASKTIME('Ground floor columns & slab Time',.PREDICTED.,$,.WORKTIME.,'P0Y0M10D','2027-03-01T07:00:00','2027-03-12T07:00:00','2027-03-23T07:00:00','2027-04-07T07:00:00','2027-03-23T07:00:00','2027-04-07T07:00:00','P0Y0M0D','P0Y0M0D',.T.,$,$,$,$,$,0.0);
#76=IFCTASK('VXTfSnCFW5HJY9mVsVTNEt',#6,'Ground floor columns & slab',$,$,'3.1',$,$,$,.F.,$,#75,.CONSTRUCTION.);
#77=IFCTASKTIME('Floor 1 structural works Time',.PREDICTED.,$,.WORKTIME.,'P0Y0M8D','2027-03-01T07:00:00','2027-03-10T07:00:00','2027-04-08T07:00:00','2027-04-19T07:00:00','2027-04-08T07:00:00','2027-04-19T07:00:00','P0Y0M0D','P0Y0M0D',.T.,$,$,$,$,$,0.0);
#78=IFCTASK('cVblbxffYvuNBJTlyLdJkB',#6,'Floor 1 structural works',$,$,'3.2',$,$,$,.F.,$,#77,.CONSTRUCTION.);
#79=IFCTASKTIME('Floor 2 structural works Time',.PREDICTED.,$,.WORKTIME.,'P0Y0M8D','2027-03-01T07:00:00','2027-03-10T07:00:00','2027-04-20T07:00:00','2027-04-30T07:00:00','2027-04-20T07:00:00','2027-04-30T07:00:00','P0Y0M0D','P0Y0M0D',.T.,$,$,$,$,$,0.0);
#80=IFCTASK('RV3t6PwVddCTnvsH07GteZ',#6,'Floor 2 structural works',$,$,'3.3',$,$,$,.F.,$,#79,.CONSTRUCTION.);
#81=IFCTASKTIME('Floor 3 structural works Time',.PREDICTED.,$,.WORKTIME.,'P0Y0M8D','2027-03-01T07:00:00','2027-03-10T07:00:00','2027-05-03T07:00:00','2027-05-14T07:00:00','2027-05-03T07:00:00','2027-05-14T07:00:00','P0Y0M0D','P0Y0M0D',.T.,$,$,$,$,$,0.0);
#82=IFCTASK('eTRlB3iVFTkhQn9$BpJvrZ',#6,'Floor 3 structural works',$,$,'3.4',$,$,$,.F.,$,#81,.CONSTRUCTION.);
#83=IFCTASKTIME('Floor 4 structural works Time',.PREDICTED.,$,.WORKTIME.,'P0Y0M8D','2027-03-01T07:00:00','2027-03-10T07:00:00','2027-05-18T07:00:00','2027-05-27T07:00:00','2027-05-18T07:00:00','2027-05-27T07:00:00','P0Y0M0D','P0Y0M0D',.T.,$,$,$,$,$,0.0);
#84=IFCTASK('fTpdb5F7IhjvYZpFLzPjcn',#6,'Floor 4 structural works',$,$,'3.5',$,$,$,.F.,$,#83,.CONSTRUCTION.);
#85=IFCTASKTIME('Floor 5 structural works Time',.PREDICTED.,$,.WORKTIME.,'P0Y0M8D','2027-03-01T07:00:00','2027-03-10T07:00:00','2027-05-28T07:00:00','2027-06-08T07:00:00','2027-05-28T07:00:00','2027-06-08T07:00:00','P0Y0M0D','P0Y0M0D',.T.,$,$,$,$,$,0.0);
#86=IFCTASK('0H7TSp2N_fE7oVJH5F9zZt',#6,'Floor 5 structural works',$,$,'3.6',$,$,$,.F.,$,#85,.CONSTRUCTION.);
#87=IFCTASKTIME('Floor 6 structural works Time',.PREDICTED.,$,.WORKTIME.,'P0Y0M8D','2027-03-01T07:00:00','2027-03-10T07:00:00','2027-06-09T07:00:00','2027-06-18T07:00:00','2027-06-09T07:00:00','2027-06-18T07:00:00','P0Y0M0D','P0Y0M0D',.T.,$,$,$,$,$,0.0);
#88=IFCTASK('CNwphjUnEFnpWDDnbbI$Mj',#6,'Floor 6 structural works',$,$,'3.7',$,$,$,.F.,$,#87,.CONSTRUCTION.);
#89=IFCTASKTIME('Floor 7 structural works Time',.PREDICTED.,$,.WORKTIME.,'P0Y0M8D','2027-03-01T07:00:00','2027-03-10T07:00:00','2027-06-21T07:00:00','2027-06-30T07:00:00','2027-06-21T07:00:00','2027-06-30T07:00:00','P0Y0M0D','P0Y0M0D',.T.,$,$,$,$,$,0.0);
#90=IFCTASK('_Jk5wdEHPPiRvVN$2fI5rv',#6,'Floor 7 structural works',$,$,'3.8',$,$,$,.F.,$,#89,.CONSTRUCTION.);
#91=IFCTASKTIME('Floor 8 structural works Time',.PREDICTED.,$,.WORKTIME.,'P0Y0M8D','2027-03-01T07:00:00','2027-03-10T07:00:00','2027-07-01T07:00:00','2027-07-12T07:00:00','2027-07-01T07:00:00','2027-07-12T07:00:00','P0Y0M0D','P0Y0M0D',.T.,$,$,$,$,$,0.0);
#92=IFCTASK('bV3tkJr1qParWJlVpv8Fhf',#6,'Floor 8 structural works',$,$,'3.9',$,$,$,.F.,$,#91,.CONSTRUCTION.);
#93=IFCTASKTIME('Concrete stair and lift core Time',.PREDICTED.,$,.WORKTIME.,'P0Y0M20D','2027-03-01T07:00:00','2027-03-26T07:00:00','2027-07-08T07:00:00','2027-08-25T07:00:00','2027-07-08T07:00:00','2027-08-25T07:00:00','P0Y0M0D','P0Y0M0D',.T.,$,$,$,$,$,0.0);
#94=IFCTASK('Ita32dh1Ir$xTtinYrJv75',#6,'Concrete stair and lift core',$,$,'3.10',$,$,$,.F.,$,#93,.CONSTRUCTION.);
#95=IFCTASKTIME('Steel roof structure Time',.PREDICTED.,$,.WORKTIME.,'P0Y0M10D','2027-03-01T07:00:00','2027-03-12T07:00:00','2027-08-26T07:00:00','2027-09-08T07:00:00','2027-08-26T07:00:00','2027-09-08T07:00:00','P0Y0M0D','P0Y0M0D',.T.,$,$,$,$,$,0.0);
#96=IFCTASK('upF5E$67UPC5$XTHOb6d1J',#6,'Steel roof structure',$,$,'3.11',$,$,$,.F.,$,#95,.CONSTRUCTION.);
#97=IFCTASKTIME('Topping out Time',.PREDICTED.,$,.WORKTIME.,'P0Y0M0D','2027-03-01T07:00:00','2027-03-01T07:00:00','2027-09-08T07:00:00','2027-09-08T07:00:00','2028-05-04T07:00:00','2028-05-04T07:00:00','P0Y0M168D','P0Y0M168D',.F.,$,$,$,$,$,0.0);
#98=IFCTASK('fdelFFjVNxtRDT7129QvXd',#6,'Topping out',$,$,'3.12',$,$,$,.T.,$,#97,.CONSTRUCTION.);
#99=IFCTASKTIME('4. Facade Time',.PREDICTED.,$,.WORKTIME.,'P0Y0M5D','2027-03-01T07:00:00','2027-03-05T07:00:00','2027-07-21T07:00:00','2027-10-21T07:00:00','2027-07-21T07:00:00','2028-05-04T07:00:00','P0Y0M0D','P0Y0M0D',.T.,$,$,$,$,$,0.0);
#100=IFCTASK('bxyBTbUnQVQVIFDnzlFZRX',#6,'4. Facade',$,$,'4',$,$,$,.F.,$,#99,.INSTALLATION.);
#101=IFCTASKTIME('Curtain wall installation, phase 1 Time',.PREDICTED.,$,.WORKTIME.,'P0Y0M15D','2027-03-01T07:00:00','2027-03-19T07:00:00','2027-07-21T07:00:00','2027-08-31T07:00:00','2027-07-21T07:00:00','2027-08-31T07:00:00','P0Y0M0D','P0Y0M0D',.T.,$,$,$,$,$,0.0);
#102=IFCTASK('dbO1IlGfmpAHXFBljbfhgf',#6,'Curtain wall installation, phase 1',$,$,'4.1',$,$,$,.F.,$,#101,.INSTALLATION.);
#103=IFCTASKTIME('Curtain wall installation, phase 2 Time',.PREDICTED.,$,.WORKTIME.,'P0Y0M15D','2027-03-01T07:00:00','2027-03-19T07:00:00','2027-09-01T07:00:00','2027-09-21T07:00:00','2027-09-01T07:00:00','2027-09-21T07:00:00','P0Y0M0D','P0Y0M0D',.T.,$,$,$,$,$,0.0);
#104=IFCTASK('I9iJJ3pXZ$wJU3d1pdyZ1D',#6,'Curtain wall installation, phase 2',$,$,'4.2',$,$,$,.F.,$,#103,.INSTALLATION.);
#105=IFCTASKTIME('Curtain wall installation, phase 3 Time',.PREDICTED.,$,.WORKTIME.,'P0Y0M12D','2027-03-01T07:00:00','2027-03-16T07:00:00','2027-09-22T07:00:00','2027-10-07T07:00:00','2027-09-22T07:00:00','2027-10-07T07:00:00','P0Y0M0D','P0Y0M0D',.T.,$,$,$,$,$,0.0);
#106=IFCTASK('NzFp9Td95Hrn$BYXpLnh2X',#6,'Curtain wall installation, phase 3',$,$,'4.3',$,$,$,.F.,$,#105,.INSTALLATION.);
#107=IFCTASKTIME('Roof finishes and services Time',.PREDICTED.,$,.WORKTIME.,'P0Y0M10D','2027-03-01T07:00:00','2027-03-12T07:00:00','2027-10-08T07:00:00','2027-10-21T07:00:00','2027-10-08T07:00:00','2027-10-21T07:00:00','P0Y0M0D','P0Y0M0D',.T.,$,$,$,$,$,0.0);
#108=IFCTASK('_l9p3djFylhl55O1DdCbtj',#6,'Roof finishes and services',$,$,'4.4',$,$,$,.F.,$,#107,.CONSTRUCTION.);
#109=IFCTASKTIME('Wind and weathertight Time',.PREDICTED.,$,.WORKTIME.,'P0Y0M0D','2027-03-01T07:00:00','2027-03-01T07:00:00','2027-10-21T07:00:00','2027-10-21T07:00:00','2028-05-04T07:00:00','2028-05-04T07:00:00','P0Y0M137D','P0Y0M137D',.F.,$,$,$,$,$,0.0);
#110=IFCTASK('A9EFVp2fYj_R5n5luzdJQn',#6,'Wind and weathertight',$,$,'4.5',$,$,$,.T.,$,#109,.INSTALLATION.);
#111=IFCTASKTIME('5. Building services Time',.PREDICTED.,$,.WORKTIME.,'P0Y0M5D','2027-03-01T07:00:00','2027-03-05T07:00:00','2027-10-22T07:00:00','2028-02-22T07:00:00','2027-10-22T07:00:00','2028-05-04T07:00:00','P0Y0M0D','P0Y0M0D',.T.,$,$,$,$,$,0.0);
#112=IFCTASK('S3q5kH8d7t6jkFLHRx6JId',#6,'5. Building services',$,$,'5',$,$,$,.F.,$,#111,.INSTALLATION.);
#113=IFCTASKTIME('Main electrical switchroom Time',.PREDICTED.,$,.WORKTIME.,'P0Y0M10D','2027-03-01T07:00:00','2027-03-12T07:00:00','2027-10-22T07:00:00','2027-11-04T07:00:00','2027-10-22T07:00:00','2027-11-04T07:00:00','P0Y0M0D','P0Y0M0D',.T.,$,$,$,$,$,0.0);
#114=IFCTASK('hvSL7rmfQXQVgBYV7RQ7j1',#6,'Main electrical switchroom',$,$,'5.1',$,$,$,.F.,$,#113,.INSTALLATION.);
#115=IFCTASKTIME('Risers, electrical Time',.PREDICTED.,$,.WORKTIME.,'P0Y0M12D','2027-03-01T07:00:00','2027-03-16T07:00:00','2027-11-05T07:00:00','2027-11-22T07:00:00','2028-01-13T07:00:00','2028-01-28T07:00:00','P0Y0M0D','P0Y0M49D',.F.,$,$,$,$,$,0.0);
#116=IFCTASK('SXh$Y5sPtr15nd61uT3fw1',#6,'Risers, electrical',$,$,'5.2',$,$,$,.F.,$,#115,.INSTALLATION.);
#117=IFCTASKTIME('Risers, mechanical services Time',.PREDICTED.,$,.WORKTIME.,'P0Y0M12D','2027-03-01T07:00:00','2027-03-16T07:00:00','2027-11-10T07:00:00','2027-11-25T07:00:00','2028-01-18T07:00:00','2028-02-02T07:00:00','P0Y0M0D','P0Y0M49D',.F.,$,$,$,$,$,0.0);
#118=IFCTASK('HfOHdbEHVRLlpF1X6JHzj1',#6,'Risers, mechanical services',$,$,'5.3',$,$,$,.F.,$,#117,.INSTALLATION.);
#119=IFCTASKTIME('Air handling units Time',.PREDICTED.,$,.WORKTIME.,'P0Y0M10D','2027-03-01T07:00:00','2027-03-12T07:00:00','2027-11-26T07:00:00','2027-12-09T07:00:00','2028-02-03T07:00:00','2028-02-16T07:00:00','P0Y0M0D','P0Y0M49D',.F.,$,$,$,$,$,0.0);
#120=IFCTASK('mfWNC5$dV5tR$B6$KJMNEf',#6,'Air handling units',$,$,'5.4',$,$,$,.F.,$,#119,.INSTALLATION.);
#121=IFCTASKTIME('Ventilation ductwork Time',.PREDICTED.,$,.WORKTIME.,'P0Y0M15D','2027-03-01T07:00:00','2027-03-19T07:00:00','2027-12-10T07:00:00','2027-12-30T07:00:00','2028-02-17T07:00:00','2028-03-08T07:00:00','P0Y0M0D','P0Y0M49D',.F.,$,$,$,$,$,0.0);
#122=IFCTASK('N3XzIJ3Hl1oBSdoVeJFTN1',#6,'Ventilation ductwork',$,$,'5.5',$,$,$,.F.,$,#121,.INSTALLATION.);
#123=IFCTASKTIME('Sprinkler installation Time',.PREDICTED.,$,.WORKTIME.,'P0Y0M10D','2027-03-01T07:00:00','2027-03-12T07:00:00','2027-12-31T07:00:00','2028-01-13T07:00:00','2028-03-09T07:00:00','2028-03-22T07:00:00','P0Y0M0D','P0Y0M49D',.F.,$,$,$,$,$,0.0);
#124=IFCTASK('hZRHj$2fc$kLkx0Xt3PJAT',#6,'Sprinkler installation',$,$,'5.6',$,$,$,.F.,$,#123,.INSTALLATION.);
#125=IFCTASKTIME('Lift installation Time',.PREDICTED.,$,.WORKTIME.,'P0Y0M20D','2027-03-01T07:00:00','2027-03-26T07:00:00','2028-01-14T07:00:00','2028-02-10T07:00:00','2028-03-23T07:00:00','2028-04-21T07:00:00','P0Y0M0D','P0Y0M49D',.F.,$,$,$,$,$,0.0);
#126=IFCTASK('JtS3E3pXtVpdSJhnDdqpSN',#6,'Lift installation',$,$,'5.7',$,$,$,.F.,$,#125,.INSTALLATION.);
#127=IFCTASKTIME('BMS/building management Time',.PREDICTED.,$,.WORKTIME.,'P0Y0M8D','2027-03-01T07:00:00','2027-03-10T07:00:00','2028-02-11T07:00:00','2028-02-22T07:00:00','2028-04-24T07:00:00','2028-05-04T07:00:00','P0Y0M49D','P0Y0M49D',.F.,$,$,$,$,$,0.0);
#128=IFCTASK('PxS3Ar1vUjQD03Dl5rijEb',#6,'BMS/building management',$,$,'5.8',$,$,$,.F.,$,#127,.INSTALLATION.);
#129=IFCTASKTIME('6. Fit-out Time',.PREDICTED.,$,.WORKTIME.,'P0Y0M5D','2027-03-01T07:00:00','2027-03-05T07:00:00','2027-12-30T07:00:00','2028-03-22T07:00:00','2027-12-30T07:00:00','2028-03-22T07:00:00','P0Y0M0D','P0Y0M0D',.T.,$,$,$,$,$,0.0);
#130=IFCTASK('GNmPnl$vw3gnHZpnRbk$YH',#6,'6. Fit-out',$,$,'6',$,$,$,.F.,$,#129,.CONSTRUCTION.);
#131=IFCTASKTIME('Office system partitions Time',.PREDICTED.,$,.WORKTIME.,'P0Y0M15D','2027-03-01T07:00:00','2027-03-19T07:00:00','2027-12-30T07:00:00','2028-01-19T07:00:00','2027-12-30T07:00:00','2028-01-19T07:00:00','P0Y0M0D','P0Y0M0D',.T.,$,$,$,$,$,0.0);
#132=IFCTASK('$jwDzP5VTDufpnt1vVxlTf',#6,'Office system partitions',$,$,'6.1',$,$,$,.F.,$,#131,.CONSTRUCTION.);
#133=IFCTASKTIME('Suspended ceilings Time',.PREDICTED.,$,.WORKTIME.,'P0Y0M12D','2027-03-01T07:00:00','2027-03-16T07:00:00','2028-01-20T07:00:00','2028-02-04T07:00:00','2028-01-20T07:00:00','2028-02-04T07:00:00','P0Y0M0D','P0Y0M0D',.T.,$,$,$,$,$,0.0);
#134=IFCTASK('ZZGvdN$vcpm1a72nRxgZJz',#6,'Suspended ceilings',$,$,'6.2',$,$,$,.F.,$,#133,.CONSTRUCTION.);
#135=IFCTASKTIME('Raised floors Time',.PREDICTED.,$,.WORKTIME.,'P0Y0M10D','2027-03-01T07:00:00','2027-03-12T07:00:00','2028-02-07T07:00:00','2028-02-18T07:00:00','2028-02-07T07:00:00','2028-02-18T07:00:00','P0Y0M0D','P0Y0M0D',.T.,$,$,$,$,$,0.0);
#136=IFCTASK('JRBVGdYFExHJMN8$UBR1Yn',#6,'Raised floors',$,$,'6.3',$,$,$,.F.,$,#135,.CONSTRUCTION.);
#137=IFCTASKTIME('Sanitary rooms Time',.PREDICTED.,$,.WORKTIME.,'P0Y0M8D','2027-03-01T07:00:00','2027-03-10T07:00:00','2028-02-21T07:00:00','2028-03-01T07:00:00','2028-02-21T07:00:00','2028-03-01T07:00:00','P0Y0M0D','P0Y0M0D',.T.,$,$,$,$,$,0.0);
#138=IFCTASK('e5iJpD9N0rt3JpjFJxxlj1',#6,'Sanitary rooms',$,$,'6.4',$,$,$,.F.,$,#137,.CONSTRUCTION.);
#139=IFCTASKTIME('Kitchen/pantry fit-out Time',.PREDICTED.,$,.WORKTIME.,'P0Y0M5D','2027-03-01T07:00:00','2027-03-05T07:00:00','2028-03-02T07:00:00','2028-03-08T07:00:00','2028-03-02T07:00:00','2028-03-08T07:00:00','P0Y0M0D','P0Y0M0D',.T.,$,$,$,$,$,0.0);
#140=IFCTASK('1lXLzPRVpv37ErIVITSzBZ',#6,'Kitchen/pantry fit-out',$,$,'6.5',$,$,$,.F.,$,#139,.INSTALLATION.);
#141=IFCTASKTIME('Painting & finishing Time',.PREDICTED.,$,.WORKTIME.,'P0Y0M10D','2027-03-01T07:00:00','2027-03-12T07:00:00','2028-03-09T07:00:00','2028-03-22T07:00:00','2028-03-09T07:00:00','2028-03-22T07:00:00','P0Y0M0D','P0Y0M0D',.T.,$,$,$,$,$,0.0);
#142=IFCTASK('Y1PLRb5XJBhlNRu$sRUFDD',#6,'Painting & finishing',$,$,'6.6',$,$,$,.F.,$,#141,.CONSTRUCTION.);
#143=IFCTASKTIME('7. Site works & handover Time',.PREDICTED.,$,.WORKTIME.,'P0Y0M5D','2027-03-01T07:00:00','2027-03-05T07:00:00','2028-03-23T07:00:00','2028-05-04T07:00:00','2028-03-23T07:00:00','2028-05-04T07:00:00','P0Y0M0D','P0Y0M0D',.T.,$,$,$,$,$,0.0);
#144=IFCTASK('fTj7vPxVbXxV2D9$jfszpH',#6,'7. Site works & handover',$,$,'7',$,$,$,.F.,$,#143,.CONSTRUCTION.);
#145=IFCTASKTIME('Paving & landscaping Time',.PREDICTED.,$,.WORKTIME.,'P0Y0M10D','2027-03-01T07:00:00','2027-03-12T07:00:00','2028-03-23T07:00:00','2028-04-05T07:00:00','2028-03-23T07:00:00','2028-04-05T07:00:00','P0Y0M0D','P0Y0M0D',.T.,$,$,$,$,$,0.0);
#146=IFCTASK('6BQN41otJtdjg9CFi1l3v5',#6,'Paving & landscaping',$,$,'7.1',$,$,$,.F.,$,#145,.CONSTRUCTION.);
#147=IFCTASKTIME('Entrance & lobby fit-out Time',.PREDICTED.,$,.WORKTIME.,'P0Y0M8D','2027-03-01T07:00:00','2027-03-10T07:00:00','2028-04-06T07:00:00','2028-04-19T07:00:00','2028-04-06T07:00:00','2028-04-19T07:00:00','P0Y0M0D','P0Y0M0D',.T.,$,$,$,$,$,0.0);
#148=IFCTASK('Zz4Z0FLl91nLgrQ$EHPxvt',#6,'Entrance & lobby fit-out',$,$,'7.2',$,$,$,.F.,$,#147,.INSTALLATION.);
#149=IFCTASKTIME('Testing & commissioning Time',.PREDICTED.,$,.WORKTIME.,'P0Y0M10D','2027-03-01T07:00:00','2027-03-12T07:00:00','2028-04-20T07:00:00','2028-05-04T07:00:00','2028-04-20T07:00:00','2028-05-04T07:00:00','P0Y0M0D','P0Y0M0D',.T.,$,$,$,$,$,0.0);
#150=IFCTASK('pB9plXxVpRBFVxWXXDMZN$',#6,'Testing & commissioning',$,$,'7.3',$,$,$,.F.,$,#149,.ATTENDANCE.);
#151=IFCTASKTIME('Handover Time',.PREDICTED.,$,.WORKTIME.,'P0Y0M0D','2027-03-01T07:00:00','2027-03-01T07:00:00','2028-05-04T07:00:00','2028-05-04T07:00:00','2028-05-04T07:00:00','2028-05-04T07:00:00','P0Y0M0D','P0Y0M0D',.T.,$,$,$,$,$,0.0);
#152=IFCTASK('4jEbuLCVr96Js5inQ3HBqT',#6,'Handover',$,$,'7.4',$,$,$,.T.,$,#151,.CONSTRUCTION.);
#153=IFCRELNESTS('PVxnr7sdh7e97XFXH7WdLN',#6,'WBS 1. Preparation',$,#40,( #42,#44,#46,#48,#50));
#154=IFCRELNESTS('BJTfiBtNILjvo1HXPHxXGl',#6,'WBS 2. Earthworks & foundations',$,#52,( #54,#56,#58,#60,#62,#64,#66,#68,#70,#72));
#155=IFCRELNESTS('Hf8VyTGNU7etDzplxL8Fjz',#6,'WBS 3. Structural works',$,#74,( #76,#78,#80,#82,#84,#86,#88,#90,#92,#94,#96,#98));
#156=IFCRELNESTS('idOlJVklpx1Z3d2VZVPJQh',#6,'WBS 4. Facade',$,#100,( #102,#104,#106,#108,#110));
#157=IFCRELNESTS('LPmd9ZvtHpetFjplnx5HhD',#6,'WBS 5. Building services',$,#112,( #114,#116,#118,#120,#122,#124,#126,#128));
#158=IFCRELNESTS('tptpvreP9BdJcz5nED_rKV',#6,'WBS 6. Fit-out',$,#130,( #132,#134,#136,#138,#140,#142));
#159=IFCRELNESTS('YVbH5rPtjLdjwXVVITyZZx',#6,'WBS 7. Site works & handover',$,#144,( #146,#148,#150,#152));
#160=IFCRELNESTS('tjjP5r1vgdnD4TBHzDgTrv',#6,'WBS Hoofd',$,#37,(#40,#52,#74,#100,#112,#130,#144));
#161=IFCRELSEQUENCE('WVpdDFKVVRRX6X$XiJ6PX3',#6,$,$,#42,#44,$,.FINISH_START.,$);
#162=IFCRELSEQUENCE('Rx4rl5lv8$khczRF8BKjIh',#6,$,$,#44,#46,$,.FINISH_START.,$);
#163=IFCRELSEQUENCE('eTBVWV3lvzWHBDXVat_ln1',#6,$,$,#46,#48,$,.FINISH_START.,$);
#164=IFCRELSEQUENCE('KP8V4$cvWxV3dl3HoJ6PJT',#6,$,$,#48,#50,$,.FINISH_START.,$);
#165=IFCRELSEQUENCE('0llR4XkHxlZPqnXXWfI51j',#6,$,$,#54,#56,$,.FINISH_START.,$);
#166=IFCRELSEQUENCE('XXh$U5sPnFKzFJDlVpwJw1',#6,$,$,#56,#58,$,.FINISH_START.,$);
#167=IFCRELSEQUENCE('LzNbe3jXpbRVU9mX6fYLMt',#6,$,$,#58,#60,$,.FINISH_START.,$);
#168=IFCRELSEQUENCE('M74Br7sPNxvLARmXgHBnXz',#6,$,$,#60,#62,$,.FINISH_START.,$);
#169=IFCRELSEQUENCE('OxiRKB$vs915PZN$ZTaBer',#6,$,$,#62,#64,$,.FINISH_START.,$);
#170=IFCRELSEQUENCE('GvEF5lP9XdvL2jbFuZ5Xe3',#6,$,$,#64,#66,$,.FINISH_START.,$);
#171=IFCRELSEQUENCE('yHjdlXxXBN_tvXN1grSzNz',#6,$,$,#66,#68,$,.FINISH_START.,$);
#172=IFCRELSEQUENCE('M31Z0n3$yF9bxF5lOjtB8b',#6,$,$,#68,#70,$,.FINISH_START.,$);
#173=IFCRELSEQUENCE('orHRif79JNR$aPs$NfYLkL',#6,$,$,#70,#72,$,.FINISH_START.,$);
#174=IFCRELSEQUENCE('yF$rPN1vgxvhE$HXPHhlvR',#6,$,$,#76,#78,$,.FINISH_START.,$);
#175=IFCRELSEQUENCE('fv4TW$H7mzG1S7_nxh8nlL',#6,$,$,#78,#80,$,.FINISH_START.,$);
#176=IFCRELSEQUENCE('vrwtwTmfmZ4piXN$sb2lLj',#6,$,$,#80,#82,$,.FINISH_START.,$);
#177=IFCRELSEQUENCE('cVJ7rvw7QpWHPZ$VAVj7dr',#6,$,$,#82,#84,$,.FINISH_START.,$);
#178=IFCRELSEQUENCE('P1$Z0HHd73u7A72n$Ti5jT',#6,$,$,#84,#86,$,.FINISH_START.,$);
#179=IFCRELSEQUENCE('j5Hjb$Xd7T4LQHTHOJH37R',#6,$,$,#86,#88,$,.FINISH_START.,$);
#180=IFCRELSEQUENCE('sp1rnhrHTD0F3bu1sxob1f',#6,$,$,#88,#90,$,.FINISH_START.,$);
#181=IFCRELSEQUENCE('WXj73Be7iJaJEhQHT30vPL',#6,$,$,#90,#92,$,.FINISH_START.,$);
#182=IFCLAGTIME('Lag',.PREDICTED.,$,IFCDURATION('P5D'),.WORKTIME.);
#183=IFCRELSEQUENCE('QxS3Qf09nZYxBJDlznpd3L',#6,$,$,#92,#94,#182,.START_START.,$);
#184=IFCRELSEQUENCE('4j_BrdcVzzEvMfmV696dzL',#6,$,$,#94,#96,$,.FINISH_START.,$);
#185=IFCRELSEQUENCE('EL5XSluP9VzfPZ1XYdS33P',#6,$,$,#96,#98,$,.FINISH_START.,$);
#186=IFCRELSEQUENCE('uLQJHxffsNjvgL_FHLfTTb',#6,$,$,#102,#104,$,.FINISH_START.,$);
#187=IFCRELSEQUENCE('CBHR0HV7CZ6j6pZFQzXR5h',#6,$,$,#104,#106,$,.FINISH_START.,$);
#188=IFCRELSEQUENCE('d17BBds$y5tRDZ$VY7OHlH',#6,$,$,#106,#108,$,.FINISH_START.,$);
#189=IFCRELSEQUENCE('tjR$EX2FSVZtpTv$cZpP7t',#6,$,$,#108,#110,$,.FINISH_START.,$);
#190=IFCRELSEQUENCE('F7Y1knqXzzIPSDlVDveHnV',#6,$,$,#114,#116,$,.FINISH_START.,$);
#191=IFCLAGTIME('Lag',.PREDICTED.,$,IFCDURATION('P3D'),.WORKTIME.);
#192=IFCRELSEQUENCE('DrfJfny10LBF99yHprDdJ3',#6,$,$,#116,#118,#191,.START_START.,$);
#193=IFCRELSEQUENCE('tDfJrPwVD7x$yt4lVnJ75L',#6,$,$,#118,#120,$,.FINISH_START.,$);
#194=IFCRELSEQUENCE('7HxXeTNN8VIdOVBnxFvD09',#6,$,$,#120,#122,$,.FINISH_START.,$);
#195=IFCRELSEQUENCE('c$95sBXvaBDdGBUX$X1xtl',#6,$,$,#122,#124,$,.FINISH_START.,$);
#196=IFCRELSEQUENCE('AptDLp2NstNTnv_FhZBFJT',#6,$,$,#124,#126,$,.FINISH_START.,$);
#197=IFCRELSEQUENCE('ItKjpD9NmJsT5R4njxr$kv',#6,$,$,#126,#128,$,.FINISH_START.,$);
#198=IFCRELSEQUENCE('KvSzgXDnol5$WDDFbb2H5B',#6,$,$,#132,#134,$,.FINISH_START.,$);
#199=IFCRELSEQUENCE('cxq5cNGNoRhlZ9SFbxA3f3',#6,$,$,#134,#136,$,.FINISH_START.,$);
#200=IFCRELSEQUENCE('U11ZezT1wH8N3vEnUBLl5L',#6,$,$,#136,#138,$,.FINISH_START.,$);
#201=IFCRELSEQUENCE('b54T8LKVHp0nv1LHf9YFhN',#6,$,$,#138,#140,$,.FINISH_START.,$);
#202=IFCRELSEQUENCE('O5CDfDfNEn1ZfbmVSxj7Zf',#6,$,$,#140,#142,$,.FINISH_START.,$);
#203=IFCRELSEQUENCE('d17rLtiV1Bjv61DFrD5HDl',#6,$,$,#146,#148,$,.FINISH_START.,$);
#204=IFCRELSEQUENCE('Bfg36z4lxlptTrYV$V$xn5',#6,$,$,#148,#150,$,.FINISH_START.,$);
#205=IFCRELSEQUENCE('R1PhBZudd7G$ulXVAVJ7ll',#6,$,$,#150,#152,$,.FINISH_START.,$);
#206=IFCLAGTIME('Lag',.PREDICTED.,$,IFCDURATION('P10D'),.WORKTIME.);
#207=IFCRELSEQUENCE('1JsZWXxVnlO9zxqlglpd7t',#6,$,$,#42,#54,#206,.START_START.,$);
#208=IFCLAGTIME('Lag',.PREDICTED.,$,IFCRATIOMEASURE(0.4),.WORKTIME.);
#209=IFCRELSEQUENCE('Q$$ZiBffSVDPGLclzjoVK1',#6,$,$,#54,#76,#208,.START_START.,$);
#210=IFCLAGTIME('Lag',.PREDICTED.,$,IFCDURATION('-P21D'),.WORKTIME.);
#211=IFCRELSEQUENCE('l5vrpJRXbBNTDlRFK$tBmF',#6,$,$,#96,#102,#210,.FINISH_START.,$);
#212=IFCLAGTIME('Lag',.PREDICTED.,$,IFCDURATION('P2D'),.WORKTIME.);
#213=IFCRELSEQUENCE('RxqpzdjFC3IdWj91K1FZr7',#6,$,$,#96,#108,#212,.FINISH_FINISH.,$);
#214=IFCRELSEQUENCE('S$9xQj_FC7mVErw1yh$xvt',#6,$,$,#108,#114,$,.FINISH_START.,$);
#215=IFCLAGTIME('Lag',.PREDICTED.,$,IFCDURATION('P49D'),.WORKTIME.);
#216=IFCRELSEQUENCE('IxfR8r09LD29h9mXk30v9J',#6,$,$,#114,#132,#215,.START_START.,$);
#217=IFCRELSEQUENCE('8pVhd5UfWRJfT9iHKXj7Pr',#6,$,$,#142,#146,$,.FINISH_START.,$);
#218=IFCCONSTRUCTIONEQUIPMENTRESOURCE('XVL1wTGNiJC5pH5FwNgTb$',#6,'Tower crane','One tower crane — the plot has room for a single crane base; floors, core and steel roof all queue for it',$,$,$,$,.USERDEFINED.);
#219=IFCSUBCONTRACTRESOURCE('NTjvXjIHVdtRv1ZnUrhl7b',#6,'Site works contractor','Site set-up, the traffic measures on the surrounding roads and, at the very end, the paving and landscaping',$,$,$,$,.USERDEFINED.);
#220=IFCLABORRESOURCE('kf8nnBfN8VgnTr_VxBKJI7',#6,'Project management','Stakeholder management towards neighbours and the city, and the handover file',$,$,$,$,.USERDEFINED.);
#221=IFCSUBCONTRACTRESOURCE('sjLHdxQvenCZ7DBljxLVKV',#6,'Geotechnical monitoring contractor','Piezometers and deformation monitoring of the adjoining buildings — standard for a deep basement in the inner city',$,$,$,$,.USERDEFINED.);
#222=IFCSUBCONTRACTRESOURCE('Ct6toZld5ntbDZt1ZVFLMJ',#6,'Piling contractor','Sheet piling and bored foundation piles',$,$,$,$,.USERDEFINED.);
#223=IFCSUBCONTRACTRESOURCE('0Fb1kFqn891xDn91bbYFZR',#6,'Earthworks contractor','Dewatering and the excavation down to level -2',$,$,$,$,.USERDEFINED.);
#224=IFCLABORRESOURCE('WX5nzr872fsHP3hnf9Q7ZN',#6,'Structural works crew','Two concrete gangs of seven: one finishing the basement while the other climbs the tower',$,$,$,$,.USERDEFINED.);
#225=IFCLABORRESOURCE('UTOlHVzHPj2Rv1xHyhnLEx',#6,'Core formwork gang','Dedicated gang on the self-climbing formwork of the stair and lift core, running alongside the floor cycle',$,$,$,$,.USERDEFINED.);
#226=IFCLABORRESOURCE('GfuVyzCniDmXMtilCZa3dB',#6,'Steel fixers','Two rebar gangs of four, on the heavy elements; the typical floors get prefabricated reinforcement',$,$,$,$,.USERDEFINED.);
#227=IFCCONSTRUCTIONMATERIALRESOURCE('DB$rnBtNo5tRl3lXzFTNo5',#6,'Concrete C30/37',$,$,$,$,$,.USERDEFINED.);
#228=IFCSUBCONTRACTRESOURCE('vljP$7c7y5dBGbGVOxs3pl',#6,'Structural steel contractor','Steel erection gang for the roof structure',$,$,$,$,.USERDEFINED.);
#229=IFCSUBCONTRACTRESOURCE('7Bs7$ZGNC36189GVAVRFtn',#6,'Facade contractor','Unitised curtain wall, hoisted with its own monorail hoists off the floor edge — it never queues for the tower crane',$,$,$,$,.USERDEFINED.);
#230=IFCSUBCONTRACTRESOURCE('t9onbXbXpddrKXt1WN6JYl',#6,'Roofing contractor',$,$,$,$,$,.USERDEFINED.);
#231=IFCLABORRESOURCE('k5FDlVh16ZQpKxu$NJ$jQL',#6,'Electricians',$,$,$,$,$,.USERDEFINED.);
#232=IFCLABORRESOURCE('T$vB5HXvuVIPGbGVyhHBm$',#6,'Mechanical fitters','Ductwork, air handling, sprinklers; peaks on the ventilation ductwork',$,$,$,$,.USERDEFINED.);
#233=IFCSUBCONTRACTRESOURCE('qtMdz779vNUfNxylZzWdv9',#6,'Lift contractor',$,$,$,$,$,.USERDEFINED.);
#234=IFCLABORRESOURCE('azSLVNOdHXE7Y9mX4hfTXT',#6,'Fit-out crew','System partitions, ceilings and raised floors across eight office storeys',$,$,$,$,.USERDEFINED.);
#235=IFCLABORRESOURCE('g3vrfna$wTQDWj$XqlhlJ$',#6,'Painters',$,$,$,$,$,.USERDEFINED.);
#236=IFCPROPERTYSINGLEVALUE('CostPerHour',$,IFCMONETARYMEASURE(110),$);
#237=IFCPROPERTYSET('pBP36vAdtB$xPZXXej$jYp',#6,'OPS_Resource',$,(#236));
#238=IFCRELDEFINESBYPROPERTIES('Q1lJLt4$u9FLwVHV9vqDSb',#6,$,$,(#218),#237);
#239=IFCPROPERTYSINGLEVALUE('MaxUnits',$,IFCREAL(6),$);
#240=IFCPROPERTYSINGLEVALUE('CostPerHour',$,IFCMONETARYMEASURE(58),$);
#241=IFCPROPERTYSET('LvSLVNedXPvhclTlaf6jA7',#6,'OPS_Resource',$,(#239,#240));
#242=IFCRELDEFINESBYPROPERTIES('kxfb4$YNuXsl11v1EFr12z',#6,$,$,(#219),#241);
#243=IFCPROPERTYSINGLEVALUE('MaxUnits',$,IFCREAL(2),$);
#244=IFCPROPERTYSINGLEVALUE('CostPerHour',$,IFCMONETARYMEASURE(95),$);
#245=IFCPROPERTYSET('2pQNGdM$kh3Nj1xHS96df$',#6,'OPS_Resource',$,(#243,#244));
#246=IFCRELDEFINESBYPROPERTIES('fP8V8J5VBfo7InblQP8nXz',#6,$,$,(#220),#245);
#247=IFCPROPERTYSINGLEVALUE('MaxUnits',$,IFCREAL(2),$);
#248=IFCPROPERTYSINGLEVALUE('CostPerHour',$,IFCMONETARYMEASURE(115),$);
#249=IFCPROPERTYSET('s9Qfy$otd7OdunblopUhE5',#6,'OPS_Resource',$,(#247,#248));
#250=IFCRELDEFINESBYPROPERTIES('nhR1Ybg1ArBFnDd$GX15$D',#6,$,$,(#221),#249);
#251=IFCPROPERTYSINGLEVALUE('MaxUnits',$,IFCREAL(4),$);
#252=IFCPROPERTYSINGLEVALUE('CostPerHour',$,IFCMONETARYMEASURE(78),$);
#253=IFCPROPERTYSET('W$fRiNVvyFNxPZN1bVhVOr',#6,'OPS_Resource',$,(#251,#252));
#254=IFCRELDEFINESBYPROPERTIES('vhg3cDgdjtHBWJ1V8znLIr',#6,$,$,(#222),#253);
#255=IFCPROPERTYSINGLEVALUE('MaxUnits',$,IFCREAL(6),$);
#256=IFCPROPERTYSINGLEVALUE('CostPerHour',$,IFCMONETARYMEASURE(62),$);
#257=IFCPROPERTYSET('K5XzU5cvqPqxfxyHDrzNkd',#6,'OPS_Resource',$,(#255,#256));
#258=IFCRELDEFINESBYPROPERTIES('xlBFppNfQjyD49qnyPmNgN',#6,$,$,(#223),#257);
#259=IFCPROPERTYSINGLEVALUE('MaxUnits',$,IFCREAL(14),$);
#260=IFCPROPERTYSINGLEVALUE('CostPerHour',$,IFCMONETARYMEASURE(46),$);
#261=IFCPROPERTYSET('qhrFdtJXDRZdG5KHyL$5R$',#6,'OPS_Resource',$,(#259,#260));
#262=IFCRELDEFINESBYPROPERTIES('R1Nbexot5R51qroVqTyTN1',#6,$,$,(#224),#261);
#263=IFCPROPERTYSINGLEVALUE('MaxUnits',$,IFCREAL(6),$);
#264=IFCPROPERTYSINGLEVALUE('CostPerHour',$,IFCMONETARYMEASURE(48),$);
#265=IFCPROPERTYSET('AjBFDjjnCvG1CnnXlvGter',#6,'OPS_Resource',$,(#263,#264));
#266=IFCRELDEFINESBYPROPERTIES('Z$1ZKB$7k$djE1N$3DUhob',#6,$,$,(#225),#265);
#267=IFCPROPERTYSINGLEVALUE('MaxUnits',$,IFCREAL(8),$);
#268=IFCPROPERTYSINGLEVALUE('CostPerHour',$,IFCMONETARYMEASURE(44),$);
#269=IFCPROPERTYSET('4p_XGPolNFdradIX2f6J_$',#6,'OPS_Resource',$,(#267,#268));
#270=IFCRELDEFINESBYPROPERTIES('hPelrZuvwzAl3PA1VpsznX',#6,$,$,(#226),#269);
#271=IFCPROPERTYSINGLEVALUE('MaxUnits',$,IFCREAL(999),$);
#272=IFCPROPERTYSINGLEVALUE('UnitOfMeasure',$,IFCLABEL('m³'),$);
#273=IFCPROPERTYSET('7BgP1PElpdFp4zHVF5z9Wd',#6,'OPS_Resource',$,(#271,#272));
#274=IFCRELDEFINESBYPROPERTIES('k9q52BWthvOPGL6HpdSBeT',#6,$,$,(#227),#273);
#275=IFCPROPERTYSINGLEVALUE('MaxUnits',$,IFCREAL(4),$);
#276=IFCPROPERTYSINGLEVALUE('CostPerHour',$,IFCMONETARYMEASURE(70),$);
#277=IFCPROPERTYSET('pdM3gRL$Q$Yxrpd1K11j2$',#6,'OPS_Resource',$,(#275,#276));
#278=IFCRELDEFINESBYPROPERTIES('CL39ETP91NxXoVRFS5DPlr',#6,$,$,(#228),#277);
#279=IFCPROPERTYSINGLEVALUE('MaxUnits',$,IFCREAL(8),$);
#280=IFCPROPERTYSINGLEVALUE('CostPerHour',$,IFCMONETARYMEASURE(72),$);
#281=IFCPROPERTYSET('R1PLLJA10rFLcZP1KVbnZb',#6,'OPS_Resource',$,(#279,#280));
#282=IFCRELDEFINESBYPROPERTIES('2jsZGPElX5tbLNilSRHz5h',#6,$,$,(#229),#281);
#283=IFCPROPERTYSINGLEVALUE('MaxUnits',$,IFCREAL(4),$);
#284=IFCPROPERTYSINGLEVALUE('CostPerHour',$,IFCMONETARYMEASURE(66),$);
#285=IFCPROPERTYSET('T1FDfjpFMvJNtBIXUd4LUJ',#6,'OPS_Resource',$,(#283,#284));
#286=IFCRELDEFINESBYPROPERTIES('4jULdRcXZp0nxnTn69YFTb',#6,$,$,(#230),#285);
#287=IFCPROPERTYSINGLEVALUE('MaxUnits',$,IFCREAL(6),$);
#288=IFCPROPERTYSINGLEVALUE('CostPerHour',$,IFCMONETARYMEASURE(49),$);
#289=IFCPROPERTYSET('c5ijXDcvif_tFjZHyrzfEt',#6,'OPS_Resource',$,(#287,#288));
#290=IFCRELDEFINESBYPROPERTIES('DdcjvPRVRhR1iVlXrjXDO3',#6,$,$,(#231),#289);
#291=IFCPROPERTYSINGLEVALUE('MaxUnits',$,IFCREAL(8),$);
#292=IFCPROPERTYSINGLEVALUE('CostPerHour',$,IFCMONETARYMEASURE(48),$);
#293=IFCPROPERTYSET('FhpvnBX7C7WlBp71sbMfYj',#6,'OPS_Resource',$,(#291,#292));
#294=IFCRELDEFINESBYPROPERTIES('eTZfGds$itQpuHHXL3FhMJ',#6,$,$,(#232),#293);
#295=IFCPROPERTYSINGLEVALUE('MaxUnits',$,IFCREAL(3),$);
#296=IFCPROPERTYSINGLEVALUE('CostPerHour',$,IFCMONETARYMEASURE(82),$);
#297=IFCPROPERTYSET('W17r7vNN2TyD0zDHzFJ7jX',#6,'OPS_Resource',$,(#295,#296));
#298=IFCRELDEFINESBYPROPERTIES('vL6pnnT1_zWHFdEVaNA3JX',#6,$,$,(#233),#297);
#299=IFCPROPERTYSINGLEVALUE('MaxUnits',$,IFCREAL(10),$);
#300=IFCPROPERTYSINGLEVALUE('CostPerHour',$,IFCMONETARYMEASURE(44),$);
#301=IFCPROPERTYSET('up1rJ3z$OlOdWJN1_tcvVP',#6,'OPS_Resource',$,(#299,#300));
#302=IFCRELDEFINESBYPROPERTIES('VXZfqbr$89XRHZxl07unzh',#6,$,$,(#234),#301);
#303=IFCPROPERTYSINGLEVALUE('MaxUnits',$,IFCREAL(6),$);
#304=IFCPROPERTYSINGLEVALUE('CostPerHour',$,IFCMONETARYMEASURE(38),$);
#305=IFCPROPERTYSET('M7ShdxktJhHrOP_Vftcvfz',#6,'OPS_Resource',$,(#303,#304));
#306=IFCRELDEFINESBYPROPERTIES('lb5F3redFFi3LtO1ZVFhMp',#6,$,$,(#235),#305);
#307=IFCRELASSIGNSTOPROCESS('aZmvt$2NEFnD03hn3lP5zL',#6,$,$,(#219),$,#42,$);
#308=IFCRELASSIGNSTOPROCESS('kt4Z4Tev0rVbVxe$ejvbPL',#6,$,$,(#220),$,#44,$);
#309=IFCRELASSIGNSTOPROCESS('nrXhNDnvQ1cpSjrFtTb$2z',#6,$,$,(#219),$,#46,$);
#310=IFCRELASSIGNSTOPROCESS('iRTNO5YfW5FDePUVZ3OHDH',#6,$,$,(#221),$,#48,$);
#311=IFCRELASSIGNSTOPROCESS('GtyZm94$WbJf1XDlRxMZJz',#6,$,$,(#222),$,#54,$);
#312=IFCRELASSIGNSTOPROCESS('nPcjrPcXdJgzTh_nVJ2lBZ',#6,$,$,(#223),$,#56,$);
#313=IFCRELASSIGNSTOPROCESS('W1dLLpItfRhlvDjFNJXpuD',#6,$,$,(#223),$,#58,$);
#314=IFCRELASSIGNSTOPROCESS('Ifmv1Z09RhpdyZbl6jfhgj',#6,$,$,(#223),$,#60,$);
#315=IFCRELASSIGNSTOPROCESS('8D7Zy$o9Xbx1iRiFsXTNkd',#6,$,$,(#222),$,#62,$);
#316=IFCRELASSIGNSTOPROCESS('wFdzgXL$6ToBGroVSbl3BZ',#6,$,$,(#224,#226,#227),$,#64,$);
#317=IFCRELASSIGNSTOPROCESS('m7U$YbcX3ZMzzxKluzlrKp',#6,$,$,(#224,#227),$,#66,$);
#318=IFCRELASSIGNSTOPROCESS('F7klxBffmZSJUznXrtcvpl',#6,$,$,(#224,#227),$,#68,$);
#319=IFCRELASSIGNSTOPROCESS('MvKjjzrl5n1ZRLcldB4Td7',#6,$,$,(#224,#226,#227),$,#70,$);
#320=IFCRELASSIGNSTOPROCESS('6nHbeZ1vIX5XoroXe5EbvR',#6,$,$,(#224),$,#72,$);
#321=IFCRELASSIGNSTOPROCESS('lfelnlFP3lOdqhEFcz$5rP',#6,$,$,(#224,#226,#218,#227),$,#76,$);
#322=IFCRELASSIGNSTOPROCESS('M74B1ZmfG30n9f81j5ZfwV',#6,$,$,(#224,#218,#227),$,#78,$);
#323=IFCRELASSIGNSTOPROCESS('hd8nNna1MxPrmBkXcTpdR$',#6,$,$,(#224,#218,#227),$,#80,$);
#324=IFCRELASSIGNSTOPROCESS('O5azQpottXT9v$xlOj$JQh',#6,$,$,(#224,#218,#227),$,#82,$);
#325=IFCRELASSIGNSTOPROCESS('dbO1_vPt5ljNBD1XElNLo9',#6,$,$,(#224,#218,#227),$,#84,$);
#326=IFCRELASSIGNSTOPROCESS('G76tgXbX5xPrmhYFxlzfIr',#6,$,$,(#224,#218,#227),$,#86,$);
#327=IFCRELASSIGNSTOPROCESS('S$fbqvvtRhR1KRCFG$DPh9',#6,$,$,(#224,#218,#227),$,#88,$);
#328=IFCRELASSIGNSTOPROCESS('I5vBlbh1g5tRH3N1IVfT5H',#6,$,$,(#224,#218,#227),$,#90,$);
#329=IFCRELASSIGNSTOPROCESS('hPuFXJYF6zo7Mrw18B4hYJ',#6,$,$,(#224,#218,#227),$,#92,$);
#330=IFCRELASSIGNSTOPROCESS('2FrFTbs$4lZdufSFXjA9CF',#6,$,$,(#225,#226,#227),$,#94,$);
#331=IFCRELASSIGNSTOPROCESS('8BoFpjh$AfxVkHlX3HP5X3',#6,$,$,(#228,#218),$,#96,$);
#332=IFCRELASSIGNSTOPROCESS('tDfj5npVJNJvA7En6tstyv',#6,$,$,(#229),$,#102,$);
#333=IFCRELASSIGNSTOPROCESS('2n5VGta16nCT1$lVlrj7F1',#6,$,$,(#229),$,#104,$);
#334=IFCRELASSIGNSTOPROCESS('d5yrxF310LzNrjRFqzGNkr',#6,$,$,(#229),$,#106,$);
#335=IFCRELASSIGNSTOPROCESS('ovsvVDcvqPajoBM15FvDi$',#6,$,$,(#230),$,#108,$);
#336=IFCRELASSIGNSTOPROCESS('5lb$U9xnO7p9D3DHv1NhYj',#6,$,$,(#231),$,#114,$);
#337=IFCRELASSIGNSTOPROCESS('K7KjtX6XzlOtR17$ghm9ux',#6,$,$,(#231),$,#116,$);
#338=IFCRELASSIGNSTOPROCESS('$ld36zqVHVo7EVTHijUFZb',#6,$,$,(#232),$,#118,$);
#339=IFCRELASSIGNSTOPROCESS('0HXhPbM1ALXRr7_nBDbFZb',#6,$,$,(#232),$,#120,$);
#340=IFCRELASSIGNSTOPROCESS('P5iRCRZH91dJYtWVrDRnN$',#6,$,$,(#232),$,#122,$);
#341=IFCRELASSIGNSTOPROCESS('RRm7nBlPnlGXgfWXHrDdV3',#6,$,$,(#232),$,#124,$);
#342=IFCRELASSIGNSTOPROCESS('znBF$za$gxvLU3v$tzNZDj',#6,$,$,(#233),$,#126,$);
#343=IFCRELASSIGNSTOPROCESS('tJZfqv$dTX2tN7onQvyZvf',#6,$,$,(#231),$,#128,$);
#344=IFCRELASSIGNSTOPROCESS('HxXzQ9a$29U5JV71xn$5FR',#6,$,$,(#234),$,#132,$);
#345=IFCRELASSIGNSTOPROCESS('pBlbSJg$ExnD8f4Flvu1sd',#6,$,$,(#234),$,#134,$);
#346=IFCRELASSIGNSTOPROCESS('ZZ09Ilmfu$_RnJBFVHnZDJ',#6,$,$,(#234),$,#136,$);
#347=IFCRELASSIGNSTOPROCESS('8JjPR5dt9hDPOPg$zJ6dZb',#6,$,$,(#234,#232),$,#138,$);
#348=IFCRELASSIGNSTOPROCESS('nPIx_vlvy59RhNiHi1fLMD',#6,$,$,(#234),$,#140,$);
#349=IFCRELASSIGNSTOPROCESS('kN0tM51PtX3Nx5GXIz07lF',#6,$,$,(#235),$,#142,$);
#350=IFCRELASSIGNSTOPROCESS('gTpP9zhlj9VbXbyHBNcD8x',#6,$,$,(#219),$,#146,$);
#351=IFCRELASSIGNSTOPROCESS('DLz9w7gPFT2RzxyFB9A94v',#6,$,$,(#234),$,#148,$);
#352=IFCRELASSIGNSTOPROCESS('3JQjBvsdDb51unznGX$53L',#6,$,$,(#231,#232,#220),$,#150,$);
#353=IFCPROPERTYSINGLEVALUE('NTjvXjIHVdtRv1ZnUrhl7b#0',$,IFCTEXT('6|UNIFORM'),$);
#354=IFCPROPERTYSET('jt4ZC5v9fn$T9BoV83HB8x',#6,'OPS_Assignments',$,(#353));
#355=IFCRELDEFINESBYPROPERTIES('ibRlHXZld7O935ilaRl3VP',#6,$,$,(#42),#354);
#356=IFCPROPERTYSINGLEVALUE('kf8nnBfN8VgnTr_VxBKJI7#0',$,IFCTEXT('2|UNIFORM'),$);
#357=IFCPROPERTYSET('tjTNy1cveluNLzv1bVhXCn',#6,'OPS_Assignments',$,(#356));
#358=IFCRELDEFINESBYPROPERTIES('Y1vrVp67QjKRtfO1Bp5H$f',#6,$,$,(#44),#357);
#359=IFCPROPERTYSINGLEVALUE('NTjvXjIHVdtRv1ZnUrhl7b#0',$,IFCTEXT('4|UNIFORM'),$);
#360=IFCPROPERTYSET('wHz9Mxl7SXxXUZxH07Wdn5',#6,'OPS_Assignments',$,(#359));
#361=IFCRELDEFINESBYPROPERTIES('V3ijJTv9$rxXs5SnVjoXm1',#6,$,$,(#46),#360);
#362=IFCPROPERTYSINGLEVALUE('sjLHdxQvenCZ7DBljxLVKV#0',$,IFCTEXT('2|UNIFORM'),$);
#363=IFCPROPERTYSET('ZVpdJ1o9V5drqLEFkTa3dh',#6,'OPS_Assignments',$,(#362));
#364=IFCRELDEFINESBYPROPERTIES('4j2rnLLHJNrnFDFX7xob9p',#6,$,$,(#48),#363);
#365=IFCPROPERTYSINGLEVALUE('Ct6toZld5ntbDZt1ZVFLMJ#0',$,IFCTEXT('4|UNIFORM'),$);
#366=IFCPROPERTYSET('7HTfezz$q787gf8$YLPjcH',#6,'OPS_Assignments',$,(#365));
#367=IFCRELDEFINESBYPROPERTIES('W1vrhf8P3FqxZtSHftQ7PL',#6,$,$,(#54),#366);
#368=IFCPROPERTYSINGLEVALUE('0Fb1kFqn891xDn91bbYFZR#0',$,IFCTEXT('3|UNIFORM'),$);
#369=IFCPROPERTYSET('eZ5n1zCFeFKzRVRFeR6dDD',#6,'OPS_Assignments',$,(#368));
#370=IFCRELDEFINESBYPROPERTIES('$FR$Q9CVvZizH3v1VnLXS9',#6,$,$,(#56),#369);
#371=IFCPROPERTYSINGLEVALUE('0Fb1kFqn891xDn91bbYFZR#0',$,IFCTEXT('6|UNIFORM'),$);
#372=IFCPROPERTYSET('fP8V0HtfY7mXghgHc7SBml',#6,'OPS_Assignments',$,(#371));
#373=IFCRELDEFINESBYPROPERTIES('m7EF7PpF_ZiRX58$gH5VSf',#6,$,$,(#58),#372);
#374=IFCPROPERTYSINGLEVALUE('0Fb1kFqn891xDn91bbYFZR#0',$,IFCTEXT('6|UNIFORM'),$);
#375=IFCPROPERTYSET('tDdz6P_FKN_9vVlXPnXRDH',#6,'OPS_Assignments',$,(#374));
#376=IFCRELDEFINESBYPROPERTIES('YVRldxE9DvrFDTv$cdGfw$',#6,$,$,(#60),#375);
#377=IFCPROPERTYSINGLEVALUE('Ct6toZld5ntbDZt1ZVFLMJ#0',$,IFCTEXT('4|UNIFORM'),$);
#378=IFCPROPERTYSET('1JAZKtT$o5VzTBEV0dix9n',#6,'OPS_Assignments',$,(#377));
#379=IFCRELDEFINESBYPROPERTIES('ex4rBPQVHVovQHRFaRNLsZ',#6,$,$,(#62),#378);
#380=IFCPROPERTYSINGLEVALUE('WX5nzr872fsHP3hnf9Q7ZN#0',$,IFCTEXT('6|UNIFORM'),$);
#381=IFCPROPERTYSINGLEVALUE('GfuVyzCniDmXMtilCZa3dB#1',$,IFCTEXT('4|UNIFORM'),$);
#382=IFCPROPERTYSINGLEVALUE('DB$rnBtNo5tRl3lXzFTNo5#2',$,IFCTEXT('45|UNIFORM'),$);
#383=IFCPROPERTYSET('zJgzwZmfOHePaPc$6tUnHr',#6,'OPS_Assignments',$,(#380,#381,#382));
#384=IFCRELDEFINESBYPROPERTIES('MvSLlVr$i9wjAxqlolFTnR',#6,$,$,(#64),#383);
#385=IFCPROPERTYSINGLEVALUE('WX5nzr872fsHP3hnf9Q7ZN#0',$,IFCTEXT('6|UNIFORM'),$);
#386=IFCPROPERTYSINGLEVALUE('DB$rnBtNo5tRl3lXzFTNo5#1',$,IFCTEXT('70|UNIFORM'),$);
#387=IFCPROPERTYSET('P19x2PB$yFljkHt1SNUhUD',#6,'OPS_Assignments',$,(#385,#386));
#388=IFCRELDEFINESBYPROPERTIES('0nJPj$UfuVEv6Jt1mVNTFx',#6,$,$,(#66),#387);
#389=IFCPROPERTYSINGLEVALUE('WX5nzr872fsHP3hnf9Q7ZN#0',$,IFCTEXT('6|UNIFORM'),$);
#390=IFCPROPERTYSINGLEVALUE('DB$rnBtNo5tRl3lXzFTNo5#1',$,IFCTEXT('70|UNIFORM'),$);
#391=IFCPROPERTYSET('e3PhplOPL7uvkHN1UBLltD',#6,'OPS_Assignments',$,(#389,#390));
#392=IFCRELDEFINESBYPROPERTIES('1HHbihJVl1YxXHnXxF93TN',#6,$,$,(#68),#391);
#393=IFCPROPERTYSINGLEVALUE('WX5nzr872fsHP3hnf9Q7ZN#0',$,IFCTEXT('6|UNIFORM'),$);
#394=IFCPROPERTYSINGLEVALUE('GfuVyzCniDmXMtilCZa3dB#1',$,IFCTEXT('4|UNIFORM'),$);
#395=IFCPROPERTYSINGLEVALUE('DB$rnBtNo5tRl3lXzFTNo5#2',$,IFCTEXT('55|FRONT_LOADED'),$);
#396=IFCPROPERTYSET('pLD7FhBlTpuNVnpn9d07F1',#6,'OPS_Assignments',$,(#393,#394,#395));
#397=IFCRELDEFINESBYPROPERTIES('Q$t5o3Ll5xNxHN4HJbvRTN',#6,$,$,(#70),#396);
#398=IFCPROPERTYSINGLEVALUE('WX5nzr872fsHP3hnf9Q7ZN#0',$,IFCTEXT('4|UNIFORM'),$);
#399=IFCPROPERTYSET('3jEbW1NNgxN5F7gHc3FL6$',#6,'OPS_Assignments',$,(#398));
#400=IFCRELDEFINESBYPROPERTIES('gva3QjYncJqxj1zFG$R$Qh',#6,$,$,(#72),#399);
#401=IFCPROPERTYSINGLEVALUE('WX5nzr872fsHP3hnf9Q7ZN#0',$,IFCTEXT('8|UNIFORM'),$);
#402=IFCPROPERTYSINGLEVALUE('GfuVyzCniDmXMtilCZa3dB#1',$,IFCTEXT('4|UNIFORM'),$);
#403=IFCPROPERTYSINGLEVALUE('XVL1wTGNiJC5pH5FwNgTb$#2',$,IFCTEXT('1|UNIFORM'),$);
#404=IFCPROPERTYSINGLEVALUE('DB$rnBtNo5tRl3lXzFTNo5#3',$,IFCTEXT('60|UNIFORM'),$);
#405=IFCPROPERTYSET('8p7ZqbbXRrvDqn7$6Dj7xL',#6,'OPS_Assignments',$,(#401,#402,#403,#404));
#406=IFCRELDEFINESBYPROPERTIES('X$lJdNVvylTPuFTnoJgfYH',#6,$,$,(#76),#405);
#407=IFCPROPERTYSINGLEVALUE('WX5nzr872fsHP3hnf9Q7ZN#0',$,IFCTEXT('8|UNIFORM'),$);
#408=IFCPROPERTYSINGLEVALUE('XVL1wTGNiJC5pH5FwNgTb$#1',$,IFCTEXT('1|UNIFORM'),$);
#409=IFCPROPERTYSINGLEVALUE('DB$rnBtNo5tRl3lXzFTNo5#2',$,IFCTEXT('45|UNIFORM'),$);
#410=IFCPROPERTYSET('phb1AnDXD7x1qnVXW9I$sT',#6,'OPS_Assignments',$,(#407,#408,#409));
#411=IFCRELDEFINESBYPROPERTIES('Q1FDt3Z$QJKbxFTnMBCDKD',#6,$,$,(#78),#410);
#412=IFCPROPERTYSINGLEVALUE('WX5nzr872fsHP3hnf9Q7ZN#0',$,IFCTEXT('8|UNIFORM'),$);
#413=IFCPROPERTYSINGLEVALUE('XVL1wTGNiJC5pH5FwNgTb$#1',$,IFCTEXT('1|UNIFORM'),$);
#414=IFCPROPERTYSINGLEVALUE('DB$rnBtNo5tRl3lXzFTNo5#2',$,IFCTEXT('45|UNIFORM'),$);
#415=IFCPROPERTYSET('qrd3o3pVj9lBKbaFPH3No5',#6,'OPS_Assignments',$,(#412,#413,#414));
#416=IFCRELDEFINESBYPROPERTIES('b1nDFFT$63gFhtO$GHH3pl',#6,$,$,(#80),#415);
#417=IFCPROPERTYSINGLEVALUE('WX5nzr872fsHP3hnf9Q7ZN#0',$,IFCTEXT('8|UNIFORM'),$);
#418=IFCPROPERTYSINGLEVALUE('XVL1wTGNiJC5pH5FwNgTb$#1',$,IFCTEXT('1|UNIFORM'),$);
#419=IFCPROPERTYSINGLEVALUE('DB$rnBtNo5tRl3lXzFTNo5#2',$,IFCTEXT('45|UNIFORM'),$);
#420=IFCPROPERTYSET('nh39wv_NobzvQZv$c7Cb37',#6,'OPS_Assignments',$,(#417,#418,#419));
#421=IFCRELDEFINESBYPROPERTIES('O3PLNp$PHpeP8nTn2RNhsP',#6,$,$,(#82),#420);
#422=IFCPROPERTYSINGLEVALUE('WX5nzr872fsHP3hnf9Q7ZN#0',$,IFCTEXT('8|UNIFORM'),$);
#423=IFCPROPERTYSINGLEVALUE('XVL1wTGNiJC5pH5FwNgTb$#1',$,IFCTEXT('1|UNIFORM'),$);
#424=IFCPROPERTYSINGLEVALUE('DB$rnBtNo5tRl3lXzFTNo5#2',$,IFCTEXT('45|UNIFORM'),$);
#425=IFCPROPERTYSET('mtKJH5tNGj2bNPs1N9Un3h',#6,'OPS_Assignments',$,(#422,#423,#424));
#426=IFCRELDEFINESBYPROPERTIES('f31TSHOvah7De11X_5RFTR',#6,$,$,(#84),#425);
#427=IFCPROPERTYSINGLEVALUE('WX5nzr872fsHP3hnf9Q7ZN#0',$,IFCTEXT('8|UNIFORM'),$);
#428=IFCPROPERTYSINGLEVALUE('XVL1wTGNiJC5pH5FwNgTb$#1',$,IFCTEXT('1|UNIFORM'),$);
#429=IFCPROPERTYSINGLEVALUE('DB$rnBtNo5tRl3lXzFTNo5#2',$,IFCTEXT('45|UNIFORM'),$);
#430=IFCPROPERTYSET('P$Fp7LS1kXxV_PA1Z$BFJT',#6,'OPS_Assignments',$,(#427,#428,#429));
#431=IFCRELDEFINESBYPROPERTIES('0nxV0H79nzUNj1jndrCbj1',#6,$,$,(#86),#430);
#432=IFCPROPERTYSINGLEVALUE('WX5nzr872fsHP3hnf9Q7ZN#0',$,IFCTEXT('8|UNIFORM'),$);
#433=IFCPROPERTYSINGLEVALUE('XVL1wTGNiJC5pH5FwNgTb$#1',$,IFCTEXT('1|UNIFORM'),$);
#434=IFCPROPERTYSINGLEVALUE('DB$rnBtNo5tRl3lXzFTNo5#2',$,IFCTEXT('45|UNIFORM'),$);
#435=IFCPROPERTYSET('bR8FVjoljfT9N7AluZb1Yn',#6,'OPS_Assignments',$,(#432,#433,#434));
#436=IFCRELDEFINESBYPROPERTIES('q9Y$sFJX$fR$eP610dyhId',#6,$,$,(#88),#435);
#437=IFCPROPERTYSINGLEVALUE('WX5nzr872fsHP3hnf9Q7ZN#0',$,IFCTEXT('8|UNIFORM'),$);
#438=IFCPROPERTYSINGLEVALUE('XVL1wTGNiJC5pH5FwNgTb$#1',$,IFCTEXT('1|UNIFORM'),$);
#439=IFCPROPERTYSINGLEVALUE('DB$rnBtNo5tRl3lXzFTNo5#2',$,IFCTEXT('45|UNIFORM'),$);
#440=IFCPROPERTYSET('R$NRmvo9JfJ7IRqn8Lu$_z',#6,'OPS_Assignments',$,(#437,#438,#439));
#441=IFCRELDEFINESBYPROPERTIES('_pIHT9Z1wFaJMN0X7bEVSb',#6,$,$,(#90),#440);
#442=IFCPROPERTYSINGLEVALUE('WX5nzr872fsHP3hnf9Q7ZN#0',$,IFCTEXT('8|UNIFORM'),$);
#443=IFCPROPERTYSINGLEVALUE('XVL1wTGNiJC5pH5FwNgTb$#1',$,IFCTEXT('1|UNIFORM'),$);
#444=IFCPROPERTYSINGLEVALUE('DB$rnBtNo5tRl3lXzFTNo5#2',$,IFCTEXT('45|UNIFORM'),$);
#445=IFCPROPERTYSET('qBdzsHPtPpsltrw$0veVeL',#6,'OPS_Assignments',$,(#442,#443,#444));
#446=IFCRELDEFINESBYPROPERTIES('b$npPRs$WbbV_7cHVlnTTb',#6,$,$,(#92),#445);
#447=IFCPROPERTYSINGLEVALUE('UTOlHVzHPj2Rv1xHyhnLEx#0',$,IFCTEXT('6|UNIFORM'),$);
#448=IFCPROPERTYSINGLEVALUE('GfuVyzCniDmXMtilCZa3dB#1',$,IFCTEXT('4|UNIFORM'),$);
#449=IFCPROPERTYSINGLEVALUE('DB$rnBtNo5tRl3lXzFTNo5#2',$,IFCTEXT('35|UNIFORM'),$);
#450=IFCPROPERTYSET('vrAvNFSljtHrO7IFyrxXaN',#6,'OPS_Assignments',$,(#447,#448,#449));
#451=IFCRELDEFINESBYPROPERTIES('kf09wv6vonX3LtO1aRd5b1',#6,$,$,(#94),#450);
#452=IFCPROPERTYSINGLEVALUE('vljP$7c7y5dBGbGVOxs3pl#0',$,IFCTEXT('4|UNIFORM'),$);
#453=IFCPROPERTYSINGLEVALUE('XVL1wTGNiJC5pH5FwNgTb$#1',$,IFCTEXT('1|UNIFORM'),$);
#454=IFCPROPERTYSET('l57B9VkHRXR1a7MHMLG98j',#6,'OPS_Assignments',$,(#452,#453));
#455=IFCRELDEFINESBYPROPERTIES('8jztIJbV55HJcFVVa9MNgJ',#6,$,$,(#96),#454);
#456=IFCPROPERTYSINGLEVALUE('7Bs7$ZGNC36189GVAVRFtn#0',$,IFCTEXT('8|UNIFORM'),$);
#457=IFCPROPERTYSET('0njP7rW9JrR$y3v$Vld5rP',#6,'OPS_Assignments',$,(#456));
#458=IFCRELDEFINESBYPROPERTIES('Pxq5_BOvSXR$GxKnkVVR$t',#6,$,$,(#102),#457);
#459=IFCPROPERTYSINGLEVALUE('7Bs7$ZGNC36189GVAVRFtn#0',$,IFCTEXT('8|UNIFORM'),$);
#460=IFCPROPERTYSET('7rcf8B8PznarmRWXdnPj6X',#6,'OPS_Assignments',$,(#459));
#461=IFCRELDEFINESBYPROPERTIES('kNmvP9RFUPCxRrc$IZyh2$',#6,$,$,(#104),#460);
#462=IFCPROPERTYSINGLEVALUE('7Bs7$ZGNC36189GVAVRFtn#0',$,IFCTEXT('6|UNIFORM'),$);
#463=IFCPROPERTYSET('mNuVW1Pt7z0n5l1V4dm9WP',#6,'OPS_Assignments',$,(#462));
#464=IFCRELDEFINESBYPROPERTIES('fZbHRRJnaVDdGL2FxhWPvt',#6,$,$,(#106),#463);
#465=IFCPROPERTYSINGLEVALUE('t9onbXbXpddrKXt1WN6JYl#0',$,IFCTEXT('4|UNIFORM'),$);
#466=IFCPROPERTYSET('f39xUx2NwFypeXbnafYLsz',#6,'OPS_Assignments',$,(#465));
#467=IFCRELDEFINESBYPROPERTIES('_Fjdd5Et3l0FbXDHXJ2HLD',#6,$,$,(#108),#466);
#468=IFCPROPERTYSINGLEVALUE('k5FDlVh16ZQpKxu$NJ$jQL#0',$,IFCTEXT('4|UNIFORM'),$);
#469=IFCPROPERTYSET('yjMzQtKX1r3f5581dBCb1t',#6,'OPS_Assignments',$,(#468));
#470=IFCRELDEFINESBYPROPERTIES('hPGdLpI93ZU5fxKHeDLXW7',#6,$,$,(#114),#469);
#471=IFCPROPERTYSINGLEVALUE('k5FDlVh16ZQpKxu$NJ$jQL#0',$,IFCTEXT('6|UNIFORM'),$);
#472=IFCPROPERTYSET('BJp7JZNNqzMn$hQlDLlBiJ',#6,'OPS_Assignments',$,(#471));
#473=IFCRELDEFINESBYPROPERTIES('S1t5o1YfGzuvsvwHhTR1Qn',#6,$,$,(#116),#472);
#474=IFCPROPERTYSINGLEVALUE('T$vB5HXvuVIPGbGVyhHBm$#0',$,IFCTEXT('6|UNIFORM'),$);
#475=IFCPROPERTYSET('8rwto3DXVRrFrd2VpdyTbX',#6,'OPS_Assignments',$,(#474));
#476=IFCRELDEFINESBYPROPERTIES('H9aLTNv9$LVbPnd$yhdJIv',#6,$,$,(#118),#475);
#477=IFCPROPERTYSINGLEVALUE('T$vB5HXvuVIPGbGVyhHBm$#0',$,IFCTEXT('6|UNIFORM'),$);
#478=IFCPROPERTYSET('9fUL7Ly$ePlJcn9$VDUhMt',#6,'OPS_Assignments',$,(#477));
#479=IFCRELDEFINESBYPROPERTIES('GtiJzLqVPDE76Jf$gr4Tht',#6,$,$,(#120),#478);
#480=IFCPROPERTYSINGLEVALUE('T$vB5HXvuVIPGbGVyhHBm$#0',$,IFCTEXT('8|UNIFORM'),$);
#481=IFCPROPERTYSET('GfeHFlvt1LfTplrFNDLVeT',#6,'OPS_Assignments',$,(#480));
#482=IFCRELDEFINESBYPROPERTIES('NZL$w3iXjfzNN5ynXl9rax',#6,$,$,(#122),#481);
#483=IFCPROPERTYSINGLEVALUE('T$vB5HXvuVIPGbGVyhHBm$#0',$,IFCTEXT('6|UNIFORM'),$);
#484=IFCPROPERTYSET('I94TCPxV$91xdzZla5RFX3',#6,'OPS_Assignments',$,(#483));
#485=IFCRELDEFINESBYPROPERTIES('LzFDfpNf_ZyD8lN1wppPht',#6,$,$,(#124),#484);
#486=IFCPROPERTYSINGLEVALUE('qtMdz779vNUfNxylZzWdv9#0',$,IFCTEXT('3|UNIFORM'),$);
#487=IFCPROPERTYSET('6hgzcNOvW5tbhN4FB9_Hll',#6,'OPS_Assignments',$,(#486));
#488=IFCRELDEFINESBYPROPERTIES('JN096TOPvTq5hZDnxhmNgj',#6,$,$,(#126),#487);
#489=IFCPROPERTYSINGLEVALUE('k5FDlVh16ZQpKxu$NJ$jQL#0',$,IFCTEXT('4|UNIFORM'),$);
#490=IFCPROPERTYSET('0HXh$dElvN29dHpHJtoXS9',#6,'OPS_Assignments',$,(#489));
#491=IFCRELDEFINESBYPROPERTIES('Pbe1cNO7qv87gBM$pBrFxl',#6,$,$,(#128),#490);
#492=IFCPROPERTYSINGLEVALUE('azSLVNOdHXE7Y9mX4hfTXT#0',$,IFCTEXT('10|UNIFORM'),$);
#493=IFCPROPERTYSET('Q1fbaFCFOdX3lz1Xm1hH3v',#6,'OPS_Assignments',$,(#492));
#494=IFCRELDEFINESBYPROPERTIES('$DgPXNGNGJ6JoVTl4rLlv5',#6,$,$,(#132),#493);
#495=IFCPROPERTYSINGLEVALUE('azSLVNOdHXE7Y9mX4hfTXT#0',$,IFCTEXT('8|UNIFORM'),$);
#496=IFCPROPERTYSET('4lhHfDF7s9tzHTBlBt6PDj',#6,'OPS_Assignments',$,(#495));
#497=IFCRELDEFINESBYPROPERTIES('TzS3kDXPDxPBqrA$7$H3HF',#6,$,$,(#134),#496);
#498=IFCPROPERTYSINGLEVALUE('azSLVNOdHXE7Y9mX4hfTXT#0',$,IFCTEXT('6|UNIFORM'),$);
#499=IFCPROPERTYSET('K7yr1Z09hpkdCBIV6fkxjZ',#6,'OPS_Assignments',$,(#498));
#500=IFCRELDEFINESBYPROPERTIES('j5fbqv$dNl5$KRanzFz9qH',#6,$,$,(#136),#499);
#501=IFCPROPERTYSINGLEVALUE('azSLVNOdHXE7Y9mX4hfTXT#0',$,IFCTEXT('4|UNIFORM'),$);
#502=IFCPROPERTYSINGLEVALUE('T$vB5HXvuVIPGbGVyhHBm$#1',$,IFCTEXT('2|UNIFORM'),$);
#503=IFCPROPERTYSET('$p2V8L4HdJUxpF71QTDP3B',#6,'OPS_Assignments',$,(#501,#502));
#504=IFCRELDEFINESBYPROPERTIES('eb8FNl8dv96JczbFurqRrT',#6,$,$,(#138),#503);
#505=IFCPROPERTYSINGLEVALUE('azSLVNOdHXE7Y9mX4hfTXT#0',$,IFCTEXT('4|UNIFORM'),$);
#506=IFCPROPERTYSET('OTztsH17wTsTDlrn3DoRrZ',#6,'OPS_Assignments',$,(#505));
#507=IFCRELDEFINESBYPROPERTIES('$FjPFFjXNRTPe$$Xwf2Byd',#6,$,$,(#140),#506);
#508=IFCPROPERTYSINGLEVALUE('g3vrfna$wTQDWj$XqlhlJ$#0',$,IFCTEXT('6|UNIFORM'),$);
#509=IFCPROPERTYSET('tD9pxr79nzE7MhMl_RXDGV',#6,'OPS_Assignments',$,(#508));
#510=IFCRELDEFINESBYPROPERTIES('YXrVKh5n8t7DCL_FdFvDeZ',#6,$,$,(#142),#509);
#511=IFCPROPERTYSINGLEVALUE('NTjvXjIHVdtRv1ZnUrhl7b#0',$,IFCTEXT('6|UNIFORM'),$);
#512=IFCPROPERTYSET('XVL1o$wvwTwjknhlVjEXaf',#6,'OPS_Assignments',$,(#511));
#513=IFCRELDEFINESBYPROPERTIES('6hULTNnP9XDdWj71nfoRDH',#6,$,$,(#146),#512);
#514=IFCPROPERTYSINGLEVALUE('azSLVNOdHXE7Y9mX4hfTXT#0',$,IFCTEXT('6|UNIFORM'),$);
#515=IFCPROPERTYSET('4F1BZ5_NoxlJsPg$RVpPVT',#6,'OPS_Assignments',$,(#514));
#516=IFCRELDEFINESBYPROPERTIES('ZZuXCPjn4Rptxn5lu3NTb1',#6,$,$,(#148),#515);
#517=IFCPROPERTYSINGLEVALUE('k5FDlVh16ZQpKxu$NJ$jQL#0',$,IFCTEXT('3|UNIFORM'),$);
#518=IFCPROPERTYSINGLEVALUE('T$vB5HXvuVIPGbGVyhHBm$#1',$,IFCTEXT('3|UNIFORM'),$);
#519=IFCPROPERTYSINGLEVALUE('kf8nnBfN8VgnTr_VxBKJI7#2',$,IFCTEXT('1|UNIFORM'),$);
#520=IFCPROPERTYSET('qNYLJVoHvNcVUZhl3H1jYD',#6,'OPS_Assignments',$,(#517,#518,#519));
#521=IFCRELDEFINESBYPROPERTIES('DLLlLpwvwzAHfx4Hh7aBGn',#6,$,$,(#150),#520);
#522=IFCRELASSIGNSTOCONTROL('rDVhNjbXHjyDCF$VkTSruD',#6,$,$,(#40,#42,#44,#46,#48,#50,#52,#54,#56,#58,#60,#62,#64,#66,#68,#70,#72,#74,#76,#78,#80,#82,#84,#86,#88,#90,#92,#94,#96,#98,#100,#102,#104,#106,#108,#110,#112,#114,#116,#118,#120,#122,#124,#126,#128,#130,#132,#134,#136,#138,#140,#142,#144,#146,#148,#150,#152),$,#37);
#523=IFCPROPERTYSINGLEVALUE('wbsAutoNumber',$,IFCBOOLEAN(.T.),$);
#524=IFCPROPERTYSINGLEVALUE('ProjectStartDate',$,IFCDATE('2027-03-01'),$);
#525=IFCPROPERTYSINGLEVALUE('ProjectEndDate',$,$,$);
#526=IFCPROPERTYSINGLEVALUE('CreatedAt',$,IFCTEXT('2026-08-14T12:18:59.397Z'),$);
#527=IFCPROPERTYSINGLEVALUE('ModifiedAt',$,IFCTEXT('2026-08-14T12:18:59.398Z'),$);
#528=IFCPROPERTYSET('e5a3ArlP$tNZvpDF1ZK5n5',#6,'OPS_ProjectSettings',$,(#523,#524,#525,#526,#527));
#529=IFCRELDEFINESBYPROPERTIES('0Hdzo1sPJhdjQlBF$1BF9l',#6,$,$,(#13),#528);
#530=IFCPROPERTYSINGLEVALUE('MilestoneKind',$,IFCLABEL('START'),$);
#531=IFCPROPERTYSET('ZTWNGPcVjrhHlfqFKD6JoN',#6,'OPS_Milestone',$,(#530));
#532=IFCRELDEFINESBYPROPERTIES('AfYLrTGNu1Ih2vwl71lztJ',#6,$,$,(#50),#531);
#533=IFCPROPERTYSINGLEVALUE('MilestoneKind',$,IFCLABEL('FINISH'),$);
#534=IFCPROPERTYSET('LZ5F9XA$8$oBeXhFBD3tax',#6,'OPS_Milestone',$,(#533));
#535=IFCRELDEFINESBYPROPERTIES('yl5V8DNfonljsv_FdnHrOB',#6,$,$,(#98),#534);
#536=IFCPROPERTYSINGLEVALUE('MilestoneKind',$,IFCLABEL('FINISH'),$);
#537=IFCPROPERTYSET('Aptp7BuvI1t3b1VVWNobhD',#6,'OPS_Milestone',$,(#536));
#538=IFCRELDEFINESBYPROPERTIES('ZV39UtxFG3GXAPc1_bnZlh',#6,$,$,(#110),#537);
#539=IFCPROPERTYSINGLEVALUE('MilestoneKind',$,IFCLABEL('FINISH'),$);
#540=IFCPROPERTYSINGLEVALUE('Mandatory',$,IFCBOOLEAN(.T.),$);
#541=IFCPROPERTYSET('GN8nXjkH9rvDunDnrpTfoN',#6,'OPS_Milestone',$,(#539,#540));
#542=IFCRELDEFINESBYPROPERTIES('fzt5g1$dZXcVcTN1drqDSb',#6,$,$,(#152),#541);
ENDSEC;
END-ISO-10303-21;
