ISO-10303-21;
HEADER;
FILE_DESCRIPTION(('ViewDefinition [SchedulingView]'),'2;1');
FILE_NAME('N279 Bridge Replacement.ifc','2026-07-28T14:38:23',('Henk Mulder'),('Infra Netherlands BV'),'Open Planner Studio 0.1','Open Planner Studio','');
FILE_SCHEMA(('IFC4X3'));
ENDSEC;
DATA;
#1=IFCPERSON($,'Henk Mulder',$,$,$,$,$,$);
#2=IFCORGANIZATION($,'Infra Netherlands BV',$,$,$);
#3=IFCPERSONANDORGANIZATION(#1,#2,$);
#4=IFCORGANIZATION($,'OpenAEC Foundation',$,$,$);
#5=IFCAPPLICATION(#4,'0.1','Open Planner Studio','OPS');
#6=IFCOWNERHISTORY(#3,#5,$,.NOCHANGE.,$,$,$,1785249503);
#7=IFCSIUNIT(*,.LENGTHUNIT.,$,.METRE.);
#8=IFCSIUNIT(*,.TIMEUNIT.,$,.SECOND.);
#9=IFCUNITASSIGNMENT((#7,#8));
#10=IFCCARTESIANPOINT((0.,0.,0.));
#11=IFCAXIS2PLACEMENT3D(#10,$,$);
#12=IFCGEOMETRICREPRESENTATIONCONTEXT($,'Plan',3,1.0E-05,#11,$);
#13=IFCPROJECT('ttsvDj3lhPaj6pDnnbnZht',#6,'N279 Bridge Replacement','Replacement of the existing bridge with a new concrete bridge',$,$,$,(#12),#9);
#14=IFCTIMEPERIOD('07:00:00','16:00:00');
#15=IFCRECURRENCEPATTERN(.WEEKLY.,$,(1,2,3,4,5,6),$,$,$,$,(#14));
#16=IFCWORKTIME('Standard work week',.PREDICTED.,$,#15,$,$);
#17=IFCWORKTIME('New Year''s Day',.PREDICTED.,$,$,'2027-01-01','2027-01-01');
#18=IFCWORKTIME('Good Friday',.PREDICTED.,$,$,'2027-03-26','2027-03-26');
#19=IFCWORKTIME('Easter',.PREDICTED.,$,$,'2027-03-28','2027-03-29');
#20=IFCWORKTIME('King''s Day',.PREDICTED.,$,$,'2027-04-27','2027-04-27');
#21=IFCWORKTIME('Liberation Day',.PREDICTED.,$,$,'2027-05-05','2027-05-05');
#22=IFCWORKTIME('Ascension Day',.PREDICTED.,$,$,'2027-05-06','2027-05-06');
#23=IFCWORKTIME('Whitsun',.PREDICTED.,$,$,'2027-05-16','2027-05-17');
#24=IFCWORKTIME('Christmas',.PREDICTED.,$,$,'2027-12-25','2027-12-26');
#25=IFCWORKTIME('Construction holiday (northern region)',.PREDICTED.,$,$,'2027-07-26','2027-08-15');
#26=IFCWORKTIME('New Year''s Day',.PREDICTED.,$,$,'2028-01-01','2028-01-01');
#27=IFCWORKTIME('Good Friday',.PREDICTED.,$,$,'2028-04-14','2028-04-14');
#28=IFCWORKTIME('Easter',.PREDICTED.,$,$,'2028-04-16','2028-04-17');
#29=IFCWORKTIME('King''s Day',.PREDICTED.,$,$,'2028-04-27','2028-04-27');
#30=IFCWORKTIME('Liberation Day',.PREDICTED.,$,$,'2028-05-05','2028-05-05');
#31=IFCWORKTIME('Ascension Day',.PREDICTED.,$,$,'2028-05-25','2028-05-25');
#32=IFCWORKTIME('Whitsun',.PREDICTED.,$,$,'2028-06-04','2028-06-05');
#33=IFCWORKTIME('Christmas',.PREDICTED.,$,$,'2028-12-25','2028-12-26');
#34=IFCWORKTIME('Construction holiday (northern region)',.PREDICTED.,$,$,'2028-07-24','2028-08-13');
#35=IFCWORKCALENDAR('_HlbW$VPl1Yxnv_nBDbFBd',#6,'Infrastructure calendar Mon-Sat','Infrastructure/hydraulic works: Mon-Sat',$,(#16),(#17,#18,#19,#20,#21,#22,#23,#24,#25,#26,#27,#28,#29,#30,#31,#32,#33,#34),.FIRSTSHIFT.);
#36=IFCWORKPLAN('VVRH3dpFwlG$OvQl3JoX4h',#6,'N279 Bridge Replacement','Replacement of the existing bridge with a new concrete bridge',$,$,'2026-07-28T14:38:23',$,$,$,$,$,'2027-03-01T07:00:00','2027-03-19T07:00:00',.PLANNED.);
#37=IFCWORKSCHEDULE('yHLHplmNCvedGb81FtMf_1',#6,'Construction schedule v1.0',$,$,$,'2026-07-28T14:38:23',$,$,$,$,$,'2027-03-01T07:00:00','2027-03-19T07:00:00',.PLANNED.);
#38=IFCRELAGGREGATES('X$Ph9TPtbVDd8te$ftI1sz',#6,$,$,#36,(#37));
#39=IFCTASKTIME('1. Preparation & diversions Time',.PREDICTED.,$,.WORKTIME.,'P0Y0M5D','2027-03-01T07:00:00','2027-03-05T07:00:00','2027-03-01T07:00:00','2027-03-25T07:00:00','2027-03-01T07:00:00','2027-09-18T07:00:00','P0Y0M0D','P0Y0M0D',.T.,$,$,$,$,$,0.0);
#40=IFCTASK('0H7ZWXxVFnypOdw1KJUFFb',#6,'1. Preparation & diversions',$,$,'1',$,$,$,.F.,$,#39,.LOGISTIC.);
#41=IFCTASKTIME('Implement traffic management Time',.PREDICTED.,$,.WORKTIME.,'P0Y0M5D','2027-03-01T07:00:00','2027-03-05T07:00:00','2027-03-01T07:00:00','2027-03-05T07:00:00','2027-03-01T07:00:00','2027-03-05T07:00:00','P0Y0M0D','P0Y0M0D',.T.,$,$,$,$,$,0.0);
#42=IFCTASK('0HnxgXRXV5dB0Zt11TCp09',#6,'Implement traffic management',$,$,'1.1',$,$,$,.F.,$,#41,.LOGISTIC.);
#43=IFCTASKTIME('Temporary diversion route Time',.PREDICTED.,$,.WORKTIME.,'P0Y0M8D','2027-03-01T07:00:00','2027-03-10T07:00:00','2027-03-06T07:00:00','2027-03-15T07:00:00','2027-08-31T07:00:00','2027-09-08T07:00:00','P0Y0M0D','P0Y0M128D',.F.,$,$,$,$,$,0.0);
#44=IFCTASK('nvsvXpwv_ZC5zPw$W9EVWv',#6,'Temporary diversion route',$,$,'1.2',$,$,$,.F.,$,#43,.LOGISTIC.);
#45=IFCTASKTIME('Set up site Time',.PREDICTED.,$,.WORKTIME.,'P0Y0M5D','2027-03-01T07:00:00','2027-03-05T07:00:00','2027-03-16T07:00:00','2027-03-20T07:00:00','2027-09-09T07:00:00','2027-09-14T07:00:00','P0Y0M0D','P0Y0M128D',.F.,$,$,$,$,$,0.0);
#46=IFCTASK('wFP3E3Blv3WlfbmXw9_HR5',#6,'Set up site',$,$,'1.3',$,$,$,.F.,$,#45,.LOGISTIC.);
#47=IFCTASKTIME('Impose shipping restrictions Time',.PREDICTED.,$,.WORKTIME.,'P0Y0M3D','2027-03-01T07:00:00','2027-03-03T07:00:00','2027-03-22T07:00:00','2027-03-24T07:00:00','2027-09-15T07:00:00','2027-09-17T07:00:00','P0Y0M0D','P0Y0M128D',.F.,$,$,$,$,$,0.0);
#48=IFCTASK('NPmvJzhlzl8fvjv1fDbndP',#6,'Impose shipping restrictions',$,$,'1.4',$,$,$,.F.,$,#47,.LOGISTIC.);
#49=IFCTASKTIME('Start of works Time',.PREDICTED.,$,.WORKTIME.,'P0Y0M0D','2027-03-01T07:00:00','2027-03-01T07:00:00','2027-03-25T07:00:00','2027-03-25T07:00:00','2027-09-18T07:00:00','2027-09-18T07:00:00','P0Y0M128D','P0Y0M128D',.F.,$,$,$,$,$,0.0);
#50=IFCTASK('IfuVW1FvwFqTT9yndBKJ_T',#6,'Start of works',$,$,'1.5',$,$,$,.T.,$,#49,.LOGISTIC.);
#51=IFCTASKTIME('2. Demolition of old bridge Time',.PREDICTED.,$,.WORKTIME.,'P0Y0M5D','2027-03-01T07:00:00','2027-03-05T07:00:00','2027-03-13T07:00:00','2027-04-28T07:00:00','2027-03-13T07:00:00','2027-09-18T07:00:00','P0Y0M0D','P0Y0M0D',.T.,$,$,$,$,$,0.0);
#52=IFCTASK('_FrFvdxVnFaByNGX4vS39D',#6,'2. Demolition of old bridge',$,$,'2',$,$,$,.F.,$,#51,.DEMOLITION.);
#53=IFCTASKTIME('Divert services Time',.PREDICTED.,$,.WORKTIME.,'P0Y0M8D','2027-03-01T07:00:00','2027-03-10T07:00:00','2027-03-13T07:00:00','2027-03-22T07:00:00','2027-03-13T07:00:00','2027-03-22T07:00:00','P0Y0M0D','P0Y0M0D',.T.,$,$,$,$,$,0.0);
#54=IFCTASK('ov_XeT7tT$IhQlRF8h8$gp',#6,'Divert services',$,$,'2.1',$,$,$,.F.,$,#53,.INSTALLATION.);
#55=IFCTASKTIME('Remove asphalt Time',.PREDICTED.,$,.WORKTIME.,'P0Y0M3D','2027-03-01T07:00:00','2027-03-03T07:00:00','2027-03-23T07:00:00','2027-03-25T07:00:00','2027-08-17T07:00:00','2027-08-19T07:00:00','P0Y0M0D','P0Y0M102D',.F.,$,$,$,$,$,0.0);
#56=IFCTASK('1pkHT9DXHJi3jJ71fjXDmF',#6,'Remove asphalt',$,$,'2.2',$,$,$,.F.,$,#55,.DEMOLITION.);
#57=IFCTASKTIME('Remove bridge railings Time',.PREDICTED.,$,.WORKTIME.,'P0Y0M3D','2027-03-01T07:00:00','2027-03-03T07:00:00','2027-03-27T07:00:00','2027-03-31T07:00:00','2027-08-20T07:00:00','2027-08-23T07:00:00','P0Y0M0D','P0Y0M102D',.F.,$,$,$,$,$,0.0);
#58=IFCTASK('iRh$ALxnu9PJU9O1PHrnR1',#6,'Remove bridge railings',$,$,'2.3',$,$,$,.F.,$,#57,.DEMOLITION.);
#59=IFCTASKTIME('Demolish bridge deck Time',.PREDICTED.,$,.WORKTIME.,'P0Y0M10D','2027-03-01T07:00:00','2027-03-12T07:00:00','2027-04-01T07:00:00','2027-04-12T07:00:00','2027-08-24T07:00:00','2027-09-03T07:00:00','P0Y0M0D','P0Y0M102D',.F.,$,$,$,$,$,0.0);
#60=IFCTASK('X1vrj3bFMvrFR$9$rpbFNX',#6,'Demolish bridge deck',$,$,'2.4',$,$,$,.F.,$,#59,.DEMOLITION.);
#61=IFCTASKTIME('Demolish abutments Time',.PREDICTED.,$,.WORKTIME.,'P0Y0M8D','2027-03-01T07:00:00','2027-03-10T07:00:00','2027-04-13T07:00:00','2027-04-21T07:00:00','2027-09-04T07:00:00','2027-09-13T07:00:00','P0Y0M0D','P0Y0M102D',.F.,$,$,$,$,$,0.0);
#62=IFCTASK('wFd3c9S$QXcVgBw$GlHzLJ',#6,'Demolish abutments',$,$,'2.5',$,$,$,.F.,$,#61,.DEMOLITION.);
#63=IFCTASKTIME('Remove rubble Time',.PREDICTED.,$,.WORKTIME.,'P0Y0M5D','2027-03-01T07:00:00','2027-03-05T07:00:00','2027-04-22T07:00:00','2027-04-28T07:00:00','2027-09-14T07:00:00','2027-09-18T07:00:00','P0Y0M102D','P0Y0M102D',.F.,$,$,$,$,$,0.0);
#64=IFCTASK('I9iJ9XEHxbRX2Dt$BpTfMp',#6,'Remove rubble',$,$,'2.6',$,$,$,.F.,$,#63,.LOGISTIC.);
#65=IFCTASKTIME('3. New foundations Time',.PREDICTED.,$,.WORKTIME.,'P0Y0M5D','2027-03-01T07:00:00','2027-03-05T07:00:00','2027-03-17T07:00:00','2027-05-07T07:00:00','2027-03-17T07:00:00','2027-05-07T07:00:00','P0Y0M0D','P0Y0M0D',.T.,$,$,$,$,$,0.0);
#66=IFCTASK('CNUhTtDXtXzfrJplpPKJ2z',#6,'3. New foundations',$,$,'3',$,$,$,.F.,$,#65,.CONSTRUCTION.);
#67=IFCTASKTIME('Drive sheet piling Time',.PREDICTED.,$,.WORKTIME.,'P0Y0M10D','2027-03-01T07:00:00','2027-03-12T07:00:00','2027-03-17T07:00:00','2027-03-30T07:00:00','2027-03-17T07:00:00','2027-03-30T07:00:00','P0Y0M0D','P0Y0M0D',.T.,$,$,$,$,$,0.0);
#68=IFCTASK('SZuVebEH5brndFFVprBnNV',#6,'Drive sheet piling',$,$,'3.1',$,$,$,.F.,$,#67,.CONSTRUCTION.);
#69=IFCTASKTIME('Underwater concrete Time',.PREDICTED.,$,.WORKTIME.,'P0Y0M8D','2027-03-01T07:00:00','2027-03-10T07:00:00','2027-03-31T07:00:00','2027-04-08T07:00:00','2027-03-31T07:00:00','2027-04-08T07:00:00','P0Y0M0D','P0Y0M0D',.T.,$,$,$,$,$,0.0);
#70=IFCTASK('Ld8XirFd$BjvAR0XNJ9BaN',#6,'Underwater concrete',$,$,'3.2',$,$,$,.F.,$,#69,.CONSTRUCTION.);
#71=IFCTASKTIME('Dewater excavation pit Time',.PREDICTED.,$,.WORKTIME.,'P0Y0M5D','2027-03-01T07:00:00','2027-03-05T07:00:00','2027-04-09T07:00:00','2027-04-14T07:00:00','2027-04-09T07:00:00','2027-04-14T07:00:00','P0Y0M0D','P0Y0M0D',.T.,$,$,$,$,$,0.0);
#72=IFCTASK('pvcf4$k9fRptD3jHrtoXKp',#6,'Dewater excavation pit',$,$,'3.3',$,$,$,.F.,$,#71,.CONSTRUCTION.);
#73=IFCTASKTIME('Bore pile foundation Time',.PREDICTED.,$,.WORKTIME.,'P0Y0M12D','2027-03-01T07:00:00','2027-03-16T07:00:00','2027-04-15T07:00:00','2027-04-29T07:00:00','2027-04-15T07:00:00','2027-04-29T07:00:00','P0Y0M0D','P0Y0M0D',.T.,$,$,$,$,$,0.0);
#74=IFCTASK('MvCx_7VPb$PJAPIVMnHBm$',#6,'Bore pile foundation',$,$,'3.4',$,$,$,.F.,$,#73,.CONSTRUCTION.);
#75=IFCTASKTIME('Ground improvement Time',.PREDICTED.,$,.WORKTIME.,'P0Y0M5D','2027-03-01T07:00:00','2027-03-05T07:00:00','2027-04-30T07:00:00','2027-05-07T07:00:00','2027-04-30T07:00:00','2027-05-07T07:00:00','P0Y0M0D','P0Y0M0D',.T.,$,$,$,$,$,0.0);
#76=IFCTASK('RbunhfWtJrpdmBoXipk5DD',#6,'Ground improvement',$,$,'3.5',$,$,$,.F.,$,#75,.CONSTRUCTION.);
#77=IFCTASKTIME('4. Concrete structure Time',.PREDICTED.,$,.WORKTIME.,'P0Y0M5D','2027-03-01T07:00:00','2027-03-05T07:00:00','2027-04-26T07:00:00','2027-07-17T07:00:00','2027-04-26T07:00:00','2027-07-17T07:00:00','P0Y0M0D','P0Y0M0D',.T.,$,$,$,$,$,0.0);
#78=IFCTASK('Q1FpV9KXfFnp0Tt1J92lhD',#6,'4. Concrete structure',$,$,'4',$,$,$,.F.,$,#77,.CONSTRUCTION.);
#79=IFCTASKTIME('West abutment: rebar and pour Time',.PREDICTED.,$,.WORKTIME.,'P0Y0M15D','2027-03-01T07:00:00','2027-03-19T07:00:00','2027-04-26T07:00:00','2027-05-15T07:00:00','2027-04-26T07:00:00','2027-05-15T07:00:00','P0Y0M0D','P0Y0M0D',.T.,$,$,$,$,$,0.0);
#80=IFCTASK('J5Fp3PRXfFljEXbFexgTBv',#6,'West abutment: rebar and pour',$,$,'4.1',$,$,$,.F.,$,#79,.CONSTRUCTION.);
#81=IFCTASKTIME('East abutment: rebar and pour Time',.PREDICTED.,$,.WORKTIME.,'P0Y0M15D','2027-03-01T07:00:00','2027-03-19T07:00:00','2027-05-03T07:00:00','2027-05-22T07:00:00','2027-05-03T07:00:00','2027-05-22T07:00:00','P0Y0M0D','P0Y0M0D',.T.,$,$,$,$,$,0.0);
#82=IFCTASK('3D692vHvq3Yf$1v1onpd5H',#6,'East abutment: rebar and pour',$,$,'4.2',$,$,$,.F.,$,#81,.CONSTRUCTION.);
#83=IFCTASKTIME('Pour central pier Time',.PREDICTED.,$,.WORKTIME.,'P0Y0M10D','2027-03-01T07:00:00','2027-03-12T07:00:00','2027-05-24T07:00:00','2027-06-03T07:00:00','2027-05-24T07:00:00','2027-06-03T07:00:00','P0Y0M0D','P0Y0M0D',.T.,$,$,$,$,$,0.0);
#84=IFCTASK('5ndzEZtN_NgFNPkV2fgTTR',#6,'Pour central pier',$,$,'4.3',$,$,$,.F.,$,#83,.CONSTRUCTION.);
#85=IFCTASKTIME('Place precast beams Time',.PREDICTED.,$,.WORKTIME.,'P0Y0M8D','2027-03-01T07:00:00','2027-03-10T07:00:00','2027-06-04T07:00:00','2027-06-12T07:00:00','2027-06-04T07:00:00','2027-06-12T07:00:00','P0Y0M0D','P0Y0M0D',.T.,$,$,$,$,$,0.0);
#86=IFCTASK('s969EX2n451ZZNmXU7OVat',#6,'Place precast beams',$,$,'4.4',$,$,$,.F.,$,#85,.CONSTRUCTION.);
#87=IFCTASKTIME('Bridge deck reinforcement Time',.PREDICTED.,$,.WORKTIME.,'P0Y0M10D','2027-03-01T07:00:00','2027-03-12T07:00:00','2027-06-14T07:00:00','2027-06-24T07:00:00','2027-06-14T07:00:00','2027-06-24T07:00:00','P0Y0M0D','P0Y0M0D',.T.,$,$,$,$,$,0.0);
#88=IFCTASK('p7QNezJXJhHBedg$$X$x$j',#6,'Bridge deck reinforcement',$,$,'4.5',$,$,$,.F.,$,#87,.CONSTRUCTION.);
#89=IFCTASKTIME('Pour bridge deck Time',.PREDICTED.,$,.WORKTIME.,'P0Y0M5D','2027-03-01T07:00:00','2027-03-05T07:00:00','2027-06-25T07:00:00','2027-06-30T07:00:00','2027-06-25T07:00:00','2027-06-30T07:00:00','P0Y0M0D','P0Y0M0D',.T.,$,$,$,$,$,0.0);
#90=IFCTASK('5rEFzBOdtrFLk5GXYPiJQr',#6,'Pour bridge deck',$,$,'4.6',$,$,$,.F.,$,#89,.CONSTRUCTION.);
#91=IFCTASKTIME('Concrete curing Time',.PREDICTED.,$,.WORKTIME.,'P0Y0M15D','2027-03-01T07:00:00','2027-03-19T07:00:00','2027-07-01T07:00:00','2027-07-17T07:00:00','2027-07-01T07:00:00','2027-07-17T07:00:00','P0Y0M0D','P0Y0M0D',.T.,$,$,$,$,$,0.0);
#92=IFCTASK('sjrFzrOPRXDdqlhFBpztyv',#6,'Concrete curing',$,$,'4.7',$,$,$,.F.,$,#91,.CONSTRUCTION.);
#93=IFCTASKTIME('5. Finishing Time',.PREDICTED.,$,.WORKTIME.,'P0Y0M5D','2027-03-01T07:00:00','2027-03-05T07:00:00','2027-07-19T07:00:00','2027-09-04T07:00:00','2027-07-19T07:00:00','2027-09-04T07:00:00','P0Y0M0D','P0Y0M0D',.T.,$,$,$,$,$,0.0);
#94=IFCTASK('tjhlhJ2F8$U5bBA$Fxr$o5',#6,'5. Finishing',$,$,'5',$,$,$,.F.,$,#93,.CONSTRUCTION.);
#95=IFCTASKTIME('Install bridge railings Time',.PREDICTED.,$,.WORKTIME.,'P0Y0M5D','2027-03-01T07:00:00','2027-03-05T07:00:00','2027-07-19T07:00:00','2027-07-23T07:00:00','2027-07-19T07:00:00','2027-07-23T07:00:00','P0Y0M0D','P0Y0M0D',.T.,$,$,$,$,$,0.0);
#96=IFCTASK('vLkxIniXT1gzjDjnPhGN6b',#6,'Install bridge railings',$,$,'5.1',$,$,$,.F.,$,#95,.INSTALLATION.);
#97=IFCTASKTIME('Bridge deck waterproofing Time',.PREDICTED.,$,.WORKTIME.,'P0Y0M5D','2027-03-01T07:00:00','2027-03-05T07:00:00','2027-07-24T07:00:00','2027-08-19T07:00:00','2027-07-24T07:00:00','2027-08-19T07:00:00','P0Y0M0D','P0Y0M0D',.T.,$,$,$,$,$,0.0);
#98=IFCTASK('vF9pdxw7gdHj2Ps1tdOH3d',#6,'Bridge deck waterproofing',$,$,'5.2',$,$,$,.F.,$,#97,.INSTALLATION.);
#99=IFCTASKTIME('Asphalt bridge deck Time',.PREDICTED.,$,.WORKTIME.,'P0Y0M3D','2027-03-01T07:00:00','2027-03-03T07:00:00','2027-08-20T07:00:00','2027-08-23T07:00:00','2027-08-20T07:00:00','2027-08-23T07:00:00','P0Y0M0D','P0Y0M0D',.T.,$,$,$,$,$,0.0);
#100=IFCTASK('nvQNyXIlLvWHbL6lDPKJcF',#6,'Asphalt bridge deck',$,$,'5.3',$,$,$,.F.,$,#99,.CONSTRUCTION.);
#101=IFCTASKTIME('Asphalt tie-ins Time',.PREDICTED.,$,.WORKTIME.,'P0Y0M5D','2027-03-01T07:00:00','2027-03-05T07:00:00','2027-08-24T07:00:00','2027-08-28T07:00:00','2027-08-24T07:00:00','2027-08-28T07:00:00','P0Y0M0D','P0Y0M0D',.T.,$,$,$,$,$,0.0);
#102=IFCTASK('q92VGNevqvGXYZjnbVLVez',#6,'Asphalt tie-ins',$,$,'5.4',$,$,$,.F.,$,#101,.CONSTRUCTION.);
#103=IFCTASKTIME('Lighting Time',.PREDICTED.,$,.WORKTIME.,'P0Y0M3D','2027-03-01T07:00:00','2027-03-03T07:00:00','2027-08-30T07:00:00','2027-09-01T07:00:00','2027-08-30T07:00:00','2027-09-01T07:00:00','P0Y0M0D','P0Y0M0D',.T.,$,$,$,$,$,0.0);
#104=IFCTASK('1jEb8La1k1djohEnQvijUF',#6,'Lighting',$,$,'5.5',$,$,$,.F.,$,#103,.INSTALLATION.);
#105=IFCTASKTIME('Crash barrier Time',.PREDICTED.,$,.WORKTIME.,'P0Y0M3D','2027-03-01T07:00:00','2027-03-03T07:00:00','2027-09-02T07:00:00','2027-09-04T07:00:00','2027-09-02T07:00:00','2027-09-04T07:00:00','P0Y0M0D','P0Y0M0D',.T.,$,$,$,$,$,0.0);
#106=IFCTASK('pL3tM$n7shfTvJlV5rCRpH',#6,'Crash barrier',$,$,'5.6',$,$,$,.F.,$,#105,.INSTALLATION.);
#107=IFCTASKTIME('6. Handover Time',.PREDICTED.,$,.WORKTIME.,'P0Y0M5D','2027-03-01T07:00:00','2027-03-05T07:00:00','2027-09-06T07:00:00','2027-09-18T07:00:00','2027-09-06T07:00:00','2027-09-18T07:00:00','P0Y0M0D','P0Y0M0D',.T.,$,$,$,$,$,0.0);
#108=IFCTASK('q9cf0Hv9P7OduFBHF9A9a5',#6,'6. Handover',$,$,'6',$,$,$,.F.,$,#107,.CONSTRUCTION.);
#109=IFCTASKTIME('Load test Time',.PREDICTED.,$,.WORKTIME.,'P0Y0M3D','2027-03-01T07:00:00','2027-03-03T07:00:00','2027-09-06T07:00:00','2027-09-08T07:00:00','2027-09-06T07:00:00','2027-09-08T07:00:00','P0Y0M0D','P0Y0M0D',.T.,$,$,$,$,$,0.0);
#110=IFCTASK('gdWf4zyHfRDtdHhFRxAzDn',#6,'Load test',$,$,'6.1',$,$,$,.F.,$,#109,.ATTENDANCE.);
#111=IFCTASKTIME('Remove diversions Time',.PREDICTED.,$,.WORKTIME.,'P0Y0M3D','2027-03-01T07:00:00','2027-03-03T07:00:00','2027-09-09T07:00:00','2027-09-11T07:00:00','2027-09-09T07:00:00','2027-09-11T07:00:00','P0Y0M0D','P0Y0M0D',.T.,$,$,$,$,$,0.0);
#112=IFCTASK('0lFxUR2FaLlrqHBF1$5VmX',#6,'Remove diversions',$,$,'6.2',$,$,$,.F.,$,#111,.LOGISTIC.);
#113=IFCTASKTIME('Clear site Time',.PREDICTED.,$,.WORKTIME.,'P0Y0M5D','2027-03-01T07:00:00','2027-03-05T07:00:00','2027-09-13T07:00:00','2027-09-17T07:00:00','2027-09-13T07:00:00','2027-09-17T07:00:00','P0Y0M0D','P0Y0M0D',.T.,$,$,$,$,$,0.0);
#114=IFCTASK('0nBnTbIHrNov2dQ$YBpPlr',#6,'Clear site',$,$,'6.3',$,$,$,.F.,$,#113,.LOGISTIC.);
#115=IFCTASKTIME('Bridge open to traffic Time',.PREDICTED.,$,.WORKTIME.,'P0Y0M0D','2027-03-01T07:00:00','2027-03-01T07:00:00','2027-09-18T07:00:00','2027-09-18T07:00:00','2027-09-18T07:00:00','2027-09-18T07:00:00','P0Y0M0D','P0Y0M0D',.T.,$,$,$,$,$,0.0);
#116=IFCTASK('_pAvHb5X336$K$TF25r1ER',#6,'Bridge open to traffic',$,$,'6.4',$,$,$,.T.,$,#115,.CONSTRUCTION.);
#117=IFCRELNESTS('vh_BnBHdfRx1iXXV_xB$gf',#6,'WBS 1. Preparation & diversions',$,#40,( #42,#44,#46,#48,#50));
#118=IFCRELNESTS('xB2V8Ly$OHm18nbH_tc7J1',#6,'WBS 2. Demolition of old bridge',$,#52,( #54,#56,#58,#60,#62,#64));
#119=IFCRELNESTS('jRpdbxnvsLlrSDFXPhGtat',#6,'WBS 3. New foundations',$,#66,( #68,#70,#72,#74,#76));
#120=IFCRELNESTS('XT09YbYnERDtBdYXjxTfIv',#6,'WBS 4. Concrete structure',$,#78,( #80,#82,#84,#86,#88,#90,#92));
#121=IFCRELNESTS('2HlRqvFvgbp9dnd1K$VDyP',#6,'WBS 5. Finishing',$,#94,( #96,#98,#100,#102,#104,#106));
#122=IFCRELNESTS('J51TexEttXR$8nTnQz937x',#6,'WBS 6. Handover',$,#108,( #110,#112,#114,#116));
#123=IFCRELNESTS('tjjP5r1vgdnD4TBHzDgTrv',#6,'WBS Hoofd',$,#37,(#40,#52,#66,#78,#94,#108));
#124=IFCRELSEQUENCE('PV3toXcXzzYfRBYXb1nZ5n',#6,$,$,#42,#44,$,.FINISH_START.,$);
#125=IFCRELSEQUENCE('V$HjR1NfEHhlL3f$I$BnFx',#6,$,$,#44,#46,$,.FINISH_START.,$);
#126=IFCRELSEQUENCE('W195_redTpWlbBQ$A$fhoR',#6,$,$,#46,#48,$,.FINISH_START.,$);
#127=IFCRELSEQUENCE('CLZfGPcXxFvL_d2V1ZiJox',#6,$,$,#48,#50,$,.FINISH_START.,$);
#128=IFCRELSEQUENCE('GNG7zrmNmJg3ht81rNERRx',#6,$,$,#54,#56,$,.FINISH_START.,$);
#129=IFCRELSEQUENCE('c5CD5LrHN51Tzds1dn93bx',#6,$,$,#56,#58,$,.FINISH_START.,$);
#130=IFCRELSEQUENCE('ujTNKNv9Jttzh9WX5hmNAP',#6,$,$,#58,#60,$,.FINISH_START.,$);
#131=IFCRELSEQUENCE('0Fz9kHmfA9XRfdkVwJ9B4r',#6,$,$,#60,#62,$,.FINISH_START.,$);
#132=IFCRELSEQUENCE('LvKb0l9fMdljohwHVDMTHh',#6,$,$,#62,#64,$,.FINISH_START.,$);
#133=IFCRELSEQUENCE('wB69AH$von9bHZJnlPS3zd',#6,$,$,#68,#70,$,.FINISH_START.,$);
#134=IFCRELSEQUENCE('QVh$Y9hlBZi37Xf$29k1kr',#6,$,$,#70,#72,$,.FINISH_START.,$);
#135=IFCRELSEQUENCE('ezPh$dYF_t_Rjjt10dK5N$',#6,$,$,#72,#74,$,.FINISH_START.,$);
#136=IFCRELSEQUENCE('DBNjxFpXRBHBKbSnnxhVSN',#6,$,$,#74,#76,$,.FINISH_START.,$);
#137=IFCLAGTIME('Lag',.PREDICTED.,$,IFCDURATION('P5D'),.WORKTIME.);
#138=IFCRELSEQUENCE('P$Vz27HvKtEBi5mVmV$xvN',#6,$,$,#80,#82,#137,.START_START.,$);
#139=IFCRELSEQUENCE('Gvw9AnhHPdi3nD7$EFxlln',#6,$,$,#82,#84,$,.FINISH_START.,$);
#140=IFCRELSEQUENCE('wLM3wTW9dpgFxHt$exIxHB',#6,$,$,#84,#86,$,.FINISH_START.,$);
#141=IFCRELSEQUENCE('I9azIFS$Afb143VVAVz94P',#6,$,$,#86,#88,$,.FINISH_START.,$);
#142=IFCRELSEQUENCE('0FpvbXpn6zgnnpHV5BixJT',#6,$,$,#88,#90,$,.FINISH_START.,$);
#143=IFCRELSEQUENCE('orfjFLxFifAH5RCnafwjkL',#6,$,$,#90,#92,$,.FINISH_START.,$);
#144=IFCRELSEQUENCE('0nD7nLZ1gdV3FJjHPhGNYj',#6,$,$,#96,#98,$,.FINISH_START.,$);
#145=IFCRELSEQUENCE('nrtpplGfOPnD8tmV_9EXyd',#6,$,$,#98,#100,$,.FINISH_START.,$);
#146=IFCRELSEQUENCE('V34TmNOPnl8vc3hFn5xH75',#6,$,$,#100,#102,$,.FINISH_START.,$);
#147=IFCRELSEQUENCE('6hcJVDMPpvDtlTBlB9Qvhp',#6,$,$,#102,#104,$,.FINISH_START.,$);
#148=IFCRELSEQUENCE('3jUL37HvaB5VIlt1uTb$Eb',#6,$,$,#104,#106,$,.FINISH_START.,$);
#149=IFCRELSEQUENCE('fPWfWXB$0BvD43FXdLmtW7',#6,$,$,#110,#112,$,.FINISH_START.,$);
#150=IFCRELSEQUENCE('EPI5gXDF6TU5vJP1h3HBKD',#6,$,$,#112,#114,$,.FINISH_START.,$);
#151=IFCRELSEQUENCE('lf09srtNYpQXEhIFODZNkd',#6,$,$,#114,#116,$,.FINISH_START.,$);
#152=IFCLAGTIME('Lag',.PREDICTED.,$,IFCDURATION('P11D'),.WORKTIME.);
#153=IFCRELSEQUENCE('c1NRur09pdnpy3HXffERvx',#6,$,$,#42,#54,#152,.START_START.,$);
#154=IFCLAGTIME('Lag',.PREDICTED.,$,IFCRATIOMEASURE(0.4),.WORKTIME.);
#155=IFCRELSEQUENCE('Fv6t63iXr38vcFFXBNszPB',#6,$,$,#54,#68,#154,.START_START.,$);
#156=IFCLAGTIME('Lag',.PREDICTED.,$,IFCDURATION('-P8D'),.WORKTIME.);
#157=IFCRELSEQUENCE('$HfJDJDnkhpPiVnXZzWPR1',#6,$,$,#76,#80,#156,.FINISH_START.,$);
#158=IFCLAGTIME('Lag',.PREDICTED.,$,IFCDURATION('P2D'),.WORKTIME.);
#159=IFCRELSEQUENCE('HbrX0nZ$cX2tRVBFtzXbF$',#6,$,$,#76,#92,#158,.FINISH_FINISH.,$);
#160=IFCRELSEQUENCE('fduXuB09xxPr0Tt$HBBFR$',#6,$,$,#92,#96,$,.FINISH_START.,$);
#161=IFCRELSEQUENCE('Kbj7dfvtVRZd49KH0vOVOZ',#6,$,$,#106,#110,$,.FINISH_START.,$);
#162=IFCRELASSIGNSTOCONTROL('rDVhNjbXHjyDCF$VkTSruD',#6,$,$,(#40,#42,#44,#46,#48,#50,#52,#54,#56,#58,#60,#62,#64,#66,#68,#70,#72,#74,#76,#78,#80,#82,#84,#86,#88,#90,#92,#94,#96,#98,#100,#102,#104,#106,#108,#110,#112,#114,#116),$,#37);
#163=IFCPROPERTYSINGLEVALUE('wbsAutoNumber',$,IFCBOOLEAN(.T.),$);
#164=IFCPROPERTYSINGLEVALUE('ProjectStartDate',$,IFCDATE('2027-03-01'),$);
#165=IFCPROPERTYSINGLEVALUE('ProjectEndDate',$,$,$);
#166=IFCPROPERTYSINGLEVALUE('CreatedAt',$,IFCTEXT('2026-07-28T14:38:23.669Z'),$);
#167=IFCPROPERTYSINGLEVALUE('ModifiedAt',$,IFCTEXT('2026-07-28T14:38:23.670Z'),$);
#168=IFCPROPERTYSET('e5a3ArlP$tNZvpDF1ZK5n5',#6,'OPS_ProjectSettings',$,(#163,#164,#165,#166,#167));
#169=IFCRELDEFINESBYPROPERTIES('0Hdzo1sPJhdjQlBF$1BF9l',#6,$,$,(#13),#168);
#170=IFCPROPERTYSINGLEVALUE('MilestoneKind',$,IFCLABEL('START'),$);
#171=IFCPROPERTYSET('Q$vBbV3ldJU53v2FtPuF$j',#6,'OPS_Milestone',$,(#170));
#172=IFCRELDEFINESBYPROPERTIES('1jIxshxnyH3vsvUFR1NLsz',#6,$,$,(#50),#171);
ENDSEC;
END-ISO-10303-21;
