ISO-10303-21;
HEADER;
FILE_DESCRIPTION(('ViewDefinition [SchedulingView]'),'2;1');
FILE_NAME('De Linde Care Centre.ifc','2026-08-14T08:19:54',('Linda de Groot'),('Healthcare Construction Netherlands BV'),'Open Planner Studio 0.1','Open Planner Studio','');
FILE_SCHEMA(('IFC4X3'));
ENDSEC;
DATA;
#1=IFCPERSON($,'Linda de Groot',$,$,$,$,$,$);
#2=IFCORGANIZATION($,'Healthcare Construction Netherlands BV',$,$,$);
#3=IFCPERSONANDORGANIZATION(#1,#2,$);
#4=IFCORGANIZATION($,'OpenAEC Foundation',$,$,$);
#5=IFCAPPLICATION(#4,'0.1','Open Planner Studio','OPS');
#6=IFCOWNERHISTORY(#3,#5,$,.NOCHANGE.,$,$,$,1786695594);
#7=IFCSIUNIT(*,.LENGTHUNIT.,$,.METRE.);
#8=IFCSIUNIT(*,.TIMEUNIT.,$,.SECOND.);
#9=IFCUNITASSIGNMENT((#7,#8));
#10=IFCCARTESIANPOINT((0.,0.,0.));
#11=IFCAXIS2PLACEMENT3D(#10,$,$);
#12=IFCGEOMETRICREPRESENTATIONCONTEXT($,'Plan',3,1.0E-05,#11,$);
#13=IFCPROJECT('xrQNmtqV$tfZtrEXmlXDaN',#6,'De Linde Care Centre','New-build care centre with 60 rooms and treatment areas',$,$,$,(#12),#9);
#14=IFCTIMEPERIOD('07:00:00','16:00:00');
#15=IFCRECURRENCEPATTERN(.WEEKLY.,$,(1,2,3,4,5),$,$,$,$,(#14));
#16=IFCWORKTIME('Standard work week',.PREDICTED.,$,#15,$,$);
#17=IFCWORKTIME('New Year''s Day',.PREDICTED.,$,$,'2027-01-01','2027-01-01');
#18=IFCWORKTIME('Good Friday',.PREDICTED.,$,$,'2027-03-26','2027-03-26');
#19=IFCWORKTIME('Easter',.PREDICTED.,$,$,'2027-03-28','2027-03-29');
#20=IFCWORKTIME('King''s Day',.PREDICTED.,$,$,'2027-04-27','2027-04-27');
#21=IFCWORKTIME('Liberation Day',.PREDICTED.,$,$,'2027-05-05','2027-05-05');
#22=IFCWORKTIME('Ascension Day',.PREDICTED.,$,$,'2027-05-06','2027-05-06');
#23=IFCWORKTIME('Whitsun',.PREDICTED.,$,$,'2027-05-16','2027-05-17');
#24=IFCWORKTIME('Christmas',.PREDICTED.,$,$,'2027-12-25','2027-12-26');
#25=IFCWORKTIME('Construction holiday (northern region)',.PREDICTED.,$,$,'2027-07-26','2027-08-15');
#26=IFCWORKTIME('New Year''s Day',.PREDICTED.,$,$,'2028-01-01','2028-01-01');
#27=IFCWORKTIME('Good Friday',.PREDICTED.,$,$,'2028-04-14','2028-04-14');
#28=IFCWORKTIME('Easter',.PREDICTED.,$,$,'2028-04-16','2028-04-17');
#29=IFCWORKTIME('King''s Day',.PREDICTED.,$,$,'2028-04-27','2028-04-27');
#30=IFCWORKTIME('Liberation Day',.PREDICTED.,$,$,'2028-05-05','2028-05-05');
#31=IFCWORKTIME('Ascension Day',.PREDICTED.,$,$,'2028-05-25','2028-05-25');
#32=IFCWORKTIME('Whitsun',.PREDICTED.,$,$,'2028-06-04','2028-06-05');
#33=IFCWORKTIME('Christmas',.PREDICTED.,$,$,'2028-12-25','2028-12-26');
#34=IFCWORKTIME('Construction holiday (northern region)',.PREDICTED.,$,$,'2028-07-24','2028-08-13');
#35=IFCWORKCALENDAR('_HlbW$VPl1Yxnv_nBDbFBd',#6,'Construction calendar NL','Standard construction calendar: Mon-Fri 07:00-16:00',$,(#16),(#17,#18,#19,#20,#21,#22,#23,#24,#25,#26,#27,#28,#29,#30,#31,#32,#33,#34),.FIRSTSHIFT.);
#36=IFCWORKPLAN('Z3ahnnT1wTU5pHxFEltByv',#6,'De Linde Care Centre','New-build care centre with 60 rooms and treatment areas',$,$,'2026-08-14T08:19:54',$,$,$,$,$,'2027-03-01T07:00:00','2027-03-19T07:00:00',.PLANNED.);
#37=IFCWORKSCHEDULE('0nD7dtT1I$Vb5nblsXLVGX',#6,'Construction schedule v1.0',$,$,$,'2026-08-14T08:19:54',$,$,$,$,$,'2027-03-01T07:00:00','2027-03-19T07:00:00',.PLANNED.);
#38=IFCRELAGGREGATES('X$Ph9TPtbVDd8te$ftI1sz',#6,$,$,#36,(#37));
#39=IFCTASKTIME('1. Preparation Time',.PREDICTED.,$,.WORKTIME.,'P0Y0M5D','2027-03-01T07:00:00','2027-03-05T07:00:00','2027-03-01T07:00:00','2027-03-16T07:00:00','2027-03-01T07:00:00','2028-01-18T07:00:00','P0Y0M0D','P0Y0M0D',.T.,$,$,$,$,$,0.0);
#40=IFCTASK('stgdl1tfu1UxtrkXMBCp4L',#6,'1. Preparation',$,$,'1',$,$,$,.F.,$,#39,.CONSTRUCTION.);
#41=IFCTASKTIME('Set up site Time',.PREDICTED.,$,.WORKTIME.,'P0Y0M5D','2027-03-01T07:00:00','2027-03-05T07:00:00','2027-03-01T07:00:00','2027-03-05T07:00:00','2027-03-01T07:00:00','2027-03-05T07:00:00','P0Y0M0D','P0Y0M0D',.T.,$,$,$,$,$,0.0);
#42=IFCTASK('6ronlx7tvtkLY3VXwpLV09',#6,'Set up site',$,$,'1.1',$,$,$,.F.,$,#41,.LOGISTIC.);
#43=IFCTASKTIME('Additional soil investigation Time',.PREDICTED.,$,.WORKTIME.,'P0Y0M3D','2027-03-01T07:00:00','2027-03-03T07:00:00','2027-03-08T07:00:00','2027-03-10T07:00:00','2028-01-10T07:00:00','2028-01-12T07:00:00','P0Y0M0D','P0Y0M199D',.F.,$,$,$,$,$,0.0);
#44=IFCTASK('phLH9zDVzlOtFj5F_NwJEx',#6,'Additional soil investigation',$,$,'1.2',$,$,$,.F.,$,#43,.CONSTRUCTION.);
#45=IFCTASKTIME('Fell and transplant trees Time',.PREDICTED.,$,.WORKTIME.,'P0Y0M3D','2027-03-01T07:00:00','2027-03-03T07:00:00','2027-03-11T07:00:00','2027-03-15T07:00:00','2028-01-13T07:00:00','2028-01-17T07:00:00','P0Y0M0D','P0Y0M199D',.F.,$,$,$,$,$,0.0);
#46=IFCTASK('_JI5_rmf2TqTH9O1CHJvtj',#6,'Fell and transplant trees',$,$,'1.3',$,$,$,.F.,$,#45,.DEMOLITION.);
#47=IFCTASKTIME('Start of construction Time',.PREDICTED.,$,.WORKTIME.,'P0Y0M0D','2027-03-01T07:00:00','2027-03-01T07:00:00','2027-03-16T07:00:00','2027-03-16T07:00:00','2028-01-18T07:00:00','2028-01-18T07:00:00','P0Y0M199D','P0Y0M199D',.F.,$,$,$,$,$,0.0);
#48=IFCTASK('Z1Fp5Lz1GT4h_Pw$mX7DSt',#6,'Start of construction',$,$,'1.4',$,$,$,.T.,$,#47,.CONSTRUCTION.);
#49=IFCTASKTIME('2. Foundations Time',.PREDICTED.,$,.WORKTIME.,'P0Y0M5D','2027-03-01T07:00:00','2027-03-05T07:00:00','2027-03-09T07:00:00','2027-04-30T07:00:00','2027-03-09T07:00:00','2028-01-18T07:00:00','P0Y0M0D','P0Y0M0D',.T.,$,$,$,$,$,0.0);
#50=IFCTASK('gdm7vd3lthTtlThl138nXT',#6,'2. Foundations',$,$,'2',$,$,$,.F.,$,#49,.CONSTRUCTION.);
#51=IFCTASKTIME('Pile driving, foundation piles Time',.PREDICTED.,$,.WORKTIME.,'P0Y0M12D','2027-03-01T07:00:00','2027-03-16T07:00:00','2027-03-09T07:00:00','2027-03-24T07:00:00','2027-03-09T07:00:00','2027-03-24T07:00:00','P0Y0M0D','P0Y0M0D',.T.,$,$,$,$,$,0.0);
#52=IFCTASK('RXj7FhZ$s9VR71bHsxwjsd',#6,'Pile driving, foundation piles',$,$,'2.1',$,$,$,.F.,$,#51,.CONSTRUCTION.);
#53=IFCTASKTIME('Foundation beams Time',.PREDICTED.,$,.WORKTIME.,'P0Y0M8D','2027-03-01T07:00:00','2027-03-10T07:00:00','2027-03-25T07:00:00','2027-04-07T07:00:00','2027-12-16T07:00:00','2027-12-27T07:00:00','P0Y0M0D','P0Y0M169D',.F.,$,$,$,$,$,0.0);
#54=IFCTASK('ovQNGPM1AfjvkHv1HvGfYn',#6,'Foundation beams',$,$,'2.2',$,$,$,.F.,$,#53,.CONSTRUCTION.);
#55=IFCTASKTIME('Sewerage and underground pipework Time',.PREDICTED.,$,.WORKTIME.,'P0Y0M8D','2027-03-01T07:00:00','2027-03-10T07:00:00','2027-04-08T07:00:00','2027-04-19T07:00:00','2027-12-28T07:00:00','2028-01-06T07:00:00','P0Y0M0D','P0Y0M169D',.F.,$,$,$,$,$,0.0);
#56=IFCTASK('uDNJjTtf_3u7ors$D7eV8D',#6,'Sewerage and underground pipework',$,$,'2.3',$,$,$,.F.,$,#55,.INSTALLATION.);
#57=IFCTASKTIME('Pour ground floor slab Time',.PREDICTED.,$,.WORKTIME.,'P0Y0M8D','2027-03-01T07:00:00','2027-03-10T07:00:00','2027-04-20T07:00:00','2027-04-30T07:00:00','2028-01-07T07:00:00','2028-01-18T07:00:00','P0Y0M169D','P0Y0M169D',.F.,$,$,$,$,$,0.0);
#58=IFCTASK('AfcjZxMd3FyLg9qHoJQ7Rb',#6,'Pour ground floor slab',$,$,'2.4',$,$,$,.F.,$,#57,.CONSTRUCTION.);
#59=IFCTASKTIME('3. Structural works Time',.PREDICTED.,$,.WORKTIME.,'P0Y0M5D','2027-03-01T07:00:00','2027-03-05T07:00:00','2027-03-16T07:00:00','2027-06-24T07:00:00','2027-03-16T07:00:00','2028-01-18T07:00:00','P0Y0M0D','P0Y0M0D',.T.,$,$,$,$,$,0.0);
#60=IFCTASK('kbxnVDUfmZiRR$71gF7Da5',#6,'3. Structural works',$,$,'3',$,$,$,.F.,$,#59,.CONSTRUCTION.);
#61=IFCTASKTIME('Ground floor load-bearing structure Time',.PREDICTED.,$,.WORKTIME.,'P0Y0M12D','2027-03-01T07:00:00','2027-03-16T07:00:00','2027-03-16T07:00:00','2027-04-02T07:00:00','2027-03-16T07:00:00','2027-04-02T07:00:00','P0Y0M0D','P0Y0M0D',.T.,$,$,$,$,$,0.0);
#62=IFCTASK('G7cf8h41aBhHj$bHIVvpGV',#6,'Ground floor load-bearing structure',$,$,'3.1',$,$,$,.F.,$,#61,.CONSTRUCTION.);
#63=IFCTASKTIME('Floor 1 concrete Time',.PREDICTED.,$,.WORKTIME.,'P0Y0M10D','2027-03-01T07:00:00','2027-03-12T07:00:00','2027-04-05T07:00:00','2027-04-16T07:00:00','2027-04-05T07:00:00','2027-04-16T07:00:00','P0Y0M0D','P0Y0M0D',.T.,$,$,$,$,$,0.0);
#64=IFCTASK('Jtazcpw7wlO9b$t$Z1R16R',#6,'Floor 1 concrete',$,$,'3.2',$,$,$,.F.,$,#63,.CONSTRUCTION.);
#65=IFCTASKTIME('Floor 2 concrete Time',.PREDICTED.,$,.WORKTIME.,'P0Y0M10D','2027-03-01T07:00:00','2027-03-12T07:00:00','2027-04-19T07:00:00','2027-05-03T07:00:00','2027-04-19T07:00:00','2027-05-03T07:00:00','P0Y0M0D','P0Y0M0D',.T.,$,$,$,$,$,0.0);
#66=IFCTASK('xrU1wPIlHXIPWJVX_tAtCF',#6,'Floor 2 concrete',$,$,'3.3',$,$,$,.F.,$,#65,.CONSTRUCTION.);
#67=IFCTASKTIME('Facade masonry Time',.PREDICTED.,$,.WORKTIME.,'P0Y0M15D','2027-03-01T07:00:00','2027-03-19T07:00:00','2027-05-04T07:00:00','2027-05-27T07:00:00','2027-05-04T07:00:00','2027-05-27T07:00:00','P0Y0M0D','P0Y0M0D',.T.,$,$,$,$,$,0.0);
#68=IFCTASK('STGPNDfNEbjfvJVX2fQpqZ',#6,'Facade masonry',$,$,'3.4',$,$,$,.F.,$,#67,.CONSTRUCTION.);
#69=IFCTASKTIME('Internal walls, sand-lime brick Time',.PREDICTED.,$,.WORKTIME.,'P0Y0M10D','2027-03-01T07:00:00','2027-03-12T07:00:00','2027-05-28T07:00:00','2027-06-10T07:00:00','2027-05-28T07:00:00','2027-06-10T07:00:00','P0Y0M0D','P0Y0M0D',.T.,$,$,$,$,$,0.0);
#70=IFCTASK('AfsTyzyHPj6JU9WXZXlr0t',#6,'Internal walls, sand-lime brick',$,$,'3.5',$,$,$,.F.,$,#69,.CONSTRUCTION.);
#71=IFCTASKTIME('Roof structure Time',.PREDICTED.,$,.WORKTIME.,'P0Y0M10D','2027-03-01T07:00:00','2027-03-12T07:00:00','2027-06-11T07:00:00','2027-06-24T07:00:00','2027-06-11T07:00:00','2027-06-24T07:00:00','P0Y0M0D','P0Y0M0D',.T.,$,$,$,$,$,0.0);
#72=IFCTASK('kb5FrdIlb11xRBw1iVz9qF',#6,'Roof structure',$,$,'3.6',$,$,$,.F.,$,#71,.CONSTRUCTION.);
#73=IFCTASKTIME('Topping out Time',.PREDICTED.,$,.WORKTIME.,'P0Y0M0D','2027-03-01T07:00:00','2027-03-01T07:00:00','2027-06-24T07:00:00','2027-06-24T07:00:00','2028-01-18T07:00:00','2028-01-18T07:00:00','P0Y0M133D','P0Y0M133D',.F.,$,$,$,$,$,0.0);
#74=IFCTASK('IxHJnhbFIVxX_JRF07Wdhf',#6,'Topping out',$,$,'3.7',$,$,$,.T.,$,#73,.CONSTRUCTION.);
#75=IFCTASKTIME('4. Facade & roof Time',.PREDICTED.,$,.WORKTIME.,'P0Y0M5D','2027-03-01T07:00:00','2027-03-05T07:00:00','2027-06-08T07:00:00','2027-08-16T07:00:00','2027-06-08T07:00:00','2028-01-18T07:00:00','P0Y0M0D','P0Y0M0D',.T.,$,$,$,$,$,0.0);
#76=IFCTASK('L3Fpj12N29Y5zPUVJ5TfcH',#6,'4. Facade & roof',$,$,'4',$,$,$,.F.,$,#75,.CONSTRUCTION.);
#77=IFCTASKTIME('Facade insulation and finish Time',.PREDICTED.,$,.WORKTIME.,'P0Y0M12D','2027-03-01T07:00:00','2027-03-16T07:00:00','2027-06-08T07:00:00','2027-06-23T07:00:00','2027-06-08T07:00:00','2027-06-23T07:00:00','P0Y0M0D','P0Y0M0D',.T.,$,$,$,$,$,0.0);
#78=IFCTASK('XTO$gV5XH$ErS7slyvKJEf',#6,'Facade insulation and finish',$,$,'4.1',$,$,$,.F.,$,#77,.INSTALLATION.);
#79=IFCTASKTIME('Window frames and screens Time',.PREDICTED.,$,.WORKTIME.,'P0Y0M10D','2027-03-01T07:00:00','2027-03-12T07:00:00','2027-06-24T07:00:00','2027-07-07T07:00:00','2027-06-24T07:00:00','2027-07-07T07:00:00','P0Y0M0D','P0Y0M0D',.T.,$,$,$,$,$,0.0);
#80=IFCTASK('vLsTCvXdVdPrOdUVLdm9Sf',#6,'Window frames and screens',$,$,'4.2',$,$,$,.F.,$,#79,.INSTALLATION.);
#81=IFCTASKTIME('Roof insulation and covering Time',.PREDICTED.,$,.WORKTIME.,'P0Y0M8D','2027-03-01T07:00:00','2027-03-10T07:00:00','2027-07-08T07:00:00','2027-07-19T07:00:00','2027-07-08T07:00:00','2027-07-19T07:00:00','P0Y0M0D','P0Y0M0D',.T.,$,$,$,$,$,0.0);
#82=IFCTASK('mfWNKB17Q1wJw15l8rCpyv',#6,'Roof insulation and covering',$,$,'4.3',$,$,$,.F.,$,#81,.CONSTRUCTION.);
#83=IFCTASKTIME('Roof edges and rainwater drainage Time',.PREDICTED.,$,.WORKTIME.,'P0Y0M5D','2027-03-01T07:00:00','2027-03-05T07:00:00','2027-07-20T07:00:00','2027-08-16T07:00:00','2027-07-20T07:00:00','2027-08-16T07:00:00','P0Y0M0D','P0Y0M0D',.T.,$,$,$,$,$,0.0);
#84=IFCTASK('2nTfWXxXTpOdy9qFqFnLMN',#6,'Roof edges and rainwater drainage',$,$,'4.4',$,$,$,.F.,$,#83,.CONSTRUCTION.);
#85=IFCTASKTIME('Wind and weathertight Time',.PREDICTED.,$,.WORKTIME.,'P0Y0M0D','2027-03-01T07:00:00','2027-03-01T07:00:00','2027-08-16T07:00:00','2027-08-16T07:00:00','2028-01-18T07:00:00','2028-01-18T07:00:00','P0Y0M111D','P0Y0M111D',.F.,$,$,$,$,$,0.0);
#86=IFCTASK('2HVhl1d9ZpWl1XhFv1HzjV',#6,'Wind and weathertight',$,$,'4.5',$,$,$,.T.,$,#85,.CONSTRUCTION.);
#87=IFCTASKTIME('5. Building services Time',.PREDICTED.,$,.WORKTIME.,'P0Y0M5D','2027-03-01T07:00:00','2027-03-05T07:00:00','2027-08-17T07:00:00','2027-11-24T07:00:00','2027-08-17T07:00:00','2028-01-18T07:00:00','P0Y0M0D','P0Y0M0D',.T.,$,$,$,$,$,0.0);
#88=IFCTASK('XTuX41UNSBTt3bGVG1Jv1f',#6,'5. Building services',$,$,'5',$,$,$,.F.,$,#87,.INSTALLATION.);
#89=IFCTASKTIME('Main electrical distribution Time',.PREDICTED.,$,.WORKTIME.,'P0Y0M8D','2027-03-01T07:00:00','2027-03-10T07:00:00','2027-08-17T07:00:00','2027-08-26T07:00:00','2027-08-17T07:00:00','2027-08-26T07:00:00','P0Y0M0D','P0Y0M0D',.T.,$,$,$,$,$,0.0);
#90=IFCTASK('RXxn$TGNa193l3VVwJvRDl',#6,'Main electrical distribution',$,$,'5.1',$,$,$,.F.,$,#89,.INSTALLATION.);
#91=IFCTASKTIME('Emergency power supply Time',.PREDICTED.,$,.WORKTIME.,'P0Y0M5D','2027-03-01T07:00:00','2027-03-05T07:00:00','2027-08-27T07:00:00','2027-09-02T07:00:00','2027-10-21T07:00:00','2027-10-27T07:00:00','P0Y0M0D','P0Y0M39D',.F.,$,$,$,$,$,0.0);
#92=IFCTASK('lx95kDlveddBi1LlLZLlhD',#6,'Emergency power supply',$,$,'5.2',$,$,$,.F.,$,#91,.INSTALLATION.);
#93=IFCTASKTIME('Oxygen and medical gases Time',.PREDICTED.,$,.WORKTIME.,'P0Y0M8D','2027-03-01T07:00:00','2027-03-10T07:00:00','2027-09-03T07:00:00','2027-09-14T07:00:00','2027-10-28T07:00:00','2027-11-08T07:00:00','P0Y0M0D','P0Y0M39D',.F.,$,$,$,$,$,0.0);
#94=IFCTASK('Rxq5E1wvshNTjVv1H7Olxr',#6,'Oxygen and medical gases',$,$,'5.3',$,$,$,.F.,$,#93,.INSTALLATION.);
#95=IFCTASKTIME('Heating and cooling Time',.PREDICTED.,$,.WORKTIME.,'P0Y0M10D','2027-03-01T07:00:00','2027-03-12T07:00:00','2027-09-08T07:00:00','2027-09-21T07:00:00','2027-11-02T07:00:00','2027-11-15T07:00:00','P0Y0M0D','P0Y0M39D',.F.,$,$,$,$,$,0.0);
#96=IFCTASK('Qxq5klOvuN5XQ3bFaNwJ_Z',#6,'Heating and cooling',$,$,'5.4',$,$,$,.F.,$,#95,.INSTALLATION.);
#97=IFCTASKTIME('Ventilation with HEPA filters Time',.PREDICTED.,$,.WORKTIME.,'P0Y0M10D','2027-03-01T07:00:00','2027-03-12T07:00:00','2027-09-22T07:00:00','2027-10-05T07:00:00','2027-11-16T07:00:00','2027-11-29T07:00:00','P0Y0M0D','P0Y0M39D',.F.,$,$,$,$,$,0.0);
#98=IFCTASK('6lhl5h31yHLl3PoV07m9W7',#6,'Ventilation with HEPA filters',$,$,'5.5',$,$,$,.F.,$,#97,.INSTALLATION.);
#99=IFCTASKTIME('Sprinkler and fire alarm Time',.PREDICTED.,$,.WORKTIME.,'P0Y0M8D','2027-03-01T07:00:00','2027-03-10T07:00:00','2027-10-06T07:00:00','2027-10-15T07:00:00','2027-11-30T07:00:00','2027-12-09T07:00:00','P0Y0M0D','P0Y0M39D',.F.,$,$,$,$,$,0.0);
#100=IFCTASK('ELZfiL5F4lx$4Tjnh7qp8D',#6,'Sprinkler and fire alarm',$,$,'5.6',$,$,$,.F.,$,#99,.INSTALLATION.);
#101=IFCTASKTIME('Lift installation Time',.PREDICTED.,$,.WORKTIME.,'P0Y0M15D','2027-03-01T07:00:00','2027-03-19T07:00:00','2027-10-18T07:00:00','2027-11-05T07:00:00','2027-12-10T07:00:00','2027-12-30T07:00:00','P0Y0M0D','P0Y0M39D',.F.,$,$,$,$,$,0.0);
#102=IFCTASK('t9U$UR2naB3NLZTFkXXR7R',#6,'Lift installation',$,$,'5.7',$,$,$,.F.,$,#101,.INSTALLATION.);
#103=IFCTASKTIME('Nurse call system Time',.PREDICTED.,$,.WORKTIME.,'P0Y0M5D','2027-03-01T07:00:00','2027-03-05T07:00:00','2027-11-08T07:00:00','2027-11-12T07:00:00','2027-12-31T07:00:00','2028-01-06T07:00:00','P0Y0M0D','P0Y0M39D',.F.,$,$,$,$,$,0.0);
#104=IFCTASK('qLhHZ9rH9hT9dnd$qlDdDD',#6,'Nurse call system',$,$,'5.8',$,$,$,.F.,$,#103,.INSTALLATION.);
#105=IFCTASKTIME('ICT cabling Time',.PREDICTED.,$,.WORKTIME.,'P0Y0M8D','2027-03-01T07:00:00','2027-03-10T07:00:00','2027-11-15T07:00:00','2027-11-24T07:00:00','2028-01-07T07:00:00','2028-01-18T07:00:00','P0Y0M39D','P0Y0M39D',.F.,$,$,$,$,$,0.0);
#106=IFCTASK('QxKR0FZ$_ZSj_dg$FNQDip',#6,'ICT cabling',$,$,'5.9',$,$,$,.F.,$,#105,.INSTALLATION.);
#107=IFCTASKTIME('6. Fit-out Time',.PREDICTED.,$,.WORKTIME.,'P0Y0M5D','2027-03-01T07:00:00','2027-03-05T07:00:00','2027-10-11T07:00:00','2027-12-23T07:00:00','2027-10-11T07:00:00','2027-12-23T07:00:00','P0Y0M0D','P0Y0M0D',.T.,$,$,$,$,$,0.0);
#108=IFCTASK('eR092PjFu$sTTf0V3D2rCn',#6,'6. Fit-out',$,$,'6',$,$,$,.F.,$,#107,.CONSTRUCTION.);
#109=IFCTASKTIME('Partition walls Time',.PREDICTED.,$,.WORKTIME.,'P0Y0M8D','2027-03-01T07:00:00','2027-03-10T07:00:00','2027-10-11T07:00:00','2027-10-20T07:00:00','2027-10-11T07:00:00','2027-10-20T07:00:00','P0Y0M0D','P0Y0M0D',.T.,$,$,$,$,$,0.0);
#110=IFCTASK('Z3S3MRpnkBXbvV7$n9cvvb',#6,'Partition walls',$,$,'6.1',$,$,$,.F.,$,#109,.CONSTRUCTION.);
#111=IFCTASKTIME('Finish ceilings and walls Time',.PREDICTED.,$,.WORKTIME.,'P0Y0M10D','2027-03-01T07:00:00','2027-03-12T07:00:00','2027-10-21T07:00:00','2027-11-03T07:00:00','2027-10-21T07:00:00','2027-11-03T07:00:00','P0Y0M0D','P0Y0M0D',.T.,$,$,$,$,$,0.0);
#112=IFCTASK('dXrVKhpXX5FDCr_VJfkxTR',#6,'Finish ceilings and walls',$,$,'6.2',$,$,$,.F.,$,#111,.CONSTRUCTION.);
#113=IFCTASKTIME('Tiling, wet rooms Time',.PREDICTED.,$,.WORKTIME.,'P0Y0M8D','2027-03-01T07:00:00','2027-03-10T07:00:00','2027-11-04T07:00:00','2027-11-15T07:00:00','2027-11-04T07:00:00','2027-11-15T07:00:00','P0Y0M0D','P0Y0M0D',.T.,$,$,$,$,$,0.0);
#114=IFCTASK('XVRlDFqVrfAlL3v$NjVpmV',#6,'Tiling, wet rooms',$,$,'6.3',$,$,$,.F.,$,#113,.CONSTRUCTION.);
#115=IFCTASKTIME('Screeds and floor finishes Time',.PREDICTED.,$,.WORKTIME.,'P0Y0M8D','2027-03-01T07:00:00','2027-03-10T07:00:00','2027-11-16T07:00:00','2027-11-25T07:00:00','2027-11-16T07:00:00','2027-11-25T07:00:00','P0Y0M0D','P0Y0M0D',.T.,$,$,$,$,$,0.0);
#116=IFCTASK('6nXhH$PtZDe9vVXXY7eVyL',#6,'Screeds and floor finishes',$,$,'6.4',$,$,$,.F.,$,#115,.CONSTRUCTION.);
#117=IFCTASKTIME('Painting Time',.PREDICTED.,$,.WORKTIME.,'P0Y0M10D','2027-03-01T07:00:00','2027-03-12T07:00:00','2027-11-26T07:00:00','2027-12-09T07:00:00','2027-11-26T07:00:00','2027-12-09T07:00:00','P0Y0M0D','P0Y0M0D',.T.,$,$,$,$,$,0.0);
#118=IFCTASK('tjZfiN$7Yp_tb$7$6NULwV',#6,'Painting',$,$,'6.5',$,$,$,.F.,$,#117,.CONSTRUCTION.);
#119=IFCTASKTIME('Kitchens and pantry Time',.PREDICTED.,$,.WORKTIME.,'P0Y0M5D','2027-03-01T07:00:00','2027-03-05T07:00:00','2027-12-10T07:00:00','2027-12-16T07:00:00','2027-12-10T07:00:00','2027-12-16T07:00:00','P0Y0M0D','P0Y0M0D',.T.,$,$,$,$,$,0.0);
#120=IFCTASK('YVBXW1v9F3o7UzHX$3OVWd',#6,'Kitchens and pantry',$,$,'6.6',$,$,$,.F.,$,#119,.INSTALLATION.);
#121=IFCTASKTIME('Install sanitary fittings Time',.PREDICTED.,$,.WORKTIME.,'P0Y0M5D','2027-03-01T07:00:00','2027-03-05T07:00:00','2027-12-17T07:00:00','2027-12-23T07:00:00','2027-12-17T07:00:00','2027-12-23T07:00:00','P0Y0M0D','P0Y0M0D',.T.,$,$,$,$,$,0.0);
#122=IFCTASK('DdcJflGfqZAZthEF_5r$Yn',#6,'Install sanitary fittings',$,$,'6.7',$,$,$,.F.,$,#121,.INSTALLATION.);
#123=IFCTASKTIME('7. Handover Time',.PREDICTED.,$,.WORKTIME.,'P0Y0M5D','2027-03-01T07:00:00','2027-03-05T07:00:00','2027-12-24T07:00:00','2028-01-18T07:00:00','2027-12-24T07:00:00','2028-01-18T07:00:00','P0Y0M0D','P0Y0M0D',.T.,$,$,$,$,$,0.0);
#124=IFCTASK('4Hztg$XdFl0n9tSFh3fTnR',#6,'7. Handover',$,$,'7',$,$,$,.F.,$,#123,.CONSTRUCTION.);
#125=IFCTASKTIME('Construct external areas Time',.PREDICTED.,$,.WORKTIME.,'P0Y0M8D','2027-03-01T07:00:00','2027-03-10T07:00:00','2027-12-24T07:00:00','2028-01-04T07:00:00','2027-12-24T07:00:00','2028-01-04T07:00:00','P0Y0M0D','P0Y0M0D',.T.,$,$,$,$,$,0.0);
#126=IFCTASK('jN8VSl8dZXw1CrEXyPOHnX',#6,'Construct external areas',$,$,'7.1',$,$,$,.F.,$,#125,.CONSTRUCTION.);
#127=IFCTASKTIME('Room furnishing Time',.PREDICTED.,$,.WORKTIME.,'P0Y0M5D','2027-03-01T07:00:00','2027-03-05T07:00:00','2028-01-05T07:00:00','2028-01-11T07:00:00','2028-01-05T07:00:00','2028-01-11T07:00:00','P0Y0M0D','P0Y0M0D',.T.,$,$,$,$,$,0.0);
#128=IFCTASK('tNgz2vl7OlOtpZlXxL81Ex',#6,'Room furnishing',$,$,'7.2',$,$,$,.F.,$,#127,.LOGISTIC.);
#129=IFCTASKTIME('Test building services Time',.PREDICTED.,$,.WORKTIME.,'P0Y0M5D','2027-03-01T07:00:00','2027-03-05T07:00:00','2028-01-12T07:00:00','2028-01-18T07:00:00','2028-01-12T07:00:00','2028-01-18T07:00:00','P0Y0M0D','P0Y0M0D',.T.,$,$,$,$,$,0.0);
#130=IFCTASK('gPGPBZWtfRrFDZ$VsbUnvN',#6,'Test building services',$,$,'7.3',$,$,$,.F.,$,#129,.ATTENDANCE.);
#131=IFCTASKTIME('Handover Time',.PREDICTED.,$,.WORKTIME.,'P0Y0M0D','2027-03-01T07:00:00','2027-03-01T07:00:00','2028-01-18T07:00:00','2028-01-18T07:00:00','2028-01-18T07:00:00','2028-01-18T07:00:00','P0Y0M0D','P0Y0M0D',.T.,$,$,$,$,$,0.0);
#132=IFCTASK('9J3tE3jVVPtRVbSl1TixvN',#6,'Handover',$,$,'7.4',$,$,$,.T.,$,#131,.CONSTRUCTION.);
#133=IFCRELNESTS('HxnDNjjnaXLlT9ynnNcp8b',#6,'WBS 1. Preparation',$,#40,( #42,#44,#46,#48));
#134=IFCRELNESTS('FBHbq5tNiJKz5F5HOj$jwV',#6,'WBS 2. Foundations',$,#50,( #52,#54,#56,#58));
#135=IFCRELNESTS('PXztctCV$Nzfbrg$Prijgf',#6,'WBS 3. Structural works',$,#60,( #62,#64,#66,#68,#70,#72,#74));
#136=IFCRELNESTS('S$fbKhz1S$HBCrEXGX9zzP',#6,'WBS 4. Facade & roof',$,#76,( #78,#80,#82,#84,#86));
#137=IFCRELNESTS('OxyBhfWtxHhHj$5l07eV0N',#6,'WBS 5. Building services',$,#88,( #90,#92,#94,#96,#98,#100,#102,#104,#106));
#138=IFCRELNESTS('Ht4Z4T0tt1nhknDn5ryTX3',#6,'WBS 6. Fit-out',$,#108,( #110,#112,#114,#116,#118,#120,#122));
#139=IFCRELNESTS('zpY1wT8vQ$Ux55mX_xpdfV',#6,'WBS 7. Handover',$,#124,( #126,#128,#130,#132));
#140=IFCRELNESTS('tjjP5r1vgdnD4TBHzDgTrv',#6,'WBS Hoofd',$,#37,(#40,#50,#60,#76,#88,#108,#124));
#141=IFCRELSEQUENCE('nrP3_BO7iDufzvwlXpERTf',#6,$,$,#42,#44,$,.FINISH_START.,$);
#142=IFCRELSEQUENCE('fTblTN$v_fAHx5GVMLWPJZ',#6,$,$,#44,#46,$,.FINISH_START.,$);
#143=IFCRELSEQUENCE('oL5VW$v9ddKbNvgHkVVR75',#6,$,$,#46,#48,$,.FINISH_START.,$);
#144=IFCRELSEQUENCE('mvEF5nRF_t6jcnv1YdyZPv',#6,$,$,#52,#54,$,.FINISH_START.,$);
#145=IFCRELSEQUENCE('7LI5_rWtFni3BP2V3HNLcn',#6,$,$,#54,#56,$,.FINISH_START.,$);
#146=IFCRELSEQUENCE('E7gPFllPBfQX_dkVsb6P1J',#6,$,$,#56,#58,$,.FINISH_START.,$);
#147=IFCRELSEQUENCE('ZXJvd9T$wzUNBpv16J$J6b',#6,$,$,#62,#64,$,.FINISH_START.,$);
#148=IFCRELSEQUENCE('TXztIJZHlJarGBQ1UdazJV',#6,$,$,#64,#66,$,.FINISH_START.,$);
#149=IFCRELSEQUENCE('2nb1U5wvg7BFVx8$FNkxRV',#6,$,$,#66,#68,$,.FINISH_START.,$);
#150=IFCRELSEQUENCE('U3KburW9XP$TZtiH4LnLof',#6,$,$,#68,#70,$,.FINISH_START.,$);
#151=IFCRELSEQUENCE('4pwtgbr$ifQV6$ZFkVPj2V',#6,$,$,#70,#72,$,.FINISH_START.,$);
#152=IFCRELSEQUENCE('lbZf4ZO7OFaJsvsHeb2HXd',#6,$,$,#72,#74,$,.FINISH_START.,$);
#153=IFCRELSEQUENCE('whATaFS1_9QDWDhlXDQp4h',#6,$,$,#78,#80,$,.FINISH_START.,$);
#154=IFCRELSEQUENCE('nPwDBTGfe7JN7p3F0dazF1',#6,$,$,#80,#82,$,.FINISH_START.,$);
#155=IFCRELSEQUENCE('ypY$g1tfyF$TRr_XJN6JUF',#6,$,$,#82,#84,$,.FINISH_START.,$);
#156=IFCRELSEQUENCE('_H$r5nT1UpYfrJJldh07Vd',#6,$,$,#84,#86,$,.FINISH_START.,$);
#157=IFCRELSEQUENCE('vn$BBvcvq7872Dt$lhnLot',#6,$,$,#90,#92,$,.FINISH_START.,$);
#158=IFCRELSEQUENCE('zHnxgRRXfHbVAb8$prDP5l',#6,$,$,#92,#94,$,.FINISH_START.,$);
#159=IFCLAGTIME('Lag',.PREDICTED.,$,IFCDURATION('P3D'),.WORKTIME.);
#160=IFCRELSEQUENCE('5nPzkny18t159hAlu3nL2Z',#6,$,$,#94,#96,#159,.START_START.,$);
#161=IFCRELSEQUENCE('QVbH17_fMdlJ27wlNtEX0N',#6,$,$,#96,#98,$,.FINISH_START.,$);
#162=IFCRELSEQUENCE('o7MdtTV7yxX3XbKlW96PF5',#6,$,$,#98,#100,$,.FINISH_START.,$);
#163=IFCRELSEQUENCE('d$nDPxAPjBb$8n3FO5k5zr',#6,$,$,#100,#102,$,.FINISH_START.,$);
#164=IFCRELSEQUENCE('6lb$Y9z1ednpaJbF8zFLAz',#6,$,$,#102,#104,$,.FINISH_START.,$);
#165=IFCRELSEQUENCE('h3npjVoHp7RVwj1XiJ2HlH',#6,$,$,#104,#106,$,.FINISH_START.,$);
#166=IFCRELSEQUENCE('vlpvBvw7wHWHvJ7$JbNhIv',#6,$,$,#110,#112,$,.FINISH_START.,$);
#167=IFCRELSEQUENCE('ivKJ5nxFm387g9CHc7a3J1',#6,$,$,#112,#114,$,.FINISH_START.,$);
#168=IFCRELSEQUENCE('uDlRebcV3zQV6pjnVlNhAd',#6,$,$,#114,#116,$,.FINISH_START.,$);
#169=IFCRELSEQUENCE('whk5Q94lFnizjjt$SfobnX',#6,$,$,#116,#118,$,.FINISH_START.,$);
#170=IFCRELSEQUENCE('NzXzYtbF6nCZBJ5FkVFLER',#6,$,$,#118,#120,$,.FINISH_START.,$);
#171=IFCRELSEQUENCE('zDU$UtDVr3G1WjXVQZDPPv',#6,$,$,#120,#122,$,.FINISH_START.,$);
#172=IFCRELSEQUENCE('1Hd3wvEtJt7Dqr6$Kj_lBz',#6,$,$,#126,#128,$,.FINISH_START.,$);
#173=IFCRELSEQUENCE('uLg3YtT$U7OPmLglojQvzP',#6,$,$,#128,#130,$,.FINISH_START.,$);
#174=IFCRELSEQUENCE('AjpvNHevO7rFNPkVYvOVub',#6,$,$,#130,#132,$,.FINISH_START.,$);
#175=IFCLAGTIME('Lag',.PREDICTED.,$,IFCDURATION('P6D'),.WORKTIME.);
#176=IFCRELSEQUENCE('up1BDJZHNHbVErQ$gL0vRR',#6,$,$,#42,#52,#175,.START_START.,$);
#177=IFCLAGTIME('Lag',.PREDICTED.,$,IFCRATIOMEASURE(0.4),.WORKTIME.);
#178=IFCRELSEQUENCE('_nrnjTXv0rVRxnDFPlrF5F',#6,$,$,#52,#62,#177,.START_START.,$);
#179=IFCLAGTIME('Lag',.PREDICTED.,$,IFCDURATION('-P13D'),.WORKTIME.);
#180=IFCRELSEQUENCE('xhsZmvUfu$6jsdkVAbI$6V',#6,$,$,#72,#78,#179,.FINISH_START.,$);
#181=IFCLAGTIME('Lag',.PREDICTED.,$,IFCDURATION('P2D'),.WORKTIME.);
#182=IFCRELSEQUENCE('xlrFhfWtNRBF$BA$9vazhD',#6,$,$,#72,#84,#181,.FINISH_FINISH.,$);
#183=IFCRELSEQUENCE('a3KRGPA1a1XRFJ5F2NUL2Z',#6,$,$,#84,#90,$,.FINISH_START.,$);
#184=IFCLAGTIME('Lag',.PREDICTED.,$,IFCDURATION('P39D'),.WORKTIME.);
#185=IFCRELSEQUENCE('KRrVC7VPPjMzHz$VWtk1gf',#6,$,$,#90,#110,#184,.START_START.,$);
#186=IFCRELSEQUENCE('UzSL1dYFMddrmh6lNfcpGn',#6,$,$,#122,#126,$,.FINISH_START.,$);
#187=IFCSUBCONTRACTRESOURCE('n7svVjA1e7RVY37$vxQDub',#6,'Civils and landscaping contractor','Site set-up, tree work, the underground pipework and the external areas at handover',$,$,$,$,.USERDEFINED.);
#188=IFCSUBCONTRACTRESOURCE('VXRl$dg1gvz7U3d$tdOV47',#6,'Piling contractor',$,$,$,$,$,.USERDEFINED.);
#189=IFCLABORRESOURCE('I9q5QjIl$NrFHTZF69wP1p',#6,'Structural works crew','Concrete gangs for foundations and superstructure; the two phases overlap',$,$,$,$,.USERDEFINED.);
#190=IFCLABORRESOURCE('lNWfaDEtrTCZ55e183FLQH',#6,'Bricklayers','Facade masonry and the sand-lime brick internal walls, one gang moving through the building',$,$,$,$,.USERDEFINED.);
#191=IFCCONSTRUCTIONEQUIPMENTRESOURCE('VZuXmfW9th3fP3BFNpLVaN',#6,'Mobile crane','One mobile crane for the floors, the masonry supply and the roof structure',$,$,$,$,.USERDEFINED.);
#192=IFCCONSTRUCTIONMATERIALRESOURCE('kxV3IlmNa$fZlNaHHrJvVP',#6,'Concrete C30/37',$,$,$,$,$,.USERDEFINED.);
#193=IFCSUBCONTRACTRESOURCE('DB7TGtiXbLb$iXlVD7WP1J',#6,'Facade contractor','Facade insulation and finish, window frames and sun screens',$,$,$,$,.USERDEFINED.);
#194=IFCSUBCONTRACTRESOURCE('p7oFrv2NQXcVA5qlwJ$J_z',#6,'Roofing contractor',$,$,$,$,$,.USERDEFINED.);
#195=IFCLABORRESOURCE('2HvZirnd79_bhNaFfNERV7',#6,'Electricians','Distribution, emergency power, nurse call and the data cabling',$,$,$,$,.USERDEFINED.);
#196=IFCLABORRESOURCE('Hb39676vUpcVMfO$OjfLw1',#6,'Mechanical fitters',$,$,$,$,$,.USERDEFINED.);
#197=IFCSUBCONTRACTRESOURCE('tN_BdtRFsrZtzxqF4rLlPL',#6,'Medical gas contractor','Certified installer for oxygen and medical gases — a care-specific package',$,$,$,$,.USERDEFINED.);
#198=IFCSUBCONTRACTRESOURCE('FdER4VcX1fR1i1RlI$Zt85',#6,'Lift contractor',$,$,$,$,$,.USERDEFINED.);
#199=IFCLABORRESOURCE('kNe$sH$7oRp9dHbFW9EXWv',#6,'Fit-out crew','Partitions, ceilings, screeds, pantries and finally the room furnishing',$,$,$,$,.USERDEFINED.);
#200=IFCLABORRESOURCE('9NQJJTNfipufXnxHObcvRR',#6,'Tilers',$,$,$,$,$,.USERDEFINED.);
#201=IFCLABORRESOURCE('wlR1E$_fonFD4zd$L3Vb1t',#6,'Painters',$,$,$,$,$,.USERDEFINED.);
#202=IFCLABORRESOURCE('whgz2ru7khzfLZznKJ_H9j',#6,'Commissioning engineer','Balances and tests the services with the care provider before handover',$,$,$,$,.USERDEFINED.);
#203=IFCPROPERTYSINGLEVALUE('MaxUnits',$,IFCREAL(5),$);
#204=IFCPROPERTYSINGLEVALUE('CostPerHour',$,IFCMONETARYMEASURE(56),$);
#205=IFCPROPERTYSET('ZZ8nrPwXlJiR$hUnNppdDj',#6,'OPS_Resource',$,(#203,#204));
#206=IFCRELDEFINESBYPROPERTIES('AfM3QJwVF3_t7X$Xe5MTb$',#6,$,$,(#187),#205);
#207=IFCPROPERTYSINGLEVALUE('MaxUnits',$,IFCREAL(4),$);
#208=IFCPROPERTYSINGLEVALUE('CostPerHour',$,IFCMONETARYMEASURE(78),$);
#209=IFCPROPERTYSET('DBtDT9bFwZYx9rIX6fYLEb',#6,'OPS_Resource',$,(#207,#208));
#210=IFCRELDEFINESBYPROPERTIES('c1XzYRM1ERx$ixe1ftI1w1',#6,$,$,(#188),#209);
#211=IFCPROPERTYSINGLEVALUE('MaxUnits',$,IFCREAL(12),$);
#212=IFCPROPERTYSINGLEVALUE('CostPerHour',$,IFCMONETARYMEASURE(46),$);
#213=IFCPROPERTYSET('_JgzQ9inYJcp0Z71MH5Xax',#6,'OPS_Resource',$,(#211,#212));
#214=IFCRELDEFINESBYPROPERTIES('NvyrDD9NOdvLMN0XVHXD0t',#6,$,$,(#189),#213);
#215=IFCPROPERTYSINGLEVALUE('MaxUnits',$,IFCREAL(6),$);
#216=IFCPROPERTYSINGLEVALUE('CostPerHour',$,IFCMONETARYMEASURE(46),$);
#217=IFCPROPERTYSET('zJsTGds10rvpufynrfwJEf',#6,'OPS_Resource',$,(#215,#216));
#218=IFCRELDEFINESBYPROPERTIES('MP8XmPcVDbjNPzbneDLVup',#6,$,$,(#190),#217);
#219=IFCPROPERTYSINGLEVALUE('CostPerHour',$,IFCMONETARYMEASURE(95),$);
#220=IFCPROPERTYSET('Bjb1QDMPbBVbPn$XQd8FPv',#6,'OPS_Resource',$,(#219));
#221=IFCRELDEFINESBYPROPERTIES('aV5FHxP9NbZd4Ne$FRfhER',#6,$,$,(#191),#220);
#222=IFCPROPERTYSINGLEVALUE('MaxUnits',$,IFCREAL(999),$);
#223=IFCPROPERTYSINGLEVALUE('UnitOfMeasure',$,IFCLABEL('m³'),$);
#224=IFCPROPERTYSET('cx4ZiBldfb5$CL_nVpgZ9n',#6,'OPS_Resource',$,(#222,#223));
#225=IFCRELDEFINESBYPROPERTIES('DPsZ4$c7mJwjUte1axztaf',#6,$,$,(#192),#224);
#226=IFCPROPERTYSINGLEVALUE('MaxUnits',$,IFCREAL(6),$);
#227=IFCPROPERTYSINGLEVALUE('CostPerHour',$,IFCMONETARYMEASURE(68),$);
#228=IFCPROPERTYSET('7BU$Ez5FiJyp8981I1b$_z',#6,'OPS_Resource',$,(#226,#227));
#229=IFCRELDEFINESBYPROPERTIES('k9KJ3Be7WbTdGB_X9P81cH',#6,$,$,(#193),#228);
#230=IFCPROPERTYSINGLEVALUE('MaxUnits',$,IFCREAL(4),$);
#231=IFCPROPERTYSINGLEVALUE('CostPerHour',$,IFCMONETARYMEASURE(66),$);
#232=IFCPROPERTYSET('XZ8F$ZW9dJwjQzxFUhXb7b',#6,'OPS_Resource',$,(#230,#231));
#233=IFCRELDEFINESBYPROPERTIES('8hk5E3318V6$49qHQTrFZ5',#6,$,$,(#194),#232);
#234=IFCPROPERTYSINGLEVALUE('MaxUnits',$,IFCREAL(4),$);
#235=IFCPROPERTYSINGLEVALUE('CostPerHour',$,IFCMONETARYMEASURE(49),$);
#236=IFCPROPERTYSET('IbBX0HHdr9Y5$$VVyBLHlF',#6,'OPS_Resource',$,(#234,#235));
#237=IFCRELDEFINESBYPROPERTIES('vn9pj$sPV75$4ZxlWtA94d',#6,$,$,(#195),#236);
#238=IFCPROPERTYSINGLEVALUE('MaxUnits',$,IFCREAL(6),$);
#239=IFCPROPERTYSINGLEVALUE('CostPerHour',$,IFCMONETARYMEASURE(48),$);
#240=IFCPROPERTYSET('R54ZORkHxFdBOdYVfJPxxH',#6,'OPS_Resource',$,(#238,#239));
#241=IFCRELDEFINESBYPROPERTIES('q9gPTtpX5xHJoBUVpLnhQF',#6,$,$,(#196),#240);
#242=IFCPROPERTYSINGLEVALUE('MaxUnits',$,IFCREAL(3),$);
#243=IFCPROPERTYSINGLEVALUE('CostPerHour',$,IFCMONETARYMEASURE(88),$);
#244=IFCPROPERTYSET('ZXBVO3JXVvz7wJd$7$VpKj',#6,'OPS_Resource',$,(#242,#243));
#245=IFCRELDEFINESBYPROPERTIES('yDonzB8vgP7hkxe1TXVRzd',#6,$,$,(#197),#244);
#246=IFCPROPERTYSINGLEVALUE('MaxUnits',$,IFCREAL(3),$);
#247=IFCPROPERTYSINGLEVALUE('CostPerHour',$,IFCMONETARYMEASURE(82),$);
#248=IFCPROPERTYSET('T34Z8Jzlf5$TvDDn1TSr4L',#6,'OPS_Resource',$,(#246,#247));
#249=IFCRELDEFINESBYPROPERTIES('s9kHTfdtv3G1qLoFEDULgD',#6,$,$,(#198),#248);
#250=IFCPROPERTYSINGLEVALUE('MaxUnits',$,IFCREAL(6),$);
#251=IFCPROPERTYSINGLEVALUE('CostPerHour',$,IFCMONETARYMEASURE(44),$);
#252=IFCPROPERTYSET('_ps7FrP9tBdj2pXVW9oXSR',#6,'OPS_Resource',$,(#250,#251));
#253=IFCRELDEFINESBYPROPERTIES('NP8n9Xs$K9oBO1nV5l5VyB',#6,$,$,(#199),#252);
#254=IFCPROPERTYSINGLEVALUE('MaxUnits',$,IFCREAL(4),$);
#255=IFCPROPERTYSINGLEVALUE('CostPerHour',$,IFCMONETARYMEASURE(43),$);
#256=IFCPROPERTYSET('TXjvvdZlLp29fdYV3DkxHr',#6,'OPS_Resource',$,(#254,#255));
#257=IFCRELDEFINESBYPROPERTIES('4D696vMPX51TtrEXq3mtiJ',#6,$,$,(#200),#256);
#258=IFCPROPERTYSINGLEVALUE('MaxUnits',$,IFCREAL(5),$);
#259=IFCPROPERTYSINGLEVALUE('CostPerHour',$,IFCMONETARYMEASURE(38),$);
#260=IFCPROPERTYSET('ovMPNpd9TJKzR1HXXpQD8R',#6,'OPS_Resource',$,(#258,#259));
#261=IFCRELDEFINESBYPROPERTIES('BJBnJ3Blv30nBvMHsRs909',#6,$,$,(#201),#260);
#262=IFCPROPERTYSINGLEVALUE('MaxUnits',$,IFCREAL(2),$);
#263=IFCPROPERTYSINGLEVALUE('CostPerHour',$,IFCMONETARYMEASURE(85),$);
#264=IFCPROPERTYSET('QVDdHVh1Qjar8nznq3OVmX',#6,'OPS_Resource',$,(#262,#263));
#265=IFCRELDEFINESBYPROPERTIES('1DQN4zKFgxPBult1ex6j2z',#6,$,$,(#202),#264);
#266=IFCRELASSIGNSTOPROCESS('MZrVKNd9zzMFb171Y7eVSf',#6,$,$,(#187),$,#42,$);
#267=IFCRELASSIGNSTOPROCESS('I5vrdNnP9VR1mxiFYrR$sv',#6,$,$,(#187),$,#46,$);
#268=IFCRELASSIGNSTOPROCESS('LduVW$VdjL1xJXHXZXnLkL',#6,$,$,(#188),$,#52,$);
#269=IFCRELASSIGNSTOPROCESS('YXDP5LZ$UdSJs7_FD707HF',#6,$,$,(#189,#192),$,#54,$);
#270=IFCRELASSIGNSTOPROCESS('uBMdvhCX3ZMzLfCl_Rd5L9',#6,$,$,(#187),$,#56,$);
#271=IFCRELASSIGNSTOPROCESS('Q1VzIpl70LpPiRynjxTfoR',#6,$,$,(#189,#192),$,#58,$);
#272=IFCRELASSIGNSTOPROCESS('WVRlTNHPh7mV_jbnCTCD4d',#6,$,$,(#189,#191,#192),$,#62,$);
#273=IFCRELASSIGNSTOPROCESS('znBFT52Nk$NTthknSNERxL',#6,$,$,(#189,#191,#192),$,#64,$);
#274=IFCRELASSIGNSTOPROCESS('hTxFtVklHXkPCh_nn5RFRV',#6,$,$,(#189,#191,#192),$,#66,$);
#275=IFCRELASSIGNSTOPROCESS('qBF5srV78XEvoVbn4LdJId',#6,$,$,(#190,#191),$,#68,$);
#276=IFCRELASSIGNSTOPROCESS('Q1HJB7Q7mZK3rvcHR$1JER',#6,$,$,(#190),$,#70,$);
#277=IFCRELASSIGNSTOPROCESS('Y3SLP5YfuNjvUTZF_tYFxF',#6,$,$,(#189,#191),$,#72,$);
#278=IFCRELASSIGNSTOPROCESS('nrHRGtqVpbTPCnnVb1NLkv',#6,$,$,(#193),$,#78,$);
#279=IFCRELASSIGNSTOPROCESS('fz9xoVcXJrLlRhUFFtUnJZ',#6,$,$,(#193),$,#80,$);
#280=IFCRELASSIGNSTOPROCESS('0lXL7hS$_T4LoVxFs1H3Ph',#6,$,$,(#194),$,#82,$);
#281=IFCRELASSIGNSTOPROCESS('odUh1vMdljqTXlt1axbnV3',#6,$,$,(#194),$,#84,$);
#282=IFCRELASSIGNSTOPROCESS('hPGPZ9pVLJQDOdg$1Vlre3',#6,$,$,(#195),$,#90,$);
#283=IFCRELASSIGNSTOPROCESS('VziJnB9NABBFZrYX$1xV4d',#6,$,$,(#195),$,#92,$);
#284=IFCRELASSIGNSTOPROCESS('BjpvT5QvyHbVw1bls5QpOL',#6,$,$,(#197),$,#94,$);
#285=IFCRELASSIGNSTOPROCESS('AJD7zLS$wZormrA1TXtzpF',#6,$,$,(#196),$,#96,$);
#286=IFCRELASSIGNSTOPROCESS('AN6DDnCX$fb$e7onEnhX0f',#6,$,$,(#196),$,#98,$);
#287=IFCRELASSIGNSTOPROCESS('2JIxQfGN29Y5nd_XlhPJ_1',#6,$,$,(#196),$,#100,$);
#288=IFCRELASSIGNSTOPROCESS('dVxFlxfNUPCxrpHXVDk5TR',#6,$,$,(#198),$,#102,$);
#289=IFCRELASSIGNSTOPROCESS('yJQJH5d9BfgnL9GXSb7RX7',#6,$,$,(#195),$,#104,$);
#290=IFCRELASSIGNSTOPROCESS('AJjPZN1vobBnTLEFgrKJwV',#6,$,$,(#195),$,#106,$);
#291=IFCRELASSIGNSTOPROCESS('phZNitJXZDuNtr2XzH7RtD',#6,$,$,(#199),$,#110,$);
#292=IFCRELASSIGNSTOPROCESS('NP096Pg1I$NTRrQ$6JvbPh',#6,$,$,(#199),$,#112,$);
#293=IFCRELASSIGNSTOPROCESS('lfmvHbRXXR5$iXlV5rKJAz',#6,$,$,(#200),$,#114,$);
#294=IFCRELASSIGNSTOPROCESS('stU$oZ1vQ1wJoBkVwjtra9',#6,$,$,(#199),$,#116,$);
#295=IFCRELASSIGNSTOPROCESS('7rMPfD7tHDuN5bynF9A98x',#6,$,$,(#201),$,#118,$);
#296=IFCRELASSIGNSTOPROCESS('ItCx634lhdarajzHwfkxjT',#6,$,$,(#199),$,#120,$);
#297=IFCRELASSIGNSTOPROCESS('T1npFlndPdq5J$jnjbHzj1',#6,$,$,(#196),$,#122,$);
#298=IFCRELASSIGNSTOPROCESS('3HF5cjM$Qp876$zFCzmN2$',#6,$,$,(#187),$,#126,$);
#299=IFCRELASSIGNSTOPROCESS('d$Fpr3qVjBb1OVbFeDTfIP',#6,$,$,(#199),$,#128,$);
#300=IFCRELASSIGNSTOPROCESS('wnPzUbcVthj7or2Vh3fZ5n',#6,$,$,(#202,#195,#196),$,#130,$);
#301=IFCPROPERTYSINGLEVALUE('n7svVjA1e7RVY37$vxQDub#0',$,IFCTEXT('4|UNIFORM'),$);
#302=IFCPROPERTYSET('VX3tQDo9dPCxXllXlrTtKp',#6,'OPS_Assignments',$,(#301));
#303=IFCRELDEFINESBYPROPERTIES('wLMzwvQ7mjoBaJDlPnfZL9',#6,$,$,(#42),#302);
#304=IFCPROPERTYSINGLEVALUE('n7svVjA1e7RVY37$vxQDub#0',$,IFCTEXT('3|UNIFORM'),$);
#305=IFCPROPERTYSET('R$NbOTNfqvOPGRe1zFj7Hl',#6,'OPS_Assignments',$,(#304));
#306=IFCRELDEFINESBYPROPERTIES('_pkHr3CXNxX3v$jnb1nZb$',#6,$,$,(#46),#305);
#307=IFCPROPERTYSINGLEVALUE('VXRl$dg1gvz7U3d$tdOV47#0',$,IFCTEXT('4|UNIFORM'),$);
#308=IFCPROPERTYSET('CBfJ7P3H1fpPG5CnSxLX4r',#6,'OPS_Assignments',$,(#307));
#309=IFCRELDEFINESBYPROPERTIES('R1V3M1H7CdCx55u13JgfE5',#6,$,$,(#52),#308);
#310=IFCPROPERTYSINGLEVALUE('I9q5QjIl$NrFHTZF69wP1p#0',$,IFCTEXT('5|UNIFORM'),$);
#311=IFCPROPERTYSINGLEVALUE('kxV3IlmNa$fZlNaHHrJvVP#1',$,IFCTEXT('35|UNIFORM'),$);
#312=IFCPROPERTYSET('d54TGty1OP1TXl1V0PqbtJ',#6,'OPS_Assignments',$,(#310,#311));
#313=IFCRELDEFINESBYPROPERTIES('Ed2rxnDXDvRXor_XvVbFJZ',#6,$,$,(#54),#312);
#314=IFCPROPERTYSINGLEVALUE('n7svVjA1e7RVY37$vxQDub#0',$,IFCTEXT('4|UNIFORM'),$);
#315=IFCPROPERTYSET('lx1TqPr$CZkLklVVUdKjYJ',#6,'OPS_Assignments',$,(#314));
#316=IFCRELDEFINESBYPROPERTIES('ujrFVjA$SXDPWJ1XW9s9SR',#6,$,$,(#56),#315);
#317=IFCPROPERTYSINGLEVALUE('I9q5QjIl$NrFHTZF69wP1p#0',$,IFCTEXT('5|UNIFORM'),$);
#318=IFCPROPERTYSINGLEVALUE('kxV3IlmNa$fZlNaHHrJvVP#1',$,IFCTEXT('55|FRONT_LOADED'),$);
#319=IFCPROPERTYSET('TT0tIFKV$BzfxbyHpBhHVd',#6,'OPS_Assignments',$,(#317,#318));
#320=IFCRELDEFINESBYPROPERTIES('stMdfDlvWRz7_vEF2N_BOT',#6,$,$,(#58),#319);
#321=IFCPROPERTYSINGLEVALUE('I9q5QjIl$NrFHTZF69wP1p#0',$,IFCTEXT('7|UNIFORM'),$);
#322=IFCPROPERTYSINGLEVALUE('VZuXmfW9th3fP3BFNpLVaN#1',$,IFCTEXT('1|UNIFORM'),$);
#323=IFCPROPERTYSINGLEVALUE('kxV3IlmNa$fZlNaHHrJvVP#2',$,IFCTEXT('40|UNIFORM'),$);
#324=IFCPROPERTYSET('Nvah3dzH1f3fXFxHuz93F1',#6,'OPS_Assignments',$,(#321,#322,#323));
#325=IFCRELDEFINESBYPROPERTIES('mPcJ1TOdhdq5Fvgl6fI5N1',#6,$,$,(#62),#324);
#326=IFCPROPERTYSINGLEVALUE('I9q5QjIl$NrFHTZF69wP1p#0',$,IFCTEXT('7|UNIFORM'),$);
#327=IFCPROPERTYSINGLEVALUE('VZuXmfW9th3fP3BFNpLVaN#1',$,IFCTEXT('1|UNIFORM'),$);
#328=IFCPROPERTYSINGLEVALUE('kxV3IlmNa$fZlNaHHrJvVP#2',$,IFCTEXT('45|UNIFORM'),$);
#329=IFCPROPERTYSET('6LM3EXg$wzAH3d61S9gfwb',#6,'OPS_Assignments',$,(#326,#327,#328));
#330=IFCRELDEFINESBYPROPERTIES('JN09wdQXXdVz7$5lKDoRfT',#6,$,$,(#64),#329);
#331=IFCPROPERTYSINGLEVALUE('I9q5QjIl$NrFHTZF69wP1p#0',$,IFCTEXT('7|UNIFORM'),$);
#332=IFCPROPERTYSINGLEVALUE('VZuXmfW9th3fP3BFNpLVaN#1',$,IFCTEXT('1|UNIFORM'),$);
#333=IFCPROPERTYSINGLEVALUE('kxV3IlmNa$fZlNaHHrJvVP#2',$,IFCTEXT('45|UNIFORM'),$);
#334=IFCPROPERTYSET('UXpdj$MPF3UfPTVVWtEVSR',#6,'OPS_Assignments',$,(#331,#332,#333));
#335=IFCRELDEFINESBYPROPERTIES('5hwDbx$dNlZdqH5Fw9k$_X',#6,$,$,(#66),#334);
#336=IFCPROPERTYSINGLEVALUE('lNWfaDEtrTCZ55e183FLQH#0',$,IFCTEXT('6|UNIFORM'),$);
#337=IFCPROPERTYSINGLEVALUE('VZuXmfW9th3fP3BFNpLVaN#1',$,IFCTEXT('1|UNIFORM'),$);
#338=IFCPROPERTYSET('zFrnfn4$q3_t3xSHRR6dHL',#6,'OPS_Assignments',$,(#336,#337));
#339=IFCRELDEFINESBYPROPERTIES('Sz4ZeR_F8$Yx9LMl_9EX4r',#6,$,$,(#68),#338);
#340=IFCPROPERTYSINGLEVALUE('lNWfaDEtrTCZ55e183FLQH#0',$,IFCTEXT('6|UNIFORM'),$);
#341=IFCPROPERTYSET('TTm7VDItHX_9Xxe$13mt85',#6,'OPS_Assignments',$,(#340));
#342=IFCRELDEFINESBYPROPERTIES('stw96PklV7BFbVjH9TZtKD',#6,$,$,(#70),#341);
#343=IFCPROPERTYSINGLEVALUE('I9q5QjIl$NrFHTZF69wP1p#0',$,IFCTEXT('6|UNIFORM'),$);
#344=IFCPROPERTYSINGLEVALUE('VZuXmfW9th3fP3BFNpLVaN#1',$,IFCTEXT('1|UNIFORM'),$);
#345=IFCPROPERTYSET('hPe1cNe7W5FpmrA1R5obn$',#6,'OPS_Assignments',$,(#343,#344));
#346=IFCRELDEFINESBYPROPERTIES('k5Hj$TePf5f5nd6$S9AtmX',#6,$,$,(#72),#345);
#347=IFCPROPERTYSINGLEVALUE('DB7TGtiXbLb$iXlVD7WP1J#0',$,IFCTEXT('6|UNIFORM'),$);
#348=IFCPROPERTYSET('6HjP3vnvkVxVwjf1_R$j65',#6,'OPS_Assignments',$,(#347));
#349=IFCRELDEFINESBYPROPERTIES('V3a3o$sdDbbVMfGXA$9BG1',#6,$,$,(#78),#348);
#350=IFCPROPERTYSINGLEVALUE('DB7TGtiXbLb$iXlVD7WP1J#0',$,IFCTEXT('4|UNIFORM'),$);
#351=IFCPROPERTYSET('W1HJHx79T1ErChEnUPCpu5',#6,'OPS_Assignments',$,(#350));
#352=IFCRELDEFINESBYPROPERTIES('7B_VGNmf_z87gf81v5I5$J',#6,$,$,(#80),#351);
#353=IFCPROPERTYSINGLEVALUE('p7oFrv2NQXcVA5qlwJ$J_z#0',$,IFCTEXT('4|UNIFORM'),$);
#354=IFCPROPERTYSET('tfYhd5gPxxN5h3nX9zFLMD',#6,'OPS_Assignments',$,(#353));
#355=IFCRELDEFINESBYPROPERTIES('m9KjTb2F4xlj2DlVnRNLgJ',#6,$,$,(#82),#354);
#356=IFCPROPERTYSINGLEVALUE('p7oFrv2NQXcVA5qlwJ$J_z#0',$,IFCTEXT('3|UNIFORM'),$);
#357=IFCPROPERTYSET('NZpd5rFdRBFhw1jFfpr16V',#6,'OPS_Assignments',$,(#356));
#358=IFCRELDEFINESBYPROPERTIES('_HlbSnalPvufBJJHr9EXeL',#6,$,$,(#84),#357);
#359=IFCPROPERTYSINGLEVALUE('2HvZirnd79_bhNaFfNERV7#0',$,IFCTEXT('4|UNIFORM'),$);
#360=IFCPROPERTYSET('CrlbOTtNUdCx$XzHgF1x$J',#6,'OPS_Assignments',$,(#359));
#361=IFCRELDEFINESBYPROPERTIES('b$7rjzjXb1FLoVzHcZrnlh',#6,$,$,(#90),#360);
#362=IFCPROPERTYSINGLEVALUE('2HvZirnd79_bhNaFfNERV7#0',$,IFCTEXT('3|UNIFORM'),$);
#363=IFCPROPERTYSET('MduVK9LHHJKRdlzHYPi5Vz',#6,'OPS_Assignments',$,(#362));
#364=IFCRELDEFINESBYPROPERTIES('HRbHPRA$yRx$0zBF5lrFxl',#6,$,$,(#92),#363);
#365=IFCPROPERTYSINGLEVALUE('tN_BdtRFsrZtzxqF4rLlPL#0',$,IFCTEXT('3|UNIFORM'),$);
#366=IFCPROPERTYSET('2lvTC5HvGj_RnJLFb5YhkP',#6,'OPS_Assignments',$,(#365));
#367=IFCRELDEFINESBYPROPERTIES('bRelFlX78V2txnDnZXNZ79',#6,$,$,(#94),#366);
#368=IFCPROPERTYSINGLEVALUE('Hb39676vUpcVMfO$OjfLw1#0',$,IFCTEXT('6|UNIFORM'),$);
#369=IFCPROPERTYSET('1H7T4XolNn1ZHf4lh74T1j',#6,'OPS_Assignments',$,(#368));
#370=IFCRELDEFINESBYPROPERTIES('cbel9ZffSXxXcTf13pI5Hr',#6,$,$,(#96),#369);
#371=IFCPROPERTYSINGLEVALUE('Hb39676vUpcVMfO$OjfLw1#0',$,IFCTEXT('6|UNIFORM'),$);
#372=IFCPROPERTYSET('JbL1gXbVv9sZ55WXPHTtKX',#6,'OPS_Assignments',$,(#371));
#373=IFCRELDEFINESBYPROPERTIES('6ntDXNGN6TkLMLkFCnHrCl',#6,$,$,(#98),#372);
#374=IFCPROPERTYSINGLEVALUE('Hb39676vUpcVMfO$OjfLw1#0',$,IFCTEXT('4|UNIFORM'),$);
#375=IFCPROPERTYSET('BNwDdRQXdD29xFLHhZDdBP',#6,'OPS_Assignments',$,(#374));
#376=IFCRELDEFINESBYPROPERTIES('ErlRmfO7qdSJ_JpHDv81Az',#6,$,$,(#100),#375);
#377=IFCPROPERTYSINGLEVALUE('FdER4VcX1fR1i1RlI$Zt85#0',$,IFCTEXT('3|UNIFORM'),$);
#378=IFCPROPERTYSET('UTm7R1Xd3TILQZHXdlrnVT',#6,'OPS_Assignments',$,(#377));
#379=IFCRELDEFINESBYPROPERTIES('9NsTKNXvqZori$hH71$Jsd',#6,$,$,(#102),#378);
#380=IFCPROPERTYSINGLEVALUE('2HvZirnd79_bhNaFfNERV7#0',$,IFCTEXT('3|UNIFORM'),$);
#381=IFCPROPERTYSET('pPcJFrHPhPSriVt$4PmtO3',#6,'OPS_Assignments',$,(#380));
#382=IFCRELDEFINESBYPROPERTIES('qrVhPR2n0B7paDf19Tb1cL',#6,$,$,(#104),#381);
#383=IFCPROPERTYSINGLEVALUE('2HvZirnd79_bhNaFfNERV7#0',$,IFCTEXT('4|UNIFORM'),$);
#384=IFCPROPERTYSET('1HP3MVTlX5XzpTN$prpdrd',#6,'OPS_Assignments',$,(#383));
#385=IFCRELDEFINESBYPROPERTIES('cb8FHxd9jhdJk50Vb$FZnx',#6,$,$,(#106),#384);
#386=IFCPROPERTYSINGLEVALUE('kNe$sH$7oRp9dHbFW9EXWv#0',$,IFCTEXT('6|UNIFORM'),$);
#387=IFCPROPERTYSET('4FVhV9inQVsHfbe1ClhHjX',#6,'OPS_Assignments',$,(#386));
#388=IFCRELDEFINESBYPROPERTIES('TTO$w7EtJfBnz5SHXjwdbV',#6,$,$,(#110),#387);
#389=IFCPROPERTYSINGLEVALUE('kNe$sH$7oRp9dHbFW9EXWv#0',$,IFCTEXT('6|UNIFORM'),$);
#390=IFCPROPERTYSET('or9pVNGNWxdrix0V5HT9KD',#6,'OPS_Assignments',$,(#389));
#391=IFCRELDEFINESBYPROPERTIES('P$$ZmfWtzzIPyN8$olNhYF',#6,$,$,(#112),#390);
#392=IFCPROPERTYSINGLEVALUE('9NQJJTNfipufXnxHObcvRR#0',$,IFCTEXT('4|UNIFORM'),$);
#393=IFCPROPERTYSET('upFxcf8d3HWHLThHLZjvRx',#6,'OPS_Assignments',$,(#392));
#394=IFCRELDEFINESBYPROPERTIES('X$dhfjDnkBPj276l3l$jkr',#6,$,$,(#114),#393);
#395=IFCPROPERTYSINGLEVALUE('kNe$sH$7oRp9dHbFW9EXWv#0',$,IFCTEXT('5|UNIFORM'),$);
#396=IFCPROPERTYSET('JxnpnFJXN5VzdHLFLZzfg9',#6,'OPS_Assignments',$,(#395));
#397=IFCRELDEFINESBYPROPERTIES('wH5XOTNfOdXz3be18LOVGH',#6,$,$,(#116),#396);
#398=IFCPROPERTYSINGLEVALUE('wlR1E$_fonFD4zd$L3Vb1t#0',$,IFCTEXT('5|UNIFORM'),$);
#399=IFCPROPERTYSET('mvU1ozpXdPqZz72FD7Oln$',#6,'OPS_Assignments',$,(#398));
#400=IFCRELDEFINESBYPROPERTIES('9pfJPf791BxVUNKFEHd59n',#6,$,$,(#118),#399);
#401=IFCPROPERTYSINGLEVALUE('kNe$sH$7oRp9dHbFW9EXWv#0',$,IFCTEXT('3|UNIFORM'),$);
#402=IFCPROPERTYSET('9jhH5LLHddqxPZVXClTtql',#6,'OPS_Assignments',$,(#401));
#403=IFCRELDEFINESBYPROPERTIES('U1$TyzSHLJwJAxSn9dWdzr',#6,$,$,(#120),#402);
#404=IFCPROPERTYSINGLEVALUE('Hb39676vUpcVMfO$OjfLw1#0',$,IFCTEXT('3|UNIFORM'),$);
#405=IFCPROPERTYSET('Q5aLPRg$ElTdm5ylFfk579',#6,'OPS_Assignments',$,(#404));
#406=IFCRELDEFINESBYPROPERTIES('p7QN0HVvuXAHLTDnjfA3f3',#6,$,$,(#122),#405);
#407=IFCPROPERTYSINGLEVALUE('n7svVjA1e7RVY37$vxQDub#0',$,IFCTEXT('5|UNIFORM'),$);
#408=IFCPROPERTYSET('wBkHfjDnwHGVwDDnvXbnhN',#6,'OPS_Assignments',$,(#407));
#409=IFCRELDEFINESBYPROPERTIES('jtyT8ptNGZ4DaD71AbcvHl',#6,$,$,(#126),#408);
#410=IFCPROPERTYSINGLEVALUE('kNe$sH$7oRp9dHbFW9EXWv#0',$,IFCTEXT('4|UNIFORM'),$);
#411=IFCPROPERTYSET('U3Shr3KFk1HBqnP1yrrF$D',#6,'OPS_Assignments',$,(#410));
#412=IFCRELDEFINESBYPROPERTIES('99cfiNtf6lmVwJN1cdu$_1',#6,$,$,(#128),#411);
#413=IFCPROPERTYSINGLEVALUE('whgz2ru7khzfLZznKJ_H9j#0',$,IFCTEXT('2|UNIFORM'),$);
#414=IFCPROPERTYSINGLEVALUE('2HvZirnd79_bhNaFfNERV7#1',$,IFCTEXT('2|UNIFORM'),$);
#415=IFCPROPERTYSINGLEVALUE('Hb39676vUpcVMfO$OjfLw1#2',$,IFCTEXT('2|UNIFORM'),$);
#416=IFCPROPERTYSET('zjMzIFKXhJUxz76lpvGN2Z',#6,'OPS_Assignments',$,(#413,#414,#415));
#417=IFCRELDEFINESBYPROPERTIES('M7Shdx2fcXYN$XLFNf6JE9',#6,$,$,(#130),#416);
#418=IFCRELASSIGNSTOCONTROL('rDVhNjbXHjyDCF$VkTSruD',#6,$,$,(#40,#42,#44,#46,#48,#50,#52,#54,#56,#58,#60,#62,#64,#66,#68,#70,#72,#74,#76,#78,#80,#82,#84,#86,#88,#90,#92,#94,#96,#98,#100,#102,#104,#106,#108,#110,#112,#114,#116,#118,#120,#122,#124,#126,#128,#130,#132),$,#37);
#419=IFCPROPERTYSINGLEVALUE('wbsAutoNumber',$,IFCBOOLEAN(.T.),$);
#420=IFCPROPERTYSINGLEVALUE('ProjectStartDate',$,IFCDATE('2027-03-01'),$);
#421=IFCPROPERTYSINGLEVALUE('ProjectEndDate',$,$,$);
#422=IFCPROPERTYSINGLEVALUE('CreatedAt',$,IFCTEXT('2026-08-14T08:19:54.681Z'),$);
#423=IFCPROPERTYSINGLEVALUE('ModifiedAt',$,IFCTEXT('2026-08-14T08:19:54.682Z'),$);
#424=IFCPROPERTYSET('e5a3ArlP$tNZvpDF1ZK5n5',#6,'OPS_ProjectSettings',$,(#419,#420,#421,#422,#423));
#425=IFCRELDEFINESBYPROPERTIES('0Hdzo1sPJhdjQlBF$1BF9l',#6,$,$,(#13),#424);
#426=IFCPROPERTYSINGLEVALUE('MilestoneKind',$,IFCLABEL('START'),$);
#427=IFCPROPERTYSET('9NERifV7O7Dt1hkFGXfTNV',#6,'OPS_Milestone',$,(#426));
#428=IFCRELDEFINESBYPROPERTIES('GfuVyVQXFn4hklnXPLWd1D',#6,$,$,(#48),#427);
#429=IFCPROPERTYSINGLEVALUE('MilestoneKind',$,IFCLABEL('FINISH'),$);
#430=IFCPROPERTYSET('2HNj3hiF63gnNPQ1A5ERZ9',#6,'OPS_Milestone',$,(#429));
#431=IFCRELDEFINESBYPROPERTIES('Rxa3cjcXr9cDK1rlNDDdr7',#6,$,$,(#74),#430);
#432=IFCPROPERTYSINGLEVALUE('MilestoneKind',$,IFCLABEL('FINISH'),$);
#433=IFCPROPERTYSET('gdG7RV3lBfo7kHt1WtI$Ex',#6,'OPS_Milestone',$,(#432));
#434=IFCRELDEFINESBYPROPERTIES('lxtxAhxF8VcX6DDnN9Qvll',#6,$,$,(#86),#433);
#435=IFCPROPERTYSINGLEVALUE('MilestoneKind',$,IFCLABEL('FINISH'),$);
#436=IFCPROPERTYSINGLEVALUE('Mandatory',$,IFCBOOLEAN(.T.),$);
#437=IFCPROPERTYSET('T3ibaD67g7x1uFTnEpERf3',#6,'OPS_Milestone',$,(#435,#436));
#438=IFCRELDEFINESBYPROPERTIES('s9MPPbg$U7OtpTVX0Pi5rd',#6,$,$,(#132),#437);
ENDSEC;
END-ISO-10303-21;
