ISO-10303-21;
HEADER;
FILE_DESCRIPTION(('ViewDefinition [SchedulingView]'),'2;1');
FILE_NAME('New-Build Villa, Wassenaar.ifc','2026-07-28T13:22:48',('Thomas van Leeuwen'),('Exclusive Living BV'),'Open Planner Studio 0.1','Open Planner Studio','');
FILE_SCHEMA(('IFC4X3'));
ENDSEC;
DATA;
#1=IFCPERSON($,'Thomas van Leeuwen',$,$,$,$,$,$);
#2=IFCORGANIZATION($,'Exclusive Living BV',$,$,$);
#3=IFCPERSONANDORGANIZATION(#1,#2,$);
#4=IFCORGANIZATION($,'OpenAEC Foundation',$,$,$);
#5=IFCAPPLICATION(#4,'0.1','Open Planner Studio','OPS');
#6=IFCOWNERHISTORY(#3,#5,$,.NOCHANGE.,$,$,$,1785244968);
#7=IFCSIUNIT(*,.LENGTHUNIT.,$,.METRE.);
#8=IFCSIUNIT(*,.TIMEUNIT.,$,.SECOND.);
#9=IFCUNITASSIGNMENT((#7,#8));
#10=IFCCARTESIANPOINT((0.,0.,0.));
#11=IFCAXIS2PLACEMENT3D(#10,$,$);
#12=IFCGEOMETRICREPRESENTATIONCONTEXT($,'Plan',3,1.0E-05,#11,$);
#13=IFCPROJECT('bROlrZOvq7WHzPUVLdG9Cl',#6,'New-Build Villa, Wassenaar','Detached luxury villa with swimming pool and guest house',$,$,$,(#12),#9);
#14=IFCTIMEPERIOD('07:00:00','16:00:00');
#15=IFCRECURRENCEPATTERN(.WEEKLY.,$,(1,2,3,4,5),$,$,$,$,(#14));
#16=IFCWORKTIME('Standaard werkweek',.PREDICTED.,$,#15,$,$);
#17=IFCWORKTIME('New Year''s Day',.PREDICTED.,$,$,'2027-01-01','2027-01-01');
#18=IFCWORKTIME('Good Friday',.PREDICTED.,$,$,'2027-03-26','2027-03-26');
#19=IFCWORKTIME('Easter',.PREDICTED.,$,$,'2027-03-28','2027-03-29');
#20=IFCWORKTIME('King''s Day',.PREDICTED.,$,$,'2027-04-27','2027-04-27');
#21=IFCWORKTIME('Liberation Day',.PREDICTED.,$,$,'2027-05-05','2027-05-05');
#22=IFCWORKTIME('Ascension Day',.PREDICTED.,$,$,'2027-05-06','2027-05-06');
#23=IFCWORKTIME('Whitsun',.PREDICTED.,$,$,'2027-05-16','2027-05-17');
#24=IFCWORKTIME('Christmas',.PREDICTED.,$,$,'2027-12-25','2027-12-26');
#25=IFCWORKTIME('Construction holiday (northern region)',.PREDICTED.,$,$,'2027-07-26','2027-08-15');
#26=IFCWORKTIME('New Year''s Day',.PREDICTED.,$,$,'2028-01-01','2028-01-01');
#27=IFCWORKTIME('Good Friday',.PREDICTED.,$,$,'2028-04-14','2028-04-14');
#28=IFCWORKTIME('Easter',.PREDICTED.,$,$,'2028-04-16','2028-04-17');
#29=IFCWORKTIME('King''s Day',.PREDICTED.,$,$,'2028-04-27','2028-04-27');
#30=IFCWORKTIME('Liberation Day',.PREDICTED.,$,$,'2028-05-05','2028-05-05');
#31=IFCWORKTIME('Ascension Day',.PREDICTED.,$,$,'2028-05-25','2028-05-25');
#32=IFCWORKTIME('Whitsun',.PREDICTED.,$,$,'2028-06-04','2028-06-05');
#33=IFCWORKTIME('Christmas',.PREDICTED.,$,$,'2028-12-25','2028-12-26');
#34=IFCWORKTIME('Construction holiday (northern region)',.PREDICTED.,$,$,'2028-07-24','2028-08-13');
#35=IFCWORKCALENDAR('_HlbW$VPl1Yxnv_nBDbFBd',#6,'Construction calendar NL','Standard construction calendar: Mon-Fri 07:00-16:00',$,(#16),(#17,#18,#19,#20,#21,#22,#23,#24,#25,#26,#27,#28,#29,#30,#31,#32,#33,#34),.FIRSTSHIFT.);
#36=IFCWORKPLAN('3jEb0l1vwFSrqnt$rpLXOT',#6,'New-Build Villa, Wassenaar','Detached luxury villa with swimming pool and guest house',$,$,'2026-07-28T13:22:48',$,$,$,$,$,'2027-03-01T07:00:00','2027-03-16T07:00:00',.PLANNED.);
#37=IFCWORKSCHEDULE('WVRHBzCnOPPB8NKF2RPx3h',#6,'Bouwplanning v1.0',$,$,$,'2026-07-28T13:22:48',$,$,$,$,$,'2027-03-01T07:00:00','2027-03-16T07:00:00',.PLANNED.);
#38=IFCRELAGGREGATES('X$Ph9TPtbVDd8te$ftI1sz',#6,$,$,#36,(#37));
#39=IFCTASKTIME('1. Preparation Time',.PREDICTED.,$,.WORKTIME.,'P0Y0M5D','2027-03-01T07:00:00','2027-03-05T07:00:00','2027-03-01T07:00:00','2027-03-08T07:00:00','2027-03-01T07:00:00','2027-12-01T07:00:00','P0Y0M0D','P0Y0M0D',.T.,$,$,$,$,$,0.0);
#40=IFCTASK('XXjvXjM1ExFp0zDHNfcDW7',#6,'1. Preparation',$,$,'1',$,$,$,.F.,$,#39,.CONSTRUCTION.);
#41=IFCTASKTIME('Set up site Time',.PREDICTED.,$,.WORKTIME.,'P0Y0M3D','2027-03-01T07:00:00','2027-03-03T07:00:00','2027-03-01T07:00:00','2027-03-03T07:00:00','2027-03-01T07:00:00','2027-03-03T07:00:00','P0Y0M0D','P0Y0M0D',.T.,$,$,$,$,$,0.0);
#42=IFCTASK('HfWfGvsdXvptDTXXStEVyL',#6,'Set up site',$,$,'1.1',$,$,$,.F.,$,#41,.LOGISTIC.);
#43=IFCTASKTIME('Protect trees Time',.PREDICTED.,$,.WORKTIME.,'P0Y0M2D','2027-03-01T07:00:00','2027-03-02T07:00:00','2027-03-04T07:00:00','2027-03-05T07:00:00','2027-11-29T07:00:00','2027-11-30T07:00:00','P0Y0M0D','P0Y0M171D',.F.,$,$,$,$,$,0.0);
#44=IFCTASK('zjgzc9alvfAHJ1zF0v07j1',#6,'Protect trees',$,$,'1.2',$,$,$,.F.,$,#43,.ATTENDANCE.);
#45=IFCTASKTIME('Start of construction Time',.PREDICTED.,$,.WORKTIME.,'P0Y0M0D','2027-03-01T07:00:00','2027-03-01T07:00:00','2027-03-08T07:00:00','2027-03-08T07:00:00','2027-12-01T07:00:00','2027-12-01T07:00:00','P0Y0M171D','P0Y0M171D',.F.,$,$,$,$,$,0.0);
#46=IFCTASK('1FhHBZu7oFf5F7IFCHT94P',#6,'Start of construction',$,$,'1.3',$,$,$,.T.,$,#45,.CONSTRUCTION.);
#47=IFCTASKTIME('2. Earthworks & foundations Time',.PREDICTED.,$,.WORKTIME.,'P0Y0M5D','2027-03-01T07:00:00','2027-03-05T07:00:00','2027-03-04T07:00:00','2027-04-22T07:00:00','2027-03-04T07:00:00','2027-12-01T07:00:00','P0Y0M0D','P0Y0M0D',.T.,$,$,$,$,$,0.0);
#48=IFCTASK('F7klZ9DX1BBnVRyH1$BF5n',#6,'2. Earthworks & foundations',$,$,'2',$,$,$,.F.,$,#47,.CONSTRUCTION.);
#49=IFCTASKTIME('Excavate swimming pool Time',.PREDICTED.,$,.WORKTIME.,'P0Y0M8D','2027-03-01T07:00:00','2027-03-10T07:00:00','2027-03-04T07:00:00','2027-03-15T07:00:00','2027-03-04T07:00:00','2027-03-15T07:00:00','P0Y0M0D','P0Y0M0D',.T.,$,$,$,$,$,0.0);
#50=IFCTASK('aTOHBZW9f59bnD7$cTj7bb',#6,'Excavate swimming pool',$,$,'2.1',$,$,$,.F.,$,#49,.CONSTRUCTION.);
#51=IFCTASKTIME('Excavate foundation trenches Time',.PREDICTED.,$,.WORKTIME.,'P0Y0M5D','2027-03-01T07:00:00','2027-03-05T07:00:00','2027-03-16T07:00:00','2027-03-22T07:00:00','2027-10-27T07:00:00','2027-11-02T07:00:00','P0Y0M0D','P0Y0M140D',.F.,$,$,$,$,$,0.0);
#52=IFCTASK('8p9pJVkHN5dByNWVpPaBGV',#6,'Excavate foundation trenches',$,$,'2.2',$,$,$,.F.,$,#51,.CONSTRUCTION.);
#53=IFCTASKTIME('Pour foundations Time',.PREDICTED.,$,.WORKTIME.,'P0Y0M8D','2027-03-01T07:00:00','2027-03-10T07:00:00','2027-03-23T07:00:00','2027-04-05T07:00:00','2027-11-03T07:00:00','2027-11-12T07:00:00','P0Y0M0D','P0Y0M140D',.F.,$,$,$,$,$,0.0);
#54=IFCTASK('U$fbSF4lnFSJ6pJFpBZ90t',#6,'Pour foundations',$,$,'2.3',$,$,$,.F.,$,#53,.CONSTRUCTION.);
#55=IFCTASKTIME('Sewerage and drainage Time',.PREDICTED.,$,.WORKTIME.,'P0Y0M5D','2027-03-01T07:00:00','2027-03-05T07:00:00','2027-04-06T07:00:00','2027-04-12T07:00:00','2027-11-15T07:00:00','2027-11-19T07:00:00','P0Y0M0D','P0Y0M140D',.F.,$,$,$,$,$,0.0);
#56=IFCTASK('Y34r5nLlVbTPCF1Xcdunjz',#6,'Sewerage and drainage',$,$,'2.4',$,$,$,.F.,$,#55,.INSTALLATION.);
#57=IFCTASKTIME('Fill crawl space Time',.PREDICTED.,$,.WORKTIME.,'P0Y0M3D','2027-03-01T07:00:00','2027-03-03T07:00:00','2027-04-13T07:00:00','2027-04-15T07:00:00','2027-11-22T07:00:00','2027-11-24T07:00:00','P0Y0M0D','P0Y0M140D',.F.,$,$,$,$,$,0.0);
#58=IFCTASK('g3PLvB0t3n4hw13FaN6jch',#6,'Fill crawl space',$,$,'2.5',$,$,$,.F.,$,#57,.CONSTRUCTION.);
#59=IFCTASKTIME('Ground floor slab Time',.PREDICTED.,$,.WORKTIME.,'P0Y0M5D','2027-03-01T07:00:00','2027-03-05T07:00:00','2027-04-16T07:00:00','2027-04-22T07:00:00','2027-11-25T07:00:00','2027-12-01T07:00:00','P0Y0M140D','P0Y0M140D',.F.,$,$,$,$,$,0.0);
#60=IFCTASK('Itq5g1FvAtnhwDhH9PeHj$',#6,'Ground floor slab',$,$,'2.6',$,$,$,.F.,$,#59,.CONSTRUCTION.);
#61=IFCTASKTIME('3. Structural works Time',.PREDICTED.,$,.WORKTIME.,'P0Y0M5D','2027-03-01T07:00:00','2027-03-05T07:00:00','2027-03-09T07:00:00','2027-05-18T07:00:00','2027-03-09T07:00:00','2027-12-01T07:00:00','P0Y0M0D','P0Y0M0D',.T.,$,$,$,$,$,0.0);
#62=IFCTASK('TZGPHV3Hl1YxjV1XyvCp8J',#6,'3. Structural works',$,$,'3',$,$,$,.F.,$,#61,.CONSTRUCTION.);
#63=IFCTASKTIME('Ground floor masonry Time',.PREDICTED.,$,.WORKTIME.,'P0Y0M12D','2027-03-01T07:00:00','2027-03-16T07:00:00','2027-03-09T07:00:00','2027-03-24T07:00:00','2027-03-09T07:00:00','2027-03-24T07:00:00','P0Y0M0D','P0Y0M0D',.T.,$,$,$,$,$,0.0);
#64=IFCTASK('nhZNy$EtfHptVRynPBaBWd',#6,'Ground floor masonry',$,$,'3.1',$,$,$,.F.,$,#63,.CONSTRUCTION.);
#65=IFCTASKTIME('Pour upper floor slab Time',.PREDICTED.,$,.WORKTIME.,'P0Y0M5D','2027-03-01T07:00:00','2027-03-05T07:00:00','2027-03-25T07:00:00','2027-04-02T07:00:00','2027-03-25T07:00:00','2027-04-02T07:00:00','P0Y0M0D','P0Y0M0D',.T.,$,$,$,$,$,0.0);
#66=IFCTASK('OZpPFHNNe7bXQHpHXJ6PR$',#6,'Pour upper floor slab',$,$,'3.2',$,$,$,.F.,$,#65,.CONSTRUCTION.);
#67=IFCTASKTIME('Upper floor masonry Time',.PREDICTED.,$,.WORKTIME.,'P0Y0M10D','2027-03-01T07:00:00','2027-03-12T07:00:00','2027-04-05T07:00:00','2027-04-16T07:00:00','2027-04-05T07:00:00','2027-04-16T07:00:00','P0Y0M0D','P0Y0M0D',.T.,$,$,$,$,$,0.0);
#68=IFCTASK('3jQjt$2fUv87ghsl8Z3NEb',#6,'Upper floor masonry',$,$,'3.3',$,$,$,.F.,$,#67,.CONSTRUCTION.);
#69=IFCTASKTIME('Timber roof structure Time',.PREDICTED.,$,.WORKTIME.,'P0Y0M10D','2027-03-01T07:00:00','2027-03-12T07:00:00','2027-04-19T07:00:00','2027-05-03T07:00:00','2027-04-19T07:00:00','2027-05-03T07:00:00','P0Y0M0D','P0Y0M0D',.T.,$,$,$,$,$,0.0);
#70=IFCTASK('1DonFBHP$Nzf3PIXs$nZfV',#6,'Timber roof structure',$,$,'3.4',$,$,$,.F.,$,#69,.CONSTRUCTION.);
#71=IFCTASKTIME('Roof tiles Time',.PREDICTED.,$,.WORKTIME.,'P0Y0M5D','2027-03-01T07:00:00','2027-03-05T07:00:00','2027-05-04T07:00:00','2027-05-12T07:00:00','2027-05-04T07:00:00','2027-05-12T07:00:00','P0Y0M0D','P0Y0M0D',.T.,$,$,$,$,$,0.0);
#72=IFCTASK('GtqxUbUno5PBeV5n_xDdPv',#6,'Roof tiles',$,$,'3.5',$,$,$,.F.,$,#71,.CONSTRUCTION.);
#73=IFCTASKTIME('Build chimneys Time',.PREDICTED.,$,.WORKTIME.,'P0Y0M3D','2027-03-01T07:00:00','2027-03-03T07:00:00','2027-05-13T07:00:00','2027-05-18T07:00:00','2027-05-13T07:00:00','2027-05-18T07:00:00','P0Y0M0D','P0Y0M0D',.T.,$,$,$,$,$,0.0);
#74=IFCTASK('$HPz6Ps14RZd4TxHqz81Qr',#6,'Build chimneys',$,$,'3.6',$,$,$,.F.,$,#73,.CONSTRUCTION.);
#75=IFCTASKTIME('Topping out Time',.PREDICTED.,$,.WORKTIME.,'P0Y0M0D','2027-03-01T07:00:00','2027-03-01T07:00:00','2027-05-18T07:00:00','2027-05-18T07:00:00','2027-12-01T07:00:00','2027-12-01T07:00:00','P0Y0M126D','P0Y0M126D',.F.,$,$,$,$,$,0.0);
#76=IFCTASK('6hwDVfedbVrFlTzn0dyTr7',#6,'Topping out',$,$,'3.7',$,$,$,.T.,$,#75,.CONSTRUCTION.);
#77=IFCTASKTIME('4. Facade & roof Time',.PREDICTED.,$,.WORKTIME.,'P0Y0M5D','2027-03-01T07:00:00','2027-03-05T07:00:00','2027-05-03T07:00:00','2027-06-10T07:00:00','2027-05-03T07:00:00','2027-12-01T07:00:00','P0Y0M0D','P0Y0M0D',.T.,$,$,$,$,$,0.0);
#78=IFCTASK('7h_BDDnvoHTdun5HG$5X4h',#6,'4. Facade & roof',$,$,'4',$,$,$,.F.,$,#77,.CONSTRUCTION.);
#79=IFCTASKTIME('Facade insulation Time',.PREDICTED.,$,.WORKTIME.,'P0Y0M8D','2027-03-01T07:00:00','2027-03-10T07:00:00','2027-05-03T07:00:00','2027-05-14T07:00:00','2027-05-03T07:00:00','2027-05-14T07:00:00','P0Y0M0D','P0Y0M0D',.T.,$,$,$,$,$,0.0);
#80=IFCTASK('gTj7t1sdtLb1CBw$OpRnjZ',#6,'Facade insulation',$,$,'4.1',$,$,$,.F.,$,#79,.INSTALLATION.);
#81=IFCTASKTIME('Hardwood window frames Time',.PREDICTED.,$,.WORKTIME.,'P0Y0M8D','2027-03-01T07:00:00','2027-03-10T07:00:00','2027-05-18T07:00:00','2027-05-27T07:00:00','2027-05-18T07:00:00','2027-05-27T07:00:00','P0Y0M0D','P0Y0M0D',.T.,$,$,$,$,$,0.0);
#82=IFCTASK('ideHJXIlv3e91rIXMHBFBd',#6,'Hardwood window frames',$,$,'4.2',$,$,$,.F.,$,#81,.INSTALLATION.);
#83=IFCTASKTIME('Triple glazing HR+++ Time',.PREDICTED.,$,.WORKTIME.,'P0Y0M5D','2027-03-01T07:00:00','2027-03-05T07:00:00','2027-05-28T07:00:00','2027-06-03T07:00:00','2027-05-28T07:00:00','2027-06-03T07:00:00','P0Y0M0D','P0Y0M0D',.T.,$,$,$,$,$,0.0);
#84=IFCTASK('bXTfuhinMRJfDnf19TDd7N',#6,'Triple glazing HR+++',$,$,'4.3',$,$,$,.F.,$,#83,.INSTALLATION.);
#85=IFCTASKTIME('Zinc gutters and downpipes Time',.PREDICTED.,$,.WORKTIME.,'P0Y0M5D','2027-03-01T07:00:00','2027-03-05T07:00:00','2027-06-04T07:00:00','2027-06-10T07:00:00','2027-06-04T07:00:00','2027-06-10T07:00:00','P0Y0M0D','P0Y0M0D',.T.,$,$,$,$,$,0.0);
#86=IFCTASK('xF1BXDcvWRD9rvQl11b$gp',#6,'Zinc gutters and downpipes',$,$,'4.4',$,$,$,.F.,$,#85,.CONSTRUCTION.);
#87=IFCTASKTIME('Wind and weathertight Time',.PREDICTED.,$,.WORKTIME.,'P0Y0M0D','2027-03-01T07:00:00','2027-03-01T07:00:00','2027-06-10T07:00:00','2027-06-10T07:00:00','2027-12-01T07:00:00','2027-12-01T07:00:00','P0Y0M109D','P0Y0M109D',.F.,$,$,$,$,$,0.0);
#88=IFCTASK('ZVL$IJxVJh7pap7$k307NZ',#6,'Wind and weathertight',$,$,'4.5',$,$,$,.T.,$,#87,.CONSTRUCTION.);
#89=IFCTASKTIME('5. Building services Time',.PREDICTED.,$,.WORKTIME.,'P0Y0M5D','2027-03-01T07:00:00','2027-03-05T07:00:00','2027-06-11T07:00:00','2027-09-01T07:00:00','2027-06-11T07:00:00','2027-12-01T07:00:00','P0Y0M0D','P0Y0M0D',.T.,$,$,$,$,$,0.0);
#90=IFCTASK('WXbHvBedrtsT3vsHGVfTN$',#6,'5. Building services',$,$,'5',$,$,$,.F.,$,#89,.INSTALLATION.);
#91=IFCTASKTIME('Electrical first fix Time',.PREDICTED.,$,.WORKTIME.,'P0Y0M8D','2027-03-01T07:00:00','2027-03-10T07:00:00','2027-06-11T07:00:00','2027-06-22T07:00:00','2027-06-11T07:00:00','2027-06-22T07:00:00','P0Y0M0D','P0Y0M0D',.T.,$,$,$,$,$,0.0);
#92=IFCTASK('Kd0tsFhHTX29jjnV1VPjYH',#6,'Electrical first fix',$,$,'5.1',$,$,$,.F.,$,#91,.INSTALLATION.);
#93=IFCTASKTIME('Plumbing first fix Time',.PREDICTED.,$,.WORKTIME.,'P0Y0M8D','2027-03-01T07:00:00','2027-03-10T07:00:00','2027-06-15T07:00:00','2027-06-24T07:00:00','2027-10-05T07:00:00','2027-10-14T07:00:00','P0Y0M0D','P0Y0M65D',.F.,$,$,$,$,$,0.0);
#94=IFCTASK('Q1fRiBtfkXT95HlXXpMZX3',#6,'Plumbing first fix',$,$,'5.2',$,$,$,.F.,$,#93,.INSTALLATION.);
#95=IFCTASKTIME('Underfloor heating Time',.PREDICTED.,$,.WORKTIME.,'P0Y0M8D','2027-03-01T07:00:00','2027-03-10T07:00:00','2027-06-25T07:00:00','2027-07-06T07:00:00','2027-10-15T07:00:00','2027-10-26T07:00:00','P0Y0M0D','P0Y0M65D',.F.,$,$,$,$,$,0.0);
#96=IFCTASK('PReHlVjFuNLHHfKHm$Jvf3',#6,'Underfloor heating',$,$,'5.3',$,$,$,.F.,$,#95,.INSTALLATION.);
#97=IFCTASKTIME('Home automation system Time',.PREDICTED.,$,.WORKTIME.,'P0Y0M5D','2027-03-01T07:00:00','2027-03-05T07:00:00','2027-07-07T07:00:00','2027-07-13T07:00:00','2027-10-27T07:00:00','2027-11-02T07:00:00','P0Y0M0D','P0Y0M65D',.F.,$,$,$,$,$,0.0);
#98=IFCTASK('tpHbm9KVT$MzvVN$EJQ7DH',#6,'Home automation system',$,$,'5.4',$,$,$,.F.,$,#97,.INSTALLATION.);
#99=IFCTASKTIME('Pool plant Time',.PREDICTED.,$,.WORKTIME.,'P0Y0M10D','2027-03-01T07:00:00','2027-03-12T07:00:00','2027-07-14T07:00:00','2027-08-17T07:00:00','2027-11-03T07:00:00','2027-11-16T07:00:00','P0Y0M0D','P0Y0M65D',.F.,$,$,$,$,$,0.0);
#100=IFCTASK('7BonXpQvCdibXxmXiDQDeB',#6,'Pool plant',$,$,'5.5',$,$,$,.F.,$,#99,.INSTALLATION.);
#101=IFCTASKTIME('Heat pump and ground loop Time',.PREDICTED.,$,.WORKTIME.,'P0Y0M8D','2027-03-01T07:00:00','2027-03-10T07:00:00','2027-08-18T07:00:00','2027-08-27T07:00:00','2027-11-17T07:00:00','2027-11-26T07:00:00','P0Y0M0D','P0Y0M65D',.F.,$,$,$,$,$,0.0);
#102=IFCTASK('2JUL$d6V1hNT5R4nhvKxP7',#6,'Heat pump and ground loop',$,$,'5.6',$,$,$,.F.,$,#101,.INSTALLATION.);
#103=IFCTASKTIME('Solar panels Time',.PREDICTED.,$,.WORKTIME.,'P0Y0M3D','2027-03-01T07:00:00','2027-03-03T07:00:00','2027-08-30T07:00:00','2027-09-01T07:00:00','2027-11-29T07:00:00','2027-12-01T07:00:00','P0Y0M65D','P0Y0M65D',.F.,$,$,$,$,$,0.0);
#104=IFCTASK('g31T0l7tfFPrO$VXmFB$EN',#6,'Solar panels',$,$,'5.7',$,$,$,.F.,$,#103,.INSTALLATION.);
#105=IFCTASKTIME('6. Fit-out Time',.PREDICTED.,$,.WORKTIME.,'P0Y0M5D','2027-03-01T07:00:00','2027-03-05T07:00:00','2027-07-16T07:00:00','2027-10-26T07:00:00','2027-07-16T07:00:00','2027-10-26T07:00:00','P0Y0M0D','P0Y0M0D',.T.,$,$,$,$,$,0.0);
#106=IFCTASK('W$ljRVr1q7etLNqnyrBFjZ',#6,'6. Fit-out',$,$,'6',$,$,$,.F.,$,#105,.CONSTRUCTION.);
#107=IFCTASKTIME('Plastering, walls and ceilings Time',.PREDICTED.,$,.WORKTIME.,'P0Y0M12D','2027-03-01T07:00:00','2027-03-16T07:00:00','2027-07-16T07:00:00','2027-08-23T07:00:00','2027-07-16T07:00:00','2027-08-23T07:00:00','P0Y0M0D','P0Y0M0D',.T.,$,$,$,$,$,0.0);
#108=IFCTASK('sDVLTtDVTXMFX50XLP0vBT',#6,'Plastering, walls and ceilings',$,$,'6.1',$,$,$,.F.,$,#107,.CONSTRUCTION.);
#109=IFCTASKTIME('Luxury bathroom tiling Time',.PREDICTED.,$,.WORKTIME.,'P0Y0M10D','2027-03-01T07:00:00','2027-03-12T07:00:00','2027-08-24T07:00:00','2027-09-06T07:00:00','2027-08-24T07:00:00','2027-09-06T07:00:00','P0Y0M0D','P0Y0M0D',.T.,$,$,$,$,$,0.0);
#110=IFCTASK('H5vB$TWtRVjvUNqFuBqpqT',#6,'Luxury bathroom tiling',$,$,'6.2',$,$,$,.F.,$,#109,.CONSTRUCTION.);
#111=IFCTASKTIME('Natural stone floors Time',.PREDICTED.,$,.WORKTIME.,'P0Y0M8D','2027-03-01T07:00:00','2027-03-10T07:00:00','2027-09-07T07:00:00','2027-09-16T07:00:00','2027-09-07T07:00:00','2027-09-16T07:00:00','P0Y0M0D','P0Y0M0D',.T.,$,$,$,$,$,0.0);
#112=IFCTASK('LvShjV2ni9oByNu1VHlzxh',#6,'Natural stone floors',$,$,'6.3',$,$,$,.F.,$,#111,.CONSTRUCTION.);
#113=IFCTASKTIME('Oak staircases Time',.PREDICTED.,$,.WORKTIME.,'P0Y0M5D','2027-03-01T07:00:00','2027-03-05T07:00:00','2027-09-17T07:00:00','2027-09-23T07:00:00','2027-09-17T07:00:00','2027-09-23T07:00:00','P0Y0M0D','P0Y0M0D',.T.,$,$,$,$,$,0.0);
#114=IFCTASK('xBEFjT$vcXMFvXf1IX1xr7',#6,'Oak staircases',$,$,'6.4',$,$,$,.F.,$,#113,.INSTALLATION.);
#115=IFCTASKTIME('Bespoke kitchen Time',.PREDICTED.,$,.WORKTIME.,'P0Y0M8D','2027-03-01T07:00:00','2027-03-10T07:00:00','2027-09-24T07:00:00','2027-10-05T07:00:00','2027-09-24T07:00:00','2027-10-05T07:00:00','P0Y0M0D','P0Y0M0D',.T.,$,$,$,$,$,0.0);
#116=IFCTASK('QRmvlxVP5lRXAR0VF9gfMf',#6,'Bespoke kitchen',$,$,'6.5',$,$,$,.F.,$,#115,.INSTALLATION.);
#117=IFCTASKTIME('Painting Time',.PREDICTED.,$,.WORKTIME.,'P0Y0M10D','2027-03-01T07:00:00','2027-03-12T07:00:00','2027-10-06T07:00:00','2027-10-19T07:00:00','2027-10-06T07:00:00','2027-10-19T07:00:00','P0Y0M0D','P0Y0M0D',.T.,$,$,$,$,$,0.0);
#118=IFCTASK('AD1BtVcX5Hz7A54Hh7iJI7',#6,'Painting',$,$,'6.6',$,$,$,.F.,$,#117,.CONSTRUCTION.);
#119=IFCTASKTIME('Second-fix sanitary fittings Time',.PREDICTED.,$,.WORKTIME.,'P0Y0M5D','2027-03-01T07:00:00','2027-03-05T07:00:00','2027-10-20T07:00:00','2027-10-26T07:00:00','2027-10-20T07:00:00','2027-10-26T07:00:00','P0Y0M0D','P0Y0M0D',.T.,$,$,$,$,$,0.0);
#120=IFCTASK('rD9D7BGNSV3N9rIV2N_BmX',#6,'Second-fix sanitary fittings',$,$,'6.7',$,$,$,.F.,$,#119,.INSTALLATION.);
#121=IFCTASKTIME('7. External works & handover Time',.PREDICTED.,$,.WORKTIME.,'P0Y0M5D','2027-03-01T07:00:00','2027-03-05T07:00:00','2027-10-27T07:00:00','2027-12-01T07:00:00','2027-10-27T07:00:00','2027-12-01T07:00:00','P0Y0M0D','P0Y0M0D',.T.,$,$,$,$,$,0.0);
#122=IFCTASK('PbG7df7t9V3NFPEVGlfLYH',#6,'7. External works & handover',$,$,'7',$,$,$,.F.,$,#121,.CONSTRUCTION.);
#123=IFCTASKTIME('Complete swimming pool Time',.PREDICTED.,$,.WORKTIME.,'P0Y0M8D','2027-03-01T07:00:00','2027-03-10T07:00:00','2027-10-27T07:00:00','2027-11-05T07:00:00','2027-10-27T07:00:00','2027-11-05T07:00:00','P0Y0M0D','P0Y0M0D',.T.,$,$,$,$,$,0.0);
#124=IFCTASK('G7gP1767Q12RL9GVOxIxzB',#6,'Complete swimming pool',$,$,'7.1',$,$,$,.F.,$,#123,.CONSTRUCTION.);
#125=IFCTASKTIME('Garden landscaping Time',.PREDICTED.,$,.WORKTIME.,'P0Y0M10D','2027-03-01T07:00:00','2027-03-12T07:00:00','2027-11-08T07:00:00','2027-11-19T07:00:00','2027-11-08T07:00:00','2027-11-19T07:00:00','P0Y0M0D','P0Y0M0D',.T.,$,$,$,$,$,0.0);
#126=IFCTASK('DhDvtVg$onVzFJplFR1J6x',#6,'Garden landscaping',$,$,'7.2',$,$,$,.F.,$,#125,.CONSTRUCTION.);
#127=IFCTASKTIME('Driveway and paving Time',.PREDICTED.,$,.WORKTIME.,'P0Y0M5D','2027-03-01T07:00:00','2027-03-05T07:00:00','2027-11-22T07:00:00','2027-11-26T07:00:00','2027-11-22T07:00:00','2027-11-26T07:00:00','P0Y0M0D','P0Y0M0D',.T.,$,$,$,$,$,0.0);
#128=IFCTASK('vLcJxldttBdjwVt$u3lrmX',#6,'Driveway and paving',$,$,'7.3',$,$,$,.F.,$,#127,.CONSTRUCTION.);
#129=IFCTASKTIME('Cleaning Time',.PREDICTED.,$,.WORKTIME.,'P0Y0M3D','2027-03-01T07:00:00','2027-03-03T07:00:00','2027-11-29T07:00:00','2027-12-01T07:00:00','2027-11-29T07:00:00','2027-12-01T07:00:00','P0Y0M0D','P0Y0M0D',.T.,$,$,$,$,$,0.0);
#130=IFCTASK('8pVLRxtN0LDP8te$8ra3Xv',#6,'Cleaning',$,$,'7.4',$,$,$,.F.,$,#129,.LOGISTIC.);
#131=IFCTASKTIME('Handover Time',.PREDICTED.,$,.WORKTIME.,'P0Y0M0D','2027-03-01T07:00:00','2027-03-01T07:00:00','2027-12-01T07:00:00','2027-12-01T07:00:00','2027-12-01T07:00:00','2027-12-01T07:00:00','P0Y0M0D','P0Y0M0D',.T.,$,$,$,$,$,0.0);
#132=IFCTASK('ivq5QpQ7u$wjorc1wNQDOB',#6,'Handover',$,$,'7.5',$,$,$,.T.,$,#131,.CONSTRUCTION.);
#133=IFCRELNESTS('cbuFTxgdF3kdK1RlkTKJYp',#6,'WBS 1. Preparation',$,#40,( #42,#44,#46));
#134=IFCRELNESTS('MzXzcN8P$LHrGRe1Dvu$wV',#6,'WBS 2. Earthworks & foundations',$,#48,( #50,#52,#54,#56,#58,#60));
#135=IFCRELNESTS('MvKJhfmN0LrFlZpFHBxVaR',#6,'WBS 3. Structural works',$,#62,( #64,#66,#68,#70,#72,#74,#76));
#136=IFCRELNESTS('EPQJRX3HnH8fLTzFCHrnd7',#6,'WBS 4. Facade & roof',$,#78,( #80,#82,#84,#86,#88));
#137=IFCRELNESTS('P5qx67wvonVznpv1MFnhId',#6,'WBS 5. Building services',$,#90,( #92,#94,#96,#98,#100,#102,#104));
#138=IFCRELNESTS('PbuXaJoHfnf5vDDnNfMZlh',#6,'WBS 6. Fit-out',$,#106,( #108,#110,#112,#114,#116,#118,#120));
#139=IFCRELNESTS('ItCpNp9NuXw14Z5HC38$Qh',#6,'WBS 7. External works & handover',$,#122,( #124,#126,#128,#130,#132));
#140=IFCRELNESTS('tjjP5r1vgdnD4TBHzDgTrv',#6,'WBS Hoofd',$,#37,(#40,#48,#62,#78,#90,#106,#122));
#141=IFCRELSEQUENCE('wBgPjX_nKpmVELkFep5lJV',#6,$,$,#42,#44,$,.FINISH_START.,$);
#142=IFCRELSEQUENCE('SVztcp2NYdK3JJ91CT4LIv',#6,$,$,#44,#46,$,.FINISH_START.,$);
#143=IFCRELSEQUENCE('gzNbG9inQjSjIFblwNcpmX',#6,$,$,#50,#52,$,.FINISH_START.,$);
#144=IFCRELSEQUENCE('S34BDpVdL70ntN0Vjxz9OT',#6,$,$,#52,#54,$,.FINISH_START.,$);
#145=IFCRELSEQUENCE('V1npVty$ahNTXFDnHBBnDJ',#6,$,$,#54,#56,$,.FINISH_START.,$);
#146=IFCRELSEQUENCE('ez1TWXxXL7u7wXf$cviJ65',#6,$,$,#56,#58,$,.FINISH_START.,$);
#147=IFCRELSEQUENCE('NzNR0nRn_ZaB4zf$cTZtmH',#6,$,$,#58,#60,$,.FINISH_START.,$);
#148=IFCRELSEQUENCE('8hYhhpcvyR37EXjHFtEViV',#6,$,$,#64,#66,$,.FINISH_START.,$);
#149=IFCRELSEQUENCE('3FTNaFCFCd4hcHhntvCD0N',#6,$,$,#66,#68,$,.FINISH_START.,$);
#150=IFCRELSEQUENCE('cxah7ha1_fQVQlxFolfhsz',#6,$,$,#68,#70,$,.FINISH_START.,$);
#151=IFCRELSEQUENCE('ktazM$VdNxljs5CHQd07tD',#6,$,$,#70,#72,$,.FINISH_START.,$);
#152=IFCRELSEQUENCE('I51ZSDo9ddaj_vInG1R1wV',#6,$,$,#72,#74,$,.FINISH_START.,$);
#153=IFCRELSEQUENCE('ZVzt_rO70Lj7ohQlvbQv7x',#6,$,$,#74,#76,$,.FINISH_START.,$);
#154=IFCRELSEQUENCE('dR8nHb5VnFyDyf0Xtz7pW7',#6,$,$,#80,#82,$,.FINISH_START.,$);
#155=IFCRELSEQUENCE('FPQj3BWt1fpdiRynDBTtOz',#6,$,$,#82,#84,$,.FINISH_START.,$);
#156=IFCRELSEQUENCE('zjERCRxV1NBFRX3lUv8Fxn',#6,$,$,#84,#86,$,.FINISH_START.,$);
#157=IFCRELSEQUENCE('ivq5IlGNExPBWDznWtoXOL',#6,$,$,#86,#88,$,.FINISH_START.,$);
#158=IFCLAGTIME('Lag',.PREDICTED.,$,IFCDURATION('P2D'),.WORKTIME.);
#159=IFCRELSEQUENCE('ylR1Yx2NMbDttN0XPLeHtp',#6,$,$,#92,#94,#158,.START_START.,$);
#160=IFCRELSEQUENCE('4HjdzdB$GzuvAdw$KXxlFV',#6,$,$,#94,#96,$,.FINISH_START.,$);
#161=IFCRELSEQUENCE('AJ39o1otLJg3$rw1S9wP9F',#6,$,$,#96,#98,$,.FINISH_START.,$);
#162=IFCRELSEQUENCE('VV5nlbJFC78Nx5816tcvj1',#6,$,$,#98,#100,$,.FINISH_START.,$);
#163=IFCRELSEQUENCE('ZXpdLjolPv0n$B61uhmNQL',#6,$,$,#100,#102,$,.FINISH_START.,$);
#164=IFCRELSEQUENCE('kfG7PNHPzTsTXHN$_xDPVT',#6,$,$,#102,#104,$,.FINISH_START.,$);
#165=IFCRELSEQUENCE('m7EFVDAdDxtR5HP1TVPJQF',#6,$,$,#108,#110,$,.FINISH_START.,$);
#166=IFCRELSEQUENCE('4HDvVjg$gPXzB7UFh7CbDH',#6,$,$,#110,#112,$,.FINISH_START.,$);
#167=IFCRELSEQUENCE('CLhHbbJFevZd4ZDnnbfhYH',#6,$,$,#112,#114,$,.FINISH_START.,$);
#168=IFCRELSEQUENCE('pPIxU9T$MbBFpZt1v17b$9',#6,$,$,#114,#116,$,.FINISH_START.,$);
#169=IFCRELSEQUENCE('LP8V4zKXfHRXYfSnN9Yn7t',#6,$,$,#116,#118,$,.FINISH_START.,$);
#170=IFCRELSEQUENCE('1DIlnHHPnFyhgtalDv8$_X',#6,$,$,#118,#120,$,.FINISH_START.,$);
#171=IFCRELSEQUENCE('uJ5XanCFKjK3RXbFCzGfsz',#6,$,$,#124,#126,$,.FINISH_START.,$);
#172=IFCRELSEQUENCE('a19xQtinQXovQn9$71lzPL',#6,$,$,#126,#128,$,.FINISH_START.,$);
#173=IFCRELSEQUENCE('b17BJzT1_TyLYNyFZZCpij',#6,$,$,#128,#130,$,.FINISH_START.,$);
#174=IFCRELSEQUENCE('LT39g1VPHXkPGRO$47Kjcn',#6,$,$,#130,#132,$,.FINISH_START.,$);
#175=IFCLAGTIME('Lag',.PREDICTED.,$,IFCDURATION('P3D'),.WORKTIME.);
#176=IFCRELSEQUENCE('Z1$TC59NutlBqLIFKDs3lH',#6,$,$,#42,#50,#175,.START_START.,$);
#177=IFCLAGTIME('Lag',.PREDICTED.,$,IFCRATIOMEASURE(0.4),.WORKTIME.);
#178=IFCRELSEQUENCE('ST8VqdjnmzedKXN1_5r1MN',#6,$,$,#50,#64,#177,.START_START.,$);
#179=IFCLAGTIME('Lag',.PREDICTED.,$,IFCDURATION('-P9D'),.WORKTIME.);
#180=IFCRELSEQUENCE('$pEnFLJVdjoBCBM1BfIxzh',#6,$,$,#74,#80,#179,.FINISH_START.,$);
#181=IFCLAGTIME('Lag',.PREDICTED.,$,IFCDURATION('P2D'),.WORKTIME.);
#182=IFCRELSEQUENCE('sJZNiNfNCdSjQHZHKJcv75',#6,$,$,#74,#86,#181,.FINISH_FINISH.,$);
#183=IFCRELSEQUENCE('J57BNFSH3ni3f7InCZyTlr',#6,$,$,#86,#92,$,.FINISH_START.,$);
#184=IFCLAGTIME('Lag',.PREDICTED.,$,IFCDURATION('P25D'),.WORKTIME.);
#185=IFCRELSEQUENCE('FdwpnFpVlJiRJJFV$15VWv',#6,$,$,#92,#108,#184,.START_START.,$);
#186=IFCRELSEQUENCE('T3SL9zJVnFajQl3lwtA9i$',#6,$,$,#120,#124,$,.FINISH_START.,$);
#187=IFCRELASSIGNSTOCONTROL('rDVhNjbXHjyDCF$VkTSruD',#6,$,$,(#40,#42,#44,#46,#48,#50,#52,#54,#56,#58,#60,#62,#64,#66,#68,#70,#72,#74,#76,#78,#80,#82,#84,#86,#88,#90,#92,#94,#96,#98,#100,#102,#104,#106,#108,#110,#112,#114,#116,#118,#120,#122,#124,#126,#128,#130,#132),$,#37);
#188=IFCPROPERTYSINGLEVALUE('wbsAutoNumber',$,IFCBOOLEAN(.T.),$);
#189=IFCPROPERTYSINGLEVALUE('ProjectStartDate',$,IFCDATE('2027-03-01'),$);
#190=IFCPROPERTYSINGLEVALUE('ProjectEndDate',$,$,$);
#191=IFCPROPERTYSINGLEVALUE('CreatedAt',$,IFCTEXT('2026-07-28T13:22:48.433Z'),$);
#192=IFCPROPERTYSINGLEVALUE('ModifiedAt',$,IFCTEXT('2026-07-28T13:22:48.434Z'),$);
#193=IFCPROPERTYSET('e5a3ArlP$tNZvpDF1ZK5n5',#6,'OPS_ProjectSettings',$,(#188,#189,#190,#191,#192));
#194=IFCRELDEFINESBYPROPERTIES('0Hdzo1sPJhdjQlBF$1BF9l',#6,$,$,(#13),#193);
#195=IFCPROPERTYSINGLEVALUE('MilestoneKind',$,IFCLABEL('START'),$);
#196=IFCPROPERTYSET('L7ijt$YfWxnDSd6$8zHrWv',#6,'OPS_Milestone',$,(#195));
#197=IFCRELDEFINESBYPROPERTIES('k5VzQ9aH9VxXg94Frtc7DH',#6,$,$,(#46),#196);
#198=IFCPROPERTYSINGLEVALUE('MilestoneKind',$,IFCLABEL('FINISH'),$);
#199=IFCPROPERTYSET('ELTfGvQv0rvD8n5HG$xV8D',#6,'OPS_Milestone',$,(#198));
#200=IFCRELDEFINESBYPROPERTIES('d$dhz7vtfFPrixGXAxQDaf',#6,$,$,(#76),#199);
#201=IFCPROPERTYSINGLEVALUE('MilestoneKind',$,IFCLABEL('FINISH'),$);
#202=IFCPROPERTYSET('ttgdfp7tHDGVIb4lB9gNwx',#6,'OPS_Milestone',$,(#201));
#203=IFCRELDEFINESBYPROPERTIES('GtCpvBGNi96J2dkXUL9zj$',#6,$,$,(#88),#202);
#204=IFCPROPERTYSINGLEVALUE('MilestoneKind',$,IFCLABEL('FINISH'),$);
#205=IFCPROPERTYSINGLEVALUE('Mandatory',$,IFCBOOLEAN(.T.),$);
#206=IFCPROPERTYSET('eZBXqRRXjtFLs5CnurS3rz',#6,'OPS_Milestone',$,(#204,#205));
#207=IFCRELDEFINESBYPROPERTIES('1HXLXtqXjBzfd3DHtPunX3',#6,$,$,(#132),#206);
ENDSEC;
END-ISO-10303-21;
