ISO-10303-21;
HEADER;
FILE_DESCRIPTION(('ViewDefinition [SchedulingView]'),'2;1');
FILE_NAME('Agriport A7 Data Centre.ifc','2026-07-28T14:38:23',('Vincent Kok'),('Digital Infrastructure BV'),'Open Planner Studio 0.1','Open Planner Studio','');
FILE_SCHEMA(('IFC4X3'));
ENDSEC;
DATA;
#1=IFCPERSON($,'Vincent Kok',$,$,$,$,$,$);
#2=IFCORGANIZATION($,'Digital Infrastructure BV',$,$,$);
#3=IFCPERSONANDORGANIZATION(#1,#2,$);
#4=IFCORGANIZATION($,'OpenAEC Foundation',$,$,$);
#5=IFCAPPLICATION(#4,'0.1','Open Planner Studio','OPS');
#6=IFCOWNERHISTORY(#3,#5,$,.NOCHANGE.,$,$,$,1785249503);
#7=IFCSIUNIT(*,.LENGTHUNIT.,$,.METRE.);
#8=IFCSIUNIT(*,.TIMEUNIT.,$,.SECOND.);
#9=IFCUNITASSIGNMENT((#7,#8));
#10=IFCCARTESIANPOINT((0.,0.,0.));
#11=IFCAXIS2PLACEMENT3D(#10,$,$);
#12=IFCGEOMETRICREPRESENTATIONCONTEXT($,'Plan',3,1.0E-05,#11,$);
#13=IFCPROJECT('hdO$g5nvM7rnHTbHI1hHBT',#6,'Agriport A7 Data Centre','5,000 m2 data centre with its own power supply',$,$,$,(#12),#9);
#14=IFCTIMEPERIOD('07:00:00','16:00:00');
#15=IFCRECURRENCEPATTERN(.WEEKLY.,$,(1,2,3,4,5),$,$,$,$,(#14));
#16=IFCWORKTIME('Standard work week',.PREDICTED.,$,#15,$,$);
#17=IFCWORKTIME('New Year''s Day',.PREDICTED.,$,$,'2027-01-01','2027-01-01');
#18=IFCWORKTIME('Good Friday',.PREDICTED.,$,$,'2027-03-26','2027-03-26');
#19=IFCWORKTIME('Easter',.PREDICTED.,$,$,'2027-03-28','2027-03-29');
#20=IFCWORKTIME('King''s Day',.PREDICTED.,$,$,'2027-04-27','2027-04-27');
#21=IFCWORKTIME('Liberation Day',.PREDICTED.,$,$,'2027-05-05','2027-05-05');
#22=IFCWORKTIME('Ascension Day',.PREDICTED.,$,$,'2027-05-06','2027-05-06');
#23=IFCWORKTIME('Whitsun',.PREDICTED.,$,$,'2027-05-16','2027-05-17');
#24=IFCWORKTIME('Christmas',.PREDICTED.,$,$,'2027-12-25','2027-12-26');
#25=IFCWORKTIME('Construction holiday (northern region)',.PREDICTED.,$,$,'2027-07-26','2027-08-15');
#26=IFCWORKTIME('New Year''s Day',.PREDICTED.,$,$,'2028-01-01','2028-01-01');
#27=IFCWORKTIME('Good Friday',.PREDICTED.,$,$,'2028-04-14','2028-04-14');
#28=IFCWORKTIME('Easter',.PREDICTED.,$,$,'2028-04-16','2028-04-17');
#29=IFCWORKTIME('King''s Day',.PREDICTED.,$,$,'2028-04-27','2028-04-27');
#30=IFCWORKTIME('Liberation Day',.PREDICTED.,$,$,'2028-05-05','2028-05-05');
#31=IFCWORKTIME('Ascension Day',.PREDICTED.,$,$,'2028-05-25','2028-05-25');
#32=IFCWORKTIME('Whitsun',.PREDICTED.,$,$,'2028-06-04','2028-06-05');
#33=IFCWORKTIME('Christmas',.PREDICTED.,$,$,'2028-12-25','2028-12-26');
#34=IFCWORKTIME('Construction holiday (northern region)',.PREDICTED.,$,$,'2028-07-24','2028-08-13');
#35=IFCWORKCALENDAR('_HlbW$VPl1Yxnv_nBDbFBd',#6,'Construction calendar NL','Standard construction calendar: Mon-Fri 07:00-16:00',$,(#16),(#17,#18,#19,#20,#21,#22,#23,#24,#25,#26,#27,#28,#29,#30,#31,#32,#33,#34),.FIRSTSHIFT.);
#36=IFCWORKPLAN('zH1rTbcXxH37kbiHqFnLgN',#6,'Agriport A7 Data Centre','5,000 m2 data centre with its own power supply',$,$,'2026-07-28T14:38:23',$,$,$,$,$,'2027-03-01T07:00:00','2027-03-16T07:00:00',.PLANNED.);
#37=IFCWORKSCHEDULE('Q$7rjTv9nzUNx5e$8rSB8R',#6,'Construction schedule v1.0',$,$,$,'2026-07-28T14:38:23',$,$,$,$,$,'2027-03-01T07:00:00','2027-03-16T07:00:00',.PLANNED.);
#38=IFCRELAGGREGATES('X$Ph9TPtbVDd8te$ftI1sz',#6,$,$,#36,(#37));
#39=IFCTASKTIME('1. Preparation Time',.PREDICTED.,$,.WORKTIME.,'P0Y0M5D','2027-03-01T07:00:00','2027-03-05T07:00:00','2027-03-01T07:00:00','2027-04-01T07:00:00','2027-03-01T07:00:00','2027-10-15T07:00:00','P0Y0M0D','P0Y0M0D',.T.,$,$,$,$,$,0.0);
#40=IFCTASK('xBkH9zT$sfLHF7gH6jvbTt',#6,'1. Preparation',$,$,'1',$,$,$,.F.,$,#39,.CONSTRUCTION.);
#41=IFCTASKTIME('Prepare site for construction Time',.PREDICTED.,$,.WORKTIME.,'P0Y0M8D','2027-03-01T07:00:00','2027-03-10T07:00:00','2027-03-01T07:00:00','2027-03-10T07:00:00','2027-03-01T07:00:00','2027-03-10T07:00:00','P0Y0M0D','P0Y0M0D',.T.,$,$,$,$,$,0.0);
#42=IFCTASK('q96tsBPtN5HJQTt$nx3tOL',#6,'Prepare site for construction',$,$,'1.1',$,$,$,.F.,$,#41,.CONSTRUCTION.);
#43=IFCTASKTIME('10 kV utility connections Time',.PREDICTED.,$,.WORKTIME.,'P0Y0M10D','2027-03-01T07:00:00','2027-03-12T07:00:00','2027-03-11T07:00:00','2027-03-24T07:00:00','2027-09-28T07:00:00','2027-10-11T07:00:00','P0Y0M0D','P0Y0M122D',.F.,$,$,$,$,$,0.0);
#44=IFCTASK('nPoRSlOdl1sTZtClcdOXyL',#6,'10 kV utility connections',$,$,'1.2',$,$,$,.F.,$,#43,.INSTALLATION.);
#45=IFCTASKTIME('Temporary security fencing Time',.PREDICTED.,$,.WORKTIME.,'P0Y0M3D','2027-03-01T07:00:00','2027-03-03T07:00:00','2027-03-25T07:00:00','2027-03-31T07:00:00','2027-10-12T07:00:00','2027-10-14T07:00:00','P0Y0M0D','P0Y0M122D',.F.,$,$,$,$,$,0.0);
#46=IFCTASK('1HF5ctCVxHZPK$5l0v812T',#6,'Temporary security fencing',$,$,'1.3',$,$,$,.F.,$,#45,.INSTALLATION.);
#47=IFCTASKTIME('Start of construction Time',.PREDICTED.,$,.WORKTIME.,'P0Y0M0D','2027-03-01T07:00:00','2027-03-01T07:00:00','2027-04-01T07:00:00','2027-04-01T07:00:00','2027-10-15T07:00:00','2027-10-15T07:00:00','P0Y0M122D','P0Y0M122D',.F.,$,$,$,$,$,0.0);
#48=IFCTASK('5B6tALZ1wTkLYfyl93vD4d',#6,'Start of construction',$,$,'1.4',$,$,$,.T.,$,#47,.CONSTRUCTION.);
#49=IFCTASKTIME('2. Foundations Time',.PREDICTED.,$,.WORKTIME.,'P0Y0M5D','2027-03-01T07:00:00','2027-03-05T07:00:00','2027-03-16T07:00:00','2027-04-30T07:00:00','2027-03-16T07:00:00','2027-10-15T07:00:00','P0Y0M0D','P0Y0M0D',.T.,$,$,$,$,$,0.0);
#50=IFCTASK('jbztAHldLdizdFVXSNMZVZ',#6,'2. Foundations',$,$,'2',$,$,$,.F.,$,#49,.CONSTRUCTION.);
#51=IFCTASKTIME('Pile driving, foundation piles Time',.PREDICTED.,$,.WORKTIME.,'P0Y0M10D','2027-03-01T07:00:00','2027-03-12T07:00:00','2027-03-16T07:00:00','2027-03-31T07:00:00','2027-03-16T07:00:00','2027-03-31T07:00:00','P0Y0M0D','P0Y0M0D',.T.,$,$,$,$,$,0.0);
#52=IFCTASK('HNuVuB097NAHF7UFphtzvx',#6,'Pile driving, foundation piles',$,$,'2.1',$,$,$,.F.,$,#51,.CONSTRUCTION.);
#53=IFCTASKTIME('Foundation beams Time',.PREDICTED.,$,.WORKTIME.,'P0Y0M8D','2027-03-01T07:00:00','2027-03-10T07:00:00','2027-04-01T07:00:00','2027-04-12T07:00:00','2027-09-17T07:00:00','2027-09-28T07:00:00','P0Y0M0D','P0Y0M102D',.F.,$,$,$,$,$,0.0);
#54=IFCTASK('3D2Vuh4HHV29V5u1A$P51p',#6,'Foundation beams',$,$,'2.2',$,$,$,.F.,$,#53,.CONSTRUCTION.);
#55=IFCTASKTIME('Pour slab on piles Time',.PREDICTED.,$,.WORKTIME.,'P0Y0M8D','2027-03-01T07:00:00','2027-03-10T07:00:00','2027-04-13T07:00:00','2027-04-22T07:00:00','2027-09-29T07:00:00','2027-10-08T07:00:00','P0Y0M0D','P0Y0M102D',.F.,$,$,$,$,$,0.0);
#56=IFCTASK('b5yZyz4Hl$Qpyf0VZ38$2V',#6,'Pour slab on piles',$,$,'2.3',$,$,$,.F.,$,#55,.CONSTRUCTION.);
#57=IFCTASKTIME('Cable trays in floor Time',.PREDICTED.,$,.WORKTIME.,'P0Y0M5D','2027-03-01T07:00:00','2027-03-05T07:00:00','2027-04-23T07:00:00','2027-04-30T07:00:00','2027-10-11T07:00:00','2027-10-15T07:00:00','P0Y0M102D','P0Y0M102D',.F.,$,$,$,$,$,0.0);
#58=IFCTASK('d$1Z0llP33UN$$N1NJ$jgp',#6,'Cable trays in floor',$,$,'2.4',$,$,$,.F.,$,#57,.INSTALLATION.);
#59=IFCTASKTIME('3. Structure Time',.PREDICTED.,$,.WORKTIME.,'P0Y0M5D','2027-03-01T07:00:00','2027-03-05T07:00:00','2027-03-22T07:00:00','2027-05-20T07:00:00','2027-03-22T07:00:00','2027-10-15T07:00:00','P0Y0M0D','P0Y0M0D',.T.,$,$,$,$,$,0.0);
#60=IFCTASK('Bp1rXDYfKfgn9Ne$zHnT1J',#6,'3. Structure',$,$,'3',$,$,$,.F.,$,#59,.CONSTRUCTION.);
#61=IFCTASKTIME('Precast concrete walls Time',.PREDICTED.,$,.WORKTIME.,'P0Y0M12D','2027-03-01T07:00:00','2027-03-16T07:00:00','2027-03-22T07:00:00','2027-04-08T07:00:00','2027-03-22T07:00:00','2027-04-08T07:00:00','P0Y0M0D','P0Y0M0D',.T.,$,$,$,$,$,0.0);
#62=IFCTASK('kf8V4$_NgxtbR$1VcTrFVz',#6,'Precast concrete walls',$,$,'3.1',$,$,$,.F.,$,#61,.CONSTRUCTION.);
#63=IFCTASKTIME('Structural steel, roof Time',.PREDICTED.,$,.WORKTIME.,'P0Y0M8D','2027-03-01T07:00:00','2027-03-10T07:00:00','2027-04-09T07:00:00','2027-04-20T07:00:00','2027-04-09T07:00:00','2027-04-20T07:00:00','P0Y0M0D','P0Y0M0D',.T.,$,$,$,$,$,0.0);
#64=IFCTASK('m9ShlXxVR$FLU3lVrDhXOr',#6,'Structural steel, roof',$,$,'3.2',$,$,$,.F.,$,#63,.CONSTRUCTION.);
#65=IFCTASKTIME('Sandwich roof panels Time',.PREDICTED.,$,.WORKTIME.,'P0Y0M8D','2027-03-01T07:00:00','2027-03-10T07:00:00','2027-04-21T07:00:00','2027-05-03T07:00:00','2027-04-21T07:00:00','2027-05-03T07:00:00','P0Y0M0D','P0Y0M0D',.T.,$,$,$,$,$,0.0);
#66=IFCTASK('qfk5QpEtBZqZTfGVW9I$wX',#6,'Sandwich roof panels',$,$,'3.3',$,$,$,.F.,$,#65,.INSTALLATION.);
#67=IFCTASKTIME('Raised computer floor Time',.PREDICTED.,$,.WORKTIME.,'P0Y0M10D','2027-03-01T07:00:00','2027-03-12T07:00:00','2027-05-04T07:00:00','2027-05-20T07:00:00','2027-05-04T07:00:00','2027-05-20T07:00:00','P0Y0M0D','P0Y0M0D',.T.,$,$,$,$,$,0.0);
#68=IFCTASK('8h6DtTP9h70n$Bc$YvWPbV',#6,'Raised computer floor',$,$,'3.4',$,$,$,.F.,$,#67,.INSTALLATION.);
#69=IFCTASKTIME('Topping out Time',.PREDICTED.,$,.WORKTIME.,'P0Y0M0D','2027-03-01T07:00:00','2027-03-01T07:00:00','2027-05-20T07:00:00','2027-05-20T07:00:00','2027-10-15T07:00:00','2027-10-15T07:00:00','P0Y0M91D','P0Y0M91D',.F.,$,$,$,$,$,0.0);
#70=IFCTASK('UVTfSDAPTjyhsRWVTV7DGH',#6,'Topping out',$,$,'3.5',$,$,$,.T.,$,#69,.CONSTRUCTION.);
#71=IFCTASKTIME('4. Facade & weathertight Time',.PREDICTED.,$,.WORKTIME.,'P0Y0M5D','2027-03-01T07:00:00','2027-03-05T07:00:00','2027-05-10T07:00:00','2027-06-07T07:00:00','2027-05-10T07:00:00','2027-10-15T07:00:00','P0Y0M0D','P0Y0M0D',.T.,$,$,$,$,$,0.0);
#72=IFCTASK('azCxEzrl5nXzB76Hrp3tup',#6,'4. Facade & weathertight',$,$,'4',$,$,$,.F.,$,#71,.CONSTRUCTION.);
#73=IFCTASKTIME('Facade insulation and cladding Time',.PREDICTED.,$,.WORKTIME.,'P0Y0M10D','2027-03-01T07:00:00','2027-03-12T07:00:00','2027-05-10T07:00:00','2027-05-24T07:00:00','2027-05-10T07:00:00','2027-05-24T07:00:00','P0Y0M0D','P0Y0M0D',.T.,$,$,$,$,$,0.0);
#74=IFCTASK('aXh$wvsPvZaBajZH8ZpPvf',#6,'Facade insulation and cladding',$,$,'4.1',$,$,$,.F.,$,#73,.INSTALLATION.);
#75=IFCTASKTIME('Loading docks and doors Time',.PREDICTED.,$,.WORKTIME.,'P0Y0M5D','2027-03-01T07:00:00','2027-03-05T07:00:00','2027-05-25T07:00:00','2027-05-31T07:00:00','2027-05-25T07:00:00','2027-05-31T07:00:00','P0Y0M0D','P0Y0M0D',.T.,$,$,$,$,$,0.0);
#76=IFCTASK('FP6DLD_NonvhQlrn11xXi$',#6,'Loading docks and doors',$,$,'4.2',$,$,$,.F.,$,#75,.INSTALLATION.);
#77=IFCTASKTIME('Roof waterproofing Time',.PREDICTED.,$,.WORKTIME.,'P0Y0M5D','2027-03-01T07:00:00','2027-03-05T07:00:00','2027-06-01T07:00:00','2027-06-07T07:00:00','2027-06-01T07:00:00','2027-06-07T07:00:00','P0Y0M0D','P0Y0M0D',.T.,$,$,$,$,$,0.0);
#78=IFCTASK('d1$ZOxott1XRb191Nts9OL',#6,'Roof waterproofing',$,$,'4.3',$,$,$,.F.,$,#77,.CONSTRUCTION.);
#79=IFCTASKTIME('Wind and weathertight Time',.PREDICTED.,$,.WORKTIME.,'P0Y0M0D','2027-03-01T07:00:00','2027-03-01T07:00:00','2027-06-07T07:00:00','2027-06-07T07:00:00','2027-10-15T07:00:00','2027-10-15T07:00:00','P0Y0M79D','P0Y0M79D',.F.,$,$,$,$,$,0.0);
#80=IFCTASK('CrnxAHldthrFxHFVJxr1E5',#6,'Wind and weathertight',$,$,'4.4',$,$,$,.T.,$,#79,.CONSTRUCTION.);
#81=IFCTASKTIME('5. Power & cooling Time',.PREDICTED.,$,.WORKTIME.,'P0Y0M5D','2027-03-01T07:00:00','2027-03-05T07:00:00','2027-06-08T07:00:00','2027-09-22T07:00:00','2027-06-08T07:00:00','2027-10-15T07:00:00','P0Y0M0D','P0Y0M0D',.T.,$,$,$,$,$,0.0);
#82=IFCTASK('xl3tcfu7shnhg9SHHhPjYH',#6,'5. Power & cooling',$,$,'5',$,$,$,.F.,$,#81,.INSTALLATION.);
#83=IFCTASKTIME('10 kV transformers Time',.PREDICTED.,$,.WORKTIME.,'P0Y0M8D','2027-03-01T07:00:00','2027-03-10T07:00:00','2027-06-08T07:00:00','2027-06-17T07:00:00','2027-06-08T07:00:00','2027-06-17T07:00:00','P0Y0M0D','P0Y0M0D',.T.,$,$,$,$,$,0.0);
#84=IFCTASK('bbWNCPbVrZaj_7clfpZfQH',#6,'10 kV transformers',$,$,'5.1',$,$,$,.F.,$,#83,.INSTALLATION.);
#85=IFCTASKTIME('UPS systems Time',.PREDICTED.,$,.WORKTIME.,'P0Y0M10D','2027-03-01T07:00:00','2027-03-12T07:00:00','2027-06-18T07:00:00','2027-07-01T07:00:00','2027-07-13T07:00:00','2027-08-16T07:00:00','P0Y0M0D','P0Y0M17D',.F.,$,$,$,$,$,0.0);
#86=IFCTASK('i5FDrzalFTg3fv2F1zu$YH',#6,'UPS systems',$,$,'5.2',$,$,$,.F.,$,#85,.INSTALLATION.);
#87=IFCTASKTIME('Emergency generators Time',.PREDICTED.,$,.WORKTIME.,'P0Y0M8D','2027-03-01T07:00:00','2027-03-10T07:00:00','2027-07-02T07:00:00','2027-07-13T07:00:00','2027-08-17T07:00:00','2027-08-26T07:00:00','P0Y0M0D','P0Y0M17D',.F.,$,$,$,$,$,0.0);
#88=IFCTASK('$JwDvBGfwTYxVFjnxnvpGX',#6,'Emergency generators',$,$,'5.3',$,$,$,.F.,$,#87,.INSTALLATION.);
#89=IFCTASKTIME('Main distribution and PDUs Time',.PREDICTED.,$,.WORKTIME.,'P0Y0M10D','2027-03-01T07:00:00','2027-03-12T07:00:00','2027-07-14T07:00:00','2027-08-17T07:00:00','2027-08-27T07:00:00','2027-09-09T07:00:00','P0Y0M0D','P0Y0M17D',.F.,$,$,$,$,$,0.0);
#90=IFCTASK('2j_B5lV7uV2tnjbFmFbFzB',#6,'Main distribution and PDUs',$,$,'5.4',$,$,$,.F.,$,#89,.INSTALLATION.);
#91=IFCTASKTIME('Chillers Time',.PREDICTED.,$,.WORKTIME.,'P0Y0M10D','2027-03-01T07:00:00','2027-03-12T07:00:00','2027-08-18T07:00:00','2027-08-31T07:00:00','2027-09-10T07:00:00','2027-09-23T07:00:00','P0Y0M0D','P0Y0M17D',.F.,$,$,$,$,$,0.0);
#92=IFCTASK('zDAv5FpVZ$U5thoFwDzt4d',#6,'Chillers',$,$,'5.5',$,$,$,.F.,$,#91,.INSTALLATION.);
#93=IFCTASKTIME('CRAH units, data halls Time',.PREDICTED.,$,.WORKTIME.,'P0Y0M8D','2027-03-01T07:00:00','2027-03-10T07:00:00','2027-09-01T07:00:00','2027-09-10T07:00:00','2027-09-24T07:00:00','2027-10-05T07:00:00','P0Y0M0D','P0Y0M17D',.F.,$,$,$,$,$,0.0);
#94=IFCTASK('ZzS3MR3HBNkd8FBHtZxV8b',#6,'CRAH units, data halls',$,$,'5.6',$,$,$,.F.,$,#93,.INSTALLATION.);
#95=IFCTASKTIME('External cooling towers Time',.PREDICTED.,$,.WORKTIME.,'P0Y0M8D','2027-03-01T07:00:00','2027-03-10T07:00:00','2027-09-13T07:00:00','2027-09-22T07:00:00','2027-10-06T07:00:00','2027-10-15T07:00:00','P0Y0M17D','P0Y0M17D',.F.,$,$,$,$,$,0.0);
#96=IFCTASK('j9KRK9rH5nXzvVv$VH$Js7',#6,'External cooling towers',$,$,'5.7',$,$,$,.F.,$,#95,.INSTALLATION.);
#97=IFCTASKTIME('6. ICT & security Time',.PREDICTED.,$,.WORKTIME.,'P0Y0M5D','2027-03-01T07:00:00','2027-03-05T07:00:00','2027-07-21T07:00:00','2027-09-24T07:00:00','2027-07-21T07:00:00','2027-09-24T07:00:00','P0Y0M0D','P0Y0M0D',.T.,$,$,$,$,$,0.0);
#98=IFCTASK('Obe$kH87UvO9vVVX6fk5R$',#6,'6. ICT & security',$,$,'6',$,$,$,.F.,$,#97,.INSTALLATION.);
#99=IFCTASKTIME('Incoming fibre optics Time',.PREDICTED.,$,.WORKTIME.,'P0Y0M5D','2027-03-01T07:00:00','2027-03-05T07:00:00','2027-07-21T07:00:00','2027-08-17T07:00:00','2027-07-21T07:00:00','2027-08-17T07:00:00','P0Y0M0D','P0Y0M0D',.T.,$,$,$,$,$,0.0);
#100=IFCTASK('1D2Vy1gdzH8vkxGXojoV4P',#6,'Incoming fibre optics',$,$,'6.1',$,$,$,.F.,$,#99,.INSTALLATION.);
#101=IFCTASKTIME('Patch panels and cabling Time',.PREDICTED.,$,.WORKTIME.,'P0Y0M8D','2027-03-01T07:00:00','2027-03-10T07:00:00','2027-08-18T07:00:00','2027-08-27T07:00:00','2027-08-18T07:00:00','2027-08-27T07:00:00','P0Y0M0D','P0Y0M0D',.T.,$,$,$,$,$,0.0);
#102=IFCTASK('K7yZGtqF0B$5ZtinYv07$t',#6,'Patch panels and cabling',$,$,'6.2',$,$,$,.F.,$,#101,.INSTALLATION.);
#103=IFCTASKTIME('Gas fire suppression system Time',.PREDICTED.,$,.WORKTIME.,'P0Y0M5D','2027-03-01T07:00:00','2027-03-05T07:00:00','2027-08-30T07:00:00','2027-09-03T07:00:00','2027-08-30T07:00:00','2027-09-03T07:00:00','P0Y0M0D','P0Y0M0D',.T.,$,$,$,$,$,0.0);
#104=IFCTASK('GfWNyZ09BZyhYZzFS55lDn',#6,'Gas fire suppression system',$,$,'6.3',$,$,$,.F.,$,#103,.INSTALLATION.);
#105=IFCTASKTIME('Biometric access control Time',.PREDICTED.,$,.WORKTIME.,'P0Y0M5D','2027-03-01T07:00:00','2027-03-05T07:00:00','2027-09-06T07:00:00','2027-09-10T07:00:00','2027-09-06T07:00:00','2027-09-10T07:00:00','P0Y0M0D','P0Y0M0D',.T.,$,$,$,$,$,0.0);
#106=IFCTASK('m7MdbbZHt17pGRe$uraBmX',#6,'Biometric access control',$,$,'6.4',$,$,$,.F.,$,#105,.INSTALLATION.);
#107=IFCTASKTIME('CCTV system Time',.PREDICTED.,$,.WORKTIME.,'P0Y0M5D','2027-03-01T07:00:00','2027-03-05T07:00:00','2027-09-13T07:00:00','2027-09-17T07:00:00','2027-09-13T07:00:00','2027-09-17T07:00:00','P0Y0M0D','P0Y0M0D',.T.,$,$,$,$,$,0.0);
#108=IFCTASK('NZh1ETXvCdSB4zd$jNQDG$',#6,'CCTV system',$,$,'6.5',$,$,$,.F.,$,#107,.INSTALLATION.);
#109=IFCTASKTIME('BMS monitoring Time',.PREDICTED.,$,.WORKTIME.,'P0Y0M5D','2027-03-01T07:00:00','2027-03-05T07:00:00','2027-09-20T07:00:00','2027-09-24T07:00:00','2027-09-20T07:00:00','2027-09-24T07:00:00','P0Y0M0D','P0Y0M0D',.T.,$,$,$,$,$,0.0);
#110=IFCTASK('J94TiB7tX5FD8nhlhz9zjX',#6,'BMS monitoring',$,$,'6.6',$,$,$,.F.,$,#109,.INSTALLATION.);
#111=IFCTASKTIME('7. Handover Time',.PREDICTED.,$,.WORKTIME.,'P0Y0M5D','2027-03-01T07:00:00','2027-03-05T07:00:00','2027-09-27T07:00:00','2027-10-15T07:00:00','2027-09-27T07:00:00','2027-10-15T07:00:00','P0Y0M0D','P0Y0M0D',.T.,$,$,$,$,$,0.0);
#112=IFCTASK('ebmvHRxXFFqZtBYVJxLXOh',#6,'7. Handover',$,$,'7',$,$,$,.F.,$,#111,.CONSTRUCTION.);
#113=IFCTASKTIME('Test failover scenario Time',.PREDICTED.,$,.WORKTIME.,'P0Y0M5D','2027-03-01T07:00:00','2027-03-05T07:00:00','2027-09-27T07:00:00','2027-10-01T07:00:00','2027-09-27T07:00:00','2027-10-01T07:00:00','P0Y0M0D','P0Y0M0D',.T.,$,$,$,$,$,0.0);
#114=IFCTASK('s9A7rdg$MbzvcF1XA5Ebpn',#6,'Test failover scenario',$,$,'7.1',$,$,$,.F.,$,#113,.ATTENDANCE.);
#115=IFCTASKTIME('Site finishing Time',.PREDICTED.,$,.WORKTIME.,'P0Y0M5D','2027-03-01T07:00:00','2027-03-05T07:00:00','2027-10-04T07:00:00','2027-10-08T07:00:00','2027-10-04T07:00:00','2027-10-08T07:00:00','P0Y0M0D','P0Y0M0D',.T.,$,$,$,$,$,0.0);
#116=IFCTASK('7lLH9zjVJhtzhNCn0dS3zP',#6,'Site finishing',$,$,'7.2',$,$,$,.F.,$,#115,.CONSTRUCTION.);
#117=IFCTASKTIME('Tier III certification Time',.PREDICTED.,$,.WORKTIME.,'P0Y0M5D','2027-03-01T07:00:00','2027-03-05T07:00:00','2027-10-11T07:00:00','2027-10-15T07:00:00','2027-10-11T07:00:00','2027-10-15T07:00:00','P0Y0M0D','P0Y0M0D',.T.,$,$,$,$,$,0.0);
#118=IFCTASK('A9A7lxVd9BFL2v6lznr$w5',#6,'Tier III certification',$,$,'7.3',$,$,$,.F.,$,#117,.ATTENDANCE.);
#119=IFCTASKTIME('Handover Time',.PREDICTED.,$,.WORKTIME.,'P0Y0M0D','2027-03-01T07:00:00','2027-03-01T07:00:00','2027-10-15T07:00:00','2027-10-15T07:00:00','2027-10-15T07:00:00','2027-10-15T07:00:00','P0Y0M0D','P0Y0M0D',.T.,$,$,$,$,$,0.0);
#120=IFCTASK('Dd6pdxE9VRJNrpVXKDoRdr',#6,'Handover',$,$,'7.4',$,$,$,.T.,$,#119,.CONSTRUCTION.);
#121=IFCRELNESTS('C9cfmty$u9XRpZHVPHDdLN',#6,'WBS 1. Preparation',$,#40,( #42,#44,#46,#48));
#122=IFCRELNESTS('cVBVKtz$mTiR9fGXMlzfsv',#6,'WBS 2. Foundations',$,#50,( #52,#54,#56,#58));
#123=IFCRELNESTS('yHLHzv7tT$gzxHHX71fhgp',#6,'WBS 3. Structure',$,#60,( #62,#64,#66,#68,#70));
#124=IFCRELNESTS('LPmPTNtfsL9z1BUX5l5VG$',#6,'WBS 4. Facade & weathertight',$,#72,( #74,#76,#78,#80));
#125=IFCRELNESTS('2j_BPN1vsBLHZ9CHUrR$g9',#6,'WBS 5. Power & cooling',$,#82,( #84,#86,#88,#90,#92,#94,#96));
#126=IFCRELNESTS('ltSLdb_F0r$x11$XEpUh_$',#6,'WBS 6. ICT & security',$,#98,( #100,#102,#104,#106,#108,#110));
#127=IFCRELNESTS('ltCDNJ3lz3sHpF$VEFr1sz',#6,'WBS 7. Handover',$,#112,( #114,#116,#118,#120));
#128=IFCRELNESTS('tjjP5r1vgdnD4TBHzDgTrv',#6,'WBS Hoofd',$,#37,(#40,#50,#60,#72,#82,#98,#112));
#129=IFCRELSEQUENCE('rDVhnnRnEHjNNbGV6DpdDJ',#6,$,$,#42,#44,$,.FINISH_START.,$);
#130=IFCRELSEQUENCE('8hQjLf09jtdJYt0X5FlBuD',#6,$,$,#44,#46,$,.FINISH_START.,$);
#131=IFCRELSEQUENCE('iRDdFFJVzz2tPH3HITKJ65',#6,$,$,#46,#48,$,.FINISH_START.,$);
#132=IFCRELSEQUENCE('qf_BxnZ$wl0FVbylhvSzn1',#6,$,$,#52,#54,$,.FINISH_START.,$);
#133=IFCRELSEQUENCE('wLI5_LiXNnNxn7UFlPKjot',#6,$,$,#54,#56,$,.FINISH_START.,$);
#134=IFCRELSEQUENCE('4j_B3LaltXBFHTzFO5Uhcn',#6,$,$,#56,#58,$,.FINISH_START.,$);
#135=IFCRELSEQUENCE('RxibaDI9trNTvDZFc7S39D',#6,$,$,#62,#64,$,.FINISH_START.,$);
#136=IFCRELSEQUENCE('QV39kDtfenK3rv_nJNs3Zt',#6,$,$,#64,#66,$,.FINISH_START.,$);
#137=IFCRELSEQUENCE('KvqxUxUfGJM3z5inI1DPFx',#6,$,$,#66,#68,$,.FINISH_START.,$);
#138=IFCRELSEQUENCE('dXTf4V_nylrFJJt$GH1JUD',#6,$,$,#68,#70,$,.FINISH_START.,$);
#139=IFCRELSEQUENCE('sJpvTR2Fa$9zB76llrxVCz',#6,$,$,#74,#76,$,.FINISH_START.,$);
#140=IFCRELSEQUENCE('$HtD5hBHrtgztNO$FxRFf$',#6,$,$,#76,#78,$,.FINISH_START.,$);
#141=IFCRELSEQUENCE('qfMzYtRFwz61CnXVipQpqT',#6,$,$,#78,#80,$,.FINISH_START.,$);
#142=IFCRELSEQUENCE('id8VW$ffgPvhE$f$XHl3fT',#6,$,$,#84,#86,$,.FINISH_START.,$);
#143=IFCRELSEQUENCE('S17rZxYfGJgzBPA15B4Tj3',#6,$,$,#86,#88,$,.FINISH_START.,$);
#144=IFCRELSEQUENCE('KvKjbXDFsB5Vg9KnMH5VaR',#6,$,$,#88,#90,$,.FINISH_START.,$);
#145=IFCRELSEQUENCE('oP2B3hylxFV3f7sHCnnhgJ',#6,$,$,#90,#92,$,.FINISH_START.,$);
#146=IFCRELSEQUENCE('WXJ7VpI9RXR1adQ$_RNhcB',#6,$,$,#92,#94,$,.FINISH_START.,$);
#147=IFCRELSEQUENCE('P1ljl51dFzUN55e11TiJsZ',#6,$,$,#94,#96,$,.FINISH_START.,$);
#148=IFCRELSEQUENCE('ujD79Vs1mzGXYtWVhTZ98R',#6,$,$,#100,#102,$,.FINISH_START.,$);
#149=IFCRELSEQUENCE('rDvT4z4l3z2t1hAHCnlre3',#6,$,$,#102,#104,$,.FINISH_START.,$);
#150=IFCRELSEQUENCE('uJxV4XYFwHm1GBUXR$VD0N',#6,$,$,#104,#106,$,.FINISH_START.,$);
#151=IFCRELSEQUENCE('ebWfi9bF_fYfdTd$4rT9mV',#6,$,$,#106,#108,$,.FINISH_START.,$);
#152=IFCRELSEQUENCE('8j5XqvNNkVLHNxaHDv0vj1',#6,$,$,#108,#110,$,.FINISH_START.,$);
#153=IFCRELSEQUENCE('GdkxwPEHxxfxzvYnpLVb$N',#6,$,$,#114,#116,$,.FINISH_START.,$);
#154=IFCRELSEQUENCE('yFtDHVRXvtg3dn913F3t09',#6,$,$,#116,#118,$,.FINISH_START.,$);
#155=IFCRELSEQUENCE('_JsTKr17U70nTrQ$ARI16x',#6,$,$,#118,#120,$,.FINISH_START.,$);
#156=IFCLAGTIME('Lag',.PREDICTED.,$,IFCDURATION('P11D'),.WORKTIME.);
#157=IFCRELSEQUENCE('KxX3QtCF0BlrWDBHB9UFXZ',#6,$,$,#42,#52,#156,.START_START.,$);
#158=IFCLAGTIME('Lag',.PREDICTED.,$,IFCRATIOMEASURE(0.4),.WORKTIME.);
#159=IFCRELSEQUENCE('5nNJ5l9NEnVzfd6$ObUFJz',#6,$,$,#52,#62,#158,.START_START.,$);
#160=IFCLAGTIME('Lag',.PREDICTED.,$,IFCDURATION('-P8D'),.WORKTIME.);
#161=IFCRELSEQUENCE('MdWfWVh1YJwjMLonARwdpJ',#6,$,$,#68,#74,#160,.FINISH_START.,$);
#162=IFCLAGTIME('Lag',.PREDICTED.,$,IFCDURATION('P2D'),.WORKTIME.);
#163=IFCRELSEQUENCE('AfoRex2NsfrFxnxH4vij23',#6,$,$,#68,#78,#162,.FINISH_FINISH.,$);
#164=IFCRELSEQUENCE('Edob4zalvfUN1XDlzlHzBT',#6,$,$,#78,#84,$,.FINISH_START.,$);
#165=IFCLAGTIME('Lag',.PREDICTED.,$,IFCDURATION('P31D'),.WORKTIME.);
#166=IFCRELSEQUENCE('J5FpTNtNQpuNLTDnPlxXCH',#6,$,$,#84,#100,#165,.START_START.,$);
#167=IFCRELSEQUENCE('JtazABnd$rrnPFnVVnr1Ul',#6,$,$,#110,#114,$,.FINISH_START.,$);
#168=IFCRELASSIGNSTOCONTROL('rDVhNjbXHjyDCF$VkTSruD',#6,$,$,(#40,#42,#44,#46,#48,#50,#52,#54,#56,#58,#60,#62,#64,#66,#68,#70,#72,#74,#76,#78,#80,#82,#84,#86,#88,#90,#92,#94,#96,#98,#100,#102,#104,#106,#108,#110,#112,#114,#116,#118,#120),$,#37);
#169=IFCPROPERTYSINGLEVALUE('wbsAutoNumber',$,IFCBOOLEAN(.T.),$);
#170=IFCPROPERTYSINGLEVALUE('ProjectStartDate',$,IFCDATE('2027-03-01'),$);
#171=IFCPROPERTYSINGLEVALUE('ProjectEndDate',$,$,$);
#172=IFCPROPERTYSINGLEVALUE('CreatedAt',$,IFCTEXT('2026-07-28T14:38:23.965Z'),$);
#173=IFCPROPERTYSINGLEVALUE('ModifiedAt',$,IFCTEXT('2026-07-28T14:38:23.966Z'),$);
#174=IFCPROPERTYSET('e5a3ArlP$tNZvpDF1ZK5n5',#6,'OPS_ProjectSettings',$,(#169,#170,#171,#172,#173));
#175=IFCRELDEFINESBYPROPERTIES('0Hdzo1sPJhdjQlBF$1BF9l',#6,$,$,(#13),#174);
#176=IFCPROPERTYSINGLEVALUE('MilestoneKind',$,IFCLABEL('START'),$);
#177=IFCPROPERTYSET('FLZNiB1v2TyhQFnVdhWd7f',#6,'OPS_Milestone',$,(#176));
#178=IFCRELDEFINESBYPROPERTIES('eTDddxw72fAl55GXGXXRTt',#6,$,$,(#48),#177);
#179=IFCPROPERTYSINGLEVALUE('MilestoneKind',$,IFCLABEL('FINISH'),$);
#180=IFCPROPERTYSET('s9Y$Yxcv4n$ZJXVX69k1wx',#6,'OPS_Milestone',$,(#179));
#181=IFCRELDEFINESBYPROPERTIES('Fhjd1dcXFnizLtu$jbNhMt',#6,$,$,(#70),#180);
#182=IFCPROPERTYSINGLEVALUE('MilestoneKind',$,IFCLABEL('FINISH'),$);
#183=IFCPROPERTYSET('WVL1oVUnonlJs7gHQd07HF',#6,'OPS_Milestone',$,(#182));
#184=IFCRELDEFINESBYPROPERTIES('7rgdNpv9Nlx$8l91ORk$YH',#6,$,$,(#80),#183);
#185=IFCPROPERTYSINGLEVALUE('MilestoneKind',$,IFCLABEL('FINISH'),$);
#186=IFCPROPERTYSINGLEVALUE('Mandatory',$,IFCBOOLEAN(.T.),$);
#187=IFCPROPERTYSET('7nvZeRQVnnyD8fSnVj_lr3',#6,'OPS_Milestone',$,(#185,#186));
#188=IFCRELDEFINESBYPROPERTIES('W1dhzdL1IX3NrpN1H7OH1N',#6,$,$,(#120),#187);
ENDSEC;
END-ISO-10303-21;
