ISO-10303-21;
HEADER;
FILE_DESCRIPTION(('ViewDefinition [SchedulingView]'),'2;1');
FILE_NAME('Refurbishment & Extension of a Family Home.ifc','2026-08-14T12:18:52',('Contractor'),('Van Dijk Construction BV'),'Open Planner Studio 0.1','Open Planner Studio','');
FILE_SCHEMA(('IFC4X3'));
ENDSEC;
DATA;
#1=IFCPERSON($,'Contractor',$,$,$,$,$,$);
#2=IFCORGANIZATION($,'Van Dijk Construction BV',$,$,$);
#3=IFCPERSONANDORGANIZATION(#1,#2,$);
#4=IFCORGANIZATION($,'OpenAEC Foundation',$,$,$);
#5=IFCAPPLICATION(#4,'0.1','Open Planner Studio','OPS');
#6=IFCOWNERHISTORY(#3,#5,$,.NOCHANGE.,$,$,$,1786709932);
#7=IFCSIUNIT(*,.LENGTHUNIT.,$,.METRE.);
#8=IFCSIUNIT(*,.TIMEUNIT.,$,.SECOND.);
#9=IFCUNITASSIGNMENT((#7,#8));
#10=IFCCARTESIANPOINT((0.,0.,0.));
#11=IFCAXIS2PLACEMENT3D(#10,$,$);
#12=IFCGEOMETRICREPRESENTATIONCONTEXT($,'Plan',3,1.0E-05,#11,$);
#13=IFCPROJECT('ezljjT9fkLZ9fvAliDERjV',#6,'Refurbishment & Extension of a Family Home','Extension plus internal refurbishment of a family home — entry-level schedule.',$,$,$,(#12),#9);
#14=IFCTIMEPERIOD('07:00:00','16:00:00');
#15=IFCRECURRENCEPATTERN(.WEEKLY.,$,(1,2,3,4,5),$,$,$,$,(#14));
#16=IFCWORKTIME('Standard work week',.PREDICTED.,$,#15,$,$);
#17=IFCWORKTIME('New Year''s Day',.PREDICTED.,$,$,'2027-01-01','2027-01-01');
#18=IFCWORKTIME('Good Friday',.PREDICTED.,$,$,'2027-03-26','2027-03-26');
#19=IFCWORKTIME('Easter',.PREDICTED.,$,$,'2027-03-28','2027-03-29');
#20=IFCWORKTIME('King''s Day',.PREDICTED.,$,$,'2027-04-27','2027-04-27');
#21=IFCWORKTIME('Liberation Day',.PREDICTED.,$,$,'2027-05-05','2027-05-05');
#22=IFCWORKTIME('Ascension Day',.PREDICTED.,$,$,'2027-05-06','2027-05-06');
#23=IFCWORKTIME('Whitsun',.PREDICTED.,$,$,'2027-05-16','2027-05-17');
#24=IFCWORKTIME('Christmas',.PREDICTED.,$,$,'2027-12-25','2027-12-26');
#25=IFCWORKTIME('Construction holiday (northern region)',.PREDICTED.,$,$,'2027-07-26','2027-08-15');
#26=IFCWORKTIME('New Year''s Day',.PREDICTED.,$,$,'2028-01-01','2028-01-01');
#27=IFCWORKTIME('Good Friday',.PREDICTED.,$,$,'2028-04-14','2028-04-14');
#28=IFCWORKTIME('Easter',.PREDICTED.,$,$,'2028-04-16','2028-04-17');
#29=IFCWORKTIME('King''s Day',.PREDICTED.,$,$,'2028-04-27','2028-04-27');
#30=IFCWORKTIME('Liberation Day',.PREDICTED.,$,$,'2028-05-05','2028-05-05');
#31=IFCWORKTIME('Ascension Day',.PREDICTED.,$,$,'2028-05-25','2028-05-25');
#32=IFCWORKTIME('Whitsun',.PREDICTED.,$,$,'2028-06-04','2028-06-05');
#33=IFCWORKTIME('Christmas',.PREDICTED.,$,$,'2028-12-25','2028-12-26');
#34=IFCWORKTIME('Construction holiday (northern region)',.PREDICTED.,$,$,'2028-07-24','2028-08-13');
#35=IFCWORKCALENDAR('_HlbW$VPl1Yxnv_nBDbFBd',#6,'Construction calendar NL','Standard construction calendar: Mon-Fri 07:00-16:00',$,(#16),(#17,#18,#19,#20,#21,#22,#23,#24,#25,#26,#27,#28,#29,#30,#31,#32,#33,#34),.FIRSTSHIFT.);
#36=IFCWORKPLAN('GfO$gXJnifAHZ9CnO5gTfV',#6,'Refurbishment & Extension of a Family Home','Extension plus internal refurbishment of a family home — entry-level schedule.',$,$,'2026-08-14T12:18:52',$,$,$,$,$,'2027-03-01T07:00:00','2027-03-08T07:00:00',.PLANNED.);
#37=IFCWORKSCHEDULE('pvU$IjRXJtHB494nl70vJV',#6,'Construction schedule v1.0',$,$,$,'2026-08-14T12:18:52',$,$,$,$,$,'2027-03-01T07:00:00','2027-03-08T07:00:00',.PLANNED.);
#38=IFCWORKSCHEDULE('fTJv$zKVbh3f9LAHmV93r3',#6,'Baseline plan',$,$,$,'2026-08-14T12:18:52.032Z',$,$,$,$,$,$,'2027-05-04T07:00:00',.BASELINE.);
#39=IFCRELAGGREGATES('X$Ph9TPtbVDd8te$ftI1sz',#6,$,$,#36,(#37,#38));
#40=IFCTASKTIME('Start of refurbishment Time',.PREDICTED.,$,.WORKTIME.,'P0Y0M0D','2027-03-01T07:00:00','2027-03-01T07:00:00','2027-03-01T07:00:00','2027-03-01T07:00:00','2027-03-05T07:00:00','2027-03-05T07:00:00','P0Y0M0D','P0Y0M4D',.F.,$,$,$,$,$,0.0);
#41=IFCTASK('rfEbezT$cXQVAbGVyrzfIh',#6,'Start of refurbishment',$,$,'1',$,$,$,.T.,$,#40,.CONSTRUCTION.);
#42=IFCTASKTIME('1. Preparation Time',.PREDICTED.,$,.WORKTIME.,'P0Y0M5D','2027-03-01T07:00:00','2027-03-05T07:00:00','2027-03-01T07:00:00','2027-03-11T07:00:00','2027-03-05T07:00:00','2027-03-11T07:00:00','P0Y0M0D','P0Y0M0D',.T.,$,$,$,$,$,0.0);
#43=IFCTASK('FPERSDc70hpPS7Yn1$pP1D',#6,'1. Preparation',$,$,'2',$,$,$,.F.,$,#42,.LOGISTIC.);
#44=IFCTASKTIME('Set up site Time',.PREDICTED.,$,.WORKTIME.,'P0Y0M2D','2027-03-01T07:00:00','2027-03-02T07:00:00','2027-03-01T07:00:00','2027-03-02T07:00:00','2027-03-05T07:00:00','2027-03-08T07:00:00','P0Y0M4D','P0Y0M4D',.F.,$,$,$,$,$,0.0);
#45=IFCTASK('7rU$AB1vgdnDadIXwfwjkd',#6,'Set up site',$,$,'2.1',$,$,$,.F.,$,#44,.LOGISTIC.);
#46=IFCTASKTIME('Demolish existing extension Time',.PREDICTED.,$,.WORKTIME.,'P0Y0M3D','2027-03-01T07:00:00','2027-03-03T07:00:00','2027-03-09T07:00:00','2027-03-11T07:00:00','2027-03-09T07:00:00','2027-03-11T07:00:00','P0Y0M0D','P0Y0M0D',.T.,$,$,$,$,$,0.0);
#47=IFCTASK('3HfjL9S$oHp93Ru1gLeHNT',#6,'Demolish existing extension',$,$,'2.2',$,$,$,.F.,$,#46,.DEMOLITION.);
#48=IFCTASKTIME('2. Foundations & structure Time',.PREDICTED.,$,.WORKTIME.,'P0Y0M5D','2027-03-01T07:00:00','2027-03-05T07:00:00','2027-03-12T07:00:00','2027-04-06T07:00:00','2027-03-12T07:00:00','2027-04-06T07:00:00','P0Y0M0D','P0Y0M0D',.T.,$,$,$,$,$,0.0);
#49=IFCTASK('3pY1oVs1qTQp8lXVAbI1ob',#6,'2. Foundations & structure',$,$,'3',$,$,$,.F.,$,#48,.CONSTRUCTION.);
#50=IFCTASKTIME('Earthworks for extension Time',.PREDICTED.,$,.WORKTIME.,'P0Y0M3D','2027-03-01T07:00:00','2027-03-03T07:00:00','2027-03-12T07:00:00','2027-03-16T07:00:00','2027-03-12T07:00:00','2027-03-16T07:00:00','P0Y0M0D','P0Y0M0D',.T.,$,$,$,$,$,0.0);
#51=IFCTASK('cbe$YbYFQJKznj5noFJvvb',#6,'Earthworks for extension',$,$,'3.1',$,$,$,.F.,$,#50,.CONSTRUCTION.);
#52=IFCTASKTIME('Extension foundations Time',.PREDICTED.,$,.WORKTIME.,'P0Y0M4D','2027-03-01T07:00:00','2027-03-04T07:00:00','2027-03-17T07:00:00','2027-03-22T07:00:00','2027-03-17T07:00:00','2027-03-22T07:00:00','P0Y0M0D','P0Y0M0D',.T.,$,$,$,$,$,0.0);
#53=IFCTASK('oP_B$ZOPh7uvInZF_tst0f',#6,'Extension foundations',$,$,'3.2',$,$,$,.F.,$,#52,.CONSTRUCTION.);
#54=IFCTASKTIME('Pour ground floor slab Time',.PREDICTED.,$,.WORKTIME.,'P0Y0M3D','2027-03-01T07:00:00','2027-03-03T07:00:00','2027-03-23T07:00:00','2027-03-25T07:00:00','2027-03-23T07:00:00','2027-03-25T07:00:00','P0Y0M0D','P0Y0M0D',.T.,$,$,$,$,$,0.0);
#55=IFCTASK('tfI5U5o9hDgFTLEFsRI1kr',#6,'Pour ground floor slab',$,$,'3.3',$,$,$,.F.,$,#54,.CONSTRUCTION.);
#56=IFCTASKTIME('Build masonry walls Time',.PREDICTED.,$,.WORKTIME.,'P0Y0M6D','2027-03-01T07:00:00','2027-03-08T07:00:00','2027-03-30T07:00:00','2027-04-06T07:00:00','2027-03-30T07:00:00','2027-04-06T07:00:00','P0Y0M0D','P0Y0M0D',.T.,$,$,$,$,$,0.0);
#57=IFCTASK('RxKbe5UfmjcDiXd$J96P1j',#6,'Build masonry walls',$,$,'3.4',$,$,$,.F.,$,#56,.CONSTRUCTION.);
#58=IFCTASKTIME('Install roof structure Time',.PREDICTED.,$,.WORKTIME.,'P0Y0M4D','2027-03-01T07:00:00','2027-03-04T07:00:00','2027-04-01T07:00:00','2027-04-06T07:00:00','2027-04-01T07:00:00','2027-04-06T07:00:00','P0Y0M0D','P0Y0M0D',.T.,$,$,$,$,$,0.0);
#59=IFCTASK('8j3tg$P9hd4pWDrHDLVbTN',#6,'Install roof structure',$,$,'3.5',$,$,$,.F.,$,#58,.CONSTRUCTION.);
#60=IFCTASKTIME('3. Fit-out Time',.PREDICTED.,$,.WORKTIME.,'P0Y0M5D','2027-03-01T07:00:00','2027-03-05T07:00:00','2027-04-07T07:00:00','2027-04-30T07:00:00','2027-04-07T07:00:00','2027-04-30T07:00:00','P0Y0M0D','P0Y0M0D',.T.,$,$,$,$,$,0.0);
#61=IFCTASK('3Fjd1P2Fyb5$avQltThHF1',#6,'3. Fit-out',$,$,'4',$,$,$,.F.,$,#60,.CONSTRUCTION.);
#62=IFCTASKTIME('Apply roofing Time',.PREDICTED.,$,.WORKTIME.,'P0Y0M3D','2027-03-01T07:00:00','2027-03-03T07:00:00','2027-04-07T07:00:00','2027-04-09T07:00:00','2027-04-07T07:00:00','2027-04-09T07:00:00','P0Y0M0D','P0Y0M0D',.T.,$,$,$,$,$,0.0);
#63=IFCTASK('AjZfWVRXzFyDiVHXZV7paf',#6,'Apply roofing',$,$,'4.1',$,$,$,.F.,$,#62,.CONSTRUCTION.);
#64=IFCTASKTIME('Install window frames Time',.PREDICTED.,$,.WORKTIME.,'P0Y0M4D','2027-03-01T07:00:00','2027-03-04T07:00:00','2027-04-12T07:00:00','2027-04-15T07:00:00','2027-04-12T07:00:00','2027-04-15T07:00:00','P0Y0M0D','P0Y0M0D',.T.,$,$,$,$,$,0.0);
#65=IFCTASK('aTm7FhLlXbjN37YnjbVp0f',#6,'Install window frames',$,$,'4.2',$,$,$,.F.,$,#64,.INSTALLATION.);
#66=IFCTASKTIME('Plastering Time',.PREDICTED.,$,.WORKTIME.,'P0Y0M5D','2027-03-01T07:00:00','2027-03-05T07:00:00','2027-04-16T07:00:00','2027-04-22T07:00:00','2027-04-16T07:00:00','2027-04-22T07:00:00','P0Y0M0D','P0Y0M0D',.T.,$,$,$,$,$,0.0);
#67=IFCTASK('FrFxo3Z1YjEBCh6H$TiJcL',#6,'Plastering',$,$,'4.3',$,$,$,.F.,$,#66,.CONSTRUCTION.);
#68=IFCTASKTIME('Tiling Time',.PREDICTED.,$,.WORKTIME.,'P0Y0M4D','2027-03-01T07:00:00','2027-03-04T07:00:00','2027-04-23T07:00:00','2027-04-29T07:00:00','2027-04-23T07:00:00','2027-04-29T07:00:00','P0Y0M0D','P0Y0M0D',.T.,$,$,$,$,$,0.0);
#69=IFCTASK('DrlRSninMxNxPTN1Bf_By7',#6,'Tiling',$,$,'4.4',$,$,$,.F.,$,#68,.INSTALLATION.);
#70=IFCTASKTIME('Painting Time',.PREDICTED.,$,.WORKTIME.,'P0Y0M3D','2027-03-01T07:00:00','2027-03-03T07:00:00','2027-04-28T07:00:00','2027-04-30T07:00:00','2027-04-28T07:00:00','2027-04-30T07:00:00','P0Y0M0D','P0Y0M0D',.T.,$,$,$,$,$,0.0);
#71=IFCTASK('vBcfSHmfIr7DqnHVF5hVSf',#6,'Painting',$,$,'4.5',$,$,$,.F.,$,#70,.CONSTRUCTION.);
#72=IFCTASKTIME('4. Handover Time',.PREDICTED.,$,.WORKTIME.,'P0Y0M5D','2027-03-01T07:00:00','2027-03-05T07:00:00','2027-05-03T07:00:00','2027-05-04T07:00:00','2027-05-03T07:00:00','2027-05-04T07:00:00','P0Y0M0D','P0Y0M0D',.T.,$,$,$,$,$,0.0);
#73=IFCTASK('zFztYtz$ufZ9DZnXTTqbn$',#6,'4. Handover',$,$,'5',$,$,$,.F.,$,#72,.ATTENDANCE.);
#74=IFCTASKTIME('Final cleaning Time',.PREDICTED.,$,.WORKTIME.,'P0Y0M1D','2027-03-01T07:00:00','2027-03-01T07:00:00','2027-05-03T07:00:00','2027-05-03T07:00:00','2027-05-03T07:00:00','2027-05-03T07:00:00','P0Y0M0D','P0Y0M0D',.T.,$,$,$,$,$,0.0);
#75=IFCTASK('0Fb1ozDXJt1xvDLH$3u$gp',#6,'Final cleaning',$,$,'5.1',$,$,$,.F.,$,#74,.LOGISTIC.);
#76=IFCTASKTIME('Handover inspection Time',.PREDICTED.,$,.WORKTIME.,'P0Y0M0D','2027-03-01T07:00:00','2027-03-01T07:00:00','2027-05-03T07:00:00','2027-05-03T07:00:00','2027-05-03T07:00:00','2027-05-03T07:00:00','P0Y0M0D','P0Y0M0D',.T.,$,$,$,$,$,0.0);
#77=IFCTASK('1FhHZNndvtQDqhQHbVB$gN',#6,'Handover inspection','Mandatory handover inspection; the deadline has ample margin (no conflict).',$,'5.2',$,$,$,.T.,$,#76,.CONSTRUCTION.);
#78=IFCTASKTIME('Final handover with the occupant Time',.PREDICTED.,$,.WORKTIME.,'P0Y0M1D','2027-03-01T07:00:00','2027-03-01T07:00:00','2027-05-04T07:00:00','2027-05-04T07:00:00','2027-05-04T07:00:00','2027-05-04T07:00:00','P0Y0M0D','P0Y0M0D',.T.,$,$,$,$,$,0.0);
#79=IFCTASK('E7U$Ut31S1PJkF5l4Bb$cF',#6,'Final handover with the occupant',$,$,'5.3',$,$,$,.F.,$,#78,.ATTENDANCE.);
#80=IFCRELNESTS('MzvBJ3JXlVkdGRe1u3$xrP',#6,'WBS 1. Preparation',$,#43,( #45,#47));
#81=IFCRELNESTS('sNwpplmNkrNTpnd1KD2BeZ',#6,'WBS 2. Foundations & structure',$,#49,( #51,#53,#55,#57,#59));
#82=IFCRELNESTS('4DoFNH8dfnXzRV3lIX7pmF',#6,'WBS 3. Fit-out',$,#61,( #63,#65,#67,#69,#71));
#83=IFCRELNESTS('4p_Vy1k9H1wjgNO1bbMfcl',#6,'WBS 4. Handover',$,#73,( #75,#77,#79));
#84=IFCRELNESTS('tjjP5r1vgdnD4TBHzDgTrv',#6,'WBS Hoofd',$,#37,(#41,#43,#49,#61,#73));
#85=IFCRELSEQUENCE('1pgP7LCnifEvgLQHdBarmF',#6,$,$,#41,#45,$,.FINISH_START.,$);
#86=IFCRELSEQUENCE('iRh1Mb3l5lBnrPIVITCD09',#6,$,$,#45,#47,$,.FINISH_START.,$);
#87=IFCRELSEQUENCE('H9KbmPEHzlmVUfaHfNAz7b',#6,$,$,#47,#51,$,.FINISH_START.,$);
#88=IFCRELSEQUENCE('fPuXW1HvS1$5hTDn5Bi5DD',#6,$,$,#51,#53,$,.FINISH_START.,$);
#89=IFCRELSEQUENCE('WVjvpD9NGZC5RrEXWNYLwx',#6,$,$,#53,#55,$,.FINISH_START.,$);
#90=IFCRELSEQUENCE('DP_rbXbVXxVztNu$oFTf21',#6,$,$,#55,#57,$,.FINISH_START.,$);
#91=IFCLAGTIME('Lag',.PREDICTED.,$,IFCDURATION('P2D'),.WORKTIME.);
#92=IFCRELSEQUENCE('tDPzM1Xd9BdJMf0X5F15xl',#6,$,$,#57,#59,#91,.START_START.,$);
#93=IFCRELSEQUENCE('vFd3MVzlfRjNbhonQdmf6R',#6,$,$,#59,#63,$,.FINISH_START.,$);
#94=IFCRELSEQUENCE('p7Y$AHHPdJILQzxnQzlBqn',#6,$,$,#63,#65,$,.FINISH_START.,$);
#95=IFCRELSEQUENCE('P$FpP5k973ed4zP1b5wjwX',#6,$,$,#65,#67,$,.FINISH_START.,$);
#96=IFCRELSEQUENCE('R$$TSpktxHRXgLQHnN2rqT',#6,$,$,#67,#69,$,.FINISH_START.,$);
#97=IFCRELSEQUENCE('IxdL$P_n0rFhkFZn2NEbZ9',#6,$,$,#67,#71,$,.FINISH_START.,$);
#98=IFCLAGTIME('Lag',.PREDICTED.,$,IFCDURATION('P1D'),.WORKTIME.);
#99=IFCRELSEQUENCE('Obm7R11Pt$1xthcHJbnZLt',#6,$,$,#69,#71,#98,.FINISH_FINISH.,$);
#100=IFCRELSEQUENCE('7Fnx27tNGDAHFPUVNjlzPB',#6,$,$,#71,#75,$,.FINISH_START.,$);
#101=IFCRELSEQUENCE('0l1B7P3lvZaBqFd1m1R1IL',#6,$,$,#75,#77,$,.FINISH_START.,$);
#102=IFCRELSEQUENCE('ktCxQtKXddiRRVpHpd4LIP',#6,$,$,#77,#79,$,.FINISH_START.,$);
#103=IFCRELASSIGNSTOCONTROL('rDVhNjbXHjyDCF$VkTSruD',#6,$,$,(#41,#43,#45,#47,#49,#51,#53,#55,#57,#59,#61,#63,#65,#67,#69,#71,#73,#75,#77,#79),$,#37);
#104=IFCPROPERTYSINGLEVALUE('wbsAutoNumber',$,IFCBOOLEAN(.T.),$);
#105=IFCPROPERTYSINGLEVALUE('ProjectStartDate',$,IFCDATE('2027-03-01'),$);
#106=IFCPROPERTYSINGLEVALUE('ProjectEndDate',$,$,$);
#107=IFCPROPERTYSINGLEVALUE('CreatedAt',$,IFCTEXT('2026-08-14T12:18:51.991Z'),$);
#108=IFCPROPERTYSINGLEVALUE('ModifiedAt',$,IFCTEXT('2026-08-14T12:18:51.993Z'),$);
#109=IFCPROPERTYSET('e5a3ArlP$tNZvpDF1ZK5n5',#6,'OPS_ProjectSettings',$,(#104,#105,#106,#107,#108));
#110=IFCRELDEFINESBYPROPERTIES('0Hdzo1sPJhdjQlBF$1BF9l',#6,$,$,(#13),#109);
#111=IFCPROPERTYSINGLEVALUE('ConstraintType',$,IFCLABEL('SNET'),$);
#112=IFCPROPERTYSINGLEVALUE('ConstraintDate',$,IFCDATE('2027-03-09'),$);
#113=IFCPROPERTYSET('xBoFrdElljyhwjHXdH5Vi1',#6,'OPS_Constraints',$,(#111,#112));
#114=IFCRELDEFINESBYPROPERTIES('_FrFNFiVLD6$y3VVYrZ9OL',#6,$,$,(#47),#113);
#115=IFCPROPERTYSINGLEVALUE('Deadline',$,IFCDATE('2027-05-24'),$);
#116=IFCPROPERTYSET('vL2BbVbXJ97Di5WXFx5lLJ',#6,'OPS_Constraints',$,(#115));
#117=IFCRELDEFINESBYPROPERTIES('0l9DXtyljh7pGb0X9T5XSt',#6,$,$,(#77),#116);
#118=IFCPROPERTYSINGLEVALUE('MilestoneKind',$,IFCLABEL('START'),$);
#119=IFCPROPERTYSET('tp7T4XkH5F$ZdZnVXl7Rz7',#6,'OPS_Milestone',$,(#118));
#120=IFCRELDEFINESBYPROPERTIES('UVJvTRM$gxHJ2jxn2xpdv9',#6,$,$,(#41),#119);
#121=IFCPROPERTYSINGLEVALUE('MilestoneKind',$,IFCLABEL('FINISH'),$);
#122=IFCPROPERTYSINGLEVALUE('Mandatory',$,IFCBOOLEAN(.T.),$);
#123=IFCPROPERTYSET('L7S3Q9a$IBXRb1v16JFZ5n',#6,'OPS_Milestone',$,(#121,#122));
#124=IFCRELDEFINESBYPROPERTIES('kbJv3BGfij4pSJpHvXbFn5',#6,$,$,(#77),#123);
#125=IFCPROPERTYSINGLEVALUE('Baselines',$,IFCTEXT('[{"id":"baseline-msswymtca0yl72","name":"Baseline plan","createdAt":"2026-08-14T12:18:52.032Z","tasks":[{"taskId":"task-msswyms9qn0936","start":"2027-03-01","finish":"2027-03-01","duration":0,"isMilestone":true,"milestoneKind":"START"},{"taskId":"task-msswymsambmx38","start":"2027-03-01","finish":"2027-03-02","duration":2,"isMilestone":false},{"taskId":"task-msswymsb7g8039","start":"2027-03-09","finish":"2027-03-11","duration":3,"isMilestone":false},{"taskId":"task-msswymsc2ycc41","start":"2027-03-12","finish":"2027-03-16","duration":3,"isMilestone":false},{"taskId":"task-msswymsdi6h842","start":"2027-03-17","finish":"2027-03-22","duration":4,"isMilestone":false},{"taskId":"task-msswymsewamc43","start":"2027-03-23","finish":"2027-03-25","duration":3,"isMilestone":false},{"taskId":"task-msswymseunak44","start":"2027-03-30","finish":"2027-04-06","duration":6,"isMilestone":false},{"taskId":"task-msswymsf6vh645","start":"2027-04-01","finish":"2027-04-06","duration":4,"isMilestone":false},{"taskId":"task-msswymsg09t847","start":"2027-04-07","finish":"2027-04-09","duration":3,"isMilestone":false},{"taskId":"task-msswymshknlf48","start":"2027-04-12","finish":"2027-04-15","duration":4,"isMilestone":false},{"taskId":"task-msswymsjmeyn49","start":"2027-04-16","finish":"2027-04-22","duration":5,"isMilestone":false},{"taskId":"task-msswymsk1i4050","start":"2027-04-23","finish":"2027-04-29","duration":4,"isMilestone":false},{"taskId":"task-msswymsl3wsm51","start":"2027-04-28","finish":"2027-04-30","duration":3,"isMilestone":false},{"taskId":"task-msswymsoncoz53","start":"2027-05-03","finish":"2027-05-03","duration":1,"isMilestone":false},{"taskId":"task-msswymsq101054","start":"2027-05-03","finish":"2027-05-03","duration":0,"isMilestone":true,"milestoneKind":"FINISH"},{"taskId":"task-msswymss2wjq55","start":"2027-05-04","finish":"2027-05-04","duration":1,"isMilestone":false}],"projectEnd":"2027-05-04","projectDuration":44}]'),$);
#126=IFCPROPERTYSINGLEVALUE('TaskGuids',$,IFCTEXT('{"task-msswyms9qn0936":"rfEbezT$cXQVAbGVyrzfIh","task-msswymsambmx38":"7rU$AB1vgdnDadIXwfwjkd","task-msswymsb7g8039":"3HfjL9S$oHp93Ru1gLeHNT","task-msswymsc2ycc41":"cbe$YbYFQJKznj5noFJvvb","task-msswymsdi6h842":"oP_B$ZOPh7uvInZF_tst0f","task-msswymsewamc43":"tfI5U5o9hDgFTLEFsRI1kr","task-msswymseunak44":"RxKbe5UfmjcDiXd$J96P1j","task-msswymsf6vh645":"8j3tg$P9hd4pWDrHDLVbTN","task-msswymsg09t847":"AjZfWVRXzFyDiVHXZV7paf","task-msswymshknlf48":"aTm7FhLlXbjN37YnjbVp0f","task-msswymsjmeyn49":"FrFxo3Z1YjEBCh6H$TiJcL","task-msswymsk1i4050":"DrlRSninMxNxPTN1Bf_By7","task-msswymsl3wsm51":"vBcfSHmfIr7DqnHVF5hVSf","task-msswymsoncoz53":"0Fb1ozDXJt1xvDLH$3u$gp","task-msswymsq101054":"1FhHZNndvtQDqhQHbVB$gN","task-msswymss2wjq55":"E7U$Ut31S1PJkF5l4Bb$cF"}'),$);
#127=IFCPROPERTYSINGLEVALUE('ActiveBaselineId',$,IFCTEXT('baseline-msswymtca0yl72'),$);
#128=IFCPROPERTYSET('XXh1w34HTJCTF7clPLWdrv',#6,'OPS_Baselines',$,(#125,#126,#127));
#129=IFCRELDEFINESBYPROPERTIES('Oz1Z43KV$BzN1$1VwJtr4B',#6,$,$,(#37),#128);
ENDSEC;
END-ISO-10303-21;
