ISO-10303-21;
HEADER;
FILE_DESCRIPTION(('ViewDefinition [SchedulingView]'),'2;1');
FILE_NAME('New-Build Canal House, Amsterdam.ifc','2026-07-28T14:38:23',('Jan de Vries'),('Amsterdam Construction BV'),'Open Planner Studio 0.1','Open Planner Studio','');
FILE_SCHEMA(('IFC4X3'));
ENDSEC;
DATA;
#1=IFCPERSON($,'Jan de Vries',$,$,$,$,$,$);
#2=IFCORGANIZATION($,'Amsterdam Construction BV',$,$,$);
#3=IFCPERSONANDORGANIZATION(#1,#2,$);
#4=IFCORGANIZATION($,'OpenAEC Foundation',$,$,$);
#5=IFCAPPLICATION(#4,'0.1','Open Planner Studio','OPS');
#6=IFCOWNERHISTORY(#3,#5,$,.NOCHANGE.,$,$,$,1785249503);
#7=IFCSIUNIT(*,.LENGTHUNIT.,$,.METRE.);
#8=IFCSIUNIT(*,.TIMEUNIT.,$,.SECOND.);
#9=IFCUNITASSIGNMENT((#7,#8));
#10=IFCCARTESIANPOINT((0.,0.,0.));
#11=IFCAXIS2PLACEMENT3D(#10,$,$);
#12=IFCGEOMETRICREPRESENTATIONCONTEXT($,'Plan',3,1.0E-05,#11,$);
#13=IFCPROJECT('nhBF77vtbBtzZLwlt7Cbfz',#6,'New-Build Canal House, Amsterdam','New three-storey canal house with basement',$,$,$,(#12),#9);
#14=IFCTIMEPERIOD('07:00:00','16:00:00');
#15=IFCRECURRENCEPATTERN(.WEEKLY.,$,(1,2,3,4,5),$,$,$,$,(#14));
#16=IFCWORKTIME('Standard work week',.PREDICTED.,$,#15,$,$);
#17=IFCWORKTIME('New Year''s Day',.PREDICTED.,$,$,'2027-01-01','2027-01-01');
#18=IFCWORKTIME('Good Friday',.PREDICTED.,$,$,'2027-03-26','2027-03-26');
#19=IFCWORKTIME('Easter',.PREDICTED.,$,$,'2027-03-28','2027-03-29');
#20=IFCWORKTIME('King''s Day',.PREDICTED.,$,$,'2027-04-27','2027-04-27');
#21=IFCWORKTIME('Liberation Day',.PREDICTED.,$,$,'2027-05-05','2027-05-05');
#22=IFCWORKTIME('Ascension Day',.PREDICTED.,$,$,'2027-05-06','2027-05-06');
#23=IFCWORKTIME('Whitsun',.PREDICTED.,$,$,'2027-05-16','2027-05-17');
#24=IFCWORKTIME('Christmas',.PREDICTED.,$,$,'2027-12-25','2027-12-26');
#25=IFCWORKTIME('Construction holiday (northern region)',.PREDICTED.,$,$,'2027-07-26','2027-08-15');
#26=IFCWORKTIME('New Year''s Day',.PREDICTED.,$,$,'2028-01-01','2028-01-01');
#27=IFCWORKTIME('Good Friday',.PREDICTED.,$,$,'2028-04-14','2028-04-14');
#28=IFCWORKTIME('Easter',.PREDICTED.,$,$,'2028-04-16','2028-04-17');
#29=IFCWORKTIME('King''s Day',.PREDICTED.,$,$,'2028-04-27','2028-04-27');
#30=IFCWORKTIME('Liberation Day',.PREDICTED.,$,$,'2028-05-05','2028-05-05');
#31=IFCWORKTIME('Ascension Day',.PREDICTED.,$,$,'2028-05-25','2028-05-25');
#32=IFCWORKTIME('Whitsun',.PREDICTED.,$,$,'2028-06-04','2028-06-05');
#33=IFCWORKTIME('Christmas',.PREDICTED.,$,$,'2028-12-25','2028-12-26');
#34=IFCWORKTIME('Construction holiday (northern region)',.PREDICTED.,$,$,'2028-07-24','2028-08-13');
#35=IFCWORKCALENDAR('_HlbW$VPl1Yxnv_nBDbFBd',#6,'Construction calendar NL','Standard construction calendar: Mon-Fri 07:00-16:00',$,(#16),(#17,#18,#19,#20,#21,#22,#23,#24,#25,#26,#27,#28,#29,#30,#31,#32,#33,#34),.FIRSTSHIFT.);
#36=IFCWORKPLAN('tJz9YN17cjSjELAHG1T9ip',#6,'New-Build Canal House, Amsterdam','New three-storey canal house with basement',$,$,'2026-07-28T14:38:23',$,$,$,$,$,'2027-03-01T07:00:00','2027-03-19T07:00:00',.PLANNED.);
#37=IFCWORKSCHEDULE('Kb39IlGNEHD9RXplPlhl3d',#6,'Construction schedule v1.0',$,$,$,'2026-07-28T14:38:23',$,$,$,$,$,'2027-03-01T07:00:00','2027-03-19T07:00:00',.PLANNED.);
#38=IFCRELAGGREGATES('X$Ph9TPtbVDd8te$ftI1sz',#6,$,$,#36,(#37));
#39=IFCTASKTIME('1. Preparation Time',.PREDICTED.,$,.WORKTIME.,'P0Y0M5D','2027-03-01T07:00:00','2027-03-05T07:00:00','2027-03-01T07:00:00','2027-04-05T07:00:00','2027-03-01T07:00:00','2028-01-12T07:00:00','P0Y0M0D','P0Y0M0D',.T.,$,$,$,$,$,0.0);
#40=IFCTASK('Ox4B3r8PRhxVg9ClcT5VSx',#6,'1. Preparation',$,$,'1',$,$,$,.F.,$,#39,.CONSTRUCTION.);
#41=IFCTASKTIME('Set up site Time',.PREDICTED.,$,.WORKTIME.,'P0Y0M5D','2027-03-01T07:00:00','2027-03-05T07:00:00','2027-03-01T07:00:00','2027-03-05T07:00:00','2027-03-01T07:00:00','2027-03-05T07:00:00','P0Y0M0D','P0Y0M0D',.T.,$,$,$,$,$,0.0);
#42=IFCTASK('TzqpV941a1PjkFxlSRlzj$',#6,'Set up site',$,$,'1.1',$,$,$,.F.,$,#41,.LOGISTIC.);
#43=IFCTASKTIME('Install sheet piling Time',.PREDICTED.,$,.WORKTIME.,'P0Y0M10D','2027-03-01T07:00:00','2027-03-12T07:00:00','2027-03-08T07:00:00','2027-03-19T07:00:00','2027-12-17T07:00:00','2027-12-30T07:00:00','P0Y0M0D','P0Y0M183D',.F.,$,$,$,$,$,0.0);
#44=IFCTASK('1HHb0H$v_zO91BoXORMNUF',#6,'Install sheet piling',$,$,'1.2',$,$,$,.F.,$,#43,.CONSTRUCTION.);
#45=IFCTASKTIME('Install dewatering Time',.PREDICTED.,$,.WORKTIME.,'P0Y0M5D','2027-03-01T07:00:00','2027-03-05T07:00:00','2027-03-22T07:00:00','2027-03-30T07:00:00','2027-12-31T07:00:00','2028-01-06T07:00:00','P0Y0M0D','P0Y0M183D',.F.,$,$,$,$,$,0.0);
#46=IFCTASK('7H5VCxtNePFpedYVvxk5Pv',#6,'Install dewatering',$,$,'1.3',$,$,$,.F.,$,#45,.INSTALLATION.);
#47=IFCTASKTIME('Carry out soil investigation Time',.PREDICTED.,$,.WORKTIME.,'P0Y0M3D','2027-03-01T07:00:00','2027-03-03T07:00:00','2027-03-31T07:00:00','2027-04-02T07:00:00','2028-01-07T07:00:00','2028-01-11T07:00:00','P0Y0M0D','P0Y0M183D',.F.,$,$,$,$,$,0.0);
#48=IFCTASK('TTO$AHPtpbJf$VjHvx6j2z',#6,'Carry out soil investigation',$,$,'1.4',$,$,$,.F.,$,#47,.CONSTRUCTION.);
#49=IFCTASKTIME('Start of construction Time',.PREDICTED.,$,.WORKTIME.,'P0Y0M0D','2027-03-01T07:00:00','2027-03-01T07:00:00','2027-04-05T07:00:00','2027-04-05T07:00:00','2028-01-12T07:00:00','2028-01-12T07:00:00','P0Y0M183D','P0Y0M183D',.F.,$,$,$,$,$,0.0);
#50=IFCTASK('$nBFB7wvgdXzTB2VBj7RDF',#6,'Start of construction',$,$,'1.5',$,$,$,.T.,$,#49,.CONSTRUCTION.);
#51=IFCTASKTIME('2. Foundations & basement Time',.PREDICTED.,$,.WORKTIME.,'P0Y0M5D','2027-03-01T07:00:00','2027-03-05T07:00:00','2027-03-17T07:00:00','2027-06-14T07:00:00','2027-03-17T07:00:00','2028-01-12T07:00:00','P0Y0M0D','P0Y0M0D',.T.,$,$,$,$,$,0.0);
#52=IFCTASK('pBd3Y5YNipePm5ilOxYLk7',#6,'2. Foundations & basement',$,$,'2',$,$,$,.F.,$,#51,.CONSTRUCTION.);
#53=IFCTASKTIME('Excavate building pit Time',.PREDICTED.,$,.WORKTIME.,'P0Y0M10D','2027-03-01T07:00:00','2027-03-12T07:00:00','2027-03-17T07:00:00','2027-04-01T07:00:00','2027-03-17T07:00:00','2027-04-01T07:00:00','P0Y0M0D','P0Y0M0D',.T.,$,$,$,$,$,0.0);
#54=IFCTASK('$F5Xex2fA91xzP2V1TaByd',#6,'Excavate building pit',$,$,'2.1',$,$,$,.F.,$,#53,.CONSTRUCTION.);
#55=IFCTASKTIME('Drive foundation piles Time',.PREDICTED.,$,.WORKTIME.,'P0Y0M15D','2027-03-01T07:00:00','2027-03-19T07:00:00','2027-04-02T07:00:00','2027-04-22T07:00:00','2027-11-08T07:00:00','2027-11-26T07:00:00','P0Y0M0D','P0Y0M137D',.F.,$,$,$,$,$,0.0);
#56=IFCTASK('tJJPhjs10hhl1XTlSxJv7b',#6,'Drive foundation piles',$,$,'2.2',$,$,$,.F.,$,#55,.CONSTRUCTION.);
#57=IFCTASKTIME('Rebar fixing, basement Time',.PREDICTED.,$,.WORKTIME.,'P0Y0M8D','2027-03-01T07:00:00','2027-03-10T07:00:00','2027-04-23T07:00:00','2027-05-07T07:00:00','2027-11-29T07:00:00','2027-12-08T07:00:00','P0Y0M0D','P0Y0M137D',.F.,$,$,$,$,$,0.0);
#58=IFCTASK('S3ijr7UNi9Uxl9e$Rx2rO3',#6,'Rebar fixing, basement',$,$,'2.3',$,$,$,.F.,$,#57,.CONSTRUCTION.);
#59=IFCTASKTIME('Pour basement floor Time',.PREDICTED.,$,.WORKTIME.,'P0Y0M5D','2027-03-01T07:00:00','2027-03-05T07:00:00','2027-05-10T07:00:00','2027-05-14T07:00:00','2027-12-09T07:00:00','2027-12-15T07:00:00','P0Y0M0D','P0Y0M137D',.F.,$,$,$,$,$,0.0);
#60=IFCTASK('gviReTffKD0nV50XTTSreB',#6,'Pour basement floor',$,$,'2.4',$,$,$,.F.,$,#59,.CONSTRUCTION.);
#61=IFCTASKTIME('Pour basement walls Time',.PREDICTED.,$,.WORKTIME.,'P0Y0M10D','2027-03-01T07:00:00','2027-03-12T07:00:00','2027-05-18T07:00:00','2027-05-31T07:00:00','2027-12-16T07:00:00','2027-12-29T07:00:00','P0Y0M0D','P0Y0M137D',.F.,$,$,$,$,$,0.0);
#62=IFCTASK('D7onbVZlpPnDyNe$K1trCn',#6,'Pour basement walls',$,$,'2.5',$,$,$,.F.,$,#61,.CONSTRUCTION.);
#63=IFCTASKTIME('Basement waterproofing Time',.PREDICTED.,$,.WORKTIME.,'P0Y0M5D','2027-03-01T07:00:00','2027-03-05T07:00:00','2027-06-01T07:00:00','2027-06-07T07:00:00','2027-12-30T07:00:00','2028-01-05T07:00:00','P0Y0M0D','P0Y0M137D',.F.,$,$,$,$,$,0.0);
#64=IFCTASK('RxC5o331S$fZ9LEnQZ3fot',#6,'Basement waterproofing',$,$,'2.6',$,$,$,.F.,$,#63,.CONSTRUCTION.);
#65=IFCTASKTIME('Backfill building pit Time',.PREDICTED.,$,.WORKTIME.,'P0Y0M5D','2027-03-01T07:00:00','2027-03-05T07:00:00','2027-06-08T07:00:00','2027-06-14T07:00:00','2028-01-06T07:00:00','2028-01-12T07:00:00','P0Y0M137D','P0Y0M137D',.F.,$,$,$,$,$,0.0);
#66=IFCTASK('ivC5sLDXx5tRFDHVrDRF9F',#6,'Backfill building pit',$,$,'2.7',$,$,$,.F.,$,#65,.LOGISTIC.);
#67=IFCTASKTIME('3. Structural works Time',.PREDICTED.,$,.WORKTIME.,'P0Y0M5D','2027-03-01T07:00:00','2027-03-05T07:00:00','2027-03-23T07:00:00','2027-07-09T07:00:00','2027-03-23T07:00:00','2028-01-12T07:00:00','P0Y0M0D','P0Y0M0D',.T.,$,$,$,$,$,0.0);
#68=IFCTASK('9fwpPbkHfbZPe7glcTrFlr',#6,'3. Structural works',$,$,'3',$,$,$,.F.,$,#67,.CONSTRUCTION.);
#69=IFCTASKTIME('Ground floor masonry Time',.PREDICTED.,$,.WORKTIME.,'P0Y0M12D','2027-03-01T07:00:00','2027-03-16T07:00:00','2027-03-23T07:00:00','2027-04-09T07:00:00','2027-03-23T07:00:00','2027-04-09T07:00:00','P0Y0M0D','P0Y0M0D',.T.,$,$,$,$,$,0.0);
#70=IFCTASK('X11T8JxVnluvsPYVF9_H9j',#6,'Ground floor masonry',$,$,'3.1',$,$,$,.F.,$,#69,.CONSTRUCTION.);
#71=IFCTASKTIME('First floor slab Time',.PREDICTED.,$,.WORKTIME.,'P0Y0M5D','2027-03-01T07:00:00','2027-03-05T07:00:00','2027-04-12T07:00:00','2027-04-16T07:00:00','2027-04-12T07:00:00','2027-04-16T07:00:00','P0Y0M0D','P0Y0M0D',.T.,$,$,$,$,$,0.0);
#72=IFCTASK('$HVh3vXdFnibDzrnlP4TbV',#6,'First floor slab',$,$,'3.2',$,$,$,.F.,$,#71,.CONSTRUCTION.);
#73=IFCTASKTIME('First floor masonry Time',.PREDICTED.,$,.WORKTIME.,'P0Y0M10D','2027-03-01T07:00:00','2027-03-12T07:00:00','2027-04-19T07:00:00','2027-05-03T07:00:00','2027-04-19T07:00:00','2027-05-03T07:00:00','P0Y0M0D','P0Y0M0D',.T.,$,$,$,$,$,0.0);
#74=IFCTASK('S$t56zaHn3_tb$FVfJH3Hl',#6,'First floor masonry',$,$,'3.3',$,$,$,.F.,$,#73,.CONSTRUCTION.);
#75=IFCTASKTIME('Second floor slab Time',.PREDICTED.,$,.WORKTIME.,'P0Y0M5D','2027-03-01T07:00:00','2027-03-05T07:00:00','2027-05-04T07:00:00','2027-05-12T07:00:00','2027-05-04T07:00:00','2027-05-12T07:00:00','P0Y0M0D','P0Y0M0D',.T.,$,$,$,$,$,0.0);
#76=IFCTASK('TXDP3PpFkLrF3xin6ppd1J',#6,'Second floor slab',$,$,'3.4',$,$,$,.F.,$,#75,.CONSTRUCTION.);
#77=IFCTASKTIME('Second floor masonry Time',.PREDICTED.,$,.WORKTIME.,'P0Y0M10D','2027-03-01T07:00:00','2027-03-12T07:00:00','2027-05-13T07:00:00','2027-05-27T07:00:00','2027-05-13T07:00:00','2027-05-27T07:00:00','P0Y0M0D','P0Y0M0D',.T.,$,$,$,$,$,0.0);
#78=IFCTASK('xBwtslP93zMntf8$J5ztyh',#6,'Second floor masonry',$,$,'3.5',$,$,$,.F.,$,#77,.CONSTRUCTION.);
#79=IFCTASKTIME('Third floor slab Time',.PREDICTED.,$,.WORKTIME.,'P0Y0M5D','2027-03-01T07:00:00','2027-03-05T07:00:00','2027-05-28T07:00:00','2027-06-03T07:00:00','2027-05-28T07:00:00','2027-06-03T07:00:00','P0Y0M0D','P0Y0M0D',.T.,$,$,$,$,$,0.0);
#80=IFCTASK('KRJvjzT$ALnhQn71QZ3NIh',#6,'Third floor slab',$,$,'3.6',$,$,$,.F.,$,#79,.CONSTRUCTION.);
#81=IFCTASKTIME('Third floor masonry Time',.PREDICTED.,$,.WORKTIME.,'P0Y0M8D','2027-03-01T07:00:00','2027-03-10T07:00:00','2027-06-04T07:00:00','2027-06-15T07:00:00','2027-06-04T07:00:00','2027-06-15T07:00:00','P0Y0M0D','P0Y0M0D',.T.,$,$,$,$,$,0.0);
#82=IFCTASK('Dh39gVL1obbV6pznORYFrv',#6,'Third floor masonry',$,$,'3.7',$,$,$,.F.,$,#81,.CONSTRUCTION.);
#83=IFCTASKTIME('Timber roof structure Time',.PREDICTED.,$,.WORKTIME.,'P0Y0M10D','2027-03-01T07:00:00','2027-03-12T07:00:00','2027-06-16T07:00:00','2027-06-29T07:00:00','2027-06-16T07:00:00','2027-06-29T07:00:00','P0Y0M0D','P0Y0M0D',.T.,$,$,$,$,$,0.0);
#84=IFCTASK('zDEFdNFdfF$TVnrHL7Cbdr',#6,'Timber roof structure',$,$,'3.8',$,$,$,.F.,$,#83,.CONSTRUCTION.);
#85=IFCTASKTIME('Roofing Time',.PREDICTED.,$,.WORKTIME.,'P0Y0M8D','2027-03-01T07:00:00','2027-03-10T07:00:00','2027-06-30T07:00:00','2027-07-09T07:00:00','2027-06-30T07:00:00','2027-07-09T07:00:00','P0Y0M0D','P0Y0M0D',.T.,$,$,$,$,$,0.0);
#86=IFCTASK('2HXhLjM$g5HJIx81s$tr0t',#6,'Roofing',$,$,'3.9',$,$,$,.F.,$,#85,.CONSTRUCTION.);
#87=IFCTASKTIME('Topping out Time',.PREDICTED.,$,.WORKTIME.,'P0Y0M0D','2027-03-01T07:00:00','2027-03-01T07:00:00','2027-07-09T07:00:00','2027-07-09T07:00:00','2028-01-12T07:00:00','2028-01-12T07:00:00','P0Y0M118D','P0Y0M118D',.F.,$,$,$,$,$,0.0);
#88=IFCTASK('FBn5gRbXfFXzZrQ$2RFTFx',#6,'Topping out',$,$,'3.10',$,$,$,.T.,$,#87,.CONSTRUCTION.);
#89=IFCTASKTIME('4. Facade & roof Time',.PREDICTED.,$,.WORKTIME.,'P0Y0M5D','2027-03-01T07:00:00','2027-03-05T07:00:00','2027-06-21T07:00:00','2027-09-01T07:00:00','2027-06-21T07:00:00','2028-01-12T07:00:00','P0Y0M0D','P0Y0M0D',.T.,$,$,$,$,$,0.0);
#90=IFCTASK('_l7Zm7c7uXgnlZDFRxEbZ9',#6,'4. Facade & roof',$,$,'4',$,$,$,.F.,$,#89,.CONSTRUCTION.);
#91=IFCTASKTIME('Facade insulation Time',.PREDICTED.,$,.WORKTIME.,'P0Y0M8D','2027-03-01T07:00:00','2027-03-10T07:00:00','2027-06-21T07:00:00','2027-06-30T07:00:00','2027-06-21T07:00:00','2027-06-30T07:00:00','P0Y0M0D','P0Y0M0D',.T.,$,$,$,$,$,0.0);
#92=IFCTASK('J57rlx9fynPBCHBnRXJ7PL',#6,'Facade insulation',$,$,'4.1',$,$,$,.F.,$,#91,.INSTALLATION.);
#93=IFCTASKTIME('Natural stone cladding Time',.PREDICTED.,$,.WORKTIME.,'P0Y0M15D','2027-03-01T07:00:00','2027-03-19T07:00:00','2027-07-01T07:00:00','2027-07-21T07:00:00','2027-07-01T07:00:00','2027-07-21T07:00:00','P0Y0M0D','P0Y0M0D',.T.,$,$,$,$,$,0.0);
#94=IFCTASK('hd0tcDUNi9kLoBs1NtcvLD',#6,'Natural stone cladding',$,$,'4.2',$,$,$,.F.,$,#93,.CONSTRUCTION.);
#95=IFCTASKTIME('Install window frames Time',.PREDICTED.,$,.WORKTIME.,'P0Y0M10D','2027-03-01T07:00:00','2027-03-12T07:00:00','2027-07-22T07:00:00','2027-08-25T07:00:00','2027-07-22T07:00:00','2027-08-25T07:00:00','P0Y0M0D','P0Y0M0D',.T.,$,$,$,$,$,0.0);
#96=IFCTASK('cxKJdNtfshnhIbCHs$dxZ5',#6,'Install window frames',$,$,'4.3',$,$,$,.F.,$,#95,.INSTALLATION.);
#97=IFCTASKTIME('Glazing Time',.PREDICTED.,$,.WORKTIME.,'P0Y0M5D','2027-03-01T07:00:00','2027-03-05T07:00:00','2027-08-26T07:00:00','2027-09-01T07:00:00','2027-08-26T07:00:00','2027-09-01T07:00:00','P0Y0M0D','P0Y0M0D',.T.,$,$,$,$,$,0.0);
#98=IFCTASK('MvSz2LqX9rNTtr2XdndjsT',#6,'Glazing',$,$,'4.4',$,$,$,.F.,$,#97,.INSTALLATION.);
#99=IFCTASKTIME('Wind and weathertight Time',.PREDICTED.,$,.WORKTIME.,'P0Y0M0D','2027-03-01T07:00:00','2027-03-01T07:00:00','2027-09-01T07:00:00','2027-09-01T07:00:00','2028-01-12T07:00:00','2028-01-12T07:00:00','P0Y0M95D','P0Y0M95D',.F.,$,$,$,$,$,0.0);
#100=IFCTASK('_HP3YbA$SBJvUf4nrfQp0N',#6,'Wind and weathertight',$,$,'4.5',$,$,$,.T.,$,#99,.CONSTRUCTION.);
#101=IFCTASKTIME('5. Building services Time',.PREDICTED.,$,.WORKTIME.,'P0Y0M5D','2027-03-01T07:00:00','2027-03-05T07:00:00','2027-09-02T07:00:00','2027-10-21T07:00:00','2027-09-02T07:00:00','2028-01-12T07:00:00','P0Y0M0D','P0Y0M0D',.T.,$,$,$,$,$,0.0);
#102=IFCTASK('6lR$2Lincpm1qhknyvixBd',#6,'5. Building services',$,$,'5',$,$,$,.F.,$,#101,.INSTALLATION.);
#103=IFCTASKTIME('Electrical first fix Time',.PREDICTED.,$,.WORKTIME.,'P0Y0M10D','2027-03-01T07:00:00','2027-03-12T07:00:00','2027-09-02T07:00:00','2027-09-15T07:00:00','2027-09-02T07:00:00','2027-09-15T07:00:00','P0Y0M0D','P0Y0M0D',.T.,$,$,$,$,$,0.0);
#104=IFCTASK('_FDvt$MPtVhlxb4nRVxHzv',#6,'Electrical first fix',$,$,'5.1',$,$,$,.F.,$,#103,.INSTALLATION.);
#105=IFCTASKTIME('Plumbing first fix Time',.PREDICTED.,$,.WORKTIME.,'P0Y0M8D','2027-03-01T07:00:00','2027-03-10T07:00:00','2027-09-16T07:00:00','2027-09-27T07:00:00','2027-12-08T07:00:00','2027-12-17T07:00:00','P0Y0M0D','P0Y0M59D',.F.,$,$,$,$,$,0.0);
#106=IFCTASK('HxXzQNW9ZpePiRSHxrSr47',#6,'Plumbing first fix',$,$,'5.2',$,$,$,.F.,$,#105,.INSTALLATION.);
#107=IFCTASKTIME('Heating installation Time',.PREDICTED.,$,.WORKTIME.,'P0Y0M10D','2027-03-01T07:00:00','2027-03-12T07:00:00','2027-09-21T07:00:00','2027-10-04T07:00:00','2027-12-13T07:00:00','2027-12-24T07:00:00','P0Y0M0D','P0Y0M59D',.F.,$,$,$,$,$,0.0);
#108=IFCTASK('aVTNSFCVrfQVELslqHhH1t',#6,'Heating installation',$,$,'5.3',$,$,$,.F.,$,#107,.INSTALLATION.);
#109=IFCTASKTIME('Ventilation system Time',.PREDICTED.,$,.WORKTIME.,'P0Y0M8D','2027-03-01T07:00:00','2027-03-10T07:00:00','2027-10-05T07:00:00','2027-10-14T07:00:00','2027-12-27T07:00:00','2028-01-05T07:00:00','P0Y0M0D','P0Y0M59D',.F.,$,$,$,$,$,0.0);
#110=IFCTASK('O5a3snrl$fTt99yHZzmter',#6,'Ventilation system',$,$,'5.4',$,$,$,.F.,$,#109,.INSTALLATION.);
#111=IFCTASKTIME('Home automation cabling Time',.PREDICTED.,$,.WORKTIME.,'P0Y0M5D','2027-03-01T07:00:00','2027-03-05T07:00:00','2027-10-15T07:00:00','2027-10-21T07:00:00','2028-01-06T07:00:00','2028-01-12T07:00:00','P0Y0M59D','P0Y0M59D',.F.,$,$,$,$,$,0.0);
#112=IFCTASK('cRmdHVbXD7bXAbWXhz7DSf',#6,'Home automation cabling',$,$,'5.5',$,$,$,.F.,$,#111,.INSTALLATION.);
#113=IFCTASKTIME('6. Fit-out Time',.PREDICTED.,$,.WORKTIME.,'P0Y0M5D','2027-03-01T07:00:00','2027-03-05T07:00:00','2027-10-01T07:00:00','2027-12-28T07:00:00','2027-10-01T07:00:00','2027-12-28T07:00:00','P0Y0M0D','P0Y0M0D',.T.,$,$,$,$,$,0.0);
#114=IFCTASK('9pvZ0FjVvZaJclBF3DszVd',#6,'6. Fit-out',$,$,'6',$,$,$,.F.,$,#113,.CONSTRUCTION.);
#115=IFCTASKTIME('Internal walls Time',.PREDICTED.,$,.WORKTIME.,'P0Y0M10D','2027-03-01T07:00:00','2027-03-12T07:00:00','2027-10-01T07:00:00','2027-10-14T07:00:00','2027-10-01T07:00:00','2027-10-14T07:00:00','P0Y0M0D','P0Y0M0D',.T.,$,$,$,$,$,0.0);
#116=IFCTASK('NT39gbZlv9MzL90VZz0vnX',#6,'Internal walls',$,$,'6.1',$,$,$,.F.,$,#115,.CONSTRUCTION.);
#117=IFCTASKTIME('Plastering Time',.PREDICTED.,$,.WORKTIME.,'P0Y0M12D','2027-03-01T07:00:00','2027-03-16T07:00:00','2027-10-15T07:00:00','2027-11-01T07:00:00','2027-10-15T07:00:00','2027-11-01T07:00:00','P0Y0M0D','P0Y0M0D',.T.,$,$,$,$,$,0.0);
#118=IFCTASK('Edgz6ds1W5Vzhtu$DrJ79J',#6,'Plastering',$,$,'6.2',$,$,$,.F.,$,#117,.CONSTRUCTION.);
#119=IFCTASKTIME('Bathroom tiling Time',.PREDICTED.,$,.WORKTIME.,'P0Y0M8D','2027-03-01T07:00:00','2027-03-10T07:00:00','2027-11-02T07:00:00','2027-11-11T07:00:00','2027-11-02T07:00:00','2027-11-11T07:00:00','P0Y0M0D','P0Y0M0D',.T.,$,$,$,$,$,0.0);
#120=IFCTASK('qhztUf17c$EBWpzFK17bjV',#6,'Bathroom tiling',$,$,'6.3',$,$,$,.F.,$,#119,.CONSTRUCTION.);
#121=IFCTASKTIME('Screed floors Time',.PREDICTED.,$,.WORKTIME.,'P0Y0M5D','2027-03-01T07:00:00','2027-03-05T07:00:00','2027-11-12T07:00:00','2027-11-18T07:00:00','2027-11-12T07:00:00','2027-11-18T07:00:00','P0Y0M0D','P0Y0M0D',.T.,$,$,$,$,$,0.0);
#122=IFCTASK('W$$TWXpF6nqTpFd$4d0v9j',#6,'Screed floors',$,$,'6.4',$,$,$,.F.,$,#121,.CONSTRUCTION.);
#123=IFCTASKTIME('Painting Time',.PREDICTED.,$,.WORKTIME.,'P0Y0M10D','2027-03-01T07:00:00','2027-03-12T07:00:00','2027-11-19T07:00:00','2027-12-02T07:00:00','2027-11-19T07:00:00','2027-12-02T07:00:00','P0Y0M0D','P0Y0M0D',.T.,$,$,$,$,$,0.0);
#124=IFCTASK('r9Y$oVQVp5tRpzzHkZCpiD',#6,'Painting',$,$,'6.5',$,$,$,.F.,$,#123,.CONSTRUCTION.);
#125=IFCTASKTIME('Install kitchen Time',.PREDICTED.,$,.WORKTIME.,'P0Y0M5D','2027-03-01T07:00:00','2027-03-05T07:00:00','2027-12-03T07:00:00','2027-12-09T07:00:00','2027-12-03T07:00:00','2027-12-09T07:00:00','P0Y0M0D','P0Y0M0D',.T.,$,$,$,$,$,0.0);
#126=IFCTASK('VTuF3hCFuXovsxKl07WPR1',#6,'Install kitchen',$,$,'6.6',$,$,$,.F.,$,#125,.INSTALLATION.);
#127=IFCTASKTIME('Second-fix sanitary fittings Time',.PREDICTED.,$,.WORKTIME.,'P0Y0M5D','2027-03-01T07:00:00','2027-03-05T07:00:00','2027-12-10T07:00:00','2027-12-16T07:00:00','2027-12-10T07:00:00','2027-12-16T07:00:00','P0Y0M0D','P0Y0M0D',.T.,$,$,$,$,$,0.0);
#128=IFCTASK('kxHjd9LHP7WHlfKliVLVm$',#6,'Second-fix sanitary fittings',$,$,'6.7',$,$,$,.F.,$,#127,.INSTALLATION.);
#129=IFCTASKTIME('Floor finishes Time',.PREDICTED.,$,.WORKTIME.,'P0Y0M8D','2027-03-01T07:00:00','2027-03-10T07:00:00','2027-12-17T07:00:00','2027-12-28T07:00:00','2027-12-17T07:00:00','2027-12-28T07:00:00','P0Y0M0D','P0Y0M0D',.T.,$,$,$,$,$,0.0);
#130=IFCTASK('ohTN4Zu7Md7hgfWVPHZ9W7',#6,'Floor finishes',$,$,'6.8',$,$,$,.F.,$,#129,.CONSTRUCTION.);
#131=IFCTASKTIME('7. Handover Time',.PREDICTED.,$,.WORKTIME.,'P0Y0M5D','2027-03-01T07:00:00','2027-03-05T07:00:00','2027-12-29T07:00:00','2028-01-12T07:00:00','2027-12-29T07:00:00','2028-01-12T07:00:00','P0Y0M0D','P0Y0M0D',.T.,$,$,$,$,$,0.0);
#132=IFCTASK('R1npb5XdbXJv6XVVQdWPFx',#6,'7. Handover',$,$,'7',$,$,$,.F.,$,#131,.CONSTRUCTION.);
#133=IFCTASKTIME('Construct outdoor areas Time',.PREDICTED.,$,.WORKTIME.,'P0Y0M5D','2027-03-01T07:00:00','2027-03-05T07:00:00','2027-12-29T07:00:00','2028-01-04T07:00:00','2027-12-29T07:00:00','2028-01-04T07:00:00','P0Y0M0D','P0Y0M0D',.T.,$,$,$,$,$,0.0);
#134=IFCTASK('AjjP371dZVE7s76HzlvR5h',#6,'Construct outdoor areas',$,$,'7.1',$,$,$,.F.,$,#133,.CONSTRUCTION.);
#135=IFCTASKTIME('Cleaning Time',.PREDICTED.,$,.WORKTIME.,'P0Y0M3D','2027-03-01T07:00:00','2027-03-03T07:00:00','2028-01-05T07:00:00','2028-01-07T07:00:00','2028-01-05T07:00:00','2028-01-07T07:00:00','P0Y0M0D','P0Y0M0D',.T.,$,$,$,$,$,0.0);
#136=IFCTASK('6BIlTNFPFzQVsvMlQPmfwX',#6,'Cleaning',$,$,'7.2',$,$,$,.F.,$,#135,.LOGISTIC.);
#137=IFCTASKTIME('Final inspection of services Time',.PREDICTED.,$,.WORKTIME.,'P0Y0M3D','2027-03-01T07:00:00','2027-03-03T07:00:00','2028-01-10T07:00:00','2028-01-12T07:00:00','2028-01-10T07:00:00','2028-01-12T07:00:00','P0Y0M0D','P0Y0M0D',.T.,$,$,$,$,$,0.0);
#138=IFCTASK('0nR$AnLlzFqZJXN$2f2ry7',#6,'Final inspection of services',$,$,'7.3',$,$,$,.F.,$,#137,.CONSTRUCTION.);
#139=IFCTASKTIME('Handover Time',.PREDICTED.,$,.WORKTIME.,'P0Y0M0D','2027-03-01T07:00:00','2027-03-01T07:00:00','2028-01-12T07:00:00','2028-01-12T07:00:00','2028-01-12T07:00:00','2028-01-12T07:00:00','P0Y0M0D','P0Y0M0D',.T.,$,$,$,$,$,0.0);
#140=IFCTASK('RbWfCd5X9hzNlNCFK$FZFR',#6,'Handover',$,$,'7.4',$,$,$,.T.,$,#139,.CONSTRUCTION.);
#141=IFCRELNESTS('lN0tY9T$ERptxF5H0vGteh',#6,'WBS 1. Preparation',$,#40,( #42,#44,#46,#48,#50));
#142=IFCRELNESTS('wHJPvL4H7z0nRXpHxrSrOB',#6,'WBS 2. Foundations & basement',$,#52,( #54,#56,#58,#60,#62,#64,#66));
#143=IFCRELNESTS('GPwD5rFPlD0Fnpd10ParSb',#6,'WBS 3. Structural works',$,#68,( #70,#72,#74,#76,#78,#80,#82,#84,#86,#88));
#144=IFCRELNESTS('5LsZuhyHBt2bnjjltzPjQL',#6,'WBS 4. Facade & roof',$,#90,( #92,#94,#96,#98,#100));
#145=IFCRELNESTS('$DEnfniFQJSr8HFVbVLViJ',#6,'WBS 5. Building services',$,#102,( #104,#106,#108,#110,#112));
#146=IFCRELNESTS('_FD7pjzHrtEryNGVGl$jgf',#6,'WBS 6. Fit-out',$,#114,( #116,#118,#120,#122,#124,#126,#128,#130));
#147=IFCRELNESTS('Uza3kl09lJ4pmLsHiDYhIr',#6,'WBS 7. Handover',$,#132,( #134,#136,#138,#140));
#148=IFCRELNESTS('tjjP5r1vgdnD4TBHzDgTrv',#6,'WBS Hoofd',$,#37,(#40,#52,#68,#90,#102,#114,#132));
#149=IFCRELSEQUENCE('h7KjLN0tv9cpullVtPeVql',#6,$,$,#42,#44,$,.FINISH_START.,$);
#150=IFCRELSEQUENCE('R$VzID1P1L1xJ$jnzpwJox',#6,$,$,#44,#46,$,.FINISH_START.,$);
#151=IFCRELSEQUENCE('db8FrP2FyFljA5alNtUFdd',#6,$,$,#46,#48,$,.FINISH_START.,$);
#152=IFCRELSEQUENCE('bVZNOREHJtdjsv_FrDpdtl',#6,$,$,#48,#50,$,.FINISH_START.,$);
#153=IFCRELSEQUENCE('_FD7BP2F89dJ_jLFp7WPZx',#6,$,$,#54,#56,$,.FINISH_START.,$);
#154=IFCRELSEQUENCE('T3CxQ9iVjNBnVxO$R5gTNX',#6,$,$,#56,#58,$,.FINISH_START.,$);
#155=IFCRELSEQUENCE('cRWNapsd1NhHrpVXuh0vtp',#6,$,$,#58,#60,$,.FINISH_START.,$);
#156=IFCRELSEQUENCE('PxiRK9jXdJQp0Tf1dB4Lwb',#6,$,$,#60,#62,$,.FINISH_START.,$);
#157=IFCRELSEQUENCE('H5$TuJDFcjypCrkV_RNL_X',#6,$,$,#62,#64,$,.FINISH_START.,$);
#158=IFCRELSEQUENCE('wFHRC77tbLzfnvglAR_HBT',#6,$,$,#64,#66,$,.FINISH_START.,$);
#159=IFCRELSEQUENCE('jfel5BXv89NZfbGXC3WdLf',#6,$,$,#70,#72,$,.FINISH_START.,$);
#160=IFCRELSEQUENCE('5roFNl09HpG1qlBFBN_B4v',#6,$,$,#72,#74,$,.FINISH_START.,$);
#161=IFCRELSEQUENCE('BtY1klW9BtMzR$VX0vWPxF',#6,$,$,#74,#76,$,.FINISH_START.,$);
#162=IFCRELSEQUENCE('sNYLnl79t$NZNRmXyrDdXz',#6,$,$,#76,#78,$,.FINISH_START.,$);
#163=IFCRELSEQUENCE('5Hz9kJzlR$nLcZd1GXlBuJ',#6,$,$,#78,#80,$,.FINISH_START.,$);
#164=IFCRELSEQUENCE('OxijzrePthBFzbu1tzt3tD',#6,$,$,#80,#82,$,.FINISH_START.,$);
#165=IFCRELSEQUENCE('PXL1Ijh1Q1AZpn$VQdG98p',#6,$,$,#82,#84,$,.FINISH_START.,$);
#166=IFCRELSEQUENCE('Jta3o$gdNHbXsPIVoJEV0f',#6,$,$,#84,#86,$,.FINISH_START.,$);
#167=IFCRELSEQUENCE('NzV3Qt41u$AZlt8$25bnf$',#6,$,$,#86,#88,$,.FINISH_START.,$);
#168=IFCRELSEQUENCE('xnVL7BWtVdX33x4FTZCRpF',#6,$,$,#92,#94,$,.FINISH_START.,$);
#169=IFCRELSEQUENCE('7L6DJXs1ahPJARWVn5Dd$D',#6,$,$,#94,#96,$,.FINISH_START.,$);
#170=IFCRELSEQUENCE('oPcjFLz14ndBad2XBjVp4d',#6,$,$,#96,#98,$,.FINISH_START.,$);
#171=IFCRELSEQUENCE('exqxwzqFevZPi5mVwjdxtF',#6,$,$,#98,#100,$,.FINISH_START.,$);
#172=IFCRELSEQUENCE('YzazsBnP3lGVoVRnObEXCl',#6,$,$,#104,#106,$,.FINISH_START.,$);
#173=IFCLAGTIME('Lag',.PREDICTED.,$,IFCDURATION('P3D'),.WORKTIME.);
#174=IFCRELSEQUENCE('VVTNSDotJfb1e7EnQva3Pr',#6,$,$,#106,#108,#173,.START_START.,$);
#175=IFCRELSEQUENCE('0l7Tap_fcjKbB7_Fv1XDqH',#6,$,$,#108,#110,$,.FINISH_START.,$);
#176=IFCRELSEQUENCE('i74T4VolJNpPqFlVPF93Zt',#6,$,$,#110,#112,$,.FINISH_START.,$);
#177=IFCRELSEQUENCE('Ix95_d5XPpcVo$f$93nhUn',#6,$,$,#116,#118,$,.FINISH_START.,$);
#178=IFCRELSEQUENCE('mNm7bXRXHJaJEr2Xrpz9OZ',#6,$,$,#118,#120,$,.FINISH_START.,$);
#179=IFCRELSEQUENCE('vHrFVpYNarb18nBHTTCD4L',#6,$,$,#120,#122,$,.FINISH_START.,$);
#180=IFCRELSEQUENCE('fvq52rmfSLHBWjHXHrTte3',#6,$,$,#122,#124,$,.FINISH_START.,$);
#181=IFCRELSEQUENCE('4n7Z41gdtVLHDl5FMHrFvt',#6,$,$,#124,#126,$,.FINISH_START.,$);
#182=IFCRELSEQUENCE('U$PLBziV$hvDqnVVm1zNI7',#6,$,$,#126,#128,$,.FINISH_START.,$);
#183=IFCRELSEQUENCE('2nz9ctCXZD0FRXxFcz1xzh',#6,$,$,#128,#130,$,.FINISH_START.,$);
#184=IFCRELSEQUENCE('XTGP5rnPJf3fbhQH$XXbDn',#6,$,$,#134,#136,$,.FINISH_START.,$);
#185=IFCRELSEQUENCE('wn$rzB0tzFCT5RqnGHP5vN',#6,$,$,#136,#138,$,.FINISH_START.,$);
#186=IFCRELSEQUENCE('PbGvNnCV$fJ7YTzFij6PJT',#6,$,$,#138,#140,$,.FINISH_START.,$);
#187=IFCLAGTIME('Lag',.PREDICTED.,$,IFCDURATION('P12D'),.WORKTIME.);
#188=IFCRELSEQUENCE('6HrFflmNKfgnFjRFKJEVa5',#6,$,$,#42,#54,#187,.START_START.,$);
#189=IFCLAGTIME('Lag',.PREDICTED.,$,IFCRATIOMEASURE(0.4),.WORKTIME.);
#190=IFCRELSEQUENCE('Z$7rzBe7eddr0TVVqnHrG$',#6,$,$,#54,#70,#189,.START_START.,$);
#191=IFCLAGTIME('Lag',.PREDICTED.,$,IFCDURATION('-P15D'),.WORKTIME.);
#192=IFCRELSEQUENCE('ZzC5o$_N6HWllf4HnNk5xF',#6,$,$,#86,#92,#191,.FINISH_START.,$);
#193=IFCLAGTIME('Lag',.PREDICTED.,$,IFCDURATION('P2D'),.WORKTIME.);
#194=IFCRELSEQUENCE('bxiJ9Xol3lGV_p1VQ74TN1',#6,$,$,#86,#98,#193,.FINISH_FINISH.,$);
#195=IFCRELSEQUENCE('ovA7LtS1ILrn3bu15nNT5l',#6,$,$,#98,#104,$,.FINISH_START.,$);
#196=IFCLAGTIME('Lag',.PREDICTED.,$,IFCDURATION('P21D'),.WORKTIME.);
#197=IFCRELSEQUENCE('sts73hCVjhnhcZVViJYF9l',#6,$,$,#104,#116,#196,.START_START.,$);
#198=IFCRELSEQUENCE('TVzt_d3Hz3ovYzVXgByZBv',#6,$,$,#130,#134,$,.FINISH_START.,$);
#199=IFCRELASSIGNSTOCONTROL('rDVhNjbXHjyDCF$VkTSruD',#6,$,$,(#40,#42,#44,#46,#48,#50,#52,#54,#56,#58,#60,#62,#64,#66,#68,#70,#72,#74,#76,#78,#80,#82,#84,#86,#88,#90,#92,#94,#96,#98,#100,#102,#104,#106,#108,#110,#112,#114,#116,#118,#120,#122,#124,#126,#128,#130,#132,#134,#136,#138,#140),$,#37);
#200=IFCPROPERTYSINGLEVALUE('wbsAutoNumber',$,IFCBOOLEAN(.T.),$);
#201=IFCPROPERTYSINGLEVALUE('ProjectStartDate',$,IFCDATE('2027-03-01'),$);
#202=IFCPROPERTYSINGLEVALUE('ProjectEndDate',$,$,$);
#203=IFCPROPERTYSINGLEVALUE('CreatedAt',$,IFCTEXT('2026-07-28T14:38:23.480Z'),$);
#204=IFCPROPERTYSINGLEVALUE('ModifiedAt',$,IFCTEXT('2026-07-28T14:38:23.481Z'),$);
#205=IFCPROPERTYSET('e5a3ArlP$tNZvpDF1ZK5n5',#6,'OPS_ProjectSettings',$,(#200,#201,#202,#203,#204));
#206=IFCRELDEFINESBYPROPERTIES('0Hdzo1sPJhdjQlBF$1BF9l',#6,$,$,(#13),#205);
#207=IFCPROPERTYSINGLEVALUE('MilestoneKind',$,IFCLABEL('START'),$);
#208=IFCPROPERTYSET('hvqD$PUnYDQVYT3FGVHrip',#6,'OPS_Milestone',$,(#207));
#209=IFCRELDEFINESBYPROPERTIES('Ix$ZKhxnGZaB03pHPFFLMJ',#6,$,$,(#50),#208);
#210=IFCPROPERTYSINGLEVALUE('MilestoneKind',$,IFCLABEL('FINISH'),$);
#211=IFCPROPERTYSET('T1t52LKV9XrFX5WXpdazDF',#6,'OPS_Milestone',$,(#210));
#212=IFCRELDEFINESBYPROPERTIES('4j6DzvtfG38fDHRF8LWdlr',#6,$,$,(#88),#211);
#213=IFCPROPERTYSINGLEVALUE('MilestoneKind',$,IFCLABEL('FINISH'),$);
#214=IFCPROPERTYSET('Md8XyzS1Q$IhInpndlDdDD',#6,'OPS_Milestone',$,(#213));
#215=IFCRELDEFINESBYPROPERTIES('l5lJZRIH1f5X2jxFMLeVuR',#6,$,$,(#100),#214);
#216=IFCPROPERTYSINGLEVALUE('MilestoneKind',$,IFCLABEL('FINISH'),$);
#217=IFCPROPERTYSINGLEVALUE('Mandatory',$,IFCBOOLEAN(.T.),$);
#218=IFCPROPERTYSET('HR39Uf$7636$KVv1XHVpGX',#6,'OPS_Milestone',$,(#216,#217));
#219=IFCRELDEFINESBYPROPERTIES('8jpvdN7ttVzfnPoXK$$jo9',#6,$,$,(#140),#218);
ENDSEC;
END-ISO-10303-21;
