ISO-10303-21;
HEADER;
FILE_DESCRIPTION(('ViewDefinition [SchedulingView]'),'2;1');
FILE_NAME('Renovation of De Regenboog Primary School.ifc','2026-07-28T14:38:23',('Petra Jansen'),('SchoolBuild Netherlands'),'Open Planner Studio 0.1','Open Planner Studio','');
FILE_SCHEMA(('IFC4X3'));
ENDSEC;
DATA;
#1=IFCPERSON($,'Petra Jansen',$,$,$,$,$,$);
#2=IFCORGANIZATION($,'SchoolBuild Netherlands',$,$,$);
#3=IFCPERSONANDORGANIZATION(#1,#2,$);
#4=IFCORGANIZATION($,'OpenAEC Foundation',$,$,$);
#5=IFCAPPLICATION(#4,'0.1','Open Planner Studio','OPS');
#6=IFCOWNERHISTORY(#3,#5,$,.NOCHANGE.,$,$,$,1785249503);
#7=IFCSIUNIT(*,.LENGTHUNIT.,$,.METRE.);
#8=IFCSIUNIT(*,.TIMEUNIT.,$,.SECOND.);
#9=IFCUNITASSIGNMENT((#7,#8));
#10=IFCCARTESIANPOINT((0.,0.,0.));
#11=IFCAXIS2PLACEMENT3D(#10,$,$);
#12=IFCGEOMETRICREPRESENTATIONCONTEXT($,'Plan',3,1.0E-05,#11,$);
#13=IFCPROJECT('pdwpPb_FGzuNn7kFKVJ7XP',#6,'Renovation of De Regenboog Primary School','Energy-efficiency renovation and extension of a primary school',$,$,$,(#12),#9);
#14=IFCTIMEPERIOD('07:00:00','16:00:00');
#15=IFCRECURRENCEPATTERN(.WEEKLY.,$,(1,2,3,4,5),$,$,$,$,(#14));
#16=IFCWORKTIME('Standard work week',.PREDICTED.,$,#15,$,$);
#17=IFCWORKTIME('New Year''s Day',.PREDICTED.,$,$,'2027-01-01','2027-01-01');
#18=IFCWORKTIME('Good Friday',.PREDICTED.,$,$,'2027-03-26','2027-03-26');
#19=IFCWORKTIME('Easter',.PREDICTED.,$,$,'2027-03-28','2027-03-29');
#20=IFCWORKTIME('King''s Day',.PREDICTED.,$,$,'2027-04-27','2027-04-27');
#21=IFCWORKTIME('Liberation Day',.PREDICTED.,$,$,'2027-05-05','2027-05-05');
#22=IFCWORKTIME('Ascension Day',.PREDICTED.,$,$,'2027-05-06','2027-05-06');
#23=IFCWORKTIME('Whitsun',.PREDICTED.,$,$,'2027-05-16','2027-05-17');
#24=IFCWORKTIME('Christmas',.PREDICTED.,$,$,'2027-12-25','2027-12-26');
#25=IFCWORKTIME('Construction holiday (northern region)',.PREDICTED.,$,$,'2027-07-26','2027-08-15');
#26=IFCWORKTIME('New Year''s Day',.PREDICTED.,$,$,'2028-01-01','2028-01-01');
#27=IFCWORKTIME('Good Friday',.PREDICTED.,$,$,'2028-04-14','2028-04-14');
#28=IFCWORKTIME('Easter',.PREDICTED.,$,$,'2028-04-16','2028-04-17');
#29=IFCWORKTIME('King''s Day',.PREDICTED.,$,$,'2028-04-27','2028-04-27');
#30=IFCWORKTIME('Liberation Day',.PREDICTED.,$,$,'2028-05-05','2028-05-05');
#31=IFCWORKTIME('Ascension Day',.PREDICTED.,$,$,'2028-05-25','2028-05-25');
#32=IFCWORKTIME('Whitsun',.PREDICTED.,$,$,'2028-06-04','2028-06-05');
#33=IFCWORKTIME('Christmas',.PREDICTED.,$,$,'2028-12-25','2028-12-26');
#34=IFCWORKTIME('Construction holiday (northern region)',.PREDICTED.,$,$,'2028-07-24','2028-08-13');
#35=IFCWORKCALENDAR('_HlbW$VPl1Yxnv_nBDbFBd',#6,'Construction calendar NL','Standard construction calendar: Mon-Fri 07:00-16:00',$,(#16),(#17,#18,#19,#20,#21,#22,#23,#24,#25,#26,#27,#28,#29,#30,#31,#32,#33,#34),.FIRSTSHIFT.);
#36=IFCWORKPLAN('R$HJJTHP7ZCTVl71nfQDCH',#6,'Renovation of De Regenboog Primary School','Energy-efficiency renovation and extension of a primary school',$,$,'2026-07-28T14:38:23',$,$,$,$,$,'2027-03-01T07:00:00','2027-03-12T07:00:00',.PLANNED.);
#37=IFCWORKSCHEDULE('uDNJxHff8NpdyTDnHhlrOh',#6,'Construction schedule v1.0',$,$,$,'2026-07-28T14:38:23',$,$,$,$,$,'2027-03-01T07:00:00','2027-03-12T07:00:00',.PLANNED.);
#38=IFCRELAGGREGATES('X$Ph9TPtbVDd8te$ftI1sz',#6,$,$,#36,(#37));
#39=IFCTASKTIME('1. Preparation Time',.PREDICTED.,$,.WORKTIME.,'P0Y0M5D','2027-03-01T07:00:00','2027-03-05T07:00:00','2027-03-01T07:00:00','2027-03-16T07:00:00','2027-03-01T07:00:00','2027-09-06T07:00:00','P0Y0M0D','P0Y0M0D',.T.,$,$,$,$,$,0.0);
#40=IFCTASK('p7cNO5ktthzfbrIVITCDiX',#6,'1. Preparation',$,$,'1',$,$,$,.F.,$,#39,.CONSTRUCTION.);
#41=IFCTASKTIME('Asbestos survey Time',.PREDICTED.,$,.WORKTIME.,'P0Y0M3D','2027-03-01T07:00:00','2027-03-03T07:00:00','2027-03-01T07:00:00','2027-03-03T07:00:00','2027-03-01T07:00:00','2027-03-03T07:00:00','P0Y0M0D','P0Y0M0D',.T.,$,$,$,$,$,0.0);
#42=IFCTASK('CrXhpFy1yn7h2JLFbbMNkP',#6,'Asbestos survey',$,$,'1.1',$,$,$,.F.,$,#41,.CONSTRUCTION.);
#43=IFCTASKTIME('Set up temporary accommodation Time',.PREDICTED.,$,.WORKTIME.,'P0Y0M5D','2027-03-01T07:00:00','2027-03-05T07:00:00','2027-03-04T07:00:00','2027-03-10T07:00:00','2027-08-25T07:00:00','2027-08-31T07:00:00','P0Y0M0D','P0Y0M103D',.F.,$,$,$,$,$,0.0);
#44=IFCTASK('S3ibeRoHzHOt$h_nlLlrq3',#6,'Set up temporary accommodation',$,$,'1.2',$,$,$,.F.,$,#43,.LOGISTIC.);
#45=IFCTASKTIME('Set up site Time',.PREDICTED.,$,.WORKTIME.,'P0Y0M3D','2027-03-01T07:00:00','2027-03-03T07:00:00','2027-03-11T07:00:00','2027-03-15T07:00:00','2027-09-01T07:00:00','2027-09-03T07:00:00','P0Y0M0D','P0Y0M103D',.F.,$,$,$,$,$,0.0);
#46=IFCTASK('Mde$IFy$0L5X6pTFIXtzdr',#6,'Set up site',$,$,'1.3',$,$,$,.F.,$,#45,.LOGISTIC.);
#47=IFCTASKTIME('Start of renovation Time',.PREDICTED.,$,.WORKTIME.,'P0Y0M0D','2027-03-01T07:00:00','2027-03-01T07:00:00','2027-03-16T07:00:00','2027-03-16T07:00:00','2027-09-06T07:00:00','2027-09-06T07:00:00','P0Y0M103D','P0Y0M103D',.F.,$,$,$,$,$,0.0);
#48=IFCTASK('TZunZ5_f_fw$4tqn4Pm9yP',#6,'Start of renovation',$,$,'1.4',$,$,$,.T.,$,#47,.CONSTRUCTION.);
#49=IFCTASKTIME('2. Demolition & strip-out Time',.PREDICTED.,$,.WORKTIME.,'P0Y0M5D','2027-03-01T07:00:00','2027-03-05T07:00:00','2027-03-09T07:00:00','2027-04-15T07:00:00','2027-03-09T07:00:00','2027-09-06T07:00:00','P0Y0M0D','P0Y0M0D',.T.,$,$,$,$,$,0.0);
#50=IFCTASK('vHb12PDnUPK3dn1VYrJ7lF',#6,'2. Demolition & strip-out',$,$,'2',$,$,$,.F.,$,#49,.DEMOLITION.);
#51=IFCTASKTIME('Asbestos removal Time',.PREDICTED.,$,.WORKTIME.,'P0Y0M5D','2027-03-01T07:00:00','2027-03-05T07:00:00','2027-03-09T07:00:00','2027-03-15T07:00:00','2027-03-09T07:00:00','2027-03-15T07:00:00','P0Y0M0D','P0Y0M0D',.T.,$,$,$,$,$,0.0);
#52=IFCTASK('I94BLNOP73Ot3xqnObYFF5',#6,'Asbestos removal',$,$,'2.1',$,$,$,.F.,$,#51,.DEMOLITION.);
#53=IFCTASKTIME('Strip out interior Time',.PREDICTED.,$,.WORKTIME.,'P0Y0M8D','2027-03-01T07:00:00','2027-03-10T07:00:00','2027-03-16T07:00:00','2027-03-25T07:00:00','2027-07-19T07:00:00','2027-08-18T07:00:00','P0Y0M0D','P0Y0M83D',.F.,$,$,$,$,$,0.0);
#54=IFCTASK('8LoRKhRF23e9zbe1GF39aN',#6,'Strip out interior',$,$,'2.2',$,$,$,.F.,$,#53,.DEMOLITION.);
#55=IFCTASKTIME('Demolish internal walls Time',.PREDICTED.,$,.WORKTIME.,'P0Y0M5D','2027-03-01T07:00:00','2027-03-05T07:00:00','2027-03-30T07:00:00','2027-04-05T07:00:00','2027-08-19T07:00:00','2027-08-25T07:00:00','P0Y0M0D','P0Y0M83D',.F.,$,$,$,$,$,0.0);
#56=IFCTASK('VT09o1w7QXw$qlLn$TyZ7t',#6,'Demolish internal walls',$,$,'2.3',$,$,$,.F.,$,#55,.DEMOLITION.);
#57=IFCTASKTIME('Remove roofing Time',.PREDICTED.,$,.WORKTIME.,'P0Y0M5D','2027-03-01T07:00:00','2027-03-05T07:00:00','2027-04-06T07:00:00','2027-04-12T07:00:00','2027-08-26T07:00:00','2027-09-01T07:00:00','P0Y0M0D','P0Y0M83D',.F.,$,$,$,$,$,0.0);
#58=IFCTASK('N39xYtpVLj_RJDblc7yZn5',#6,'Remove roofing',$,$,'2.4',$,$,$,.F.,$,#57,.DEMOLITION.);
#59=IFCTASKTIME('Remove window frames Time',.PREDICTED.,$,.WORKTIME.,'P0Y0M3D','2027-03-01T07:00:00','2027-03-03T07:00:00','2027-04-13T07:00:00','2027-04-15T07:00:00','2027-09-02T07:00:00','2027-09-06T07:00:00','P0Y0M83D','P0Y0M83D',.F.,$,$,$,$,$,0.0);
#60=IFCTASK('MTL$U9xnWRZPiXv$5lR1_1',#6,'Remove window frames',$,$,'2.5',$,$,$,.F.,$,#59,.DEMOLITION.);
#61=IFCTASKTIME('3. Structural works Time',.PREDICTED.,$,.WORKTIME.,'P0Y0M5D','2027-03-01T07:00:00','2027-03-05T07:00:00','2027-03-11T07:00:00','2027-04-29T07:00:00','2027-03-11T07:00:00','2027-04-29T07:00:00','P0Y0M0D','P0Y0M0D',.T.,$,$,$,$,$,0.0);
#62=IFCTASK('YzyTyZOdRXT9z5CF0PS3Rx',#6,'3. Structural works',$,$,'3',$,$,$,.F.,$,#61,.CONSTRUCTION.);
#63=IFCTASKTIME('Foundation repair Time',.PREDICTED.,$,.WORKTIME.,'P0Y0M5D','2027-03-01T07:00:00','2027-03-05T07:00:00','2027-03-11T07:00:00','2027-03-17T07:00:00','2027-03-11T07:00:00','2027-03-17T07:00:00','P0Y0M0D','P0Y0M0D',.T.,$,$,$,$,$,0.0);
#64=IFCTASK('AtU$sBPtfRhlJ$hHp7eXaN',#6,'Foundation repair',$,$,'3.1',$,$,$,.F.,$,#63,.CONSTRUCTION.);
#65=IFCTASKTIME('Structural steel strengthening Time',.PREDICTED.,$,.WORKTIME.,'P0Y0M8D','2027-03-01T07:00:00','2027-03-10T07:00:00','2027-03-18T07:00:00','2027-03-31T07:00:00','2027-03-18T07:00:00','2027-03-31T07:00:00','P0Y0M0D','P0Y0M0D',.T.,$,$,$,$,$,0.0);
#66=IFCTASK('9fcJdf79p7Jfn76lnxZfcH',#6,'Structural steel strengthening',$,$,'3.2',$,$,$,.F.,$,#65,.CONSTRUCTION.);
#67=IFCTASKTIME('New roof structure Time',.PREDICTED.,$,.WORKTIME.,'P0Y0M10D','2027-03-01T07:00:00','2027-03-12T07:00:00','2027-04-01T07:00:00','2027-04-14T07:00:00','2027-04-01T07:00:00','2027-04-14T07:00:00','P0Y0M0D','P0Y0M0D',.T.,$,$,$,$,$,0.0);
#68=IFCTASK('OZh$Ijr$8N5XgfWV71H3PL',#6,'New roof structure',$,$,'3.3',$,$,$,.F.,$,#67,.CONSTRUCTION.);
#69=IFCTASKTIME('Extension masonry Time',.PREDICTED.,$,.WORKTIME.,'P0Y0M10D','2027-03-01T07:00:00','2027-03-12T07:00:00','2027-04-15T07:00:00','2027-04-29T07:00:00','2027-04-15T07:00:00','2027-04-29T07:00:00','P0Y0M0D','P0Y0M0D',.T.,$,$,$,$,$,0.0);
#70=IFCTASK('9NM3cfu7EFtb35Sn1zOlBz',#6,'Extension masonry',$,$,'3.4',$,$,$,.F.,$,#69,.CONSTRUCTION.);
#71=IFCTASKTIME('4. Facade & roof Time',.PREDICTED.,$,.WORKTIME.,'P0Y0M5D','2027-03-01T07:00:00','2027-03-05T07:00:00','2027-04-20T07:00:00','2027-05-31T07:00:00','2027-04-20T07:00:00','2027-09-06T07:00:00','P0Y0M0D','P0Y0M0D',.T.,$,$,$,$,$,0.0);
#72=IFCTASK('qhztQpEtD7z7sxqH29I1ob',#6,'4. Facade & roof',$,$,'4',$,$,$,.F.,$,#71,.CONSTRUCTION.);
#73=IFCTASKTIME('External facade insulation Time',.PREDICTED.,$,.WORKTIME.,'P0Y0M10D','2027-03-01T07:00:00','2027-03-12T07:00:00','2027-04-20T07:00:00','2027-05-04T07:00:00','2027-04-20T07:00:00','2027-05-04T07:00:00','P0Y0M0D','P0Y0M0D',.T.,$,$,$,$,$,0.0);
#74=IFCTASK('m9qD5LRFkV3f1Xxnoj6Phf',#6,'External facade insulation',$,$,'4.1',$,$,$,.F.,$,#73,.INSTALLATION.);
#75=IFCTASKTIME('New HR++ window frames Time',.PREDICTED.,$,.WORKTIME.,'P0Y0M8D','2027-03-01T07:00:00','2027-03-10T07:00:00','2027-05-07T07:00:00','2027-05-19T07:00:00','2027-05-07T07:00:00','2027-05-19T07:00:00','P0Y0M0D','P0Y0M0D',.T.,$,$,$,$,$,0.0);
#76=IFCTASK('e54BTRA1OdPBuNKF6N_BuR',#6,'New HR++ window frames',$,$,'4.2',$,$,$,.F.,$,#75,.INSTALLATION.);
#77=IFCTASKTIME('Roof insulation and roofing Time',.PREDICTED.,$,.WORKTIME.,'P0Y0M8D','2027-03-01T07:00:00','2027-03-10T07:00:00','2027-05-20T07:00:00','2027-05-31T07:00:00','2027-05-20T07:00:00','2027-05-31T07:00:00','P0Y0M0D','P0Y0M0D',.T.,$,$,$,$,$,0.0);
#78=IFCTASK('hzlJL9yHPpMnD3hFNNgTpD',#6,'Roof insulation and roofing',$,$,'4.3',$,$,$,.F.,$,#77,.CONSTRUCTION.);
#79=IFCTASKTIME('Wind and weathertight Time',.PREDICTED.,$,.WORKTIME.,'P0Y0M0D','2027-03-01T07:00:00','2027-03-01T07:00:00','2027-05-31T07:00:00','2027-05-31T07:00:00','2027-09-06T07:00:00','2027-09-06T07:00:00','P0Y0M55D','P0Y0M55D',.F.,$,$,$,$,$,0.0);
#80=IFCTASK('KduVebklrNcX27onsbwP1j',#6,'Wind and weathertight',$,$,'4.4',$,$,$,.T.,$,#79,.CONSTRUCTION.);
#81=IFCTASKTIME('5. Building services Time',.PREDICTED.,$,.WORKTIME.,'P0Y0M5D','2027-03-01T07:00:00','2027-03-05T07:00:00','2027-06-01T07:00:00','2027-07-08T07:00:00','2027-06-01T07:00:00','2027-09-06T07:00:00','P0Y0M0D','P0Y0M0D',.T.,$,$,$,$,$,0.0);
#82=IFCTASK('Bplbe5_NAhfTDnnX3DwjMN',#6,'5. Building services',$,$,'5',$,$,$,.F.,$,#81,.INSTALLATION.);
#83=IFCTASKTIME('Renew electrical installation Time',.PREDICTED.,$,.WORKTIME.,'P0Y0M8D','2027-03-01T07:00:00','2027-03-10T07:00:00','2027-06-01T07:00:00','2027-06-10T07:00:00','2027-06-01T07:00:00','2027-06-10T07:00:00','P0Y0M0D','P0Y0M0D',.T.,$,$,$,$,$,0.0);
#84=IFCTASK('oBn5IjL1QXkPqhYnrtc7j1',#6,'Renew electrical installation',$,$,'5.1',$,$,$,.F.,$,#83,.INSTALLATION.);
#85=IFCTASKTIME('Install heat pump Time',.PREDICTED.,$,.WORKTIME.,'P0Y0M5D','2027-03-01T07:00:00','2027-03-05T07:00:00','2027-06-11T07:00:00','2027-06-17T07:00:00','2027-07-20T07:00:00','2027-08-16T07:00:00','P0Y0M0D','P0Y0M27D',.F.,$,$,$,$,$,0.0);
#86=IFCTASK('jxfRifvtv9wj6$rHdBKx9n',#6,'Install heat pump',$,$,'5.2',$,$,$,.F.,$,#85,.INSTALLATION.);
#87=IFCTASKTIME('Underfloor heating Time',.PREDICTED.,$,.WORKTIME.,'P0Y0M8D','2027-03-01T07:00:00','2027-03-10T07:00:00','2027-06-15T07:00:00','2027-06-24T07:00:00','2027-07-22T07:00:00','2027-08-23T07:00:00','P0Y0M0D','P0Y0M27D',.F.,$,$,$,$,$,0.0);
#88=IFCTASK('FPYLFlfNqv0FN7wHXDs3HH',#6,'Underfloor heating',$,$,'5.3',$,$,$,.F.,$,#87,.INSTALLATION.);
#89=IFCTASKTIME('Heat recovery ventilation Time',.PREDICTED.,$,.WORKTIME.,'P0Y0M5D','2027-03-01T07:00:00','2027-03-05T07:00:00','2027-06-25T07:00:00','2027-07-01T07:00:00','2027-08-24T07:00:00','2027-08-30T07:00:00','P0Y0M0D','P0Y0M27D',.F.,$,$,$,$,$,0.0);
#90=IFCTASK('IfGvH5Xd3zQVU3N$MHLl3v',#6,'Heat recovery ventilation',$,$,'5.4',$,$,$,.F.,$,#89,.INSTALLATION.);
#91=IFCTASKTIME('Solar panels Time',.PREDICTED.,$,.WORKTIME.,'P0Y0M5D','2027-03-01T07:00:00','2027-03-05T07:00:00','2027-07-02T07:00:00','2027-07-08T07:00:00','2027-08-31T07:00:00','2027-09-06T07:00:00','P0Y0M27D','P0Y0M27D',.F.,$,$,$,$,$,0.0);
#92=IFCTASK('zHFx672fcD8NjVd1Z1b$cr',#6,'Solar panels',$,$,'5.5',$,$,$,.F.,$,#91,.INSTALLATION.);
#93=IFCTASKTIME('6. Fit-out Time',.PREDICTED.,$,.WORKTIME.,'P0Y0M5D','2027-03-01T07:00:00','2027-03-05T07:00:00','2027-06-23T07:00:00','2027-08-23T07:00:00','2027-06-23T07:00:00','2027-08-23T07:00:00','P0Y0M0D','P0Y0M0D',.T.,$,$,$,$,$,0.0);
#94=IFCTASK('qLZfmPg$YjEribiH474L2Z',#6,'6. Fit-out',$,$,'6',$,$,$,.F.,$,#93,.CONSTRUCTION.);
#95=IFCTASKTIME('Install internal walls Time',.PREDICTED.,$,.WORKTIME.,'P0Y0M8D','2027-03-01T07:00:00','2027-03-10T07:00:00','2027-06-23T07:00:00','2027-07-02T07:00:00','2027-06-23T07:00:00','2027-07-02T07:00:00','P0Y0M0D','P0Y0M0D',.T.,$,$,$,$,$,0.0);
#96=IFCTASK('8jR$AH17_fw$uH$XOjXDqH',#6,'Install internal walls',$,$,'6.1',$,$,$,.F.,$,#95,.CONSTRUCTION.);
#97=IFCTASKTIME('Ceilings Time',.PREDICTED.,$,.WORKTIME.,'P0Y0M5D','2027-03-01T07:00:00','2027-03-05T07:00:00','2027-07-05T07:00:00','2027-07-09T07:00:00','2027-07-05T07:00:00','2027-07-09T07:00:00','P0Y0M0D','P0Y0M0D',.T.,$,$,$,$,$,0.0);
#98=IFCTASK('P5S32Bev0BNZ3P_VLTZtOB',#6,'Ceilings',$,$,'6.2',$,$,$,.F.,$,#97,.CONSTRUCTION.);
#99=IFCTASKTIME('Floor finishes Time',.PREDICTED.,$,.WORKTIME.,'P0Y0M5D','2027-03-01T07:00:00','2027-03-05T07:00:00','2027-07-12T07:00:00','2027-07-16T07:00:00','2027-07-12T07:00:00','2027-07-16T07:00:00','P0Y0M0D','P0Y0M0D',.T.,$,$,$,$,$,0.0);
#100=IFCTASK('ErHR4Xs$4nFDKVFXVH9BWv',#6,'Floor finishes',$,$,'6.3',$,$,$,.F.,$,#99,.CONSTRUCTION.);
#101=IFCTASKTIME('Painting Time',.PREDICTED.,$,.WORKTIME.,'P0Y0M8D','2027-03-01T07:00:00','2027-03-10T07:00:00','2027-07-19T07:00:00','2027-08-18T07:00:00','2027-07-19T07:00:00','2027-08-18T07:00:00','P0Y0M0D','P0Y0M0D',.T.,$,$,$,$,$,0.0);
#102=IFCTASK('O3Hj9$w76zEvsxCHElXDuJ',#6,'Painting',$,$,'6.4',$,$,$,.F.,$,#101,.CONSTRUCTION.);
#103=IFCTASKTIME('Sanitary fittings Time',.PREDICTED.,$,.WORKTIME.,'P0Y0M3D','2027-03-01T07:00:00','2027-03-03T07:00:00','2027-08-19T07:00:00','2027-08-23T07:00:00','2027-08-19T07:00:00','2027-08-23T07:00:00','P0Y0M0D','P0Y0M0D',.T.,$,$,$,$,$,0.0);
#104=IFCTASK('a$$TSj6VrzOtJjP$LT5XSx',#6,'Sanitary fittings',$,$,'6.5',$,$,$,.F.,$,#103,.INSTALLATION.);
#105=IFCTASKTIME('7. Handover Time',.PREDICTED.,$,.WORKTIME.,'P0Y0M5D','2027-03-01T07:00:00','2027-03-05T07:00:00','2027-08-24T07:00:00','2027-09-06T07:00:00','2027-08-24T07:00:00','2027-09-06T07:00:00','P0Y0M0D','P0Y0M0D',.T.,$,$,$,$,$,0.0);
#106=IFCTASK('o7s7Z5UNm3et5FpnrpTNcr',#6,'7. Handover',$,$,'7',$,$,$,.F.,$,#105,.CONSTRUCTION.);
#107=IFCTASKTIME('Classroom furnishing Time',.PREDICTED.,$,.WORKTIME.,'P0Y0M5D','2027-03-01T07:00:00','2027-03-05T07:00:00','2027-08-24T07:00:00','2027-08-30T07:00:00','2027-08-24T07:00:00','2027-08-30T07:00:00','P0Y0M0D','P0Y0M0D',.T.,$,$,$,$,$,0.0);
#108=IFCTASK('$DcfOTtNArrnFpVVS9c73d',#6,'Classroom furnishing',$,$,'7.1',$,$,$,.F.,$,#107,.LOGISTIC.);
#109=IFCTASKTIME('External areas Time',.PREDICTED.,$,.WORKTIME.,'P0Y0M5D','2027-03-01T07:00:00','2027-03-05T07:00:00','2027-08-31T07:00:00','2027-09-06T07:00:00','2027-08-31T07:00:00','2027-09-06T07:00:00','P0Y0M0D','P0Y0M0D',.T.,$,$,$,$,$,0.0);
#110=IFCTASK('ib3twvgdHDm$S76lDv8$sv',#6,'External areas',$,$,'7.2',$,$,$,.F.,$,#109,.CONSTRUCTION.);
#111=IFCTASKTIME('Handover Time',.PREDICTED.,$,.WORKTIME.,'P0Y0M0D','2027-03-01T07:00:00','2027-03-01T07:00:00','2027-09-06T07:00:00','2027-09-06T07:00:00','2027-09-06T07:00:00','2027-09-06T07:00:00','P0Y0M0D','P0Y0M0D',.T.,$,$,$,$,$,0.0);
#112=IFCTASK('SXBXeZ7tP7WltLMlcznLAd',#6,'Handover',$,$,'7.3',$,$,$,.T.,$,#111,.CONSTRUCTION.);
#113=IFCRELNESTS('K51Ze5_fUjEr0zBFxFHBGl',#6,'WBS 1. Preparation',$,#40,( #42,#44,#46,#48));
#114=IFCRELNESTS('0lXhRxF76zEv2PEX4duFfV',#6,'WBS 2. Demolition & strip-out',$,#50,( #52,#54,#56,#58,#60));
#115=IFCRELNESTS('NPm7LfW9$9FLsdA1Dv8nFb',#6,'WBS 3. Structural works',$,#62,( #64,#66,#68,#70));
#116=IFCRELNESTS('xn7ZGP6Vdvm$8tGXgFVbN3',#6,'WBS 4. Facade & roof',$,#72,( #74,#76,#78,#80));
#117=IFCRELNESTS('yHR1AnhlbLJ7IbiFUr5XWv',#6,'WBS 5. Building services',$,#82,( #84,#86,#88,#90,#92));
#118=IFCRELNESTS('xFP3IDXd9B$55xWVb5ERzv',#6,'WBS 6. Fit-out',$,#94,( #96,#98,#100,#102,#104));
#119=IFCRELNESTS('L3lj$T8vkXR1K1ZnY7WPVT',#6,'WBS 7. Handover',$,#106,( #108,#110,#112));
#120=IFCRELNESTS('tjjP5r1vgdnD4TBHzDgTrv',#6,'WBS Hoofd',$,#37,(#40,#50,#62,#72,#82,#94,#106));
#121=IFCRELSEQUENCE('jtiRKLbFMv3vIRaHDdSrip',#6,$,$,#42,#44,$,.FINISH_START.,$);
#122=IFCRELSEQUENCE('a3Cpd5wvcJKzTLMlwjXpy7',#6,$,$,#44,#46,$,.FINISH_START.,$);
#123=IFCRELSEQUENCE('qrXLnl17MRzvQnFXLPWPN1',#6,$,$,#46,#48,$,.FINISH_START.,$);
#124=IFCRELSEQUENCE('PxqDd56vExvhgt4lFtUnh9',#6,$,$,#52,#54,$,.FINISH_START.,$);
#125=IFCRELSEQUENCE('J57BlR3HdpIdWprlJb1jUp',#6,$,$,#54,#56,$,.FINISH_START.,$);
#126=IFCRELSEQUENCE('Q5azQJs$89VRz5SnLTR$kL',#6,$,$,#56,#58,$,.FINISH_START.,$);
#127=IFCRELSEQUENCE('qtgPPbwVznCZlfynphvp4d',#6,$,$,#58,#60,$,.FINISH_START.,$);
#128=IFCRELSEQUENCE('wBQfO5Q70hjv6Xv$ldSBaR',#6,$,$,#64,#66,$,.FINISH_START.,$);
#129=IFCRELSEQUENCE('sjb$cN09VbTdmrYVR1NLwX',#6,$,$,#66,#68,$,.FINISH_START.,$);
#130=IFCRELSEQUENCE('5nfJj3Z1A9PjgBUXXFhVuj',#6,$,$,#68,#70,$,.FINISH_START.,$);
#131=IFCRELSEQUENCE('hTjv5npVrzu7_pt1DPSzn$',#6,$,$,#74,#76,$,.FINISH_START.,$);
#132=IFCRELSEQUENCE('aXjv9$Q78N5VQzzl25B$gt',#6,$,$,#76,#78,$,.FINISH_START.,$);
#133=IFCRELSEQUENCE('lNG7xlPtVv37UZZFAREVG$',#6,$,$,#78,#80,$,.FINISH_START.,$);
#134=IFCRELSEQUENCE('2FpvXJYncpedqHbnuBKj2X',#6,$,$,#84,#86,$,.FINISH_START.,$);
#135=IFCLAGTIME('Lag',.PREDICTED.,$,IFCDURATION('P2D'),.WORKTIME.);
#136=IFCRELSEQUENCE('uDtp$PUn23ufRrs$DPaz$N',#6,$,$,#86,#88,#135,.START_START.,$);
#137=IFCRELSEQUENCE('zjcjDJRXT$6Jo1nXXlvbfT',#6,$,$,#88,#90,$,.FINISH_START.,$);
#138=IFCRELSEQUENCE('WX3t6T8dDP9bXxGVIz0vVP',#6,$,$,#90,#92,$,.FINISH_START.,$);
#139=IFCRELSEQUENCE('MTz9ETX7yx7hAb0VDLHBqn',#6,$,$,#96,#98,$,.FINISH_START.,$);
#140=IFCRELSEQUENCE('jtShXfmNmjsTZfmXk$JvJV',#6,$,$,#98,#100,$,.FINISH_START.,$);
#141=IFCRELSEQUENCE('DdEbyZ09Z1M31hcl9zvDq3',#6,$,$,#100,#102,$,.FINISH_START.,$);
#142=IFCRELSEQUENCE('7r2XSFKVnTM3pzLnHrzfw$',#6,$,$,#102,#104,$,.FINISH_START.,$);
#143=IFCRELSEQUENCE('6lp73LKVnTUxZ9Kl8393DH',#6,$,$,#108,#110,$,.FINISH_START.,$);
#144=IFCRELSEQUENCE('a1NRujJny51TJVt1qlrFDj',#6,$,$,#110,#112,$,.FINISH_START.,$);
#145=IFCLAGTIME('Lag',.PREDICTED.,$,IFCDURATION('P6D'),.WORKTIME.);
#146=IFCRELSEQUENCE('MTpPbRB1KfcVUfCFW9YFXT',#6,$,$,#42,#52,#145,.START_START.,$);
#147=IFCLAGTIME('Lag',.PREDICTED.,$,IFCRATIOMEASURE(0.4),.WORKTIME.);
#148=IFCRELSEQUENCE('AfULnFZ$YpQV6J$XCT4TBd',#6,$,$,#52,#64,#147,.START_START.,$);
#149=IFCLAGTIME('Lag',.PREDICTED.,$,IFCDURATION('-P7D'),.WORKTIME.);
#150=IFCRELSEQUENCE('U$9xcDwvALNTdz3lk1hH1f',#6,$,$,#70,#74,#149,.FINISH_START.,$);
#151=IFCLAGTIME('Lag',.PREDICTED.,$,IFCDURATION('P2D'),.WORKTIME.);
#152=IFCRELSEQUENCE('hPuVKBFdhp29$LEFMByTDJ',#6,$,$,#70,#78,#151,.FINISH_FINISH.,$);
#153=IFCRELSEQUENCE('J595w7c74HDtlz1XCFt3n1',#6,$,$,#78,#84,$,.FINISH_START.,$);
#154=IFCLAGTIME('Lag',.PREDICTED.,$,IFCDURATION('P16D'),.WORKTIME.);
#155=IFCRELSEQUENCE('jxFpTNFdj9vpuH71Zzel19',#6,$,$,#84,#96,#154,.START_START.,$);
#156=IFCRELSEQUENCE('QXz9EXUnIrfTHfKFwpr16x',#6,$,$,#104,#108,$,.FINISH_START.,$);
#157=IFCRELASSIGNSTOCONTROL('rDVhNjbXHjyDCF$VkTSruD',#6,$,$,(#40,#42,#44,#46,#48,#50,#52,#54,#56,#58,#60,#62,#64,#66,#68,#70,#72,#74,#76,#78,#80,#82,#84,#86,#88,#90,#92,#94,#96,#98,#100,#102,#104,#106,#108,#110,#112),$,#37);
#158=IFCPROPERTYSINGLEVALUE('wbsAutoNumber',$,IFCBOOLEAN(.T.),$);
#159=IFCPROPERTYSINGLEVALUE('ProjectStartDate',$,IFCDATE('2027-03-01'),$);
#160=IFCPROPERTYSINGLEVALUE('ProjectEndDate',$,$,$);
#161=IFCPROPERTYSINGLEVALUE('CreatedAt',$,IFCTEXT('2026-07-28T14:38:23.530Z'),$);
#162=IFCPROPERTYSINGLEVALUE('ModifiedAt',$,IFCTEXT('2026-07-28T14:38:23.531Z'),$);
#163=IFCPROPERTYSET('e5a3ArlP$tNZvpDF1ZK5n5',#6,'OPS_ProjectSettings',$,(#158,#159,#160,#161,#162));
#164=IFCRELDEFINESBYPROPERTIES('0Hdzo1sPJhdjQlBF$1BF9l',#6,$,$,(#13),#163);
#165=IFCPROPERTYSINGLEVALUE('MilestoneKind',$,IFCLABEL('START'),$);
#166=IFCPROPERTYSET('FP2rZboHPdi3xHt$WfoR3P',#6,'OPS_Milestone',$,(#165));
#167=IFCRELDEFINESBYPROPERTIES('sJz9oTNf0BNTVnzFO5MTP7',#6,$,$,(#48),#166);
#168=IFCPROPERTYSINGLEVALUE('MilestoneKind',$,IFCLABEL('FINISH'),$);
#169=IFCPROPERTYSET('e3Xz2hqnaVJvQlxFoDkxvt',#6,'OPS_Milestone',$,(#168));
#170=IFCRELDEFINESBYPROPERTIES('1FBnpDv9tXLlNRO1vXZNI7',#6,$,$,(#80),#169);
#171=IFCPROPERTYSINGLEVALUE('MilestoneKind',$,IFCLABEL('FINISH'),$);
#172=IFCPROPERTYSINGLEVALUE('Mandatory',$,IFCBOOLEAN(.T.),$);
#173=IFCPROPERTYSET('8rU$AhBlh7m1SdQ$gryhgt',#6,'OPS_Milestone',$,(#171,#172));
#174=IFCRELDEFINESBYPROPERTIES('lN8nvPL12zOd0THXHLnhcF',#6,$,$,(#112),#173);
ENDSEC;
END-ISO-10303-21;
