ISO-10303-21;
HEADER;
FILE_DESCRIPTION(('ViewDefinition [SchedulingView]'),'2;1');
FILE_NAME('Zuidas Office Building.ifc','2026-07-28T14:38:23',('Mark Bakker'),('Zuidas Development BV'),'Open Planner Studio 0.1','Open Planner Studio','');
FILE_SCHEMA(('IFC4X3'));
ENDSEC;
DATA;
#1=IFCPERSON($,'Mark Bakker',$,$,$,$,$,$);
#2=IFCORGANIZATION($,'Zuidas Development BV',$,$,$);
#3=IFCPERSONANDORGANIZATION(#1,#2,$);
#4=IFCORGANIZATION($,'OpenAEC Foundation',$,$,$);
#5=IFCAPPLICATION(#4,'0.1','Open Planner Studio','OPS');
#6=IFCOWNERHISTORY(#3,#5,$,.NOCHANGE.,$,$,$,1785249503);
#7=IFCSIUNIT(*,.LENGTHUNIT.,$,.METRE.);
#8=IFCSIUNIT(*,.TIMEUNIT.,$,.SECOND.);
#9=IFCUNITASSIGNMENT((#7,#8));
#10=IFCCARTESIANPOINT((0.,0.,0.));
#11=IFCAXIS2PLACEMENT3D(#10,$,$);
#12=IFCGEOMETRICREPRESENTATIONCONTEXT($,'Plan',3,1.0E-05,#11,$);
#13=IFCPROJECT('fzPLNpXPb1Hr0Z9$LZJvfT',#6,'Zuidas Office Building','Eight-storey office building with basement car park, BREEAM Excellent',$,$,$,(#12),#9);
#14=IFCTIMEPERIOD('07:00:00','16:00:00');
#15=IFCRECURRENCEPATTERN(.WEEKLY.,$,(1,2,3,4,5),$,$,$,$,(#14));
#16=IFCWORKTIME('Standard work week',.PREDICTED.,$,#15,$,$);
#17=IFCWORKTIME('New Year''s Day',.PREDICTED.,$,$,'2027-01-01','2027-01-01');
#18=IFCWORKTIME('Good Friday',.PREDICTED.,$,$,'2027-03-26','2027-03-26');
#19=IFCWORKTIME('Easter',.PREDICTED.,$,$,'2027-03-28','2027-03-29');
#20=IFCWORKTIME('King''s Day',.PREDICTED.,$,$,'2027-04-27','2027-04-27');
#21=IFCWORKTIME('Liberation Day',.PREDICTED.,$,$,'2027-05-05','2027-05-05');
#22=IFCWORKTIME('Ascension Day',.PREDICTED.,$,$,'2027-05-06','2027-05-06');
#23=IFCWORKTIME('Whitsun',.PREDICTED.,$,$,'2027-05-16','2027-05-17');
#24=IFCWORKTIME('Christmas',.PREDICTED.,$,$,'2027-12-25','2027-12-26');
#25=IFCWORKTIME('Construction holiday (northern region)',.PREDICTED.,$,$,'2027-07-26','2027-08-15');
#26=IFCWORKTIME('New Year''s Day',.PREDICTED.,$,$,'2028-01-01','2028-01-01');
#27=IFCWORKTIME('Good Friday',.PREDICTED.,$,$,'2028-04-14','2028-04-14');
#28=IFCWORKTIME('Easter',.PREDICTED.,$,$,'2028-04-16','2028-04-17');
#29=IFCWORKTIME('King''s Day',.PREDICTED.,$,$,'2028-04-27','2028-04-27');
#30=IFCWORKTIME('Liberation Day',.PREDICTED.,$,$,'2028-05-05','2028-05-05');
#31=IFCWORKTIME('Ascension Day',.PREDICTED.,$,$,'2028-05-25','2028-05-25');
#32=IFCWORKTIME('Whitsun',.PREDICTED.,$,$,'2028-06-04','2028-06-05');
#33=IFCWORKTIME('Christmas',.PREDICTED.,$,$,'2028-12-25','2028-12-26');
#34=IFCWORKTIME('Construction holiday (northern region)',.PREDICTED.,$,$,'2028-07-24','2028-08-13');
#35=IFCWORKCALENDAR('_HlbW$VPl1Yxnv_nBDbFBd',#6,'Construction calendar NL','Standard construction calendar: Mon-Fri 07:00-16:00',$,(#16),(#17,#18,#19,#20,#21,#22,#23,#24,#25,#26,#27,#28,#29,#30,#31,#32,#33,#34),.FIRSTSHIFT.);
#36=IFCWORKPLAN('HxVzUftf2t6jcZ1XULfZX3',#6,'Zuidas Office Building','Eight-storey office building with basement car park, BREEAM Excellent',$,$,'2026-07-28T14:38:23',$,$,$,$,$,'2027-03-01T07:00:00','2027-03-26T07:00:00',.PLANNED.);
#37=IFCWORKSCHEDULE('k9yTGNuvMdNxZf816tQvJ$',#6,'Construction schedule v1.0',$,$,$,'2026-07-28T14:38:23',$,$,$,$,$,'2027-03-01T07:00:00','2027-03-26T07:00:00',.PLANNED.);
#38=IFCRELAGGREGATES('X$Ph9TPtbVDd8te$ftI1sz',#6,$,$,#36,(#37));
#39=IFCTASKTIME('1. Preparation Time',.PREDICTED.,$,.WORKTIME.,'P0Y0M5D','2027-03-01T07:00:00','2027-03-05T07:00:00','2027-03-01T07:00:00','2027-03-30T07:00:00','2027-03-01T07:00:00','2028-05-04T07:00:00','P0Y0M0D','P0Y0M0D',.T.,$,$,$,$,$,0.0);
#40=IFCTASK('wH5Xm7UNWRD9ZLMHsxwJ_z',#6,'1. Preparation',$,$,'1',$,$,$,.F.,$,#39,.CONSTRUCTION.);
#41=IFCTASKTIME('Set up site Time',.PREDICTED.,$,.WORKTIME.,'P0Y0M8D','2027-03-01T07:00:00','2027-03-10T07:00:00','2027-03-01T07:00:00','2027-03-10T07:00:00','2027-03-01T07:00:00','2027-03-10T07:00:00','P0Y0M0D','P0Y0M0D',.T.,$,$,$,$,$,0.0);
#42=IFCTASK('mP6DDHmf4F$ZhZ3nWtoVi1',#6,'Set up site',$,$,'1.1',$,$,$,.F.,$,#41,.LOGISTIC.);
#43=IFCTASKTIME('Stakeholder management Time',.PREDICTED.,$,.WORKTIME.,'P0Y0M5D','2027-03-01T07:00:00','2027-03-05T07:00:00','2027-03-11T07:00:00','2027-03-17T07:00:00','2028-04-18T07:00:00','2028-04-24T07:00:00','P0Y0M0D','P0Y0M265D',.F.,$,$,$,$,$,0.0);
#44=IFCTASK('KP0tgbB1CTILUZBl75oR5h',#6,'Stakeholder management',$,$,'1.2',$,$,$,.F.,$,#43,.ATTENDANCE.);
#45=IFCTASKTIME('Traffic management Time',.PREDICTED.,$,.WORKTIME.,'P0Y0M3D','2027-03-01T07:00:00','2027-03-03T07:00:00','2027-03-18T07:00:00','2027-03-22T07:00:00','2028-04-25T07:00:00','2028-04-28T07:00:00','P0Y0M0D','P0Y0M265D',.F.,$,$,$,$,$,0.0);
#46=IFCTASK('9DNj7PB1qZUx3PIXIVXbhp',#6,'Traffic management',$,$,'1.3',$,$,$,.F.,$,#45,.LOGISTIC.);
#47=IFCTASKTIME('Piezometer monitoring Time',.PREDICTED.,$,.WORKTIME.,'P0Y0M3D','2027-03-01T07:00:00','2027-03-03T07:00:00','2027-03-23T07:00:00','2027-03-25T07:00:00','2028-05-01T07:00:00','2028-05-03T07:00:00','P0Y0M0D','P0Y0M265D',.F.,$,$,$,$,$,0.0);
#48=IFCTASK('JtyrRXh$cjibXbSHFR$jMj',#6,'Piezometer monitoring',$,$,'1.4',$,$,$,.F.,$,#47,.INSTALLATION.);
#49=IFCTASKTIME('Start of construction Time',.PREDICTED.,$,.WORKTIME.,'P0Y0M0D','2027-03-01T07:00:00','2027-03-01T07:00:00','2027-03-30T07:00:00','2027-03-30T07:00:00','2028-05-04T07:00:00','2028-05-04T07:00:00','P0Y0M265D','P0Y0M265D',.F.,$,$,$,$,$,0.0);
#50=IFCTASK('yHZfGtCXFH0nNvonEHl35B',#6,'Start of construction',$,$,'1.5',$,$,$,.T.,$,#49,.CONSTRUCTION.);
#51=IFCTASKTIME('2. Earthworks & foundations Time',.PREDICTED.,$,.WORKTIME.,'P0Y0M5D','2027-03-01T07:00:00','2027-03-05T07:00:00','2027-03-15T07:00:00','2027-09-09T07:00:00','2027-03-15T07:00:00','2028-05-04T07:00:00','P0Y0M0D','P0Y0M0D',.T.,$,$,$,$,$,0.0);
#52=IFCTASK('lta3gx7tZ12b5H9$KXhVeT',#6,'2. Earthworks & foundations',$,$,'2',$,$,$,.F.,$,#51,.CONSTRUCTION.);
#53=IFCTASKTIME('Sheet pile sections Time',.PREDICTED.,$,.WORKTIME.,'P0Y0M15D','2027-03-01T07:00:00','2027-03-19T07:00:00','2027-03-15T07:00:00','2027-04-06T07:00:00','2027-03-15T07:00:00','2027-04-06T07:00:00','P0Y0M0D','P0Y0M0D',.T.,$,$,$,$,$,0.0);
#54=IFCTASK('ADlbW$HvWbD9lZTFol1JUF',#6,'Sheet pile sections',$,$,'2.1',$,$,$,.F.,$,#53,.CONSTRUCTION.);
#55=IFCTASKTIME('Wellpoint dewatering Time',.PREDICTED.,$,.WORKTIME.,'P0Y0M5D','2027-03-01T07:00:00','2027-03-05T07:00:00','2027-04-07T07:00:00','2027-04-13T07:00:00','2027-12-23T07:00:00','2027-12-29T07:00:00','P0Y0M0D','P0Y0M167D',.F.,$,$,$,$,$,0.0);
#56=IFCTASK('U3Kj13S$MRbXsxSnHBhHf3',#6,'Wellpoint dewatering',$,$,'2.2',$,$,$,.F.,$,#55,.INSTALLATION.);
#57=IFCTASKTIME('Excavate to level -2 Time',.PREDICTED.,$,.WORKTIME.,'P0Y0M12D','2027-03-01T07:00:00','2027-03-16T07:00:00','2027-04-14T07:00:00','2027-04-30T07:00:00','2027-12-30T07:00:00','2028-01-14T07:00:00','P0Y0M0D','P0Y0M167D',.F.,$,$,$,$,$,0.0);
#58=IFCTASK('bXBXuB8PV5vhwVt1a9UnLN',#6,'Excavate to level -2',$,$,'2.3',$,$,$,.F.,$,#57,.CONSTRUCTION.);
#59=IFCTASKTIME('Excavate to level -1 Time',.PREDICTED.,$,.WORKTIME.,'P0Y0M10D','2027-03-01T07:00:00','2027-03-12T07:00:00','2027-05-03T07:00:00','2027-05-19T07:00:00','2028-01-17T07:00:00','2028-01-28T07:00:00','P0Y0M0D','P0Y0M167D',.F.,$,$,$,$,$,0.0);
#60=IFCTASK('P5q5w7QvKjaJ6DpFxhuF$p',#6,'Excavate to level -1',$,$,'2.4',$,$,$,.F.,$,#59,.CONSTRUCTION.);
#61=IFCTASKTIME('Bore foundation piles Time',.PREDICTED.,$,.WORKTIME.,'P0Y0M20D','2027-03-01T07:00:00','2027-03-26T07:00:00','2027-05-20T07:00:00','2027-06-16T07:00:00','2028-01-31T07:00:00','2028-02-25T07:00:00','P0Y0M0D','P0Y0M167D',.F.,$,$,$,$,$,0.0);
#62=IFCTASK('bXJvhN8P5xXzxH$VebMf2T',#6,'Bore foundation piles',$,$,'2.5',$,$,$,.F.,$,#61,.CONSTRUCTION.);
#63=IFCTASKTIME('Foundation beams Time',.PREDICTED.,$,.WORKTIME.,'P0Y0M10D','2027-03-01T07:00:00','2027-03-12T07:00:00','2027-06-17T07:00:00','2027-06-30T07:00:00','2028-02-28T07:00:00','2028-03-10T07:00:00','P0Y0M0D','P0Y0M167D',.F.,$,$,$,$,$,0.0);
#64=IFCTASK('K74BnLDVZVw$GLQHb1l31N',#6,'Foundation beams',$,$,'2.6',$,$,$,.F.,$,#63,.CONSTRUCTION.);
#65=IFCTASKTIME('Basement floor P2 Time',.PREDICTED.,$,.WORKTIME.,'P0Y0M8D','2027-03-01T07:00:00','2027-03-10T07:00:00','2027-07-01T07:00:00','2027-07-12T07:00:00','2028-03-13T07:00:00','2028-03-22T07:00:00','P0Y0M0D','P0Y0M167D',.F.,$,$,$,$,$,0.0);
#66=IFCTASK('uL2B9$UNqv8vsdIVMnFLUl',#6,'Basement floor P2',$,$,'2.7',$,$,$,.F.,$,#65,.CONSTRUCTION.);
#67=IFCTASKTIME('Basement floor P1 Time',.PREDICTED.,$,.WORKTIME.,'P0Y0M8D','2027-03-01T07:00:00','2027-03-10T07:00:00','2027-07-13T07:00:00','2027-07-22T07:00:00','2028-03-23T07:00:00','2028-04-03T07:00:00','P0Y0M0D','P0Y0M167D',.F.,$,$,$,$,$,0.0);
#68=IFCTASK('AjTNGf87g5f5BJzlghun7f',#6,'Basement floor P1',$,$,'2.8',$,$,$,.F.,$,#67,.CONSTRUCTION.);
#69=IFCTASKTIME('Pour basement walls Time',.PREDICTED.,$,.WORKTIME.,'P0Y0M12D','2027-03-01T07:00:00','2027-03-16T07:00:00','2027-07-23T07:00:00','2027-08-30T07:00:00','2028-04-04T07:00:00','2028-04-21T07:00:00','P0Y0M0D','P0Y0M167D',.F.,$,$,$,$,$,0.0);
#70=IFCTASK('rN2BDDv9HjiRN7QHDhfTXz',#6,'Pour basement walls',$,$,'2.9',$,$,$,.F.,$,#69,.CONSTRUCTION.);
#71=IFCTASKTIME('Basement waterproofing Time',.PREDICTED.,$,.WORKTIME.,'P0Y0M8D','2027-03-01T07:00:00','2027-03-10T07:00:00','2027-08-31T07:00:00','2027-09-09T07:00:00','2028-04-24T07:00:00','2028-05-04T07:00:00','P0Y0M167D','P0Y0M167D',.F.,$,$,$,$,$,0.0);
#72=IFCTASK('MZJ79Vg1U7uvA5qls1FTjZ',#6,'Basement waterproofing',$,$,'2.10',$,$,$,.F.,$,#71,.CONSTRUCTION.);
#73=IFCTASKTIME('3. Structural works Time',.PREDICTED.,$,.WORKTIME.,'P0Y0M5D','2027-03-01T07:00:00','2027-03-05T07:00:00','2027-03-23T07:00:00','2027-09-08T07:00:00','2027-03-23T07:00:00','2028-05-04T07:00:00','P0Y0M0D','P0Y0M0D',.T.,$,$,$,$,$,0.0);
#74=IFCTASK('PVRl$dQVVv51O1P$q3Gfw1',#6,'3. Structural works',$,$,'3',$,$,$,.F.,$,#73,.CONSTRUCTION.);
#75=IFCTASKTIME('Ground floor columns & slab Time',.PREDICTED.,$,.WORKTIME.,'P0Y0M10D','2027-03-01T07:00:00','2027-03-12T07:00:00','2027-03-23T07:00:00','2027-04-07T07:00:00','2027-03-23T07:00:00','2027-04-07T07:00:00','P0Y0M0D','P0Y0M0D',.T.,$,$,$,$,$,0.0);
#76=IFCTASK('kbDdRRB1CvO9dnHVxBCbxB',#6,'Ground floor columns & slab',$,$,'3.1',$,$,$,.F.,$,#75,.CONSTRUCTION.);
#77=IFCTASKTIME('Floor 1 structural works Time',.PREDICTED.,$,.WORKTIME.,'P0Y0M8D','2027-03-01T07:00:00','2027-03-10T07:00:00','2027-04-08T07:00:00','2027-04-19T07:00:00','2027-04-08T07:00:00','2027-04-19T07:00:00','P0Y0M0D','P0Y0M0D',.T.,$,$,$,$,$,0.0);
#78=IFCTASK('bxKRC7tfm30nh981I1Ddzr',#6,'Floor 1 structural works',$,$,'3.2',$,$,$,.F.,$,#77,.CONSTRUCTION.);
#79=IFCTASKTIME('Floor 2 structural works Time',.PREDICTED.,$,.WORKTIME.,'P0Y0M8D','2027-03-01T07:00:00','2027-03-10T07:00:00','2027-04-20T07:00:00','2027-04-30T07:00:00','2027-04-20T07:00:00','2027-04-30T07:00:00','P0Y0M0D','P0Y0M0D',.T.,$,$,$,$,$,0.0);
#80=IFCTASK('5lpvFhJV7z0nJpDntP8FXZ',#6,'Floor 2 structural works',$,$,'3.3',$,$,$,.F.,$,#79,.CONSTRUCTION.);
#81=IFCTASKTIME('Floor 3 structural works Time',.PREDICTED.,$,.WORKTIME.,'P0Y0M8D','2027-03-01T07:00:00','2027-03-10T07:00:00','2027-05-03T07:00:00','2027-05-14T07:00:00','2027-05-03T07:00:00','2027-05-14T07:00:00','P0Y0M0D','P0Y0M0D',.T.,$,$,$,$,$,0.0);
#82=IFCTASK('phjPtZffC3QXELoFQzNTnx',#6,'Floor 3 structural works',$,$,'3.4',$,$,$,.F.,$,#81,.CONSTRUCTION.);
#83=IFCTASKTIME('Floor 4 structural works Time',.PREDICTED.,$,.WORKTIME.,'P0Y0M8D','2027-03-01T07:00:00','2027-03-10T07:00:00','2027-05-18T07:00:00','2027-05-27T07:00:00','2027-05-18T07:00:00','2027-05-27T07:00:00','P0Y0M0D','P0Y0M0D',.T.,$,$,$,$,$,0.0);
#84=IFCTASK('q9QNiBHd5FPr0Z1XQ3$xtH',#6,'Floor 4 structural works',$,$,'3.5',$,$,$,.F.,$,#83,.CONSTRUCTION.);
#85=IFCTASKTIME('Floor 5 structural works Time',.PREDICTED.,$,.WORKTIME.,'P0Y0M8D','2027-03-01T07:00:00','2027-03-10T07:00:00','2027-05-28T07:00:00','2027-06-08T07:00:00','2027-05-28T07:00:00','2027-06-08T07:00:00','P0Y0M0D','P0Y0M0D',.T.,$,$,$,$,$,0.0);
#86=IFCTASK('nP6przCnmTSjs72FXpMZb1',#6,'Floor 5 structural works',$,$,'3.6',$,$,$,.F.,$,#85,.CONSTRUCTION.);
#87=IFCTASKTIME('Floor 6 structural works Time',.PREDICTED.,$,.WORKTIME.,'P0Y0M8D','2027-03-01T07:00:00','2027-03-10T07:00:00','2027-06-09T07:00:00','2027-06-18T07:00:00','2027-06-09T07:00:00','2027-06-18T07:00:00','P0Y0M0D','P0Y0M0D',.T.,$,$,$,$,$,0.0);
#88=IFCTASK('T3azEzrHxnX3DZ915hGNQh',#6,'Floor 6 structural works',$,$,'3.7',$,$,$,.F.,$,#87,.CONSTRUCTION.);
#89=IFCTASKTIME('Floor 7 structural works Time',.PREDICTED.,$,.WORKTIME.,'P0Y0M8D','2027-03-01T07:00:00','2027-03-10T07:00:00','2027-06-21T07:00:00','2027-06-30T07:00:00','2027-06-21T07:00:00','2027-06-30T07:00:00','P0Y0M0D','P0Y0M0D',.T.,$,$,$,$,$,0.0);
#90=IFCTASK('L3vB1TmNC3cXc3pl97yhIL',#6,'Floor 7 structural works',$,$,'3.8',$,$,$,.F.,$,#89,.CONSTRUCTION.);
#91=IFCTASKTIME('Floor 8 structural works Time',.PREDICTED.,$,.WORKTIME.,'P0Y0M8D','2027-03-01T07:00:00','2027-03-10T07:00:00','2027-07-01T07:00:00','2027-07-12T07:00:00','2027-07-01T07:00:00','2027-07-12T07:00:00','P0Y0M0D','P0Y0M0D',.T.,$,$,$,$,$,0.0);
#92=IFCTASK('0lF5sHHdB96j2dA1b5ULEN',#6,'Floor 8 structural works',$,$,'3.9',$,$,$,.F.,$,#91,.CONSTRUCTION.);
#93=IFCTASKTIME('Concrete stair and lift core Time',.PREDICTED.,$,.WORKTIME.,'P0Y0M20D','2027-03-01T07:00:00','2027-03-26T07:00:00','2027-07-08T07:00:00','2027-08-25T07:00:00','2027-07-08T07:00:00','2027-08-25T07:00:00','P0Y0M0D','P0Y0M0D',.T.,$,$,$,$,$,0.0);
#94=IFCTASK('xHxXGds$8VgnHZBHJbHzJ$',#6,'Concrete stair and lift core',$,$,'3.10',$,$,$,.F.,$,#93,.CONSTRUCTION.);
#95=IFCTASKTIME('Steel roof structure Time',.PREDICTED.,$,.WORKTIME.,'P0Y0M10D','2027-03-01T07:00:00','2027-03-12T07:00:00','2027-08-26T07:00:00','2027-09-08T07:00:00','2027-08-26T07:00:00','2027-09-08T07:00:00','P0Y0M0D','P0Y0M0D',.T.,$,$,$,$,$,0.0);
#96=IFCTASK('ynVLzdh12t2bNdEX8Byhot',#6,'Steel roof structure',$,$,'3.11',$,$,$,.F.,$,#95,.CONSTRUCTION.);
#97=IFCTASKTIME('Topping out Time',.PREDICTED.,$,.WORKTIME.,'P0Y0M0D','2027-03-01T07:00:00','2027-03-01T07:00:00','2027-09-08T07:00:00','2027-09-08T07:00:00','2028-05-04T07:00:00','2028-05-04T07:00:00','P0Y0M168D','P0Y0M168D',.F.,$,$,$,$,$,0.0);
#98=IFCTASK('fzfbaD67IXxVMNGX8BaB0f',#6,'Topping out',$,$,'3.12',$,$,$,.T.,$,#97,.CONSTRUCTION.);
#99=IFCTASKTIME('4. Facade Time',.PREDICTED.,$,.WORKTIME.,'P0Y0M5D','2027-03-01T07:00:00','2027-03-05T07:00:00','2027-07-21T07:00:00','2027-10-21T07:00:00','2027-07-21T07:00:00','2028-05-04T07:00:00','P0Y0M0D','P0Y0M0D',.T.,$,$,$,$,$,0.0);
#100=IFCTASK('Jx1T8B8PJf5VkbCFKVTfQH',#6,'4. Facade',$,$,'4',$,$,$,.F.,$,#99,.INSTALLATION.);
#101=IFCTASKTIME('Curtain wall installation, phase 1 Time',.PREDICTED.,$,.WORKTIME.,'P0Y0M15D','2027-03-01T07:00:00','2027-03-19T07:00:00','2027-07-21T07:00:00','2027-08-31T07:00:00','2027-07-21T07:00:00','2027-08-31T07:00:00','P0Y0M0D','P0Y0M0D',.T.,$,$,$,$,$,0.0);
#102=IFCTASK('ivKj77VdFnizXx0XZ3m9qZ',#6,'Curtain wall installation, phase 1',$,$,'4.1',$,$,$,.F.,$,#101,.INSTALLATION.);
#103=IFCTASKTIME('Curtain wall installation, phase 2 Time',.PREDICTED.,$,.WORKTIME.,'P0Y0M15D','2027-03-01T07:00:00','2027-03-19T07:00:00','2027-09-01T07:00:00','2027-09-21T07:00:00','2027-09-01T07:00:00','2027-09-21T07:00:00','P0Y0M0D','P0Y0M0D',.T.,$,$,$,$,$,0.0);
#104=IFCTASK('0l9DlVr1ylx1eXjH5FdjEx',#6,'Curtain wall installation, phase 2',$,$,'4.2',$,$,$,.F.,$,#103,.INSTALLATION.);
#105=IFCTASKTIME('Curtain wall installation, phase 3 Time',.PREDICTED.,$,.WORKTIME.,'P0Y0M12D','2027-03-01T07:00:00','2027-03-16T07:00:00','2027-09-22T07:00:00','2027-10-07T07:00:00','2027-09-22T07:00:00','2027-10-07T07:00:00','P0Y0M0D','P0Y0M0D',.T.,$,$,$,$,$,0.0);
#106=IFCTASK('urA7v7ffYp29r7oFAxgZb$',#6,'Curtain wall installation, phase 3',$,$,'4.3',$,$,$,.F.,$,#105,.INSTALLATION.);
#107=IFCTASKTIME('Roof finishes and services Time',.PREDICTED.,$,.WORKTIME.,'P0Y0M10D','2027-03-01T07:00:00','2027-03-12T07:00:00','2027-10-08T07:00:00','2027-10-21T07:00:00','2027-10-08T07:00:00','2027-10-21T07:00:00','P0Y0M0D','P0Y0M0D',.T.,$,$,$,$,$,0.0);
#108=IFCTASK('yjAZuJh1YJM3Xx813DIxv9',#6,'Roof finishes and services',$,$,'4.4',$,$,$,.F.,$,#107,.CONSTRUCTION.);
#109=IFCTASKTIME('Wind and weathertight Time',.PREDICTED.,$,.WORKTIME.,'P0Y0M0D','2027-03-01T07:00:00','2027-03-01T07:00:00','2027-10-21T07:00:00','2027-10-21T07:00:00','2028-05-04T07:00:00','2028-05-04T07:00:00','P0Y0M137D','P0Y0M137D',.F.,$,$,$,$,$,0.0);
#110=IFCTASK('uBY1oX2nahlr4ZLlFRXpaN',#6,'Wind and weathertight',$,$,'4.5',$,$,$,.T.,$,#109,.INSTALLATION.);
#111=IFCTASKTIME('5. Building services Time',.PREDICTED.,$,.WORKTIME.,'P0Y0M5D','2027-03-01T07:00:00','2027-03-05T07:00:00','2027-10-22T07:00:00','2028-02-22T07:00:00','2027-10-22T07:00:00','2028-05-04T07:00:00','P0Y0M0D','P0Y0M0D',.T.,$,$,$,$,$,0.0);
#112=IFCTASK('ZZmPnFRF2TKzfdw$uhuFfV',#6,'5. Building services',$,$,'5',$,$,$,.F.,$,#111,.INSTALLATION.);
#113=IFCTASKTIME('Main electrical switchroom Time',.PREDICTED.,$,.WORKTIME.,'P0Y0M10D','2027-03-01T07:00:00','2027-03-12T07:00:00','2027-10-22T07:00:00','2027-11-04T07:00:00','2027-10-22T07:00:00','2027-11-04T07:00:00','P0Y0M0D','P0Y0M0D',.T.,$,$,$,$,$,0.0);
#114=IFCTASK('uB6tAL3$qTAZVFDFh37Dmn',#6,'Main electrical switchroom',$,$,'5.1',$,$,$,.F.,$,#113,.INSTALLATION.);
#115=IFCTASKTIME('Risers, electrical Time',.PREDICTED.,$,.WORKTIME.,'P0Y0M12D','2027-03-01T07:00:00','2027-03-16T07:00:00','2027-11-05T07:00:00','2027-11-22T07:00:00','2028-01-13T07:00:00','2028-01-28T07:00:00','P0Y0M0D','P0Y0M49D',.F.,$,$,$,$,$,0.0);
#116=IFCTASK('9DlbCPh$AfBn7XHVXpgZ7N',#6,'Risers, electrical',$,$,'5.2',$,$,$,.F.,$,#115,.INSTALLATION.);
#117=IFCTASKTIME('Risers, mechanical services Time',.PREDICTED.,$,.WORKTIME.,'P0Y0M12D','2027-03-01T07:00:00','2027-03-16T07:00:00','2027-11-10T07:00:00','2027-11-25T07:00:00','2028-01-18T07:00:00','2028-02-02T07:00:00','P0Y0M0D','P0Y0M49D',.F.,$,$,$,$,$,0.0);
#118=IFCTASK('X17rVDktV7rnxFBll781Un',#6,'Risers, mechanical services',$,$,'5.3',$,$,$,.F.,$,#117,.INSTALLATION.);
#119=IFCTASKTIME('Air handling units Time',.PREDICTED.,$,.WORKTIME.,'P0Y0M10D','2027-03-01T07:00:00','2027-03-12T07:00:00','2027-11-26T07:00:00','2027-12-09T07:00:00','2028-02-03T07:00:00','2028-02-16T07:00:00','P0Y0M0D','P0Y0M49D',.F.,$,$,$,$,$,0.0);
#120=IFCTASK('CBfj1ZuvkXxV6Jv$RVpdzL',#6,'Air handling units',$,$,'5.4',$,$,$,.F.,$,#119,.INSTALLATION.);
#121=IFCTASKTIME('Ventilation ductwork Time',.PREDICTED.,$,.WORKTIME.,'P0Y0M15D','2027-03-01T07:00:00','2027-03-19T07:00:00','2027-12-10T07:00:00','2027-12-30T07:00:00','2028-02-17T07:00:00','2028-03-08T07:00:00','P0Y0M0D','P0Y0M49D',.F.,$,$,$,$,$,0.0);
#122=IFCTASK('SXz92hy$a17DeVDHrJXD8R',#6,'Ventilation ductwork',$,$,'5.5',$,$,$,.F.,$,#121,.INSTALLATION.);
#123=IFCTASKTIME('Sprinkler installation Time',.PREDICTED.,$,.WORKTIME.,'P0Y0M10D','2027-03-01T07:00:00','2027-03-12T07:00:00','2027-12-31T07:00:00','2028-01-13T07:00:00','2028-03-09T07:00:00','2028-03-22T07:00:00','P0Y0M0D','P0Y0M49D',.F.,$,$,$,$,$,0.0);
#124=IFCTASK('EB9DR5$Pljib5nZnUPS3NZ',#6,'Sprinkler installation',$,$,'5.6',$,$,$,.F.,$,#123,.INSTALLATION.);
#125=IFCTASKTIME('Lift installation Time',.PREDICTED.,$,.WORKTIME.,'P0Y0M20D','2027-03-01T07:00:00','2027-03-26T07:00:00','2028-01-14T07:00:00','2028-02-10T07:00:00','2028-03-23T07:00:00','2028-04-21T07:00:00','P0Y0M0D','P0Y0M49D',.F.,$,$,$,$,$,0.0);
#126=IFCTASK('yJ2B5nLlBZiRThMlcdOVOL',#6,'Lift installation',$,$,'5.7',$,$,$,.F.,$,#125,.INSTALLATION.);
#127=IFCTASKTIME('BMS/building management Time',.PREDICTED.,$,.WORKTIME.,'P0Y0M8D','2027-03-01T07:00:00','2027-03-10T07:00:00','2028-02-11T07:00:00','2028-02-22T07:00:00','2028-04-24T07:00:00','2028-05-04T07:00:00','P0Y0M49D','P0Y0M49D',.F.,$,$,$,$,$,0.0);
#128=IFCTASK('AJ5V4$UN8Nzf37wlLZzfUD',#6,'BMS/building management',$,$,'5.8',$,$,$,.F.,$,#127,.INSTALLATION.);
#129=IFCTASKTIME('6. Fit-out Time',.PREDICTED.,$,.WORKTIME.,'P0Y0M5D','2027-03-01T07:00:00','2027-03-05T07:00:00','2027-12-30T07:00:00','2028-03-22T07:00:00','2027-12-30T07:00:00','2028-03-22T07:00:00','P0Y0M0D','P0Y0M0D',.T.,$,$,$,$,$,0.0);
#130=IFCTASK('zJQjNHmf2tATZtanPHj7Zt',#6,'6. Fit-out',$,$,'6',$,$,$,.F.,$,#129,.CONSTRUCTION.);
#131=IFCTASKTIME('Office system partitions Time',.PREDICTED.,$,.WORKTIME.,'P0Y0M15D','2027-03-01T07:00:00','2027-03-19T07:00:00','2027-12-30T07:00:00','2028-01-19T07:00:00','2027-12-30T07:00:00','2028-01-19T07:00:00','P0Y0M0D','P0Y0M0D',.T.,$,$,$,$,$,0.0);
#132=IFCTASK('HfG7hNevutfZHNqHEDszT9',#6,'Office system partitions',$,$,'6.1',$,$,$,.F.,$,#131,.CONSTRUCTION.);
#133=IFCTASKTIME('Suspended ceilings Time',.PREDICTED.,$,.WORKTIME.,'P0Y0M12D','2027-03-01T07:00:00','2027-03-16T07:00:00','2028-01-20T07:00:00','2028-02-04T07:00:00','2028-01-20T07:00:00','2028-02-04T07:00:00','P0Y0M0D','P0Y0M0D',.T.,$,$,$,$,$,0.0);
#134=IFCTASK('UXpd17EtvN61CHzlkTarSb',#6,'Suspended ceilings',$,$,'6.2',$,$,$,.F.,$,#133,.CONSTRUCTION.);
#135=IFCTASKTIME('Raised floors Time',.PREDICTED.,$,.WORKTIME.,'P0Y0M10D','2027-03-01T07:00:00','2027-03-12T07:00:00','2028-02-07T07:00:00','2028-02-18T07:00:00','2028-02-07T07:00:00','2028-02-18T07:00:00','P0Y0M0D','P0Y0M0D',.T.,$,$,$,$,$,0.0);
#136=IFCTASK('vn1rHx9fOHWlnv_nNNszTN',#6,'Raised floors',$,$,'6.3',$,$,$,.F.,$,#135,.CONSTRUCTION.);
#137=IFCTASKTIME('Sanitary rooms Time',.PREDICTED.,$,.WORKTIME.,'P0Y0M8D','2027-03-01T07:00:00','2027-03-10T07:00:00','2028-02-21T07:00:00','2028-03-01T07:00:00','2028-02-21T07:00:00','2028-03-01T07:00:00','P0Y0M0D','P0Y0M0D',.T.,$,$,$,$,$,0.0);
#138=IFCTASK('ANcJlRDn2z0FD33l6pJvZN',#6,'Sanitary rooms',$,$,'6.4',$,$,$,.F.,$,#137,.CONSTRUCTION.);
#139=IFCTASKTIME('Kitchen/pantry fit-out Time',.PREDICTED.,$,.WORKTIME.,'P0Y0M5D','2027-03-01T07:00:00','2027-03-05T07:00:00','2028-03-02T07:00:00','2028-03-08T07:00:00','2028-03-02T07:00:00','2028-03-08T07:00:00','P0Y0M0D','P0Y0M0D',.T.,$,$,$,$,$,0.0);
#140=IFCTASK('LTbl9TdtJLVRfPg$JbnZP7',#6,'Kitchen/pantry fit-out',$,$,'6.5',$,$,$,.F.,$,#139,.INSTALLATION.);
#141=IFCTASKTIME('Painting & finishing Time',.PREDICTED.,$,.WORKTIME.,'P0Y0M10D','2027-03-01T07:00:00','2027-03-12T07:00:00','2028-03-09T07:00:00','2028-03-22T07:00:00','2028-03-09T07:00:00','2028-03-22T07:00:00','P0Y0M0D','P0Y0M0D',.T.,$,$,$,$,$,0.0);
#142=IFCTASK('NTZNy$MdHDWlj1Tnkzu1ER',#6,'Painting & finishing',$,$,'6.6',$,$,$,.F.,$,#141,.CONSTRUCTION.);
#143=IFCTASKTIME('7. Site works & handover Time',.PREDICTED.,$,.WORKTIME.,'P0Y0M5D','2027-03-01T07:00:00','2027-03-05T07:00:00','2028-03-23T07:00:00','2028-05-04T07:00:00','2028-03-23T07:00:00','2028-05-04T07:00:00','P0Y0M0D','P0Y0M0D',.T.,$,$,$,$,$,0.0);
#144=IFCTASK('EPQjfFSHxxdrqhYnDrZ9a9',#6,'7. Site works & handover',$,$,'7',$,$,$,.F.,$,#143,.CONSTRUCTION.);
#145=IFCTASKTIME('Paving & landscaping Time',.PREDICTED.,$,.WORKTIME.,'P0Y0M10D','2027-03-01T07:00:00','2027-03-12T07:00:00','2028-03-23T07:00:00','2028-04-05T07:00:00','2028-03-23T07:00:00','2028-04-05T07:00:00','P0Y0M0D','P0Y0M0D',.T.,$,$,$,$,$,0.0);
#146=IFCTASK('ZVTNaDE9DdnDqF$XQZhHRR',#6,'Paving & landscaping',$,$,'7.1',$,$,$,.F.,$,#145,.CONSTRUCTION.);
#147=IFCTASKTIME('Entrance & lobby fit-out Time',.PREDICTED.,$,.WORKTIME.,'P0Y0M8D','2027-03-01T07:00:00','2027-03-10T07:00:00','2028-04-06T07:00:00','2028-04-19T07:00:00','2028-04-06T07:00:00','2028-04-19T07:00:00','P0Y0M0D','P0Y0M0D',.T.,$,$,$,$,$,0.0);
#148=IFCTASK('6HJP7LqV1frnBvgl25xHLj',#6,'Entrance & lobby fit-out',$,$,'7.2',$,$,$,.F.,$,#147,.INSTALLATION.);
#149=IFCTASKTIME('Testing & commissioning Time',.PREDICTED.,$,.WORKTIME.,'P0Y0M10D','2027-03-01T07:00:00','2027-03-12T07:00:00','2028-04-20T07:00:00','2028-05-04T07:00:00','2028-04-20T07:00:00','2028-05-04T07:00:00','P0Y0M0D','P0Y0M0D',.T.,$,$,$,$,$,0.0);
#150=IFCTASK('Nv4rLN09hJoBWDJFbXZfYH',#6,'Testing & commissioning',$,$,'7.3',$,$,$,.F.,$,#149,.ATTENDANCE.);
#151=IFCTASKTIME('Handover Time',.PREDICTED.,$,.WORKTIME.,'P0Y0M0D','2027-03-01T07:00:00','2027-03-01T07:00:00','2028-05-04T07:00:00','2028-05-04T07:00:00','2028-05-04T07:00:00','2028-05-04T07:00:00','P0Y0M0D','P0Y0M0D',.T.,$,$,$,$,$,0.0);
#152=IFCTASK('8pXL3PpFYPSJ_pv1cvaBm$',#6,'Handover',$,$,'7.4',$,$,$,.T.,$,#151,.CONSTRUCTION.);
#153=IFCRELNESTS('1pIlbbpnY7GVQ3jlT3WPHh',#6,'WBS 1. Preparation',$,#40,( #42,#44,#46,#48,#50));
#154=IFCRELNESTS('AJp7r7_NsrrnfPc$A$fhgN',#6,'WBS 2. Earthworks & foundations',$,#52,( #54,#56,#58,#60,#62,#64,#66,#68,#70,#72));
#155=IFCRELNESTS('WXBVW1PtR$nL_pv$EDEbPL',#6,'WBS 3. Structural works',$,#74,( #76,#78,#80,#82,#84,#86,#88,#90,#92,#94,#96,#98));
#156=IFCRELNESTS('Q$HJ3hin_ZCZDF7$opcDmn',#6,'WBS 4. Facade',$,#100,( #102,#104,#106,#108,#110));
#157=IFCRELNESTS('gvKjB7E9559R$rA$HBpdfX',#6,'WBS 5. Building services',$,#112,( #114,#116,#118,#120,#122,#124,#126,#128));
#158=IFCRELNESTS('sfk5g$$dBTq5tBkXc7ixJT',#6,'WBS 6. Fit-out',$,#130,( #132,#134,#136,#138,#140,#142));
#159=IFCRELNESTS('hTrX4Zed73GXc3zHk1hlF1',#6,'WBS 7. Site works & handover',$,#144,( #146,#148,#150,#152));
#160=IFCRELNESTS('tjjP5r1vgdnD4TBHzDgTrv',#6,'WBS Hoofd',$,#37,(#40,#52,#74,#100,#112,#130,#144));
#161=IFCRELSEQUENCE('NPOlfpF7QpWlRLwHL3nLgp',#6,$,$,#42,#44,$,.FINISH_START.,$);
#162=IFCRELSEQUENCE('AJxVObUn6nizDTFV11JvBz',#6,$,$,#44,#46,$,.FINISH_START.,$);
#163=IFCRELSEQUENCE('0nZNy$wv23WHNx4lbVZN6X',#6,$,$,#46,#48,$,.FINISH_START.,$);
#164=IFCRELSEQUENCE('bXxnxFpVFZY5rJ5nsbQ7$t',#6,$,$,#48,#50,$,.FINISH_START.,$);
#165=IFCRELSEQUENCE('0n39AFpXXx1Z7jlXznpPLt',#6,$,$,#54,#56,$,.FINISH_START.,$);
#166=IFCRELSEQUENCE('EPM3_71dHpm10ZFVhdGt47',#6,$,$,#56,#58,$,.FINISH_START.,$);
#167=IFCRELSEQUENCE('M3fRyT87EndBavslK1H37b',#6,$,$,#58,#60,$,.FINISH_START.,$);
#168=IFCRELSEQUENCE('spF5snrl$fDdut8$Q7CpWv',#6,$,$,#60,#62,$,.FINISH_START.,$);
#169=IFCRELSEQUENCE('N7yTCPxXvTqTx5819ZLlzv',#6,$,$,#62,#64,$,.FINISH_START.,$);
#170=IFCRELSEQUENCE('LPGdlX5XdDgFnDt1T$LHZt',#6,$,$,#64,#66,$,.FINISH_START.,$);
#171=IFCRELSEQUENCE('qBlRmNOviJqxvJVXMrqRpn',#6,$,$,#66,#68,$,.FINISH_START.,$);
#172=IFCRELSEQUENCE('BtQNap_NAhHruNaFZ$rFHB',#6,$,$,#68,#70,$,.FINISH_START.,$);
#173=IFCRELSEQUENCE('Ajz9MxVP1NpPWDblwfQpOB',#6,$,$,#70,#72,$,.FINISH_START.,$);
#174=IFCRELSEQUENCE('1jI5sld9lVQXgfWXXjYFBv',#6,$,$,#76,#78,$,.FINISH_START.,$);
#175=IFCRELSEQUENCE('cVj7bVr1mzWldTv1gr4ThN',#6,$,$,#78,#80,$,.FINISH_START.,$);
#176=IFCRELSEQUENCE('F7wtwZGfgx7hkFzFaxZfgN',#6,$,$,#80,#82,$,.FINISH_START.,$);
#177=IFCRELSEQUENCE('0lfJFrfNuNrF7VlVPHzfsT',#6,$,$,#82,#84,$,.FINISH_START.,$);
#178=IFCRELSEQUENCE('YXbH7hCXHVkdunDFL3VbVd',#6,$,$,#84,#86,$,.FINISH_START.,$);
#179=IFCRELSEQUENCE('h31ZOZnPRBlrG5CnObQ7Vd',#6,$,$,#86,#88,$,.FINISH_START.,$);
#180=IFCRELSEQUENCE('f3vrNH0tx5$ZhTRlU7eHHl',#6,$,$,#88,#90,$,.FINISH_START.,$);
#181=IFCRELSEQUENCE('ttAv3haHNnlJcnv1c7Sz$9',#6,$,$,#90,#92,$,.FINISH_START.,$);
#182=IFCLAGTIME('Lag',.PREDICTED.,$,IFCDURATION('P5D'),.WORKTIME.);
#183=IFCRELSEQUENCE('d1txUtBlFF4h6Jd17$FZd7',#6,$,$,#92,#94,#182,.START_START.,$);
#184=IFCRELSEQUENCE('0lnxctylvZSrSDlXv$Vpi$',#6,$,$,#94,#96,$,.FINISH_START.,$);
#185=IFCRELSEQUENCE('TzCDxBlPTDG$m5CHc3HrW7',#6,$,$,#96,#98,$,.FINISH_START.,$);
#186=IFCRELSEQUENCE('ez7BLtin23WHxRyH5lzNk7',#6,$,$,#102,#104,$,.FINISH_START.,$);
#187=IFCRELSEQUENCE('R1NbGPYnIXxVczjHl70vBz',#6,$,$,#104,#106,$,.FINISH_START.,$);
#188=IFCRELSEQUENCE('az4rRVJn89tzXxmVmVt3FX',#6,$,$,#106,#108,$,.FINISH_START.,$);
#189=IFCRELSEQUENCE('6lBFnrlPR1XRjJd$VpEbRR',#6,$,$,#108,#110,$,.FINISH_START.,$);
#190=IFCRELSEQUENCE('xroFP9z1897DChoncZLHJ1',#6,$,$,#114,#116,$,.FINISH_START.,$);
#191=IFCLAGTIME('Lag',.PREDICTED.,$,IFCDURATION('P3D'),.WORKTIME.);
#192=IFCRELSEQUENCE('lNGvT5YNqT_RB7wHxhOllF',#6,$,$,#116,#118,#191,.START_START.,$);
#193=IFCRELSEQUENCE('Oz1TG9CnuVw1ibile52rGl',#6,$,$,#118,#120,$,.FINISH_START.,$);
#194=IFCRELSEQUENCE('qr$rtXYns9tzLtO$RRI1gt',#6,$,$,#120,#122,$,.FINISH_START.,$);
#195=IFCRELSEQUENCE('T1XzIHWtB9g3b$t1TVVRZt',#6,$,$,#122,#124,$,.FINISH_START.,$);
#196=IFCRELSEQUENCE('i7KbSH8dt1VbxnzFmHVD0f',#6,$,$,#124,#126,$,.FINISH_START.,$);
#197=IFCRELSEQUENCE('tN2rnrv991XbFDXV0PSzpl',#6,$,$,#126,#128,$,.FINISH_START.,$);
#198=IFCRELSEQUENCE('OzXz2Pjn4x1Tz7AHiJUnJ3',#6,$,$,#132,#134,$,.FINISH_START.,$);
#199=IFCRELSEQUENCE('pLLl17YNev3v_p$XQ7qR3v',#6,$,$,#134,#136,$,.FINISH_START.,$);
#200=IFCRELSEQUENCE('t9696TWtX7Zd8te1hZBF1j',#6,$,$,#136,#138,$,.FINISH_START.,$);
#201=IFCRELSEQUENCE('n7svL9S1UPC5j1hH7VB1_3',#6,$,$,#138,#140,$,.FINISH_START.,$);
#202=IFCRELSEQUENCE('kx$Tm7YNyHRVoBYVj5B$6X',#6,$,$,#140,#142,$,.FINISH_START.,$);
#203=IFCRELSEQUENCE('7rkHPx67cXYN5RSFlhPjQr',#6,$,$,#146,#148,$,.FINISH_START.,$);
#204=IFCRELSEQUENCE('SZWfyT09LpIdadYXlPa35L',#6,$,$,#148,#150,$,.FINISH_START.,$);
#205=IFCRELSEQUENCE('jfWfCPxVLvOtL98$YBb$cn',#6,$,$,#150,#152,$,.FINISH_START.,$);
#206=IFCLAGTIME('Lag',.PREDICTED.,$,IFCDURATION('P10D'),.WORKTIME.);
#207=IFCRELSEQUENCE('g7qDVNOvu9t39NWXhzfZZx',#6,$,$,#42,#54,#206,.START_START.,$);
#208=IFCLAGTIME('Lag',.PREDICTED.,$,IFCRATIOMEASURE(0.4),.WORKTIME.);
#209=IFCRELSEQUENCE('QX5FtVQXdjUxVF3F4BpP$p',#6,$,$,#54,#76,#208,.START_START.,$);
#210=IFCLAGTIME('Lag',.PREDICTED.,$,IFCDURATION('-P21D'),.WORKTIME.);
#211=IFCRELSEQUENCE('SZWNWVzltLR$4ZRlEFj7Rb',#6,$,$,#96,#102,#210,.FINISH_START.,$);
#212=IFCLAGTIME('Lag',.PREDICTED.,$,IFCDURATION('P2D'),.WORKTIME.);
#213=IFCRELSEQUENCE('JtShHVDFwnSrOvglgrCbBZ',#6,$,$,#96,#108,#212,.FINISH_FINISH.,$);
#214=IFCRELSEQUENCE('hP8VGvQvqz293RGXqFVbJX',#6,$,$,#108,#114,$,.FINISH_START.,$);
#215=IFCLAGTIME('Lag',.PREDICTED.,$,IFCDURATION('P49D'),.WORKTIME.);
#216=IFCRELSEQUENCE('3JULP52NIh5XYNSlv1XDaR',#6,$,$,#114,#132,#215,.START_START.,$);
#217=IFCRELSEQUENCE('zjULjXoldvGXs7Unb$trC3',#6,$,$,#142,#146,$,.FINISH_START.,$);
#218=IFCRELASSIGNSTOCONTROL('rDVhNjbXHjyDCF$VkTSruD',#6,$,$,(#40,#42,#44,#46,#48,#50,#52,#54,#56,#58,#60,#62,#64,#66,#68,#70,#72,#74,#76,#78,#80,#82,#84,#86,#88,#90,#92,#94,#96,#98,#100,#102,#104,#106,#108,#110,#112,#114,#116,#118,#120,#122,#124,#126,#128,#130,#132,#134,#136,#138,#140,#142,#144,#146,#148,#150,#152),$,#37);
#219=IFCPROPERTYSINGLEVALUE('wbsAutoNumber',$,IFCBOOLEAN(.T.),$);
#220=IFCPROPERTYSINGLEVALUE('ProjectStartDate',$,IFCDATE('2027-03-01'),$);
#221=IFCPROPERTYSINGLEVALUE('ProjectEndDate',$,$,$);
#222=IFCPROPERTYSINGLEVALUE('CreatedAt',$,IFCTEXT('2026-07-28T14:38:23.559Z'),$);
#223=IFCPROPERTYSINGLEVALUE('ModifiedAt',$,IFCTEXT('2026-07-28T14:38:23.559Z'),$);
#224=IFCPROPERTYSET('e5a3ArlP$tNZvpDF1ZK5n5',#6,'OPS_ProjectSettings',$,(#219,#220,#221,#222,#223));
#225=IFCRELDEFINESBYPROPERTIES('0Hdzo1sPJhdjQlBF$1BF9l',#6,$,$,(#13),#224);
#226=IFCPROPERTYSINGLEVALUE('MilestoneKind',$,IFCLABEL('START'),$);
#227=IFCPROPERTYSET('e5qxoXg1sLPJ2PQ$EHnZP7',#6,'OPS_Milestone',$,(#226));
#228=IFCRELDEFINESBYPROPERTIES('FdMzgRZl5bbXkbCHEj2lfT',#6,$,$,(#50),#227);
#229=IFCPROPERTYSINGLEVALUE('MilestoneKind',$,IFCLABEL('FINISH'),$);
#230=IFCPROPERTYSET('3J2BppfNANrnxl$VCnHrOZ',#6,'OPS_Milestone',$,(#229));
#231=IFCRELDEFINESBYPROPERTIES('gPmvTx_NcpOtNvsl0v0v$t',#6,$,$,(#98),#230);
#232=IFCPROPERTYSINGLEVALUE('MilestoneKind',$,IFCLABEL('FINISH'),$);
#233=IFCPROPERTYSET('CBvZCvVPNxN5HtGX2fAzZt',#6,'OPS_Milestone',$,(#232));
#234=IFCRELDEFINESBYPROPERTIES('bXRlt3Z12NgFfvEnk$rn7N',#6,$,$,(#110),#233);
#235=IFCPROPERTYSINGLEVALUE('MilestoneKind',$,IFCLABEL('FINISH'),$);
#236=IFCPROPERTYSINGLEVALUE('Mandatory',$,IFCBOOLEAN(.T.),$);
#237=IFCPROPERTYSET('SZuFFBfN0Bnh2Dv12Rvbzv',#6,'OPS_Milestone',$,(#235,#236));
#238=IFCRELDEFINESBYPROPERTIES('r9QNK9bnUdarO1v1EJMNkB',#6,$,$,(#152),#237);
ENDSEC;
END-ISO-10303-21;
