ISO-10303-21;
HEADER;
FILE_DESCRIPTION(('ViewDefinition [SchedulingView]'),'2;1');
FILE_NAME('24 Apartments, Eindhoven.ifc','2026-08-14T08:19:54',('Sophie van Dijk'),('Housing South BV'),'Open Planner Studio 0.1','Open Planner Studio','');
FILE_SCHEMA(('IFC4X3'));
ENDSEC;
DATA;
#1=IFCPERSON($,'Sophie van Dijk',$,$,$,$,$,$);
#2=IFCORGANIZATION($,'Housing South BV',$,$,$);
#3=IFCPERSONANDORGANIZATION(#1,#2,$);
#4=IFCORGANIZATION($,'OpenAEC Foundation',$,$,$);
#5=IFCAPPLICATION(#4,'0.1','Open Planner Studio','OPS');
#6=IFCOWNERHISTORY(#3,#5,$,.NOCHANGE.,$,$,$,1786695594);
#7=IFCSIUNIT(*,.LENGTHUNIT.,$,.METRE.);
#8=IFCSIUNIT(*,.TIMEUNIT.,$,.SECOND.);
#9=IFCUNITASSIGNMENT((#7,#8));
#10=IFCCARTESIANPOINT((0.,0.,0.));
#11=IFCAXIS2PLACEMENT3D(#10,$,$);
#12=IFCGEOMETRICREPRESENTATIONCONTEXT($,'Plan',3,1.0E-05,#11,$);
#13=IFCPROJECT('9NsTGPM1olDtTBYXxH5XyP',#6,'24 Apartments, Eindhoven','24 apartments over four storeys with basement car park',$,$,$,(#12),#9);
#14=IFCTIMEPERIOD('07:00:00','16:00:00');
#15=IFCRECURRENCEPATTERN(.WEEKLY.,$,(1,2,3,4,5),$,$,$,$,(#14));
#16=IFCWORKTIME('Standard work week',.PREDICTED.,$,#15,$,$);
#17=IFCWORKTIME('New Year''s Day',.PREDICTED.,$,$,'2027-01-01','2027-01-01');
#18=IFCWORKTIME('Good Friday',.PREDICTED.,$,$,'2027-03-26','2027-03-26');
#19=IFCWORKTIME('Easter',.PREDICTED.,$,$,'2027-03-28','2027-03-29');
#20=IFCWORKTIME('King''s Day',.PREDICTED.,$,$,'2027-04-27','2027-04-27');
#21=IFCWORKTIME('Liberation Day',.PREDICTED.,$,$,'2027-05-05','2027-05-05');
#22=IFCWORKTIME('Ascension Day',.PREDICTED.,$,$,'2027-05-06','2027-05-06');
#23=IFCWORKTIME('Whitsun',.PREDICTED.,$,$,'2027-05-16','2027-05-17');
#24=IFCWORKTIME('Christmas',.PREDICTED.,$,$,'2027-12-25','2027-12-26');
#25=IFCWORKTIME('Construction holiday (northern region)',.PREDICTED.,$,$,'2027-07-26','2027-08-15');
#26=IFCWORKTIME('New Year''s Day',.PREDICTED.,$,$,'2028-01-01','2028-01-01');
#27=IFCWORKTIME('Good Friday',.PREDICTED.,$,$,'2028-04-14','2028-04-14');
#28=IFCWORKTIME('Easter',.PREDICTED.,$,$,'2028-04-16','2028-04-17');
#29=IFCWORKTIME('King''s Day',.PREDICTED.,$,$,'2028-04-27','2028-04-27');
#30=IFCWORKTIME('Liberation Day',.PREDICTED.,$,$,'2028-05-05','2028-05-05');
#31=IFCWORKTIME('Ascension Day',.PREDICTED.,$,$,'2028-05-25','2028-05-25');
#32=IFCWORKTIME('Whitsun',.PREDICTED.,$,$,'2028-06-04','2028-06-05');
#33=IFCWORKTIME('Christmas',.PREDICTED.,$,$,'2028-12-25','2028-12-26');
#34=IFCWORKTIME('Construction holiday (northern region)',.PREDICTED.,$,$,'2028-07-24','2028-08-13');
#35=IFCWORKCALENDAR('_HlbW$VPl1Yxnv_nBDbFBd',#6,'Construction calendar NL','Standard construction calendar: Mon-Fri 07:00-16:00',$,(#16),(#17,#18,#19,#20,#21,#22,#23,#24,#25,#26,#27,#28,#29,#30,#31,#32,#33,#34),.FIRSTSHIFT.);
#36=IFCWORKPLAN('V1t5Ub_nGZaj_DnXzpERPr',#6,'24 Apartments, Eindhoven','24 apartments over four storeys with basement car park',$,$,'2026-08-14T08:19:54',$,$,$,$,$,'2027-03-01T07:00:00','2027-03-26T07:00:00',.PLANNED.);
#37=IFCWORKSCHEDULE('yFn5EzLHTV_9TB_VBjfLw1',#6,'Construction schedule v1.0',$,$,$,'2026-08-14T08:19:54',$,$,$,$,$,'2027-03-01T07:00:00','2027-03-26T07:00:00',.PLANNED.);
#38=IFCRELAGGREGATES('X$Ph9TPtbVDd8te$ftI1sz',#6,$,$,#36,(#37));
#39=IFCTASKTIME('1. Preparation Time',.PREDICTED.,$,.WORKTIME.,'P0Y0M5D','2027-03-01T07:00:00','2027-03-05T07:00:00','2027-03-01T07:00:00','2027-03-23T07:00:00','2027-03-01T07:00:00','2028-03-15T07:00:00','P0Y0M0D','P0Y0M0D',.T.,$,$,$,$,$,0.0);
#40=IFCTASK('TzibGd2FOlePuNKFU78F5l',#6,'1. Preparation',$,$,'1',$,$,$,.F.,$,#39,.CONSTRUCTION.);
#41=IFCTASKTIME('Set up site Time',.PREDICTED.,$,.WORKTIME.,'P0Y0M5D','2027-03-01T07:00:00','2027-03-05T07:00:00','2027-03-01T07:00:00','2027-03-05T07:00:00','2027-03-01T07:00:00','2027-03-05T07:00:00','P0Y0M0D','P0Y0M0D',.T.,$,$,$,$,$,0.0);
#42=IFCTASK('sf2rh9a$st1xTtyH$1LHPL',#6,'Set up site',$,$,'1.1',$,$,$,.F.,$,#41,.LOGISTIC.);
#43=IFCTASKTIME('Pile load test Time',.PREDICTED.,$,.WORKTIME.,'P0Y0M3D','2027-03-01T07:00:00','2027-03-03T07:00:00','2027-03-08T07:00:00','2027-03-10T07:00:00','2028-02-29T07:00:00','2028-03-02T07:00:00','P0Y0M0D','P0Y0M235D',.F.,$,$,$,$,$,0.0);
#44=IFCTASK('RXJ7nLpVDPPB8FxHi1VDOT',#6,'Pile load test',$,$,'1.2',$,$,$,.F.,$,#43,.CONSTRUCTION.);
#45=IFCTASKTIME('Divert utilities Time',.PREDICTED.,$,.WORKTIME.,'P0Y0M8D','2027-03-01T07:00:00','2027-03-10T07:00:00','2027-03-11T07:00:00','2027-03-22T07:00:00','2028-03-03T07:00:00','2028-03-14T07:00:00','P0Y0M0D','P0Y0M235D',.F.,$,$,$,$,$,0.0);
#46=IFCTASK('99MdJV_nmz0FFDlX1TyLwV',#6,'Divert utilities',$,$,'1.3',$,$,$,.F.,$,#45,.INSTALLATION.);
#47=IFCTASKTIME('Start of construction Time',.PREDICTED.,$,.WORKTIME.,'P0Y0M0D','2027-03-01T07:00:00','2027-03-01T07:00:00','2027-03-23T07:00:00','2027-03-23T07:00:00','2028-03-15T07:00:00','2028-03-15T07:00:00','P0Y0M235D','P0Y0M235D',.F.,$,$,$,$,$,0.0);
#48=IFCTASK('VTO$cpMdHjCxZfO1ats90N',#6,'Start of construction',$,$,'1.4',$,$,$,.T.,$,#47,.CONSTRUCTION.);
#49=IFCTASKTIME('2. Foundations Time',.PREDICTED.,$,.WORKTIME.,'P0Y0M5D','2027-03-01T07:00:00','2027-03-05T07:00:00','2027-03-11T07:00:00','2027-05-28T07:00:00','2027-03-11T07:00:00','2028-03-15T07:00:00','P0Y0M0D','P0Y0M0D',.T.,$,$,$,$,$,0.0);
#50=IFCTASK('SZ8VGPA1OPtRXRaFDdyh6V',#6,'2. Foundations',$,$,'2',$,$,$,.F.,$,#49,.CONSTRUCTION.);
#51=IFCTASKTIME('Pile driving, foundation piles Time',.PREDICTED.,$,.WORKTIME.,'P0Y0M15D','2027-03-01T07:00:00','2027-03-19T07:00:00','2027-03-11T07:00:00','2027-04-02T07:00:00','2027-03-11T07:00:00','2027-04-02T07:00:00','P0Y0M0D','P0Y0M0D',.T.,$,$,$,$,$,0.0);
#52=IFCTASK('qBlbSFS$_z0nTrc$Yd4hYD',#6,'Pile driving, foundation piles',$,$,'2.1',$,$,$,.F.,$,#51,.CONSTRUCTION.);
#53=IFCTASKTIME('Earthworks, basement car park Time',.PREDICTED.,$,.WORKTIME.,'P0Y0M10D','2027-03-01T07:00:00','2027-03-12T07:00:00','2027-04-05T07:00:00','2027-04-16T07:00:00','2028-01-26T07:00:00','2028-02-08T07:00:00','P0Y0M0D','P0Y0M193D',.F.,$,$,$,$,$,0.0);
#54=IFCTASK('CBtpdbYnALvpib4nXlnZdd',#6,'Earthworks, basement car park',$,$,'2.2',$,$,$,.F.,$,#53,.CONSTRUCTION.);
#55=IFCTASKTIME('Foundation beams and pile caps Time',.PREDICTED.,$,.WORKTIME.,'P0Y0M8D','2027-03-01T07:00:00','2027-03-10T07:00:00','2027-04-19T07:00:00','2027-04-29T07:00:00','2028-02-09T07:00:00','2028-02-18T07:00:00','P0Y0M0D','P0Y0M193D',.F.,$,$,$,$,$,0.0);
#56=IFCTASK('b1vrFLJX9BfZ9hQlhd07Hn',#6,'Foundation beams and pile caps',$,$,'2.3',$,$,$,.F.,$,#55,.CONSTRUCTION.);
#57=IFCTASKTIME('Pour basement floor Time',.PREDICTED.,$,.WORKTIME.,'P0Y0M5D','2027-03-01T07:00:00','2027-03-05T07:00:00','2027-04-30T07:00:00','2027-05-10T07:00:00','2028-02-21T07:00:00','2028-02-25T07:00:00','P0Y0M0D','P0Y0M193D',.F.,$,$,$,$,$,0.0);
#58=IFCTASK('IR5FfH099193vV$V8LGNUD',#6,'Pour basement floor',$,$,'2.4',$,$,$,.F.,$,#57,.CONSTRUCTION.);
#59=IFCTASKTIME('Basement walls Time',.PREDICTED.,$,.WORKTIME.,'P0Y0M8D','2027-03-01T07:00:00','2027-03-10T07:00:00','2027-05-11T07:00:00','2027-05-21T07:00:00','2028-02-28T07:00:00','2028-03-08T07:00:00','P0Y0M0D','P0Y0M193D',.F.,$,$,$,$,$,0.0);
#60=IFCTASK('JNe1wvwv_fkPmRu1fDZNAZ',#6,'Basement walls',$,$,'2.5',$,$,$,.F.,$,#59,.CONSTRUCTION.);
#61=IFCTASKTIME('Waterproofing Time',.PREDICTED.,$,.WORKTIME.,'P0Y0M5D','2027-03-01T07:00:00','2027-03-05T07:00:00','2027-05-24T07:00:00','2027-05-28T07:00:00','2028-03-09T07:00:00','2028-03-15T07:00:00','P0Y0M193D','P0Y0M193D',.F.,$,$,$,$,$,0.0);
#62=IFCTASK('wl5XmfGfc$sTvJ91G1xVOz',#6,'Waterproofing',$,$,'2.6',$,$,$,.F.,$,#61,.CONSTRUCTION.);
#63=IFCTASKTIME('3. Structural works Time',.PREDICTED.,$,.WORKTIME.,'P0Y0M5D','2027-03-01T07:00:00','2027-03-05T07:00:00','2027-03-19T07:00:00','2027-09-03T07:00:00','2027-03-19T07:00:00','2028-03-15T07:00:00','P0Y0M0D','P0Y0M0D',.T.,$,$,$,$,$,0.0);
#64=IFCTASK('urs7vdr1utPJ_d6$mHdxtF',#6,'3. Structural works',$,$,'3',$,$,$,.F.,$,#63,.CONSTRUCTION.);
#65=IFCTASKTIME('Ground floor walls and slab Time',.PREDICTED.,$,.WORKTIME.,'P0Y0M12D','2027-03-01T07:00:00','2027-03-16T07:00:00','2027-03-19T07:00:00','2027-04-07T07:00:00','2027-03-19T07:00:00','2027-04-07T07:00:00','P0Y0M0D','P0Y0M0D',.T.,$,$,$,$,$,0.0);
#66=IFCTASK('sfwDzdTlbrvpOdM1Z3GNIh',#6,'Ground floor walls and slab',$,$,'3.1',$,$,$,.F.,$,#65,.CONSTRUCTION.);
#67=IFCTASKTIME('First floor concrete Time',.PREDICTED.,$,.WORKTIME.,'P0Y0M10D','2027-03-01T07:00:00','2027-03-12T07:00:00','2027-04-08T07:00:00','2027-04-21T07:00:00','2027-04-08T07:00:00','2027-04-21T07:00:00','P0Y0M0D','P0Y0M0D',.T.,$,$,$,$,$,0.0);
#68=IFCTASK('ez1Tapo9tXJ7IbaFT1hHF$',#6,'First floor concrete',$,$,'3.2',$,$,$,.F.,$,#67,.CONSTRUCTION.);
#69=IFCTASKTIME('Second floor concrete Time',.PREDICTED.,$,.WORKTIME.,'P0Y0M10D','2027-03-01T07:00:00','2027-03-12T07:00:00','2027-04-22T07:00:00','2027-05-10T07:00:00','2027-04-22T07:00:00','2027-05-10T07:00:00','P0Y0M0D','P0Y0M0D',.T.,$,$,$,$,$,0.0);
#70=IFCTASK('nh3tArNfCzcVQH5FEDQDuR',#6,'Second floor concrete',$,$,'3.3',$,$,$,.F.,$,#69,.CONSTRUCTION.);
#71=IFCTASKTIME('Third floor concrete Time',.PREDICTED.,$,.WORKTIME.,'P0Y0M10D','2027-03-01T07:00:00','2027-03-12T07:00:00','2027-05-11T07:00:00','2027-05-25T07:00:00','2027-05-11T07:00:00','2027-05-25T07:00:00','P0Y0M0D','P0Y0M0D',.T.,$,$,$,$,$,0.0);
#72=IFCTASK('iPOlxhbnwHOtv$DF7Vr$QB',#6,'Third floor concrete',$,$,'3.4',$,$,$,.F.,$,#71,.CONSTRUCTION.);
#73=IFCTASKTIME('Fourth floor concrete Time',.PREDICTED.,$,.WORKTIME.,'P0Y0M10D','2027-03-01T07:00:00','2027-03-12T07:00:00','2027-05-26T07:00:00','2027-06-08T07:00:00','2027-05-26T07:00:00','2027-06-08T07:00:00','P0Y0M0D','P0Y0M0D',.T.,$,$,$,$,$,0.0);
#74=IFCTASK('nvkl5L5nSh$xZ9qHcvqR19',#6,'Fourth floor concrete',$,$,'3.5',$,$,$,.F.,$,#73,.CONSTRUCTION.);
#75=IFCTASKTIME('Concrete stair core Time',.PREDICTED.,$,.WORKTIME.,'P0Y0M15D','2027-03-01T07:00:00','2027-03-19T07:00:00','2027-06-02T07:00:00','2027-06-22T07:00:00','2027-06-02T07:00:00','2027-06-22T07:00:00','P0Y0M0D','P0Y0M0D',.T.,$,$,$,$,$,0.0);
#76=IFCTASK('T$XzcJklXP7h6$DnVJUFX3',#6,'Concrete stair core',$,$,'3.6',$,$,$,.F.,$,#75,.CONSTRUCTION.);
#77=IFCTASKTIME('Roof build-up Time',.PREDICTED.,$,.WORKTIME.,'P0Y0M8D','2027-03-01T07:00:00','2027-03-10T07:00:00','2027-06-23T07:00:00','2027-07-02T07:00:00','2027-06-23T07:00:00','2027-07-02T07:00:00','P0Y0M0D','P0Y0M0D',.T.,$,$,$,$,$,0.0);
#78=IFCTASK('U3qprzy$q7m1Gr61ipI5XT',#6,'Roof build-up',$,$,'3.7',$,$,$,.F.,$,#77,.CONSTRUCTION.);
#79=IFCTASKTIME('Balcony structures Time',.PREDICTED.,$,.WORKTIME.,'P0Y0M10D','2027-03-01T07:00:00','2027-03-12T07:00:00','2027-07-05T07:00:00','2027-07-16T07:00:00','2027-07-05T07:00:00','2027-07-16T07:00:00','P0Y0M0D','P0Y0M0D',.T.,$,$,$,$,$,0.0);
#80=IFCTASK('ErXLXfudpPHjwJHXv17bvb',#6,'Balcony structures',$,$,'3.8',$,$,$,.F.,$,#79,.CONSTRUCTION.);
#81=IFCTASKTIME('Facade masonry Time',.PREDICTED.,$,.WORKTIME.,'P0Y0M20D','2027-03-01T07:00:00','2027-03-26T07:00:00','2027-07-19T07:00:00','2027-09-03T07:00:00','2027-07-19T07:00:00','2027-09-03T07:00:00','P0Y0M0D','P0Y0M0D',.T.,$,$,$,$,$,0.0);
#82=IFCTASK('VZe$wP_n0BnLQHDlvXJ7RR',#6,'Facade masonry',$,$,'3.9',$,$,$,.F.,$,#81,.CONSTRUCTION.);
#83=IFCTASKTIME('Topping out Time',.PREDICTED.,$,.WORKTIME.,'P0Y0M0D','2027-03-01T07:00:00','2027-03-01T07:00:00','2027-09-03T07:00:00','2027-09-03T07:00:00','2028-03-15T07:00:00','2028-03-15T07:00:00','P0Y0M138D','P0Y0M138D',.F.,$,$,$,$,$,0.0);
#84=IFCTASK('hvq5wZe7Wxlj6prlZ3OHjV',#6,'Topping out',$,$,'3.10',$,$,$,.T.,$,#83,.CONSTRUCTION.);
#85=IFCTASKTIME('4. Facade & roof Time',.PREDICTED.,$,.WORKTIME.,'P0Y0M5D','2027-03-01T07:00:00','2027-03-05T07:00:00','2027-07-16T07:00:00','2027-09-23T07:00:00','2027-07-16T07:00:00','2028-03-15T07:00:00','P0Y0M0D','P0Y0M0D',.T.,$,$,$,$,$,0.0);
#86=IFCTASK('_JQjLtS$63cVwpLlpPKjw$',#6,'4. Facade & roof',$,$,'4',$,$,$,.F.,$,#85,.CONSTRUCTION.);
#87=IFCTASKTIME('Facade insulation Time',.PREDICTED.,$,.WORKTIME.,'P0Y0M12D','2027-03-01T07:00:00','2027-03-16T07:00:00','2027-07-16T07:00:00','2027-08-23T07:00:00','2027-07-16T07:00:00','2027-08-23T07:00:00','P0Y0M0D','P0Y0M0D',.T.,$,$,$,$,$,0.0);
#88=IFCTASK('aXTfy3CF8VYfvDTFwj9Byv',#6,'Facade insulation',$,$,'4.1',$,$,$,.F.,$,#87,.INSTALLATION.);
#89=IFCTASKTIME('Window frames and glazing Time',.PREDICTED.,$,.WORKTIME.,'P0Y0M10D','2027-03-01T07:00:00','2027-03-12T07:00:00','2027-08-24T07:00:00','2027-09-06T07:00:00','2027-08-24T07:00:00','2027-09-06T07:00:00','P0Y0M0D','P0Y0M0D',.T.,$,$,$,$,$,0.0);
#90=IFCTASK('Lz9xct4HBfcXwDrl3Jk$_V',#6,'Window frames and glazing',$,$,'4.2',$,$,$,.F.,$,#89,.INSTALLATION.);
#91=IFCTASKTIME('Roofing and insulation Time',.PREDICTED.,$,.WORKTIME.,'P0Y0M8D','2027-03-01T07:00:00','2027-03-10T07:00:00','2027-09-07T07:00:00','2027-09-16T07:00:00','2027-09-07T07:00:00','2027-09-16T07:00:00','P0Y0M0D','P0Y0M0D',.T.,$,$,$,$,$,0.0);
#92=IFCTASK('W$t5_rOdFF4hU9O1S9s9u5',#6,'Roofing and insulation',$,$,'4.3',$,$,$,.F.,$,#91,.CONSTRUCTION.);
#93=IFCTASKTIME('Balcony balustrades Time',.PREDICTED.,$,.WORKTIME.,'P0Y0M5D','2027-03-01T07:00:00','2027-03-05T07:00:00','2027-09-17T07:00:00','2027-09-23T07:00:00','2027-09-17T07:00:00','2027-09-23T07:00:00','P0Y0M0D','P0Y0M0D',.T.,$,$,$,$,$,0.0);
#94=IFCTASK('uBonHxd95lBFf7AHyrT9yv',#6,'Balcony balustrades',$,$,'4.4',$,$,$,.F.,$,#93,.INSTALLATION.);
#95=IFCTASKTIME('Wind and weathertight Time',.PREDICTED.,$,.WORKTIME.,'P0Y0M0D','2027-03-01T07:00:00','2027-03-01T07:00:00','2027-09-23T07:00:00','2027-09-23T07:00:00','2028-03-15T07:00:00','2028-03-15T07:00:00','P0Y0M124D','P0Y0M124D',.F.,$,$,$,$,$,0.0);
#96=IFCTASK('nhR1gbL1khj7wjv1$VfZVz',#6,'Wind and weathertight',$,$,'4.5',$,$,$,.T.,$,#95,.CONSTRUCTION.);
#97=IFCTASKTIME('5. Building services Time',.PREDICTED.,$,.WORKTIME.,'P0Y0M5D','2027-03-01T07:00:00','2027-03-05T07:00:00','2027-09-24T07:00:00','2027-12-07T07:00:00','2027-09-24T07:00:00','2028-03-15T07:00:00','P0Y0M0D','P0Y0M0D',.T.,$,$,$,$,$,0.0);
#98=IFCTASK('Q1nDdRs$u9PJsbGXyd07tD',#6,'5. Building services',$,$,'5',$,$,$,.F.,$,#97,.INSTALLATION.);
#99=IFCTASKTIME('Electrical risers Time',.PREDICTED.,$,.WORKTIME.,'P0Y0M10D','2027-03-01T07:00:00','2027-03-12T07:00:00','2027-09-24T07:00:00','2027-10-07T07:00:00','2027-09-24T07:00:00','2027-10-07T07:00:00','P0Y0M0D','P0Y0M0D',.T.,$,$,$,$,$,0.0);
#100=IFCTASK('hzvrzLSlbB15fR8$zJcvdL',#6,'Electrical risers',$,$,'5.1',$,$,$,.F.,$,#99,.INSTALLATION.);
#101=IFCTASKTIME('Plumbing risers Time',.PREDICTED.,$,.WORKTIME.,'P0Y0M10D','2027-03-01T07:00:00','2027-03-12T07:00:00','2027-09-29T07:00:00','2027-10-12T07:00:00','2028-01-06T07:00:00','2028-01-19T07:00:00','P0Y0M0D','P0Y0M71D',.F.,$,$,$,$,$,0.0);
#102=IFCTASK('CB9pND$PHDm10zplPnlr47',#6,'Plumbing risers',$,$,'5.2',$,$,$,.F.,$,#101,.INSTALLATION.);
#103=IFCTASKTIME('Heating pipework per dwelling Time',.PREDICTED.,$,.WORKTIME.,'P0Y0M12D','2027-03-01T07:00:00','2027-03-16T07:00:00','2027-10-13T07:00:00','2027-10-28T07:00:00','2028-01-20T07:00:00','2028-02-04T07:00:00','P0Y0M0D','P0Y0M71D',.F.,$,$,$,$,$,0.0);
#104=IFCTASK('l9C5E3RFMRz7EBkVcTDP79',#6,'Heating pipework per dwelling',$,$,'5.3',$,$,$,.F.,$,#103,.INSTALLATION.);
#105=IFCTASKTIME('Heat recovery ventilation units Time',.PREDICTED.,$,.WORKTIME.,'P0Y0M8D','2027-03-01T07:00:00','2027-03-10T07:00:00','2027-10-29T07:00:00','2027-11-09T07:00:00','2028-02-07T07:00:00','2028-02-16T07:00:00','P0Y0M0D','P0Y0M71D',.F.,$,$,$,$,$,0.0);
#106=IFCTASK('2pY1EVEHPdSrO7YFbXpPN$',#6,'Heat recovery ventilation units',$,$,'5.4',$,$,$,.F.,$,#105,.INSTALLATION.);
#107=IFCTASKTIME('Lift installation Time',.PREDICTED.,$,.WORKTIME.,'P0Y0M15D','2027-03-01T07:00:00','2027-03-19T07:00:00','2027-11-10T07:00:00','2027-11-30T07:00:00','2028-02-17T07:00:00','2028-03-08T07:00:00','P0Y0M0D','P0Y0M71D',.F.,$,$,$,$,$,0.0);
#108=IFCTASK('cXZNSp_fo5lJ61TnA1Xp4h',#6,'Lift installation',$,$,'5.5',$,$,$,.F.,$,#107,.INSTALLATION.);
#109=IFCTASKTIME('Intercom and access control Time',.PREDICTED.,$,.WORKTIME.,'P0Y0M5D','2027-03-01T07:00:00','2027-03-05T07:00:00','2027-12-01T07:00:00','2027-12-07T07:00:00','2028-03-09T07:00:00','2028-03-15T07:00:00','P0Y0M71D','P0Y0M71D',.F.,$,$,$,$,$,0.0);
#110=IFCTASK('bVRlfJ3Hth3fVHXXMHpdBv',#6,'Intercom and access control',$,$,'5.6',$,$,$,.F.,$,#109,.INSTALLATION.);
#111=IFCTASKTIME('6. Fit-out Time',.PREDICTED.,$,.WORKTIME.,'P0Y0M5D','2027-03-01T07:00:00','2027-03-05T07:00:00','2027-11-05T07:00:00','2028-02-11T07:00:00','2027-11-05T07:00:00','2028-02-11T07:00:00','P0Y0M0D','P0Y0M0D',.T.,$,$,$,$,$,0.0);
#112=IFCTASK('9jpvd9jVrfgFv1znGXXbBZ',#6,'6. Fit-out',$,$,'6',$,$,$,.F.,$,#111,.CONSTRUCTION.);
#113=IFCTASKTIME('Set out internal walls Time',.PREDICTED.,$,.WORKTIME.,'P0Y0M10D','2027-03-01T07:00:00','2027-03-12T07:00:00','2027-11-05T07:00:00','2027-11-18T07:00:00','2027-11-05T07:00:00','2027-11-18T07:00:00','P0Y0M0D','P0Y0M0D',.T.,$,$,$,$,$,0.0);
#114=IFCTASK('BpfjJT9NoHp9LNSFVjc7R5',#6,'Set out internal walls',$,$,'6.1',$,$,$,.F.,$,#113,.CONSTRUCTION.);
#115=IFCTASKTIME('Plastering Time',.PREDICTED.,$,.WORKTIME.,'P0Y0M12D','2027-03-01T07:00:00','2027-03-16T07:00:00','2027-11-19T07:00:00','2027-12-06T07:00:00','2027-11-19T07:00:00','2027-12-06T07:00:00','P0Y0M0D','P0Y0M0D',.T.,$,$,$,$,$,0.0);
#116=IFCTASK('azyBl5n7sLHrmR0XHdSrW7',#6,'Plastering',$,$,'6.2',$,$,$,.F.,$,#115,.CONSTRUCTION.);
#117=IFCTASKTIME('Tiling Time',.PREDICTED.,$,.WORKTIME.,'P0Y0M10D','2027-03-01T07:00:00','2027-03-12T07:00:00','2027-12-07T07:00:00','2027-12-20T07:00:00','2027-12-07T07:00:00','2027-12-20T07:00:00','P0Y0M0D','P0Y0M0D',.T.,$,$,$,$,$,0.0);
#118=IFCTASK('nLxXOzJVpRx1KXlVNN6jYp',#6,'Tiling',$,$,'6.3',$,$,$,.F.,$,#117,.CONSTRUCTION.);
#119=IFCTASKTIME('Screed floors Time',.PREDICTED.,$,.WORKTIME.,'P0Y0M8D','2027-03-01T07:00:00','2027-03-10T07:00:00','2027-12-21T07:00:00','2027-12-30T07:00:00','2027-12-21T07:00:00','2027-12-30T07:00:00','P0Y0M0D','P0Y0M0D',.T.,$,$,$,$,$,0.0);
#120=IFCTASK('FrP363Sl$hVRRXbF0vellF',#6,'Screed floors',$,$,'6.4',$,$,$,.F.,$,#119,.CONSTRUCTION.);
#121=IFCTASKTIME('Internal doors Time',.PREDICTED.,$,.WORKTIME.,'P0Y0M5D','2027-03-01T07:00:00','2027-03-05T07:00:00','2027-12-31T07:00:00','2028-01-06T07:00:00','2027-12-31T07:00:00','2028-01-06T07:00:00','P0Y0M0D','P0Y0M0D',.T.,$,$,$,$,$,0.0);
#122=IFCTASK('6nXhZNHPthhHBJLnh3$xdd',#6,'Internal doors',$,$,'6.5',$,$,$,.F.,$,#121,.INSTALLATION.);
#123=IFCTASKTIME('Kitchen units installation Time',.PREDICTED.,$,.WORKTIME.,'P0Y0M8D','2027-03-01T07:00:00','2027-03-10T07:00:00','2028-01-07T07:00:00','2028-01-18T07:00:00','2028-01-07T07:00:00','2028-01-18T07:00:00','P0Y0M0D','P0Y0M0D',.T.,$,$,$,$,$,0.0);
#124=IFCTASK('ovonfnCXTp8vkbqHYLvDK1',#6,'Kitchen units installation',$,$,'6.6',$,$,$,.F.,$,#123,.INSTALLATION.);
#125=IFCTASKTIME('Painting Time',.PREDICTED.,$,.WORKTIME.,'P0Y0M10D','2027-03-01T07:00:00','2027-03-12T07:00:00','2028-01-19T07:00:00','2028-02-01T07:00:00','2028-01-19T07:00:00','2028-02-01T07:00:00','P0Y0M0D','P0Y0M0D',.T.,$,$,$,$,$,0.0);
#126=IFCTASK('4jYhhDQvWxvL6$blMrKjYj',#6,'Painting',$,$,'6.7',$,$,$,.F.,$,#125,.CONSTRUCTION.);
#127=IFCTASKTIME('Floor finishes Time',.PREDICTED.,$,.WORKTIME.,'P0Y0M8D','2027-03-01T07:00:00','2027-03-10T07:00:00','2028-02-02T07:00:00','2028-02-11T07:00:00','2028-02-02T07:00:00','2028-02-11T07:00:00','P0Y0M0D','P0Y0M0D',.T.,$,$,$,$,$,0.0);
#128=IFCTASK('zjER4Tuvk1FLoXpl7$lzDn',#6,'Floor finishes',$,$,'6.8',$,$,$,.F.,$,#127,.CONSTRUCTION.);
#129=IFCTASKTIME('7. Handover Time',.PREDICTED.,$,.WORKTIME.,'P0Y0M5D','2027-03-01T07:00:00','2027-03-05T07:00:00','2028-02-14T07:00:00','2028-03-15T07:00:00','2028-02-14T07:00:00','2028-03-15T07:00:00','P0Y0M0D','P0Y0M0D',.T.,$,$,$,$,$,0.0);
#130=IFCTASK('idO1cj_nqdi3fP_XnbNhIv',#6,'7. Handover',$,$,'7',$,$,$,.F.,$,#129,.CONSTRUCTION.);
#131=IFCTASKTIME('Site paving Time',.PREDICTED.,$,.WORKTIME.,'P0Y0M8D','2027-03-01T07:00:00','2027-03-10T07:00:00','2028-02-14T07:00:00','2028-02-23T07:00:00','2028-02-14T07:00:00','2028-02-23T07:00:00','P0Y0M0D','P0Y0M0D',.T.,$,$,$,$,$,0.0);
#132=IFCTASK('MTTfm7w7_NkPOXxnYLvpKj',#6,'Site paving',$,$,'7.1',$,$,$,.F.,$,#131,.CONSTRUCTION.);
#133=IFCTASKTIME('Landscaping Time',.PREDICTED.,$,.WORKTIME.,'P0Y0M5D','2027-03-01T07:00:00','2027-03-05T07:00:00','2028-02-24T07:00:00','2028-03-01T07:00:00','2028-02-24T07:00:00','2028-03-01T07:00:00','P0Y0M0D','P0Y0M0D',.T.,$,$,$,$,$,0.0);
#134=IFCTASK('gzfRmNGf4n$Txxe$NfobZt',#6,'Landscaping',$,$,'7.2',$,$,$,.F.,$,#133,.CONSTRUCTION.);
#135=IFCTASKTIME('Cleaning Time',.PREDICTED.,$,.WORKTIME.,'P0Y0M5D','2027-03-01T07:00:00','2027-03-05T07:00:00','2028-03-02T07:00:00','2028-03-08T07:00:00','2028-03-02T07:00:00','2028-03-08T07:00:00','P0Y0M0D','P0Y0M0D',.T.,$,$,$,$,$,0.0);
#136=IFCTASK('vL6DtTtf_ZyLMtanbbgN6$',#6,'Cleaning',$,$,'7.3',$,$,$,.F.,$,#135,.LOGISTIC.);
#137=IFCTASKTIME('Pre-handover inspection, dwellings Time',.PREDICTED.,$,.WORKTIME.,'P0Y0M5D','2027-03-01T07:00:00','2027-03-05T07:00:00','2028-03-09T07:00:00','2028-03-15T07:00:00','2028-03-09T07:00:00','2028-03-15T07:00:00','P0Y0M0D','P0Y0M0D',.T.,$,$,$,$,$,0.0);
#138=IFCTASK('vndz2vHvS1fT37knCzmtmn',#6,'Pre-handover inspection, dwellings',$,$,'7.4',$,$,$,.F.,$,#137,.ATTENDANCE.);
#139=IFCTASKTIME('Handover Time',.PREDICTED.,$,.WORKTIME.,'P0Y0M0D','2027-03-01T07:00:00','2027-03-01T07:00:00','2028-03-15T07:00:00','2028-03-15T07:00:00','2028-03-15T07:00:00','2028-03-15T07:00:00','P0Y0M0D','P0Y0M0D',.T.,$,$,$,$,$,0.0);
#140=IFCTASK('S$NRy$UfGDov6VFVFtMfsT',#6,'Handover',$,$,'7.5',$,$,$,.T.,$,#139,.CONSTRUCTION.);
#141=IFCRELNESTS('gPe$o$AdV7DtLte$epr$_1',#6,'WBS 1. Preparation',$,#40,( #42,#44,#46,#48));
#142=IFCRELNESTS('h74BVJUnUp2trvQlbXhVKp',#6,'WBS 2. Foundations',$,#50,( #52,#54,#56,#58,#60,#62));
#143=IFCRELNESTS('n7IltZ$7sBrF1rkXMntzJ1',#6,'WBS 3. Structural works',$,#64,( #66,#68,#70,#72,#74,#76,#78,#80,#82,#84));
#144=IFCRELNESTS('tfk5gbDFA9tzf7MHQZR1E5',#6,'WBS 4. Facade & roof',$,#86,( #88,#90,#92,#94,#96));
#145=IFCRELNESTS('VT09AlNNWxXz71BlJRNLwx',#6,'WBS 5. Building services',$,#98,( #100,#102,#104,#106,#108,#110));
#146=IFCRELNESTS('2ltpbRJnGpo7cn$VYBhl5B',#6,'WBS 6. Fit-out',$,#112,( #114,#116,#118,#120,#122,#124,#126,#128));
#147=IFCRELNESTS('pr$BL9y$yF$TPzBFpBJvzv',#6,'WBS 7. Handover',$,#130,( #132,#134,#136,#138,#140));
#148=IFCRELNESTS('tjjP5r1vgdnD4TBHzDgTrv',#6,'WBS Hoofd',$,#37,(#40,#50,#64,#86,#98,#112,#130));
#149=IFCRELSEQUENCE('C92XC51Pbr93LfClwpz9Gn',#6,$,$,#42,#44,$,.FINISH_START.,$);
#150=IFCRELSEQUENCE('EdwDDnKFkh5Vk5GXqZKxJz',#6,$,$,#44,#46,$,.FINISH_START.,$);
#151=IFCRELSEQUENCE('4HjPNpPtz3UN$$9$TX7pqn',#6,$,$,#46,#48,$,.FINISH_START.,$);
#152=IFCRELSEQUENCE('l5fbmNGfox9RHzXVEldxj3',#6,$,$,#52,#54,$,.FINISH_START.,$);
#153=IFCRELSEQUENCE('7rgdH1vtLpovw1Llxr4Lsd',#6,$,$,#54,#56,$,.FINISH_START.,$);
#154=IFCRELSEQUENCE('kxvBRXxV$tXbLt81oFLVWv',#6,$,$,#56,#58,$,.FINISH_START.,$);
#155=IFCRELSEQUENCE('8h2rFBPtH1g3tNWV5hOHF$',#6,$,$,#58,#60,$,.FINISH_START.,$);
#156=IFCRELSEQUENCE('gvSLZf7tRhxX2jzlMr4TDp',#6,$,$,#60,#62,$,.FINISH_START.,$);
#157=IFCRELSEQUENCE('D7Y1kjzlv3u7IH7$Xnr$6X',#6,$,$,#66,#68,$,.FINISH_START.,$);
#158=IFCRELSEQUENCE('ltC5cp6vQXAHRLclF9c75r',#6,$,$,#68,#70,$,.FINISH_START.,$);
#159=IFCRELSEQUENCE('t9En$zSlLpE7EB_VTVtzpn',#6,$,$,#70,#72,$,.FINISH_START.,$);
#160=IFCRELSEQUENCE('4HhlDH0tLjATtBQ1EJgfQH',#6,$,$,#72,#74,$,.FINISH_START.,$);
#161=IFCLAGTIME('Lag',.PREDICTED.,$,IFCDURATION('P5D'),.WORKTIME.);
#162=IFCRELSEQUENCE('R$vBlRxXjhPJAPA$xL81IB',#6,$,$,#74,#76,#161,.START_START.,$);
#163=IFCRELSEQUENCE('jfWN4$w7sfhl5RiHmnLV8j',#6,$,$,#76,#78,$,.FINISH_START.,$);
#164=IFCRELSEQUENCE('JRj73rGf6nyDmLAlGF5l3d',#6,$,$,#78,#80,$,.FINISH_START.,$);
#165=IFCRELSEQUENCE('Rx4Bb$PtLved0zRFaxTfAv',#6,$,$,#80,#82,$,.FINISH_START.,$);
#166=IFCRELSEQUENCE('H5vrtXYFIB7pG5CFqHhHbx',#6,$,$,#82,#84,$,.FINISH_START.,$);
#167=IFCRELSEQUENCE('U3q5Y9z$8VcVQZVV4dOHV7',#6,$,$,#88,#90,$,.FINISH_START.,$);
#168=IFCRELSEQUENCE('4FlRiNNNCZM31L2npP4h61',#6,$,$,#90,#92,$,.FINISH_START.,$);
#169=IFCRELSEQUENCE('qhztM1VdNbptf7AlOjl3NT',#6,$,$,#92,#94,$,.FINISH_START.,$);
#170=IFCRELSEQUENCE('vhcj13KFwZATh3$Vy7KxDj',#6,$,$,#94,#96,$,.FINISH_START.,$);
#171=IFCLAGTIME('Lag',.PREDICTED.,$,IFCDURATION('P3D'),.WORKTIME.);
#172=IFCRELSEQUENCE('wL6DnFLHpvZd4tqnK$H31f',#6,$,$,#100,#102,#171,.START_START.,$);
#173=IFCRELSEQUENCE('OZrVuBOdVvTPaDv$wpr1of',#6,$,$,#102,#104,$,.FINISH_START.,$);
#174=IFCRELSEQUENCE('5rw9wTmNYp_9pzTl47azDl',#6,$,$,#104,#106,$,.FINISH_START.,$);
#175=IFCRELSEQUENCE('l5V3kH09NHx1K$5lurSryL',#6,$,$,#106,#108,$,.FINISH_START.,$);
#176=IFCRELSEQUENCE('dVTNe3LlfnV3Vb4nxHhHrz',#6,$,$,#108,#110,$,.FINISH_START.,$);
#177=IFCRELSEQUENCE('ebOlHVbXRr15zvAl8TrFNX',#6,$,$,#114,#116,$,.FINISH_START.,$);
#178=IFCRELSEQUENCE('zFrnxF3$a$15Tf0VZzu$oR',#6,$,$,#116,#118,$,.FINISH_START.,$);
#179=IFCRELSEQUENCE('hdWfGvAP5ndrK58$zjUnJ3',#6,$,$,#118,#120,$,.FINISH_START.,$);
#180=IFCRELSEQUENCE('L3nDxh31KpWlfxyF7xULsT',#6,$,$,#120,#122,$,.FINISH_START.,$);
#181=IFCRELSEQUENCE('3jg3U9Z$M7ptXxu$6JvRj$',#6,$,$,#122,#124,$,.FINISH_START.,$);
#182=IFCRELSEQUENCE('gzVzURM$6HeduHf1YPqp4P',#6,$,$,#124,#126,$,.FINISH_START.,$);
#183=IFCRELSEQUENCE('B96t27VdFHWlNR0XDBjvZN',#6,$,$,#126,#128,$,.FINISH_START.,$);
#184=IFCRELSEQUENCE('uptpzv$PPdyhcTXXm$R1Mp',#6,$,$,#132,#134,$,.FINISH_START.,$);
#185=IFCRELSEQUENCE('B9692P3HBfIPGh_nf9gfof',#6,$,$,#134,#136,$,.FINISH_START.,$);
#186=IFCRELSEQUENCE('upvZuj3HRX5VcTVVStI1Yp',#6,$,$,#136,#138,$,.FINISH_START.,$);
#187=IFCRELSEQUENCE('hZDPpn4lZDetNdkXEl9rmX',#6,$,$,#138,#140,$,.FINISH_START.,$);
#188=IFCLAGTIME('Lag',.PREDICTED.,$,IFCDURATION('P8D'),.WORKTIME.);
#189=IFCRELSEQUENCE('6rU$ID9fCParOvYn75YLUJ',#6,$,$,#42,#52,#188,.START_START.,$);
#190=IFCLAGTIME('Lag',.PREDICTED.,$,IFCRATIOMEASURE(0.4),.WORKTIME.);
#191=IFCRELSEQUENCE('9JZf0lvt3nCTd3xFwj1jMD',#6,$,$,#52,#66,#190,.START_START.,$);
#192=IFCLAGTIME('Lag',.PREDICTED.,$,IFCDURATION('-P21D'),.WORKTIME.);
#193=IFCRELSEQUENCE('l9ib8hS1wlWl$$XXqZ4h21',#6,$,$,#82,#88,#192,.FINISH_START.,$);
#194=IFCLAGTIME('Lag',.PREDICTED.,$,IFCDURATION('P2D'),.WORKTIME.);
#195=IFCRELSEQUENCE('ErF5Yb6Xzlm1ibKn6jXpWd',#6,$,$,#82,#94,#194,.FINISH_FINISH.,$);
#196=IFCRELSEQUENCE('xlLHTfffeHuNtrQ$UhFLob',#6,$,$,#94,#100,$,.FINISH_START.,$);
#197=IFCLAGTIME('Lag',.PREDICTED.,$,IFCDURATION('P30D'),.WORKTIME.);
#198=IFCRELSEQUENCE('F7QNW1lveP1T5x8$wfoRrT',#6,$,$,#100,#114,#197,.START_START.,$);
#199=IFCRELSEQUENCE('K57BNl099VzfVn3n8TBnHh',#6,$,$,#128,#132,$,.FINISH_START.,$);
#200=IFCRELASSIGNSTOCONTROL('rDVhNjbXHjyDCF$VkTSruD',#6,$,$,(#40,#42,#44,#46,#48,#50,#52,#54,#56,#58,#60,#62,#64,#66,#68,#70,#72,#74,#76,#78,#80,#82,#84,#86,#88,#90,#92,#94,#96,#98,#100,#102,#104,#106,#108,#110,#112,#114,#116,#118,#120,#122,#124,#126,#128,#130,#132,#134,#136,#138,#140),$,#37);
#201=IFCPROPERTYSINGLEVALUE('wbsAutoNumber',$,IFCBOOLEAN(.T.),$);
#202=IFCPROPERTYSINGLEVALUE('ProjectStartDate',$,IFCDATE('2027-03-01'),$);
#203=IFCPROPERTYSINGLEVALUE('ProjectEndDate',$,$,$);
#204=IFCPROPERTYSINGLEVALUE('CreatedAt',$,IFCTEXT('2026-08-14T08:19:54.474Z'),$);
#205=IFCPROPERTYSINGLEVALUE('ModifiedAt',$,IFCTEXT('2026-08-14T08:19:54.476Z'),$);
#206=IFCPROPERTYSET('e5a3ArlP$tNZvpDF1ZK5n5',#6,'OPS_ProjectSettings',$,(#201,#202,#203,#204,#205));
#207=IFCRELDEFINESBYPROPERTIES('0Hdzo1sPJhdjQlBF$1BF9l',#6,$,$,(#13),#206);
#208=IFCPROPERTYSINGLEVALUE('MilestoneKind',$,IFCLABEL('START'),$);
#209=IFCPROPERTYSET('pPI5UxMdHjSJQZlXTX9zJ1',#6,'OPS_Milestone',$,(#208));
#210=IFCRELDEFINESBYPROPERTIES('CLhHtZNf8XkPqrQ$cz9zv5',#6,$,$,(#48),#209);
#211=IFCPROPERTYSINGLEVALUE('MilestoneKind',$,IFCLABEL('FINISH'),$);
#212=IFCPROPERTYSET('NzNRyzqVB9AZPzbn4BxVGl',#6,'OPS_Milestone',$,(#211));
#213=IFCRELDEFINESBYPROPERTIES('_lVLPRolBzm$GRmX4PuFpD',#6,$,$,(#84),#212);
#214=IFCPROPERTYSINGLEVALUE('MilestoneKind',$,IFCLABEL('FINISH'),$);
#215=IFCPROPERTYSET('ZXL1IjB$0BVbr72n3l$JMp',#6,'OPS_Milestone',$,(#214));
#216=IFCRELDEFINESBYPROPERTIES('yDkHjXklzZEBSJ5nkZiJw1',#6,$,$,(#96),#215);
#217=IFCPROPERTYSINGLEVALUE('MilestoneKind',$,IFCLABEL('FINISH'),$);
#218=IFCPROPERTYSINGLEVALUE('Mandatory',$,IFCBOOLEAN(.T.),$);
#219=IFCPROPERTYSET('uLobmtaljN3NTtan3H7Rhp',#6,'OPS_Milestone',$,(#217,#218));
#220=IFCRELDEFINESBYPROPERTIES('HtyrTxAdrNIdqFlXrJ$jcL',#6,$,$,(#140),#219);
ENDSEC;
END-ISO-10303-21;
