ISO-10303-21;
HEADER;
FILE_DESCRIPTION(('ViewDefinition [SchedulingView]'),'2;1');
FILE_NAME('N279 Bridge Replacement.ifc','2026-07-28T13:22:48',('Henk Mulder'),('Infra Netherlands BV'),'Open Planner Studio 0.1','Open Planner Studio','');
FILE_SCHEMA(('IFC4X3'));
ENDSEC;
DATA;
#1=IFCPERSON($,'Henk Mulder',$,$,$,$,$,$);
#2=IFCORGANIZATION($,'Infra Netherlands BV',$,$,$);
#3=IFCPERSONANDORGANIZATION(#1,#2,$);
#4=IFCORGANIZATION($,'OpenAEC Foundation',$,$,$);
#5=IFCAPPLICATION(#4,'0.1','Open Planner Studio','OPS');
#6=IFCOWNERHISTORY(#3,#5,$,.NOCHANGE.,$,$,$,1785244968);
#7=IFCSIUNIT(*,.LENGTHUNIT.,$,.METRE.);
#8=IFCSIUNIT(*,.TIMEUNIT.,$,.SECOND.);
#9=IFCUNITASSIGNMENT((#7,#8));
#10=IFCCARTESIANPOINT((0.,0.,0.));
#11=IFCAXIS2PLACEMENT3D(#10,$,$);
#12=IFCGEOMETRICREPRESENTATIONCONTEXT($,'Plan',3,1.0E-05,#11,$);
#13=IFCPROJECT('SZe$oZFPXbjNx5u1Q7iJ6b',#6,'N279 Bridge Replacement','Replacement of the existing bridge with a new concrete bridge',$,$,$,(#12),#9);
#14=IFCTIMEPERIOD('07:00:00','16:00:00');
#15=IFCRECURRENCEPATTERN(.WEEKLY.,$,(1,2,3,4,5,6),$,$,$,$,(#14));
#16=IFCWORKTIME('Standaard werkweek',.PREDICTED.,$,#15,$,$);
#17=IFCWORKTIME('New Year''s Day',.PREDICTED.,$,$,'2027-01-01','2027-01-01');
#18=IFCWORKTIME('Good Friday',.PREDICTED.,$,$,'2027-03-26','2027-03-26');
#19=IFCWORKTIME('Easter',.PREDICTED.,$,$,'2027-03-28','2027-03-29');
#20=IFCWORKTIME('King''s Day',.PREDICTED.,$,$,'2027-04-27','2027-04-27');
#21=IFCWORKTIME('Liberation Day',.PREDICTED.,$,$,'2027-05-05','2027-05-05');
#22=IFCWORKTIME('Ascension Day',.PREDICTED.,$,$,'2027-05-06','2027-05-06');
#23=IFCWORKTIME('Whitsun',.PREDICTED.,$,$,'2027-05-16','2027-05-17');
#24=IFCWORKTIME('Christmas',.PREDICTED.,$,$,'2027-12-25','2027-12-26');
#25=IFCWORKTIME('Construction holiday (northern region)',.PREDICTED.,$,$,'2027-07-26','2027-08-15');
#26=IFCWORKTIME('New Year''s Day',.PREDICTED.,$,$,'2028-01-01','2028-01-01');
#27=IFCWORKTIME('Good Friday',.PREDICTED.,$,$,'2028-04-14','2028-04-14');
#28=IFCWORKTIME('Easter',.PREDICTED.,$,$,'2028-04-16','2028-04-17');
#29=IFCWORKTIME('King''s Day',.PREDICTED.,$,$,'2028-04-27','2028-04-27');
#30=IFCWORKTIME('Liberation Day',.PREDICTED.,$,$,'2028-05-05','2028-05-05');
#31=IFCWORKTIME('Ascension Day',.PREDICTED.,$,$,'2028-05-25','2028-05-25');
#32=IFCWORKTIME('Whitsun',.PREDICTED.,$,$,'2028-06-04','2028-06-05');
#33=IFCWORKTIME('Christmas',.PREDICTED.,$,$,'2028-12-25','2028-12-26');
#34=IFCWORKTIME('Construction holiday (northern region)',.PREDICTED.,$,$,'2028-07-24','2028-08-13');
#35=IFCWORKCALENDAR('_HlbW$VPl1Yxnv_nBDbFBd',#6,'Infrastructure calendar Mon-Sat','Infrastructure/hydraulic works: Mon-Sat',$,(#16),(#17,#18,#19,#20,#21,#22,#23,#24,#25,#26,#27,#28,#29,#30,#31,#32,#33,#34),.FIRSTSHIFT.);
#36=IFCWORKPLAN('a3qxg$NNcXw$SvAliVhVOh',#6,'N279 Bridge Replacement','Replacement of the existing bridge with a new concrete bridge',$,$,'2026-07-28T13:22:48',$,$,$,$,$,'2027-03-01T07:00:00','2027-03-19T07:00:00',.PLANNED.);
#37=IFCWORKSCHEDULE('1JM3o3LlbL5VwDRHwjdxT5',#6,'Bouwplanning v1.0',$,$,$,'2026-07-28T13:22:48',$,$,$,$,$,'2027-03-01T07:00:00','2027-03-19T07:00:00',.PLANNED.);
#38=IFCRELAGGREGATES('X$Ph9TPtbVDd8te$ftI1sz',#6,$,$,#36,(#37));
#39=IFCTASKTIME('1. Preparation & diversions Time',.PREDICTED.,$,.WORKTIME.,'P0Y0M5D','2027-03-01T07:00:00','2027-03-05T07:00:00','2027-03-01T07:00:00','2027-03-25T07:00:00','2027-03-01T07:00:00','2027-09-18T07:00:00','P0Y0M0D','P0Y0M0D',.T.,$,$,$,$,$,0.0);
#40=IFCTASK('lx9xIpn7kLR1y3N1YLVbF$',#6,'1. Preparation & diversions',$,$,'1',$,$,$,.F.,$,#39,.LOGISTIC.);
#41=IFCTASKTIME('Implement traffic management Time',.PREDICTED.,$,.WORKTIME.,'P0Y0M5D','2027-03-01T07:00:00','2027-03-05T07:00:00','2027-03-01T07:00:00','2027-03-05T07:00:00','2027-03-01T07:00:00','2027-03-05T07:00:00','P0Y0M0D','P0Y0M0D',.T.,$,$,$,$,$,0.0);
#42=IFCTASK('ynXL7h4lfbhlzdUV11J7Vd',#6,'Implement traffic management',$,$,'1.1',$,$,$,.F.,$,#41,.LOGISTIC.);
#43=IFCTASKTIME('Temporary diversion route Time',.PREDICTED.,$,.WORKTIME.,'P0Y0M8D','2027-03-01T07:00:00','2027-03-10T07:00:00','2027-03-06T07:00:00','2027-03-15T07:00:00','2027-08-31T07:00:00','2027-09-08T07:00:00','P0Y0M0D','P0Y0M128D',.F.,$,$,$,$,$,0.0);
#44=IFCTASK('yjYh93LlBZC5bhIFaf2Bez',#6,'Temporary diversion route',$,$,'1.2',$,$,$,.F.,$,#43,.LOGISTIC.);
#45=IFCTASKTIME('Set up site Time',.PREDICTED.,$,.WORKTIME.,'P0Y0M5D','2027-03-01T07:00:00','2027-03-05T07:00:00','2027-03-16T07:00:00','2027-03-20T07:00:00','2027-09-09T07:00:00','2027-09-14T07:00:00','P0Y0M0D','P0Y0M128D',.F.,$,$,$,$,$,0.0);
#46=IFCTASK('zpcfCxFv6z2tDZXVa96PNV',#6,'Set up site',$,$,'1.3',$,$,$,.F.,$,#45,.LOGISTIC.);
#47=IFCTASKTIME('Impose shipping restrictions Time',.PREDICTED.,$,.WORKTIME.,'P0Y0M3D','2027-03-01T07:00:00','2027-03-03T07:00:00','2027-03-22T07:00:00','2027-03-24T07:00:00','2027-09-15T07:00:00','2027-09-17T07:00:00','P0Y0M0D','P0Y0M128D',.F.,$,$,$,$,$,0.0);
#48=IFCTASK('d1ljhf0tZ1U5lNiHKVB$QH',#6,'Impose shipping restrictions',$,$,'1.4',$,$,$,.F.,$,#47,.LOGISTIC.);
#49=IFCTASKTIME('Start of works Time',.PREDICTED.,$,.WORKTIME.,'P0Y0M0D','2027-03-01T07:00:00','2027-03-01T07:00:00','2027-03-25T07:00:00','2027-03-25T07:00:00','2027-09-18T07:00:00','2027-09-18T07:00:00','P0Y0M128D','P0Y0M128D',.F.,$,$,$,$,$,0.0);
#50=IFCTASK('zDgPB3yl7z0Fh9u$tzXbNZ',#6,'Start of works',$,$,'1.5',$,$,$,.T.,$,#49,.LOGISTIC.);
#51=IFCTASKTIME('2. Demolition of old bridge Time',.PREDICTED.,$,.WORKTIME.,'P0Y0M5D','2027-03-01T07:00:00','2027-03-05T07:00:00','2027-03-13T07:00:00','2027-04-28T07:00:00','2027-03-13T07:00:00','2027-09-18T07:00:00','P0Y0M0D','P0Y0M0D',.T.,$,$,$,$,$,0.0);
#52=IFCTASK('i5npr3418t1xjVlXN9I1kd',#6,'2. Demolition of old bridge',$,$,'2',$,$,$,.F.,$,#51,.DEMOLITION.);
#53=IFCTASKTIME('Divert services Time',.PREDICTED.,$,.WORKTIME.,'P0Y0M8D','2027-03-01T07:00:00','2027-03-10T07:00:00','2027-03-13T07:00:00','2027-03-22T07:00:00','2027-03-13T07:00:00','2027-03-22T07:00:00','P0Y0M0D','P0Y0M0D',.T.,$,$,$,$,$,0.0);
#54=IFCTASK('OZblNDFvsN5VsxCHQzfTj3',#6,'Divert services',$,$,'2.1',$,$,$,.F.,$,#53,.INSTALLATION.);
#55=IFCTASKTIME('Remove asphalt Time',.PREDICTED.,$,.WORKTIME.,'P0Y0M3D','2027-03-01T07:00:00','2027-03-03T07:00:00','2027-03-23T07:00:00','2027-03-25T07:00:00','2027-08-17T07:00:00','2027-08-19T07:00:00','P0Y0M0D','P0Y0M102D',.F.,$,$,$,$,$,0.0);
#56=IFCTASK('NdO$gRbX$Bj7Mfe$WtUFPv',#6,'Remove asphalt',$,$,'2.2',$,$,$,.F.,$,#55,.DEMOLITION.);
#57=IFCTASKTIME('Remove bridge railings Time',.PREDICTED.,$,.WORKTIME.,'P0Y0M3D','2027-03-01T07:00:00','2027-03-03T07:00:00','2027-03-27T07:00:00','2027-03-31T07:00:00','2027-08-20T07:00:00','2027-08-23T07:00:00','P0Y0M0D','P0Y0M102D',.F.,$,$,$,$,$,0.0);
#58=IFCTASK('_J2rnhrlbXxXEVjlDBBFlr',#6,'Remove bridge railings',$,$,'2.3',$,$,$,.F.,$,#57,.DEMOLITION.);
#59=IFCTASKTIME('Demolish bridge deck Time',.PREDICTED.,$,.WORKTIME.,'P0Y0M10D','2027-03-01T07:00:00','2027-03-12T07:00:00','2027-04-01T07:00:00','2027-04-12T07:00:00','2027-08-24T07:00:00','2027-09-03T07:00:00','P0Y0M0D','P0Y0M102D',.F.,$,$,$,$,$,0.0);
#60=IFCTASK('GNWNC7v991PjEVrntTrn5H',#6,'Demolish bridge deck',$,$,'2.4',$,$,$,.F.,$,#59,.DEMOLITION.);
#61=IFCTASKTIME('Demolish abutments Time',.PREDICTED.,$,.WORKTIME.,'P0Y0M8D','2027-03-01T07:00:00','2027-03-10T07:00:00','2027-04-13T07:00:00','2027-04-21T07:00:00','2027-09-04T07:00:00','2027-09-13T07:00:00','P0Y0M0D','P0Y0M102D',.F.,$,$,$,$,$,0.0);
#62=IFCTASK('9JLHNJZHHD8vghknOppdv9',#6,'Demolish abutments',$,$,'2.5',$,$,$,.F.,$,#61,.DEMOLITION.);
#63=IFCTASKTIME('Remove rubble Time',.PREDICTED.,$,.WORKTIME.,'P0Y0M5D','2027-03-01T07:00:00','2027-03-05T07:00:00','2027-04-22T07:00:00','2027-04-28T07:00:00','2027-09-14T07:00:00','2027-09-18T07:00:00','P0Y0M102D','P0Y0M102D',.F.,$,$,$,$,$,0.0);
#64=IFCTASK('xrcfuDd9$tXbht0VRVpP$j',#6,'Remove rubble',$,$,'2.6',$,$,$,.F.,$,#63,.LOGISTIC.);
#65=IFCTASKTIME('3. New foundations Time',.PREDICTED.,$,.WORKTIME.,'P0Y0M5D','2027-03-01T07:00:00','2027-03-05T07:00:00','2027-03-17T07:00:00','2027-05-07T07:00:00','2027-03-17T07:00:00','2027-05-07T07:00:00','P0Y0M0D','P0Y0M0D',.T.,$,$,$,$,$,0.0);
#66=IFCTASK('mP_rpjpFAf3NTtCH69MNwR',#6,'3. New foundations',$,$,'3',$,$,$,.F.,$,#65,.CONSTRUCTION.);
#67=IFCTASKTIME('Drive sheet piling Time',.PREDICTED.,$,.WORKTIME.,'P0Y0M10D','2027-03-01T07:00:00','2027-03-12T07:00:00','2027-03-17T07:00:00','2027-03-30T07:00:00','2027-03-17T07:00:00','2027-03-30T07:00:00','P0Y0M0D','P0Y0M0D',.T.,$,$,$,$,$,0.0);
#68=IFCTASK('0l9pnHNNSh$xTfGXab$jEN',#6,'Drive sheet piling',$,$,'3.1',$,$,$,.F.,$,#67,.CONSTRUCTION.);
#69=IFCTASKTIME('Underwater concrete Time',.PREDICTED.,$,.WORKTIME.,'P0Y0M8D','2027-03-01T07:00:00','2027-03-10T07:00:00','2027-03-31T07:00:00','2027-04-08T07:00:00','2027-03-31T07:00:00','2027-04-08T07:00:00','P0Y0M0D','P0Y0M0D',.T.,$,$,$,$,$,0.0);
#70=IFCTASK('t9svlR5VXPtRzxinQz7DiX',#6,'Underwater concrete',$,$,'3.2',$,$,$,.F.,$,#69,.CONSTRUCTION.);
#71=IFCTASKTIME('Dewater excavation pit Time',.PREDICTED.,$,.WORKTIME.,'P0Y0M5D','2027-03-01T07:00:00','2027-03-05T07:00:00','2027-04-09T07:00:00','2027-04-14T07:00:00','2027-04-09T07:00:00','2027-04-14T07:00:00','P0Y0M0D','P0Y0M0D',.T.,$,$,$,$,$,0.0);
#72=IFCTASK('wnfj3ha1_NMnb$N$Xn5lRx',#6,'Dewater excavation pit',$,$,'3.3',$,$,$,.F.,$,#71,.CONSTRUCTION.);
#73=IFCTASKTIME('Bore pile foundation Time',.PREDICTED.,$,.WORKTIME.,'P0Y0M12D','2027-03-01T07:00:00','2027-03-16T07:00:00','2027-04-15T07:00:00','2027-04-29T07:00:00','2027-04-15T07:00:00','2027-04-29T07:00:00','P0Y0M0D','P0Y0M0D',.T.,$,$,$,$,$,0.0);
#74=IFCTASK('TZWfmtKn6TkhQl5F6fAzlF',#6,'Bore pile foundation',$,$,'3.4',$,$,$,.F.,$,#73,.CONSTRUCTION.);
#75=IFCTASKTIME('Ground improvement Time',.PREDICTED.,$,.WORKTIME.,'P0Y0M5D','2027-03-01T07:00:00','2027-03-05T07:00:00','2027-04-30T07:00:00','2027-05-07T07:00:00','2027-04-30T07:00:00','2027-05-07T07:00:00','P0Y0M0D','P0Y0M0D',.T.,$,$,$,$,$,0.0);
#76=IFCTASK('vrY1_rudnz2t3xyHFf_Bup',#6,'Ground improvement',$,$,'3.5',$,$,$,.F.,$,#75,.CONSTRUCTION.);
#77=IFCTASKTIME('4. Concrete structure Time',.PREDICTED.,$,.WORKTIME.,'P0Y0M5D','2027-03-01T07:00:00','2027-03-05T07:00:00','2027-04-26T07:00:00','2027-07-17T07:00:00','2027-04-26T07:00:00','2027-07-17T07:00:00','P0Y0M0D','P0Y0M0D',.T.,$,$,$,$,$,0.0);
#78=IFCTASK('7nvTKNldv3mVcZN$LPu$QH',#6,'4. Concrete structure',$,$,'4',$,$,$,.F.,$,#77,.CONSTRUCTION.);
#79=IFCTASKTIME('West abutment: rebar and pour Time',.PREDICTED.,$,.WORKTIME.,'P0Y0M15D','2027-03-01T07:00:00','2027-03-19T07:00:00','2027-04-26T07:00:00','2027-05-15T07:00:00','2027-04-26T07:00:00','2027-05-15T07:00:00','P0Y0M0D','P0Y0M0D',.T.,$,$,$,$,$,0.0);
#80=IFCTASK('kx1TSFiFgdVzR$P1yd8npD',#6,'West abutment: rebar and pour',$,$,'4.1',$,$,$,.F.,$,#79,.CONSTRUCTION.);
#81=IFCTASKTIME('East abutment: rebar and pour Time',.PREDICTED.,$,.WORKTIME.,'P0Y0M15D','2027-03-01T07:00:00','2027-03-19T07:00:00','2027-05-03T07:00:00','2027-05-22T07:00:00','2027-05-03T07:00:00','2027-05-22T07:00:00','P0Y0M0D','P0Y0M0D',.T.,$,$,$,$,$,0.0);
#82=IFCTASK('bbWNiNdt9BVR5FblEHFTnx',#6,'East abutment: rebar and pour',$,$,'4.2',$,$,$,.F.,$,#81,.CONSTRUCTION.);
#83=IFCTASKTIME('Pour central pier Time',.PREDICTED.,$,.WORKTIME.,'P0Y0M10D','2027-03-01T07:00:00','2027-03-12T07:00:00','2027-05-24T07:00:00','2027-06-03T07:00:00','2027-05-24T07:00:00','2027-06-03T07:00:00','P0Y0M0D','P0Y0M0D',.T.,$,$,$,$,$,0.0);
#84=IFCTASK('2nhl371dB38vUTZFQ3PJQH',#6,'Pour central pier',$,$,'4.3',$,$,$,.F.,$,#83,.CONSTRUCTION.);
#85=IFCTASKTIME('Place precast beams Time',.PREDICTED.,$,.WORKTIME.,'P0Y0M8D','2027-03-01T07:00:00','2027-03-10T07:00:00','2027-06-04T07:00:00','2027-06-12T07:00:00','2027-06-04T07:00:00','2027-06-12T07:00:00','P0Y0M0D','P0Y0M0D',.T.,$,$,$,$,$,0.0);
#86=IFCTASK('whk5Ux2NsfTtnJDHFRtBeL',#6,'Place precast beams',$,$,'4.4',$,$,$,.F.,$,#85,.CONSTRUCTION.);
#87=IFCTASKTIME('Bridge deck reinforcement Time',.PREDICTED.,$,.WORKTIME.,'P0Y0M10D','2027-03-01T07:00:00','2027-03-12T07:00:00','2027-06-14T07:00:00','2027-06-24T07:00:00','2027-06-14T07:00:00','2027-06-24T07:00:00','P0Y0M0D','P0Y0M0D',.T.,$,$,$,$,$,0.0);
#88=IFCTASK('uDXLT9z$yHZde7MHYhdjgt',#6,'Bridge deck reinforcement',$,$,'4.5',$,$,$,.F.,$,#87,.CONSTRUCTION.);
#89=IFCTASKTIME('Pour bridge deck Time',.PREDICTED.,$,.WORKTIME.,'P0Y0M5D','2027-03-01T07:00:00','2027-03-05T07:00:00','2027-06-25T07:00:00','2027-06-30T07:00:00','2027-06-25T07:00:00','2027-06-30T07:00:00','P0Y0M0D','P0Y0M0D',.T.,$,$,$,$,$,0.0);
#90=IFCTASK('8pNJtXA$SVzNJ$jFj5xHr3',#6,'Pour bridge deck',$,$,'4.6',$,$,$,.F.,$,#89,.CONSTRUCTION.);
#91=IFCTASKTIME('Concrete curing Time',.PREDICTED.,$,.WORKTIME.,'P0Y0M15D','2027-03-01T07:00:00','2027-03-19T07:00:00','2027-07-01T07:00:00','2027-07-17T07:00:00','2027-07-01T07:00:00','2027-07-17T07:00:00','P0Y0M0D','P0Y0M0D',.T.,$,$,$,$,$,0.0);
#92=IFCTASK('6hkxslNfKJqTN5CFKVbFVz',#6,'Concrete curing',$,$,'4.7',$,$,$,.F.,$,#91,.CONSTRUCTION.);
#93=IFCTASKTIME('5. Finishing Time',.PREDICTED.,$,.WORKTIME.,'P0Y0M5D','2027-03-01T07:00:00','2027-03-05T07:00:00','2027-07-19T07:00:00','2027-09-04T07:00:00','2027-07-19T07:00:00','2027-09-04T07:00:00','P0Y0M0D','P0Y0M0D',.T.,$,$,$,$,$,0.0);
#94=IFCTASK('6Hpvr7_fANb1ClTH07un3B',#6,'5. Finishing',$,$,'5',$,$,$,.F.,$,#93,.CONSTRUCTION.);
#95=IFCTASKTIME('Install bridge railings Time',.PREDICTED.,$,.WORKTIME.,'P0Y0M5D','2027-03-01T07:00:00','2027-03-05T07:00:00','2027-07-19T07:00:00','2027-07-23T07:00:00','2027-07-19T07:00:00','2027-07-23T07:00:00','P0Y0M0D','P0Y0M0D',.T.,$,$,$,$,$,0.0);
#96=IFCTASK('WXTfSl0tFzcVoXDllhNZTb',#6,'Install bridge railings',$,$,'5.1',$,$,$,.F.,$,#95,.INSTALLATION.);
#97=IFCTASKTIME('Bridge deck waterproofing Time',.PREDICTED.,$,.WORKTIME.,'P0Y0M5D','2027-03-01T07:00:00','2027-03-05T07:00:00','2027-07-24T07:00:00','2027-08-19T07:00:00','2027-07-24T07:00:00','2027-08-19T07:00:00','P0Y0M0D','P0Y0M0D',.T.,$,$,$,$,$,0.0);
#98=IFCTASK('iPWfKrndPvWlPz5FgL075h',#6,'Bridge deck waterproofing',$,$,'5.2',$,$,$,.F.,$,#97,.INSTALLATION.);
#99=IFCTASKTIME('Asphalt bridge deck Time',.PREDICTED.,$,.WORKTIME.,'P0Y0M3D','2027-03-01T07:00:00','2027-03-03T07:00:00','2027-08-20T07:00:00','2027-08-23T07:00:00','2027-08-20T07:00:00','2027-08-23T07:00:00','P0Y0M0D','P0Y0M0D',.T.,$,$,$,$,$,0.0);
#100=IFCTASK('G7AvvvtfqdSrOXBnJbd5zL',#6,'Asphalt bridge deck',$,$,'5.3',$,$,$,.F.,$,#99,.CONSTRUCTION.);
#101=IFCTASKTIME('Asphalt tie-ins Time',.PREDICTED.,$,.WORKTIME.,'P0Y0M5D','2027-03-01T07:00:00','2027-03-05T07:00:00','2027-08-24T07:00:00','2027-08-28T07:00:00','2027-08-24T07:00:00','2027-08-28T07:00:00','P0Y0M0D','P0Y0M0D',.T.,$,$,$,$,$,0.0);
#102=IFCTASK('IRZN4zKVFZsZBjLndFt3LD',#6,'Asphalt tie-ins',$,$,'5.4',$,$,$,.F.,$,#101,.CONSTRUCTION.);
#103=IFCTASKTIME('Lighting Time',.PREDICTED.,$,.WORKTIME.,'P0Y0M3D','2027-03-01T07:00:00','2027-03-03T07:00:00','2027-08-30T07:00:00','2027-09-01T07:00:00','2027-08-30T07:00:00','2027-09-01T07:00:00','P0Y0M0D','P0Y0M0D',.T.,$,$,$,$,$,0.0);
#104=IFCTASK('k94TW1dtf5VzRXjH$1hl5r',#6,'Lighting',$,$,'5.5',$,$,$,.F.,$,#103,.INSTALLATION.);
#105=IFCTASKTIME('Crash barrier Time',.PREDICTED.,$,.WORKTIME.,'P0Y0M3D','2027-03-01T07:00:00','2027-03-03T07:00:00','2027-09-02T07:00:00','2027-09-04T07:00:00','2027-09-02T07:00:00','2027-09-04T07:00:00','P0Y0M0D','P0Y0M0D',.T.,$,$,$,$,$,0.0);
#106=IFCTASK('Rb0tIpNNcD8vUz91ObQ7PL',#6,'Crash barrier',$,$,'5.6',$,$,$,.F.,$,#105,.INSTALLATION.);
#107=IFCTASKTIME('6. Handover Time',.PREDICTED.,$,.WORKTIME.,'P0Y0M5D','2027-03-01T07:00:00','2027-03-05T07:00:00','2027-09-06T07:00:00','2027-09-18T07:00:00','2027-09-06T07:00:00','2027-09-18T07:00:00','P0Y0M0D','P0Y0M0D',.T.,$,$,$,$,$,0.0);
#108=IFCTASK('BJDvhta1EHJNHNCFG$LHjX',#6,'6. Handover',$,$,'6',$,$,$,.F.,$,#107,.CONSTRUCTION.);
#109=IFCTASKTIME('Load test Time',.PREDICTED.,$,.WORKTIME.,'P0Y0M3D','2027-03-01T07:00:00','2027-03-03T07:00:00','2027-09-06T07:00:00','2027-09-08T07:00:00','2027-09-06T07:00:00','2027-09-08T07:00:00','P0Y0M0D','P0Y0M0D',.T.,$,$,$,$,$,0.0);
#110=IFCTASK('99on7PbXP7Otr7UnXnxHhp',#6,'Load test',$,$,'6.1',$,$,$,.F.,$,#109,.ATTENDANCE.);
#111=IFCTASKTIME('Remove diversions Time',.PREDICTED.,$,.WORKTIME.,'P0Y0M3D','2027-03-01T07:00:00','2027-03-03T07:00:00','2027-09-09T07:00:00','2027-09-11T07:00:00','2027-09-09T07:00:00','2027-09-11T07:00:00','P0Y0M0D','P0Y0M0D',.T.,$,$,$,$,$,0.0);
#112=IFCTASK('ndob4VcXHV_9npv1_b7bzv',#6,'Remove diversions',$,$,'6.2',$,$,$,.F.,$,#111,.LOGISTIC.);
#113=IFCTASKTIME('Clear site Time',.PREDICTED.,$,.WORKTIME.,'P0Y0M5D','2027-03-01T07:00:00','2027-03-05T07:00:00','2027-09-13T07:00:00','2027-09-17T07:00:00','2027-09-13T07:00:00','2027-09-17T07:00:00','P0Y0M0D','P0Y0M0D',.T.,$,$,$,$,$,0.0);
#114=IFCTASK('1jk56TedFlu7AR0V9zNZRV',#6,'Clear site',$,$,'6.3',$,$,$,.F.,$,#113,.LOGISTIC.);
#115=IFCTASKTIME('Bridge open to traffic Time',.PREDICTED.,$,.WORKTIME.,'P0Y0M0D','2027-03-01T07:00:00','2027-03-01T07:00:00','2027-09-18T07:00:00','2027-09-18T07:00:00','2027-09-18T07:00:00','2027-09-18T07:00:00','P0Y0M0D','P0Y0M0D',.T.,$,$,$,$,$,0.0);
#116=IFCTASK('1JobWXDFQVIP0Tf$XnZN2V',#6,'Bridge open to traffic',$,$,'6.4',$,$,$,.T.,$,#115,.CONSTRUCTION.);
#117=IFCRELNESTS('e31T4za1kVzN5xe1ip2Beh',#6,'WBS 1. Preparation & diversions',$,#40,( #42,#44,#46,#48,#50));
#118=IFCRELNESTS('b$NR43iFgPHJgNO$4dWP3B',#6,'WBS 2. Demolition of old bridge',$,#52,( #54,#56,#58,#60,#62,#64));
#119=IFCRELNESTS('NTTNSlGf2f2t35CnmHtrSt',#6,'WBS 3. New foundations',$,#66,( #68,#70,#72,#74,#76));
#120=IFCRELNESTS('0npvvvd9VPvLY3HXLT3N6$',#6,'WBS 4. Concrete structure',$,#78,( #80,#82,#84,#86,#88,#90,#92));
#121=IFCRELNESTS('1DcfaDo99VBnxlVX2xLVeB',#6,'WBS 5. Finishing',$,#94,( #96,#98,#100,#102,#104,#106));
#122=IFCRELNESTS('yntpl$dtFFajUNqHoHnZR1',#6,'WBS 6. Handover',$,#108,( #110,#112,#114,#116));
#123=IFCRELNESTS('tjjP5r1vgdnD4TBHzDgTrv',#6,'WBS Hoofd',$,#37,(#40,#52,#66,#78,#94,#108));
#124=IFCRELSEQUENCE('BJrnht4$CZIhs5iFkVfZlr',#6,$,$,#42,#44,$,.FINISH_START.,$);
#125=IFCRELSEQUENCE('T3ShBTuvgdFDOVrF5n1xDD',#6,$,$,#44,#46,$,.FINISH_START.,$);
#126=IFCRELSEQUENCE('KdWNG9SlpdvhsRO$$T4hcl',#6,$,$,#46,#48,$,.FINISH_START.,$);
#127=IFCRELSEQUENCE('a3iRWXTH3l8Nx5GX6pDPLt',#6,$,$,#48,#50,$,.FINISH_START.,$);
#128=IFCRELSEQUENCE('nB7TiBvtp7JNJ$rlvRMNMp',#6,$,$,#54,#56,$,.FINISH_START.,$);
#129=IFCRELSEQUENCE('Rb8nRVRVBz0F3RWVtdeV09',#6,$,$,#56,#58,$,.FINISH_START.,$);
#130=IFCRELSEQUENCE('vnvT0lFP$h1xz7AlSbd5RX',#6,$,$,#58,#60,$,.FINISH_START.,$);
#131=IFCRELSEQUENCE('cVj7fFa1o5PBWDZFghWdht',#6,$,$,#60,#62,$,.FINISH_START.,$);
#132=IFCRELSEQUENCE('IRz9QDMPHJCZxRCH_5TNgp',#6,$,$,#62,#64,$,.FINISH_START.,$);
#133=IFCRELSEQUENCE('q9cN8JL1_z8fL3d$t7yh2$',#6,$,$,#68,#70,$,.FINISH_START.,$);
#134=IFCRELSEQUENCE('uLcjVDYNmzGVYzf$Enr1gf',#6,$,$,#70,#72,$,.FINISH_START.,$);
#135=IFCRELSEQUENCE('m9Sh5LbngxtbbXRnSNcpub',#6,$,$,#72,#74,$,.FINISH_START.,$);
#136=IFCRELSEQUENCE('3HdzcjQVVvhlP3DlrDjvxh',#6,$,$,#74,#76,$,.FINISH_START.,$);
#137=IFCLAGTIME('Lag',.PREDICTED.,$,IFCDURATION('P5D'),.WORKTIME.);
#138=IFCRELSEQUENCE('pP2rFBNfahnhIRKHCljvv5',#6,$,$,#80,#82,#137,.START_START.,$);
#139=IFCRELSEQUENCE('4lJPd5AP7ZaJELon2t_Hvx',#6,$,$,#82,#84,$,.FINISH_START.,$);
#140=IFCRELSEQUENCE('7Bs7xl1v6l0FzR0XPhGfYp',#6,$,$,#84,#86,$,.FINISH_START.,$);
#141=IFCRELSEQUENCE('odULvrGNc1U5dZVXGXVRPr',#6,$,$,#86,#88,$,.FINISH_START.,$);
#142=IFCRELSEQUENCE('lNWf43qVNRRXsdIVol$JEb',#6,$,$,#88,#90,$,.FINISH_START.,$);
#143=IFCRELSEQUENCE('Mv4r3LS1QD0Fb1lV3ld5nx',#6,$,$,#90,#92,$,.FINISH_START.,$);
#144=IFCRELSEQUENCE('vHxXq7d9BfMn5F3Fa5bn3B',#6,$,$,#96,#98,$,.FINISH_START.,$);
#145=IFCRELSEQUENCE('CfcJTxsPDRZdCnt$vXTfUH',#6,$,$,#98,#100,$,.FINISH_START.,$);
#146=IFCRELSEQUENCE('eZL$UbIlxn$Z3vInyPG9i1',#6,$,$,#100,#102,$,.FINISH_START.,$);
#147=IFCRELSEQUENCE('5FnxwTWtV7rnDz3lsxMTf1',#6,$,$,#102,#104,$,.FINISH_START.,$);
#148=IFCRELSEQUENCE('uh6pJ$YNqTorCnf1LvCD8D',#6,$,$,#104,#106,$,.FINISH_START.,$);
#149=IFCRELSEQUENCE('VXpPV9yHlXkP4NmVml1jIv',#6,$,$,#110,#112,$,.FINISH_START.,$);
#150=IFCRELSEQUENCE('qrn5_71PrzGVEhoFUrTt4B',#6,$,$,#112,#114,$,.FINISH_START.,$);
#151=IFCRELSEQUENCE('2JoRmfOd5FHjAv2FBjNhYJ',#6,$,$,#114,#116,$,.FINISH_START.,$);
#152=IFCLAGTIME('Lag',.PREDICTED.,$,IFCDURATION('P11D'),.WORKTIME.);
#153=IFCRELSEQUENCE('oh3tYxI9XvLHbhwHR5QDWP',#6,$,$,#42,#54,#152,.START_START.,$);
#154=IFCLAGTIME('Lag',.PREDICTED.,$,IFCRATIOMEASURE(0.4),.WORKTIME.);
#155=IFCRELSEQUENCE('rD9D$PIlFlWlVHVV6tUn7f',#6,$,$,#54,#68,#154,.START_START.,$);
#156=IFCLAGTIME('Lag',.PREDICTED.,$,IFCDURATION('-P8D'),.WORKTIME.);
#157=IFCRELSEQUENCE('cbe1IDvt7tU5XlXXEnLVmH',#6,$,$,#76,#80,#156,.FINISH_START.,$);
#158=IFCLAGTIME('Lag',.PREDICTED.,$,IFCDURATION('P2D'),.WORKTIME.);
#159=IFCRELSEQUENCE('T3KbaFa1gx$ZZtinopobPr',#6,$,$,#76,#92,#158,.FINISH_FINISH.,$);
#160=IFCRELSEQUENCE('AfwpNJjFyHx1e7sliDcDW7',#6,$,$,#92,#96,$,.FINISH_START.,$);
#161=IFCRELSEQUENCE('S1fReZfN4RTPqnXVejNhwb',#6,$,$,#106,#110,$,.FINISH_START.,$);
#162=IFCRELASSIGNSTOCONTROL('rDVhNjbXHjyDCF$VkTSruD',#6,$,$,(#40,#42,#44,#46,#48,#50,#52,#54,#56,#58,#60,#62,#64,#66,#68,#70,#72,#74,#76,#78,#80,#82,#84,#86,#88,#90,#92,#94,#96,#98,#100,#102,#104,#106,#108,#110,#112,#114,#116),$,#37);
#163=IFCPROPERTYSINGLEVALUE('wbsAutoNumber',$,IFCBOOLEAN(.T.),$);
#164=IFCPROPERTYSINGLEVALUE('ProjectStartDate',$,IFCDATE('2027-03-01'),$);
#165=IFCPROPERTYSINGLEVALUE('ProjectEndDate',$,$,$);
#166=IFCPROPERTYSINGLEVALUE('CreatedAt',$,IFCTEXT('2026-07-28T13:22:48.249Z'),$);
#167=IFCPROPERTYSINGLEVALUE('ModifiedAt',$,IFCTEXT('2026-07-28T13:22:48.250Z'),$);
#168=IFCPROPERTYSET('e5a3ArlP$tNZvpDF1ZK5n5',#6,'OPS_ProjectSettings',$,(#163,#164,#165,#166,#167));
#169=IFCRELDEFINESBYPROPERTIES('0Hdzo1sPJhdjQlBF$1BF9l',#6,$,$,(#13),#168);
#170=IFCPROPERTYSINGLEVALUE('MilestoneKind',$,IFCLABEL('START'),$);
#171=IFCPROPERTYSET('lNOHvBGfobBFpZ712xLVat',#6,'OPS_Milestone',$,(#170));
#172=IFCRELDEFINESBYPROPERTIES('MZTNKtjVX737_Jjlfp5H1N',#6,$,$,(#50),#171);
ENDSEC;
END-ISO-10303-21;
