ISO-10303-21;
HEADER;
FILE_DESCRIPTION(('ViewDefinition [SchedulingView]'),'2;1');
FILE_NAME('Parkeergarage Stationsplein Utrecht.ifc','2026-07-27T14:03:49',('Robert Visser'),('Ondergronds Bouwen BV'),'Open Planner Studio 0.1','Open Planner Studio','');
FILE_SCHEMA(('IFC4X3'));
ENDSEC;
DATA;
#1=IFCPERSON($,'Robert Visser',$,$,$,$,$,$);
#2=IFCORGANIZATION($,'Ondergronds Bouwen BV',$,$,$);
#3=IFCPERSONANDORGANIZATION(#1,#2,$);
#4=IFCORGANIZATION($,'OpenAEC Foundation',$,$,$);
#5=IFCAPPLICATION(#4,'0.1','Open Planner Studio','OPS');
#6=IFCOWNERHISTORY(#3,#5,$,.NOCHANGE.,$,$,$,1785161029);
#7=IFCSIUNIT(*,.LENGTHUNIT.,$,.METRE.);
#8=IFCSIUNIT(*,.TIMEUNIT.,$,.SECOND.);
#9=IFCUNITASSIGNMENT((#7,#8));
#10=IFCCARTESIANPOINT((0.,0.,0.));
#11=IFCAXIS2PLACEMENT3D(#10,$,$);
#12=IFCGEOMETRICREPRESENTATIONCONTEXT($,'Plan',3,1.0E-05,#11,$);
#13=IFCPROJECT('Y$7rVpUNuXYfBjZlGnB$gN',#6,'Parkeergarage Stationsplein Utrecht','Ondergrondse parkeergarage 3 lagen, 400 plaatsen',$,$,$,(#12),#9);
#14=IFCTIMEPERIOD('07:00:00','16:00:00');
#15=IFCRECURRENCEPATTERN(.WEEKLY.,$,(1,2,3,4,5),$,$,$,$,(#14));
#16=IFCWORKTIME('Standaard werkweek',.PREDICTED.,$,#15,$,$);
#17=IFCWORKTIME('Nieuwjaar',.PREDICTED.,$,$,'2027-01-01','2027-01-01');
#18=IFCWORKTIME('Goede Vrijdag',.PREDICTED.,$,$,'2027-03-26','2027-03-26');
#19=IFCWORKTIME('Pasen',.PREDICTED.,$,$,'2027-03-28','2027-03-29');
#20=IFCWORKTIME('Koningsdag',.PREDICTED.,$,$,'2027-04-27','2027-04-27');
#21=IFCWORKTIME('Bevrijdingsdag',.PREDICTED.,$,$,'2027-05-05','2027-05-05');
#22=IFCWORKTIME('Hemelvaart',.PREDICTED.,$,$,'2027-05-06','2027-05-06');
#23=IFCWORKTIME('Pinksteren',.PREDICTED.,$,$,'2027-05-16','2027-05-17');
#24=IFCWORKTIME('Kerst',.PREDICTED.,$,$,'2027-12-25','2027-12-26');
#25=IFCWORKTIME('Bouwvak (regio Noord)',.PREDICTED.,$,$,'2027-07-26','2027-08-15');
#26=IFCWORKTIME('Nieuwjaar',.PREDICTED.,$,$,'2028-01-01','2028-01-01');
#27=IFCWORKTIME('Goede Vrijdag',.PREDICTED.,$,$,'2028-04-14','2028-04-14');
#28=IFCWORKTIME('Pasen',.PREDICTED.,$,$,'2028-04-16','2028-04-17');
#29=IFCWORKTIME('Koningsdag',.PREDICTED.,$,$,'2028-04-27','2028-04-27');
#30=IFCWORKTIME('Bevrijdingsdag',.PREDICTED.,$,$,'2028-05-05','2028-05-05');
#31=IFCWORKTIME('Hemelvaart',.PREDICTED.,$,$,'2028-05-25','2028-05-25');
#32=IFCWORKTIME('Pinksteren',.PREDICTED.,$,$,'2028-06-04','2028-06-05');
#33=IFCWORKTIME('Kerst',.PREDICTED.,$,$,'2028-12-25','2028-12-26');
#34=IFCWORKTIME('Bouwvak (regio Noord)',.PREDICTED.,$,$,'2028-07-24','2028-08-13');
#35=IFCWORKCALENDAR('_HlbW$VPl1Yxnv_nBDbFBd',#6,'Bouwkalender NL','Standaard bouwkalender: ma-vr 07:00-16:00',$,(#16),(#17,#18,#19,#20,#21,#22,#23,#24,#25,#26,#27,#28,#29,#30,#31,#32,#33,#34),.FIRSTSHIFT.);
#36=IFCWORKPLAN('MvqptTldtr7Dmr61Ox6JUj',#6,'Parkeergarage Stationsplein Utrecht','Ondergrondse parkeergarage 3 lagen, 400 plaatsen',$,$,'2026-07-27T14:03:49',$,$,$,$,$,'2027-03-01T07:00:00','2027-03-26T07:00:00',.PLANNED.);
#37=IFCWORKSCHEDULE('vh2BTbA$ipe9LfaF9vqbNT',#6,'Bouwplanning v1.0',$,$,$,'2026-07-27T14:03:49',$,$,$,$,$,'2027-03-01T07:00:00','2027-03-26T07:00:00',.PLANNED.);
#38=IFCRELAGGREGATES('X$Ph9TPtbVDd8te$ftI1sz',#6,$,$,#36,(#37));
#39=IFCTASKTIME('1. Voorbereiding Time',.PREDICTED.,$,.WORKTIME.,'P0Y0M5D','2027-03-01T07:00:00','2027-03-05T07:00:00','2027-03-01T07:00:00','2027-04-05T07:00:00','2027-03-01T07:00:00','2027-12-17T07:00:00','P0Y0M0D','P0Y0M0D',.T.,$,$,$,$,$,0.0);
#40=IFCTASK('pvAvtVcX730n9tSF5Ba3tj',#6,'1. Voorbereiding',$,$,'1',$,$,$,.F.,$,#39,.CONSTRUCTION.);
#41=IFCTASKTIME('Kabels en leidingen verleggen Time',.PREDICTED.,$,.WORKTIME.,'P0Y0M10D','2027-03-01T07:00:00','2027-03-12T07:00:00','2027-03-01T07:00:00','2027-03-12T07:00:00','2027-03-01T07:00:00','2027-03-12T07:00:00','P0Y0M0D','P0Y0M0D',.T.,$,$,$,$,$,0.0);
#42=IFCTASK('9JR$sr17IrlrOvwHNN2B8R',#6,'Kabels en leidingen verleggen',$,$,'1.1',$,$,$,.F.,$,#41,.INSTALLATION.);
#43=IFCTASKTIME('Bouwplaats inrichten Time',.PREDICTED.,$,.WORKTIME.,'P0Y0M5D','2027-03-01T07:00:00','2027-03-05T07:00:00','2027-03-15T07:00:00','2027-03-19T07:00:00','2027-11-30T07:00:00','2027-12-06T07:00:00','P0Y0M0D','P0Y0M165D',.F.,$,$,$,$,$,0.0);
#44=IFCTASK('VX39_vdtFlm1aPg1PBSzV7',#6,'Bouwplaats inrichten',$,$,'1.2',$,$,$,.F.,$,#43,.LOGISTIC.);
#45=IFCTASKTIME('Monitoring omgeving Time',.PREDICTED.,$,.WORKTIME.,'P0Y0M3D','2027-03-01T07:00:00','2027-03-03T07:00:00','2027-03-22T07:00:00','2027-03-24T07:00:00','2027-12-07T07:00:00','2027-12-09T07:00:00','P0Y0M0D','P0Y0M165D',.F.,$,$,$,$,$,0.0);
#46=IFCTASK('IxtxAnDXLJ2R3Ru$gnnhYj',#6,'Monitoring omgeving',$,$,'1.3',$,$,$,.F.,$,#45,.ATTENDANCE.);
#47=IFCTASKTIME('Verkeersmaatregelen Time',.PREDICTED.,$,.WORKTIME.,'P0Y0M5D','2027-03-01T07:00:00','2027-03-05T07:00:00','2027-03-25T07:00:00','2027-04-02T07:00:00','2027-12-10T07:00:00','2027-12-16T07:00:00','P0Y0M0D','P0Y0M165D',.F.,$,$,$,$,$,0.0);
#48=IFCTASK('wF1BTx676ZsZZfmVEH$jIh',#6,'Verkeersmaatregelen',$,$,'1.4',$,$,$,.F.,$,#47,.LOGISTIC.);
#49=IFCTASKTIME('Start bouw Time',.PREDICTED.,$,.WORKTIME.,'P0Y0M0D','2027-03-01T07:00:00','2027-03-01T07:00:00','2027-04-05T07:00:00','2027-04-05T07:00:00','2027-12-17T07:00:00','2027-12-17T07:00:00','P0Y0M165D','P0Y0M165D',.F.,$,$,$,$,$,0.0);
#50=IFCTASK('LP0tY9jVBtcp0zrFn9MNYF',#6,'Start bouw',$,$,'1.5',$,$,$,.T.,$,#49,.CONSTRUCTION.);
#51=IFCTASKTIME('2. Bouwkuip Time',.PREDICTED.,$,.WORKTIME.,'P0Y0M5D','2027-03-01T07:00:00','2027-03-05T07:00:00','2027-03-17T07:00:00','2027-08-16T07:00:00','2027-03-17T07:00:00','2027-12-17T07:00:00','P0Y0M0D','P0Y0M0D',.T.,$,$,$,$,$,0.0);
#52=IFCTASK('tjjPpn4l33AlZ9CnStk1UH',#6,'2. Bouwkuip',$,$,'2',$,$,$,.F.,$,#51,.CONSTRUCTION.);
#53=IFCTASKTIME('Diepwanden uitvoeren Time',.PREDICTED.,$,.WORKTIME.,'P0Y0M20D','2027-03-01T07:00:00','2027-03-26T07:00:00','2027-03-17T07:00:00','2027-04-15T07:00:00','2027-03-17T07:00:00','2027-04-15T07:00:00','P0Y0M0D','P0Y0M0D',.T.,$,$,$,$,$,0.0);
#54=IFCTASK('a$tx2PbXVbrnxH7$rNIxVT',#6,'Diepwanden uitvoeren',$,$,'2.1',$,$,$,.F.,$,#53,.CONSTRUCTION.);
#55=IFCTASKTIME('Stempels niveau 1 Time',.PREDICTED.,$,.WORKTIME.,'P0Y0M8D','2027-03-01T07:00:00','2027-03-10T07:00:00','2027-04-16T07:00:00','2027-04-28T07:00:00','2027-09-15T07:00:00','2027-09-24T07:00:00','P0Y0M0D','P0Y0M89D',.F.,$,$,$,$,$,0.0);
#56=IFCTASK('R17rJZlPvZiRdlbnm1R1w1',#6,'Stempels niveau 1',$,$,'2.2',$,$,$,.F.,$,#55,.CONSTRUCTION.);
#57=IFCTASKTIME('Ontgraven laag 1 Time',.PREDICTED.,$,.WORKTIME.,'P0Y0M10D','2027-03-01T07:00:00','2027-03-12T07:00:00','2027-04-29T07:00:00','2027-05-14T07:00:00','2027-09-27T07:00:00','2027-10-08T07:00:00','P0Y0M0D','P0Y0M89D',.F.,$,$,$,$,$,0.0);
#58=IFCTASK('5F7TSpYN89XbZBw$W9MNkh',#6,'Ontgraven laag 1',$,$,'2.3',$,$,$,.F.,$,#57,.CONSTRUCTION.);
#59=IFCTASKTIME('Stempels niveau 2 Time',.PREDICTED.,$,.WORKTIME.,'P0Y0M8D','2027-03-01T07:00:00','2027-03-10T07:00:00','2027-05-18T07:00:00','2027-05-27T07:00:00','2027-10-11T07:00:00','2027-10-20T07:00:00','P0Y0M0D','P0Y0M89D',.F.,$,$,$,$,$,0.0);
#60=IFCTASK('hTL16Ps$uVovUTxlK19BGn',#6,'Stempels niveau 2',$,$,'2.4',$,$,$,.F.,$,#59,.CONSTRUCTION.);
#61=IFCTASKTIME('Ontgraven laag 2 Time',.PREDICTED.,$,.WORKTIME.,'P0Y0M10D','2027-03-01T07:00:00','2027-03-12T07:00:00','2027-05-28T07:00:00','2027-06-10T07:00:00','2027-10-21T07:00:00','2027-11-03T07:00:00','P0Y0M0D','P0Y0M89D',.F.,$,$,$,$,$,0.0);
#62=IFCTASK('8DF5cta$ondr0TlXzFz9ax',#6,'Ontgraven laag 2',$,$,'2.5',$,$,$,.F.,$,#61,.CONSTRUCTION.);
#63=IFCTASKTIME('Stempels niveau 3 Time',.PREDICTED.,$,.WORKTIME.,'P0Y0M8D','2027-03-01T07:00:00','2027-03-10T07:00:00','2027-06-11T07:00:00','2027-06-22T07:00:00','2027-11-04T07:00:00','2027-11-15T07:00:00','P0Y0M0D','P0Y0M89D',.F.,$,$,$,$,$,0.0);
#64=IFCTASK('oL5VKN$7sBjvwVv$3JEXSt',#6,'Stempels niveau 3',$,$,'2.6',$,$,$,.F.,$,#63,.CONSTRUCTION.);
#65=IFCTASKTIME('Ontgraven laag 3 Time',.PREDICTED.,$,.WORKTIME.,'P0Y0M10D','2027-03-01T07:00:00','2027-03-12T07:00:00','2027-06-23T07:00:00','2027-07-06T07:00:00','2027-11-16T07:00:00','2027-11-29T07:00:00','P0Y0M0D','P0Y0M89D',.F.,$,$,$,$,$,0.0);
#66=IFCTASK('XTWNyZ0t9$1xVFDn5hm90f',#6,'Ontgraven laag 3',$,$,'2.7',$,$,$,.F.,$,#65,.CONSTRUCTION.);
#67=IFCTASKTIME('Onderwaterbeton vloer Time',.PREDICTED.,$,.WORKTIME.,'P0Y0M8D','2027-03-01T07:00:00','2027-03-10T07:00:00','2027-07-07T07:00:00','2027-07-16T07:00:00','2027-11-30T07:00:00','2027-12-09T07:00:00','P0Y0M0D','P0Y0M89D',.F.,$,$,$,$,$,0.0);
#68=IFCTASK('bbG7XJUnwFKzPn$V2xLXiV',#6,'Onderwaterbeton vloer',$,$,'2.8',$,$,$,.F.,$,#67,.CONSTRUCTION.);
#69=IFCTASKTIME('Droogpompen Time',.PREDICTED.,$,.WORKTIME.,'P0Y0M5D','2027-03-01T07:00:00','2027-03-05T07:00:00','2027-07-19T07:00:00','2027-07-23T07:00:00','2027-12-10T07:00:00','2027-12-16T07:00:00','P0Y0M0D','P0Y0M89D',.F.,$,$,$,$,$,0.0);
#70=IFCTASK('hZJ7JZFPbLrn$rYX93Xb7R',#6,'Droogpompen',$,$,'2.9',$,$,$,.F.,$,#69,.CONSTRUCTION.);
#71=IFCTASKTIME('Bouwkuip droog Time',.PREDICTED.,$,.WORKTIME.,'P0Y0M0D','2027-03-01T07:00:00','2027-03-01T07:00:00','2027-08-16T07:00:00','2027-08-16T07:00:00','2027-12-17T07:00:00','2027-12-17T07:00:00','P0Y0M89D','P0Y0M89D',.F.,$,$,$,$,$,0.0);
#72=IFCTASK('eR8nt1Qv81wJo$v1UBrFvt',#6,'Bouwkuip droog',$,$,'2.10',$,$,$,.T.,$,#71,.CONSTRUCTION.);
#73=IFCTASKTIME('3. Betonconstructie Time',.PREDICTED.,$,.WORKTIME.,'P0Y0M5D','2027-03-01T07:00:00','2027-03-05T07:00:00','2027-03-31T07:00:00','2027-08-20T07:00:00','2027-03-31T07:00:00','2027-08-20T07:00:00','P0Y0M0D','P0Y0M0D',.T.,$,$,$,$,$,0.0);
#74=IFCTASK('qfgz_dJnO7LlXnzne5_BOL',#6,'3. Betonconstructie',$,$,'3',$,$,$,.F.,$,#73,.CONSTRUCTION.);
#75=IFCTASKTIME('Vloer niveau -3 Time',.PREDICTED.,$,.WORKTIME.,'P0Y0M10D','2027-03-01T07:00:00','2027-03-12T07:00:00','2027-03-31T07:00:00','2027-04-13T07:00:00','2027-03-31T07:00:00','2027-04-13T07:00:00','P0Y0M0D','P0Y0M0D',.T.,$,$,$,$,$,0.0);
#76=IFCTASK('FPYL1vktxHLlbr6$K$$JcL',#6,'Vloer niveau -3',$,$,'3.1',$,$,$,.F.,$,#75,.CONSTRUCTION.);
#77=IFCTASKTIME('Kolommen en wanden -3 Time',.PREDICTED.,$,.WORKTIME.,'P0Y0M8D','2027-03-01T07:00:00','2027-03-10T07:00:00','2027-04-14T07:00:00','2027-04-23T07:00:00','2027-04-14T07:00:00','2027-04-23T07:00:00','P0Y0M0D','P0Y0M0D',.T.,$,$,$,$,$,0.0);
#78=IFCTASK('ObG7lx79x5Prap$VYPKj_Z',#6,'Kolommen en wanden -3',$,$,'3.2',$,$,$,.F.,$,#77,.CONSTRUCTION.);
#79=IFCTASKTIME('Vloer niveau -2 Time',.PREDICTED.,$,.WORKTIME.,'P0Y0M10D','2027-03-01T07:00:00','2027-03-12T07:00:00','2027-04-26T07:00:00','2027-05-12T07:00:00','2027-04-26T07:00:00','2027-05-12T07:00:00','P0Y0M0D','P0Y0M0D',.T.,$,$,$,$,$,0.0);
#80=IFCTASK('BDlbq5$PT1EBCrQ$w9A9qn',#6,'Vloer niveau -2',$,$,'3.3',$,$,$,.F.,$,#79,.CONSTRUCTION.);
#81=IFCTASKTIME('Kolommen en wanden -2 Time',.PREDICTED.,$,.WORKTIME.,'P0Y0M8D','2027-03-01T07:00:00','2027-03-10T07:00:00','2027-05-13T07:00:00','2027-05-25T07:00:00','2027-05-13T07:00:00','2027-05-25T07:00:00','P0Y0M0D','P0Y0M0D',.T.,$,$,$,$,$,0.0);
#82=IFCTASK('uLI5g$v9$hdj_Dd1WNcpaR',#6,'Kolommen en wanden -2',$,$,'3.4',$,$,$,.F.,$,#81,.CONSTRUCTION.);
#83=IFCTASKTIME('Vloer niveau -1 Time',.PREDICTED.,$,.WORKTIME.,'P0Y0M10D','2027-03-01T07:00:00','2027-03-12T07:00:00','2027-05-26T07:00:00','2027-06-08T07:00:00','2027-05-26T07:00:00','2027-06-08T07:00:00','P0Y0M0D','P0Y0M0D',.T.,$,$,$,$,$,0.0);
#84=IFCTASK('O5yr9Vg16ZoBWjv$dLelj$',#6,'Vloer niveau -1',$,$,'3.5',$,$,$,.F.,$,#83,.CONSTRUCTION.);
#85=IFCTASKTIME('Kolommen en wanden -1 Time',.PREDICTED.,$,.WORKTIME.,'P0Y0M8D','2027-03-01T07:00:00','2027-03-10T07:00:00','2027-06-09T07:00:00','2027-06-18T07:00:00','2027-06-09T07:00:00','2027-06-18T07:00:00','P0Y0M0D','P0Y0M0D',.T.,$,$,$,$,$,0.0);
#86=IFCTASK('jxfbe3JXnn4peVrFnNIxpJ',#6,'Kolommen en wanden -1',$,$,'3.6',$,$,$,.F.,$,#85,.CONSTRUCTION.);
#87=IFCTASKTIME('Dek parkeergarage Time',.PREDICTED.,$,.WORKTIME.,'P0Y0M12D','2027-03-01T07:00:00','2027-03-16T07:00:00','2027-06-21T07:00:00','2027-07-06T07:00:00','2027-06-21T07:00:00','2027-07-06T07:00:00','P0Y0M0D','P0Y0M0D',.T.,$,$,$,$,$,0.0);
#88=IFCTASK('R1nDxrd91tnLEhIFaR1JUp',#6,'Dek parkeergarage',$,$,'3.7',$,$,$,.F.,$,#87,.CONSTRUCTION.);
#89=IFCTASKTIME('Stempels verwijderen Time',.PREDICTED.,$,.WORKTIME.,'P0Y0M8D','2027-03-01T07:00:00','2027-03-10T07:00:00','2027-07-07T07:00:00','2027-07-16T07:00:00','2027-07-07T07:00:00','2027-07-16T07:00:00','P0Y0M0D','P0Y0M0D',.T.,$,$,$,$,$,0.0);
#90=IFCTASK('W$ljj3T$kXJvEhQlBfYL6b',#6,'Stempels verwijderen',$,$,'3.8',$,$,$,.F.,$,#89,.DEMOLITION.);
#91=IFCTASKTIME('Waterdichting Time',.PREDICTED.,$,.WORKTIME.,'P0Y0M10D','2027-03-01T07:00:00','2027-03-12T07:00:00','2027-07-19T07:00:00','2027-08-20T07:00:00','2027-07-19T07:00:00','2027-08-20T07:00:00','P0Y0M0D','P0Y0M0D',.T.,$,$,$,$,$,0.0);
#92=IFCTASK('GvIHrZWt9rlBGrIVEp2ruJ',#6,'Waterdichting',$,$,'3.9',$,$,$,.F.,$,#91,.CONSTRUCTION.);
#93=IFCTASKTIME('4. Installaties Time',.PREDICTED.,$,.WORKTIME.,'P0Y0M5D','2027-03-01T07:00:00','2027-03-05T07:00:00','2027-07-08T07:00:00','2027-10-18T07:00:00','2027-07-08T07:00:00','2027-10-18T07:00:00','P0Y0M0D','P0Y0M0D',.T.,$,$,$,$,$,0.0);
#94=IFCTASK('EhjPdx6vkLDP89O$uZhHzP',#6,'4. Installaties',$,$,'4',$,$,$,.F.,$,#93,.INSTALLATION.);
#95=IFCTASKTIME('Elektra hoofdverdeling Time',.PREDICTED.,$,.WORKTIME.,'P0Y0M8D','2027-03-01T07:00:00','2027-03-10T07:00:00','2027-07-08T07:00:00','2027-07-19T07:00:00','2027-07-08T07:00:00','2027-07-19T07:00:00','P0Y0M0D','P0Y0M0D',.T.,$,$,$,$,$,0.0);
#96=IFCTASK('yDw9cDYfqPiRv$rH5FNTBP',#6,'Elektra hoofdverdeling',$,$,'4.1',$,$,$,.F.,$,#95,.INSTALLATION.);
#97=IFCTASKTIME('Verlichting parkeerlagen Time',.PREDICTED.,$,.WORKTIME.,'P0Y0M10D','2027-03-01T07:00:00','2027-03-12T07:00:00','2027-07-20T07:00:00','2027-08-23T07:00:00','2027-07-20T07:00:00','2027-08-23T07:00:00','P0Y0M0D','P0Y0M0D',.T.,$,$,$,$,$,0.0);
#98=IFCTASK('PxaLTNndDvjfplJl9Zj7v5',#6,'Verlichting parkeerlagen',$,$,'4.2',$,$,$,.F.,$,#97,.INSTALLATION.);
#99=IFCTASKTIME('Ventilatie en CO-detectie Time',.PREDICTED.,$,.WORKTIME.,'P0Y0M10D','2027-03-01T07:00:00','2027-03-12T07:00:00','2027-08-24T07:00:00','2027-09-06T07:00:00','2027-08-24T07:00:00','2027-09-06T07:00:00','P0Y0M0D','P0Y0M0D',.T.,$,$,$,$,$,0.0);
#100=IFCTASK('bbund9z$qvWHP3xFYL7pO3',#6,'Ventilatie en CO-detectie',$,$,'4.3',$,$,$,.F.,$,#99,.INSTALLATION.);
#101=IFCTASKTIME('Sprinklerinstallatie Time',.PREDICTED.,$,.WORKTIME.,'P0Y0M8D','2027-03-01T07:00:00','2027-03-10T07:00:00','2027-09-07T07:00:00','2027-09-16T07:00:00','2027-09-07T07:00:00','2027-09-16T07:00:00','P0Y0M0D','P0Y0M0D',.T.,$,$,$,$,$,0.0);
#102=IFCTASK('XzShZN9No5HJYTDF3lnTpj',#6,'Sprinklerinstallatie',$,$,'4.4',$,$,$,.F.,$,#101,.INSTALLATION.);
#103=IFCTASKTIME('Parkeergeleiding systeem Time',.PREDICTED.,$,.WORKTIME.,'P0Y0M5D','2027-03-01T07:00:00','2027-03-05T07:00:00','2027-09-17T07:00:00','2027-09-23T07:00:00','2027-09-17T07:00:00','2027-09-23T07:00:00','P0Y0M0D','P0Y0M0D',.T.,$,$,$,$,$,0.0);
#104=IFCTASK('ujLl5hpVTVkd4zFVHvunxn',#6,'Parkeergeleiding systeem',$,$,'4.5',$,$,$,.F.,$,#103,.INSTALLATION.);
#105=IFCTASKTIME('Liftinstallatie Time',.PREDICTED.,$,.WORKTIME.,'P0Y0M12D','2027-03-01T07:00:00','2027-03-16T07:00:00','2027-09-24T07:00:00','2027-10-11T07:00:00','2027-09-24T07:00:00','2027-10-11T07:00:00','P0Y0M0D','P0Y0M0D',.T.,$,$,$,$,$,0.0);
#106=IFCTASK('9NATW$F7UjYx3vQlDrBFv9',#6,'Liftinstallatie',$,$,'4.6',$,$,$,.F.,$,#105,.INSTALLATION.);
#107=IFCTASKTIME('Brandmeldinstallatie Time',.PREDICTED.,$,.WORKTIME.,'P0Y0M5D','2027-03-01T07:00:00','2027-03-05T07:00:00','2027-10-12T07:00:00','2027-10-18T07:00:00','2027-10-12T07:00:00','2027-10-18T07:00:00','P0Y0M0D','P0Y0M0D',.T.,$,$,$,$,$,0.0);
#108=IFCTASK('spPz2dTlljqZ3PYVB9EXup',#6,'Brandmeldinstallatie',$,$,'4.7',$,$,$,.F.,$,#107,.INSTALLATION.);
#109=IFCTASKTIME('5. Afwerking Time',.PREDICTED.,$,.WORKTIME.,'P0Y0M5D','2027-03-01T07:00:00','2027-03-05T07:00:00','2027-10-19T07:00:00','2027-11-18T07:00:00','2027-10-19T07:00:00','2027-11-18T07:00:00','P0Y0M0D','P0Y0M0D',.T.,$,$,$,$,$,0.0);
#110=IFCTASK('g31ZqbDnoRhHXnjndBS3pF',#6,'5. Afwerking',$,$,'5',$,$,$,.F.,$,#109,.CONSTRUCTION.);
#111=IFCTASKTIME('Vloercoating aanbrengen Time',.PREDICTED.,$,.WORKTIME.,'P0Y0M8D','2027-03-01T07:00:00','2027-03-10T07:00:00','2027-10-19T07:00:00','2027-10-28T07:00:00','2027-10-19T07:00:00','2027-10-28T07:00:00','P0Y0M0D','P0Y0M0D',.T.,$,$,$,$,$,0.0);
#112=IFCTASK('W11ZKtpVB3O9pzBnNj7bRb',#6,'Vloercoating aanbrengen',$,$,'5.1',$,$,$,.F.,$,#111,.CONSTRUCTION.);
#113=IFCTASKTIME('Belijning en bewegwijzering Time',.PREDICTED.,$,.WORKTIME.,'P0Y0M5D','2027-03-01T07:00:00','2027-03-05T07:00:00','2027-10-29T07:00:00','2027-11-04T07:00:00','2027-10-29T07:00:00','2027-11-04T07:00:00','P0Y0M0D','P0Y0M0D',.T.,$,$,$,$,$,0.0);
#114=IFCTASK('ylR$gXxVPjcpO$t1FRNLof',#6,'Belijning en bewegwijzering',$,$,'5.2',$,$,$,.F.,$,#113,.CONSTRUCTION.);
#115=IFCTASKTIME('Toegangscontrole slagbomen Time',.PREDICTED.,$,.WORKTIME.,'P0Y0M5D','2027-03-01T07:00:00','2027-03-05T07:00:00','2027-11-05T07:00:00','2027-11-11T07:00:00','2027-11-05T07:00:00','2027-11-11T07:00:00','P0Y0M0D','P0Y0M0D',.T.,$,$,$,$,$,0.0);
#116=IFCTASK('CBXhVNOPLvO9DzzHoJYFTx',#6,'Toegangscontrole slagbomen',$,$,'5.3',$,$,$,.F.,$,#115,.INSTALLATION.);
#117=IFCTASKTIME('Nooduitgangen afwerken Time',.PREDICTED.,$,.WORKTIME.,'P0Y0M5D','2027-03-01T07:00:00','2027-03-05T07:00:00','2027-11-12T07:00:00','2027-11-18T07:00:00','2027-11-12T07:00:00','2027-11-18T07:00:00','P0Y0M0D','P0Y0M0D',.T.,$,$,$,$,$,0.0);
#118=IFCTASK('UZGvpjzHLvWl1VzHwDr$YF',#6,'Nooduitgangen afwerken',$,$,'5.4',$,$,$,.F.,$,#117,.CONSTRUCTION.);
#119=IFCTASKTIME('6. Bovengronds herstel Time',.PREDICTED.,$,.WORKTIME.,'P0Y0M5D','2027-03-01T07:00:00','2027-03-05T07:00:00','2027-11-19T07:00:00','2027-12-17T07:00:00','2027-11-19T07:00:00','2027-12-17T07:00:00','P0Y0M0D','P0Y0M0D',.T.,$,$,$,$,$,0.0);
#120=IFCTASK('zJkxIDVP5n$Tj$znatgNs7',#6,'6. Bovengronds herstel',$,$,'6',$,$,$,.F.,$,#119,.CONSTRUCTION.);
#121=IFCTASKTIME('Plein opnieuw inrichten Time',.PREDICTED.,$,.WORKTIME.,'P0Y0M10D','2027-03-01T07:00:00','2027-03-12T07:00:00','2027-11-19T07:00:00','2027-12-02T07:00:00','2027-11-19T07:00:00','2027-12-02T07:00:00','P0Y0M0D','P0Y0M0D',.T.,$,$,$,$,$,0.0);
#122=IFCTASK('CN2BZ5Q7mjEB4z71bXZfcL',#6,'Plein opnieuw inrichten',$,$,'6.1',$,$,$,.F.,$,#121,.CONSTRUCTION.);
#123=IFCTASKTIME('Bestrating en groen Time',.PREDICTED.,$,.WORKTIME.,'P0Y0M8D','2027-03-01T07:00:00','2027-03-10T07:00:00','2027-12-03T07:00:00','2027-12-14T07:00:00','2027-12-03T07:00:00','2027-12-14T07:00:00','P0Y0M0D','P0Y0M0D',.T.,$,$,$,$,$,0.0);
#124=IFCTASK('X1$ZCPzHjrDPChkFepxlll',#6,'Bestrating en groen',$,$,'6.2',$,$,$,.F.,$,#123,.CONSTRUCTION.);
#125=IFCTASKTIME('Verkeersmaatregelen opheffen Time',.PREDICTED.,$,.WORKTIME.,'P0Y0M3D','2027-03-01T07:00:00','2027-03-03T07:00:00','2027-12-15T07:00:00','2027-12-17T07:00:00','2027-12-15T07:00:00','2027-12-17T07:00:00','P0Y0M0D','P0Y0M0D',.T.,$,$,$,$,$,0.0);
#126=IFCTASK('S3qDVtCV3T2b1Bw$8TBnHh',#6,'Verkeersmaatregelen opheffen',$,$,'6.3',$,$,$,.F.,$,#125,.LOGISTIC.);
#127=IFCTASKTIME('Oplevering Time',.PREDICTED.,$,.WORKTIME.,'P0Y0M0D','2027-03-01T07:00:00','2027-03-01T07:00:00','2027-12-17T07:00:00','2027-12-17T07:00:00','2027-12-17T07:00:00','2027-12-17T07:00:00','P0Y0M0D','P0Y0M0D',.T.,$,$,$,$,$,0.0);
#128=IFCTASK('IbTN8Ly$K9Ih2DlVzHHztJ',#6,'Oplevering',$,$,'6.4',$,$,$,.T.,$,#127,.CONSTRUCTION.);
#129=IFCRELNESTS('KxljBvk9p5FDmBYVhPm98p',#6,'WBS 1. Voorbereiding',$,#40,( #42,#44,#46,#48,#50));
#130=IFCRELNESTS('2HfjxnbnExnDChEnQTBnhf',#6,'WBS 2. Bouwkuip',$,#52,( #54,#56,#58,#60,#62,#64,#66,#68,#70,#72));
#131=IFCRELNESTS('jRrV0nZ$63kdmhEFw9gfEf',#6,'WBS 3. Betonconstructie',$,#74,( #76,#78,#80,#82,#84,#86,#88,#90,#92));
#132=IFCRELNESTS('7nlbW$Ptpx1Z9BoVe5gT5H',#6,'WBS 4. Installaties',$,#94,( #96,#98,#100,#102,#104,#106,#108));
#133=IFCRELNESTS('Z17BPt3$mZajMfWXXJstOT',#6,'WBS 5. Afwerking',$,#110,( #112,#114,#116,#118));
#134=IFCRELNESTS('ANgzALjVf5FDavglwDB1Mj',#6,'WBS 6. Bovengronds herstel',$,#120,( #122,#124,#126,#128));
#135=IFCRELNESTS('tjjP5r1vgdnD4TBHzDgTrv',#6,'WBS Hoofd',$,#37,(#40,#52,#74,#94,#110,#120));
#136=IFCRELSEQUENCE('5r_Vuhy$GZSrKxu$kVVbz7',#6,$,$,#42,#44,$,.FINISH_START.,$);
#137=IFCRELSEQUENCE('ph3tQj6VLp61CHJlR11jYH',#6,$,$,#44,#46,$,.FINISH_START.,$);
#138=IFCRELSEQUENCE('J9ShvB09d7Wlpn9$L3NZFb',#6,$,$,#46,#48,$,.FINISH_START.,$);
#139=IFCRELSEQUENCE('p7U1sFT1oFFpO7AHqnNZPd',#6,$,$,#48,#50,$,.FINISH_START.,$);
#140=IFCRELSEQUENCE('gvSL$PwXddKbxHP1nR1j2$',#6,$,$,#54,#56,$,.FINISH_START.,$);
#141=IFCRELSEQUENCE('Bp9pxBX7a$$5pnv1s5wj23',#6,$,$,#56,#58,$,.FINISH_START.,$);
#142=IFCRELSEQUENCE('wL_r5HVved1ZXHFV5ndjg9',#6,$,$,#58,#60,$,.FINISH_START.,$);
#143=IFCRELSEQUENCE('ChR$gRTHlJibXbiHGV$5HL',#6,$,$,#60,#62,$,.FINISH_START.,$);
#144=IFCRELSEQUENCE('8JJPtz5FOnSBqnFVb1fL21',#6,$,$,#62,#64,$,.FINISH_START.,$);
#145=IFCRELSEQUENCE('YXblDl8d5bBnxnLl7Vzt09',#6,$,$,#64,#66,$,.FINISH_START.,$);
#146=IFCRELSEQUENCE('EBnx6d6VVRbX2jBn7bYFJ3',#6,$,$,#66,#68,$,.FINISH_START.,$);
#147=IFCRELSEQUENCE('ChZfm7Q7KJqZnv6l3HFTr7',#6,$,$,#68,#70,$,.FINISH_START.,$);
#148=IFCRELSEQUENCE('U1lJLfu763gFRX5FYrBFbV',#6,$,$,#70,#72,$,.FINISH_START.,$);
#149=IFCRELSEQUENCE('zH7TO52fsNrFZrEXO5I5Lf',#6,$,$,#76,#78,$,.FINISH_START.,$);
#150=IFCRELSEQUENCE('lfmvDpNN6Fq5J$zFGVPJE9',#6,$,$,#78,#80,$,.FINISH_START.,$);
#151=IFCRELSEQUENCE('2F5X8BmNWb5$WJ7$jbH3Tt',#6,$,$,#80,#82,$,.FINISH_START.,$);
#152=IFCRELSEQUENCE('XZWfup9f0hDdSjLFdnNZP7',#6,$,$,#82,#84,$,.FINISH_START.,$);
#153=IFCRELSEQUENCE('gvahBTGN23WlJVN$gl5XeB',#6,$,$,#84,#86,$,.FINISH_START.,$);
#154=IFCRELSEQUENCE('vBQfezDXNH5$eXrndhOltp',#6,$,$,#86,#88,$,.FINISH_START.,$);
#155=IFCRELSEQUENCE('uLg32v1PNHbVIH1XiXzty7',#6,$,$,#88,#90,$,.FINISH_START.,$);
#156=IFCRELSEQUENCE('NZTfKBNfG3WlplpHbRwPN1',#6,$,$,#90,#92,$,.FINISH_START.,$);
#157=IFCRELSEQUENCE('CfIxctaHRhxXMtqnyhlBCH',#6,$,$,#96,#98,$,.FINISH_START.,$);
#158=IFCRELSEQUENCE('Ct_X41_NMbTdunpnlB5V8x',#6,$,$,#98,#100,$,.FINISH_START.,$);
#159=IFCRELSEQUENCE('V$7rFB$vcjSrGh2n$3Ol7b',#6,$,$,#100,#102,$,.FINISH_START.,$);
#160=IFCRELSEQUENCE('wLERup1PBZq5xxu1ldixXz',#6,$,$,#102,#104,$,.FINISH_START.,$);
#161=IFCRELSEQUENCE('xhI5wvo9lJ4p03rFdL8FXz',#6,$,$,#104,#106,$,.FINISH_START.,$);
#162=IFCRELSEQUENCE('TTGPvB876FK3l3P1VDwjIL',#6,$,$,#106,#108,$,.FINISH_START.,$);
#163=IFCRELSEQUENCE('uhI5MVh$UJgz7XN1EFDdFR',#6,$,$,#112,#114,$,.FINISH_START.,$);
#164=IFCRELSEQUENCE('QxC5cpcvWRx1KXHXh3HBer',#6,$,$,#114,#116,$,.FINISH_START.,$);
#165=IFCRELSEQUENCE('JtKRi9hHhJkh2jTH4vari$',#6,$,$,#116,#118,$,.FINISH_START.,$);
#166=IFCRELSEQUENCE('yF9pP5UfSr3f9rw1ebI1gp',#6,$,$,#122,#124,$,.FINISH_START.,$);
#167=IFCRELSEQUENCE('7HD791sPvZ4DiVP$PFdJUj',#6,$,$,#124,#126,$,.FINISH_START.,$);
#168=IFCRELSEQUENCE('l9KJzrO7uXkP0zzHoJs9at',#6,$,$,#126,#128,$,.FINISH_START.,$);
#169=IFCLAGTIME('Lag',.PREDICTED.,$,IFCDURATION('P12D'),.WORKTIME.);
#170=IFCRELSEQUENCE('hTjvDJ5X5HDtR$1XUh153r',#6,$,$,#42,#54,#169,.START_START.,$);
#171=IFCLAGTIME('Lag',.PREDICTED.,$,IFCRATIOMEASURE(0.4),.WORKTIME.);
#172=IFCRELSEQUENCE('3JYLVNGNC3YfNRu1TTCpub',#6,$,$,#54,#76,#171,.START_START.,$);
#173=IFCLAGTIME('Lag',.PREDICTED.,$,IFCDURATION('-P17D'),.WORKTIME.);
#174=IFCRELSEQUENCE('WVrVKNtf_fYN5xGVA17bbR',#6,$,$,#92,#96,#173,.FINISH_START.,$);
#175=IFCLAGTIME('Lag',.PREDICTED.,$,IFCDURATION('P2D'),.WORKTIME.);
#176=IFCRELSEQUENCE('xnPz2PxVpxvLo$f$dra3hJ',#6,$,$,#92,#108,#175,.FINISH_FINISH.,$);
#177=IFCRELSEQUENCE('lbrVObwVxxFp4fWVJ96dL9',#6,$,$,#108,#112,$,.FINISH_START.,$);
#178=IFCRELSEQUENCE('Hxt567w7Qp0Frvwl$ZKjYj',#6,$,$,#118,#122,$,.FINISH_START.,$);
#179=IFCRELASSIGNSTOCONTROL('rDVhNjbXHjyDCF$VkTSruD',#6,$,$,(#40,#42,#44,#46,#48,#50,#52,#54,#56,#58,#60,#62,#64,#66,#68,#70,#72,#74,#76,#78,#80,#82,#84,#86,#88,#90,#92,#94,#96,#98,#100,#102,#104,#106,#108,#110,#112,#114,#116,#118,#120,#122,#124,#126,#128),$,#37);
#180=IFCPROPERTYSINGLEVALUE('wbsAutoNumber',$,IFCBOOLEAN(.T.),$);
#181=IFCPROPERTYSINGLEVALUE('ProjectStartDate',$,IFCDATE('2027-03-01'),$);
#182=IFCPROPERTYSINGLEVALUE('ProjectEndDate',$,$,$);
#183=IFCPROPERTYSINGLEVALUE('CreatedAt',$,IFCTEXT('2026-07-27T14:03:49.337Z'),$);
#184=IFCPROPERTYSINGLEVALUE('ModifiedAt',$,IFCTEXT('2026-07-27T14:03:49.337Z'),$);
#185=IFCPROPERTYSET('e5a3ArlP$tNZvpDF1ZK5n5',#6,'OPS_ProjectSettings',$,(#180,#181,#182,#183,#184));
#186=IFCRELDEFINESBYPROPERTIES('0Hdzo1sPJhdjQlBF$1BF9l',#6,$,$,(#13),#185);
#187=IFCPROPERTYSINGLEVALUE('MilestoneKind',$,IFCLABEL('START'),$);
#188=IFCPROPERTYSET('fTTfq7F7wHWHBplXTVnLsP',#6,'OPS_Milestone',$,(#187));
#189=IFCRELDEFINESBYPROPERTIES('2FxVCPh1s99zxHN1QZDPHh',#6,$,$,(#50),#188);
#190=IFCPROPERTYSINGLEVALUE('MilestoneKind',$,IFCLABEL('FINISH'),$);
#191=IFCPROPERTYSINGLEVALUE('Mandatory',$,IFCBOOLEAN(.T.),$);
#192=IFCPROPERTYSET('2FTNSDE9pvrFL90V$$3NwX',#6,'OPS_Milestone',$,(#190,#191));
#193=IFCRELDEFINESBYPROPERTIES('Rbm7PNP9xlBnjJlX9v4L6R',#6,$,$,(#128),#192);
ENDSEC;
END-ISO-10303-21;
