ISO-10303-21;
HEADER;
FILE_DESCRIPTION(('ViewDefinition [SchedulingView]'),'2;1');
FILE_NAME('Industriehal Logistiek Venlo.ifc','2026-07-27T14:03:49',('Kees van der Berg'),('Hallenbouw Limburg BV'),'Open Planner Studio 0.1','Open Planner Studio','');
FILE_SCHEMA(('IFC4X3'));
ENDSEC;
DATA;
#1=IFCPERSON($,'Kees van der Berg',$,$,$,$,$,$);
#2=IFCORGANIZATION($,'Hallenbouw Limburg BV',$,$,$);
#3=IFCPERSONANDORGANIZATION(#1,#2,$);
#4=IFCORGANIZATION($,'OpenAEC Foundation',$,$,$);
#5=IFCAPPLICATION(#4,'0.1','Open Planner Studio','OPS');
#6=IFCOWNERHISTORY(#3,#5,$,.NOCHANGE.,$,$,$,1785161029);
#7=IFCSIUNIT(*,.LENGTHUNIT.,$,.METRE.);
#8=IFCSIUNIT(*,.TIMEUNIT.,$,.SECOND.);
#9=IFCUNITASSIGNMENT((#7,#8));
#10=IFCCARTESIANPOINT((0.,0.,0.));
#11=IFCAXIS2PLACEMENT3D(#10,$,$);
#12=IFCGEOMETRICREPRESENTATIONCONTEXT($,'Plan',3,1.0E-05,#11,$);
#13=IFCPROJECT('PxyrXD6vE5lJoLIFW9I12V',#6,'Industriehal Logistiek Venlo','Logistieke hal 10.000m2 met kantoorruimte',$,$,$,(#12),#9);
#14=IFCTIMEPERIOD('07:00:00','16:00:00');
#15=IFCRECURRENCEPATTERN(.WEEKLY.,$,(1,2,3,4,5),$,$,$,$,(#14));
#16=IFCWORKTIME('Standaard werkweek',.PREDICTED.,$,#15,$,$);
#17=IFCWORKTIME('Nieuwjaar',.PREDICTED.,$,$,'2027-01-01','2027-01-01');
#18=IFCWORKTIME('Goede Vrijdag',.PREDICTED.,$,$,'2027-03-26','2027-03-26');
#19=IFCWORKTIME('Pasen',.PREDICTED.,$,$,'2027-03-28','2027-03-29');
#20=IFCWORKTIME('Koningsdag',.PREDICTED.,$,$,'2027-04-27','2027-04-27');
#21=IFCWORKTIME('Bevrijdingsdag',.PREDICTED.,$,$,'2027-05-05','2027-05-05');
#22=IFCWORKTIME('Hemelvaart',.PREDICTED.,$,$,'2027-05-06','2027-05-06');
#23=IFCWORKTIME('Pinksteren',.PREDICTED.,$,$,'2027-05-16','2027-05-17');
#24=IFCWORKTIME('Kerst',.PREDICTED.,$,$,'2027-12-25','2027-12-26');
#25=IFCWORKTIME('Bouwvak (regio Noord)',.PREDICTED.,$,$,'2027-07-26','2027-08-15');
#26=IFCWORKTIME('Nieuwjaar',.PREDICTED.,$,$,'2028-01-01','2028-01-01');
#27=IFCWORKTIME('Goede Vrijdag',.PREDICTED.,$,$,'2028-04-14','2028-04-14');
#28=IFCWORKTIME('Pasen',.PREDICTED.,$,$,'2028-04-16','2028-04-17');
#29=IFCWORKTIME('Koningsdag',.PREDICTED.,$,$,'2028-04-27','2028-04-27');
#30=IFCWORKTIME('Bevrijdingsdag',.PREDICTED.,$,$,'2028-05-05','2028-05-05');
#31=IFCWORKTIME('Hemelvaart',.PREDICTED.,$,$,'2028-05-25','2028-05-25');
#32=IFCWORKTIME('Pinksteren',.PREDICTED.,$,$,'2028-06-04','2028-06-05');
#33=IFCWORKTIME('Kerst',.PREDICTED.,$,$,'2028-12-25','2028-12-26');
#34=IFCWORKTIME('Bouwvak (regio Noord)',.PREDICTED.,$,$,'2028-07-24','2028-08-13');
#35=IFCWORKCALENDAR('_HlbW$VPl1Yxnv_nBDbFBd',#6,'Bouwkalender NL','Standaard bouwkalender: ma-vr 07:00-16:00',$,(#16),(#17,#18,#19,#20,#21,#22,#23,#24,#25,#26,#27,#28,#29,#30,#31,#32,#33,#34),.FIRSTSHIFT.);
#36=IFCWORKPLAN('1J_Brds$qvePSv2F$zWdbX',#6,'Industriehal Logistiek Venlo','Logistieke hal 10.000m2 met kantoorruimte',$,$,'2026-07-27T14:03:49',$,$,$,$,$,'2027-03-01T07:00:00','2027-03-16T07:00:00',.PLANNED.);
#37=IFCWORKSCHEDULE('UXBVW$VdZJCxfR8$2fQpK1',#6,'Bouwplanning v1.0',$,$,$,'2026-07-27T14:03:49',$,$,$,$,$,'2027-03-01T07:00:00','2027-03-16T07:00:00',.PLANNED.);
#38=IFCRELAGGREGATES('X$Ph9TPtbVDd8te$ftI1sz',#6,$,$,#36,(#37));
#39=IFCTASKTIME('1. Voorbereiding Time',.PREDICTED.,$,.WORKTIME.,'P0Y0M5D','2027-03-01T07:00:00','2027-03-05T07:00:00','2027-03-01T07:00:00','2027-03-18T07:00:00','2027-03-01T07:00:00','2027-09-03T07:00:00','P0Y0M0D','P0Y0M0D',.T.,$,$,$,$,$,0.0);
#40=IFCTASK('UVj7pptNu$2RLt0VBt_HNZ',#6,'1. Voorbereiding',$,$,'1',$,$,$,.F.,$,#39,.CONSTRUCTION.);
#41=IFCTASKTIME('Bouwterrein bouwrijp Time',.PREDICTED.,$,.WORKTIME.,'P0Y0M5D','2027-03-01T07:00:00','2027-03-05T07:00:00','2027-03-01T07:00:00','2027-03-05T07:00:00','2027-03-01T07:00:00','2027-03-05T07:00:00','P0Y0M0D','P0Y0M0D',.T.,$,$,$,$,$,0.0);
#42=IFCTASK('EBn5EzpXNn9bTrYXldyZht',#6,'Bouwterrein bouwrijp',$,$,'1.1',$,$,$,.F.,$,#41,.CONSTRUCTION.);
#43=IFCTASKTIME('Riolering en nutsaansluitingen Time',.PREDICTED.,$,.WORKTIME.,'P0Y0M8D','2027-03-01T07:00:00','2027-03-10T07:00:00','2027-03-08T07:00:00','2027-03-17T07:00:00','2027-08-24T07:00:00','2027-09-02T07:00:00','P0Y0M0D','P0Y0M100D',.F.,$,$,$,$,$,0.0);
#44=IFCTASK('g74ZC5HvOlOP03pl1zmf6R',#6,'Riolering en nutsaansluitingen',$,$,'1.2',$,$,$,.F.,$,#43,.INSTALLATION.);
#45=IFCTASKTIME('Start bouw Time',.PREDICTED.,$,.WORKTIME.,'P0Y0M0D','2027-03-01T07:00:00','2027-03-01T07:00:00','2027-03-18T07:00:00','2027-03-18T07:00:00','2027-09-03T07:00:00','2027-09-03T07:00:00','P0Y0M100D','P0Y0M100D',.F.,$,$,$,$,$,0.0);
#46=IFCTASK('IfWNm9yHFl8Nz7AlmnTfIr',#6,'Start bouw',$,$,'1.3',$,$,$,.T.,$,#45,.CONSTRUCTION.);
#47=IFCTASKTIME('2. Fundering Time',.PREDICTED.,$,.WORKTIME.,'P0Y0M5D','2027-03-01T07:00:00','2027-03-05T07:00:00','2027-03-10T07:00:00','2027-04-13T07:00:00','2027-03-10T07:00:00','2027-09-03T07:00:00','P0Y0M0D','P0Y0M0D',.T.,$,$,$,$,$,0.0);
#48=IFCTASK('1HXL1Ps$y5npaPIXs1dxzr',#6,'2. Fundering',$,$,'2',$,$,$,.F.,$,#47,.CONSTRUCTION.);
#49=IFCTASKTIME('Grondverbetering Time',.PREDICTED.,$,.WORKTIME.,'P0Y0M5D','2027-03-01T07:00:00','2027-03-05T07:00:00','2027-03-10T07:00:00','2027-03-16T07:00:00','2027-03-10T07:00:00','2027-03-16T07:00:00','P0Y0M0D','P0Y0M0D',.T.,$,$,$,$,$,0.0);
#50=IFCTASK('kNm7jZ9fonFDOPEVmFLVWv',#6,'Grondverbetering',$,$,'2.1',$,$,$,.F.,$,#49,.CONSTRUCTION.);
#51=IFCTASKTIME('Funderingsstroken storten Time',.PREDICTED.,$,.WORKTIME.,'P0Y0M10D','2027-03-01T07:00:00','2027-03-12T07:00:00','2027-03-17T07:00:00','2027-04-01T07:00:00','2027-07-21T07:00:00','2027-08-24T07:00:00','P0Y0M0D','P0Y0M84D',.F.,$,$,$,$,$,0.0);
#52=IFCTASK('QVZNSpgdRhR1yZLHt7yhkB',#6,'Funderingsstroken storten',$,$,'2.2',$,$,$,.F.,$,#51,.CONSTRUCTION.);
#53=IFCTASKTIME('Vloer op staal voorbereiden Time',.PREDICTED.,$,.WORKTIME.,'P0Y0M8D','2027-03-01T07:00:00','2027-03-10T07:00:00','2027-04-02T07:00:00','2027-04-13T07:00:00','2027-08-25T07:00:00','2027-09-03T07:00:00','P0Y0M84D','P0Y0M84D',.F.,$,$,$,$,$,0.0);
#54=IFCTASK('sJBn7vd9LPizTLgHsRUnFR',#6,'Vloer op staal voorbereiden',$,$,'2.3',$,$,$,.F.,$,#53,.CONSTRUCTION.);
#55=IFCTASKTIME('3. Staalconstructie Time',.PREDICTED.,$,.WORKTIME.,'P0Y0M5D','2027-03-01T07:00:00','2027-03-05T07:00:00','2027-03-12T07:00:00','2027-04-22T07:00:00','2027-03-12T07:00:00','2027-09-03T07:00:00','P0Y0M0D','P0Y0M0D',.T.,$,$,$,$,$,0.0);
#56=IFCTASK('Dhz9IjL1cDOPi1jFlv0vlH',#6,'3. Staalconstructie',$,$,'3',$,$,$,.F.,$,#55,.CONSTRUCTION.);
#57=IFCTASKTIME('Staalkolommen plaatsen Time',.PREDICTED.,$,.WORKTIME.,'P0Y0M8D','2027-03-01T07:00:00','2027-03-10T07:00:00','2027-03-12T07:00:00','2027-03-23T07:00:00','2027-03-12T07:00:00','2027-03-23T07:00:00','P0Y0M0D','P0Y0M0D',.T.,$,$,$,$,$,0.0);
#58=IFCTASK('8LwpJVM$IXJvQT9171VDGH',#6,'Staalkolommen plaatsen',$,$,'3.1',$,$,$,.F.,$,#57,.CONSTRUCTION.);
#59=IFCTASKTIME('Stalen spanten monteren Time',.PREDICTED.,$,.WORKTIME.,'P0Y0M10D','2027-03-01T07:00:00','2027-03-12T07:00:00','2027-03-24T07:00:00','2027-04-08T07:00:00','2027-03-24T07:00:00','2027-04-08T07:00:00','P0Y0M0D','P0Y0M0D',.T.,$,$,$,$,$,0.0);
#60=IFCTASK('OR09srldXPvLgNu$oHP5DJ',#6,'Stalen spanten monteren',$,$,'3.2',$,$,$,.F.,$,#59,.CONSTRUCTION.);
#61=IFCTASKTIME('Gordingen en windverbanden Time',.PREDICTED.,$,.WORKTIME.,'P0Y0M5D','2027-03-01T07:00:00','2027-03-05T07:00:00','2027-04-09T07:00:00','2027-04-15T07:00:00','2027-04-09T07:00:00','2027-04-15T07:00:00','P0Y0M0D','P0Y0M0D',.T.,$,$,$,$,$,0.0);
#62=IFCTASK('qtcNirNfSVT9xl1VS5pd$D',#6,'Gordingen en windverbanden',$,$,'3.3',$,$,$,.F.,$,#61,.CONSTRUCTION.);
#63=IFCTASKTIME('Kraanbaan installeren Time',.PREDICTED.,$,.WORKTIME.,'P0Y0M5D','2027-03-01T07:00:00','2027-03-05T07:00:00','2027-04-16T07:00:00','2027-04-22T07:00:00','2027-04-16T07:00:00','2027-04-22T07:00:00','P0Y0M0D','P0Y0M0D',.T.,$,$,$,$,$,0.0);
#64=IFCTASK('m72V0nhHLjErevAl4h1xZb',#6,'Kraanbaan installeren',$,$,'3.4',$,$,$,.F.,$,#63,.INSTALLATION.);
#65=IFCTASKTIME('Hoogste punt Time',.PREDICTED.,$,.WORKTIME.,'P0Y0M0D','2027-03-01T07:00:00','2027-03-01T07:00:00','2027-04-22T07:00:00','2027-04-22T07:00:00','2027-09-03T07:00:00','2027-09-03T07:00:00','P0Y0M77D','P0Y0M77D',.F.,$,$,$,$,$,0.0);
#66=IFCTASK('TzqxEXUFkVLlzvgHkVvDG1',#6,'Hoogste punt',$,$,'3.5',$,$,$,.T.,$,#65,.CONSTRUCTION.);
#67=IFCTASKTIME('4. Gevel & Dak Time',.PREDICTED.,$,.WORKTIME.,'P0Y0M5D','2027-03-01T07:00:00','2027-03-05T07:00:00','2027-04-15T07:00:00','2027-06-03T07:00:00','2027-04-15T07:00:00','2027-09-03T07:00:00','P0Y0M0D','P0Y0M0D',.T.,$,$,$,$,$,0.0);
#68=IFCTASK('TXz9EZtNEFFDyzN$glBF1j',#6,'4. Gevel & Dak',$,$,'4',$,$,$,.F.,$,#67,.CONSTRUCTION.);
#69=IFCTASKTIME('Dakplaten sandwichpanelen Time',.PREDICTED.,$,.WORKTIME.,'P0Y0M10D','2027-03-01T07:00:00','2027-03-12T07:00:00','2027-04-15T07:00:00','2027-04-29T07:00:00','2027-04-15T07:00:00','2027-04-29T07:00:00','P0Y0M0D','P0Y0M0D',.T.,$,$,$,$,$,0.0);
#70=IFCTASK('mPAZCPZH3l8fvpbHwfA3ZN',#6,'Dakplaten sandwichpanelen',$,$,'4.1',$,$,$,.F.,$,#69,.INSTALLATION.);
#71=IFCTASKTIME('Gevelbeplating Time',.PREDICTED.,$,.WORKTIME.,'P0Y0M12D','2027-03-01T07:00:00','2027-03-16T07:00:00','2027-04-30T07:00:00','2027-05-20T07:00:00','2027-04-30T07:00:00','2027-05-20T07:00:00','P0Y0M0D','P0Y0M0D',.T.,$,$,$,$,$,0.0);
#72=IFCTASK('8JrFVj_nedNx1191VpgTF5',#6,'Gevelbeplating',$,$,'4.2',$,$,$,.F.,$,#71,.INSTALLATION.);
#73=IFCTASKTIME('Overheaddeuren Time',.PREDICTED.,$,.WORKTIME.,'P0Y0M5D','2027-03-01T07:00:00','2027-03-05T07:00:00','2027-05-21T07:00:00','2027-05-27T07:00:00','2027-05-21T07:00:00','2027-05-27T07:00:00','P0Y0M0D','P0Y0M0D',.T.,$,$,$,$,$,0.0);
#74=IFCTASK('6FNjfFSlLpYNFd6$KJc77x',#6,'Overheaddeuren',$,$,'4.3',$,$,$,.F.,$,#73,.INSTALLATION.);
#75=IFCTASKTIME('Lichtstraten dak Time',.PREDICTED.,$,.WORKTIME.,'P0Y0M5D','2027-03-01T07:00:00','2027-03-05T07:00:00','2027-05-28T07:00:00','2027-06-03T07:00:00','2027-05-28T07:00:00','2027-06-03T07:00:00','P0Y0M0D','P0Y0M0D',.T.,$,$,$,$,$,0.0);
#76=IFCTASK('C9IHXf8PflD91L6lrj7bpH',#6,'Lichtstraten dak',$,$,'4.4',$,$,$,.F.,$,#75,.INSTALLATION.);
#77=IFCTASKTIME('Wind- en waterdicht Time',.PREDICTED.,$,.WORKTIME.,'P0Y0M0D','2027-03-01T07:00:00','2027-03-01T07:00:00','2027-06-03T07:00:00','2027-06-03T07:00:00','2027-09-03T07:00:00','2027-09-03T07:00:00','P0Y0M51D','P0Y0M51D',.F.,$,$,$,$,$,0.0);
#78=IFCTASK('sDNjRVB$evz7IxmXi1l3Rb',#6,'Wind- en waterdicht',$,$,'4.5',$,$,$,.T.,$,#77,.CONSTRUCTION.);
#79=IFCTASKTIME('5. Vloer & Installaties Time',.PREDICTED.,$,.WORKTIME.,'P0Y0M5D','2027-03-01T07:00:00','2027-03-05T07:00:00','2027-06-04T07:00:00','2027-07-16T07:00:00','2027-06-04T07:00:00','2027-09-03T07:00:00','P0Y0M0D','P0Y0M0D',.T.,$,$,$,$,$,0.0);
#80=IFCTASK('HbJvt$APbX5VUNCnmH$JQl',#6,'5. Vloer & Installaties',$,$,'5',$,$,$,.F.,$,#79,.CONSTRUCTION.);
#81=IFCTASKTIME('Betonvloer hal storten Time',.PREDICTED.,$,.WORKTIME.,'P0Y0M10D','2027-03-01T07:00:00','2027-03-12T07:00:00','2027-06-04T07:00:00','2027-06-17T07:00:00','2027-06-04T07:00:00','2027-06-17T07:00:00','P0Y0M0D','P0Y0M0D',.T.,$,$,$,$,$,0.0);
#82=IFCTASK('Evw9srnP79AZ5xmVGFJ75r',#6,'Betonvloer hal storten',$,$,'5.1',$,$,$,.F.,$,#81,.CONSTRUCTION.);
#83=IFCTASKTIME('Vloerafwerking coating Time',.PREDICTED.,$,.WORKTIME.,'P0Y0M5D','2027-03-01T07:00:00','2027-03-05T07:00:00','2027-06-18T07:00:00','2027-06-24T07:00:00','2027-07-16T07:00:00','2027-07-22T07:00:00','P0Y0M0D','P0Y0M20D',.F.,$,$,$,$,$,0.0);
#84=IFCTASK('RXBXqxVPH16JczTlydGtCF',#6,'Vloerafwerking coating',$,$,'5.2',$,$,$,.F.,$,#83,.CONSTRUCTION.);
#85=IFCTASKTIME('Elektra-installatie hal Time',.PREDICTED.,$,.WORKTIME.,'P0Y0M8D','2027-03-01T07:00:00','2027-03-10T07:00:00','2027-06-25T07:00:00','2027-07-06T07:00:00','2027-07-23T07:00:00','2027-08-24T07:00:00','P0Y0M0D','P0Y0M20D',.F.,$,$,$,$,$,0.0);
#86=IFCTASK('QVJvNHmfah15pFN$xlZ9K$',#6,'Elektra-installatie hal',$,$,'5.3',$,$,$,.F.,$,#85,.INSTALLATION.);
#87=IFCTASKTIME('Verlichting hal Time',.PREDICTED.,$,.WORKTIME.,'P0Y0M5D','2027-03-01T07:00:00','2027-03-05T07:00:00','2027-07-07T07:00:00','2027-07-13T07:00:00','2027-08-25T07:00:00','2027-08-31T07:00:00','P0Y0M0D','P0Y0M20D',.F.,$,$,$,$,$,0.0);
#88=IFCTASK('ApHbOxktH$Yx1$d1mXPJ6x',#6,'Verlichting hal',$,$,'5.4',$,$,$,.F.,$,#87,.INSTALLATION.);
#89=IFCTASKTIME('Brandmeldinstallatie Time',.PREDICTED.,$,.WORKTIME.,'P0Y0M3D','2027-03-01T07:00:00','2027-03-03T07:00:00','2027-07-14T07:00:00','2027-07-16T07:00:00','2027-09-01T07:00:00','2027-09-03T07:00:00','P0Y0M20D','P0Y0M20D',.F.,$,$,$,$,$,0.0);
#90=IFCTASK('7LMzE3T1Q$wJgrEXKXj7JX',#6,'Brandmeldinstallatie',$,$,'5.5',$,$,$,.F.,$,#89,.INSTALLATION.);
#91=IFCTASKTIME('6. Kantoorgedeelte Time',.PREDICTED.,$,.WORKTIME.,'P0Y0M5D','2027-03-01T07:00:00','2027-03-05T07:00:00','2027-06-28T07:00:00','2027-08-16T07:00:00','2027-06-28T07:00:00','2027-08-16T07:00:00','P0Y0M0D','P0Y0M0D',.T.,$,$,$,$,$,0.0);
#92=IFCTASK('$jYLl$79flJNf5KnQz93xL',#6,'6. Kantoorgedeelte',$,$,'6',$,$,$,.F.,$,#91,.CONSTRUCTION.);
#93=IFCTASKTIME('Kantoor binnenwanden Time',.PREDICTED.,$,.WORKTIME.,'P0Y0M5D','2027-03-01T07:00:00','2027-03-05T07:00:00','2027-06-28T07:00:00','2027-07-02T07:00:00','2027-06-28T07:00:00','2027-07-02T07:00:00','P0Y0M0D','P0Y0M0D',.T.,$,$,$,$,$,0.0);
#94=IFCTASK('XTO$Ezz1mjkLIRinwDpdpj',#6,'Kantoor binnenwanden',$,$,'6.1',$,$,$,.F.,$,#93,.CONSTRUCTION.);
#95=IFCTASKTIME('Kantoor installaties Time',.PREDICTED.,$,.WORKTIME.,'P0Y0M8D','2027-03-01T07:00:00','2027-03-10T07:00:00','2027-07-05T07:00:00','2027-07-14T07:00:00','2027-07-05T07:00:00','2027-07-14T07:00:00','P0Y0M0D','P0Y0M0D',.T.,$,$,$,$,$,0.0);
#96=IFCTASK('Ityrr7k9lX29XxO$GnB$2Z',#6,'Kantoor installaties',$,$,'6.2',$,$,$,.F.,$,#95,.INSTALLATION.);
#97=IFCTASKTIME('Kantoor afwerking Time',.PREDICTED.,$,.WORKTIME.,'P0Y0M5D','2027-03-01T07:00:00','2027-03-05T07:00:00','2027-07-15T07:00:00','2027-07-21T07:00:00','2027-07-15T07:00:00','2027-07-21T07:00:00','P0Y0M0D','P0Y0M0D',.T.,$,$,$,$,$,0.0);
#98=IFCTASK('ZVrXO35neFSj_7EnsRs9WP',#6,'Kantoor afwerking',$,$,'6.3',$,$,$,.F.,$,#97,.CONSTRUCTION.);
#99=IFCTASKTIME('Sanitaire voorzieningen Time',.PREDICTED.,$,.WORKTIME.,'P0Y0M3D','2027-03-01T07:00:00','2027-03-03T07:00:00','2027-07-22T07:00:00','2027-08-16T07:00:00','2027-07-22T07:00:00','2027-08-16T07:00:00','P0Y0M0D','P0Y0M0D',.T.,$,$,$,$,$,0.0);
#100=IFCTASK('Jf8XWXZlB3ufdZv$Ax6jo5',#6,'Sanitaire voorzieningen',$,$,'6.4',$,$,$,.F.,$,#99,.INSTALLATION.);
#101=IFCTASKTIME('7. Terrein & Oplevering Time',.PREDICTED.,$,.WORKTIME.,'P0Y0M5D','2027-03-01T07:00:00','2027-03-05T07:00:00','2027-08-17T07:00:00','2027-09-03T07:00:00','2027-08-17T07:00:00','2027-09-03T07:00:00','P0Y0M0D','P0Y0M0D',.T.,$,$,$,$,$,0.0);
#102=IFCTASK('Gv_VOZNNqPSJ_P_VPH3fsP',#6,'7. Terrein & Oplevering',$,$,'7',$,$,$,.F.,$,#101,.CONSTRUCTION.);
#103=IFCTASKTIME('Terreinverharding Time',.PREDICTED.,$,.WORKTIME.,'P0Y0M8D','2027-03-01T07:00:00','2027-03-10T07:00:00','2027-08-17T07:00:00','2027-08-26T07:00:00','2027-08-17T07:00:00','2027-08-26T07:00:00','P0Y0M0D','P0Y0M0D',.T.,$,$,$,$,$,0.0);
#104=IFCTASK('vrklHX3H1fLH3PEVaf6JQl',#6,'Terreinverharding',$,$,'7.1',$,$,$,.F.,$,#103,.CONSTRUCTION.);
#105=IFCTASKTIME('Terreinverlichting Time',.PREDICTED.,$,.WORKTIME.,'P0Y0M3D','2027-03-01T07:00:00','2027-03-03T07:00:00','2027-08-27T07:00:00','2027-08-31T07:00:00','2027-08-27T07:00:00','2027-08-31T07:00:00','P0Y0M0D','P0Y0M0D',.T.,$,$,$,$,$,0.0);
#106=IFCTASK('TzCDzP3lR$djQH3HEnr1MJ',#6,'Terreinverlichting',$,$,'7.2',$,$,$,.F.,$,#105,.INSTALLATION.);
#107=IFCTASKTIME('Hekwerk en poort Time',.PREDICTED.,$,.WORKTIME.,'P0Y0M3D','2027-03-01T07:00:00','2027-03-03T07:00:00','2027-09-01T07:00:00','2027-09-03T07:00:00','2027-09-01T07:00:00','2027-09-03T07:00:00','P0Y0M0D','P0Y0M0D',.T.,$,$,$,$,$,0.0);
#108=IFCTASK('aTO$IHGfKNMFpTXX0vmNIv',#6,'Hekwerk en poort',$,$,'7.3',$,$,$,.F.,$,#107,.INSTALLATION.);
#109=IFCTASKTIME('Oplevering Time',.PREDICTED.,$,.WORKTIME.,'P0Y0M0D','2027-03-01T07:00:00','2027-03-01T07:00:00','2027-09-03T07:00:00','2027-09-03T07:00:00','2027-09-03T07:00:00','2027-09-03T07:00:00','P0Y0M0D','P0Y0M0D',.T.,$,$,$,$,$,0.0);
#110=IFCTASK('V34Z8B0tr3mV6pTFYPKjYF',#6,'Oplevering',$,$,'7.4',$,$,$,.T.,$,#109,.CONSTRUCTION.);
#111=IFCRELNESTS('RxKb4$_fQJCZtBoV47yTHh',#6,'WBS 1. Voorbereiding',$,#40,( #42,#44,#46));
#112=IFCRELNESTS('wBwtsFxFGZ4LsxCnatc7TN',#6,'WBS 2. Fundering',$,#48,( #50,#52,#54));
#113=IFCRELNESTS('6n7TaDk9H1EB0zZleDLXmV',#6,'WBS 3. Staalconstructie',$,#56,( #58,#60,#62,#64,#66));
#114=IFCRELNESTS('SZmvlRh$gxnpyN0VRXbn9F',#6,'WBS 4. Gevel & Dak',$,#68,( #70,#72,#74,#76,#78));
#115=IFCRELNESTS('OTz9QfGfMvJNnPM$93nhUl',#6,'WBS 5. Vloer & Installaties',$,#80,( #82,#84,#86,#88,#90));
#116=IFCRELNESTS('uLYhB3a$6l0nttClMrixj3',#6,'WBS 6. Kantoorgedeelte',$,#92,( #94,#96,#98,#100));
#117=IFCRELNESTS('fzdLbbh$wzgnLtu$b1d5Zb',#6,'WBS 7. Terrein & Oplevering',$,#102,( #104,#106,#108,#110));
#118=IFCRELNESTS('tjjP5r1vgdnD4TBHzDgTrv',#6,'WBS Hoofd',$,#37,(#40,#48,#56,#68,#80,#92,#102));
#119=IFCRELSEQUENCE('vhsZCbh1IhDP4Z5HOJP5DJ',#6,$,$,#42,#44,$,.FINISH_START.,$);
#120=IFCRELSEQUENCE('O5qxcJklBNE7oLwHTV1xRV',#6,$,$,#44,#46,$,.FINISH_START.,$);
#121=IFCRELSEQUENCE('FhZfiB$72fMnlzVXY7Wdzr',#6,$,$,#50,#52,$,.FINISH_START.,$);
#122=IFCRELSEQUENCE('hZxFflevylrn7VXX2xLVC3',#6,$,$,#52,#54,$,.FINISH_START.,$);
#123=IFCRELSEQUENCE('wr6tEzJXv3WHN5ynJxDdBv',#6,$,$,#58,#60,$,.FINISH_START.,$);
#124=IFCRELSEQUENCE('9pvZW$PtXPdrmRO$exIxhN',#6,$,$,#60,#62,$,.FINISH_START.,$);
#125=IFCRELSEQUENCE('G7Y1ABFd$rrn99aHJ9EVCn',#6,$,$,#62,#64,$,.FINISH_START.,$);
#126=IFCRELSEQUENCE('FvEF9$_f_z8v_7MH6NcD0N',#6,$,$,#64,#66,$,.FINISH_START.,$);
#127=IFCRELSEQUENCE('xlDvJ3bFgPtbt9alJtMNwV',#6,$,$,#70,#72,$,.FINISH_START.,$);
#128=IFCRELSEQUENCE('X3yBnrtfQ$_bhfqnG1hlbb',#6,$,$,#72,#74,$,.FINISH_START.,$);
#129=IFCRELSEQUENCE('$p2XaJQVTjKz1hEnEDMZ3B',#6,$,$,#74,#76,$,.FINISH_START.,$);
#130=IFCRELSEQUENCE('vFPzAHd93ToBOdoVm$R$cF',#6,$,$,#76,#78,$,.FINISH_START.,$);
#131=IFCRELSEQUENCE('S$fRexEt7fsHBJJH5l5V4P',#6,$,$,#82,#84,$,.FINISH_START.,$);
#132=IFCRELSEQUENCE('nd_rv79fut9z1hQHR1FZvt',#6,$,$,#84,#86,$,.FINISH_START.,$);
#133=IFCRELSEQUENCE('FvMdzv1PXbjNT9iFcTR1Et',#6,$,$,#86,#88,$,.FINISH_START.,$);
#134=IFCRELSEQUENCE('XZGvvPzHVdtbhtGV6J9rWd',#6,$,$,#88,#90,$,.FINISH_START.,$);
#135=IFCRELSEQUENCE('spfJXJQVLPSrmxqn0P4T9l',#6,$,$,#94,#96,$,.FINISH_START.,$);
#136=IFCRELSEQUENCE('zpAvHxNNonFp0Zf1PBariX',#6,$,$,#96,#98,$,.FINISH_START.,$);
#137=IFCRELSEQUENCE('EhR$_halddaru981ULVRJ$',#6,$,$,#98,#100,$,.FINISH_START.,$);
#138=IFCRELSEQUENCE('M7ibWVh$sLvp8981oFZf_z',#6,$,$,#104,#106,$,.FINISH_START.,$);
#139=IFCRELSEQUENCE('2jsTyXs$Wxvh6$5lyhXRNT',#6,$,$,#106,#108,$,.FINISH_START.,$);
#140=IFCRELSEQUENCE('UzqxIHuP$hnLIllX7$fhoN',#6,$,$,#108,#110,$,.FINISH_START.,$);
#141=IFCLAGTIME('Lag',.PREDICTED.,$,IFCDURATION('P7D'),.WORKTIME.);
#142=IFCRELSEQUENCE('DL5XaJg1YdqTRBs$VDoRXv',#6,$,$,#42,#50,#141,.START_START.,$);
#143=IFCLAGTIME('Lag',.PREDICTED.,$,IFCRATIOMEASURE(0.4),.WORKTIME.);
#144=IFCRELSEQUENCE('KxdLP5cv8NDPOdQ$EnpdTb',#6,$,$,#50,#58,#143,.START_START.,$);
#145=IFCLAGTIME('Lag',.PREDICTED.,$,IFCDURATION('-P6D'),.WORKTIME.);
#146=IFCRELSEQUENCE('aTOl5LRn_zOtdFnXfpB1wx',#6,$,$,#64,#70,#145,.FINISH_START.,$);
#147=IFCLAGTIME('Lag',.PREDICTED.,$,IFCDURATION('P2D'),.WORKTIME.);
#148=IFCRELSEQUENCE('a1FDT9T1g5dBWJ$Vaxz94d',#6,$,$,#64,#76,#147,.FINISH_FINISH.,$);
#149=IFCRELSEQUENCE('eTz9gbRVtVzNnvMHk$DdxH',#6,$,$,#76,#82,$,.FINISH_START.,$);
#150=IFCLAGTIME('Lag',.PREDICTED.,$,IFCDURATION('P16D'),.WORKTIME.);
#151=IFCRELSEQUENCE('Dvs7Bv6vUJsTpFlXpPazhp',#6,$,$,#82,#94,#150,.START_START.,$);
#152=IFCRELSEQUENCE('zl7TmvQv8fJvcnv$MntzXv',#6,$,$,#100,#104,$,.FINISH_START.,$);
#153=IFCRELASSIGNSTOCONTROL('rDVhNjbXHjyDCF$VkTSruD',#6,$,$,(#40,#42,#44,#46,#48,#50,#52,#54,#56,#58,#60,#62,#64,#66,#68,#70,#72,#74,#76,#78,#80,#82,#84,#86,#88,#90,#92,#94,#96,#98,#100,#102,#104,#106,#108,#110),$,#37);
#154=IFCPROPERTYSINGLEVALUE('wbsAutoNumber',$,IFCBOOLEAN(.T.),$);
#155=IFCPROPERTYSINGLEVALUE('ProjectStartDate',$,IFCDATE('2027-03-01'),$);
#156=IFCPROPERTYSINGLEVALUE('ProjectEndDate',$,$,$);
#157=IFCPROPERTYSINGLEVALUE('CreatedAt',$,IFCTEXT('2026-07-27T14:03:49.381Z'),$);
#158=IFCPROPERTYSINGLEVALUE('ModifiedAt',$,IFCTEXT('2026-07-27T14:03:49.382Z'),$);
#159=IFCPROPERTYSET('e5a3ArlP$tNZvpDF1ZK5n5',#6,'OPS_ProjectSettings',$,(#154,#155,#156,#157,#158));
#160=IFCRELDEFINESBYPROPERTIES('0Hdzo1sPJhdjQlBF$1BF9l',#6,$,$,(#13),#159);
#161=IFCPROPERTYSINGLEVALUE('MilestoneKind',$,IFCLABEL('START'),$);
#162=IFCPROPERTYSET('Q$VzcfGNqvm1qr2Xb5UhYF',#6,'OPS_Milestone',$,(#161));
#163=IFCRELDEFINESBYPROPERTIES('1j6pZtT1gdnpCnt$Z$Ztm$',#6,$,$,(#46),#162);
#164=IFCPROPERTYSINGLEVALUE('MilestoneKind',$,IFCLABEL('FINISH'),$);
#165=IFCPROPERTYSET('F7wtQNmfCTsTvJVX_f6jcr',#6,'OPS_Milestone',$,(#164));
#166=IFCRELDEFINESBYPROPERTIES('sDXh176vcVUNZ9KnEjI12$',#6,$,$,(#66),#165);
#167=IFCPROPERTYSINGLEVALUE('MilestoneKind',$,IFCLABEL('FINISH'),$);
#168=IFCPROPERTYSET('YTOHnl7tlD0FrdQ16DxlHl',#6,'OPS_Milestone',$,(#167));
#169=IFCRELDEFINESBYPROPERTIES('9tY1wvsPf5V3htGXQ3lBmF',#6,$,$,(#78),#168);
#170=IFCPROPERTYSINGLEVALUE('MilestoneKind',$,IFCLABEL('FINISH'),$);
#171=IFCPROPERTYSINGLEVALUE('Mandatory',$,IFCBOOLEAN(.T.),$);
#172=IFCPROPERTYSET('Dv2VSjkl$NrnFjpHtvS33P',#6,'OPS_Milestone',$,(#170,#171));
#173=IFCRELDEFINESBYPROPERTIES('qr1rj3T$wHG$437$bV39OL',#6,$,$,(#110),#172);
ENDSEC;
END-ISO-10303-21;
