ISO-10303-21;
HEADER;
FILE_DESCRIPTION(('ViewDefinition [SchedulingView]'),'2;1');
FILE_NAME('De Linde Care Centre.ifc','2026-07-28T14:38:23',('Linda de Groot'),('Healthcare Construction Netherlands BV'),'Open Planner Studio 0.1','Open Planner Studio','');
FILE_SCHEMA(('IFC4X3'));
ENDSEC;
DATA;
#1=IFCPERSON($,'Linda de Groot',$,$,$,$,$,$);
#2=IFCORGANIZATION($,'Healthcare Construction Netherlands BV',$,$,$);
#3=IFCPERSONANDORGANIZATION(#1,#2,$);
#4=IFCORGANIZATION($,'OpenAEC Foundation',$,$,$);
#5=IFCAPPLICATION(#4,'0.1','Open Planner Studio','OPS');
#6=IFCOWNERHISTORY(#3,#5,$,.NOCHANGE.,$,$,$,1785249503);
#7=IFCSIUNIT(*,.LENGTHUNIT.,$,.METRE.);
#8=IFCSIUNIT(*,.TIMEUNIT.,$,.SECOND.);
#9=IFCUNITASSIGNMENT((#7,#8));
#10=IFCCARTESIANPOINT((0.,0.,0.));
#11=IFCAXIS2PLACEMENT3D(#10,$,$);
#12=IFCGEOMETRICREPRESENTATIONCONTEXT($,'Plan',3,1.0E-05,#11,$);
#13=IFCPROJECT('TT8V0lfNOdN5FvkFWtc77b',#6,'De Linde Care Centre','New-build care centre with 60 rooms and treatment areas',$,$,$,(#12),#9);
#14=IFCTIMEPERIOD('07:00:00','16:00:00');
#15=IFCRECURRENCEPATTERN(.WEEKLY.,$,(1,2,3,4,5),$,$,$,$,(#14));
#16=IFCWORKTIME('Standard work week',.PREDICTED.,$,#15,$,$);
#17=IFCWORKTIME('New Year''s Day',.PREDICTED.,$,$,'2027-01-01','2027-01-01');
#18=IFCWORKTIME('Good Friday',.PREDICTED.,$,$,'2027-03-26','2027-03-26');
#19=IFCWORKTIME('Easter',.PREDICTED.,$,$,'2027-03-28','2027-03-29');
#20=IFCWORKTIME('King''s Day',.PREDICTED.,$,$,'2027-04-27','2027-04-27');
#21=IFCWORKTIME('Liberation Day',.PREDICTED.,$,$,'2027-05-05','2027-05-05');
#22=IFCWORKTIME('Ascension Day',.PREDICTED.,$,$,'2027-05-06','2027-05-06');
#23=IFCWORKTIME('Whitsun',.PREDICTED.,$,$,'2027-05-16','2027-05-17');
#24=IFCWORKTIME('Christmas',.PREDICTED.,$,$,'2027-12-25','2027-12-26');
#25=IFCWORKTIME('Construction holiday (northern region)',.PREDICTED.,$,$,'2027-07-26','2027-08-15');
#26=IFCWORKTIME('New Year''s Day',.PREDICTED.,$,$,'2028-01-01','2028-01-01');
#27=IFCWORKTIME('Good Friday',.PREDICTED.,$,$,'2028-04-14','2028-04-14');
#28=IFCWORKTIME('Easter',.PREDICTED.,$,$,'2028-04-16','2028-04-17');
#29=IFCWORKTIME('King''s Day',.PREDICTED.,$,$,'2028-04-27','2028-04-27');
#30=IFCWORKTIME('Liberation Day',.PREDICTED.,$,$,'2028-05-05','2028-05-05');
#31=IFCWORKTIME('Ascension Day',.PREDICTED.,$,$,'2028-05-25','2028-05-25');
#32=IFCWORKTIME('Whitsun',.PREDICTED.,$,$,'2028-06-04','2028-06-05');
#33=IFCWORKTIME('Christmas',.PREDICTED.,$,$,'2028-12-25','2028-12-26');
#34=IFCWORKTIME('Construction holiday (northern region)',.PREDICTED.,$,$,'2028-07-24','2028-08-13');
#35=IFCWORKCALENDAR('_HlbW$VPl1Yxnv_nBDbFBd',#6,'Construction calendar NL','Standard construction calendar: Mon-Fri 07:00-16:00',$,(#16),(#17,#18,#19,#20,#21,#22,#23,#24,#25,#26,#27,#28,#29,#30,#31,#32,#33,#34),.FIRSTSHIFT.);
#36=IFCWORKPLAN('xrcfOzrHnl8v6$Dn5LeHT9',#6,'De Linde Care Centre','New-build care centre with 60 rooms and treatment areas',$,$,'2026-07-28T14:38:23',$,$,$,$,$,'2027-03-01T07:00:00','2027-03-19T07:00:00',.PLANNED.);
#37=IFCWORKSCHEDULE('U3ibeb6XZVYfRBM$Nj7bTt',#6,'Construction schedule v1.0',$,$,$,'2026-07-28T14:38:23',$,$,$,$,$,'2027-03-01T07:00:00','2027-03-19T07:00:00',.PLANNED.);
#38=IFCRELAGGREGATES('X$Ph9TPtbVDd8te$ftI1sz',#6,$,$,#36,(#37));
#39=IFCTASKTIME('1. Preparation Time',.PREDICTED.,$,.WORKTIME.,'P0Y0M5D','2027-03-01T07:00:00','2027-03-05T07:00:00','2027-03-01T07:00:00','2027-03-16T07:00:00','2027-03-01T07:00:00','2028-01-18T07:00:00','P0Y0M0D','P0Y0M0D',.T.,$,$,$,$,$,0.0);
#40=IFCTASK('hZRlBTmNCdqZ9r6$8zt3nV',#6,'1. Preparation',$,$,'1',$,$,$,.F.,$,#39,.CONSTRUCTION.);
#41=IFCTASKTIME('Set up site Time',.PREDICTED.,$,.WORKTIME.,'P0Y0M5D','2027-03-01T07:00:00','2027-03-05T07:00:00','2027-03-01T07:00:00','2027-03-05T07:00:00','2027-03-01T07:00:00','2027-03-05T07:00:00','P0Y0M0D','P0Y0M0D',.T.,$,$,$,$,$,0.0);
#42=IFCTASK('kbjvhNO7CTkLwJN1ULdJQl',#6,'Set up site',$,$,'1.1',$,$,$,.F.,$,#41,.LOGISTIC.);
#43=IFCTASKTIME('Additional soil investigation Time',.PREDICTED.,$,.WORKTIME.,'P0Y0M3D','2027-03-01T07:00:00','2027-03-03T07:00:00','2027-03-08T07:00:00','2027-03-10T07:00:00','2028-01-10T07:00:00','2028-01-12T07:00:00','P0Y0M0D','P0Y0M199D',.F.,$,$,$,$,$,0.0);
#44=IFCTASK('J5dLPRs1arzfnvEngBKJA7',#6,'Additional soil investigation',$,$,'1.2',$,$,$,.F.,$,#43,.CONSTRUCTION.);
#45=IFCTASKTIME('Fell and transplant trees Time',.PREDICTED.,$,.WORKTIME.,'P0Y0M3D','2027-03-01T07:00:00','2027-03-03T07:00:00','2027-03-11T07:00:00','2027-03-15T07:00:00','2028-01-13T07:00:00','2028-01-17T07:00:00','P0Y0M0D','P0Y0M199D',.F.,$,$,$,$,$,0.0);
#46=IFCTASK('b1NR8DVdthTtxnZnElXDa5',#6,'Fell and transplant trees',$,$,'1.3',$,$,$,.F.,$,#45,.DEMOLITION.);
#47=IFCTASKTIME('Start of construction Time',.PREDICTED.,$,.WORKTIME.,'P0Y0M0D','2027-03-01T07:00:00','2027-03-01T07:00:00','2027-03-16T07:00:00','2027-03-16T07:00:00','2028-01-18T07:00:00','2028-01-18T07:00:00','P0Y0M199D','P0Y0M199D',.F.,$,$,$,$,$,0.0);
#48=IFCTASK('7hobajIHDRTPuFrllvWP79',#6,'Start of construction',$,$,'1.4',$,$,$,.T.,$,#47,.CONSTRUCTION.);
#49=IFCTASKTIME('2. Foundations Time',.PREDICTED.,$,.WORKTIME.,'P0Y0M5D','2027-03-01T07:00:00','2027-03-05T07:00:00','2027-03-09T07:00:00','2027-04-30T07:00:00','2027-03-09T07:00:00','2028-01-18T07:00:00','P0Y0M0D','P0Y0M0D',.T.,$,$,$,$,$,0.0);
#50=IFCTASK('lxV3o331mjY5Rrg$HdqpyB',#6,'2. Foundations',$,$,'2',$,$,$,.F.,$,#49,.CONSTRUCTION.);
#51=IFCTASKTIME('Pile driving, foundation piles Time',.PREDICTED.,$,.WORKTIME.,'P0Y0M12D','2027-03-01T07:00:00','2027-03-16T07:00:00','2027-03-09T07:00:00','2027-03-24T07:00:00','2027-03-09T07:00:00','2027-03-24T07:00:00','P0Y0M0D','P0Y0M0D',.T.,$,$,$,$,$,0.0);
#52=IFCTASK('m72XyzCFGp_tVbKHeR_lNz',#6,'Pile driving, foundation piles',$,$,'2.1',$,$,$,.F.,$,#51,.CONSTRUCTION.);
#53=IFCTASKTIME('Foundation beams Time',.PREDICTED.,$,.WORKTIME.,'P0Y0M8D','2027-03-01T07:00:00','2027-03-10T07:00:00','2027-03-25T07:00:00','2027-04-07T07:00:00','2027-12-16T07:00:00','2027-12-27T07:00:00','P0Y0M0D','P0Y0M169D',.F.,$,$,$,$,$,0.0);
#54=IFCTASK('kNelxB9f6HO9L9815H5Vip',#6,'Foundation beams',$,$,'2.2',$,$,$,.F.,$,#53,.CONSTRUCTION.);
#55=IFCTASKTIME('Sewerage and underground pipework Time',.PREDICTED.,$,.WORKTIME.,'P0Y0M8D','2027-03-01T07:00:00','2027-03-10T07:00:00','2027-04-08T07:00:00','2027-04-19T07:00:00','2027-12-28T07:00:00','2028-01-06T07:00:00','P0Y0M0D','P0Y0M169D',.F.,$,$,$,$,$,0.0);
#56=IFCTASK('zJ6DZflPV7RVw$5H4PuFVT',#6,'Sewerage and underground pipework',$,$,'2.3',$,$,$,.F.,$,#55,.INSTALLATION.);
#57=IFCTASKTIME('Pour ground floor slab Time',.PREDICTED.,$,.WORKTIME.,'P0Y0M8D','2027-03-01T07:00:00','2027-03-10T07:00:00','2027-04-20T07:00:00','2027-04-30T07:00:00','2028-01-07T07:00:00','2028-01-18T07:00:00','P0Y0M169D','P0Y0M169D',.F.,$,$,$,$,$,0.0);
#58=IFCTASK('ovkHXN8vE5$ZzvEFsVjvZt',#6,'Pour ground floor slab',$,$,'2.4',$,$,$,.F.,$,#57,.CONSTRUCTION.);
#59=IFCTASKTIME('3. Structural works Time',.PREDICTED.,$,.WORKTIME.,'P0Y0M5D','2027-03-01T07:00:00','2027-03-05T07:00:00','2027-03-16T07:00:00','2027-06-24T07:00:00','2027-03-16T07:00:00','2028-01-18T07:00:00','P0Y0M0D','P0Y0M0D',.T.,$,$,$,$,$,0.0);
#60=IFCTASK('$nR$M1$P$rTtv1RHI3WPbX',#6,'3. Structural works',$,$,'3',$,$,$,.F.,$,#59,.CONSTRUCTION.);
#61=IFCTASKTIME('Ground floor load-bearing structure Time',.PREDICTED.,$,.WORKTIME.,'P0Y0M12D','2027-03-01T07:00:00','2027-03-16T07:00:00','2027-03-16T07:00:00','2027-04-02T07:00:00','2027-03-16T07:00:00','2027-04-02T07:00:00','P0Y0M0D','P0Y0M0D',.T.,$,$,$,$,$,0.0);
#62=IFCTASK('nPYh9T9fYdCZvj719TpdFb',#6,'Ground floor load-bearing structure',$,$,'3.1',$,$,$,.F.,$,#61,.CONSTRUCTION.);
#63=IFCTASKTIME('Floor 1 concrete Time',.PREDICTED.,$,.WORKTIME.,'P0Y0M10D','2027-03-01T07:00:00','2027-03-12T07:00:00','2027-04-05T07:00:00','2027-04-16T07:00:00','2027-04-05T07:00:00','2027-04-16T07:00:00','P0Y0M0D','P0Y0M0D',.T.,$,$,$,$,$,0.0);
#64=IFCTASK('dbuXiNFdr30nnjZl4LfZjZ',#6,'Floor 1 concrete',$,$,'3.2',$,$,$,.F.,$,#63,.CONSTRUCTION.);
#65=IFCTASKTIME('Floor 2 concrete Time',.PREDICTED.,$,.WORKTIME.,'P0Y0M10D','2027-03-01T07:00:00','2027-03-12T07:00:00','2027-04-19T07:00:00','2027-05-03T07:00:00','2027-04-19T07:00:00','2027-05-03T07:00:00','P0Y0M0D','P0Y0M0D',.T.,$,$,$,$,$,0.0);
#66=IFCTASK('ttMP5hz1it_RrdYVtZR1cn',#6,'Floor 2 concrete',$,$,'3.3',$,$,$,.F.,$,#65,.CONSTRUCTION.);
#67=IFCTASKTIME('Facade masonry Time',.PREDICTED.,$,.WORKTIME.,'P0Y0M15D','2027-03-01T07:00:00','2027-03-19T07:00:00','2027-05-04T07:00:00','2027-05-27T07:00:00','2027-05-04T07:00:00','2027-05-27T07:00:00','P0Y0M0D','P0Y0M0D',.T.,$,$,$,$,$,0.0);
#68=IFCTASK('8pPz2vfNEHrn3xKH0dyZTx',#6,'Facade masonry',$,$,'3.4',$,$,$,.F.,$,#67,.CONSTRUCTION.);
#69=IFCTASKTIME('Internal walls, sand-lime brick Time',.PREDICTED.,$,.WORKTIME.,'P0Y0M10D','2027-03-01T07:00:00','2027-03-12T07:00:00','2027-05-28T07:00:00','2027-06-10T07:00:00','2027-05-28T07:00:00','2027-06-10T07:00:00','P0Y0M0D','P0Y0M0D',.T.,$,$,$,$,$,0.0);
#70=IFCTASK('spHROR2n0BVbPHBnFtQ7rZ',#6,'Internal walls, sand-lime brick',$,$,'3.5',$,$,$,.F.,$,#69,.CONSTRUCTION.);
#71=IFCTASKTIME('Roof structure Time',.PREDICTED.,$,.WORKTIME.,'P0Y0M10D','2027-03-01T07:00:00','2027-03-12T07:00:00','2027-06-11T07:00:00','2027-06-24T07:00:00','2027-06-11T07:00:00','2027-06-24T07:00:00','P0Y0M0D','P0Y0M0D',.T.,$,$,$,$,$,0.0);
#72=IFCTASK('aVTfWVbVrZiR7$rlZTyTf$',#6,'Roof structure',$,$,'3.6',$,$,$,.F.,$,#71,.CONSTRUCTION.);
#73=IFCTASKTIME('Topping out Time',.PREDICTED.,$,.WORKTIME.,'P0Y0M0D','2027-03-01T07:00:00','2027-03-01T07:00:00','2027-06-24T07:00:00','2027-06-24T07:00:00','2028-01-18T07:00:00','2028-01-18T07:00:00','P0Y0M133D','P0Y0M133D',.F.,$,$,$,$,$,0.0);
#74=IFCTASK('uh_B3B8dv9oBu9mXQPuFnb',#6,'Topping out',$,$,'3.7',$,$,$,.T.,$,#73,.CONSTRUCTION.);
#75=IFCTASKTIME('4. Facade & roof Time',.PREDICTED.,$,.WORKTIME.,'P0Y0M5D','2027-03-01T07:00:00','2027-03-05T07:00:00','2027-06-08T07:00:00','2027-08-16T07:00:00','2027-06-08T07:00:00','2028-01-18T07:00:00','P0Y0M0D','P0Y0M0D',.T.,$,$,$,$,$,0.0);
#76=IFCTASK('4pA7fHe7e75$u90XhvKxR1',#6,'4. Facade & roof',$,$,'4',$,$,$,.F.,$,#75,.CONSTRUCTION.);
#77=IFCTASKTIME('Facade insulation and finish Time',.PREDICTED.,$,.WORKTIME.,'P0Y0M12D','2027-03-01T07:00:00','2027-03-16T07:00:00','2027-06-08T07:00:00','2027-06-23T07:00:00','2027-06-08T07:00:00','2027-06-23T07:00:00','P0Y0M0D','P0Y0M0D',.T.,$,$,$,$,$,0.0);
#78=IFCTASK('fzXzc9Sl5Rpt5lHVBjnTpJ',#6,'Facade insulation and finish',$,$,'4.1',$,$,$,.F.,$,#77,.INSTALLATION.);
#79=IFCTASKTIME('Window frames and screens Time',.PREDICTED.,$,.WORKTIME.,'P0Y0M10D','2027-03-01T07:00:00','2027-03-12T07:00:00','2027-06-24T07:00:00','2027-07-07T07:00:00','2027-06-24T07:00:00','2027-07-07T07:00:00','P0Y0M0D','P0Y0M0D',.T.,$,$,$,$,$,0.0);
#80=IFCTASK('kNeHH$fN6HWHhzd1xhmtOB',#6,'Window frames and screens',$,$,'4.2',$,$,$,.F.,$,#79,.INSTALLATION.);
#81=IFCTASKTIME('Roof insulation and covering Time',.PREDICTED.,$,.WORKTIME.,'P0Y0M8D','2027-03-01T07:00:00','2027-03-10T07:00:00','2027-07-08T07:00:00','2027-07-19T07:00:00','2027-07-08T07:00:00','2027-07-19T07:00:00','P0Y0M0D','P0Y0M0D',.T.,$,$,$,$,$,0.0);
#82=IFCTASK('ujxVuhiFkBHBS7MHUdijUJ',#6,'Roof insulation and covering',$,$,'4.3',$,$,$,.F.,$,#81,.CONSTRUCTION.);
#83=IFCTASKTIME('Roof edges and rainwater drainage Time',.PREDICTED.,$,.WORKTIME.,'P0Y0M5D','2027-03-01T07:00:00','2027-03-05T07:00:00','2027-07-20T07:00:00','2027-08-16T07:00:00','2027-07-20T07:00:00','2027-08-16T07:00:00','P0Y0M0D','P0Y0M0D',.T.,$,$,$,$,$,0.0);
#84=IFCTASK('qtgdFHlddp_935SHNtwdlL',#6,'Roof edges and rainwater drainage',$,$,'4.4',$,$,$,.F.,$,#83,.CONSTRUCTION.);
#85=IFCTASKTIME('Wind and weathertight Time',.PREDICTED.,$,.WORKTIME.,'P0Y0M0D','2027-03-01T07:00:00','2027-03-01T07:00:00','2027-08-16T07:00:00','2027-08-16T07:00:00','2028-01-18T07:00:00','2028-01-18T07:00:00','P0Y0M111D','P0Y0M111D',.F.,$,$,$,$,$,0.0);
#86=IFCTASK('FrP3U56vcDWlvpZn692l9j',#6,'Wind and weathertight',$,$,'4.5',$,$,$,.T.,$,#85,.CONSTRUCTION.);
#87=IFCTASKTIME('5. Building services Time',.PREDICTED.,$,.WORKTIME.,'P0Y0M5D','2027-03-01T07:00:00','2027-03-05T07:00:00','2027-08-17T07:00:00','2027-11-24T07:00:00','2027-08-17T07:00:00','2028-01-18T07:00:00','P0Y0M0D','P0Y0M0D',.T.,$,$,$,$,$,0.0);
#88=IFCTASK('D7U1gRL1U7u7sRe11z0vT9',#6,'5. Building services',$,$,'5',$,$,$,.F.,$,#87,.INSTALLATION.);
#89=IFCTASKTIME('Main electrical distribution Time',.PREDICTED.,$,.WORKTIME.,'P0Y0M8D','2027-03-01T07:00:00','2027-03-10T07:00:00','2027-08-17T07:00:00','2027-08-26T07:00:00','2027-08-17T07:00:00','2027-08-26T07:00:00','P0Y0M0D','P0Y0M0D',.T.,$,$,$,$,$,0.0);
#90=IFCTASK('MvC5InKF2TSJ6$TF29_HV7',#6,'Main electrical distribution',$,$,'5.1',$,$,$,.F.,$,#89,.INSTALLATION.);
#91=IFCTASKTIME('Emergency power supply Time',.PREDICTED.,$,.WORKTIME.,'P0Y0M5D','2027-03-01T07:00:00','2027-03-05T07:00:00','2027-08-27T07:00:00','2027-09-02T07:00:00','2027-10-21T07:00:00','2027-10-27T07:00:00','P0Y0M0D','P0Y0M39D',.F.,$,$,$,$,$,0.0);
#92=IFCTASK('8rU1Arld3Zg3D3LnpvGf6b',#6,'Emergency power supply',$,$,'5.2',$,$,$,.F.,$,#91,.INSTALLATION.);
#93=IFCTASKTIME('Oxygen and medical gases Time',.PREDICTED.,$,.WORKTIME.,'P0Y0M8D','2027-03-01T07:00:00','2027-03-10T07:00:00','2027-09-03T07:00:00','2027-09-14T07:00:00','2027-10-28T07:00:00','2027-11-08T07:00:00','P0Y0M0D','P0Y0M39D',.F.,$,$,$,$,$,0.0);
#94=IFCTASK('hvyZGt41yRhlDnd$Obk$Ih',#6,'Oxygen and medical gases',$,$,'5.3',$,$,$,.F.,$,#93,.INSTALLATION.);
#95=IFCTASKTIME('Heating and cooling Time',.PREDICTED.,$,.WORKTIME.,'P0Y0M10D','2027-03-01T07:00:00','2027-03-12T07:00:00','2027-09-08T07:00:00','2027-09-21T07:00:00','2027-11-02T07:00:00','2027-11-15T07:00:00','P0Y0M0D','P0Y0M39D',.F.,$,$,$,$,$,0.0);
#96=IFCTASK('W1t5cNmNybhHRhEFQZxVSf',#6,'Heating and cooling',$,$,'5.4',$,$,$,.F.,$,#95,.INSTALLATION.);
#97=IFCTASKTIME('Ventilation with HEPA filters Time',.PREDICTED.,$,.WORKTIME.,'P0Y0M10D','2027-03-01T07:00:00','2027-03-12T07:00:00','2027-09-22T07:00:00','2027-10-05T07:00:00','2027-11-16T07:00:00','2027-11-29T07:00:00','P0Y0M0D','P0Y0M39D',.F.,$,$,$,$,$,0.0);
#98=IFCTASK('CtA7dNldBfMF5lf$_9stax',#6,'Ventilation with HEPA filters',$,$,'5.5',$,$,$,.F.,$,#97,.INSTALLATION.);
#99=IFCTASKTIME('Sprinkler and fire alarm Time',.PREDICTED.,$,.WORKTIME.,'P0Y0M8D','2027-03-01T07:00:00','2027-03-10T07:00:00','2027-10-06T07:00:00','2027-10-15T07:00:00','2027-11-30T07:00:00','2027-12-09T07:00:00','P0Y0M0D','P0Y0M39D',.F.,$,$,$,$,$,0.0);
#100=IFCTASK('c$dhPxwv63AlFdA$lrxXi1',#6,'Sprinkler and fire alarm',$,$,'5.6',$,$,$,.F.,$,#99,.INSTALLATION.);
#101=IFCTASKTIME('Lift installation Time',.PREDICTED.,$,.WORKTIME.,'P0Y0M15D','2027-03-01T07:00:00','2027-03-19T07:00:00','2027-10-18T07:00:00','2027-11-05T07:00:00','2027-12-10T07:00:00','2027-12-30T07:00:00','P0Y0M0D','P0Y0M39D',.F.,$,$,$,$,$,0.0);
#102=IFCTASK('$DcNmPM12tU5HtmXolXDSN',#6,'Lift installation',$,$,'5.7',$,$,$,.F.,$,#101,.INSTALLATION.);
#103=IFCTASKTIME('Nurse call system Time',.PREDICTED.,$,.WORKTIME.,'P0Y0M5D','2027-03-01T07:00:00','2027-03-05T07:00:00','2027-11-08T07:00:00','2027-11-12T07:00:00','2027-12-31T07:00:00','2028-01-06T07:00:00','P0Y0M0D','P0Y0M39D',.F.,$,$,$,$,$,0.0);
#104=IFCTASK('QRmdBZWtDbLl1$$V2bnZFx',#6,'Nurse call system',$,$,'5.8',$,$,$,.F.,$,#103,.INSTALLATION.);
#105=IFCTASKTIME('ICT cabling Time',.PREDICTED.,$,.WORKTIME.,'P0Y0M8D','2027-03-01T07:00:00','2027-03-10T07:00:00','2027-11-15T07:00:00','2027-11-24T07:00:00','2028-01-07T07:00:00','2028-01-18T07:00:00','P0Y0M39D','P0Y0M39D',.F.,$,$,$,$,$,0.0);
#106=IFCTASK('gPeljVYFonnDWJnV3DIx3L',#6,'ICT cabling',$,$,'5.9',$,$,$,.F.,$,#105,.INSTALLATION.);
#107=IFCTASKTIME('6. Fit-out Time',.PREDICTED.,$,.WORKTIME.,'P0Y0M5D','2027-03-01T07:00:00','2027-03-05T07:00:00','2027-10-11T07:00:00','2027-12-23T07:00:00','2027-10-11T07:00:00','2027-12-23T07:00:00','P0Y0M0D','P0Y0M0D',.T.,$,$,$,$,$,0.0);
#108=IFCTASK('O5ahZfnd$rLHBDf$Ff6jEf',#6,'6. Fit-out',$,$,'6',$,$,$,.F.,$,#107,.CONSTRUCTION.);
#109=IFCTASKTIME('Partition walls Time',.PREDICTED.,$,.WORKTIME.,'P0Y0M8D','2027-03-01T07:00:00','2027-03-10T07:00:00','2027-10-11T07:00:00','2027-10-20T07:00:00','2027-10-11T07:00:00','2027-10-20T07:00:00','P0Y0M0D','P0Y0M0D',.T.,$,$,$,$,$,0.0);
#110=IFCTASK('DLhH5h31G3mXQZ$X25J719',#6,'Partition walls',$,$,'6.1',$,$,$,.F.,$,#109,.CONSTRUCTION.);
#111=IFCTASKTIME('Finish ceilings and walls Time',.PREDICTED.,$,.WORKTIME.,'P0Y0M10D','2027-03-01T07:00:00','2027-03-12T07:00:00','2027-10-21T07:00:00','2027-11-03T07:00:00','2027-10-21T07:00:00','2027-11-03T07:00:00','P0Y0M0D','P0Y0M0D',.T.,$,$,$,$,$,0.0);
#112=IFCTASK('4lrnVp_N_3G14ZRl_NMZh9',#6,'Finish ceilings and walls',$,$,'6.2',$,$,$,.F.,$,#111,.CONSTRUCTION.);
#113=IFCTASKTIME('Tiling, wet rooms Time',.PREDICTED.,$,.WORKTIME.,'P0Y0M8D','2027-03-01T07:00:00','2027-03-10T07:00:00','2027-11-04T07:00:00','2027-11-15T07:00:00','2027-11-04T07:00:00','2027-11-15T07:00:00','P0Y0M0D','P0Y0M0D',.T.,$,$,$,$,$,0.0);
#114=IFCTASK('qrPzsFJXhPCThZBl7bcvtj',#6,'Tiling, wet rooms',$,$,'6.3',$,$,$,.F.,$,#113,.CONSTRUCTION.);
#115=IFCTASKTIME('Screeds and floor finishes Time',.PREDICTED.,$,.WORKTIME.,'P0Y0M8D','2027-03-01T07:00:00','2027-03-10T07:00:00','2027-11-16T07:00:00','2027-11-25T07:00:00','2027-11-16T07:00:00','2027-11-25T07:00:00','P0Y0M0D','P0Y0M0D',.T.,$,$,$,$,$,0.0);
#116=IFCTASK('wr69QpQ74HZdSDv1I3mf21',#6,'Screeds and floor finishes',$,$,'6.4',$,$,$,.F.,$,#115,.CONSTRUCTION.);
#117=IFCTASKTIME('Painting Time',.PREDICTED.,$,.WORKTIME.,'P0Y0M10D','2027-03-01T07:00:00','2027-03-12T07:00:00','2027-11-26T07:00:00','2027-12-09T07:00:00','2027-11-26T07:00:00','2027-12-09T07:00:00','P0Y0M0D','P0Y0M0D',.T.,$,$,$,$,$,0.0);
#118=IFCTASK('ORuFppXdpRbVkl7$hPmfw$',#6,'Painting',$,$,'6.5',$,$,$,.F.,$,#117,.CONSTRUCTION.);
#119=IFCTASKTIME('Kitchens and pantry Time',.PREDICTED.,$,.WORKTIME.,'P0Y0M5D','2027-03-01T07:00:00','2027-03-05T07:00:00','2027-12-10T07:00:00','2027-12-16T07:00:00','2027-12-10T07:00:00','2027-12-16T07:00:00','P0Y0M0D','P0Y0M0D',.T.,$,$,$,$,$,0.0);
#120=IFCTASK('LdWfebEHXRx18faHtv4hYD',#6,'Kitchens and pantry',$,$,'6.6',$,$,$,.F.,$,#119,.INSTALLATION.);
#121=IFCTASKTIME('Install sanitary fittings Time',.PREDICTED.,$,.WORKTIME.,'P0Y0M5D','2027-03-01T07:00:00','2027-03-05T07:00:00','2027-12-17T07:00:00','2027-12-23T07:00:00','2027-12-17T07:00:00','2027-12-23T07:00:00','P0Y0M0D','P0Y0M0D',.T.,$,$,$,$,$,0.0);
#122=IFCTASK('_FLl$vk9zT_RrvsluByhsZ',#6,'Install sanitary fittings',$,$,'6.7',$,$,$,.F.,$,#121,.INSTALLATION.);
#123=IFCTASKTIME('7. Handover Time',.PREDICTED.,$,.WORKTIME.,'P0Y0M5D','2027-03-01T07:00:00','2027-03-05T07:00:00','2027-12-24T07:00:00','2028-01-18T07:00:00','2027-12-24T07:00:00','2028-01-18T07:00:00','P0Y0M0D','P0Y0M0D',.T.,$,$,$,$,$,0.0);
#124=IFCTASK('dVBVqPh$Ebz7UZpn1ZKJ_T',#6,'7. Handover',$,$,'7',$,$,$,.F.,$,#123,.CONSTRUCTION.);
#125=IFCTASKTIME('Construct external areas Time',.PREDICTED.,$,.WORKTIME.,'P0Y0M8D','2027-03-01T07:00:00','2027-03-10T07:00:00','2027-12-24T07:00:00','2028-01-04T07:00:00','2027-12-24T07:00:00','2028-01-04T07:00:00','P0Y0M0D','P0Y0M0D',.T.,$,$,$,$,$,0.0);
#126=IFCTASK('X$fb0nRFERx1Svwlh3t3$N',#6,'Construct external areas',$,$,'7.1',$,$,$,.F.,$,#125,.CONSTRUCTION.);
#127=IFCTASKTIME('Room furnishing Time',.PREDICTED.,$,.WORKTIME.,'P0Y0M5D','2027-03-01T07:00:00','2027-03-05T07:00:00','2028-01-05T07:00:00','2028-01-11T07:00:00','2028-01-05T07:00:00','2028-01-11T07:00:00','P0Y0M0D','P0Y0M0D',.T.,$,$,$,$,$,0.0);
#128=IFCTASK('m9ahP5YNuVgF$L2nBDr$_3',#6,'Room furnishing',$,$,'7.2',$,$,$,.F.,$,#127,.LOGISTIC.);
#129=IFCTASKTIME('Test building services Time',.PREDICTED.,$,.WORKTIME.,'P0Y0M5D','2027-03-01T07:00:00','2027-03-05T07:00:00','2028-01-12T07:00:00','2028-01-18T07:00:00','2028-01-12T07:00:00','2028-01-18T07:00:00','P0Y0M0D','P0Y0M0D',.T.,$,$,$,$,$,0.0);
#130=IFCTASK('qt69wPkH5nXzbXjHPL8$21',#6,'Test building services',$,$,'7.3',$,$,$,.F.,$,#129,.ATTENDANCE.);
#131=IFCTASKTIME('Handover Time',.PREDICTED.,$,.WORKTIME.,'P0Y0M0D','2027-03-01T07:00:00','2027-03-01T07:00:00','2028-01-18T07:00:00','2028-01-18T07:00:00','2028-01-18T07:00:00','2028-01-18T07:00:00','P0Y0M0D','P0Y0M0D',.T.,$,$,$,$,$,0.0);
#132=IFCTASK('_DY1YfvtPv0FZB61mHNLER',#6,'Handover',$,$,'7.4',$,$,$,.T.,$,#131,.CONSTRUCTION.);
#133=IFCRELNESTS('SXrXy$Yf8NLlJVFX93VRpF',#6,'WBS 1. Preparation',$,#40,( #42,#44,#46,#48));
#134=IFCRELNESTS('Ozdh9T17s9HrePQ$EDQpWd',#6,'WBS 2. Foundations',$,#50,( #52,#54,#56,#58));
#135=IFCRELNESTS('wLg3kludBzWHhzFVPLWPvt',#6,'WBS 3. Structural works',$,#60,( #62,#64,#66,#68,#70,#72,#74));
#136=IFCRELNESTS('B9kl7BO74FnpSjDH1ZKjw1',#6,'WBS 4. Facade & roof',$,#76,( #78,#80,#82,#84,#86));
#137=IFCRELNESTS('Kx7rDJJna$t3xFTnEldxX3',#6,'WBS 5. Building services',$,#88,( #90,#92,#94,#96,#98,#100,#102,#104,#106));
#138=IFCRELNESTS('HNWfy1UfqvWl3P614hXRLj',#6,'WBS 6. Fit-out',$,#108,( #110,#112,#114,#116,#118,#120,#122));
#139=IFCRELNESTS('WV5FnrtNArxXYz1Vuh0vNz',#6,'WBS 7. Handover',$,#124,( #126,#128,#130,#132));
#140=IFCRELNESTS('tjjP5r1vgdnD4TBHzDgTrv',#6,'WBS Hoofd',$,#37,(#40,#50,#60,#76,#88,#108,#124));
#141=IFCRELSEQUENCE('zpU$2dB$KfQX6XP$NN6j6x',#6,$,$,#42,#44,$,.FINISH_START.,$);
#142=IFCRELSEQUENCE('HbJvhfGNqTcDWpTnUhlBC3',#6,$,$,#44,#46,$,.FINISH_START.,$);
#143=IFCRELSEQUENCE('S$dLLJkHnF4LUZjF3p2BWv',#6,$,$,#46,#48,$,.FINISH_START.,$);
#144=IFCRELSEQUENCE('cbWfSDgdT$ATJ1bHs$H3tD',#6,$,$,#52,#54,$,.FINISH_START.,$);
#145=IFCRELSEQUENCE('GvY$slVvqvmXo1P$Cn9zXv',#6,$,$,#54,#56,$,.FINISH_START.,$);
#146=IFCRELSEQUENCE('rpPz6Tu7g5vLIH7$r9s94B',#6,$,$,#56,#58,$,.FINISH_START.,$);
#147=IFCRELSEQUENCE('e395o$w7sfT9rPg1B9EVaf',#6,$,$,#62,#64,$,.FINISH_START.,$);
#148=IFCRELSEQUENCE('5F9DHVbVxxPrO7sla5Rn9n',#6,$,$,#64,#66,$,.FINISH_START.,$);
#149=IFCRELSEQUENCE('5lxVif1vQJSjQFHXt7azDl',#6,$,$,#66,#68,$,.FINISH_START.,$);
#150=IFCRELSEQUENCE('5lz9w3CnynN5bBoXmXPj_1',#6,$,$,#68,#70,$,.FINISH_START.,$);
#151=IFCRELSEQUENCE('WVRHrzKXfFnDi50XdrKJsz',#6,$,$,#70,#72,$,.FINISH_START.,$);
#152=IFCRELSEQUENCE('Z$t5_dxXbVDdSpVXCZyZJ3',#6,$,$,#72,#74,$,.FINISH_START.,$);
#153=IFCRELSEQUENCE('cRmvppv9jttzvXFX7RQ7Lj',#6,$,$,#78,#80,$,.FINISH_START.,$);
#154=IFCRELSEQUENCE('X17r1Zevu$YxnPw$G1zfAd',#6,$,$,#80,#82,$,.FINISH_START.,$);
#155=IFCRELSEQUENCE('a34ZiBNNyR51OVRFyBLlNZ',#6,$,$,#82,#84,$,.FINISH_START.,$);
#156=IFCRELSEQUENCE('1pQNyXg1EnXzht0VbXr$Yj',#6,$,$,#84,#86,$,.FINISH_START.,$);
#157=IFCRELSEQUENCE('ivqx2vNfgdHJIFJFr9oVGH',#6,$,$,#90,#92,$,.FINISH_START.,$);
#158=IFCRELSEQUENCE('hvKbanaHjt7pKxO1CnPJcr',#6,$,$,#92,#94,$,.FINISH_START.,$);
#159=IFCLAGTIME('Lag',.PREDICTED.,$,IFCDURATION('P3D'),.WORKTIME.);
#160=IFCRELSEQUENCE('qfERm7Qvq7u7sxqFORA90N',#6,$,$,#94,#96,#159,.START_START.,$);
#161=IFCRELSEQUENCE('4nlR0nBHv30n3x4nR1FZj3',#6,$,$,#96,#98,$,.FINISH_START.,$);
#162=IFCRELSEQUENCE('Crd3wPIlp5V3Hz$VW9UFzB',#6,$,$,#98,#100,$,.FINISH_START.,$);
#163=IFCRELSEQUENCE('vHpvjTldz3Yfltu1QP8n5H',#6,$,$,#100,#102,$,.FINISH_START.,$);
#164=IFCRELSEQUENCE('7hg3_hqXL7WH1X3H25ztGV',#6,$,$,#102,#104,$,.FINISH_START.,$);
#165=IFCRELSEQUENCE('0llbWVDnYvWlL3VVsxwJcH',#6,$,$,#104,#106,$,.FINISH_START.,$);
#166=IFCRELSEQUENCE('pr7TOTNfijKR7XFV5nHBa5',#6,$,$,#110,#112,$,.FINISH_START.,$);
#167=IFCRELSEQUENCE('ZTWfGvYfOlmVsx4lPrixtH',#6,$,$,#112,#114,$,.FINISH_START.,$);
#168=IFCRELSEQUENCE('1FDv9$k95Hz7kFZFwf2rWd',#6,$,$,#114,#116,$,.FINISH_START.,$);
#169=IFCRELSEQUENCE('sf2BDJ3lPDgnzRWV3lPxR$',#6,$,$,#116,#118,$,.FINISH_START.,$);
#170=IFCRELSEQUENCE('0HNjvPxX19vDKXP$bxYLYn',#6,$,$,#118,#120,$,.FINISH_START.,$);
#171=IFCRELSEQUENCE('zpQNO3jXr9g3$h6HLzFh23',#6,$,$,#120,#122,$,.FINISH_START.,$);
#172=IFCRELSEQUENCE('STuVSpwvEnljI5e$TV7DiD',#6,$,$,#126,#128,$,.FINISH_START.,$);
#173=IFCRELSEQUENCE('e5Sh5r$7AfDP0ZXXmnpPnx',#6,$,$,#128,#130,$,.FINISH_START.,$);
#174=IFCRELSEQUENCE('J9ij7vP9X7rnR1$VsVr1Av',#6,$,$,#130,#132,$,.FINISH_START.,$);
#175=IFCLAGTIME('Lag',.PREDICTED.,$,IFCDURATION('P6D'),.WORKTIME.);
#176=IFCRELSEQUENCE('YZ0tEXUnAtNTXH$VGnpdFx',#6,$,$,#42,#52,#175,.START_START.,$);
#177=IFCLAGTIME('Lag',.PREDICTED.,$,IFCRATIOMEASURE(0.4),.WORKTIME.);
#178=IFCRELSEQUENCE('j9ShHVJnyb37ghIFWtk1sT',#6,$,$,#52,#62,#177,.START_START.,$);
#179=IFCLAGTIME('Lag',.PREDICTED.,$,IFCDURATION('-P13D'),.WORKTIME.);
#180=IFCRELSEQUENCE('uhkxUf79XbBFJJP1v$vR$t',#6,$,$,#72,#78,#179,.FINISH_START.,$);
#181=IFCLAGTIME('Lag',.PREDICTED.,$,IFCDURATION('P2D'),.WORKTIME.);
#182=IFCRELSEQUENCE('uhcj$ZW9PJwJc3hnHrhl5B',#6,$,$,#72,#84,#181,.FINISH_FINISH.,$);
#183=IFCRELSEQUENCE('ADNjhfePxHx$89O$PFdjkL',#6,$,$,#84,#90,$,.FINISH_START.,$);
#184=IFCLAGTIME('Lag',.PREDICTED.,$,IFCDURATION('P39D'),.WORKTIME.);
#185=IFCRELSEQUENCE('$l1BvvVP9hLHtroVWfAzvR',#6,$,$,#90,#110,#184,.START_START.,$);
#186=IFCRELSEQUENCE('Af6Dfplv8$ILsxanHh$xdd',#6,$,$,#122,#126,$,.FINISH_START.,$);
#187=IFCRELASSIGNSTOCONTROL('rDVhNjbXHjyDCF$VkTSruD',#6,$,$,(#40,#42,#44,#46,#48,#50,#52,#54,#56,#58,#60,#62,#64,#66,#68,#70,#72,#74,#76,#78,#80,#82,#84,#86,#88,#90,#92,#94,#96,#98,#100,#102,#104,#106,#108,#110,#112,#114,#116,#118,#120,#122,#124,#126,#128,#130,#132),$,#37);
#188=IFCPROPERTYSINGLEVALUE('wbsAutoNumber',$,IFCBOOLEAN(.T.),$);
#189=IFCPROPERTYSINGLEVALUE('ProjectStartDate',$,IFCDATE('2027-03-01'),$);
#190=IFCPROPERTYSINGLEVALUE('ProjectEndDate',$,$,$);
#191=IFCPROPERTYSINGLEVALUE('CreatedAt',$,IFCTEXT('2026-07-28T14:38:23.767Z'),$);
#192=IFCPROPERTYSINGLEVALUE('ModifiedAt',$,IFCTEXT('2026-07-28T14:38:23.767Z'),$);
#193=IFCPROPERTYSET('e5a3ArlP$tNZvpDF1ZK5n5',#6,'OPS_ProjectSettings',$,(#188,#189,#190,#191,#192));
#194=IFCRELDEFINESBYPROPERTIES('0Hdzo1sPJhdjQlBF$1BF9l',#6,$,$,(#13),#193);
#195=IFCPROPERTYSINGLEVALUE('MilestoneKind',$,IFCLABEL('START'),$);
#196=IFCPROPERTYSET('DrvTap2fAL1xZtiHqFVbNZ',#6,'OPS_Milestone',$,(#195));
#197=IFCRELDEFINESBYPROPERTIES('c$nDvrevSXpd494ldh07V7',#6,$,$,(#48),#196);
#198=IFCPROPERTYSINGLEVALUE('MilestoneKind',$,IFCLABEL('FINISH'),$);
#199=IFCPROPERTYSET('ChrF$zaHzHmXUz$VyvS3zv',#6,'OPS_Milestone',$,(#198));
#200=IFCRELDEFINESBYPROPERTIES('b1fRW$ffY7edmRmXElvRPh',#6,$,$,(#74),#199);
#201=IFCPROPERTYSINGLEVALUE('MilestoneKind',$,IFCLABEL('FINISH'),$);
#202=IFCPROPERTYSET('Z1X3gRZHvfkdmRu$t3dj_$',#6,'OPS_Milestone',$,(#201));
#203=IFCRELDEFINESBYPROPERTIES('yjIxETVva193xF5HGnZNgt',#6,$,$,(#86),#202);
#204=IFCPROPERTYSINGLEVALUE('MilestoneKind',$,IFCLABEL('FINISH'),$);
#205=IFCPROPERTYSINGLEVALUE('Mandatory',$,IFCBOOLEAN(.T.),$);
#206=IFCPROPERTYSET('ItSzQt4HbVZtJDblARA94P',#6,'OPS_Milestone',$,(#204,#205));
#207=IFCRELDEFINESBYPROPERTIES('hTDPtzT1sfR1iV7$Ld07VP',#6,$,$,(#132),#206);
ENDSEC;
END-ISO-10303-21;
