ISO-10303-21;
HEADER;
FILE_DESCRIPTION(('ViewDefinition [SchedulingView]'),'2;1');
FILE_NAME('Sewer Replacement, Delft City Centre.ifc','2026-08-14T08:02:53',('Bas Hendriks'),('Delft Infra BV'),'Open Planner Studio 0.1','Open Planner Studio','');
FILE_SCHEMA(('IFC4X3'));
ENDSEC;
DATA;
#1=IFCPERSON($,'Bas Hendriks',$,$,$,$,$,$);
#2=IFCORGANIZATION($,'Delft Infra BV',$,$,$);
#3=IFCPERSONANDORGANIZATION(#1,#2,$);
#4=IFCORGANIZATION($,'OpenAEC Foundation',$,$,$);
#5=IFCAPPLICATION(#4,'0.1','Open Planner Studio','OPS');
#6=IFCOWNERHISTORY(#3,#5,$,.NOCHANGE.,$,$,$,1786694573);
#7=IFCSIUNIT(*,.LENGTHUNIT.,$,.METRE.);
#8=IFCSIUNIT(*,.TIMEUNIT.,$,.SECOND.);
#9=IFCUNITASSIGNMENT((#7,#8));
#10=IFCCARTESIANPOINT((0.,0.,0.));
#11=IFCAXIS2PLACEMENT3D(#10,$,$);
#12=IFCGEOMETRICREPRESENTATIONCONTEXT($,'Plan',3,1.0E-05,#11,$);
#13=IFCPROJECT('ebWfmdIlPD610zxnQ3XbV7',#6,'Sewer Replacement, Delft City Centre','Replacement of the city-centre main sewer including street reinstatement',$,$,$,(#12),#9);
#14=IFCTIMEPERIOD('07:00:00','16:00:00');
#15=IFCRECURRENCEPATTERN(.WEEKLY.,$,(1,2,3,4,5,6),$,$,$,$,(#14));
#16=IFCWORKTIME('Standard work week',.PREDICTED.,$,#15,$,$);
#17=IFCWORKTIME('New Year''s Day',.PREDICTED.,$,$,'2027-01-01','2027-01-01');
#18=IFCWORKTIME('Good Friday',.PREDICTED.,$,$,'2027-03-26','2027-03-26');
#19=IFCWORKTIME('Easter',.PREDICTED.,$,$,'2027-03-28','2027-03-29');
#20=IFCWORKTIME('King''s Day',.PREDICTED.,$,$,'2027-04-27','2027-04-27');
#21=IFCWORKTIME('Liberation Day',.PREDICTED.,$,$,'2027-05-05','2027-05-05');
#22=IFCWORKTIME('Ascension Day',.PREDICTED.,$,$,'2027-05-06','2027-05-06');
#23=IFCWORKTIME('Whitsun',.PREDICTED.,$,$,'2027-05-16','2027-05-17');
#24=IFCWORKTIME('Christmas',.PREDICTED.,$,$,'2027-12-25','2027-12-26');
#25=IFCWORKTIME('Construction holiday (northern region)',.PREDICTED.,$,$,'2027-07-26','2027-08-15');
#26=IFCWORKTIME('New Year''s Day',.PREDICTED.,$,$,'2028-01-01','2028-01-01');
#27=IFCWORKTIME('Good Friday',.PREDICTED.,$,$,'2028-04-14','2028-04-14');
#28=IFCWORKTIME('Easter',.PREDICTED.,$,$,'2028-04-16','2028-04-17');
#29=IFCWORKTIME('King''s Day',.PREDICTED.,$,$,'2028-04-27','2028-04-27');
#30=IFCWORKTIME('Liberation Day',.PREDICTED.,$,$,'2028-05-05','2028-05-05');
#31=IFCWORKTIME('Ascension Day',.PREDICTED.,$,$,'2028-05-25','2028-05-25');
#32=IFCWORKTIME('Whitsun',.PREDICTED.,$,$,'2028-06-04','2028-06-05');
#33=IFCWORKTIME('Christmas',.PREDICTED.,$,$,'2028-12-25','2028-12-26');
#34=IFCWORKTIME('Construction holiday (northern region)',.PREDICTED.,$,$,'2028-07-24','2028-08-13');
#35=IFCWORKCALENDAR('_HlbW$VPl1Yxnv_nBDbFBd',#6,'Infrastructure calendar Mon-Sat','Infrastructure/hydraulic works: Mon-Sat',$,(#16),(#17,#18,#19,#20,#21,#22,#23,#24,#25,#26,#27,#28,#29,#30,#31,#32,#33,#34),.FIRSTSHIFT.);
#36=IFCWORKPLAN('W$NRebcV7Tq511FVNjdxN$',#6,'Sewer Replacement, Delft City Centre','Replacement of the city-centre main sewer including street reinstatement',$,$,'2026-08-14T08:02:53',$,$,$,$,$,'2027-03-01T07:00:00','2027-03-10T07:00:00',.PLANNED.);
#37=IFCWORKSCHEDULE('3FTNGPUFE5tRbXLnt7CpK1',#6,'Construction schedule v1.0',$,$,$,'2026-08-14T08:02:53',$,$,$,$,$,'2027-03-01T07:00:00','2027-03-10T07:00:00',.PLANNED.);
#38=IFCRELAGGREGATES('X$Ph9TPtbVDd8te$ftI1sz',#6,$,$,#36,(#37));
#39=IFCTASKTIME('1. Preparation Time',.PREDICTED.,$,.WORKTIME.,'P0Y0M5D','2027-03-01T07:00:00','2027-03-05T07:00:00','2027-03-01T07:00:00','2027-03-11T07:00:00','2027-03-01T07:00:00','2027-05-10T07:00:00','P0Y0M0D','P0Y0M0D',.T.,$,$,$,$,$,0.0);
#40=IFCTASK('wBEnrPYnY7WHh3f1olfhYj',#6,'1. Preparation',$,$,'1',$,$,$,.F.,$,#39,.LOGISTIC.);
#41=IFCTASKTIME('Resident letter and communication Time',.PREDICTED.,$,.WORKTIME.,'P0Y0M3D','2027-03-01T07:00:00','2027-03-03T07:00:00','2027-03-01T07:00:00','2027-03-03T07:00:00','2027-03-01T07:00:00','2027-03-03T07:00:00','P0Y0M0D','P0Y0M0D',.T.,$,$,$,$,$,0.0);
#42=IFCTASK('fzV3srX7e7rnJj$XeJd5r7',#6,'Resident letter and communication',$,$,'1.1',$,$,$,.F.,$,#41,.ATTENDANCE.);
#43=IFCTASKTIME('Traffic management Time',.PREDICTED.,$,.WORKTIME.,'P0Y0M3D','2027-03-01T07:00:00','2027-03-03T07:00:00','2027-03-04T07:00:00','2027-03-06T07:00:00','2027-04-30T07:00:00','2027-05-03T07:00:00','P0Y0M0D','P0Y0M46D',.F.,$,$,$,$,$,0.0);
#44=IFCTASK('O3XzcpIt5lhlVH9$CHrnhf',#6,'Traffic management',$,$,'1.2',$,$,$,.F.,$,#43,.LOGISTIC.);
#45=IFCTASKTIME('Locate cables and pipes Time',.PREDICTED.,$,.WORKTIME.,'P0Y0M3D','2027-03-01T07:00:00','2027-03-03T07:00:00','2027-03-08T07:00:00','2027-03-10T07:00:00','2027-05-04T07:00:00','2027-05-08T07:00:00','P0Y0M0D','P0Y0M46D',.F.,$,$,$,$,$,0.0);
#46=IFCTASK('zD_V8hyH9rNTrJZlm1rFLt',#6,'Locate cables and pipes',$,$,'1.3',$,$,$,.F.,$,#45,.LOGISTIC.);
#47=IFCTASKTIME('Start of works Time',.PREDICTED.,$,.WORKTIME.,'P0Y0M0D','2027-03-01T07:00:00','2027-03-01T07:00:00','2027-03-11T07:00:00','2027-03-11T07:00:00','2027-05-10T07:00:00','2027-05-10T07:00:00','P0Y0M46D','P0Y0M46D',.F.,$,$,$,$,$,0.0);
#48=IFCTASK('SziRGdM$gPX3JJN1ojUnht',#6,'Start of works',$,$,'1.4',$,$,$,.T.,$,#47,.LOGISTIC.);
#49=IFCTASKTIME('2. Phase 1 - north side Time',.PREDICTED.,$,.WORKTIME.,'P0Y0M5D','2027-03-01T07:00:00','2027-03-05T07:00:00','2027-03-06T07:00:00','2027-04-13T07:00:00','2027-03-06T07:00:00','2027-04-13T07:00:00','P0Y0M0D','P0Y0M0D',.T.,$,$,$,$,$,0.0);
#50=IFCTASK('VVRH$7EtfF1TNbWXTV7DCz',#6,'2. Phase 1 - north side',$,$,'2',$,$,$,.F.,$,#49,.CONSTRUCTION.);
#51=IFCTASKTIME('Break up paving, phase 1 Time',.PREDICTED.,$,.WORKTIME.,'P0Y0M5D','2027-03-01T07:00:00','2027-03-05T07:00:00','2027-03-06T07:00:00','2027-03-11T07:00:00','2027-03-06T07:00:00','2027-03-11T07:00:00','P0Y0M0D','P0Y0M0D',.T.,$,$,$,$,$,0.0);
#52=IFCTASK('Q5ah37l7mze9PnXVeJtBaR',#6,'Break up paving, phase 1',$,$,'2.1',$,$,$,.F.,$,#51,.DEMOLITION.);
#53=IFCTASKTIME('Excavate trench, phase 1 Time',.PREDICTED.,$,.WORKTIME.,'P0Y0M8D','2027-03-01T07:00:00','2027-03-10T07:00:00','2027-03-12T07:00:00','2027-03-20T07:00:00','2027-03-12T07:00:00','2027-03-20T07:00:00','P0Y0M0D','P0Y0M0D',.T.,$,$,$,$,$,0.0);
#54=IFCTASK('8p9D5rldXd7L61hH$ZareT',#6,'Excavate trench, phase 1',$,$,'2.2',$,$,$,.F.,$,#53,.CONSTRUCTION.);
#55=IFCTASKTIME('Lay sewer pipes, phase 1 Time',.PREDICTED.,$,.WORKTIME.,'P0Y0M8D','2027-03-01T07:00:00','2027-03-10T07:00:00','2027-03-22T07:00:00','2027-04-01T07:00:00','2027-03-22T07:00:00','2027-04-01T07:00:00','P0Y0M0D','P0Y0M0D',.T.,$,$,$,$,$,0.0);
#56=IFCTASK('tp7ZirffCZkL6XHVFRfLk7',#6,'Lay sewer pipes, phase 1',$,$,'2.3',$,$,$,.F.,$,#55,.INSTALLATION.);
#57=IFCTASKTIME('House connections, phase 1 Time',.PREDICTED.,$,.WORKTIME.,'P0Y0M5D','2027-03-01T07:00:00','2027-03-05T07:00:00','2027-04-02T07:00:00','2027-04-07T07:00:00','2027-04-02T07:00:00','2027-04-07T07:00:00','P0Y0M0D','P0Y0M0D',.T.,$,$,$,$,$,0.0);
#58=IFCTASK('0nTNaJM1gxlJkbylPrarmF',#6,'House connections, phase 1',$,$,'2.4',$,$,$,.F.,$,#57,.INSTALLATION.);
#59=IFCTASKTIME('Backfill and compact, phase 1 Time',.PREDICTED.,$,.WORKTIME.,'P0Y0M5D','2027-03-01T07:00:00','2027-03-05T07:00:00','2027-04-08T07:00:00','2027-04-13T07:00:00','2027-04-08T07:00:00','2027-04-13T07:00:00','P0Y0M0D','P0Y0M0D',.T.,$,$,$,$,$,0.0);
#60=IFCTASK('sp1r1T09tVxXoXbFuTDdlh',#6,'Backfill and compact, phase 1',$,$,'2.5',$,$,$,.F.,$,#59,.CONSTRUCTION.);
#61=IFCTASKTIME('3. Phase 2 - south side Time',.PREDICTED.,$,.WORKTIME.,'P0Y0M5D','2027-03-01T07:00:00','2027-03-05T07:00:00','2027-03-09T07:00:00','2027-04-15T07:00:00','2027-03-09T07:00:00','2027-04-15T07:00:00','P0Y0M0D','P0Y0M0D',.T.,$,$,$,$,$,0.0);
#62=IFCTASK('ZXxFvvXdDbjN7J9$CTS3BZ',#6,'3. Phase 2 - south side',$,$,'3',$,$,$,.F.,$,#61,.CONSTRUCTION.);
#63=IFCTASKTIME('Break up paving, phase 2 Time',.PREDICTED.,$,.WORKTIME.,'P0Y0M5D','2027-03-01T07:00:00','2027-03-05T07:00:00','2027-03-09T07:00:00','2027-03-13T07:00:00','2027-03-09T07:00:00','2027-03-13T07:00:00','P0Y0M0D','P0Y0M0D',.T.,$,$,$,$,$,0.0);
#64=IFCTASK('7nP3IFSlvf_th9WXJt6PBd',#6,'Break up paving, phase 2',$,$,'3.1',$,$,$,.F.,$,#63,.DEMOLITION.);
#65=IFCTASKTIME('Excavate trench, phase 2 Time',.PREDICTED.,$,.WORKTIME.,'P0Y0M8D','2027-03-01T07:00:00','2027-03-10T07:00:00','2027-03-15T07:00:00','2027-03-23T07:00:00','2027-03-15T07:00:00','2027-03-23T07:00:00','P0Y0M0D','P0Y0M0D',.T.,$,$,$,$,$,0.0);
#66=IFCTASK('eTh1g1tfaLdJkFZFA1fL6b',#6,'Excavate trench, phase 2',$,$,'3.2',$,$,$,.F.,$,#65,.CONSTRUCTION.);
#67=IFCTASKTIME('Lay sewer pipes, phase 2 Time',.PREDICTED.,$,.WORKTIME.,'P0Y0M8D','2027-03-01T07:00:00','2027-03-10T07:00:00','2027-03-24T07:00:00','2027-04-03T07:00:00','2027-03-24T07:00:00','2027-04-03T07:00:00','P0Y0M0D','P0Y0M0D',.T.,$,$,$,$,$,0.0);
#68=IFCTASK('3joRCRDFYdSJk50Vb$NLYJ',#6,'Lay sewer pipes, phase 2',$,$,'3.3',$,$,$,.F.,$,#67,.INSTALLATION.);
#69=IFCTASKTIME('House connections, phase 2 Time',.PREDICTED.,$,.WORKTIME.,'P0Y0M5D','2027-03-01T07:00:00','2027-03-05T07:00:00','2027-04-05T07:00:00','2027-04-09T07:00:00','2027-04-05T07:00:00','2027-04-09T07:00:00','P0Y0M0D','P0Y0M0D',.T.,$,$,$,$,$,0.0);
#70=IFCTASK('fz7BVDotbhJvQHBnXHnZrd',#6,'House connections, phase 2',$,$,'3.4',$,$,$,.F.,$,#69,.INSTALLATION.);
#71=IFCTASKTIME('Backfill and compact, phase 2 Time',.PREDICTED.,$,.WORKTIME.,'P0Y0M5D','2027-03-01T07:00:00','2027-03-05T07:00:00','2027-04-10T07:00:00','2027-04-15T07:00:00','2027-04-10T07:00:00','2027-04-15T07:00:00','P0Y0M0D','P0Y0M0D',.T.,$,$,$,$,$,0.0);
#72=IFCTASK('Fhb$kjRXt$PJMrg$XlPxzB',#6,'Backfill and compact, phase 2',$,$,'3.5',$,$,$,.F.,$,#71,.CONSTRUCTION.);
#73=IFCTASKTIME('4. Reinstatement Time',.PREDICTED.,$,.WORKTIME.,'P0Y0M5D','2027-03-01T07:00:00','2027-03-05T07:00:00','2027-04-09T07:00:00','2027-05-01T07:00:00','2027-04-09T07:00:00','2027-05-01T07:00:00','P0Y0M0D','P0Y0M0D',.T.,$,$,$,$,$,0.0);
#74=IFCTASK('6r2VmtKFgdV3Nd2VJfEbTt',#6,'4. Reinstatement',$,$,'4',$,$,$,.F.,$,#73,.CONSTRUCTION.);
#75=IFCTASKTIME('Paving sub-base Time',.PREDICTED.,$,.WORKTIME.,'P0Y0M5D','2027-03-01T07:00:00','2027-03-05T07:00:00','2027-04-09T07:00:00','2027-04-14T07:00:00','2027-04-09T07:00:00','2027-04-14T07:00:00','P0Y0M0D','P0Y0M0D',.T.,$,$,$,$,$,0.0);
#76=IFCTASK('8jpvzhqVdD_tnDHXp7OVez',#6,'Paving sub-base',$,$,'4.1',$,$,$,.F.,$,#75,.CONSTRUCTION.);
#77=IFCTASKTIME('Relay paving Time',.PREDICTED.,$,.WORKTIME.,'P0Y0M8D','2027-03-01T07:00:00','2027-03-10T07:00:00','2027-04-15T07:00:00','2027-04-23T07:00:00','2027-04-15T07:00:00','2027-04-23T07:00:00','P0Y0M0D','P0Y0M0D',.T.,$,$,$,$,$,0.0);
#78=IFCTASK('rf2BFBvtpvD9JpLlRx6jwb',#6,'Relay paving',$,$,'4.2',$,$,$,.F.,$,#77,.CONSTRUCTION.);
#79=IFCTASKTIME('Install street furniture Time',.PREDICTED.,$,.WORKTIME.,'P0Y0M3D','2027-03-01T07:00:00','2027-03-03T07:00:00','2027-04-24T07:00:00','2027-04-28T07:00:00','2027-04-24T07:00:00','2027-04-28T07:00:00','P0Y0M0D','P0Y0M0D',.T.,$,$,$,$,$,0.0);
#80=IFCTASK('Ife$oXIldpw14fmXQz7D4d',#6,'Install street furniture',$,$,'4.3',$,$,$,.F.,$,#79,.INSTALLATION.);
#81=IFCTASKTIME('Landscaping Time',.PREDICTED.,$,.WORKTIME.,'P0Y0M3D','2027-03-01T07:00:00','2027-03-03T07:00:00','2027-04-29T07:00:00','2027-05-01T07:00:00','2027-04-29T07:00:00','2027-05-01T07:00:00','P0Y0M0D','P0Y0M0D',.T.,$,$,$,$,$,0.0);
#82=IFCTASK('zFLHlXjFKjyhELAHCnPjYJ',#6,'Landscaping',$,$,'4.4',$,$,$,.F.,$,#81,.CONSTRUCTION.);
#83=IFCTASKTIME('5. Handover Time',.PREDICTED.,$,.WORKTIME.,'P0Y0M5D','2027-03-01T07:00:00','2027-03-05T07:00:00','2027-05-03T07:00:00','2027-05-10T07:00:00','2027-05-03T07:00:00','2027-05-10T07:00:00','P0Y0M0D','P0Y0M0D',.T.,$,$,$,$,$,0.0);
#84=IFCTASK('FvA7L9yH1fj7wpzFWtUndd',#6,'5. Handover',$,$,'5',$,$,$,.F.,$,#83,.CONSTRUCTION.);
#85=IFCTASKTIME('CCTV sewer inspection Time',.PREDICTED.,$,.WORKTIME.,'P0Y0M3D','2027-03-01T07:00:00','2027-03-03T07:00:00','2027-05-03T07:00:00','2027-05-07T07:00:00','2027-05-03T07:00:00','2027-05-07T07:00:00','P0Y0M0D','P0Y0M0D',.T.,$,$,$,$,$,0.0);
#86=IFCTASK('FPMz6PYFQX29bVhFjt2HfZ',#6,'CCTV sewer inspection',$,$,'5.1',$,$,$,.F.,$,#85,.ATTENDANCE.);
#87=IFCTASKTIME('Remove traffic management Time',.PREDICTED.,$,.WORKTIME.,'P0Y0M2D','2027-03-01T07:00:00','2027-03-02T07:00:00','2027-05-08T07:00:00','2027-05-10T07:00:00','2027-05-08T07:00:00','2027-05-10T07:00:00','P0Y0M0D','P0Y0M0D',.T.,$,$,$,$,$,0.0);
#88=IFCTASK('bXpP9zZ$IVT9BPkXsVZf_1',#6,'Remove traffic management',$,$,'5.2',$,$,$,.F.,$,#87,.LOGISTIC.);
#89=IFCTASKTIME('Handover Time',.PREDICTED.,$,.WORKTIME.,'P0Y0M0D','2027-03-01T07:00:00','2027-03-01T07:00:00','2027-05-10T07:00:00','2027-05-10T07:00:00','2027-05-10T07:00:00','2027-05-10T07:00:00','P0Y0M0D','P0Y0M0D',.T.,$,$,$,$,$,0.0);
#90=IFCTASK('KbRl$v2fAhVblZpnPlpdVT',#6,'Handover',$,$,'5.3',$,$,$,.T.,$,#89,.CONSTRUCTION.);
#91=IFCRELNESTS('D7wtwTuv6z_tX5GVyLlBOz',#6,'WBS 1. Preparation',$,#40,( #42,#44,#46,#48));
#92=IFCRELNESTS('QR0tg$v9n3sHNR81292lLJ',#6,'WBS 2. Phase 1 - north side',$,#50,( #52,#54,#56,#58,#60));
#93=IFCRELNESTS('STuVeZHP9r1xHtO$8h8Fvt',#6,'WBS 3. Phase 2 - south side',$,#62,( #64,#66,#68,#70,#72));
#94=IFCRELNESTS('pvA7VDE9T$g3zbGVij_HVP',#6,'WBS 4. Reinstatement',$,#74,( #76,#78,#80,#82));
#95=IFCRELNESTS('gzfbWXDn6z291h_FxBCRDl',#6,'WBS 5. Handover',$,#84,( #86,#88,#90));
#96=IFCRELNESTS('tjjP5r1vgdnD4TBHzDgTrv',#6,'WBS Hoofd',$,#37,(#40,#50,#62,#74,#84));
#97=IFCRELSEQUENCE('I5fbKrnd9XLH5bKnwJFTb$',#6,$,$,#42,#44,$,.FINISH_START.,$);
#98=IFCRELSEQUENCE('6hULLDMdrTizPlDHZXdj2$',#6,$,$,#44,#46,$,.FINISH_START.,$);
#99=IFCRELSEQUENCE('i7yTCRh1cjKR9Ne1dlrF3B',#6,$,$,#46,#48,$,.FINISH_START.,$);
#100=IFCRELSEQUENCE('YZ09YRYFcpeP89WVn5bnlB',#6,$,$,#52,#54,$,.FINISH_START.,$);
#101=IFCRELSEQUENCE('RV5FVDI9dJUxltO$5h0vLJ',#6,$,$,#54,#56,$,.FINISH_START.,$);
#102=IFCRELSEQUENCE('6nlbKtz$qzUNL3VVsbgf6b',#6,$,$,#56,#58,$,.FINISH_START.,$);
#103=IFCRELSEQUENCE('cRWfOZNf8tlrute1vVxlDn',#6,$,$,#58,#60,$,.FINISH_START.,$);
#104=IFCRELSEQUENCE('VVL1UNndRrHBK1xly7Sr8x',#6,$,$,#64,#66,$,.FINISH_START.,$);
#105=IFCRELSEQUENCE('Ch5V4Xs1K9Y57pDntvSBip',#6,$,$,#66,#68,$,.FINISH_START.,$);
#106=IFCRELSEQUENCE('3nb1IlGfOd7L_vQlRVZNgD',#6,$,$,#68,#70,$,.FINISH_START.,$);
#107=IFCRELSEQUENCE('5lZfeTlP$NxVwjf$ML0vtD',#6,$,$,#70,#72,$,.FINISH_START.,$);
#108=IFCRELSEQUENCE('xhAT8JxX19PJUNSnZ13N_1',#6,$,$,#76,#78,$,.FINISH_START.,$);
#109=IFCRELSEQUENCE('xFfJlbRVr30np3xnQvaBy7',#6,$,$,#78,#80,$,.FINISH_START.,$);
#110=IFCRELSEQUENCE('rjpvNFqnSLXbrvUFrtgNwx',#6,$,$,#80,#82,$,.FINISH_START.,$);
#111=IFCRELSEQUENCE('OzvBvv9NSXjvwVXX2fMTv9',#6,$,$,#86,#88,$,.FINISH_START.,$);
#112=IFCRELSEQUENCE('ZTe$MXDFYpMnDTt1BDRnhN',#6,$,$,#88,#90,$,.FINISH_START.,$);
#113=IFCLAGTIME('Lag',.PREDICTED.,$,IFCDURATION('P5D'),.WORKTIME.);
#114=IFCRELSEQUENCE('OxyBvvl7CTcDmR81Ej6dPv',#6,$,$,#42,#52,#113,.START_START.,$);
#115=IFCLAGTIME('Lag',.PREDICTED.,$,IFCRATIOMEASURE(0.4),.WORKTIME.);
#116=IFCRELSEQUENCE('rjR1oVA1eF4pKbql6p5HXv',#6,$,$,#52,#64,#115,.START_START.,$);
#117=IFCLAGTIME('Lag',.PREDICTED.,$,IFCDURATION('P2D'),.WORKTIME.);
#118=IFCRELSEQUENCE('tt2Xqx$PNn7L6$rl$1b$M9',#6,$,$,#60,#72,#117,.FINISH_FINISH.,$);
#119=IFCLAGTIME('Lag',.PREDICTED.,$,IFCDURATION('-P6D'),.WORKTIME.);
#120=IFCRELSEQUENCE('2HtptzbFoFlJQlJHB9k1g9',#6,$,$,#72,#76,#119,.FINISH_START.,$);
#121=IFCRELSEQUENCE('ivKJ1ZuPxbzvYt8$vRYF3r',#6,$,$,#82,#86,$,.FINISH_START.,$);
#122=IFCRELASSIGNSTOCONTROL('rDVhNjbXHjyDCF$VkTSruD',#6,$,$,(#40,#42,#44,#46,#48,#50,#52,#54,#56,#58,#60,#62,#64,#66,#68,#70,#72,#74,#76,#78,#80,#82,#84,#86,#88,#90),$,#37);
#123=IFCPROPERTYSINGLEVALUE('wbsAutoNumber',$,IFCBOOLEAN(.T.),$);
#124=IFCPROPERTYSINGLEVALUE('ProjectStartDate',$,IFCDATE('2027-03-01'),$);
#125=IFCPROPERTYSINGLEVALUE('ProjectEndDate',$,$,$);
#126=IFCPROPERTYSINGLEVALUE('CreatedAt',$,IFCTEXT('2026-08-14T08:02:53.527Z'),$);
#127=IFCPROPERTYSINGLEVALUE('ModifiedAt',$,IFCTEXT('2026-08-14T08:02:53.528Z'),$);
#128=IFCPROPERTYSET('e5a3ArlP$tNZvpDF1ZK5n5',#6,'OPS_ProjectSettings',$,(#123,#124,#125,#126,#127));
#129=IFCRELDEFINESBYPROPERTIES('0Hdzo1sPJhdjQlBF$1BF9l',#6,$,$,(#13),#128);
#130=IFCPROPERTYSINGLEVALUE('MilestoneKind',$,IFCLABEL('START'),$);
#131=IFCPROPERTYSET('mPERaH87sBR$8H7$ldyhAP',#6,'OPS_Milestone',$,(#130));
#132=IFCRELDEFINESBYPROPERTIES('9D1BT5c7mpUNfRmVk$zNo9',#6,$,$,(#48),#131);
#133=IFCPROPERTYSINGLEVALUE('MilestoneKind',$,IFCLABEL('FINISH'),$);
#134=IFCPROPERTYSINGLEVALUE('Mandatory',$,IFCBOOLEAN(.T.),$);
#135=IFCPROPERTYSET('0FhHBzS1YjU5bLwlvXj719',#6,'OPS_Milestone',$,(#133,#134));
#136=IFCRELDEFINESBYPROPERTIES('PbuXebg$Q1sTf5qlYBTt47',#6,$,$,(#90),#135);
ENDSEC;
END-ISO-10303-21;
