ISO-10303-21;
HEADER;
FILE_DESCRIPTION(('ViewDefinition [SchedulingView]'),'2;1');
FILE_NAME('New-Build Villa, Wassenaar.ifc','2026-07-28T14:38:23',('Thomas van Leeuwen'),('Exclusive Living BV'),'Open Planner Studio 0.1','Open Planner Studio','');
FILE_SCHEMA(('IFC4X3'));
ENDSEC;
DATA;
#1=IFCPERSON($,'Thomas van Leeuwen',$,$,$,$,$,$);
#2=IFCORGANIZATION($,'Exclusive Living BV',$,$,$);
#3=IFCPERSONANDORGANIZATION(#1,#2,$);
#4=IFCORGANIZATION($,'OpenAEC Foundation',$,$,$);
#5=IFCAPPLICATION(#4,'0.1','Open Planner Studio','OPS');
#6=IFCOWNERHISTORY(#3,#5,$,.NOCHANGE.,$,$,$,1785249503);
#7=IFCSIUNIT(*,.LENGTHUNIT.,$,.METRE.);
#8=IFCSIUNIT(*,.TIMEUNIT.,$,.SECOND.);
#9=IFCUNITASSIGNMENT((#7,#8));
#10=IFCCARTESIANPOINT((0.,0.,0.));
#11=IFCAXIS2PLACEMENT3D(#10,$,$);
#12=IFCGEOMETRICREPRESENTATIONCONTEXT($,'Plan',3,1.0E-05,#11,$);
#13=IFCPROJECT('c$lj$ZePXvhld3xncvSzHF',#6,'New-Build Villa, Wassenaar','Detached luxury villa with swimming pool and guest house',$,$,$,(#12),#9);
#14=IFCTIMEPERIOD('07:00:00','16:00:00');
#15=IFCRECURRENCEPATTERN(.WEEKLY.,$,(1,2,3,4,5),$,$,$,$,(#14));
#16=IFCWORKTIME('Standard work week',.PREDICTED.,$,#15,$,$);
#17=IFCWORKTIME('New Year''s Day',.PREDICTED.,$,$,'2027-01-01','2027-01-01');
#18=IFCWORKTIME('Good Friday',.PREDICTED.,$,$,'2027-03-26','2027-03-26');
#19=IFCWORKTIME('Easter',.PREDICTED.,$,$,'2027-03-28','2027-03-29');
#20=IFCWORKTIME('King''s Day',.PREDICTED.,$,$,'2027-04-27','2027-04-27');
#21=IFCWORKTIME('Liberation Day',.PREDICTED.,$,$,'2027-05-05','2027-05-05');
#22=IFCWORKTIME('Ascension Day',.PREDICTED.,$,$,'2027-05-06','2027-05-06');
#23=IFCWORKTIME('Whitsun',.PREDICTED.,$,$,'2027-05-16','2027-05-17');
#24=IFCWORKTIME('Christmas',.PREDICTED.,$,$,'2027-12-25','2027-12-26');
#25=IFCWORKTIME('Construction holiday (northern region)',.PREDICTED.,$,$,'2027-07-26','2027-08-15');
#26=IFCWORKTIME('New Year''s Day',.PREDICTED.,$,$,'2028-01-01','2028-01-01');
#27=IFCWORKTIME('Good Friday',.PREDICTED.,$,$,'2028-04-14','2028-04-14');
#28=IFCWORKTIME('Easter',.PREDICTED.,$,$,'2028-04-16','2028-04-17');
#29=IFCWORKTIME('King''s Day',.PREDICTED.,$,$,'2028-04-27','2028-04-27');
#30=IFCWORKTIME('Liberation Day',.PREDICTED.,$,$,'2028-05-05','2028-05-05');
#31=IFCWORKTIME('Ascension Day',.PREDICTED.,$,$,'2028-05-25','2028-05-25');
#32=IFCWORKTIME('Whitsun',.PREDICTED.,$,$,'2028-06-04','2028-06-05');
#33=IFCWORKTIME('Christmas',.PREDICTED.,$,$,'2028-12-25','2028-12-26');
#34=IFCWORKTIME('Construction holiday (northern region)',.PREDICTED.,$,$,'2028-07-24','2028-08-13');
#35=IFCWORKCALENDAR('_HlbW$VPl1Yxnv_nBDbFBd',#6,'Construction calendar NL','Standard construction calendar: Mon-Fri 07:00-16:00',$,(#16),(#17,#18,#19,#20,#21,#22,#23,#24,#25,#26,#27,#28,#29,#30,#31,#32,#33,#34),.FIRSTSHIFT.);
#36=IFCWORKPLAN('k9ij134H$9lr4N0V5nfZ1j',#6,'New-Build Villa, Wassenaar','Detached luxury villa with swimming pool and guest house',$,$,'2026-07-28T14:38:23',$,$,$,$,$,'2027-03-01T07:00:00','2027-03-16T07:00:00',.PLANNED.);
#37=IFCWORKSCHEDULE('BNEb4VoHTXE7cn$V_9EX8b',#6,'Construction schedule v1.0',$,$,$,'2026-07-28T14:38:23',$,$,$,$,$,'2027-03-01T07:00:00','2027-03-16T07:00:00',.PLANNED.);
#38=IFCRELAGGREGATES('X$Ph9TPtbVDd8te$ftI1sz',#6,$,$,#36,(#37));
#39=IFCTASKTIME('1. Preparation Time',.PREDICTED.,$,.WORKTIME.,'P0Y0M5D','2027-03-01T07:00:00','2027-03-05T07:00:00','2027-03-01T07:00:00','2027-03-08T07:00:00','2027-03-01T07:00:00','2027-12-01T07:00:00','P0Y0M0D','P0Y0M0D',.T.,$,$,$,$,$,0.0);
#40=IFCTASK('rNwD7rOddj2bX5mX_bfLcF',#6,'1. Preparation',$,$,'1',$,$,$,.F.,$,#39,.CONSTRUCTION.);
#41=IFCTASKTIME('Set up site Time',.PREDICTED.,$,.WORKTIME.,'P0Y0M3D','2027-03-01T07:00:00','2027-03-03T07:00:00','2027-03-01T07:00:00','2027-03-03T07:00:00','2027-03-01T07:00:00','2027-03-03T07:00:00','P0Y0M0D','P0Y0M0D',.T.,$,$,$,$,$,0.0);
#42=IFCTASK('h3np5hBl9BPJc3rFBt6d5n',#6,'Set up site',$,$,'1.1',$,$,$,.F.,$,#41,.LOGISTIC.);
#43=IFCTASKTIME('Protect trees Time',.PREDICTED.,$,.WORKTIME.,'P0Y0M2D','2027-03-01T07:00:00','2027-03-02T07:00:00','2027-03-04T07:00:00','2027-03-05T07:00:00','2027-11-29T07:00:00','2027-11-30T07:00:00','P0Y0M0D','P0Y0M171D',.F.,$,$,$,$,$,0.0);
#44=IFCTASK('2Ds7vPRVJ9XbvVlXfNA3Tf',#6,'Protect trees',$,$,'1.2',$,$,$,.F.,$,#43,.ATTENDANCE.);
#45=IFCTASKTIME('Start of construction Time',.PREDICTED.,$,.WORKTIME.,'P0Y0M0D','2027-03-01T07:00:00','2027-03-01T07:00:00','2027-03-08T07:00:00','2027-03-08T07:00:00','2027-12-01T07:00:00','2027-12-01T07:00:00','P0Y0M171D','P0Y0M171D',.F.,$,$,$,$,$,0.0);
#46=IFCTASK('p7_XGtqFyFPrSPg$5FFLYn',#6,'Start of construction',$,$,'1.3',$,$,$,.T.,$,#45,.CONSTRUCTION.);
#47=IFCTASKTIME('2. Earthworks & foundations Time',.PREDICTED.,$,.WORKTIME.,'P0Y0M5D','2027-03-01T07:00:00','2027-03-05T07:00:00','2027-03-04T07:00:00','2027-04-22T07:00:00','2027-03-04T07:00:00','2027-12-01T07:00:00','P0Y0M0D','P0Y0M0D',.T.,$,$,$,$,$,0.0);
#48=IFCTASK('h7qDvrGfwzcXUtmVQZR1QH',#6,'2. Earthworks & foundations',$,$,'2',$,$,$,.F.,$,#47,.CONSTRUCTION.);
#49=IFCTASKTIME('Excavate swimming pool Time',.PREDICTED.,$,.WORKTIME.,'P0Y0M8D','2027-03-01T07:00:00','2027-03-10T07:00:00','2027-03-04T07:00:00','2027-03-15T07:00:00','2027-03-04T07:00:00','2027-03-15T07:00:00','P0Y0M0D','P0Y0M0D',.T.,$,$,$,$,$,0.0);
#50=IFCTASK('BtwtcfevKpuNrpHVNfQpuD',#6,'Excavate swimming pool',$,$,'2.1',$,$,$,.F.,$,#49,.CONSTRUCTION.);
#51=IFCTASKTIME('Excavate foundation trenches Time',.PREDICTED.,$,.WORKTIME.,'P0Y0M5D','2027-03-01T07:00:00','2027-03-05T07:00:00','2027-03-16T07:00:00','2027-03-22T07:00:00','2027-10-27T07:00:00','2027-11-02T07:00:00','P0Y0M0D','P0Y0M140D',.F.,$,$,$,$,$,0.0);
#52=IFCTASK('H5XzwZedLdibjpDFvXhXiX',#6,'Excavate foundation trenches',$,$,'2.2',$,$,$,.F.,$,#51,.CONSTRUCTION.);
#53=IFCTASKTIME('Pour foundations Time',.PREDICTED.,$,.WORKTIME.,'P0Y0M8D','2027-03-01T07:00:00','2027-03-10T07:00:00','2027-03-23T07:00:00','2027-04-05T07:00:00','2027-11-03T07:00:00','2027-11-12T07:00:00','P0Y0M0D','P0Y0M140D',.F.,$,$,$,$,$,0.0);
#54=IFCTASK('qrHRSlu7M5$TVn5l83lBip',#6,'Pour foundations',$,$,'2.3',$,$,$,.F.,$,#53,.CONSTRUCTION.);
#55=IFCTASKTIME('Sewerage and drainage Time',.PREDICTED.,$,.WORKTIME.,'P0Y0M5D','2027-03-01T07:00:00','2027-03-05T07:00:00','2027-04-06T07:00:00','2027-04-12T07:00:00','2027-11-15T07:00:00','2027-11-19T07:00:00','P0Y0M0D','P0Y0M140D',.F.,$,$,$,$,$,0.0);
#56=IFCTASK('ylZfWXRX9V3fZtyHtTZ98b',#6,'Sewerage and drainage',$,$,'2.4',$,$,$,.F.,$,#55,.INSTALLATION.);
#57=IFCTASKTIME('Fill crawl space Time',.PREDICTED.,$,.WORKTIME.,'P0Y0M3D','2027-03-01T07:00:00','2027-03-03T07:00:00','2027-04-13T07:00:00','2027-04-15T07:00:00','2027-11-22T07:00:00','2027-11-24T07:00:00','P0Y0M0D','P0Y0M140D',.F.,$,$,$,$,$,0.0);
#58=IFCTASK('qh39wPolZ$orapVVa5hXOz',#6,'Fill crawl space',$,$,'2.5',$,$,$,.F.,$,#57,.CONSTRUCTION.);
#59=IFCTASKTIME('Ground floor slab Time',.PREDICTED.,$,.WORKTIME.,'P0Y0M5D','2027-03-01T07:00:00','2027-03-05T07:00:00','2027-04-16T07:00:00','2027-04-22T07:00:00','2027-11-25T07:00:00','2027-12-01T07:00:00','P0Y0M140D','P0Y0M140D',.F.,$,$,$,$,$,0.0);
#60=IFCTASK('Cr7TmtKVBZKb9tqFW9oVaN',#6,'Ground floor slab',$,$,'2.6',$,$,$,.F.,$,#59,.CONSTRUCTION.);
#61=IFCTASKTIME('3. Structural works Time',.PREDICTED.,$,.WORKTIME.,'P0Y0M5D','2027-03-01T07:00:00','2027-03-05T07:00:00','2027-03-09T07:00:00','2027-05-18T07:00:00','2027-03-09T07:00:00','2027-12-01T07:00:00','P0Y0M0D','P0Y0M0D',.T.,$,$,$,$,$,0.0);
#62=IFCTASK('Ibblj1k9p57hYf4HbVB1_Z',#6,'3. Structural works',$,$,'3',$,$,$,.F.,$,#61,.CONSTRUCTION.);
#63=IFCTASKTIME('Ground floor masonry Time',.PREDICTED.,$,.WORKTIME.,'P0Y0M12D','2027-03-01T07:00:00','2027-03-16T07:00:00','2027-03-09T07:00:00','2027-03-24T07:00:00','2027-03-09T07:00:00','2027-03-24T07:00:00','P0Y0M0D','P0Y0M0D',.T.,$,$,$,$,$,0.0);
#64=IFCTASK('jxljT52Nw3UfDHhnPnHrqn',#6,'Ground floor masonry',$,$,'3.1',$,$,$,.F.,$,#63,.CONSTRUCTION.);
#65=IFCTASKTIME('Pour upper floor slab Time',.PREDICTED.,$,.WORKTIME.,'P0Y0M5D','2027-03-01T07:00:00','2027-03-05T07:00:00','2027-03-25T07:00:00','2027-04-02T07:00:00','2027-03-25T07:00:00','2027-04-02T07:00:00','P0Y0M0D','P0Y0M0D',.T.,$,$,$,$,$,0.0);
#66=IFCTASK('7FXhJV6Vn3ovsxqnC3OHhp',#6,'Pour upper floor slab',$,$,'3.2',$,$,$,.F.,$,#65,.CONSTRUCTION.);
#67=IFCTASKTIME('Upper floor masonry Time',.PREDICTED.,$,.WORKTIME.,'P0Y0M10D','2027-03-01T07:00:00','2027-03-12T07:00:00','2027-04-05T07:00:00','2027-04-16T07:00:00','2027-04-05T07:00:00','2027-04-16T07:00:00','P0Y0M0D','P0Y0M0D',.T.,$,$,$,$,$,0.0);
#68=IFCTASK('HRJ791ot79EBO$VVOJXDKD',#6,'Upper floor masonry',$,$,'3.3',$,$,$,.F.,$,#67,.CONSTRUCTION.);
#69=IFCTASKTIME('Timber roof structure Time',.PREDICTED.,$,.WORKTIME.,'P0Y0M10D','2027-03-01T07:00:00','2027-03-12T07:00:00','2027-04-19T07:00:00','2027-05-03T07:00:00','2027-04-19T07:00:00','2027-05-03T07:00:00','P0Y0M0D','P0Y0M0D',.T.,$,$,$,$,$,0.0);
#70=IFCTASK('oBn5M1XdXPV3L9GXMr4Tdv',#6,'Timber roof structure',$,$,'3.4',$,$,$,.F.,$,#69,.CONSTRUCTION.);
#71=IFCTASKTIME('Roof tiles Time',.PREDICTED.,$,.WORKTIME.,'P0Y0M5D','2027-03-01T07:00:00','2027-03-05T07:00:00','2027-05-04T07:00:00','2027-05-12T07:00:00','2027-05-04T07:00:00','2027-05-12T07:00:00','P0Y0M0D','P0Y0M0D',.T.,$,$,$,$,$,0.0);
#72=IFCTASK('AtgPfDH70hhlLzVXMBKjYj',#6,'Roof tiles',$,$,'3.5',$,$,$,.F.,$,#71,.CONSTRUCTION.);
#73=IFCTASKTIME('Build chimneys Time',.PREDICTED.,$,.WORKTIME.,'P0Y0M3D','2027-03-01T07:00:00','2027-03-03T07:00:00','2027-05-13T07:00:00','2027-05-18T07:00:00','2027-05-13T07:00:00','2027-05-18T07:00:00','P0Y0M0D','P0Y0M0D',.T.,$,$,$,$,$,0.0);
#74=IFCTASK('uJhHdbolhDAlbLclDBLlJX',#6,'Build chimneys',$,$,'3.6',$,$,$,.F.,$,#73,.CONSTRUCTION.);
#75=IFCTASKTIME('Topping out Time',.PREDICTED.,$,.WORKTIME.,'P0Y0M0D','2027-03-01T07:00:00','2027-03-01T07:00:00','2027-05-18T07:00:00','2027-05-18T07:00:00','2027-12-01T07:00:00','2027-12-01T07:00:00','P0Y0M126D','P0Y0M126D',.F.,$,$,$,$,$,0.0);
#76=IFCTASK('5rEnJZd9zZEB8fSHdHBF7t',#6,'Topping out',$,$,'3.7',$,$,$,.T.,$,#75,.CONSTRUCTION.);
#77=IFCTASKTIME('4. Facade & roof Time',.PREDICTED.,$,.WORKTIME.,'P0Y0M5D','2027-03-01T07:00:00','2027-03-05T07:00:00','2027-05-03T07:00:00','2027-06-10T07:00:00','2027-05-03T07:00:00','2027-12-01T07:00:00','P0Y0M0D','P0Y0M0D',.T.,$,$,$,$,$,0.0);
#78=IFCTASK('3Dw92LylxnX3FDP$OJfLwR',#6,'4. Facade & roof',$,$,'4',$,$,$,.F.,$,#77,.CONSTRUCTION.);
#79=IFCTASKTIME('Facade insulation Time',.PREDICTED.,$,.WORKTIME.,'P0Y0M8D','2027-03-01T07:00:00','2027-03-10T07:00:00','2027-05-03T07:00:00','2027-05-14T07:00:00','2027-05-03T07:00:00','2027-05-14T07:00:00','P0Y0M0D','P0Y0M0D',.T.,$,$,$,$,$,0.0);
#80=IFCTASK('c$Ph37H7Sh9zN7_FL3nLIB',#6,'Facade insulation',$,$,'4.1',$,$,$,.F.,$,#79,.INSTALLATION.);
#81=IFCTASKTIME('Hardwood window frames Time',.PREDICTED.,$,.WORKTIME.,'P0Y0M8D','2027-03-01T07:00:00','2027-03-10T07:00:00','2027-05-18T07:00:00','2027-05-27T07:00:00','2027-05-18T07:00:00','2027-05-27T07:00:00','P0Y0M0D','P0Y0M0D',.T.,$,$,$,$,$,0.0);
#82=IFCTASK('0lfJNn41OdV3NvMl2tEVGX',#6,'Hardwood window frames',$,$,'4.2',$,$,$,.F.,$,#81,.INSTALLATION.);
#83=IFCTASKTIME('Triple glazing HR+++ Time',.PREDICTED.,$,.WORKTIME.,'P0Y0M5D','2027-03-01T07:00:00','2027-03-05T07:00:00','2027-05-28T07:00:00','2027-06-03T07:00:00','2027-05-28T07:00:00','2027-06-03T07:00:00','P0Y0M0D','P0Y0M0D',.T.,$,$,$,$,$,0.0);
#84=IFCTASK('1H9DVfePTJar0zjHTzGNwV',#6,'Triple glazing HR+++',$,$,'4.3',$,$,$,.F.,$,#83,.INSTALLATION.);
#85=IFCTASKTIME('Zinc gutters and downpipes Time',.PREDICTED.,$,.WORKTIME.,'P0Y0M5D','2027-03-01T07:00:00','2027-03-05T07:00:00','2027-06-04T07:00:00','2027-06-10T07:00:00','2027-06-04T07:00:00','2027-06-10T07:00:00','P0Y0M0D','P0Y0M0D',.T.,$,$,$,$,$,0.0);
#86=IFCTASK('l9a3cN09NFFp03xnMHzNYH',#6,'Zinc gutters and downpipes',$,$,'4.4',$,$,$,.F.,$,#85,.CONSTRUCTION.);
#87=IFCTASKTIME('Wind and weathertight Time',.PREDICTED.,$,.WORKTIME.,'P0Y0M0D','2027-03-01T07:00:00','2027-03-01T07:00:00','2027-06-10T07:00:00','2027-06-10T07:00:00','2027-12-01T07:00:00','2027-12-01T07:00:00','P0Y0M109D','P0Y0M109D',.F.,$,$,$,$,$,0.0);
#88=IFCTASK('NdmdJ$MdTVUNvjf$MBiJcB',#6,'Wind and weathertight',$,$,'4.5',$,$,$,.T.,$,#87,.CONSTRUCTION.);
#89=IFCTASKTIME('5. Building services Time',.PREDICTED.,$,.WORKTIME.,'P0Y0M5D','2027-03-01T07:00:00','2027-03-05T07:00:00','2027-06-11T07:00:00','2027-09-01T07:00:00','2027-06-11T07:00:00','2027-12-01T07:00:00','P0Y0M0D','P0Y0M0D',.T.,$,$,$,$,$,0.0);
#90=IFCTASK('2HdzAB9NcpmVInrHPLelPB',#6,'5. Building services',$,$,'5',$,$,$,.F.,$,#89,.INSTALLATION.);
#91=IFCTASKTIME('Electrical first fix Time',.PREDICTED.,$,.WORKTIME.,'P0Y0M8D','2027-03-01T07:00:00','2027-03-10T07:00:00','2027-06-11T07:00:00','2027-06-22T07:00:00','2027-06-11T07:00:00','2027-06-22T07:00:00','P0Y0M0D','P0Y0M0D',.T.,$,$,$,$,$,0.0);
#92=IFCTASK('ST0tctaltVpd8fKHGXtzbx',#6,'Electrical first fix',$,$,'5.1',$,$,$,.F.,$,#91,.INSTALLATION.);
#93=IFCTASKTIME('Plumbing first fix Time',.PREDICTED.,$,.WORKTIME.,'P0Y0M8D','2027-03-01T07:00:00','2027-03-10T07:00:00','2027-06-15T07:00:00','2027-06-24T07:00:00','2027-10-05T07:00:00','2027-10-14T07:00:00','P0Y0M0D','P0Y0M65D',.F.,$,$,$,$,$,0.0);
#94=IFCTASK('j5FpPRg$sh7DaDN$lv8$6R',#6,'Plumbing first fix',$,$,'5.2',$,$,$,.F.,$,#93,.INSTALLATION.);
#95=IFCTASKTIME('Underfloor heating Time',.PREDICTED.,$,.WORKTIME.,'P0Y0M8D','2027-03-01T07:00:00','2027-03-10T07:00:00','2027-06-25T07:00:00','2027-07-06T07:00:00','2027-10-15T07:00:00','2027-10-26T07:00:00','P0Y0M0D','P0Y0M65D',.F.,$,$,$,$,$,0.0);
#96=IFCTASK('dVL$EXM$M5FDKx0X75wJUl',#6,'Underfloor heating',$,$,'5.3',$,$,$,.F.,$,#95,.INSTALLATION.);
#97=IFCTASKTIME('Home automation system Time',.PREDICTED.,$,.WORKTIME.,'P0Y0M5D','2027-03-01T07:00:00','2027-03-05T07:00:00','2027-07-07T07:00:00','2027-07-13T07:00:00','2027-10-27T07:00:00','2027-11-02T07:00:00','P0Y0M0D','P0Y0M65D',.F.,$,$,$,$,$,0.0);
#98=IFCTASK('NTz9kj5Vr9sZtLwHjNcpKX',#6,'Home automation system',$,$,'5.4',$,$,$,.F.,$,#97,.INSTALLATION.);
#99=IFCTASKTIME('Pool plant Time',.PREDICTED.,$,.WORKTIME.,'P0Y0M10D','2027-03-01T07:00:00','2027-03-12T07:00:00','2027-07-14T07:00:00','2027-08-17T07:00:00','2027-11-03T07:00:00','2027-11-16T07:00:00','P0Y0M0D','P0Y0M65D',.F.,$,$,$,$,$,0.0);
#100=IFCTASK('1pU1Y5E955tRB7_Ft7KjoR',#6,'Pool plant',$,$,'5.5',$,$,$,.F.,$,#99,.INSTALLATION.);
#101=IFCTASKTIME('Heat pump and ground loop Time',.PREDICTED.,$,.WORKTIME.,'P0Y0M8D','2027-03-01T07:00:00','2027-03-10T07:00:00','2027-08-18T07:00:00','2027-08-27T07:00:00','2027-11-17T07:00:00','2027-11-26T07:00:00','P0Y0M0D','P0Y0M65D',.F.,$,$,$,$,$,0.0);
#102=IFCTASK('1DcNe33$uVslJ$ZFk3GNw$',#6,'Heat pump and ground loop',$,$,'5.6',$,$,$,.F.,$,#101,.INSTALLATION.);
#103=IFCTASKTIME('Solar panels Time',.PREDICTED.,$,.WORKTIME.,'P0Y0M3D','2027-03-01T07:00:00','2027-03-03T07:00:00','2027-08-30T07:00:00','2027-09-01T07:00:00','2027-11-29T07:00:00','2027-12-01T07:00:00','P0Y0M65D','P0Y0M65D',.F.,$,$,$,$,$,0.0);
#104=IFCTASK('vHTfWVzHhdSBGrYVhd8nZ5',#6,'Solar panels',$,$,'5.7',$,$,$,.F.,$,#103,.INSTALLATION.);
#105=IFCTASKTIME('6. Fit-out Time',.PREDICTED.,$,.WORKTIME.,'P0Y0M5D','2027-03-01T07:00:00','2027-03-05T07:00:00','2027-07-16T07:00:00','2027-10-26T07:00:00','2027-07-16T07:00:00','2027-10-26T07:00:00','P0Y0M0D','P0Y0M0D',.T.,$,$,$,$,$,0.0);
#106=IFCTASK('2HPzsFDXd78NxbilCHpdRX',#6,'6. Fit-out',$,$,'6',$,$,$,.F.,$,#105,.CONSTRUCTION.);
#107=IFCTASKTIME('Plastering, walls and ceilings Time',.PREDICTED.,$,.WORKTIME.,'P0Y0M12D','2027-03-01T07:00:00','2027-03-16T07:00:00','2027-07-16T07:00:00','2027-08-23T07:00:00','2027-07-16T07:00:00','2027-08-23T07:00:00','P0Y0M0D','P0Y0M0D',.T.,$,$,$,$,$,0.0);
#108=IFCTASK('G9ahrZGNUDQXE1VXCTyZXZ',#6,'Plastering, walls and ceilings',$,$,'6.1',$,$,$,.F.,$,#107,.CONSTRUCTION.);
#109=IFCTASKTIME('Luxury bathroom tiling Time',.PREDICTED.,$,.WORKTIME.,'P0Y0M10D','2027-03-01T07:00:00','2027-03-12T07:00:00','2027-08-24T07:00:00','2027-09-06T07:00:00','2027-08-24T07:00:00','2027-09-06T07:00:00','P0Y0M0D','P0Y0M0D',.T.,$,$,$,$,$,0.0);
#110=IFCTASK('mf8XG7sdJhFhYznXRXhXmn',#6,'Luxury bathroom tiling',$,$,'6.2',$,$,$,.F.,$,#109,.CONSTRUCTION.);
#111=IFCTASKTIME('Natural stone floors Time',.PREDICTED.,$,.WORKTIME.,'P0Y0M8D','2027-03-01T07:00:00','2027-03-10T07:00:00','2027-09-07T07:00:00','2027-09-16T07:00:00','2027-09-07T07:00:00','2027-09-16T07:00:00','P0Y0M0D','P0Y0M0D',.T.,$,$,$,$,$,0.0);
#112=IFCTASK('X$$ZGvMPzlmXgLEnUvWP79',#6,'Natural stone floors',$,$,'6.3',$,$,$,.F.,$,#111,.CONSTRUCTION.);
#113=IFCTASKTIME('Oak staircases Time',.PREDICTED.,$,.WORKTIME.,'P0Y0M5D','2027-03-01T07:00:00','2027-03-05T07:00:00','2027-09-17T07:00:00','2027-09-23T07:00:00','2027-09-17T07:00:00','2027-09-23T07:00:00','P0Y0M0D','P0Y0M0D',.T.,$,$,$,$,$,0.0);
#114=IFCTASK('LTZNeTlPp51T1XjlzjAtWd',#6,'Oak staircases',$,$,'6.4',$,$,$,.F.,$,#113,.INSTALLATION.);
#115=IFCTASKTIME('Bespoke kitchen Time',.PREDICTED.,$,.WORKTIME.,'P0Y0M8D','2027-03-01T07:00:00','2027-03-10T07:00:00','2027-09-24T07:00:00','2027-10-05T07:00:00','2027-09-24T07:00:00','2027-10-05T07:00:00','P0Y0M0D','P0Y0M0D',.T.,$,$,$,$,$,0.0);
#116=IFCTASK('IfGv7v9fq3w1SvYFXF5lB3',#6,'Bespoke kitchen',$,$,'6.5',$,$,$,.F.,$,#115,.INSTALLATION.);
#117=IFCTASKTIME('Painting Time',.PREDICTED.,$,.WORKTIME.,'P0Y0M10D','2027-03-01T07:00:00','2027-03-12T07:00:00','2027-10-06T07:00:00','2027-10-19T07:00:00','2027-10-06T07:00:00','2027-10-19T07:00:00','P0Y0M0D','P0Y0M0D',.T.,$,$,$,$,$,0.0);
#118=IFCTASK('jbRHND79HJ4hEBc1YLXRFX',#6,'Painting',$,$,'6.6',$,$,$,.F.,$,#117,.CONSTRUCTION.);
#119=IFCTASKTIME('Second-fix sanitary fittings Time',.PREDICTED.,$,.WORKTIME.,'P0Y0M5D','2027-03-01T07:00:00','2027-03-05T07:00:00','2027-10-20T07:00:00','2027-10-26T07:00:00','2027-10-20T07:00:00','2027-10-26T07:00:00','P0Y0M0D','P0Y0M0D',.T.,$,$,$,$,$,0.0);
#120=IFCTASK('xHLHRRB$8$oBqrg1bXxlBZ',#6,'Second-fix sanitary fittings',$,$,'6.7',$,$,$,.F.,$,#119,.INSTALLATION.);
#121=IFCTASKTIME('7. External works & handover Time',.PREDICTED.,$,.WORKTIME.,'P0Y0M5D','2027-03-01T07:00:00','2027-03-05T07:00:00','2027-10-27T07:00:00','2027-12-01T07:00:00','2027-10-27T07:00:00','2027-12-01T07:00:00','P0Y0M0D','P0Y0M0D',.T.,$,$,$,$,$,0.0);
#122=IFCTASK('5h6pH$VPBtcpqHjlDhFho5',#6,'7. External works & handover',$,$,'7',$,$,$,.F.,$,#121,.CONSTRUCTION.);
#123=IFCTASKTIME('Complete swimming pool Time',.PREDICTED.,$,.WORKTIME.,'P0Y0M8D','2027-03-01T07:00:00','2027-03-10T07:00:00','2027-10-27T07:00:00','2027-11-05T07:00:00','2027-10-27T07:00:00','2027-11-05T07:00:00','P0Y0M0D','P0Y0M0D',.T.,$,$,$,$,$,0.0);
#124=IFCTASK('sDd3UbwVbLLlx5mXYh15$j',#6,'Complete swimming pool',$,$,'7.1',$,$,$,.F.,$,#123,.CONSTRUCTION.);
#125=IFCTASKTIME('Garden landscaping Time',.PREDICTED.,$,.WORKTIME.,'P0Y0M10D','2027-03-01T07:00:00','2027-03-12T07:00:00','2027-11-08T07:00:00','2027-11-19T07:00:00','2027-11-08T07:00:00','2027-11-19T07:00:00','P0Y0M0D','P0Y0M0D',.T.,$,$,$,$,$,0.0);
#126=IFCTASK('X3Kbyza1I$7DWDLHXDwjMJ',#6,'Garden landscaping',$,$,'7.2',$,$,$,.F.,$,#125,.CONSTRUCTION.);
#127=IFCTASKTIME('Driveway and paving Time',.PREDICTED.,$,.WORKTIME.,'P0Y0M5D','2027-03-01T07:00:00','2027-03-05T07:00:00','2027-11-22T07:00:00','2027-11-26T07:00:00','2027-11-22T07:00:00','2027-11-26T07:00:00','P0Y0M0D','P0Y0M0D',.T.,$,$,$,$,$,0.0);
#128=IFCTASK('m7MPhpE9nTcD0zLFpdS39D',#6,'Driveway and paving',$,$,'7.3',$,$,$,.F.,$,#127,.CONSTRUCTION.);
#129=IFCTASKTIME('Cleaning Time',.PREDICTED.,$,.WORKTIME.,'P0Y0M3D','2027-03-01T07:00:00','2027-03-03T07:00:00','2027-11-29T07:00:00','2027-12-01T07:00:00','2027-11-29T07:00:00','2027-12-01T07:00:00','P0Y0M0D','P0Y0M0D',.T.,$,$,$,$,$,0.0);
#130=IFCTASK('3Jg3w3CnGDIPKVnV9znL_1',#6,'Cleaning',$,$,'7.4',$,$,$,.F.,$,#129,.LOGISTIC.);
#131=IFCTASKTIME('Handover Time',.PREDICTED.,$,.WORKTIME.,'P0Y0M0D','2027-03-01T07:00:00','2027-03-01T07:00:00','2027-12-01T07:00:00','2027-12-01T07:00:00','2027-12-01T07:00:00','2027-12-01T07:00:00','P0Y0M0D','P0Y0M0D',.T.,$,$,$,$,$,0.0);
#132=IFCTASK('zDcNiffN8$_Rz5Cne5UhMt',#6,'Handover',$,$,'7.5',$,$,$,.T.,$,#131,.CONSTRUCTION.);
#133=IFCRELNESTS('kbxn91c7mDQXIR4HzDYLo5',#6,'WBS 1. Preparation',$,#40,( #42,#44,#46));
#134=IFCRELNESTS('EhztIlmNQJypClbFGXPJ6$',#6,'WBS 2. Earthworks & foundations',$,#48,( #50,#52,#54,#56,#58,#60));
#135=IFCRELNESTS('dXZfyXM1wFCxPTN1B9gNoR',#6,'WBS 3. Structural works',$,#62,( #64,#66,#68,#70,#72,#74,#76));
#136=IFCRELNESTS('AtMPBza$gP$TLZBHBfERX7',#6,'WBS 4. Facade & roof',$,#78,( #80,#82,#84,#86,#88));
#137=IFCRELNESTS('5LgzgX3lpb37EroVKXRF79',#6,'WBS 5. Building services',$,#90,( #92,#94,#96,#98,#100,#102,#104));
#138=IFCRELNESTS('5LMzcpgPpP7LsRmVEFpPbX',#6,'WBS 6. Fit-out',$,#106,( #108,#110,#112,#114,#116,#118,#120));
#139=IFCRELNESTS('CNQJZbIl3TkLsdQ1A$tBuj',#6,'WBS 7. External works & handover',$,#122,( #124,#126,#128,#130,#132));
#140=IFCRELNESTS('tjjP5r1vgdnD4TBHzDgTrv',#6,'WBS Hoofd',$,#37,(#40,#48,#62,#78,#90,#106,#122));
#141=IFCRELSEQUENCE('rpPzMx799VZ9tfu$Bfwj61',#6,$,$,#42,#44,$,.FINISH_START.,$);
#142=IFCRELSEQUENCE('NTblxrNfSrrn1Bc$EnRnHh',#6,$,$,#44,#46,$,.FINISH_START.,$);
#143=IFCRELSEQUENCE('k9KJNlePTp0nvXFX3pEbbx',#6,$,$,#50,#52,$,.FINISH_START.,$);
#144=IFCRELSEQUENCE('UTmvxllPTJibV50V3D2rm1',#6,$,$,#52,#54,$,.FINISH_START.,$);
#145=IFCRELSEQUENCE('rtAv9$gd3lmX_76lb5QpOr',#6,$,$,#54,#56,$,.FINISH_START.,$);
#146=IFCRELSEQUENCE('XXDP$PolJfzfNbu1AXjvll',#6,$,$,#56,#58,$,.FINISH_START.,$);
#147=IFCRELSEQUENCE('X$X3o1YNKN29h9GVuZJ7hp',#6,$,$,#58,#60,$,.FINISH_START.,$);
#148=IFCRELSEQUENCE('znpvHRzlpR5$0ZVVCTiJYH',#6,$,$,#64,#66,$,.FINISH_START.,$);
#149=IFCRELSEQUENCE('4HZNqb5V5HRV2jRnmX933P',#6,$,$,#66,#68,$,.FINISH_START.,$);
#150=IFCRELSEQUENCE('WV39YRM1UDsHlNClED6jMN',#6,$,$,#68,#70,$,.FINISH_START.,$);
#151=IFCRELSEQUENCE('fd09UbM1YDE7UtGXmFxHtj',#6,$,$,#70,#72,$,.FINISH_START.,$);
#152=IFCRELSEQUENCE('a1dhd5I9r9g3VRiHClhHDn',#6,$,$,#72,#74,$,.FINISH_START.,$);
#153=IFCRELSEQUENCE('6LcJt1YfmJsZ9rw$eREVO3',#6,$,$,#74,#76,$,.FINISH_START.,$);
#154=IFCRELSEQUENCE('AjZfOz5nyRTd8ld1L3fZ1j',#6,$,$,#80,#82,$,.FINISH_START.,$);
#155=IFCRELSEQUENCE('xF7ZObklBtQDCnt13FpdHr',#6,$,$,#82,#84,$,.FINISH_START.,$);
#156=IFCRELSEQUENCE('1D6to$QvGTq5vpRlMhGfER',#6,$,$,#84,#86,$,.FINISH_START.,$);
#157=IFCRELSEQUENCE('WXpPrTGNUpE72PEXGFB1_V',#6,$,$,#86,#88,$,.FINISH_START.,$);
#158=IFCLAGTIME('Lag',.PREDICTED.,$,IFCDURATION('P2D'),.WORKTIME.);
#159=IFCRELSEQUENCE('h7ijbVJnCvG1Sj3lARAtKX',#6,$,$,#92,#94,#158,.START_START.,$);
#160=IFCRELSEQUENCE('W1lJ7PDnYjYxVl1ViXxHF1',#6,$,$,#94,#96,$,.FINISH_START.,$);
#161=IFCRELSEQUENCE('qhp7Tb_nCzo7_pXXmVPJcr',#6,$,$,#96,#98,$,.FINISH_START.,$);
#162=IFCRELSEQUENCE('uBgPTt5FO7p9JDLllB3N_1',#6,$,$,#98,#100,$,.FINISH_START.,$);
#163=IFCRELSEQUENCE('LzvrTbYFc$ore1nVnfULkB',#6,$,$,#100,#102,$,.FINISH_START.,$);
#164=IFCRELSEQUENCE('qr7T8ptNylRVQZv1A$vbj$',#6,$,$,#102,#104,$,.FINISH_START.,$);
#165=IFCRELSEQUENCE('Z$9xcjkl$N3NnPc1gLGf6X',#6,$,$,#108,#110,$,.FINISH_START.,$);
#166=IFCRELSEQUENCE('t9_VCPzlBfcVQHpHLz1xX3',#6,$,$,#110,#112,$,.FINISH_START.,$);
#167=IFCRELSEQUENCE('sJLHXtino5X3npt$7XB$_1',#6,$,$,#112,#114,$,.FINISH_START.,$);
#168=IFCRELSEQUENCE('fv4rrPM1A9fZZNmXk15Vi$',#6,$,$,#114,#116,$,.FINISH_START.,$);
#169=IFCRELSEQUENCE('8j5XiB17cDOdK5e$1zeHpH',#6,$,$,#116,#118,$,.FINISH_START.,$);
#170=IFCRELSEQUENCE('LZBVqdh$krtzf7YnlP4hUj',#6,$,$,#118,#120,$,.FINISH_START.,$);
#171=IFCRELSEQUENCE('R5qDH1Nf2tM3r72F3HPxlh',#6,$,$,#124,#126,$,.FINISH_START.,$);
#172=IFCRELSEQUENCE('iPuVyVg16zYfL3f$_xB$Id',#6,$,$,#126,#128,$,.FINISH_START.,$);
#173=IFCRELSEQUENCE('0HNjTxItp5$ZTtqn8ZjvTN',#6,$,$,#128,#130,$,.FINISH_START.,$);
#174=IFCRELSEQUENCE('iRZN4Z09TX61e11V6JnTR$',#6,$,$,#130,#132,$,.FINISH_START.,$);
#175=IFCLAGTIME('Lag',.PREDICTED.,$,IFCDURATION('P3D'),.WORKTIME.);
#176=IFCRELSEQUENCE('lfWNyV6X$BhHplbFyhPJs3',#6,$,$,#42,#50,#175,.START_START.,$);
#177=IFCLAGTIME('Lag',.PREDICTED.,$,IFCRATIOMEASURE(0.4),.WORKTIME.);
#178=IFCRELSEQUENCE('k5FD7r0trzG1uFZn692lVv',#6,$,$,#50,#64,#177,.START_START.,$);
#179=IFCLAGTIME('Lag',.PREDICTED.,$,IFCDURATION('-P9D'),.WORKTIME.);
#180=IFCRELSEQUENCE('tfUhl$vtlDuNZfe18BCp8D',#6,$,$,#74,#80,#179,.FINISH_START.,$);
#181=IFCLAGTIME('Lag',.PREDICTED.,$,IFCDURATION('P2D'),.WORKTIME.);
#182=IFCRELSEQUENCE('7h6pT9hHxxV3VxWVDvelxr',#6,$,$,#74,#86,#181,.FINISH_FINISH.,$);
#183=IFCRELSEQUENCE('KRTNSJA1qTM3rvQHTTyTrP',#6,$,$,#86,#92,$,.FINISH_START.,$);
#184=IFCLAGTIME('Lag',.PREDICTED.,$,IFCDURATION('P25D'),.WORKTIME.);
#185=IFCRELSEQUENCE('Bf_BdtxFynvh61ZFMLGtOZ',#6,$,$,#92,#108,#184,.START_START.,$);
#186=IFCRELSEQUENCE('1j6p$ds10BdjsvwHXjs9Cl',#6,$,$,#120,#124,$,.FINISH_START.,$);
#187=IFCRELASSIGNSTOCONTROL('rDVhNjbXHjyDCF$VkTSruD',#6,$,$,(#40,#42,#44,#46,#48,#50,#52,#54,#56,#58,#60,#62,#64,#66,#68,#70,#72,#74,#76,#78,#80,#82,#84,#86,#88,#90,#92,#94,#96,#98,#100,#102,#104,#106,#108,#110,#112,#114,#116,#118,#120,#122,#124,#126,#128,#130,#132),$,#37);
#188=IFCPROPERTYSINGLEVALUE('wbsAutoNumber',$,IFCBOOLEAN(.T.),$);
#189=IFCPROPERTYSINGLEVALUE('ProjectStartDate',$,IFCDATE('2027-03-01'),$);
#190=IFCPROPERTYSINGLEVALUE('ProjectEndDate',$,$,$);
#191=IFCPROPERTYSINGLEVALUE('CreatedAt',$,IFCTEXT('2026-07-28T14:38:23.824Z'),$);
#192=IFCPROPERTYSINGLEVALUE('ModifiedAt',$,IFCTEXT('2026-07-28T14:38:23.825Z'),$);
#193=IFCPROPERTYSET('e5a3ArlP$tNZvpDF1ZK5n5',#6,'OPS_ProjectSettings',$,(#188,#189,#190,#191,#192));
#194=IFCRELDEFINESBYPROPERTIES('0Hdzo1sPJhdjQlBF$1BF9l',#6,$,$,(#13),#193);
#195=IFCPROPERTYSINGLEVALUE('MilestoneKind',$,IFCLABEL('START'),$);
#196=IFCPROPERTYSET('7lR$67Md9X3f7jP$t7Kxjz',#6,'OPS_Milestone',$,(#195));
#197=IFCRELDEFINESBYPROPERTIES('WX5Frdg$Ebx1unBl3pMZ1D',#6,$,$,(#46),#196);
#198=IFCPROPERTYSINGLEVALUE('MilestoneKind',$,IFCLABEL('FINISH'),$);
#199=IFCPROPERTYSET('nLhlT9LHLpw10Z7$Yda3n1',#6,'OPS_Milestone',$,(#198));
#200=IFCRELDEFINESBYPROPERTIES('OTL$YxsPZpm$K5u1vRk$cH',#6,$,$,(#76),#199);
#201=IFCPROPERTYSINGLEVALUE('MilestoneKind',$,IFCLABEL('FINISH'),$);
#202=IFCPROPERTYSET('LZjvzrmfExPBa7kF4d81cB',#6,'OPS_Milestone',$,(#201));
#203=IFCRELDEFINESBYPROPERTIES('ylZfy16v2TqZzv6H7XpP3L',#6,$,$,(#88),#202);
#204=IFCPROPERTYSINGLEVALUE('MilestoneKind',$,IFCLABEL('FINISH'),$);
#205=IFCPROPERTYSINGLEVALUE('Mandatory',$,IFCBOOLEAN(.T.),$);
#206=IFCPROPERTYSET('lN8Xmfu7Ihb$K$5l4vSzDl',#6,'OPS_Milestone',$,(#204,#205));
#207=IFCRELDEFINESBYPROPERTIES('gTjvPt3$SLvDChonsbwdLf',#6,$,$,(#132),#206);
ENDSEC;
END-ISO-10303-21;
