ISO-10303-21;
HEADER;
FILE_DESCRIPTION(('ViewDefinition [SchedulingView]'),'2;1');
FILE_NAME('Amstelveen Municipal Sports Hall.ifc','2026-07-28T14:38:23',('Erik Smit'),('Sports Facilities Holland BV'),'Open Planner Studio 0.1','Open Planner Studio','');
FILE_SCHEMA(('IFC4X3'));
ENDSEC;
DATA;
#1=IFCPERSON($,'Erik Smit',$,$,$,$,$,$);
#2=IFCORGANIZATION($,'Sports Facilities Holland BV',$,$,$);
#3=IFCPERSONANDORGANIZATION(#1,#2,$);
#4=IFCORGANIZATION($,'OpenAEC Foundation',$,$,$);
#5=IFCAPPLICATION(#4,'0.1','Open Planner Studio','OPS');
#6=IFCOWNERHISTORY(#3,#5,$,.NOCHANGE.,$,$,$,1785249503);
#7=IFCSIUNIT(*,.LENGTHUNIT.,$,.METRE.);
#8=IFCSIUNIT(*,.TIMEUNIT.,$,.SECOND.);
#9=IFCUNITASSIGNMENT((#7,#8));
#10=IFCCARTESIANPOINT((0.,0.,0.));
#11=IFCAXIS2PLACEMENT3D(#10,$,$);
#12=IFCGEOMETRICREPRESENTATIONCONTEXT($,'Plan',3,1.0E-05,#11,$);
#13=IFCPROJECT('aXrXap6volbXgh6Hbb6dHL',#6,'Amstelveen Municipal Sports Hall','Multifunctional sports hall with three courts and a grandstand',$,$,$,(#12),#9);
#14=IFCTIMEPERIOD('07:00:00','16:00:00');
#15=IFCRECURRENCEPATTERN(.WEEKLY.,$,(1,2,3,4,5),$,$,$,$,(#14));
#16=IFCWORKTIME('Standard work week',.PREDICTED.,$,#15,$,$);
#17=IFCWORKTIME('New Year''s Day',.PREDICTED.,$,$,'2027-01-01','2027-01-01');
#18=IFCWORKTIME('Good Friday',.PREDICTED.,$,$,'2027-03-26','2027-03-26');
#19=IFCWORKTIME('Easter',.PREDICTED.,$,$,'2027-03-28','2027-03-29');
#20=IFCWORKTIME('King''s Day',.PREDICTED.,$,$,'2027-04-27','2027-04-27');
#21=IFCWORKTIME('Liberation Day',.PREDICTED.,$,$,'2027-05-05','2027-05-05');
#22=IFCWORKTIME('Ascension Day',.PREDICTED.,$,$,'2027-05-06','2027-05-06');
#23=IFCWORKTIME('Whitsun',.PREDICTED.,$,$,'2027-05-16','2027-05-17');
#24=IFCWORKTIME('Christmas',.PREDICTED.,$,$,'2027-12-25','2027-12-26');
#25=IFCWORKTIME('Construction holiday (northern region)',.PREDICTED.,$,$,'2027-07-26','2027-08-15');
#26=IFCWORKTIME('New Year''s Day',.PREDICTED.,$,$,'2028-01-01','2028-01-01');
#27=IFCWORKTIME('Good Friday',.PREDICTED.,$,$,'2028-04-14','2028-04-14');
#28=IFCWORKTIME('Easter',.PREDICTED.,$,$,'2028-04-16','2028-04-17');
#29=IFCWORKTIME('King''s Day',.PREDICTED.,$,$,'2028-04-27','2028-04-27');
#30=IFCWORKTIME('Liberation Day',.PREDICTED.,$,$,'2028-05-05','2028-05-05');
#31=IFCWORKTIME('Ascension Day',.PREDICTED.,$,$,'2028-05-25','2028-05-25');
#32=IFCWORKTIME('Whitsun',.PREDICTED.,$,$,'2028-06-04','2028-06-05');
#33=IFCWORKTIME('Christmas',.PREDICTED.,$,$,'2028-12-25','2028-12-26');
#34=IFCWORKTIME('Construction holiday (northern region)',.PREDICTED.,$,$,'2028-07-24','2028-08-13');
#35=IFCWORKCALENDAR('_HlbW$VPl1Yxnv_nBDbFBd',#6,'Construction calendar NL','Standard construction calendar: Mon-Fri 07:00-16:00',$,(#16),(#17,#18,#19,#20,#21,#22,#23,#24,#25,#26,#27,#28,#29,#30,#31,#32,#33,#34),.FIRSTSHIFT.);
#36=IFCWORKPLAN('K74rTb6VNnnDe11XoJk1cn',#6,'Amstelveen Municipal Sports Hall','Multifunctional sports hall with three courts and a grandstand',$,$,'2026-07-28T14:38:23',$,$,$,$,$,'2027-03-01T07:00:00','2027-03-19T07:00:00',.PLANNED.);
#37=IFCWORKSCHEDULE('tN6DVfOdDbBnrvAlS9wdPd',#6,'Construction schedule v1.0',$,$,$,'2026-07-28T14:38:23',$,$,$,$,$,'2027-03-01T07:00:00','2027-03-19T07:00:00',.PLANNED.);
#38=IFCRELAGGREGATES('X$Ph9TPtbVDd8te$ftI1sz',#6,$,$,#36,(#37));
#39=IFCTASKTIME('1. Preparation Time',.PREDICTED.,$,.WORKTIME.,'P0Y0M5D','2027-03-01T07:00:00','2027-03-05T07:00:00','2027-03-01T07:00:00','2027-03-15T07:00:00','2027-03-01T07:00:00','2027-09-13T07:00:00','P0Y0M0D','P0Y0M0D',.T.,$,$,$,$,$,0.0);
#40=IFCTASK('bb0t2hSlDP7LQnv$I1pdFb',#6,'1. Preparation',$,$,'1',$,$,$,.F.,$,#39,.CONSTRUCTION.);
#41=IFCTASKTIME('Set up site Time',.PREDICTED.,$,.WORKTIME.,'P0Y0M5D','2027-03-01T07:00:00','2027-03-05T07:00:00','2027-03-01T07:00:00','2027-03-05T07:00:00','2027-03-01T07:00:00','2027-03-05T07:00:00','P0Y0M0D','P0Y0M0D',.T.,$,$,$,$,$,0.0);
#42=IFCTASK('Y3ahRxNfAhvD8Hv1ZzmfIv',#6,'Set up site',$,$,'1.1',$,$,$,.F.,$,#41,.LOGISTIC.);
#43=IFCTASKTIME('Earthworks, site preparation Time',.PREDICTED.,$,.WORKTIME.,'P0Y0M5D','2027-03-01T07:00:00','2027-03-05T07:00:00','2027-03-08T07:00:00','2027-03-12T07:00:00','2027-09-06T07:00:00','2027-09-10T07:00:00','P0Y0M0D','P0Y0M109D',.F.,$,$,$,$,$,0.0);
#44=IFCTASK('0lNjj3pVlDePCLUnzDMT$J',#6,'Earthworks, site preparation',$,$,'1.2',$,$,$,.F.,$,#43,.CONSTRUCTION.);
#45=IFCTASKTIME('Start of construction Time',.PREDICTED.,$,.WORKTIME.,'P0Y0M0D','2027-03-01T07:00:00','2027-03-01T07:00:00','2027-03-15T07:00:00','2027-03-15T07:00:00','2027-09-13T07:00:00','2027-09-13T07:00:00','P0Y0M109D','P0Y0M109D',.F.,$,$,$,$,$,0.0);
#46=IFCTASK('R1fbezLlpd9bdHDlRbgfIr',#6,'Start of construction',$,$,'1.3',$,$,$,.T.,$,#45,.CONSTRUCTION.);
#47=IFCTASKTIME('2. Foundations Time',.PREDICTED.,$,.WORKTIME.,'P0Y0M5D','2027-03-01T07:00:00','2027-03-05T07:00:00','2027-03-08T07:00:00','2027-04-14T07:00:00','2027-03-08T07:00:00','2027-09-13T07:00:00','P0Y0M0D','P0Y0M0D',.T.,$,$,$,$,$,0.0);
#48=IFCTASK('vn9DlXRVzl0nZhcHpBZt09',#6,'2. Foundations',$,$,'2',$,$,$,.F.,$,#47,.CONSTRUCTION.);
#49=IFCTASKTIME('Drive piles Time',.PREDICTED.,$,.WORKTIME.,'P0Y0M10D','2027-03-01T07:00:00','2027-03-12T07:00:00','2027-03-08T07:00:00','2027-03-19T07:00:00','2027-03-08T07:00:00','2027-03-19T07:00:00','P0Y0M0D','P0Y0M0D',.T.,$,$,$,$,$,0.0);
#50=IFCTASK('zlXhBZWtdJIhIRClEF390f',#6,'Drive piles',$,$,'2.1',$,$,$,.F.,$,#49,.CONSTRUCTION.);
#51=IFCTASKTIME('Foundation beams Time',.PREDICTED.,$,.WORKTIME.,'P0Y0M8D','2027-03-01T07:00:00','2027-03-10T07:00:00','2027-03-22T07:00:00','2027-04-02T07:00:00','2027-08-23T07:00:00','2027-09-01T07:00:00','P0Y0M0D','P0Y0M89D',.F.,$,$,$,$,$,0.0);
#52=IFCTASK('xLAZSDQvyFNxhznXJ5LV09',#6,'Foundation beams',$,$,'2.2',$,$,$,.F.,$,#51,.CONSTRUCTION.);
#53=IFCTASKTIME('Ground floor slab on piles Time',.PREDICTED.,$,.WORKTIME.,'P0Y0M8D','2027-03-01T07:00:00','2027-03-10T07:00:00','2027-04-05T07:00:00','2027-04-14T07:00:00','2027-09-02T07:00:00','2027-09-13T07:00:00','P0Y0M89D','P0Y0M89D',.F.,$,$,$,$,$,0.0);
#54=IFCTASK('HNundNd9bX5V2DnXVH$Jk7',#6,'Ground floor slab on piles',$,$,'2.3',$,$,$,.F.,$,#53,.CONSTRUCTION.);
#55=IFCTASKTIME('3. Structure Time',.PREDICTED.,$,.WORKTIME.,'P0Y0M5D','2027-03-01T07:00:00','2027-03-05T07:00:00','2027-03-12T07:00:00','2027-05-14T07:00:00','2027-03-12T07:00:00','2027-09-13T07:00:00','P0Y0M0D','P0Y0M0D',.T.,$,$,$,$,$,0.0);
#56=IFCTASK('9DHR0FT1M7Bn1Bs$xryTj3',#6,'3. Structure',$,$,'3',$,$,$,.F.,$,#55,.CONSTRUCTION.);
#57=IFCTASKTIME('Structural steel trusses Time',.PREDICTED.,$,.WORKTIME.,'P0Y0M15D','2027-03-01T07:00:00','2027-03-19T07:00:00','2027-03-12T07:00:00','2027-04-05T07:00:00','2027-03-12T07:00:00','2027-04-05T07:00:00','P0Y0M0D','P0Y0M0D',.T.,$,$,$,$,$,0.0);
#58=IFCTASK('qBVL$7k95FnDiRynzj6Pr7',#6,'Structural steel trusses',$,$,'3.1',$,$,$,.F.,$,#57,.CONSTRUCTION.);
#59=IFCTASKTIME('Steel columns Time',.PREDICTED.,$,.WORKTIME.,'P0Y0M8D','2027-03-01T07:00:00','2027-03-10T07:00:00','2027-04-06T07:00:00','2027-04-15T07:00:00','2027-04-06T07:00:00','2027-04-15T07:00:00','P0Y0M0D','P0Y0M0D',.T.,$,$,$,$,$,0.0);
#60=IFCTASK('0ltD9zJXHVMn$rkV6NERxh',#6,'Steel columns',$,$,'3.2',$,$,$,.F.,$,#59,.CONSTRUCTION.);
#61=IFCTASKTIME('Concrete grandstand structure Time',.PREDICTED.,$,.WORKTIME.,'P0Y0M10D','2027-03-01T07:00:00','2027-03-12T07:00:00','2027-04-16T07:00:00','2027-04-30T07:00:00','2027-04-16T07:00:00','2027-04-30T07:00:00','P0Y0M0D','P0Y0M0D',.T.,$,$,$,$,$,0.0);
#62=IFCTASK('aZelnn5na$lr4Ne1ats9mX',#6,'Concrete grandstand structure',$,$,'3.3',$,$,$,.F.,$,#61,.CONSTRUCTION.);
#63=IFCTASKTIME('Install roof beams Time',.PREDICTED.,$,.WORKTIME.,'P0Y0M8D','2027-03-01T07:00:00','2027-03-10T07:00:00','2027-05-03T07:00:00','2027-05-14T07:00:00','2027-05-03T07:00:00','2027-05-14T07:00:00','P0Y0M0D','P0Y0M0D',.T.,$,$,$,$,$,0.0);
#64=IFCTASK('3FZfujL1UPq5dZFXtztz7R',#6,'Install roof beams',$,$,'3.4',$,$,$,.F.,$,#63,.CONSTRUCTION.);
#65=IFCTASKTIME('Topping out Time',.PREDICTED.,$,.WORKTIME.,'P0Y0M0D','2027-03-01T07:00:00','2027-03-01T07:00:00','2027-05-14T07:00:00','2027-05-14T07:00:00','2027-09-13T07:00:00','2027-09-13T07:00:00','P0Y0M70D','P0Y0M70D',.F.,$,$,$,$,$,0.0);
#66=IFCTASK('SXZNCbpnox$TtLgHYPSraf',#6,'Topping out',$,$,'3.5',$,$,$,.T.,$,#65,.CONSTRUCTION.);
#67=IFCTASKTIME('4. Facade & roof Time',.PREDICTED.,$,.WORKTIME.,'P0Y0M5D','2027-03-01T07:00:00','2027-03-05T07:00:00','2027-05-03T07:00:00','2027-06-14T07:00:00','2027-05-03T07:00:00','2027-09-13T07:00:00','P0Y0M0D','P0Y0M0D',.T.,$,$,$,$,$,0.0);
#68=IFCTASK('h37rXD_NwnSB8FjF$$LHLJ',#6,'4. Facade & roof',$,$,'4',$,$,$,.F.,$,#67,.CONSTRUCTION.);
#69=IFCTASKTIME('Roof deck insulation Time',.PREDICTED.,$,.WORKTIME.,'P0Y0M8D','2027-03-01T07:00:00','2027-03-10T07:00:00','2027-05-03T07:00:00','2027-05-14T07:00:00','2027-05-03T07:00:00','2027-05-14T07:00:00','P0Y0M0D','P0Y0M0D',.T.,$,$,$,$,$,0.0);
#70=IFCTASK('zl9D7LiXJN3f3v_FlhFh6V',#6,'Roof deck insulation',$,$,'4.1',$,$,$,.F.,$,#69,.INSTALLATION.);
#71=IFCTASKTIME('Bituminous roofing Time',.PREDICTED.,$,.WORKTIME.,'P0Y0M5D','2027-03-01T07:00:00','2027-03-05T07:00:00','2027-05-18T07:00:00','2027-05-24T07:00:00','2027-05-18T07:00:00','2027-05-24T07:00:00','P0Y0M0D','P0Y0M0D',.T.,$,$,$,$,$,0.0);
#72=IFCTASK('rJb1EZ9NkVLlbBoXK$P5$D',#6,'Bituminous roofing',$,$,'4.2',$,$,$,.F.,$,#71,.CONSTRUCTION.);
#73=IFCTASKTIME('Facade panels Time',.PREDICTED.,$,.WORKTIME.,'P0Y0M10D','2027-03-01T07:00:00','2027-03-12T07:00:00','2027-05-25T07:00:00','2027-06-07T07:00:00','2027-05-25T07:00:00','2027-06-07T07:00:00','P0Y0M0D','P0Y0M0D',.T.,$,$,$,$,$,0.0);
#74=IFCTASK('L39xcNmfufBFzRWVh3Vb$N',#6,'Facade panels',$,$,'4.3',$,$,$,.F.,$,#73,.INSTALLATION.);
#75=IFCTASKTIME('Entrance screens Time',.PREDICTED.,$,.WORKTIME.,'P0Y0M5D','2027-03-01T07:00:00','2027-03-05T07:00:00','2027-06-08T07:00:00','2027-06-14T07:00:00','2027-06-08T07:00:00','2027-06-14T07:00:00','P0Y0M0D','P0Y0M0D',.T.,$,$,$,$,$,0.0);
#76=IFCTASK('3jEbm9qFevjf$$nV9zlBS9',#6,'Entrance screens',$,$,'4.4',$,$,$,.F.,$,#75,.INSTALLATION.);
#77=IFCTASKTIME('Wind and weathertight Time',.PREDICTED.,$,.WORKTIME.,'P0Y0M0D','2027-03-01T07:00:00','2027-03-01T07:00:00','2027-06-14T07:00:00','2027-06-14T07:00:00','2027-09-13T07:00:00','2027-09-13T07:00:00','P0Y0M50D','P0Y0M50D',.F.,$,$,$,$,$,0.0);
#78=IFCTASK('EBn5wv2NcVsHBJrnnNUL_z',#6,'Wind and weathertight',$,$,'4.5',$,$,$,.T.,$,#77,.CONSTRUCTION.);
#79=IFCTASKTIME('5. Sports floor & services Time',.PREDICTED.,$,.WORKTIME.,'P0Y0M5D','2027-03-01T07:00:00','2027-03-05T07:00:00','2027-06-15T07:00:00','2027-08-24T07:00:00','2027-06-15T07:00:00','2027-09-13T07:00:00','P0Y0M0D','P0Y0M0D',.T.,$,$,$,$,$,0.0);
#80=IFCTASK('VXxF$3KV3luvIH1XyLNZtF',#6,'5. Sports floor & services',$,$,'5',$,$,$,.F.,$,#79,.CONSTRUCTION.);
#81=IFCTASKTIME('Sports floor sub-base Time',.PREDICTED.,$,.WORKTIME.,'P0Y0M10D','2027-03-01T07:00:00','2027-03-12T07:00:00','2027-06-15T07:00:00','2027-06-28T07:00:00','2027-06-15T07:00:00','2027-06-28T07:00:00','P0Y0M0D','P0Y0M0D',.T.,$,$,$,$,$,0.0);
#82=IFCTASK('0l7TezLl$LHBqF1VEnjvHF',#6,'Sports floor sub-base',$,$,'5.1',$,$,$,.F.,$,#81,.CONSTRUCTION.);
#83=IFCTASKTIME('Sports floor top layer Time',.PREDICTED.,$,.WORKTIME.,'P0Y0M8D','2027-03-01T07:00:00','2027-03-10T07:00:00','2027-06-29T07:00:00','2027-07-08T07:00:00','2027-07-19T07:00:00','2027-08-18T07:00:00','P0Y0M0D','P0Y0M14D',.F.,$,$,$,$,$,0.0);
#84=IFCTASK('H5ljvv$P1h7padEVGn3tiD',#6,'Sports floor top layer',$,$,'5.2',$,$,$,.F.,$,#83,.INSTALLATION.);
#85=IFCTASKTIME('Sports lighting Time',.PREDICTED.,$,.WORKTIME.,'P0Y0M5D','2027-03-01T07:00:00','2027-03-05T07:00:00','2027-07-09T07:00:00','2027-07-15T07:00:00','2027-08-19T07:00:00','2027-08-25T07:00:00','P0Y0M0D','P0Y0M14D',.F.,$,$,$,$,$,0.0);
#86=IFCTASK('$jM3Qta$2ZSjIlv$5F7pe3',#6,'Sports lighting',$,$,'5.3',$,$,$,.F.,$,#85,.INSTALLATION.);
#87=IFCTASKTIME('HVAC installation Time',.PREDICTED.,$,.WORKTIME.,'P0Y0M10D','2027-03-01T07:00:00','2027-03-12T07:00:00','2027-07-16T07:00:00','2027-08-19T07:00:00','2027-08-26T07:00:00','2027-09-08T07:00:00','P0Y0M0D','P0Y0M14D',.F.,$,$,$,$,$,0.0);
#88=IFCTASK('gTjvR1ffI$Fh27kn0dKJo9',#6,'HVAC installation',$,$,'5.4',$,$,$,.F.,$,#87,.INSTALLATION.);
#89=IFCTASKTIME('Scoreboards and AV Time',.PREDICTED.,$,.WORKTIME.,'P0Y0M3D','2027-03-01T07:00:00','2027-03-03T07:00:00','2027-08-20T07:00:00','2027-08-24T07:00:00','2027-09-09T07:00:00','2027-09-13T07:00:00','P0Y0M14D','P0Y0M14D',.F.,$,$,$,$,$,0.0);
#90=IFCTASK('V$nDFlFPnzIdyTpnjNA33P',#6,'Scoreboards and AV',$,$,'5.5',$,$,$,.F.,$,#89,.INSTALLATION.);
#91=IFCTASKTIME('6. Fit-out Time',.PREDICTED.,$,.WORKTIME.,'P0Y0M5D','2027-03-01T07:00:00','2027-03-05T07:00:00','2027-07-09T07:00:00','2027-08-27T07:00:00','2027-07-09T07:00:00','2027-08-27T07:00:00','P0Y0M0D','P0Y0M0D',.T.,$,$,$,$,$,0.0);
#92=IFCTASK('mtSLHXDnYj2bdHjl7RA90f',#6,'6. Fit-out',$,$,'6',$,$,$,.F.,$,#91,.CONSTRUCTION.);
#93=IFCTASKTIME('Changing room fit-out Time',.PREDICTED.,$,.WORKTIME.,'P0Y0M8D','2027-03-01T07:00:00','2027-03-10T07:00:00','2027-07-09T07:00:00','2027-07-20T07:00:00','2027-07-09T07:00:00','2027-07-20T07:00:00','P0Y0M0D','P0Y0M0D',.T.,$,$,$,$,$,0.0);
#94=IFCTASK('b1lJtXIHZjSj_jjlpLNZnx',#6,'Changing room fit-out',$,$,'6.1',$,$,$,.F.,$,#93,.CONSTRUCTION.);
#95=IFCTASKTIME('Sanitary fittings and showers Time',.PREDICTED.,$,.WORKTIME.,'P0Y0M5D','2027-03-01T07:00:00','2027-03-05T07:00:00','2027-07-21T07:00:00','2027-08-17T07:00:00','2027-07-21T07:00:00','2027-08-17T07:00:00','P0Y0M0D','P0Y0M0D',.T.,$,$,$,$,$,0.0);
#96=IFCTASK('1Hd36TW9TjiRrds$HLt3Z9',#6,'Sanitary fittings and showers',$,$,'6.2',$,$,$,.F.,$,#95,.INSTALLATION.);
#97=IFCTASKTIME('Entrance hall finishes Time',.PREDICTED.,$,.WORKTIME.,'P0Y0M5D','2027-03-01T07:00:00','2027-03-05T07:00:00','2027-08-18T07:00:00','2027-08-24T07:00:00','2027-08-18T07:00:00','2027-08-24T07:00:00','P0Y0M0D','P0Y0M0D',.T.,$,$,$,$,$,0.0);
#98=IFCTASK('SZGdtZ1v_tUxx58$6N6JoN',#6,'Entrance hall finishes',$,$,'6.3',$,$,$,.F.,$,#97,.CONSTRUCTION.);
#99=IFCTASKTIME('Sports pitch line marking Time',.PREDICTED.,$,.WORKTIME.,'P0Y0M3D','2027-03-01T07:00:00','2027-03-03T07:00:00','2027-08-25T07:00:00','2027-08-27T07:00:00','2027-08-25T07:00:00','2027-08-27T07:00:00','P0Y0M0D','P0Y0M0D',.T.,$,$,$,$,$,0.0);
#100=IFCTASK('S$9xEVElt1lBmLIn0PyLIr',#6,'Sports pitch line marking',$,$,'6.4',$,$,$,.F.,$,#99,.INSTALLATION.);
#101=IFCTASKTIME('7. Handover Time',.PREDICTED.,$,.WORKTIME.,'P0Y0M5D','2027-03-01T07:00:00','2027-03-05T07:00:00','2027-08-30T07:00:00','2027-09-13T07:00:00','2027-08-30T07:00:00','2027-09-13T07:00:00','P0Y0M0D','P0Y0M0D',.T.,$,$,$,$,$,0.0);
#102=IFCTASK('zFjdH$H7ijqT11f1hP0vPL',#6,'7. Handover',$,$,'7',$,$,$,.F.,$,#101,.CONSTRUCTION.);
#103=IFCTASKTIME('External areas and parking Time',.PREDICTED.,$,.WORKTIME.,'P0Y0M8D','2027-03-01T07:00:00','2027-03-10T07:00:00','2027-08-30T07:00:00','2027-09-08T07:00:00','2027-08-30T07:00:00','2027-09-08T07:00:00','P0Y0M0D','P0Y0M0D',.T.,$,$,$,$,$,0.0);
#104=IFCTASK('vBY$o12f_z0nrd2VBjnZbV',#6,'External areas and parking',$,$,'7.1',$,$,$,.F.,$,#103,.CONSTRUCTION.);
#105=IFCTASKTIME('Test building services Time',.PREDICTED.,$,.WORKTIME.,'P0Y0M3D','2027-03-01T07:00:00','2027-03-03T07:00:00','2027-09-09T07:00:00','2027-09-13T07:00:00','2027-09-09T07:00:00','2027-09-13T07:00:00','P0Y0M0D','P0Y0M0D',.T.,$,$,$,$,$,0.0);
#106=IFCTASK('FLhldR6X5xPBCBUVpL93RR',#6,'Test building services',$,$,'7.2',$,$,$,.F.,$,#105,.ATTENDANCE.);
#107=IFCTASKTIME('Handover Time',.PREDICTED.,$,.WORKTIME.,'P0Y0M0D','2027-03-01T07:00:00','2027-03-01T07:00:00','2027-09-13T07:00:00','2027-09-13T07:00:00','2027-09-13T07:00:00','2027-09-13T07:00:00','P0Y0M0D','P0Y0M0D',.T.,$,$,$,$,$,0.0);
#108=IFCTASK('s9_XyZ876naJUTZFUBpdTx',#6,'Handover',$,$,'7.3',$,$,$,.T.,$,#107,.CONSTRUCTION.);
#109=IFCRELNESTS('K74Z8BmN45PruNCFqzmtCn',#6,'WBS 1. Preparation',$,#40,( #42,#44,#46));
#110=IFCRELNESTS('0FZNmNOd9hDdWJP1jfEbT9',#6,'WBS 2. Foundations',$,#48,( #50,#52,#54));
#111=IFCRELNESTS('2Fb1oZFPB3GV61zF8Zpd7f',#6,'WBS 3. Structure',$,#56,( #58,#60,#62,#64,#66));
#112=IFCRELNESTS('S1FD37dtz3YNdzplnx39Wv',#6,'WBS 4. Facade & roof',$,#68,( #70,#72,#74,#76,#78));
#113=IFCRELNESTS('cRWf0FJXDRBFV5mVMhm9ip',#6,'WBS 5. Sports floor & services',$,#80,( #82,#84,#86,#88,#90));
#114=IFCRELNESTS('tj39cJcVDxf57jP1PFPjsP',#6,'WBS 6. Fit-out',$,#92,( #94,#96,#98,#100));
#115=IFCRELNESTS('yjM36vk99LpP03pHvVjv9p',#6,'WBS 7. Handover',$,#102,( #104,#106,#108));
#116=IFCRELNESTS('tjjP5r1vgdnD4TBHzDgTrv',#6,'WBS Hoofd',$,#37,(#40,#48,#56,#68,#80,#92,#102));
#117=IFCRELSEQUENCE('L7ShdbA1CzAH5xmXA5Qpyr',#6,$,$,#42,#44,$,.FINISH_START.,$);
#118=IFCRELSEQUENCE('FBtDJXkHFFqTjXd$pPqDKV',#6,$,$,#44,#46,$,.FINISH_START.,$);
#119=IFCRELSEQUENCE('X1NbGPwXTVw$0ZP18ByZZb',#6,$,$,#50,#52,$,.FINISH_START.,$);
#120=IFCRELSEQUENCE('f7yZ41I9NRbVErQ$EnpPrv',#6,$,$,#52,#54,$,.FINISH_START.,$);
#121=IFCRELSEQUENCE('fdGv$zS$k$t3lzlVtd07hj',#6,$,$,#58,#60,$,.FINISH_START.,$);
#122=IFCRELSEQUENCE('cVRHpnKXv9cpqHLF1381YH',#6,$,$,#60,#62,$,.FINISH_START.,$);
#123=IFCRELSEQUENCE('rtA7TRolRBdJ_pHVznRF$j',#6,$,$,#62,#64,$,.FINISH_START.,$);
#124=IFCRELSEQUENCE('vnHb4TOvarJ7Yt8$BtoVql',#6,$,$,#64,#66,$,.FINISH_START.,$);
#125=IFCRELSEQUENCE('5FXLvLy1GTajIFzFOxI5f$',#6,$,$,#70,#72,$,.FINISH_START.,$);
#126=IFCRELSEQUENCE('I59x2vffoxdrm5yHLPuF9n',#6,$,$,#72,#74,$,.FINISH_START.,$);
#127=IFCRELSEQUENCE('A9kHX9KX$rpPWDrHt3vDOh',#6,$,$,#74,#76,$,.FINISH_START.,$);
#128=IFCRELSEQUENCE('vH5VCbxVDRTdKVnVR1FTht',#6,$,$,#76,#78,$,.FINISH_START.,$);
#129=IFCRELSEQUENCE('uL_BDpHvWbLHBJBn9Trn9H',#6,$,$,#82,#84,$,.FINISH_START.,$);
#130=IFCRELSEQUENCE('4l5VO3xFqvWHDFP$0vm9i$',#6,$,$,#84,#86,$,.FINISH_START.,$);
#131=IFCRELSEQUENCE('4pU1U5sPJht3t9anFxLVWv',#6,$,$,#86,#88,$,.FINISH_START.,$);
#132=IFCRELSEQUENCE('uDVh$PYFwlOdGrA$PnHBCH',#6,$,$,#88,#90,$,.FINISH_START.,$);
#133=IFCRELSEQUENCE('xHBnFL31S1VRzxCF8ZrFb1',#6,$,$,#94,#96,$,.FINISH_START.,$);
#134=IFCRELSEQUENCE('TX5n7dJn4xvhQzplPFlBOh',#6,$,$,#96,#98,$,.FINISH_START.,$);
#135=IFCRELSEQUENCE('wrIlvhqFCZ6jU9u1Bt_lvR',#6,$,$,#98,#100,$,.FINISH_START.,$);
#136=IFCRELSEQUENCE('1nrFNlGfgPdrKVP$DParGH',#6,$,$,#104,#106,$,.FINISH_START.,$);
#137=IFCRELSEQUENCE('bRG7zLy$0hJ7_pv$6NMT$J',#6,$,$,#106,#108,$,.FINISH_START.,$);
#138=IFCLAGTIME('Lag',.PREDICTED.,$,IFCDURATION('P5D'),.WORKTIME.);
#139=IFCRELSEQUENCE('JN0t2LSHV5dBOPkXwt6PfV',#6,$,$,#42,#50,#138,.START_START.,$);
#140=IFCLAGTIME('Lag',.PREDICTED.,$,IFCRATIOMEASURE(0.4),.WORKTIME.);
#141=IFCRELSEQUENCE('LZ3tc9iXFz61qnv1oHtreL',#6,$,$,#50,#58,#140,.START_START.,$);
#142=IFCLAGTIME('Lag',.PREDICTED.,$,IFCDURATION('-P8D'),.WORKTIME.);
#143=IFCRELSEQUENCE('j9Shj1I9JhVR1LknC3u$w5',#6,$,$,#64,#70,#142,.FINISH_START.,$);
#144=IFCLAGTIME('Lag',.PREDICTED.,$,IFCDURATION('P2D'),.WORKTIME.);
#145=IFCRELSEQUENCE('k5PLnHFdVRBFrvQlNJVpqH',#6,$,$,#64,#76,#144,.FINISH_FINISH.,$);
#146=IFCRELSEQUENCE('TTG7zhKnArBnzRmVKjUFnx',#6,$,$,#76,#82,$,.FINISH_START.,$);
#147=IFCLAGTIME('Lag',.PREDICTED.,$,IFCDURATION('P18D'),.WORKTIME.);
#148=IFCRELSEQUENCE('iPG7VpYfCZUxj$ZnEFRFT5',#6,$,$,#82,#94,#147,.START_START.,$);
#149=IFCRELSEQUENCE('a3qxc9a1MPtRpZVX8rK5f1',#6,$,$,#100,#104,$,.FINISH_START.,$);
#150=IFCRELASSIGNSTOCONTROL('rDVhNjbXHjyDCF$VkTSruD',#6,$,$,(#40,#42,#44,#46,#48,#50,#52,#54,#56,#58,#60,#62,#64,#66,#68,#70,#72,#74,#76,#78,#80,#82,#84,#86,#88,#90,#92,#94,#96,#98,#100,#102,#104,#106,#108),$,#37);
#151=IFCPROPERTYSINGLEVALUE('wbsAutoNumber',$,IFCBOOLEAN(.T.),$);
#152=IFCPROPERTYSINGLEVALUE('ProjectStartDate',$,IFCDATE('2027-03-01'),$);
#153=IFCPROPERTYSINGLEVALUE('ProjectEndDate',$,$,$);
#154=IFCPROPERTYSINGLEVALUE('CreatedAt',$,IFCTEXT('2026-07-28T14:38:23.879Z'),$);
#155=IFCPROPERTYSINGLEVALUE('ModifiedAt',$,IFCTEXT('2026-07-28T14:38:23.879Z'),$);
#156=IFCPROPERTYSET('e5a3ArlP$tNZvpDF1ZK5n5',#6,'OPS_ProjectSettings',$,(#151,#152,#153,#154,#155));
#157=IFCRELDEFINESBYPROPERTIES('0Hdzo1sPJhdjQlBF$1BF9l',#6,$,$,(#13),#156);
#158=IFCPROPERTYSINGLEVALUE('MilestoneKind',$,IFCLABEL('START'),$);
#159=IFCPROPERTYSET('vhobaD67AfT9V5GXUBxXSN',#6,'OPS_Milestone',$,(#158));
#160=IFCRELDEFINESBYPROPERTIES('kNm71T8djNb1KXN12tI$Ad',#6,$,$,(#46),#159);
#161=IFCPROPERTYSINGLEVALUE('MilestoneKind',$,IFCLABEL('FINISH'),$);
#162=IFCPROPERTYSET('uB69IDfNMb376DJFpLHrSt',#6,'OPS_Milestone',$,(#161));
#163=IFCRELDEFINESBYPROPERTIES('HfG7r7UfCZYxrjJlt3NZT5',#6,$,$,(#66),#162);
#164=IFCPROPERTYSINGLEVALUE('MilestoneKind',$,IFCLABEL('FINISH'),$);
#165=IFCPROPERTYSET('YVz9U9z1KjaByNO1ydGfMt',#6,'OPS_Milestone',$,(#164));
#166=IFCRELDEFINESBYPROPERTIES('xBgdNpNfILpd494F3Jk$_V',#6,$,$,(#78),#165);
#167=IFCPROPERTYSINGLEVALUE('MilestoneKind',$,IFCLABEL('FINISH'),$);
#168=IFCPROPERTYSINGLEVALUE('Mandatory',$,IFCBOOLEAN(.T.),$);
#169=IFCPROPERTYSET('spdzsrldvZ4L_vAlqFdj_X',#6,'OPS_Milestone',$,(#167,#168));
#170=IFCRELDEFINESBYPROPERTIES('TXjv7dzH7ZSJIb4nldi5BP',#6,$,$,(#108),#169);
ENDSEC;
END-ISO-10303-21;
