ISO-10303-21;
HEADER;
FILE_DESCRIPTION(('ViewDefinition [SchedulingView]'),'2;1');
FILE_NAME('Offshore Wind Turbine Foundation.ifc','2026-08-14T08:19:55',('Freek de Wind'),('North Sea Energy BV'),'Open Planner Studio 0.1','Open Planner Studio','');
FILE_SCHEMA(('IFC4X3'));
ENDSEC;
DATA;
#1=IFCPERSON($,'Freek de Wind',$,$,$,$,$,$);
#2=IFCORGANIZATION($,'North Sea Energy BV',$,$,$);
#3=IFCPERSONANDORGANIZATION(#1,#2,$);
#4=IFCORGANIZATION($,'OpenAEC Foundation',$,$,$);
#5=IFCAPPLICATION(#4,'0.1','Open Planner Studio','OPS');
#6=IFCOWNERHISTORY(#3,#5,$,.NOCHANGE.,$,$,$,1786695595);
#7=IFCSIUNIT(*,.LENGTHUNIT.,$,.METRE.);
#8=IFCSIUNIT(*,.TIMEUNIT.,$,.SECOND.);
#9=IFCUNITASSIGNMENT((#7,#8));
#10=IFCCARTESIANPOINT((0.,0.,0.));
#11=IFCAXIS2PLACEMENT3D(#10,$,$);
#12=IFCGEOMETRICREPRESENTATIONCONTEXT($,'Plan',3,1.0E-05,#11,$);
#13=IFCPROJECT('qrXL$7APtLhlPTVVuT3fEb',#6,'Offshore Wind Turbine Foundation','Monopile foundation for a 15 MW offshore wind turbine',$,$,$,(#12),#9);
#14=IFCTIMEPERIOD('07:00:00','16:00:00');
#15=IFCRECURRENCEPATTERN(.WEEKLY.,$,(1,2,3,4,5,6),$,$,$,$,(#14));
#16=IFCWORKTIME('Standard work week',.PREDICTED.,$,#15,$,$);
#17=IFCWORKTIME('New Year''s Day',.PREDICTED.,$,$,'2027-01-01','2027-01-01');
#18=IFCWORKTIME('Good Friday',.PREDICTED.,$,$,'2027-03-26','2027-03-26');
#19=IFCWORKTIME('Easter',.PREDICTED.,$,$,'2027-03-28','2027-03-29');
#20=IFCWORKTIME('King''s Day',.PREDICTED.,$,$,'2027-04-27','2027-04-27');
#21=IFCWORKTIME('Liberation Day',.PREDICTED.,$,$,'2027-05-05','2027-05-05');
#22=IFCWORKTIME('Ascension Day',.PREDICTED.,$,$,'2027-05-06','2027-05-06');
#23=IFCWORKTIME('Whitsun',.PREDICTED.,$,$,'2027-05-16','2027-05-17');
#24=IFCWORKTIME('Christmas',.PREDICTED.,$,$,'2027-12-25','2027-12-26');
#25=IFCWORKTIME('Construction holiday (northern region)',.PREDICTED.,$,$,'2027-07-26','2027-08-15');
#26=IFCWORKTIME('New Year''s Day',.PREDICTED.,$,$,'2028-01-01','2028-01-01');
#27=IFCWORKTIME('Good Friday',.PREDICTED.,$,$,'2028-04-14','2028-04-14');
#28=IFCWORKTIME('Easter',.PREDICTED.,$,$,'2028-04-16','2028-04-17');
#29=IFCWORKTIME('King''s Day',.PREDICTED.,$,$,'2028-04-27','2028-04-27');
#30=IFCWORKTIME('Liberation Day',.PREDICTED.,$,$,'2028-05-05','2028-05-05');
#31=IFCWORKTIME('Ascension Day',.PREDICTED.,$,$,'2028-05-25','2028-05-25');
#32=IFCWORKTIME('Whitsun',.PREDICTED.,$,$,'2028-06-04','2028-06-05');
#33=IFCWORKTIME('Christmas',.PREDICTED.,$,$,'2028-12-25','2028-12-26');
#34=IFCWORKTIME('Construction holiday (northern region)',.PREDICTED.,$,$,'2028-07-24','2028-08-13');
#35=IFCWORKCALENDAR('_HlbW$VPl1Yxnv_nBDbFBd',#6,'Infrastructure calendar Mon-Sat','Infrastructure/hydraulic works: Mon-Sat',$,(#16),(#17,#18,#19,#20,#21,#22,#23,#24,#25,#26,#27,#28,#29,#30,#31,#32,#33,#34),.FIRSTSHIFT.);
#36=IFCWORKPLAN('iRbH1P6XrTK3R1lVZ$pP5H',#6,'Offshore Wind Turbine Foundation','Monopile foundation for a 15 MW offshore wind turbine',$,$,'2026-08-14T08:19:55',$,$,$,$,$,'2027-03-01T07:00:00','2027-03-12T07:00:00',.PLANNED.);
#37=IFCWORKSCHEDULE('FBtDPbUnEbbXQzzHAVZNsz',#6,'Construction schedule v1.0',$,$,$,'2026-08-14T08:19:55',$,$,$,$,$,'2027-03-01T07:00:00','2027-03-12T07:00:00',.PLANNED.);
#38=IFCRELAGGREGATES('X$Ph9TPtbVDd8te$ftI1sz',#6,$,$,#36,(#37));
#39=IFCTASKTIME('1. Fabrication & preparation Time',.PREDICTED.,$,.WORKTIME.,'P0Y0M5D','2027-03-01T07:00:00','2027-03-05T07:00:00','2027-03-01T07:00:00','2027-04-10T07:00:00','2027-03-01T07:00:00','2027-05-19T07:00:00','P0Y0M0D','P0Y0M0D',.T.,$,$,$,$,$,0.0);
#40=IFCTASK('BtU$kHudTXIdmhkFmHFT$j',#6,'1. Fabrication & preparation',$,$,'1',$,$,$,.F.,$,#39,.CONSTRUCTION.);
#41=IFCTASKTIME('Monopile fabrication inspection Time',.PREDICTED.,$,.WORKTIME.,'P0Y0M5D','2027-03-01T07:00:00','2027-03-05T07:00:00','2027-03-01T07:00:00','2027-03-05T07:00:00','2027-03-01T07:00:00','2027-03-05T07:00:00','P0Y0M0D','P0Y0M0D',.T.,$,$,$,$,$,0.0);
#42=IFCTASK('8rMPtzLH$hdj6$JFFtYn$p',#6,'Monopile fabrication inspection',$,$,'1.1',$,$,$,.F.,$,#41,.ATTENDANCE.);
#43=IFCTASKTIME('Transition piece fabrication Time',.PREDICTED.,$,.WORKTIME.,'P0Y0M10D','2027-03-01T07:00:00','2027-03-12T07:00:00','2027-03-06T07:00:00','2027-03-17T07:00:00','2027-04-12T07:00:00','2027-04-22T07:00:00','P0Y0M0D','P0Y0M29D',.F.,$,$,$,$,$,0.0);
#44=IFCTASK('U$dhPxc7459RBP_VvVZfwX',#6,'Transition piece fabrication',$,$,'1.2',$,$,$,.F.,$,#43,.CONSTRUCTION.);
#45=IFCTASKTIME('Mobilise installation vessel Time',.PREDICTED.,$,.WORKTIME.,'P0Y0M8D','2027-03-01T07:00:00','2027-03-10T07:00:00','2027-03-18T07:00:00','2027-03-27T07:00:00','2027-04-23T07:00:00','2027-05-03T07:00:00','P0Y0M0D','P0Y0M29D',.F.,$,$,$,$,$,0.0);
#46=IFCTASK('GN8VaFy10rPjAv2ndlzfUF',#6,'Mobilise installation vessel',$,$,'1.3',$,$,$,.F.,$,#45,.LOGISTIC.);
#47=IFCTASKTIME('Seabed survey Time',.PREDICTED.,$,.WORKTIME.,'P0Y0M5D','2027-03-01T07:00:00','2027-03-05T07:00:00','2027-03-30T07:00:00','2027-04-03T07:00:00','2027-05-04T07:00:00','2027-05-11T07:00:00','P0Y0M0D','P0Y0M29D',.F.,$,$,$,$,$,0.0);
#48=IFCTASK('lRxnj3z$C3EvYtu1wp5H3d',#6,'Seabed survey',$,$,'1.4',$,$,$,.F.,$,#47,.ATTENDANCE.);
#49=IFCTASKTIME('Transport monopile Time',.PREDICTED.,$,.WORKTIME.,'P0Y0M5D','2027-03-01T07:00:00','2027-03-05T07:00:00','2027-04-05T07:00:00','2027-04-09T07:00:00','2027-05-12T07:00:00','2027-05-18T07:00:00','P0Y0M0D','P0Y0M29D',.F.,$,$,$,$,$,0.0);
#50=IFCTASK('h31TKfldHVw$y9ilmnxHhD',#6,'Transport monopile',$,$,'1.5',$,$,$,.F.,$,#49,.LOGISTIC.);
#51=IFCTASKTIME('Start of offshore works Time',.PREDICTED.,$,.WORKTIME.,'P0Y0M0D','2027-03-01T07:00:00','2027-03-01T07:00:00','2027-04-10T07:00:00','2027-04-10T07:00:00','2027-05-19T07:00:00','2027-05-19T07:00:00','P0Y0M29D','P0Y0M29D',.F.,$,$,$,$,$,0.0);
#52=IFCTASK('$pw9AnjXV7JfpnN$5l5VCT',#6,'Start of offshore works',$,$,'1.6',$,$,$,.T.,$,#51,.CONSTRUCTION.);
#53=IFCTASKTIME('2. Seabed preparation Time',.PREDICTED.,$,.WORKTIME.,'P0Y0M5D','2027-03-01T07:00:00','2027-03-05T07:00:00','2027-03-20T07:00:00','2027-04-03T07:00:00','2027-03-20T07:00:00','2027-04-09T07:00:00','P0Y0M0D','P0Y0M0D',.T.,$,$,$,$,$,0.0);
#54=IFCTASK('6HBFnBd9zzAHZfmVGnB$23',#6,'2. Seabed preparation',$,$,'2',$,$,$,.F.,$,#53,.CONSTRUCTION.);
#55=IFCTASKTIME('Level seabed Time',.PREDICTED.,$,.WORKTIME.,'P0Y0M5D','2027-03-01T07:00:00','2027-03-05T07:00:00','2027-03-20T07:00:00','2027-03-25T07:00:00','2027-03-20T07:00:00','2027-03-25T07:00:00','P0Y0M0D','P0Y0M0D',.T.,$,$,$,$,$,0.0);
#56=IFCTASK('f7C5EZlPLdi3ZBc1cPGfEx',#6,'Level seabed',$,$,'2.1',$,$,$,.F.,$,#55,.CONSTRUCTION.);
#57=IFCTASKTIME('Scour protection, layer 1 Time',.PREDICTED.,$,.WORKTIME.,'P0Y0M3D','2027-03-01T07:00:00','2027-03-03T07:00:00','2027-03-27T07:00:00','2027-03-31T07:00:00','2027-04-03T07:00:00','2027-04-06T07:00:00','P0Y0M0D','P0Y0M5D',.F.,$,$,$,$,$,0.0);
#58=IFCTASK('S$1TKB17wTY5trIXAXZfIP',#6,'Scour protection, layer 1',$,$,'2.2',$,$,$,.F.,$,#57,.CONSTRUCTION.);
#59=IFCTASKTIME('Weather window monitoring Time',.PREDICTED.,$,.WORKTIME.,'P0Y0M3D','2027-03-01T07:00:00','2027-03-03T07:00:00','2027-04-01T07:00:00','2027-04-03T07:00:00','2027-04-07T07:00:00','2027-04-09T07:00:00','P0Y0M5D','P0Y0M5D',.F.,$,$,$,$,$,0.0);
#60=IFCTASK('IbrX4ZO7mDgn3Re$WNEblH',#6,'Weather window monitoring',$,$,'2.3',$,$,$,.F.,$,#59,.ATTENDANCE.);
#61=IFCTASKTIME('3. Monopile installation Time',.PREDICTED.,$,.WORKTIME.,'P0Y0M5D','2027-03-01T07:00:00','2027-03-05T07:00:00','2027-03-23T07:00:00','2027-04-12T07:00:00','2027-03-23T07:00:00','2027-04-12T07:00:00','P0Y0M0D','P0Y0M0D',.T.,$,$,$,$,$,0.0);
#62=IFCTASK('mtS3_PDnUJ_bBd618Z5V0t',#6,'3. Monopile installation',$,$,'3',$,$,$,.F.,$,#61,.INSTALLATION.);
#63=IFCTASKTIME('Upend monopile Time',.PREDICTED.,$,.WORKTIME.,'P0Y0M2D','2027-03-01T07:00:00','2027-03-02T07:00:00','2027-03-23T07:00:00','2027-03-24T07:00:00','2027-03-23T07:00:00','2027-03-24T07:00:00','P0Y0M0D','P0Y0M0D',.T.,$,$,$,$,$,0.0);
#64=IFCTASK('kx7rH5$P$B3NplZHKXZfMp',#6,'Upend monopile',$,$,'3.1',$,$,$,.F.,$,#63,.INSTALLATION.);
#65=IFCTASKTIME('Position monopile Time',.PREDICTED.,$,.WORKTIME.,'P0Y0M2D','2027-03-01T07:00:00','2027-03-02T07:00:00','2027-03-25T07:00:00','2027-03-27T07:00:00','2027-03-25T07:00:00','2027-03-27T07:00:00','P0Y0M0D','P0Y0M0D',.T.,$,$,$,$,$,0.0);
#66=IFCTASK('zj_BBP2FGzG$03bF4BTtWd',#6,'Position monopile',$,$,'3.2',$,$,$,.F.,$,#65,.INSTALLATION.);
#67=IFCTASKTIME('Drive monopile Time',.PREDICTED.,$,.WORKTIME.,'P0Y0M5D','2027-03-01T07:00:00','2027-03-05T07:00:00','2027-03-30T07:00:00','2027-04-03T07:00:00','2027-03-30T07:00:00','2027-04-03T07:00:00','P0Y0M0D','P0Y0M0D',.T.,$,$,$,$,$,0.0);
#68=IFCTASK('SZeH1vc7mj_R35qn4hfTv9',#6,'Drive monopile',$,$,'3.3',$,$,$,.F.,$,#67,.INSTALLATION.);
#69=IFCTASKTIME('Verticality check Time',.PREDICTED.,$,.WORKTIME.,'P0Y0M1D','2027-03-01T07:00:00','2027-03-01T07:00:00','2027-04-05T07:00:00','2027-04-05T07:00:00','2027-04-05T07:00:00','2027-04-05T07:00:00','P0Y0M0D','P0Y0M0D',.T.,$,$,$,$,$,0.0);
#70=IFCTASK('bR8X0lHPnFqT3PIVoHnTLN',#6,'Verticality check',$,$,'3.4',$,$,$,.F.,$,#69,.ATTENDANCE.);
#71=IFCTASKTIME('Install transition piece Time',.PREDICTED.,$,.WORKTIME.,'P0Y0M3D','2027-03-01T07:00:00','2027-03-03T07:00:00','2027-04-06T07:00:00','2027-04-08T07:00:00','2027-04-06T07:00:00','2027-04-08T07:00:00','P0Y0M0D','P0Y0M0D',.T.,$,$,$,$,$,0.0);
#72=IFCTASK('7B2XiL3$a193FDv1Urb1I7',#6,'Install transition piece',$,$,'3.5',$,$,$,.F.,$,#71,.INSTALLATION.);
#73=IFCTASKTIME('Grouting Time',.PREDICTED.,$,.WORKTIME.,'P0Y0M3D','2027-03-01T07:00:00','2027-03-03T07:00:00','2027-04-09T07:00:00','2027-04-12T07:00:00','2027-04-09T07:00:00','2027-04-12T07:00:00','P0Y0M0D','P0Y0M0D',.T.,$,$,$,$,$,0.0);
#74=IFCTASK('VVrXOZnPrzWHrJpH5huF79',#6,'Grouting',$,$,'3.6',$,$,$,.F.,$,#73,.INSTALLATION.);
#75=IFCTASKTIME('4. Finishing Time',.PREDICTED.,$,.WORKTIME.,'P0Y0M5D','2027-03-01T07:00:00','2027-03-05T07:00:00','2027-04-09T07:00:00','2027-04-29T07:00:00','2027-04-09T07:00:00','2027-04-29T07:00:00','P0Y0M0D','P0Y0M0D',.T.,$,$,$,$,$,0.0);
#76=IFCTASK('j94Z8DVPTDu7kRClgBixZ5',#6,'4. Finishing',$,$,'4',$,$,$,.F.,$,#75,.CONSTRUCTION.);
#77=IFCTASKTIME('Scour protection, layer 2 Time',.PREDICTED.,$,.WORKTIME.,'P0Y0M3D','2027-03-01T07:00:00','2027-03-03T07:00:00','2027-04-09T07:00:00','2027-04-12T07:00:00','2027-04-09T07:00:00','2027-04-12T07:00:00','P0Y0M0D','P0Y0M0D',.T.,$,$,$,$,$,0.0);
#78=IFCTASK('d1lj$3KnExX3zRmVgn15f1',#6,'Scour protection, layer 2',$,$,'4.1',$,$,$,.F.,$,#77,.CONSTRUCTION.);
#79=IFCTASKTIME('J-tube installation Time',.PREDICTED.,$,.WORKTIME.,'P0Y0M3D','2027-03-01T07:00:00','2027-03-03T07:00:00','2027-04-13T07:00:00','2027-04-15T07:00:00','2027-04-13T07:00:00','2027-04-15T07:00:00','P0Y0M0D','P0Y0M0D',.T.,$,$,$,$,$,0.0);
#80=IFCTASK('SXBX4ZW9zZEBG5qlMFlBWP',#6,'J-tube installation',$,$,'4.2',$,$,$,.F.,$,#79,.INSTALLATION.);
#81=IFCTASKTIME('Platform and railing Time',.PREDICTED.,$,.WORKTIME.,'P0Y0M5D','2027-03-01T07:00:00','2027-03-05T07:00:00','2027-04-16T07:00:00','2027-04-21T07:00:00','2027-04-16T07:00:00','2027-04-21T07:00:00','P0Y0M0D','P0Y0M0D',.T.,$,$,$,$,$,0.0);
#82=IFCTASK('j57BbVjn8tFL6pJFbVj7ll',#6,'Platform and railing',$,$,'4.3',$,$,$,.F.,$,#81,.INSTALLATION.);
#83=IFCTASKTIME('Cathodic protection Time',.PREDICTED.,$,.WORKTIME.,'P0Y0M3D','2027-03-01T07:00:00','2027-03-03T07:00:00','2027-04-22T07:00:00','2027-04-24T07:00:00','2027-04-22T07:00:00','2027-04-24T07:00:00','P0Y0M0D','P0Y0M0D',.T.,$,$,$,$,$,0.0);
#84=IFCTASK('ibbHR5PtjhFhwppnb5A3T9',#6,'Cathodic protection',$,$,'4.4',$,$,$,.F.,$,#83,.INSTALLATION.);
#85=IFCTASKTIME('Install boat landing Time',.PREDICTED.,$,.WORKTIME.,'P0Y0M3D','2027-03-01T07:00:00','2027-03-03T07:00:00','2027-04-26T07:00:00','2027-04-29T07:00:00','2027-04-26T07:00:00','2027-04-29T07:00:00','P0Y0M0D','P0Y0M0D',.T.,$,$,$,$,$,0.0);
#86=IFCTASK('ObWfm7EtTXQXUZblUhdJYJ',#6,'Install boat landing',$,$,'4.5',$,$,$,.F.,$,#85,.INSTALLATION.);
#87=IFCTASKTIME('5. Cable & handover Time',.PREDICTED.,$,.WORKTIME.,'P0Y0M5D','2027-03-01T07:00:00','2027-03-05T07:00:00','2027-04-30T07:00:00','2027-05-19T07:00:00','2027-04-30T07:00:00','2027-05-19T07:00:00','P0Y0M0D','P0Y0M0D',.T.,$,$,$,$,$,0.0);
#88=IFCTASK('GvEF5FLHJfBnxFxHCZiJUl',#6,'5. Cable & handover',$,$,'5',$,$,$,.F.,$,#87,.CONSTRUCTION.);
#89=IFCTASKTIME('Export cable pull-in Time',.PREDICTED.,$,.WORKTIME.,'P0Y0M5D','2027-03-01T07:00:00','2027-03-05T07:00:00','2027-04-30T07:00:00','2027-05-07T07:00:00','2027-04-30T07:00:00','2027-05-07T07:00:00','P0Y0M0D','P0Y0M0D',.T.,$,$,$,$,$,0.0);
#90=IFCTASK('5rIlvLKX$hlBK1LHJ9I1ox',#6,'Export cable pull-in',$,$,'5.1',$,$,$,.F.,$,#89,.INSTALLATION.);
#91=IFCTASKTIME('Cable termination Time',.PREDICTED.,$,.WORKTIME.,'P0Y0M3D','2027-03-01T07:00:00','2027-03-03T07:00:00','2027-05-08T07:00:00','2027-05-11T07:00:00','2027-05-08T07:00:00','2027-05-11T07:00:00','P0Y0M0D','P0Y0M0D',.T.,$,$,$,$,$,0.0);
#92=IFCTASK('NTDPdRg1QjKzL9GXQdu1k7',#6,'Cable termination',$,$,'5.2',$,$,$,.F.,$,#91,.INSTALLATION.);
#93=IFCTASKTIME('Inspection and survey Time',.PREDICTED.,$,.WORKTIME.,'P0Y0M3D','2027-03-01T07:00:00','2027-03-03T07:00:00','2027-05-12T07:00:00','2027-05-14T07:00:00','2027-05-12T07:00:00','2027-05-14T07:00:00','P0Y0M0D','P0Y0M0D',.T.,$,$,$,$,$,0.0);
#94=IFCTASK('dxqpfDFvAfb1O$FVPhmfQr',#6,'Inspection and survey',$,$,'5.3',$,$,$,.F.,$,#93,.ATTENDANCE.);
#95=IFCTASKTIME('Demobilisation Time',.PREDICTED.,$,.WORKTIME.,'P0Y0M3D','2027-03-01T07:00:00','2027-03-03T07:00:00','2027-05-15T07:00:00','2027-05-19T07:00:00','2027-05-15T07:00:00','2027-05-19T07:00:00','P0Y0M0D','P0Y0M0D',.T.,$,$,$,$,$,0.0);
#96=IFCTASK('4l5XSjQVNR3vUzHXDvmfUF',#6,'Demobilisation',$,$,'5.4',$,$,$,.F.,$,#95,.LOGISTIC.);
#97=IFCTASKTIME('Foundation complete Time',.PREDICTED.,$,.WORKTIME.,'P0Y0M0D','2027-03-01T07:00:00','2027-03-01T07:00:00','2027-05-19T07:00:00','2027-05-19T07:00:00','2027-05-19T07:00:00','2027-05-19T07:00:00','P0Y0M0D','P0Y0M0D',.T.,$,$,$,$,$,0.0);
#98=IFCTASK('lbL$YtjX7ZariVd1znTfs7',#6,'Foundation complete',$,$,'5.5',$,$,$,.T.,$,#97,.CONSTRUCTION.);
#99=IFCRELNESTS('kxljrdkHb$vDyznXDrxVKV',#6,'WBS 1. Fabrication & preparation',$,#40,( #42,#44,#46,#48,#50,#52));
#100=IFCRELNESTS('1D_XGvQ7KNslBpv1gHZtKX',#6,'WBS 2. Seabed preparation',$,#54,( #56,#58,#60));
#101=IFCRELNESTS('9JrFbXpncpe9pZ$XA1VDOL',#6,'WBS 3. Monopile installation',$,#62,( #64,#66,#68,#70,#72,#74));
#102=IFCRELNESTS('ChJd3v79d70nxnJFbVB1Qn',#6,'WBS 4. Finishing',$,#76,( #78,#80,#82,#84,#86));
#103=IFCRELNESTS('N3fbeRg$Y70ntt4nb1Vp0N',#6,'WBS 5. Cable & handover',$,#88,( #90,#92,#94,#96,#98));
#104=IFCRELNESTS('tjjP5r1vgdnD4TBHzDgTrv',#6,'WBS Hoofd',$,#37,(#40,#54,#62,#76,#88));
#105=IFCRELSEQUENCE('HbblBzqnq3cVInjFfDRFzB',#6,$,$,#42,#44,$,.FINISH_START.,$);
#106=IFCRELSEQUENCE('dRuFZxAdp5X3LNKFgHR1gj',#6,$,$,#44,#46,$,.FINISH_START.,$);
#107=IFCRELSEQUENCE('7h2rLf0trTSBKXVXQd8ntH',#6,$,$,#46,#48,$,.FINISH_START.,$);
#108=IFCRELSEQUENCE('$lXhpl8voHRVIRqHQvqpK$',#6,$,$,#48,#50,$,.FINISH_START.,$);
#109=IFCRELSEQUENCE('3DsvPNvtnTg3lznVlv07jV',#6,$,$,#50,#52,$,.FINISH_START.,$);
#110=IFCRELSEQUENCE('9DHbmN876zslF7Alaf2rez',#6,$,$,#56,#58,$,.FINISH_START.,$);
#111=IFCRELSEQUENCE('IxPhpFS1oHLHZfu1VlNL6X',#6,$,$,#58,#60,$,.FINISH_START.,$);
#112=IFCRELSEQUENCE('hzljHbjnC7Wlnds1v17bhj',#6,$,$,#64,#66,$,.FINISH_START.,$);
#113=IFCRELSEQUENCE('H5PLVtiFUpQVEBc$wfERpF',#6,$,$,#66,#68,$,.FINISH_START.,$);
#114=IFCRELSEQUENCE('vlR$Ar$7I115zdoVaRtrmV',#6,$,$,#68,#70,$,.FINISH_START.,$);
#115=IFCRELSEQUENCE('uDHReRg12TaBGBg$H7G9i$',#6,$,$,#70,#72,$,.FINISH_START.,$);
#116=IFCRELSEQUENCE('l5dLLj2nCT2bNvslG$T9i1',#6,$,$,#72,#74,$,.FINISH_START.,$);
#117=IFCRELSEQUENCE('BDPzg$Xd7TKbttClQviJwx',#6,$,$,#78,#80,$,.FINISH_START.,$);
#118=IFCRELSEQUENCE('P5qxsnZ$Q1ErK$JF9zvDyh',#6,$,$,#80,#82,$,.FINISH_START.,$);
#119=IFCRELSEQUENCE('6lZNKhrlTDePe1f$tZR1o9',#6,$,$,#82,#84,$,.FINISH_START.,$);
#120=IFCRELSEQUENCE('R$1TupH7GDovclZH0PCDax',#6,$,$,#84,#86,$,.FINISH_START.,$);
#121=IFCRELSEQUENCE('SVh1kJxXH1g371bH_R9B4P',#6,$,$,#90,#92,$,.FINISH_START.,$);
#122=IFCRELSEQUENCE('lRDPBz4Hxn9bPlpHZ$DdjZ',#6,$,$,#92,#94,$,.FINISH_START.,$);
#123=IFCRELSEQUENCE('mPIxwPg1s9t3dF7$kz073P',#6,$,$,#94,#96,$,.FINISH_START.,$);
#124=IFCRELSEQUENCE('MTL1E1w7M7p97VHX1zOlv5',#6,$,$,#96,#98,$,.FINISH_START.,$);
#125=IFCLAGTIME('Lag',.PREDICTED.,$,IFCDURATION('P17D'),.WORKTIME.);
#126=IFCRELSEQUENCE('0ldzoZ$vkXb$mxaFT1jv3P',#6,$,$,#42,#56,#125,.START_START.,$);
#127=IFCLAGTIME('Lag',.PREDICTED.,$,IFCRATIOMEASURE(0.4),.WORKTIME.);
#128=IFCRELSEQUENCE('ORWNiLhHfnV3R$v1cd8nZR',#6,$,$,#56,#64,#127,.START_START.,$);
#129=IFCLAGTIME('Lag',.PREDICTED.,$,IFCDURATION('P2D'),.WORKTIME.);
#130=IFCRELSEQUENCE('8pvZ8j3llXovI5e1OR6d3B',#6,$,$,#60,#74,#129,.FINISH_FINISH.,$);
#131=IFCLAGTIME('Lag',.PREDICTED.,$,IFCDURATION('-P3D'),.WORKTIME.);
#132=IFCRELSEQUENCE('1FLH7LyHB9AZTNe1T1pPj3',#6,$,$,#74,#78,#131,.FINISH_START.,$);
#133=IFCRELSEQUENCE('N3Nbal0txxPryfWVPHxV4h',#6,$,$,#86,#90,$,.FINISH_START.,$);
#134=IFCCONSTRUCTIONEQUIPMENTRESOURCE('STWN0HndzHedeXpH5h8$cn',#6,'Jack-up installation vessel','Jack-up installation vessel, chartered by the day (order of EUR 120,000/day over an 8-hour shift)',$,$,$,$,.USERDEFINED.);
#135=IFCCONSTRUCTIONEQUIPMENTRESOURCE('1pgP$7APrtQDqrw$axr16$',#6,'Cable-lay vessel','Cable-lay vessel for the export cable pull-in (order of EUR 80,000/day)',$,$,$,$,.USERDEFINED.);
#136=IFCCONSTRUCTIONEQUIPMENTRESOURCE('gvq5IJB1m3O9LfaF13GNwX',#6,'Fall-pipe vessel','Fall-pipe vessel for seabed levelling and scour protection (order of EUR 60,000/day)',$,$,$,$,.USERDEFINED.);
#137=IFCCONSTRUCTIONEQUIPMENTRESOURCE('ChZNiN$vQJSr03DlXJEXux',#6,'Transport barge','Feeder barge with tugs, bringing the monopile out from the fabrication yard',$,$,$,$,.USERDEFINED.);
#138=IFCLABORRESOURCE('uronr7_Nox9RxFbH2RvRV7',#6,'Offshore installation crew','Offshore crew including offshore allowance; certified for work at sea',$,$,$,$,.USERDEFINED.);
#139=IFCSUBCONTRACTRESOURCE('$DQfuLqVrfUfz7glsVj7xL',#6,'Survey contractor','Geophysical survey and as-built inspection',$,$,$,$,.USERDEFINED.);
#140=IFCCONSTRUCTIONMATERIALRESOURCE('zjULPREHHJqTFvYn5FFLYj',#6,'Grout',$,$,$,$,$,.USERDEFINED.);
#141=IFCPROPERTYSINGLEVALUE('CostPerHour',$,IFCMONETARYMEASURE(15000),$);
#142=IFCPROPERTYSET('ujz96Z0tfn7hErYVxFnLgp',#6,'OPS_Resource',$,(#141));
#143=IFCRELDEFINESBYPROPERTIES('V$Vz2vdtrfUfplzHgLOV85',#6,$,$,(#134),#142);
#144=IFCPROPERTYSINGLEVALUE('CostPerHour',$,IFCMONETARYMEASURE(10000),$);
#145=IFCPROPERTYSET('hz7rzLiXhD_93Re$pPCpeB',#6,'OPS_Resource',$,(#144));
#146=IFCRELDEFINESBYPROPERTIES('4nfjJzrlrf61431VqnNZtl',#6,$,$,(#135),#145);
#147=IFCPROPERTYSINGLEVALUE('CostPerHour',$,IFCMONETARYMEASURE(7500),$);
#148=IFCPROPERTYSET('2HHb4VA$SV5X2PQ$Ax6JUl',#6,'OPS_Resource',$,(#147));
#149=IFCRELDEFINESBYPROPERTIES('Rx4rVJIHXPnp8F5l4rhlv5',#6,$,$,(#136),#148);
#150=IFCPROPERTYSINGLEVALUE('CostPerHour',$,IFCMONETARYMEASURE(3000),$);
#151=IFCPROPERTYSET('8BwtshrHnFKR3x4nl7u1cF',#6,'OPS_Resource',$,(#150));
#152=IFCRELDEFINESBYPROPERTIES('lfGvP9RFMx$ZVl9$exQpiX',#6,$,$,(#137),#151);
#153=IFCPROPERTYSINGLEVALUE('MaxUnits',$,IFCREAL(12),$);
#154=IFCPROPERTYSINGLEVALUE('CostPerHour',$,IFCMONETARYMEASURE(95),$);
#155=IFCPROPERTYSET('S1np9ZX7iJKzhf4lfpJ737',#6,'OPS_Resource',$,(#153,#154));
#156=IFCRELDEFINESBYPROPERTIES('3jUL1v_N2ZKbBvglA5Ix9l',#6,$,$,(#138),#155);
#157=IFCPROPERTYSINGLEVALUE('MaxUnits',$,IFCREAL(2),$);
#158=IFCPROPERTYSINGLEVALUE('CostPerHour',$,IFCMONETARYMEASURE(130),$);
#159=IFCPROPERTYSET('Lz9xUfXvq329hNCH6pDdNX',#6,'OPS_Resource',$,(#157,#158));
#160=IFCRELDEFINESBYPROPERTIES('ynd32v1PZXYfFv2nv$vRRR',#6,$,$,(#139),#159);
#161=IFCPROPERTYSINGLEVALUE('MaxUnits',$,IFCREAL(999),$);
#162=IFCPROPERTYSINGLEVALUE('UnitOfMeasure',$,IFCLABEL('m³'),$);
#163=IFCPROPERTYSET('NTL$c9CVdp_tlTBHdLmfch',#6,'OPS_Resource',$,(#161,#162));
#164=IFCRELDEFINESBYPROPERTIES('2npvhtylxH37Mrs$5hOVW7',#6,$,$,(#140),#163);
#165=IFCRELASSIGNSTOPROCESS('OTh$oVIHFFCZzP_VZVtzxh',#6,$,$,(#139),$,#42,$);
#166=IFCRELASSIGNSTOPROCESS('0ltDXf8dXx9RJpRlUPixtH',#6,$,$,(#138),$,#46,$);
#167=IFCRELASSIGNSTOPROCESS('XTmd$PA$4lrnTBIV6NwjUl',#6,$,$,(#139),$,#48,$);
#168=IFCRELASSIGNSTOPROCESS('Rxq5ozDXZVE7oXrFjRNhoR',#6,$,$,(#137),$,#50,$);
#169=IFCRELASSIGNSTOPROCESS('7Hp7vdRVbhT9htu1kZSzhj',#6,$,$,(#136),$,#56,$);
#170=IFCRELASSIGNSTOPROCESS('Kd0tkJr1ipWHPTf13joVW7',#6,$,$,(#136),$,#58,$);
#171=IFCRELASSIGNSTOPROCESS('YTWf8p79BzuftBQ$cdu$cl',#6,$,$,(#134,#138),$,#64,$);
#172=IFCRELASSIGNSTOPROCESS('JxlJfludfFnpadYVbXbn$p',#6,$,$,(#134,#138),$,#66,$);
#173=IFCRELASSIGNSTOPROCESS('qBP3UNtNoFPBmhUnzDMTZ5',#6,$,$,(#134,#138),$,#68,$);
#174=IFCRELASSIGNSTOPROCESS('rpF5Qt4$8fzfRBkVUvWPhN',#6,$,$,(#139),$,#70,$);
#175=IFCRELASSIGNSTOPROCESS('fT39wZOvW5tR7VVX6NobTN',#6,$,$,(#134,#138),$,#72,$);
#176=IFCRELASSIGNSTOPROCESS('lN096zy1ipm$KV1Xa5hVKD',#6,$,$,(#138,#140),$,#74,$);
#177=IFCRELASSIGNSTOPROCESS('f7aLTt5nuVovsxaFBJ1JsP',#6,$,$,(#136),$,#78,$);
#178=IFCRELASSIGNSTOPROCESS('Kvqp$7sdhPizxlN$Qd0vjX',#6,$,$,(#138),$,#80,$);
#179=IFCRELASSIGNSTOPROCESS('Tz4T4$k9D5N511FV9TJvTN',#6,$,$,(#138),$,#82,$);
#180=IFCRELASSIGNSTOPROCESS('S3azgxv9t17pe1d1at2l9p',#6,$,$,(#138),$,#84,$);
#181=IFCRELASSIGNSTOPROCESS('8DXhZtLHxRD9lTZncvCDGV',#6,$,$,(#138),$,#86,$);
#182=IFCRELASSIGNSTOPROCESS('hZh1o$sP5nHjIHN$kX9zNz',#6,$,$,(#135,#138),$,#90,$);
#183=IFCRELASSIGNSTOPROCESS('PRO$cf09t115xbyH1VNZpp',#6,$,$,(#138),$,#92,$);
#184=IFCRELASSIGNSTOPROCESS('tjp7VJklHXQVA7wl3ldxHh',#6,$,$,(#139),$,#94,$);
#185=IFCRELASSIGNSTOPROCESS('qfsZm94HVdV3l3VXElP5d7',#6,$,$,(#138),$,#96,$);
#186=IFCPROPERTYSINGLEVALUE('$DQfuLqVrfUfz7glsVj7xL#0',$,IFCTEXT('1|UNIFORM'),$);
#187=IFCPROPERTYSET('V3qxYRYnUjY5nPA$RxQDa9',#6,'OPS_Assignments',$,(#186));
#188=IFCRELDEFINESBYPROPERTIES('uhATWVRVjfb1a7EFsVhX0N',#6,$,$,(#42),#187);
#189=IFCPROPERTYSINGLEVALUE('uronr7_Nox9RxFbH2RvRV7#0',$,IFCTEXT('4|UNIFORM'),$);
#190=IFCPROPERTYSET('9NcJvdbXLjILsb81$1jvXP',#6,'OPS_Assignments',$,(#189));
#191=IFCRELDEFINESBYPROPERTIES('m9KRGtaHP7m$4NO$GXdJ2V',#6,$,$,(#46),#190);
#192=IFCPROPERTYSINGLEVALUE('$DQfuLqVrfUfz7glsVj7xL#0',$,IFCTEXT('2|UNIFORM'),$);
#193=IFCPROPERTYSET('g7a3Q9ylZjSrmx4l9ZzfsP',#6,'OPS_Assignments',$,(#192));
#194=IFCRELDEFINESBYPROPERTIES('lxHjHx1PdvGXUZ3FaxjvVd',#6,$,$,(#48),#193);
#195=IFCPROPERTYSINGLEVALUE('ChZNiN$vQJSr03DlXJEXux#0',$,IFCTEXT('1|UNIFORM'),$);
#196=IFCPROPERTYSET('IfG7JTffaBZ9Pn1XQdGNIr',#6,'OPS_Assignments',$,(#195));
#197=IFCRELDEFINESBYPROPERTIES('LTTfO3JXrtoBmB6$W9oXij',#6,$,$,(#50),#196);
#198=IFCPROPERTYSINGLEVALUE('gvq5IJB1m3O9LfaF13GNwX#0',$,IFCTEXT('1|UNIFORM'),$);
#199=IFCPROPERTYSET('_J2rh9SHD7RXQTlVffwJgp',#6,'OPS_Assignments',$,(#198));
#200=IFCRELDEFINESBYPROPERTIES('fdelDFS1Y7ePSDd1m15XOz',#6,$,$,(#56),#199);
#201=IFCPROPERTYSINGLEVALUE('gvq5IJB1m3O9LfaF13GNwX#0',$,IFCTEXT('1|UNIFORM'),$);
#202=IFCPROPERTYSET('BptpNDFvMRz7ghMHsxobNT',#6,'OPS_Assignments',$,(#201));
#203=IFCRELDEFINESBYPROPERTIES('SXrVOZvtlDG$iVnVph9zFV',#6,$,$,(#58),#202);
#204=IFCPROPERTYSINGLEVALUE('STWN0HndzHedeXpH5h8$cn#0',$,IFCTEXT('1|UNIFORM'),$);
#205=IFCPROPERTYSINGLEVALUE('uronr7_Nox9RxFbH2RvRV7#1',$,IFCTEXT('8|UNIFORM'),$);
#206=IFCPROPERTYSET('h7qDxhJX$9nL_DVVGldxn5',#6,'OPS_Assignments',$,(#204,#205));
#207=IFCRELDEFINESBYPROPERTIES('kRh1oz3$qzQXcHpl5r4Z5l',#6,$,$,(#64),#206);
#208=IFCPROPERTYSINGLEVALUE('STWN0HndzHedeXpH5h8$cn#0',$,IFCTEXT('1|UNIFORM'),$);
#209=IFCPROPERTYSINGLEVALUE('uronr7_Nox9RxFbH2RvRV7#1',$,IFCTEXT('8|UNIFORM'),$);
#210=IFCPROPERTYSET('S1dLzvHvarJvA5qHs1NhAd',#6,'OPS_Assignments',$,(#208,#209));
#211=IFCRELDEFINESBYPROPERTIES('zD6tgbDFwH0ndlZHWfYLYF',#6,$,$,(#66),#210);
#212=IFCPROPERTYSINGLEVALUE('STWN0HndzHedeXpH5h8$cn#0',$,IFCTEXT('1|UNIFORM'),$);
#213=IFCPROPERTYSINGLEVALUE('uronr7_Nox9RxFbH2RvRV7#1',$,IFCTEXT('8|UNIFORM'),$);
#214=IFCPROPERTYSET('zFTfe5YNmZyhoVDlhZR$cL',#6,'OPS_Assignments',$,(#212,#213));
#215=IFCRELDEFINESBYPROPERTIES('SzSLxBXvyF1TvJN$oDgZV3',#6,$,$,(#68),#214);
#216=IFCPROPERTYSINGLEVALUE('$DQfuLqVrfUfz7glsVj7xL#0',$,IFCTEXT('1|UNIFORM'),$);
#217=IFCPROPERTYSET('2FpvJZ9f_z8fjV1XSb7bpn',#6,'OPS_Assignments',$,(#216));
#218=IFCRELDEFINESBYPROPERTIES('R54T4$2NIBt33x4n5F9zfZ',#6,$,$,(#70),#217);
#219=IFCPROPERTYSINGLEVALUE('STWN0HndzHedeXpH5h8$cn#0',$,IFCTEXT('1|UNIFORM'),$);
#220=IFCPROPERTYSINGLEVALUE('uronr7_Nox9RxFbH2RvRV7#1',$,IFCTEXT('8|UNIFORM'),$);
#221=IFCPROPERTYSET('WV5nt$2fk$fTLZRlI1JvZt',#6,'OPS_Assignments',$,(#219,#220));
#222=IFCRELDEFINESBYPROPERTIES('7hI5IFCXVPvh2DFVbVhV8D',#6,$,$,(#72),#221);
#223=IFCPROPERTYSINGLEVALUE('uronr7_Nox9RxFbH2RvRV7#0',$,IFCTEXT('6|UNIFORM'),$);
#224=IFCPROPERTYSINGLEVALUE('zjULPREHHJqTFvYn5FFLYj#1',$,IFCTEXT('40|FRONT_LOADED'),$);
#225=IFCPROPERTYSET('8pVL5B9fk$Xb7$blglBFtn',#6,'OPS_Assignments',$,(#223,#224));
#226=IFCRELDEFINESBYPROPERTIES('X1NRihrl5l5$GLEncz7pq3',#6,$,$,(#74),#225);
#227=IFCPROPERTYSINGLEVALUE('gvq5IJB1m3O9LfaF13GNwX#0',$,IFCTEXT('1|UNIFORM'),$);
#228=IFCPROPERTYSET('oLTNeTVvyRRXQZVVKDwJch',#6,'OPS_Assignments',$,(#227));
#229=IFCRELDEFINESBYPROPERTIES('dXJ7JzBltr$xzPQ$Qva3vb',#6,$,$,(#78),#228);
#230=IFCPROPERTYSINGLEVALUE('uronr7_Nox9RxFbH2RvRV7#0',$,IFCTEXT('4|UNIFORM'),$);
#231=IFCPROPERTYSET('BjJdNJpFMdNxtrUVPrqbrZ',#6,'OPS_Assignments',$,(#230));
#232=IFCRELDEFINESBYPROPERTIES('S$NROz310hLlNRu$IZi5Tx',#6,$,$,(#80),#231);
#233=IFCPROPERTYSINGLEVALUE('uronr7_Nox9RxFbH2RvRV7#0',$,IFCTEXT('6|UNIFORM'),$);
#234=IFCPROPERTYSET('Kd0twvItZD0nxlv$drKxzr',#6,'OPS_Assignments',$,(#233));
#235=IFCRELDEFINESBYPROPERTIES('JRJ7vdh$olz7wj71NDjv5r',#6,$,$,(#82),#234);
#236=IFCPROPERTYSINGLEVALUE('uronr7_Nox9RxFbH2RvRV7#0',$,IFCTEXT('4|UNIFORM'),$);
#237=IFCPROPERTYSET('jfWfaHGfQJKz$B6$WNgZfX',#6,'OPS_Assignments',$,(#236));
#238=IFCRELDEFINESBYPROPERTIES('K5dhvLCF8NBFz5iHGV7DW7',#6,$,$,(#84),#237);
#239=IFCPROPERTYSINGLEVALUE('uronr7_Nox9RxFbH2RvRV7#0',$,IFCTEXT('4|UNIFORM'),$);
#240=IFCPROPERTYSET('1JUhLjg1QDettNu$UhNZ1p',#6,'OPS_Assignments',$,(#239));
#241=IFCRELDEFINESBYPROPERTIES('exKJXpQvCP4LAbWXDPa3bb',#6,$,$,(#86),#240);
#242=IFCPROPERTYSINGLEVALUE('1pgP$7APrtQDqrw$axr16$#0',$,IFCTEXT('1|UNIFORM'),$);
#243=IFCPROPERTYSINGLEVALUE('uronr7_Nox9RxFbH2RvRV7#1',$,IFCTEXT('6|UNIFORM'),$);
#244=IFCPROPERTYSET('YXZNW1vtfndriVVXcTJvtp',#6,'OPS_Assignments',$,(#242,#243));
#245=IFCRELDEFINESBYPROPERTIES('5LAZW1VdlV_9R$XVSNULk7',#6,$,$,(#90),#244);
#246=IFCPROPERTYSINGLEVALUE('uronr7_Nox9RxFbH2RvRV7#0',$,IFCTEXT('4|UNIFORM'),$);
#247=IFCPROPERTYSET('G9iJh9y$a$7pWpznOJvRHn',#6,'OPS_Assignments',$,(#246));
#248=IFCRELDEFINESBYPROPERTIES('Nz1ZmfO7q3IP4ZbHwtMf2z',#6,$,$,(#92),#247);
#249=IFCPROPERTYSINGLEVALUE('$DQfuLqVrfUfz7glsVj7xL#0',$,IFCTEXT('2|UNIFORM'),$);
#250=IFCPROPERTYSET('0HlRexMdF3kdevgHMnFLQn',#6,'OPS_Assignments',$,(#249));
#251=IFCRELDEFINESBYPROPERTIES('PROHr3qFylTP4z$XaNs3JX',#6,$,$,(#94),#250);
#252=IFCPROPERTYSINGLEVALUE('uronr7_Nox9RxFbH2RvRV7#0',$,IFCTEXT('6|UNIFORM'),$);
#253=IFCPROPERTYSET('LZpPtzjXzzQXcH3lYvmtS5',#6,'OPS_Assignments',$,(#252));
#254=IFCRELDEFINESBYPROPERTIES('yFlRGP2nWRTPKx8$bXr1Ul',#6,$,$,(#96),#253);
#255=IFCRELASSIGNSTOCONTROL('rDVhNjbXHjyDCF$VkTSruD',#6,$,$,(#40,#42,#44,#46,#48,#50,#52,#54,#56,#58,#60,#62,#64,#66,#68,#70,#72,#74,#76,#78,#80,#82,#84,#86,#88,#90,#92,#94,#96,#98),$,#37);
#256=IFCPROPERTYSINGLEVALUE('wbsAutoNumber',$,IFCBOOLEAN(.T.),$);
#257=IFCPROPERTYSINGLEVALUE('ProjectStartDate',$,IFCDATE('2027-03-01'),$);
#258=IFCPROPERTYSINGLEVALUE('ProjectEndDate',$,$,$);
#259=IFCPROPERTYSINGLEVALUE('CreatedAt',$,IFCTEXT('2026-08-14T08:19:54.966Z'),$);
#260=IFCPROPERTYSINGLEVALUE('ModifiedAt',$,IFCTEXT('2026-08-14T08:19:54.967Z'),$);
#261=IFCPROPERTYSET('e5a3ArlP$tNZvpDF1ZK5n5',#6,'OPS_ProjectSettings',$,(#256,#257,#258,#259,#260));
#262=IFCRELDEFINESBYPROPERTIES('0Hdzo1sPJhdjQlBF$1BF9l',#6,$,$,(#13),#261);
#263=IFCPROPERTYSINGLEVALUE('MilestoneKind',$,IFCLABEL('START'),$);
#264=IFCPROPERTYSET('JN09oVIlJLVbVbiFI3uFTx',#6,'OPS_Milestone',$,(#263));
#265=IFCRELDEFINESBYPROPERTIES('ibpdbRJn8XAlrp91hz7puD',#6,$,$,(#52),#264);
#266=IFCPROPERTYSINGLEVALUE('MilestoneKind',$,IFCLABEL('FINISH'),$);
#267=IFCPROPERTYSET('zl$BhtCXJLHB0Z71255HJ1',#6,'OPS_Milestone',$,(#266));
#268=IFCRELDEFINESBYPROPERTIES('a3qpBzCXRX3fH9mXK$FTf$',#6,$,$,(#98),#267);
ENDSEC;
END-ISO-10303-21;
