ISO-10303-21;
HEADER;
FILE_DESCRIPTION(('ViewDefinition [SchedulingView]'),'2;1');
FILE_NAME('Albert Heijn Supermarket Refurbishment.ifc','2026-08-14T08:02:53',('Anne Willems'),('Retail Build Express BV'),'Open Planner Studio 0.1','Open Planner Studio','');
FILE_SCHEMA(('IFC4X3'));
ENDSEC;
DATA;
#1=IFCPERSON($,'Anne Willems',$,$,$,$,$,$);
#2=IFCORGANIZATION($,'Retail Build Express BV',$,$,$);
#3=IFCPERSONANDORGANIZATION(#1,#2,$);
#4=IFCORGANIZATION($,'OpenAEC Foundation',$,$,$);
#5=IFCAPPLICATION(#4,'0.1','Open Planner Studio','OPS');
#6=IFCOWNERHISTORY(#3,#5,$,.NOCHANGE.,$,$,$,1786694573);
#7=IFCSIUNIT(*,.LENGTHUNIT.,$,.METRE.);
#8=IFCSIUNIT(*,.TIMEUNIT.,$,.SECOND.);
#9=IFCUNITASSIGNMENT((#7,#8));
#10=IFCCARTESIANPOINT((0.,0.,0.));
#11=IFCAXIS2PLACEMENT3D(#10,$,$);
#12=IFCGEOMETRICREPRESENTATIONCONTEXT($,'Plan',3,1.0E-05,#11,$);
#13=IFCPROJECT('oLZf43Knolpttf0Vl78FPd',#6,'Albert Heijn Supermarket Refurbishment','Internal refurbishment and extension of a supermarket',$,$,$,(#12),#9);
#14=IFCTIMEPERIOD('07:00:00','16:00:00');
#15=IFCRECURRENCEPATTERN(.WEEKLY.,$,(1,2,3,4,5),$,$,$,$,(#14));
#16=IFCWORKTIME('Standard work week',.PREDICTED.,$,#15,$,$);
#17=IFCWORKTIME('New Year''s Day',.PREDICTED.,$,$,'2027-01-01','2027-01-01');
#18=IFCWORKTIME('Good Friday',.PREDICTED.,$,$,'2027-03-26','2027-03-26');
#19=IFCWORKTIME('Easter',.PREDICTED.,$,$,'2027-03-28','2027-03-29');
#20=IFCWORKTIME('King''s Day',.PREDICTED.,$,$,'2027-04-27','2027-04-27');
#21=IFCWORKTIME('Liberation Day',.PREDICTED.,$,$,'2027-05-05','2027-05-05');
#22=IFCWORKTIME('Ascension Day',.PREDICTED.,$,$,'2027-05-06','2027-05-06');
#23=IFCWORKTIME('Whitsun',.PREDICTED.,$,$,'2027-05-16','2027-05-17');
#24=IFCWORKTIME('Christmas',.PREDICTED.,$,$,'2027-12-25','2027-12-26');
#25=IFCWORKTIME('Construction holiday (northern region)',.PREDICTED.,$,$,'2027-07-26','2027-08-15');
#26=IFCWORKTIME('New Year''s Day',.PREDICTED.,$,$,'2028-01-01','2028-01-01');
#27=IFCWORKTIME('Good Friday',.PREDICTED.,$,$,'2028-04-14','2028-04-14');
#28=IFCWORKTIME('Easter',.PREDICTED.,$,$,'2028-04-16','2028-04-17');
#29=IFCWORKTIME('King''s Day',.PREDICTED.,$,$,'2028-04-27','2028-04-27');
#30=IFCWORKTIME('Liberation Day',.PREDICTED.,$,$,'2028-05-05','2028-05-05');
#31=IFCWORKTIME('Ascension Day',.PREDICTED.,$,$,'2028-05-25','2028-05-25');
#32=IFCWORKTIME('Whitsun',.PREDICTED.,$,$,'2028-06-04','2028-06-05');
#33=IFCWORKTIME('Christmas',.PREDICTED.,$,$,'2028-12-25','2028-12-26');
#34=IFCWORKTIME('Construction holiday (northern region)',.PREDICTED.,$,$,'2028-07-24','2028-08-13');
#35=IFCWORKCALENDAR('_HlbW$VPl1Yxnv_nBDbFBd',#6,'Construction calendar NL','Standard construction calendar: Mon-Fri 07:00-16:00',$,(#16),(#17,#18,#19,#20,#21,#22,#23,#24,#25,#26,#27,#28,#29,#30,#31,#32,#33,#34),.FIRSTSHIFT.);
#36=IFCWORKPLAN('gTRHFH$vMbhlXHVVMFXbtD',#6,'Albert Heijn Supermarket Refurbishment','Internal refurbishment and extension of a supermarket',$,$,'2026-08-14T08:02:53',$,$,$,$,$,'2027-03-01T07:00:00','2027-03-10T07:00:00',.PLANNED.);
#37=IFCWORKSCHEDULE('DB9DdbIH9B$5lf4HjbvR3v',#6,'Construction schedule v1.0',$,$,$,'2026-08-14T08:02:53',$,$,$,$,$,'2027-03-01T07:00:00','2027-03-10T07:00:00',.PLANNED.);
#38=IFCRELAGGREGATES('X$Ph9TPtbVDd8te$ftI1sz',#6,$,$,#36,(#37));
#39=IFCTASKTIME('1. Preparation Time',.PREDICTED.,$,.WORKTIME.,'P0Y0M5D','2027-03-01T07:00:00','2027-03-05T07:00:00','2027-03-01T07:00:00','2027-03-08T07:00:00','2027-03-01T07:00:00','2027-06-02T07:00:00','P0Y0M0D','P0Y0M0D',.T.,$,$,$,$,$,0.0);
#40=IFCTASK('qLZfebA1S1Hry3t1OboXij',#6,'1. Preparation',$,$,'1',$,$,$,.F.,$,#39,.CONSTRUCTION.);
#41=IFCTASKTIME('Clear out store Time',.PREDICTED.,$,.WORKTIME.,'P0Y0M3D','2027-03-01T07:00:00','2027-03-03T07:00:00','2027-03-01T07:00:00','2027-03-03T07:00:00','2027-03-01T07:00:00','2027-03-03T07:00:00','P0Y0M0D','P0Y0M0D',.T.,$,$,$,$,$,0.0);
#42=IFCTASK('ylhHJ1APFFqx9rkXYL$xrP',#6,'Clear out store',$,$,'1.1',$,$,$,.F.,$,#41,.LOGISTIC.);
#43=IFCTASKTIME('Temporary facilities Time',.PREDICTED.,$,.WORKTIME.,'P0Y0M2D','2027-03-01T07:00:00','2027-03-02T07:00:00','2027-03-04T07:00:00','2027-03-05T07:00:00','2027-05-31T07:00:00','2027-06-01T07:00:00','P0Y0M0D','P0Y0M56D',.F.,$,$,$,$,$,0.0);
#44=IFCTASK('aTunT5sPB9ATvjN1wDJvb5',#6,'Temporary facilities',$,$,'1.2',$,$,$,.F.,$,#43,.INSTALLATION.);
#45=IFCTASKTIME('Start of refurbishment Time',.PREDICTED.,$,.WORKTIME.,'P0Y0M0D','2027-03-01T07:00:00','2027-03-01T07:00:00','2027-03-08T07:00:00','2027-03-08T07:00:00','2027-06-02T07:00:00','2027-06-02T07:00:00','P0Y0M56D','P0Y0M56D',.F.,$,$,$,$,$,0.0);
#46=IFCTASK('ktSzgVB$iJypavon6jH3Hl',#6,'Start of refurbishment',$,$,'1.3',$,$,$,.T.,$,#45,.CONSTRUCTION.);
#47=IFCTASKTIME('2. Demolition works Time',.PREDICTED.,$,.WORKTIME.,'P0Y0M5D','2027-03-01T07:00:00','2027-03-05T07:00:00','2027-03-04T07:00:00','2027-03-22T07:00:00','2027-03-04T07:00:00','2027-03-31T07:00:00','P0Y0M0D','P0Y0M0D',.T.,$,$,$,$,$,0.0);
#48=IFCTASK('b$NRan4l7TSjors1$ZijQr',#6,'2. Demolition works',$,$,'2',$,$,$,.F.,$,#47,.DEMOLITION.);
#49=IFCTASKTIME('Demolish existing fit-out Time',.PREDICTED.,$,.WORKTIME.,'P0Y0M5D','2027-03-01T07:00:00','2027-03-05T07:00:00','2027-03-04T07:00:00','2027-03-10T07:00:00','2027-03-04T07:00:00','2027-03-10T07:00:00','P0Y0M0D','P0Y0M0D',.T.,$,$,$,$,$,0.0);
#50=IFCTASK('P54rHbJnqvedO1P$uTj75r',#6,'Demolish existing fit-out',$,$,'2.1',$,$,$,.F.,$,#49,.DEMOLITION.);
#51=IFCTASKTIME('Partially break out floor Time',.PREDICTED.,$,.WORKTIME.,'P0Y0M3D','2027-03-01T07:00:00','2027-03-03T07:00:00','2027-03-11T07:00:00','2027-03-15T07:00:00','2027-03-18T07:00:00','2027-03-22T07:00:00','P0Y0M0D','P0Y0M5D',.F.,$,$,$,$,$,0.0);
#52=IFCTASK('Y3azAB$v2Tajg9iHiX3tez',#6,'Partially break out floor',$,$,'2.2',$,$,$,.F.,$,#51,.DEMOLITION.);
#53=IFCTASKTIME('Open up rear facade for extension Time',.PREDICTED.,$,.WORKTIME.,'P0Y0M5D','2027-03-01T07:00:00','2027-03-05T07:00:00','2027-03-16T07:00:00','2027-03-22T07:00:00','2027-03-23T07:00:00','2027-03-31T07:00:00','P0Y0M5D','P0Y0M5D',.F.,$,$,$,$,$,0.0);
#54=IFCTASK('lRpPrzCFmT4pi$BHxnVRF$',#6,'Open up rear facade for extension',$,$,'2.3',$,$,$,.F.,$,#53,.DEMOLITION.);
#55=IFCTASKTIME('3. Extension Time',.PREDICTED.,$,.WORKTIME.,'P0Y0M5D','2027-03-01T07:00:00','2027-03-05T07:00:00','2027-03-08T07:00:00','2027-04-02T07:00:00','2027-03-08T07:00:00','2027-04-02T07:00:00','P0Y0M0D','P0Y0M0D',.T.,$,$,$,$,$,0.0);
#56=IFCTASK('7Bs7bVjn4nHjw1rlPhmNMp',#6,'3. Extension',$,$,'3',$,$,$,.F.,$,#55,.CONSTRUCTION.);
#57=IFCTASKTIME('Foundations, extension Time',.PREDICTED.,$,.WORKTIME.,'P0Y0M5D','2027-03-01T07:00:00','2027-03-05T07:00:00','2027-03-08T07:00:00','2027-03-12T07:00:00','2027-03-08T07:00:00','2027-03-12T07:00:00','P0Y0M0D','P0Y0M0D',.T.,$,$,$,$,$,0.0);
#58=IFCTASK('zD_VGt4$GTyp03RnWt2HLj',#6,'Foundations, extension',$,$,'3.1',$,$,$,.F.,$,#57,.CONSTRUCTION.);
#59=IFCTASKTIME('Structural steel, extension Time',.PREDICTED.,$,.WORKTIME.,'P0Y0M5D','2027-03-01T07:00:00','2027-03-05T07:00:00','2027-03-15T07:00:00','2027-03-19T07:00:00','2027-03-15T07:00:00','2027-03-19T07:00:00','P0Y0M0D','P0Y0M0D',.T.,$,$,$,$,$,0.0);
#60=IFCTASK('ZzKb0nz$S1$5Bj5nonxHjV',#6,'Structural steel, extension',$,$,'3.2',$,$,$,.F.,$,#59,.CONSTRUCTION.);
#61=IFCTASKTIME('Roof and facade, extension Time',.PREDICTED.,$,.WORKTIME.,'P0Y0M5D','2027-03-01T07:00:00','2027-03-05T07:00:00','2027-03-22T07:00:00','2027-03-30T07:00:00','2027-03-22T07:00:00','2027-03-30T07:00:00','P0Y0M0D','P0Y0M0D',.T.,$,$,$,$,$,0.0);
#62=IFCTASK('rDPzAHvtXx7LkHP1dnvDGl',#6,'Roof and facade, extension',$,$,'3.3',$,$,$,.F.,$,#61,.INSTALLATION.);
#63=IFCTASKTIME('Floor, extension Time',.PREDICTED.,$,.WORKTIME.,'P0Y0M3D','2027-03-01T07:00:00','2027-03-03T07:00:00','2027-03-31T07:00:00','2027-04-02T07:00:00','2027-03-31T07:00:00','2027-04-02T07:00:00','P0Y0M0D','P0Y0M0D',.T.,$,$,$,$,$,0.0);
#64=IFCTASK('mdIxIFiFc$YxZNu1PLWdpj',#6,'Floor, extension',$,$,'3.4',$,$,$,.F.,$,#63,.CONSTRUCTION.);
#65=IFCTASKTIME('4. Building services Time',.PREDICTED.,$,.WORKTIME.,'P0Y0M5D','2027-03-01T07:00:00','2027-03-05T07:00:00','2027-03-30T07:00:00','2027-04-28T07:00:00','2027-03-30T07:00:00','2027-04-28T07:00:00','P0Y0M0D','P0Y0M0D',.T.,$,$,$,$,$,0.0);
#66=IFCTASK('FvklzPJn4RLH9hkFi$PxN1',#6,'4. Building services',$,$,'4',$,$,$,.F.,$,#65,.INSTALLATION.);
#67=IFCTASKTIME('Renew cooling installation Time',.PREDICTED.,$,.WORKTIME.,'P0Y0M8D','2027-03-01T07:00:00','2027-03-10T07:00:00','2027-03-30T07:00:00','2027-04-08T07:00:00','2027-03-30T07:00:00','2027-04-08T07:00:00','P0Y0M0D','P0Y0M0D',.T.,$,$,$,$,$,0.0);
#68=IFCTASK('p7U1oXQX7ZqZjXHX9d8Fb1',#6,'Renew cooling installation',$,$,'4.1',$,$,$,.F.,$,#67,.INSTALLATION.);
#69=IFCTASKTIME('Electrical, extension Time',.PREDICTED.,$,.WORKTIME.,'P0Y0M5D','2027-03-01T07:00:00','2027-03-05T07:00:00','2027-04-09T07:00:00','2027-04-15T07:00:00','2027-04-09T07:00:00','2027-04-15T07:00:00','P0Y0M0D','P0Y0M0D',.T.,$,$,$,$,$,0.0);
#70=IFCTASK('FBvTGPklrNYfdTf1NDLViD',#6,'Electrical, extension',$,$,'4.2',$,$,$,.F.,$,#69,.INSTALLATION.);
#71=IFCTASKTIME('Ventilation and air conditioning Time',.PREDICTED.,$,.WORKTIME.,'P0Y0M5D','2027-03-01T07:00:00','2027-03-05T07:00:00','2027-04-16T07:00:00','2027-04-22T07:00:00','2027-04-16T07:00:00','2027-04-22T07:00:00','P0Y0M0D','P0Y0M0D',.T.,$,$,$,$,$,0.0);
#72=IFCTASK('YVjv$ZOd19vDWDRlsbUnDj',#6,'Ventilation and air conditioning',$,$,'4.3',$,$,$,.F.,$,#71,.INSTALLATION.);
#73=IFCTASKTIME('Fire alarm system Time',.PREDICTED.,$,.WORKTIME.,'P0Y0M3D','2027-03-01T07:00:00','2027-03-03T07:00:00','2027-04-23T07:00:00','2027-04-28T07:00:00','2027-04-23T07:00:00','2027-04-28T07:00:00','P0Y0M0D','P0Y0M0D',.T.,$,$,$,$,$,0.0);
#74=IFCTASK('MZbl1v6vIX3NLZBHb1NLAP',#6,'Fire alarm system',$,$,'4.4',$,$,$,.F.,$,#73,.INSTALLATION.);
#75=IFCTASKTIME('5. Fit-out & furnishing Time',.PREDICTED.,$,.WORKTIME.,'P0Y0M5D','2027-03-01T07:00:00','2027-03-05T07:00:00','2027-04-29T07:00:00','2027-06-02T07:00:00','2027-04-29T07:00:00','2027-06-02T07:00:00','P0Y0M0D','P0Y0M0D',.T.,$,$,$,$,$,0.0);
#76=IFCTASK('gvS3Q9iXZ1IhQT9$bbI$kr',#6,'5. Fit-out & furnishing',$,$,'5',$,$,$,.F.,$,#75,.CONSTRUCTION.);
#77=IFCTASKTIME('Lay floor tiles Time',.PREDICTED.,$,.WORKTIME.,'P0Y0M5D','2027-03-01T07:00:00','2027-03-05T07:00:00','2027-04-29T07:00:00','2027-05-07T07:00:00','2027-04-29T07:00:00','2027-05-07T07:00:00','P0Y0M0D','P0Y0M0D',.T.,$,$,$,$,$,0.0);
#78=IFCTASK('AptDfDHvyHhl9BEXGFr$AZ',#6,'Lay floor tiles',$,$,'5.1',$,$,$,.F.,$,#77,.CONSTRUCTION.);
#79=IFCTASKTIME('Ceilings and lighting Time',.PREDICTED.,$,.WORKTIME.,'P0Y0M5D','2027-03-01T07:00:00','2027-03-05T07:00:00','2027-05-10T07:00:00','2027-05-14T07:00:00','2027-05-10T07:00:00','2027-05-14T07:00:00','P0Y0M0D','P0Y0M0D',.T.,$,$,$,$,$,0.0);
#80=IFCTASK('2Jgzsrd9HV_9zxSnhZb1sT',#6,'Ceilings and lighting',$,$,'5.2',$,$,$,.F.,$,#79,.INSTALLATION.);
#81=IFCTASKTIME('Shelving and refrigeration Time',.PREDICTED.,$,.WORKTIME.,'P0Y0M5D','2027-03-01T07:00:00','2027-03-05T07:00:00','2027-05-18T07:00:00','2027-05-24T07:00:00','2027-05-18T07:00:00','2027-05-24T07:00:00','P0Y0M0D','P0Y0M0D',.T.,$,$,$,$,$,0.0);
#82=IFCTASK('$p_XeTX7WxljwV91ej1jE5',#6,'Shelving and refrigeration',$,$,'5.3',$,$,$,.F.,$,#81,.INSTALLATION.);
#83=IFCTASKTIME('Checkout island Time',.PREDICTED.,$,.WORKTIME.,'P0Y0M3D','2027-03-01T07:00:00','2027-03-03T07:00:00','2027-05-25T07:00:00','2027-05-27T07:00:00','2027-05-25T07:00:00','2027-05-27T07:00:00','P0Y0M0D','P0Y0M0D',.T.,$,$,$,$,$,0.0);
#84=IFCTASK('B9U1shRnk1$xXH$Xm$xXm$',#6,'Checkout island',$,$,'5.4',$,$,$,.F.,$,#83,.INSTALLATION.);
#85=IFCTASKTIME('Stocking and fit-out Time',.PREDICTED.,$,.WORKTIME.,'P0Y0M3D','2027-03-01T07:00:00','2027-03-03T07:00:00','2027-05-28T07:00:00','2027-06-01T07:00:00','2027-05-28T07:00:00','2027-06-01T07:00:00','P0Y0M0D','P0Y0M0D',.T.,$,$,$,$,$,0.0);
#86=IFCTASK('1jsZyZGNgdfxx58$kXVbF1',#6,'Stocking and fit-out',$,$,'5.5',$,$,$,.F.,$,#85,.LOGISTIC.);
#87=IFCTASKTIME('Reopening Time',.PREDICTED.,$,.WORKTIME.,'P0Y0M0D','2027-03-01T07:00:00','2027-03-01T07:00:00','2027-06-02T07:00:00','2027-06-02T07:00:00','2027-06-02T07:00:00','2027-06-02T07:00:00','P0Y0M0D','P0Y0M0D',.T.,$,$,$,$,$,0.0);
#88=IFCTASK('gvCDlVr$qPSJoLYF5FVRrZ',#6,'Reopening',$,$,'5.6',$,$,$,.T.,$,#87,.CONSTRUCTION.);
#89=IFCRELNESTS('xFPz6votNlJfBjTH83VRLJ',#6,'WBS 1. Preparation',$,#40,( #42,#44,#46));
#90=IFCRELNESTS('Y3ahvre7OFyhsdkVc7KjQr',#6,'WBS 2. Demolition works',$,#48,( #50,#52,#54));
#91=IFCRELNESTS('Ev69_vvt5b51eVLnVpYhkr',#6,'WBS 3. Extension',$,#56,( #58,#60,#62,#64));
#92=IFCRELNESTS('gzVzwds$CT2R9NGX6fAzNZ',#6,'WBS 4. Building services',$,#66,( #68,#70,#72,#74));
#93=IFCRELNESTS('nhp7vPzHdj_Rht8$_NAzV7',#6,'WBS 5. Fit-out & furnishing',$,#76,( #78,#80,#82,#84,#86,#88));
#94=IFCRELNESTS('tjjP5r1vgdnD4TBHzDgTrv',#6,'WBS Hoofd',$,#37,(#40,#48,#56,#66,#76));
#95=IFCRELSEQUENCE('EPQjJzpVDvbV6Xf1cPOXO3',#6,$,$,#42,#44,$,.FINISH_START.,$);
#96=IFCRELSEQUENCE('vBsvP9RncXw1SPM11XdjEt',#6,$,$,#44,#46,$,.FINISH_START.,$);
#97=IFCRELSEQUENCE('OZDdnFBHxH5$8tmXEHH3tj',#6,$,$,#50,#52,$,.FINISH_START.,$);
#98=IFCRELSEQUENCE('TXjvLty1qdar8FZFk$rFDD',#6,$,$,#52,#54,$,.FINISH_START.,$);
#99=IFCRELSEQUENCE('odobq7FvkVLHXFZnwNwJgf',#6,$,$,#58,#60,$,.FINISH_START.,$);
#100=IFCRELSEQUENCE('Kd0tET$vc1Er4ZTFUBhlll',#6,$,$,#60,#62,$,.FINISH_START.,$);
#101=IFCRELSEQUENCE('T$fRe3rH73O9JDJnvRs98R',#6,$,$,#62,#64,$,.FINISH_START.,$);
#102=IFCRELSEQUENCE('PVrVyTu7QVgnLNynLvCpmV',#6,$,$,#68,#70,$,.FINISH_START.,$);
#103=IFCRELSEQUENCE('ixNb8Jh$6nSrixO$1zmNwV',#6,$,$,#70,#72,$,.FINISH_START.,$);
#104=IFCRELSEQUENCE('8p1rxHfNKpmXQHbnK1NhEf',#6,$,$,#72,#74,$,.FINISH_START.,$);
#105=IFCRELSEQUENCE('HbL1sLpXZ$QpuF3FOjfhId',#6,$,$,#78,#80,$,.FINISH_START.,$);
#106=IFCRELSEQUENCE('4FP367QvePvLI5u1QTR12V',#6,$,$,#80,#82,$,.FINISH_START.,$);
#107=IFCRELSEQUENCE('h7SL5LpXzFyLQZnVdLGfo5',#6,$,$,#82,#84,$,.FINISH_START.,$);
#108=IFCRELSEQUENCE('MZTfyZ0tVRTdqFt$7$FZDJ',#6,$,$,#84,#86,$,.FINISH_START.,$);
#109=IFCRELSEQUENCE('kbBVGPwX$h15rpnVZzOl9p',#6,$,$,#86,#88,$,.FINISH_START.,$);
#110=IFCLAGTIME('Lag',.PREDICTED.,$,IFCDURATION('P3D'),.WORKTIME.);
#111=IFCRELSEQUENCE('GtKb8BOdB9kL6p5HyhfZT5',#6,$,$,#42,#50,#110,.START_START.,$);
#112=IFCLAGTIME('Lag',.PREDICTED.,$,IFCRATIOMEASURE(0.4),.WORKTIME.);
#113=IFCRELSEQUENCE('s9cN4z4H5ljffxynvR2lHl',#6,$,$,#50,#58,#112,.START_START.,$);
#114=IFCLAGTIME('Lag',.PREDICTED.,$,IFCDURATION('P2D'),.WORKTIME.);
#115=IFCRELSEQUENCE('dRuVurmfEnPr89WX3HXpax',#6,$,$,#54,#64,#114,.FINISH_FINISH.,$);
#116=IFCLAGTIME('Lag',.PREDICTED.,$,IFCDURATION('-P4D'),.WORKTIME.);
#117=IFCRELSEQUENCE('vlTfeRwXvtoB8N4llPK5nR',#6,$,$,#64,#68,#116,.FINISH_START.,$);
#118=IFCRELSEQUENCE('PRWfOZPt5F7hwDLH$TqDup',#6,$,$,#74,#78,$,.FINISH_START.,$);
#119=IFCRELASSIGNSTOCONTROL('rDVhNjbXHjyDCF$VkTSruD',#6,$,$,(#40,#42,#44,#46,#48,#50,#52,#54,#56,#58,#60,#62,#64,#66,#68,#70,#72,#74,#76,#78,#80,#82,#84,#86,#88),$,#37);
#120=IFCPROPERTYSINGLEVALUE('wbsAutoNumber',$,IFCBOOLEAN(.T.),$);
#121=IFCPROPERTYSINGLEVALUE('ProjectStartDate',$,IFCDATE('2027-03-01'),$);
#122=IFCPROPERTYSINGLEVALUE('ProjectEndDate',$,$,$);
#123=IFCPROPERTYSINGLEVALUE('CreatedAt',$,IFCTEXT('2026-08-14T08:02:53.707Z'),$);
#124=IFCPROPERTYSINGLEVALUE('ModifiedAt',$,IFCTEXT('2026-08-14T08:02:53.707Z'),$);
#125=IFCPROPERTYSET('e5a3ArlP$tNZvpDF1ZK5n5',#6,'OPS_ProjectSettings',$,(#120,#121,#122,#123,#124));
#126=IFCRELDEFINESBYPROPERTIES('0Hdzo1sPJhdjQlBF$1BF9l',#6,$,$,(#13),#125);
#127=IFCPROPERTYSINGLEVALUE('MilestoneKind',$,IFCLABEL('START'),$);
#128=IFCPROPERTYSET('cXrVW1nvsfpdyZRl2fMTpp',#6,'OPS_Milestone',$,(#127));
#129=IFCRELDEFINESBYPROPERTIES('$pon3LS1UPibrP2XrJVD0N',#6,$,$,(#46),#128);
ENDSEC;
END-ISO-10303-21;
