ISO-10303-21;
HEADER;
FILE_DESCRIPTION(('ViewDefinition [SchedulingView]'),'2;1');
FILE_NAME('Cycle Tunnel, Arnhem Station.ifc','2026-07-28T14:38:23',('Marian Bos'),('Tunnel Construction East BV'),'Open Planner Studio 0.1','Open Planner Studio','');
FILE_SCHEMA(('IFC4X3'));
ENDSEC;
DATA;
#1=IFCPERSON($,'Marian Bos',$,$,$,$,$,$);
#2=IFCORGANIZATION($,'Tunnel Construction East BV',$,$,$);
#3=IFCPERSONANDORGANIZATION(#1,#2,$);
#4=IFCORGANIZATION($,'OpenAEC Foundation',$,$,$);
#5=IFCAPPLICATION(#4,'0.1','Open Planner Studio','OPS');
#6=IFCOWNERHISTORY(#3,#5,$,.NOCHANGE.,$,$,$,1785249503);
#7=IFCSIUNIT(*,.LENGTHUNIT.,$,.METRE.);
#8=IFCSIUNIT(*,.TIMEUNIT.,$,.SECOND.);
#9=IFCUNITASSIGNMENT((#7,#8));
#10=IFCCARTESIANPOINT((0.,0.,0.));
#11=IFCAXIS2PLACEMENT3D(#10,$,$);
#12=IFCGEOMETRICREPRESENTATIONCONTEXT($,'Plan',3,1.0E-05,#11,$);
#13=IFCPROJECT('S1$Z4ZednnC5$1$XMHj7tj',#6,'Cycle Tunnel, Arnhem Station','Underground cycle tunnel beneath a railway yard',$,$,$,(#12),#9);
#14=IFCTIMEPERIOD('07:00:00','16:00:00');
#15=IFCRECURRENCEPATTERN(.WEEKLY.,$,(1,2,3,4,5,6),$,$,$,$,(#14));
#16=IFCWORKTIME('Standard work week',.PREDICTED.,$,#15,$,$);
#17=IFCWORKTIME('New Year''s Day',.PREDICTED.,$,$,'2027-01-01','2027-01-01');
#18=IFCWORKTIME('Good Friday',.PREDICTED.,$,$,'2027-03-26','2027-03-26');
#19=IFCWORKTIME('Easter',.PREDICTED.,$,$,'2027-03-28','2027-03-29');
#20=IFCWORKTIME('King''s Day',.PREDICTED.,$,$,'2027-04-27','2027-04-27');
#21=IFCWORKTIME('Liberation Day',.PREDICTED.,$,$,'2027-05-05','2027-05-05');
#22=IFCWORKTIME('Ascension Day',.PREDICTED.,$,$,'2027-05-06','2027-05-06');
#23=IFCWORKTIME('Whitsun',.PREDICTED.,$,$,'2027-05-16','2027-05-17');
#24=IFCWORKTIME('Christmas',.PREDICTED.,$,$,'2027-12-25','2027-12-26');
#25=IFCWORKTIME('Construction holiday (northern region)',.PREDICTED.,$,$,'2027-07-26','2027-08-15');
#26=IFCWORKTIME('New Year''s Day',.PREDICTED.,$,$,'2028-01-01','2028-01-01');
#27=IFCWORKTIME('Good Friday',.PREDICTED.,$,$,'2028-04-14','2028-04-14');
#28=IFCWORKTIME('Easter',.PREDICTED.,$,$,'2028-04-16','2028-04-17');
#29=IFCWORKTIME('King''s Day',.PREDICTED.,$,$,'2028-04-27','2028-04-27');
#30=IFCWORKTIME('Liberation Day',.PREDICTED.,$,$,'2028-05-05','2028-05-05');
#31=IFCWORKTIME('Ascension Day',.PREDICTED.,$,$,'2028-05-25','2028-05-25');
#32=IFCWORKTIME('Whitsun',.PREDICTED.,$,$,'2028-06-04','2028-06-05');
#33=IFCWORKTIME('Christmas',.PREDICTED.,$,$,'2028-12-25','2028-12-26');
#34=IFCWORKTIME('Construction holiday (northern region)',.PREDICTED.,$,$,'2028-07-24','2028-08-13');
#35=IFCWORKCALENDAR('_HlbW$VPl1Yxnv_nBDbFBd',#6,'Infrastructure calendar Mon-Sat','Infrastructure/hydraulic works: Mon-Sat',$,(#16),(#17,#18,#19,#20,#21,#22,#23,#24,#25,#26,#27,#28,#29,#30,#31,#32,#33,#34),.FIRSTSHIFT.);
#36=IFCWORKPLAN('idm7LNOPrt2RhNalT1rFtn',#6,'Cycle Tunnel, Arnhem Station','Underground cycle tunnel beneath a railway yard',$,$,'2026-07-28T14:38:23',$,$,$,$,$,'2027-03-01T07:00:00','2027-03-12T07:00:00',.PLANNED.);
#37=IFCWORKSCHEDULE('9ts7zBW95lLHVlN1AXDdDD',#6,'Construction schedule v1.0',$,$,$,'2026-07-28T14:38:23',$,$,$,$,$,'2027-03-01T07:00:00','2027-03-12T07:00:00',.PLANNED.);
#38=IFCRELAGGREGATES('X$Ph9TPtbVDd8te$ftI1sz',#6,$,$,#36,(#37));
#39=IFCTASKTIME('1. Preparation Time',.PREDICTED.,$,.WORKTIME.,'P0Y0M5D','2027-03-01T07:00:00','2027-03-05T07:00:00','2027-03-01T07:00:00','2027-04-02T07:00:00','2027-03-01T07:00:00','2027-06-25T07:00:00','P0Y0M0D','P0Y0M0D',.T.,$,$,$,$,$,0.0);
#40=IFCTASK('Hf8n$TudFZMzzRe1HBJ737',#6,'1. Preparation',$,$,'1',$,$,$,.F.,$,#39,.CONSTRUCTION.);
#41=IFCTASKTIME('Divert cables and pipes Time',.PREDICTED.,$,.WORKTIME.,'P0Y0M8D','2027-03-01T07:00:00','2027-03-10T07:00:00','2027-03-01T07:00:00','2027-03-09T07:00:00','2027-03-01T07:00:00','2027-03-09T07:00:00','P0Y0M0D','P0Y0M0D',.T.,$,$,$,$,$,0.0);
#42=IFCTASK('5FdzYxgdt1Vbhtu$tT5Xa5',#6,'Divert cables and pipes',$,$,'1.1',$,$,$,.F.,$,#41,.INSTALLATION.);
#43=IFCTASKTIME('Plan track possessions Time',.PREDICTED.,$,.WORKTIME.,'P0Y0M3D','2027-03-01T07:00:00','2027-03-03T07:00:00','2027-03-10T07:00:00','2027-03-12T07:00:00','2027-06-04T07:00:00','2027-06-07T07:00:00','P0Y0M0D','P0Y0M68D',.F.,$,$,$,$,$,0.0);
#44=IFCTASK('QxKbCvFvMRp9$Lgl_xbFPP',#6,'Plan track possessions',$,$,'1.2',$,$,$,.F.,$,#43,.ATTENDANCE.);
#45=IFCTASKTIME('Install sheet piling Time',.PREDICTED.,$,.WORKTIME.,'P0Y0M10D','2027-03-01T07:00:00','2027-03-12T07:00:00','2027-03-13T07:00:00','2027-03-24T07:00:00','2027-06-08T07:00:00','2027-06-18T07:00:00','P0Y0M0D','P0Y0M68D',.F.,$,$,$,$,$,0.0);
#46=IFCTASK('Hf09QjoHxb5$ChonglrFNX',#6,'Install sheet piling',$,$,'1.3',$,$,$,.F.,$,#45,.CONSTRUCTION.);
#47=IFCTASKTIME('Set up site Time',.PREDICTED.,$,.WORKTIME.,'P0Y0M5D','2027-03-01T07:00:00','2027-03-05T07:00:00','2027-03-25T07:00:00','2027-04-01T07:00:00','2027-06-19T07:00:00','2027-06-24T07:00:00','P0Y0M0D','P0Y0M68D',.F.,$,$,$,$,$,0.0);
#48=IFCTASK('xLkxsLjVpxfxrDlXZV93Rx',#6,'Set up site',$,$,'1.4',$,$,$,.F.,$,#47,.LOGISTIC.);
#49=IFCTASKTIME('Start of construction Time',.PREDICTED.,$,.WORKTIME.,'P0Y0M0D','2027-03-01T07:00:00','2027-03-01T07:00:00','2027-04-02T07:00:00','2027-04-02T07:00:00','2027-06-25T07:00:00','2027-06-25T07:00:00','P0Y0M68D','P0Y0M68D',.F.,$,$,$,$,$,0.0);
#50=IFCTASK('BtgdpH8dBZCZFvAlOxgTDj',#6,'Start of construction',$,$,'1.5',$,$,$,.T.,$,#49,.CONSTRUCTION.);
#51=IFCTASKTIME('2. Excavation pit Time',.PREDICTED.,$,.WORKTIME.,'P0Y0M5D','2027-03-01T07:00:00','2027-03-05T07:00:00','2027-03-16T07:00:00','2027-04-24T07:00:00','2027-03-16T07:00:00','2027-06-25T07:00:00','P0Y0M0D','P0Y0M0D',.T.,$,$,$,$,$,0.0);
#52=IFCTASK('kxvrR$tf0BvDunxHqHj7BT',#6,'2. Excavation pit',$,$,'2',$,$,$,.F.,$,#51,.CONSTRUCTION.);
#53=IFCTASKTIME('Install struts Time',.PREDICTED.,$,.WORKTIME.,'P0Y0M5D','2027-03-01T07:00:00','2027-03-05T07:00:00','2027-03-16T07:00:00','2027-03-20T07:00:00','2027-03-16T07:00:00','2027-03-20T07:00:00','P0Y0M0D','P0Y0M0D',.T.,$,$,$,$,$,0.0);
#54=IFCTASK('0HFxETFP$L9zh90V7xs3xB',#6,'Install struts',$,$,'2.1',$,$,$,.F.,$,#53,.CONSTRUCTION.);
#55=IFCTASKTIME('Excavation, phase 1 Time',.PREDICTED.,$,.WORKTIME.,'P0Y0M10D','2027-03-01T07:00:00','2027-03-12T07:00:00','2027-03-22T07:00:00','2027-04-03T07:00:00','2027-05-25T07:00:00','2027-06-04T07:00:00','P0Y0M0D','P0Y0M49D',.F.,$,$,$,$,$,0.0);
#56=IFCTASK('L3Nbyz418VUN1$FVRVZfwX',#6,'Excavation, phase 1',$,$,'2.2',$,$,$,.F.,$,#55,.CONSTRUCTION.);
#57=IFCTASKTIME('Excavation, phase 2 Time',.PREDICTED.,$,.WORKTIME.,'P0Y0M8D','2027-03-01T07:00:00','2027-03-10T07:00:00','2027-04-05T07:00:00','2027-04-13T07:00:00','2027-06-05T07:00:00','2027-06-14T07:00:00','P0Y0M0D','P0Y0M49D',.F.,$,$,$,$,$,0.0);
#58=IFCTASK('WX3963CFGpslVlFV5Hhl9D',#6,'Excavation, phase 2',$,$,'2.3',$,$,$,.F.,$,#57,.CONSTRUCTION.);
#59=IFCTASKTIME('Groundwater dewatering Time',.PREDICTED.,$,.WORKTIME.,'P0Y0M5D','2027-03-01T07:00:00','2027-03-05T07:00:00','2027-04-14T07:00:00','2027-04-19T07:00:00','2027-06-15T07:00:00','2027-06-19T07:00:00','P0Y0M0D','P0Y0M49D',.F.,$,$,$,$,$,0.0);
#60=IFCTASK('e3FDtTP9JBZtH3nX3joXWv',#6,'Groundwater dewatering',$,$,'2.4',$,$,$,.F.,$,#59,.INSTALLATION.);
#61=IFCTASKTIME('Underwater concrete Time',.PREDICTED.,$,.WORKTIME.,'P0Y0M5D','2027-03-01T07:00:00','2027-03-05T07:00:00','2027-04-20T07:00:00','2027-04-24T07:00:00','2027-06-21T07:00:00','2027-06-25T07:00:00','P0Y0M49D','P0Y0M49D',.F.,$,$,$,$,$,0.0);
#62=IFCTASK('r96t2dbXjNDd0Tv1gLmty7',#6,'Underwater concrete',$,$,'2.5',$,$,$,.F.,$,#61,.CONSTRUCTION.);
#63=IFCTASKTIME('3. Tunnel structure Time',.PREDICTED.,$,.WORKTIME.,'P0Y0M5D','2027-03-01T07:00:00','2027-03-05T07:00:00','2027-03-18T07:00:00','2027-05-01T07:00:00','2027-03-18T07:00:00','2027-05-01T07:00:00','P0Y0M0D','P0Y0M0D',.T.,$,$,$,$,$,0.0);
#64=IFCTASK('7BoFNH09zHu7clTlm$5XCT',#6,'3. Tunnel structure',$,$,'3',$,$,$,.F.,$,#63,.CONSTRUCTION.);
#65=IFCTASKTIME('Tunnel box floor Time',.PREDICTED.,$,.WORKTIME.,'P0Y0M8D','2027-03-01T07:00:00','2027-03-10T07:00:00','2027-03-18T07:00:00','2027-03-27T07:00:00','2027-03-18T07:00:00','2027-03-27T07:00:00','P0Y0M0D','P0Y0M0D',.T.,$,$,$,$,$,0.0);
#66=IFCTASK('m9ibKfv9t1fZBjjlFfcpWv',#6,'Tunnel box floor',$,$,'3.1',$,$,$,.F.,$,#65,.CONSTRUCTION.);
#67=IFCTASKTIME('Tunnel box walls Time',.PREDICTED.,$,.WORKTIME.,'P0Y0M10D','2027-03-01T07:00:00','2027-03-12T07:00:00','2027-03-30T07:00:00','2027-04-09T07:00:00','2027-03-30T07:00:00','2027-04-09T07:00:00','P0Y0M0D','P0Y0M0D',.T.,$,$,$,$,$,0.0);
#68=IFCTASK('h3Vzc9y$KtwJ_JzlI1Zt0N',#6,'Tunnel box walls',$,$,'3.2',$,$,$,.F.,$,#67,.CONSTRUCTION.);
#69=IFCTASKTIME('Tunnel box roof Time',.PREDICTED.,$,.WORKTIME.,'P0Y0M8D','2027-03-01T07:00:00','2027-03-10T07:00:00','2027-04-10T07:00:00','2027-04-19T07:00:00','2027-04-10T07:00:00','2027-04-19T07:00:00','P0Y0M0D','P0Y0M0D',.T.,$,$,$,$,$,0.0);
#70=IFCTASK('YzC5_vHvifAlNbmV4POlfZ',#6,'Tunnel box roof',$,$,'3.3',$,$,$,.F.,$,#69,.CONSTRUCTION.);
#71=IFCTASKTIME('Waterproofing Time',.PREDICTED.,$,.WORKTIME.,'P0Y0M5D','2027-03-01T07:00:00','2027-03-05T07:00:00','2027-04-20T07:00:00','2027-04-24T07:00:00','2027-04-20T07:00:00','2027-04-24T07:00:00','P0Y0M0D','P0Y0M0D',.T.,$,$,$,$,$,0.0);
#72=IFCTASK('Q5yrpDNNgdvL6phHb56JUj',#6,'Waterproofing',$,$,'3.4',$,$,$,.F.,$,#71,.CONSTRUCTION.);
#73=IFCTASKTIME('Backfill and compact Time',.PREDICTED.,$,.WORKTIME.,'P0Y0M5D','2027-03-01T07:00:00','2027-03-05T07:00:00','2027-04-26T07:00:00','2027-05-01T07:00:00','2027-04-26T07:00:00','2027-05-01T07:00:00','P0Y0M0D','P0Y0M0D',.T.,$,$,$,$,$,0.0);
#74=IFCTASK('uBY12dTlhDIPiXnVR1dxzr',#6,'Backfill and compact',$,$,'3.5',$,$,$,.F.,$,#73,.LOGISTIC.);
#75=IFCTASKTIME('4. Approach ramps Time',.PREDICTED.,$,.WORKTIME.,'P0Y0M5D','2027-03-01T07:00:00','2027-03-05T07:00:00','2027-04-23T07:00:00','2027-05-14T07:00:00','2027-04-23T07:00:00','2027-05-14T07:00:00','P0Y0M0D','P0Y0M0D',.T.,$,$,$,$,$,0.0);
#76=IFCTASK('q9MPZN17QDOdGbmXI3WPpp',#6,'4. Approach ramps',$,$,'4',$,$,$,.F.,$,#75,.CONSTRUCTION.);
#77=IFCTASKTIME('North approach ramp, concrete works Time',.PREDICTED.,$,.WORKTIME.,'P0Y0M8D','2027-03-01T07:00:00','2027-03-10T07:00:00','2027-04-23T07:00:00','2027-05-03T07:00:00','2027-04-23T07:00:00','2027-05-03T07:00:00','P0Y0M0D','P0Y0M0D',.T.,$,$,$,$,$,0.0);
#78=IFCTASK('5Fn5QJoHjfpdi1pnhzPjo5',#6,'North approach ramp, concrete works',$,$,'4.1',$,$,$,.F.,$,#77,.CONSTRUCTION.);
#79=IFCTASKTIME('South approach ramp, concrete works Time',.PREDICTED.,$,.WORKTIME.,'P0Y0M8D','2027-03-01T07:00:00','2027-03-10T07:00:00','2027-04-28T07:00:00','2027-05-08T07:00:00','2027-04-28T07:00:00','2027-05-08T07:00:00','P0Y0M0D','P0Y0M0D',.T.,$,$,$,$,$,0.0);
#80=IFCTASK('GNuFpptN8N3fT9SHFxjvlH',#6,'South approach ramp, concrete works',$,$,'4.2',$,$,$,.F.,$,#79,.CONSTRUCTION.);
#81=IFCTASKTIME('Cycle path ramp Time',.PREDICTED.,$,.WORKTIME.,'P0Y0M5D','2027-03-01T07:00:00','2027-03-05T07:00:00','2027-05-10T07:00:00','2027-05-14T07:00:00','2027-05-10T07:00:00','2027-05-14T07:00:00','P0Y0M0D','P0Y0M0D',.T.,$,$,$,$,$,0.0);
#82=IFCTASK('l9Kb4TmNCzovgrA$$z0vxL',#6,'Cycle path ramp',$,$,'4.3',$,$,$,.F.,$,#81,.CONSTRUCTION.);
#83=IFCTASKTIME('5. Building services & finishing Time',.PREDICTED.,$,.WORKTIME.,'P0Y0M5D','2027-03-01T07:00:00','2027-03-05T07:00:00','2027-05-15T07:00:00','2027-06-15T07:00:00','2027-05-15T07:00:00','2027-06-15T07:00:00','P0Y0M0D','P0Y0M0D',.T.,$,$,$,$,$,0.0);
#84=IFCTASK('XXjv13KFM5npCnnV5lrFHr',#6,'5. Building services & finishing',$,$,'5',$,$,$,.F.,$,#83,.CONSTRUCTION.);
#85=IFCTASKTIME('Tunnel lighting Time',.PREDICTED.,$,.WORKTIME.,'P0Y0M5D','2027-03-01T07:00:00','2027-03-05T07:00:00','2027-05-15T07:00:00','2027-05-21T07:00:00','2027-05-15T07:00:00','2027-05-21T07:00:00','P0Y0M0D','P0Y0M0D',.T.,$,$,$,$,$,0.0);
#86=IFCTASK('KPelz7HvSLvp8tGXm$zfIh',#6,'Tunnel lighting',$,$,'5.1',$,$,$,.F.,$,#85,.INSTALLATION.);
#87=IFCTASKTIME('Pump installation Time',.PREDICTED.,$,.WORKTIME.,'P0Y0M5D','2027-03-01T07:00:00','2027-03-05T07:00:00','2027-05-22T07:00:00','2027-05-27T07:00:00','2027-05-22T07:00:00','2027-05-27T07:00:00','P0Y0M0D','P0Y0M0D',.T.,$,$,$,$,$,0.0);
#88=IFCTASK('xr_Vmt41u$ILMBkXQz7D4P',#6,'Pump installation',$,$,'5.2',$,$,$,.F.,$,#87,.INSTALLATION.);
#89=IFCTASKTIME('Ventilation Time',.PREDICTED.,$,.WORKTIME.,'P0Y0M3D','2027-03-01T07:00:00','2027-03-03T07:00:00','2027-05-28T07:00:00','2027-05-31T07:00:00','2027-05-28T07:00:00','2027-05-31T07:00:00','P0Y0M0D','P0Y0M0D',.T.,$,$,$,$,$,0.0);
#90=IFCTASK('W1vr7vF7kXR1qhwHpPyTv9',#6,'Ventilation',$,$,'5.3',$,$,$,.F.,$,#89,.INSTALLATION.);
#91=IFCTASKTIME('Tiling and wall finishes Time',.PREDICTED.,$,.WORKTIME.,'P0Y0M8D','2027-03-01T07:00:00','2027-03-10T07:00:00','2027-06-01T07:00:00','2027-06-09T07:00:00','2027-06-01T07:00:00','2027-06-09T07:00:00','P0Y0M0D','P0Y0M0D',.T.,$,$,$,$,$,0.0);
#92=IFCTASK('Gfe$wvYfCZ2bBPQ1UhNT9H',#6,'Tiling and wall finishes',$,$,'5.4',$,$,$,.F.,$,#91,.CONSTRUCTION.);
#93=IFCTASKTIME('Cycle path asphalt Time',.PREDICTED.,$,.WORKTIME.,'P0Y0M3D','2027-03-01T07:00:00','2027-03-03T07:00:00','2027-06-10T07:00:00','2027-06-12T07:00:00','2027-06-10T07:00:00','2027-06-12T07:00:00','P0Y0M0D','P0Y0M0D',.T.,$,$,$,$,$,0.0);
#94=IFCTASK('1FrFvvvtD7JfvJt$OD3tOZ',#6,'Cycle path asphalt',$,$,'5.5',$,$,$,.F.,$,#93,.CONSTRUCTION.);
#95=IFCTASKTIME('Signage Time',.PREDICTED.,$,.WORKTIME.,'P0Y0M2D','2027-03-01T07:00:00','2027-03-02T07:00:00','2027-06-14T07:00:00','2027-06-15T07:00:00','2027-06-14T07:00:00','2027-06-15T07:00:00','P0Y0M0D','P0Y0M0D',.T.,$,$,$,$,$,0.0);
#96=IFCTASK('Bj39cjs1mTKRVRSHTXPjId',#6,'Signage',$,$,'5.6',$,$,$,.F.,$,#95,.INSTALLATION.);
#97=IFCTASKTIME('6. Handover Time',.PREDICTED.,$,.WORKTIME.,'P0Y0M5D','2027-03-01T07:00:00','2027-03-05T07:00:00','2027-06-16T07:00:00','2027-06-25T07:00:00','2027-06-16T07:00:00','2027-06-25T07:00:00','P0Y0M0D','P0Y0M0D',.T.,$,$,$,$,$,0.0);
#98=IFCTASK('xLsT0njXnFqx5RyF9ZZtyL',#6,'6. Handover',$,$,'6',$,$,$,.F.,$,#97,.CONSTRUCTION.);
#99=IFCTASKTIME('Reinstate track Time',.PREDICTED.,$,.WORKTIME.,'P0Y0M5D','2027-03-01T07:00:00','2027-03-05T07:00:00','2027-06-16T07:00:00','2027-06-21T07:00:00','2027-06-16T07:00:00','2027-06-21T07:00:00','P0Y0M0D','P0Y0M0D',.T.,$,$,$,$,$,0.0);
#100=IFCTASK('T$1TiLhl$LHB8HlVFRFT3B',#6,'Reinstate track',$,$,'6.1',$,$,$,.F.,$,#99,.CONSTRUCTION.);
#101=IFCTASKTIME('Testing and inspection Time',.PREDICTED.,$,.WORKTIME.,'P0Y0M3D','2027-03-01T07:00:00','2027-03-03T07:00:00','2027-06-22T07:00:00','2027-06-24T07:00:00','2027-06-22T07:00:00','2027-06-24T07:00:00','P0Y0M0D','P0Y0M0D',.T.,$,$,$,$,$,0.0);
#102=IFCTASK('ohDvP9314x9brvons$P5N$',#6,'Testing and inspection',$,$,'6.2',$,$,$,.F.,$,#101,.ATTENDANCE.);
#103=IFCTASKTIME('Tunnel open to traffic Time',.PREDICTED.,$,.WORKTIME.,'P0Y0M0D','2027-03-01T07:00:00','2027-03-01T07:00:00','2027-06-25T07:00:00','2027-06-25T07:00:00','2027-06-25T07:00:00','2027-06-25T07:00:00','P0Y0M0D','P0Y0M0D',.T.,$,$,$,$,$,0.0);
#104=IFCTASK('g3XzoZfNq3slpn9$dFVbFX',#6,'Tunnel open to traffic',$,$,'6.3',$,$,$,.T.,$,#103,.CONSTRUCTION.);
#105=IFCRELNESTS('sDHRqbzljL$xNR0X7bEVWv',#6,'WBS 1. Preparation',$,#40,( #42,#44,#46,#48,#50));
#106=IFCRELNESTS('d1npNpNfcJSjsdc$IT4h_1',#6,'WBS 2. Excavation pit',$,#52,( #54,#56,#58,#60,#62));
#107=IFCRELNESTS('EvU$c9yHNxnDibSHTVVR3v',#6,'WBS 3. Tunnel structure',$,#64,( #66,#68,#70,#72,#74));
#108=IFCRELNESTS('J5FpxhxFGZyLUZznSNYLwR',#6,'WBS 4. Approach ramps',$,#76,( #78,#80,#82));
#109=IFCRELNESTS('cbuFzr8PvNIdufClk3GfE9',#6,'WBS 5. Building services & finishing',$,#84,( #86,#88,#90,#92,#94,#96));
#110=IFCRELNESTS('CNMzcta1QJCTJXVVczVRFV',#6,'WBS 6. Handover',$,#98,( #100,#102,#104));
#111=IFCRELNESTS('tjjP5r1vgdnD4TBHzDgTrv',#6,'WBS Hoofd',$,#37,(#40,#52,#64,#76,#84,#98));
#112=IFCRELSEQUENCE('LZztw3KFMx$TTfu1F9_lPh',#6,$,$,#42,#44,$,.FINISH_START.,$);
#113=IFCRELSEQUENCE('ZTun9XolflDtjDjF$XFhUp',#6,$,$,#44,#46,$,.FINISH_START.,$);
#114=IFCRELSEQUENCE('BtcfyX6VlJi3PnHVhZBFpj',#6,$,$,#46,#48,$,.FINISH_START.,$);
#115=IFCRELSEQUENCE('O3dLnnBH9hLlVHnXB9EXSN',#6,$,$,#48,#50,$,.FINISH_START.,$);
#116=IFCRELSEQUENCE('xFXLxLRnMPljMtaHVpcp8D',#6,$,$,#54,#56,$,.FINISH_START.,$);
#117=IFCRELSEQUENCE('QbuFTxQviNo7EVJHvbMf_z',#6,$,$,#56,#58,$,.FINISH_START.,$);
#118=IFCRELSEQUENCE('dXDd3dzlZpG1i$jF75QpuR',#6,$,$,#58,#60,$,.FINISH_START.,$);
#119=IFCRELSEQUENCE('ivKJL9inoFPBSPw$G$hHXd',#6,$,$,#60,#62,$,.FINISH_START.,$);
#120=IFCRELSEQUENCE('sNgz6ZednFarav2FNfYhkd',#6,$,$,#66,#68,$,.FINISH_START.,$);
#121=IFCRELSEQUENCE('TTGdB3SlFTwj2JjlhP07j$',#6,$,$,#68,#70,$,.FINISH_START.,$);
#122=IFCRELSEQUENCE('tf_r5FRFUvetVRilCFPJIh',#6,$,$,#70,#72,$,.FINISH_START.,$);
#123=IFCRELSEQUENCE('R1V36dIlf5fxJV7$VHfh6b',#6,$,$,#72,#74,$,.FINISH_START.,$);
#124=IFCLAGTIME('Lag',.PREDICTED.,$,IFCDURATION('P3D'),.WORKTIME.);
#125=IFCRELSEQUENCE('k9CpxhRnkXZtnjxngByZ5H',#6,$,$,#78,#80,#124,.START_START.,$);
#126=IFCRELSEQUENCE('ezt5QpcvKt6JQHDHZ$xVeL',#6,$,$,#80,#82,$,.FINISH_START.,$);
#127=IFCRELSEQUENCE('ohpv$3qXtr7DCBoXmH7blF',#6,$,$,#86,#88,$,.FINISH_START.,$);
#128=IFCRELSEQUENCE('K5dLdxsdjrxXk5O1WNMZbV',#6,$,$,#88,#90,$,.FINISH_START.,$);
#129=IFCRELSEQUENCE('2jsZm9iXvtorSPA1p70vTN',#6,$,$,#90,#92,$,.FINISH_START.,$);
#130=IFCRELSEQUENCE('sDfjFLz1q7GVEhknKjUFDj',#6,$,$,#92,#94,$,.FINISH_START.,$);
#131=IFCRELSEQUENCE('yDoFNH09ZXkPSPIVYrLHpl',#6,$,$,#94,#96,$,.FINISH_START.,$);
#132=IFCRELSEQUENCE('VVRlRR3lvTC5x5O$dF1xjZ',#6,$,$,#100,#102,$,.FINISH_START.,$);
#133=IFCRELSEQUENCE('4lxXmdklH1gz5FpnTV$xX3',#6,$,$,#102,#104,$,.FINISH_START.,$);
#134=IFCLAGTIME('Lag',.PREDICTED.,$,IFCDURATION('P13D'),.WORKTIME.);
#135=IFCRELSEQUENCE('uJJPnHvtPvO9FJLFRRUnvN',#6,$,$,#42,#54,#134,.START_START.,$);
#136=IFCLAGTIME('Lag',.PREDICTED.,$,IFCRATIOMEASURE(0.4),.WORKTIME.);
#137=IFCRELSEQUENCE('I9qxIFCnOPPraJzHs11jMt',#6,$,$,#54,#66,#136,.START_START.,$);
#138=IFCLAGTIME('Lag',.PREDICTED.,$,IFCDURATION('-P7D'),.WORKTIME.);
#139=IFCRELSEQUENCE('H5$TCbTlF3cX6J1XW9MfAv',#6,$,$,#74,#78,#138,.FINISH_START.,$);
#140=IFCLAGTIME('Lag',.PREDICTED.,$,IFCDURATION('P2D'),.WORKTIME.);
#141=IFCRELSEQUENCE('jbL1sBNNG3m$KRCF0PyhMt',#6,$,$,#74,#82,#140,.FINISH_FINISH.,$);
#142=IFCRELSEQUENCE('3njdNJRVbhrnThMHYP4TvN',#6,$,$,#82,#86,$,.FINISH_START.,$);
#143=IFCRELSEQUENCE('UVbl5hDX3FKzBvYnLPmNMJ',#6,$,$,#96,#100,$,.FINISH_START.,$);
#144=IFCRELASSIGNSTOCONTROL('rDVhNjbXHjyDCF$VkTSruD',#6,$,$,(#40,#42,#44,#46,#48,#50,#52,#54,#56,#58,#60,#62,#64,#66,#68,#70,#72,#74,#76,#78,#80,#82,#84,#86,#88,#90,#92,#94,#96,#98,#100,#102,#104),$,#37);
#145=IFCPROPERTYSINGLEVALUE('wbsAutoNumber',$,IFCBOOLEAN(.T.),$);
#146=IFCPROPERTYSINGLEVALUE('ProjectStartDate',$,IFCDATE('2027-03-01'),$);
#147=IFCPROPERTYSINGLEVALUE('ProjectEndDate',$,$,$);
#148=IFCPROPERTYSINGLEVALUE('CreatedAt',$,IFCTEXT('2026-07-28T14:38:23.942Z'),$);
#149=IFCPROPERTYSINGLEVALUE('ModifiedAt',$,IFCTEXT('2026-07-28T14:38:23.943Z'),$);
#150=IFCPROPERTYSET('e5a3ArlP$tNZvpDF1ZK5n5',#6,'OPS_ProjectSettings',$,(#145,#146,#147,#148,#149));
#151=IFCRELDEFINESBYPROPERTIES('0Hdzo1sPJhdjQlBF$1BF9l',#6,$,$,(#13),#150);
#152=IFCPROPERTYSINGLEVALUE('MilestoneKind',$,IFCLABEL('START'),$);
#153=IFCPROPERTYSET('tJrnxH17kLZtNvAlW96Pjz',#6,'OPS_Milestone',$,(#152));
#154=IFCRELDEFINESBYPROPERTIES('UXTNiBNNe7jN3vEngn1x$p',#6,$,$,(#50),#153);
ENDSEC;
END-ISO-10303-21;
