ISO-10303-21;
HEADER;
FILE_DESCRIPTION(('ViewDefinition [SchedulingView]'),'2;1');
FILE_NAME('Agriport A7 Data Centre.ifc','2026-08-14T12:19:00',('Vincent Kok'),('Digital Infrastructure BV'),'Open Planner Studio 0.1','Open Planner Studio','');
FILE_SCHEMA(('IFC4X3'));
ENDSEC;
DATA;
#1=IFCPERSON($,'Vincent Kok',$,$,$,$,$,$);
#2=IFCORGANIZATION($,'Digital Infrastructure BV',$,$,$);
#3=IFCPERSONANDORGANIZATION(#1,#2,$);
#4=IFCORGANIZATION($,'OpenAEC Foundation',$,$,$);
#5=IFCAPPLICATION(#4,'0.1','Open Planner Studio','OPS');
#6=IFCOWNERHISTORY(#3,#5,$,.NOCHANGE.,$,$,$,1786709940);
#7=IFCSIUNIT(*,.LENGTHUNIT.,$,.METRE.);
#8=IFCSIUNIT(*,.TIMEUNIT.,$,.SECOND.);
#9=IFCUNITASSIGNMENT((#7,#8));
#10=IFCCARTESIANPOINT((0.,0.,0.));
#11=IFCAXIS2PLACEMENT3D(#10,$,$);
#12=IFCGEOMETRICREPRESENTATIONCONTEXT($,'Plan',3,1.0E-05,#11,$);
#13=IFCPROJECT('UXh$6zCnuXMFpZN$VH1jcF',#6,'Agriport A7 Data Centre','5,000 m2 data centre with its own power supply',$,$,$,(#12),#9);
#14=IFCTIMEPERIOD('07:00:00','16:00:00');
#15=IFCRECURRENCEPATTERN(.WEEKLY.,$,(1,2,3,4,5),$,$,$,$,(#14));
#16=IFCWORKTIME('Standard work week',.PREDICTED.,$,#15,$,$);
#17=IFCWORKTIME('New Year''s Day',.PREDICTED.,$,$,'2027-01-01','2027-01-01');
#18=IFCWORKTIME('Good Friday',.PREDICTED.,$,$,'2027-03-26','2027-03-26');
#19=IFCWORKTIME('Easter',.PREDICTED.,$,$,'2027-03-28','2027-03-29');
#20=IFCWORKTIME('King''s Day',.PREDICTED.,$,$,'2027-04-27','2027-04-27');
#21=IFCWORKTIME('Liberation Day',.PREDICTED.,$,$,'2027-05-05','2027-05-05');
#22=IFCWORKTIME('Ascension Day',.PREDICTED.,$,$,'2027-05-06','2027-05-06');
#23=IFCWORKTIME('Whitsun',.PREDICTED.,$,$,'2027-05-16','2027-05-17');
#24=IFCWORKTIME('Christmas',.PREDICTED.,$,$,'2027-12-25','2027-12-26');
#25=IFCWORKTIME('Construction holiday (northern region)',.PREDICTED.,$,$,'2027-07-26','2027-08-15');
#26=IFCWORKTIME('New Year''s Day',.PREDICTED.,$,$,'2028-01-01','2028-01-01');
#27=IFCWORKTIME('Good Friday',.PREDICTED.,$,$,'2028-04-14','2028-04-14');
#28=IFCWORKTIME('Easter',.PREDICTED.,$,$,'2028-04-16','2028-04-17');
#29=IFCWORKTIME('King''s Day',.PREDICTED.,$,$,'2028-04-27','2028-04-27');
#30=IFCWORKTIME('Liberation Day',.PREDICTED.,$,$,'2028-05-05','2028-05-05');
#31=IFCWORKTIME('Ascension Day',.PREDICTED.,$,$,'2028-05-25','2028-05-25');
#32=IFCWORKTIME('Whitsun',.PREDICTED.,$,$,'2028-06-04','2028-06-05');
#33=IFCWORKTIME('Christmas',.PREDICTED.,$,$,'2028-12-25','2028-12-26');
#34=IFCWORKTIME('Construction holiday (northern region)',.PREDICTED.,$,$,'2028-07-24','2028-08-13');
#35=IFCWORKCALENDAR('_HlbW$VPl1Yxnv_nBDbFBd',#6,'Construction calendar NL','Standard construction calendar: Mon-Fri 07:00-16:00',$,(#16),(#17,#18,#19,#20,#21,#22,#23,#24,#25,#26,#27,#28,#29,#30,#31,#32,#33,#34),.FIRSTSHIFT.);
#36=IFCWORKPLAN('gdOllVh16ZY55xmXmnztK1',#6,'Agriport A7 Data Centre','5,000 m2 data centre with its own power supply',$,$,'2026-08-14T12:19:00',$,$,$,$,$,'2027-03-01T07:00:00','2027-03-16T07:00:00',.PLANNED.);
#37=IFCWORKSCHEDULE('7rIll$tf81cD8FTFMBa3r3',#6,'Construction schedule v1.0',$,$,$,'2026-08-14T12:19:00',$,$,$,$,$,'2027-03-01T07:00:00','2027-03-16T07:00:00',.PLANNED.);
#38=IFCRELAGGREGATES('X$Ph9TPtbVDd8te$ftI1sz',#6,$,$,#36,(#37));
#39=IFCTASKTIME('1. Preparation Time',.PREDICTED.,$,.WORKTIME.,'P0Y0M5D','2027-03-01T07:00:00','2027-03-05T07:00:00','2027-03-01T07:00:00','2027-04-01T07:00:00','2027-03-01T07:00:00','2027-10-15T07:00:00','P0Y0M0D','P0Y0M0D',.T.,$,$,$,$,$,0.0);
#40=IFCTASK('B92XGf09flhlnv2nbxUhcn',#6,'1. Preparation',$,$,'1',$,$,$,.F.,$,#39,.CONSTRUCTION.);
#41=IFCTASKTIME('Prepare site for construction Time',.PREDICTED.,$,.WORKTIME.,'P0Y0M8D','2027-03-01T07:00:00','2027-03-10T07:00:00','2027-03-01T07:00:00','2027-03-10T07:00:00','2027-03-01T07:00:00','2027-03-10T07:00:00','P0Y0M0D','P0Y0M0D',.T.,$,$,$,$,$,0.0);
#42=IFCTASK('dbeHhD_f2tcDajjlhPG9at',#6,'Prepare site for construction',$,$,'1.1',$,$,$,.F.,$,#41,.CONSTRUCTION.);
#43=IFCTASKTIME('10 kV utility connections Time',.PREDICTED.,$,.WORKTIME.,'P0Y0M10D','2027-03-01T07:00:00','2027-03-12T07:00:00','2027-03-11T07:00:00','2027-03-24T07:00:00','2027-09-28T07:00:00','2027-10-11T07:00:00','P0Y0M0D','P0Y0M122D',.F.,$,$,$,$,$,0.0);
#44=IFCTASK('R$X3_dJniNo7kHnXDBjvTt',#6,'10 kV utility connections',$,$,'1.2',$,$,$,.F.,$,#43,.INSTALLATION.);
#45=IFCTASKTIME('Temporary security fencing Time',.PREDICTED.,$,.WORKTIME.,'P0Y0M3D','2027-03-01T07:00:00','2027-03-03T07:00:00','2027-03-25T07:00:00','2027-03-31T07:00:00','2027-10-12T07:00:00','2027-10-14T07:00:00','P0Y0M0D','P0Y0M122D',.F.,$,$,$,$,$,0.0);
#46=IFCTASK('vlz9YbQX9hb1ufClkzWdVZ',#6,'Temporary security fencing',$,$,'1.3',$,$,$,.F.,$,#45,.INSTALLATION.);
#47=IFCTASKTIME('Start of construction Time',.PREDICTED.,$,.WORKTIME.,'P0Y0M0D','2027-03-01T07:00:00','2027-03-01T07:00:00','2027-04-01T07:00:00','2027-04-01T07:00:00','2027-10-15T07:00:00','2027-10-15T07:00:00','P0Y0M122D','P0Y0M122D',.F.,$,$,$,$,$,0.0);
#48=IFCTASK('$DIHdb_n8fxX_vEncZDPxF',#6,'Start of construction',$,$,'1.4',$,$,$,.T.,$,#47,.CONSTRUCTION.);
#49=IFCTASKTIME('2. Foundations Time',.PREDICTED.,$,.WORKTIME.,'P0Y0M5D','2027-03-01T07:00:00','2027-03-05T07:00:00','2027-03-16T07:00:00','2027-04-30T07:00:00','2027-03-16T07:00:00','2027-10-15T07:00:00','P0Y0M0D','P0Y0M0D',.T.,$,$,$,$,$,0.0);
#50=IFCTASK('5BcfCdr$8N3NFd61KXJvzP',#6,'2. Foundations',$,$,'2',$,$,$,.F.,$,#49,.CONSTRUCTION.);
#51=IFCTASKTIME('Pile driving, foundation piles Time',.PREDICTED.,$,.WORKTIME.,'P0Y0M10D','2027-03-01T07:00:00','2027-03-12T07:00:00','2027-03-16T07:00:00','2027-03-31T07:00:00','2027-03-16T07:00:00','2027-03-31T07:00:00','P0Y0M0D','P0Y0M0D',.T.,$,$,$,$,$,0.0);
#52=IFCTASK('P1NbKr9fQ1U5LzVXs5UhUj',#6,'Pile driving, foundation piles',$,$,'2.1',$,$,$,.F.,$,#51,.CONSTRUCTION.);
#53=IFCTASKTIME('Foundation beams Time',.PREDICTED.,$,.WORKTIME.,'P0Y0M8D','2027-03-01T07:00:00','2027-03-10T07:00:00','2027-04-01T07:00:00','2027-04-12T07:00:00','2027-09-17T07:00:00','2027-09-28T07:00:00','P0Y0M0D','P0Y0M102D',.F.,$,$,$,$,$,0.0);
#54=IFCTASK('MdGPFFpXNlBFxH71PLGfQh',#6,'Foundation beams',$,$,'2.2',$,$,$,.F.,$,#53,.CONSTRUCTION.);
#55=IFCTASKTIME('Pour slab on piles Time',.PREDICTED.,$,.WORKTIME.,'P0Y0M8D','2027-03-01T07:00:00','2027-03-10T07:00:00','2027-04-13T07:00:00','2027-04-22T07:00:00','2027-09-29T07:00:00','2027-10-08T07:00:00','P0Y0M0D','P0Y0M102D',.F.,$,$,$,$,$,0.0);
#56=IFCTASK('8rsvhNmNu9PjIbalbRc7dr',#6,'Pour slab on piles',$,$,'2.3',$,$,$,.F.,$,#55,.CONSTRUCTION.);
#57=IFCTASKTIME('Cable trays in floor Time',.PREDICTED.,$,.WORKTIME.,'P0Y0M5D','2027-03-01T07:00:00','2027-03-05T07:00:00','2027-04-23T07:00:00','2027-04-30T07:00:00','2027-10-11T07:00:00','2027-10-15T07:00:00','P0Y0M102D','P0Y0M102D',.F.,$,$,$,$,$,0.0);
#58=IFCTASK('Dvcf0ld9D51Z37_nnRfLoN',#6,'Cable trays in floor',$,$,'2.4',$,$,$,.F.,$,#57,.INSTALLATION.);
#59=IFCTASKTIME('3. Structure Time',.PREDICTED.,$,.WORKTIME.,'P0Y0M5D','2027-03-01T07:00:00','2027-03-05T07:00:00','2027-03-22T07:00:00','2027-05-20T07:00:00','2027-03-22T07:00:00','2027-10-15T07:00:00','P0Y0M0D','P0Y0M0D',.T.,$,$,$,$,$,0.0);
#60=IFCTASK('wFtp7BmfYdSJEV5FgHLltp',#6,'3. Structure',$,$,'3',$,$,$,.F.,$,#59,.CONSTRUCTION.);
#61=IFCTASKTIME('Precast concrete walls Time',.PREDICTED.,$,.WORKTIME.,'P0Y0M12D','2027-03-01T07:00:00','2027-03-16T07:00:00','2027-03-22T07:00:00','2027-04-08T07:00:00','2027-03-22T07:00:00','2027-04-08T07:00:00','P0Y0M0D','P0Y0M0D',.T.,$,$,$,$,$,0.0);
#62=IFCTASK('6nVhrzCFyx7LklP$dlzfcl',#6,'Precast concrete walls',$,$,'3.1',$,$,$,.F.,$,#61,.CONSTRUCTION.);
#63=IFCTASKTIME('Structural steel, roof Time',.PREDICTED.,$,.WORKTIME.,'P0Y0M8D','2027-03-01T07:00:00','2027-03-10T07:00:00','2027-04-09T07:00:00','2027-04-20T07:00:00','2027-04-09T07:00:00','2027-04-20T07:00:00','P0Y0M0D','P0Y0M0D',.T.,$,$,$,$,$,0.0);
#64=IFCTASK('1JQJpJTl91FLMLYFZZyTrd',#6,'Structural steel, roof',$,$,'3.2',$,$,$,.F.,$,#63,.CONSTRUCTION.);
#65=IFCTASKTIME('Sandwich roof panels Time',.PREDICTED.,$,.WORKTIME.,'P0Y0M8D','2027-03-01T07:00:00','2027-03-10T07:00:00','2027-04-21T07:00:00','2027-05-03T07:00:00','2027-04-21T07:00:00','2027-05-03T07:00:00','P0Y0M0D','P0Y0M0D',.T.,$,$,$,$,$,0.0);
#66=IFCTASK('fzdL$PcXFFqTtrg1vbQ7tp',#6,'Sandwich roof panels',$,$,'3.3',$,$,$,.F.,$,#65,.INSTALLATION.);
#67=IFCTASKTIME('Raised computer floor Time',.PREDICTED.,$,.WORKTIME.,'P0Y0M10D','2027-03-01T07:00:00','2027-03-12T07:00:00','2027-05-04T07:00:00','2027-05-20T07:00:00','2027-05-04T07:00:00','2027-05-20T07:00:00','P0Y0M0D','P0Y0M0D',.T.,$,$,$,$,$,0.0);
#68=IFCTASK('jtCxQf0tNnPrixWXdF$5pD',#6,'Raised computer floor',$,$,'3.4',$,$,$,.F.,$,#67,.INSTALLATION.);
#69=IFCTASKTIME('Topping out Time',.PREDICTED.,$,.WORKTIME.,'P0Y0M0D','2027-03-01T07:00:00','2027-03-01T07:00:00','2027-05-20T07:00:00','2027-05-20T07:00:00','2027-10-15T07:00:00','2027-10-15T07:00:00','P0Y0M91D','P0Y0M91D',.F.,$,$,$,$,$,0.0);
#70=IFCTASK('STelxBv9bhpPa7wHR5oRfz',#6,'Topping out',$,$,'3.5',$,$,$,.T.,$,#69,.CONSTRUCTION.);
#71=IFCTASKTIME('4. Facade & weathertight Time',.PREDICTED.,$,.WORKTIME.,'P0Y0M5D','2027-03-01T07:00:00','2027-03-05T07:00:00','2027-05-10T07:00:00','2027-06-07T07:00:00','2027-05-10T07:00:00','2027-10-15T07:00:00','P0Y0M0D','P0Y0M0D',.T.,$,$,$,$,$,0.0);
#72=IFCTASK('BfQjFBv9D7BFBdA$f9YnL9',#6,'4. Facade & weathertight',$,$,'4',$,$,$,.F.,$,#71,.CONSTRUCTION.);
#73=IFCTASKTIME('Facade insulation and cladding Time',.PREDICTED.,$,.WORKTIME.,'P0Y0M10D','2027-03-01T07:00:00','2027-03-12T07:00:00','2027-05-10T07:00:00','2027-05-24T07:00:00','2027-05-10T07:00:00','2027-05-24T07:00:00','P0Y0M0D','P0Y0M0D',.T.,$,$,$,$,$,0.0);
#74=IFCTASK('2DoFfFiXbBnLIFDF1zOlFV',#6,'Facade insulation and cladding',$,$,'4.1',$,$,$,.F.,$,#73,.INSTALLATION.);
#75=IFCTASKTIME('Loading docks and doors Time',.PREDICTED.,$,.WORKTIME.,'P0Y0M5D','2027-03-01T07:00:00','2027-03-05T07:00:00','2027-05-25T07:00:00','2027-05-31T07:00:00','2027-05-25T07:00:00','2027-05-31T07:00:00','P0Y0M0D','P0Y0M0D',.T.,$,$,$,$,$,0.0);
#76=IFCTASK('dRWNqPjnufzfhZrHn9YF$D',#6,'Loading docks and doors',$,$,'4.2',$,$,$,.F.,$,#75,.INSTALLATION.);
#77=IFCTASKTIME('Roof waterproofing Time',.PREDICTED.,$,.WORKTIME.,'P0Y0M5D','2027-03-01T07:00:00','2027-03-05T07:00:00','2027-06-01T07:00:00','2027-06-07T07:00:00','2027-06-01T07:00:00','2027-06-07T07:00:00','P0Y0M0D','P0Y0M0D',.T.,$,$,$,$,$,0.0);
#78=IFCTASK('qBdz2hylR1fTJVd$3H9B4v',#6,'Roof waterproofing',$,$,'4.3',$,$,$,.F.,$,#77,.CONSTRUCTION.);
#79=IFCTASKTIME('Wind and weathertight Time',.PREDICTED.,$,.WORKTIME.,'P0Y0M0D','2027-03-01T07:00:00','2027-03-01T07:00:00','2027-06-07T07:00:00','2027-06-07T07:00:00','2027-10-15T07:00:00','2027-10-15T07:00:00','P0Y0M79D','P0Y0M79D',.F.,$,$,$,$,$,0.0);
#80=IFCTASK('zDonr7I9xFlJIF5HCZyLkd',#6,'Wind and weathertight',$,$,'4.4',$,$,$,.T.,$,#79,.CONSTRUCTION.);
#81=IFCTASKTIME('5. Power & cooling Time',.PREDICTED.,$,.WORKTIME.,'P0Y0M5D','2027-03-01T07:00:00','2027-03-05T07:00:00','2027-06-08T07:00:00','2027-09-22T07:00:00','2027-06-08T07:00:00','2027-10-15T07:00:00','P0Y0M0D','P0Y0M0D',.T.,$,$,$,$,$,0.0);
#82=IFCTASK('KxnDxL5nitQDOvMl6J7RPh',#6,'5. Power & cooling',$,$,'5',$,$,$,.F.,$,#81,.INSTALLATION.);
#83=IFCTASKTIME('10 kV transformers Time',.PREDICTED.,$,.WORKTIME.,'P0Y0M8D','2027-03-01T07:00:00','2027-03-10T07:00:00','2027-06-08T07:00:00','2027-06-17T07:00:00','2027-06-08T07:00:00','2027-06-17T07:00:00','P0Y0M0D','P0Y0M0D',.T.,$,$,$,$,$,0.0);
#84=IFCTASK('yHJdFHXvyF$ZZN8$FtwdXZ',#6,'10 kV transformers',$,$,'5.1',$,$,$,.F.,$,#83,.INSTALLATION.);
#85=IFCTASKTIME('UPS systems Time',.PREDICTED.,$,.WORKTIME.,'P0Y0M10D','2027-03-01T07:00:00','2027-03-12T07:00:00','2027-06-18T07:00:00','2027-07-01T07:00:00','2027-07-13T07:00:00','2027-08-16T07:00:00','P0Y0M0D','P0Y0M17D',.F.,$,$,$,$,$,0.0);
#86=IFCTASK('Y19x_Lin296JU3N$YLdJ_1',#6,'UPS systems',$,$,'5.2',$,$,$,.F.,$,#85,.INSTALLATION.);
#87=IFCTASKTIME('Emergency generators Time',.PREDICTED.,$,.WORKTIME.,'P0Y0M8D','2027-03-01T07:00:00','2027-03-10T07:00:00','2027-07-02T07:00:00','2027-07-13T07:00:00','2027-08-17T07:00:00','2027-08-26T07:00:00','P0Y0M0D','P0Y0M17D',.F.,$,$,$,$,$,0.0);
#88=IFCTASK('dRGdnnZ$o5fxJVlVrJnTJz',#6,'Emergency generators',$,$,'5.3',$,$,$,.F.,$,#87,.INSTALLATION.);
#89=IFCTASKTIME('Main distribution and PDUs Time',.PREDICTED.,$,.WORKTIME.,'P0Y0M10D','2027-03-01T07:00:00','2027-03-12T07:00:00','2027-07-14T07:00:00','2027-08-17T07:00:00','2027-08-27T07:00:00','2027-09-09T07:00:00','P0Y0M0D','P0Y0M17D',.F.,$,$,$,$,$,0.0);
#90=IFCTASK('N3FDV94$CzUN$$$Xs5kxxn',#6,'Main distribution and PDUs',$,$,'5.4',$,$,$,.F.,$,#89,.INSTALLATION.);
#91=IFCTASKTIME('Chillers Time',.PREDICTED.,$,.WORKTIME.,'P0Y0M10D','2027-03-01T07:00:00','2027-03-12T07:00:00','2027-08-18T07:00:00','2027-08-31T07:00:00','2027-09-10T07:00:00','2027-09-23T07:00:00','P0Y0M0D','P0Y0M17D',.F.,$,$,$,$,$,0.0);
#92=IFCTASK('rts7hfGN4xXzfdkVYdS3TN',#6,'Chillers',$,$,'5.5',$,$,$,.F.,$,#91,.INSTALLATION.);
#93=IFCTASKTIME('CRAH units, data halls Time',.PREDICTED.,$,.WORKTIME.,'P0Y0M8D','2027-03-01T07:00:00','2027-03-10T07:00:00','2027-09-01T07:00:00','2027-09-10T07:00:00','2027-09-24T07:00:00','2027-10-05T07:00:00','P0Y0M0D','P0Y0M17D',.F.,$,$,$,$,$,0.0);
#94=IFCTASK('JRTN8rGfa$NT9Bw1OR2l$f',#6,'CRAH units, data halls',$,$,'5.6',$,$,$,.F.,$,#93,.INSTALLATION.);
#95=IFCTASKTIME('External cooling towers Time',.PREDICTED.,$,.WORKTIME.,'P0Y0M8D','2027-03-01T07:00:00','2027-03-10T07:00:00','2027-09-13T07:00:00','2027-09-22T07:00:00','2027-10-06T07:00:00','2027-10-15T07:00:00','P0Y0M17D','P0Y0M17D',.F.,$,$,$,$,$,0.0);
#96=IFCTASK('PRuVaDQvyFfxHf4Hv5QpW7',#6,'External cooling towers',$,$,'5.7',$,$,$,.F.,$,#95,.INSTALLATION.);
#97=IFCTASKTIME('6. ICT & security Time',.PREDICTED.,$,.WORKTIME.,'P0Y0M5D','2027-03-01T07:00:00','2027-03-05T07:00:00','2027-07-21T07:00:00','2027-09-24T07:00:00','2027-07-21T07:00:00','2027-09-24T07:00:00','P0Y0M0D','P0Y0M0D',.T.,$,$,$,$,$,0.0);
#98=IFCTASK('7lR1UtjXTDmV6V9$KV39Cz',#6,'6. ICT & security',$,$,'6',$,$,$,.F.,$,#97,.INSTALLATION.);
#99=IFCTASKTIME('Incoming fibre optics Time',.PREDICTED.,$,.WORKTIME.,'P0Y0M5D','2027-03-01T07:00:00','2027-03-05T07:00:00','2027-07-21T07:00:00','2027-08-17T07:00:00','2027-07-21T07:00:00','2027-08-17T07:00:00','P0Y0M0D','P0Y0M0D',.T.,$,$,$,$,$,0.0);
#100=IFCTASK('oB1BH5VdZDe9vV71rNMTXT',#6,'Incoming fibre optics',$,$,'6.1',$,$,$,.F.,$,#99,.INSTALLATION.);
#101=IFCTASKTIME('Patch panels and cabling Time',.PREDICTED.,$,.WORKTIME.,'P0Y0M8D','2027-03-01T07:00:00','2027-03-10T07:00:00','2027-08-18T07:00:00','2027-08-27T07:00:00','2027-08-18T07:00:00','2027-08-27T07:00:00','P0Y0M0D','P0Y0M0D',.T.,$,$,$,$,$,0.0);
#102=IFCTASK('6hATOR_Fq3AHbBEXexYhIh',#6,'Patch panels and cabling',$,$,'6.2',$,$,$,.F.,$,#101,.INSTALLATION.);
#103=IFCTASKTIME('Gas fire suppression system Time',.PREDICTED.,$,.WORKTIME.,'P0Y0M5D','2027-03-01T07:00:00','2027-03-05T07:00:00','2027-08-30T07:00:00','2027-09-03T07:00:00','2027-08-30T07:00:00','2027-09-03T07:00:00','P0Y0M0D','P0Y0M0D',.T.,$,$,$,$,$,0.0);
#104=IFCTASK('N7iJHR5XVdFp03RFmlfL_Z',#6,'Gas fire suppression system',$,$,'6.3',$,$,$,.F.,$,#103,.INSTALLATION.);
#105=IFCTASKTIME('Biometric access control Time',.PREDICTED.,$,.WORKTIME.,'P0Y0M5D','2027-03-01T07:00:00','2027-03-05T07:00:00','2027-09-06T07:00:00','2027-09-10T07:00:00','2027-09-06T07:00:00','2027-09-10T07:00:00','P0Y0M0D','P0Y0M0D',.T.,$,$,$,$,$,0.0);
#106=IFCTASK('xh_rLfuvobJfjXVVA$9ra5',#6,'Biometric access control',$,$,'6.4',$,$,$,.F.,$,#105,.INSTALLATION.);
#107=IFCTASKTIME('CCTV system Time',.PREDICTED.,$,.WORKTIME.,'P0Y0M5D','2027-03-01T07:00:00','2027-03-05T07:00:00','2027-09-13T07:00:00','2027-09-17T07:00:00','2027-09-13T07:00:00','2027-09-17T07:00:00','P0Y0M0D','P0Y0M0D',.T.,$,$,$,$,$,0.0);
#108=IFCTASK('XVDdtz5F4x9RnDFXZTarGn',#6,'CCTV system',$,$,'6.5',$,$,$,.F.,$,#107,.INSTALLATION.);
#109=IFCTASKTIME('BMS monitoring Time',.PREDICTED.,$,.WORKTIME.,'P0Y0M5D','2027-03-01T07:00:00','2027-03-05T07:00:00','2027-09-20T07:00:00','2027-09-24T07:00:00','2027-09-20T07:00:00','2027-09-24T07:00:00','P0Y0M0D','P0Y0M0D',.T.,$,$,$,$,$,0.0);
#110=IFCTASK('bRm7Bd_FeFSrCHbnGFhX8j',#6,'BMS monitoring',$,$,'6.6',$,$,$,.F.,$,#109,.INSTALLATION.);
#111=IFCTASKTIME('7. Handover Time',.PREDICTED.,$,.WORKTIME.,'P0Y0M5D','2027-03-01T07:00:00','2027-03-05T07:00:00','2027-09-27T07:00:00','2027-10-15T07:00:00','2027-09-27T07:00:00','2027-10-15T07:00:00','P0Y0M0D','P0Y0M0D',.T.,$,$,$,$,$,0.0);
#112=IFCTASK('a$fbuJRVTX_9dlJHprR1YH',#6,'7. Handover',$,$,'7',$,$,$,.F.,$,#111,.CONSTRUCTION.);
#113=IFCTASKTIME('Test failover scenario Time',.PREDICTED.,$,.WORKTIME.,'P0Y0M5D','2027-03-01T07:00:00','2027-03-05T07:00:00','2027-09-27T07:00:00','2027-10-01T07:00:00','2027-09-27T07:00:00','2027-10-01T07:00:00','P0Y0M0D','P0Y0M0D',.T.,$,$,$,$,$,0.0);
#114=IFCTASK('J9q5E$6vUdqx3vsHiJgNUp',#6,'Test failover scenario',$,$,'7.1',$,$,$,.F.,$,#113,.ATTENDANCE.);
#115=IFCTASKTIME('Site finishing Time',.PREDICTED.,$,.WORKTIME.,'P0Y0M5D','2027-03-01T07:00:00','2027-03-05T07:00:00','2027-10-04T07:00:00','2027-10-08T07:00:00','2027-10-04T07:00:00','2027-10-08T07:00:00','P0Y0M0D','P0Y0M0D',.T.,$,$,$,$,$,0.0);
#116=IFCTASK('6nXLPbQXZJq5Htu1PLWPbX',#6,'Site finishing',$,$,'7.2',$,$,$,.F.,$,#115,.CONSTRUCTION.);
#117=IFCTASKTIME('Tier III certification Time',.PREDICTED.,$,.WORKTIME.,'P0Y0M5D','2027-03-01T07:00:00','2027-03-05T07:00:00','2027-10-11T07:00:00','2027-10-15T07:00:00','2027-10-11T07:00:00','2027-10-15T07:00:00','P0Y0M0D','P0Y0M0D',.T.,$,$,$,$,$,0.0);
#118=IFCTASK('qfYhnHNNqZMzv$bHQ7SrWv',#6,'Tier III certification',$,$,'7.3',$,$,$,.F.,$,#117,.ATTENDANCE.);
#119=IFCTASKTIME('Handover Time',.PREDICTED.,$,.WORKTIME.,'P0Y0M0D','2027-03-01T07:00:00','2027-03-01T07:00:00','2027-10-15T07:00:00','2027-10-15T07:00:00','2027-10-15T07:00:00','2027-10-15T07:00:00','P0Y0M0D','P0Y0M0D',.T.,$,$,$,$,$,0.0);
#120=IFCTASK('8r6tQ9S1YjoByThlf9oVOh',#6,'Handover',$,$,'7.4',$,$,$,.T.,$,#119,.CONSTRUCTION.);
#121=IFCRELNESTS('k5npxBvttXLlxx81J5xltp',#6,'WBS 1. Preparation',$,#40,( #42,#44,#46,#48));
#122=IFCRELNESTS('q9U1AFBl3TAZ7pDn$38nn5',#6,'WBS 2. Foundations',$,#50,( #52,#54,#56,#58));
#123=IFCRELNESTS('1jM3AF5nWbhHbhInODJ7nV',#6,'WBS 3. Structure',$,#60,( #62,#64,#66,#68,#70));
#124=IFCRELNESTS('kbbH7hqXLPypiVFXR$1JEN',#6,'WBS 4. Facade & weathertight',$,#72,( #74,#76,#78,#80));
#125=IFCRELNESTS('b$fbihBHLdq5xbalJt_l9J',#6,'WBS 5. Power & cooling',$,#82,( #84,#86,#88,#90,#92,#94,#96));
#126=IFCRELNESTS('0lVh5B$7ElhHH9O$8Z5VmX',#6,'WBS 6. ICT & security',$,#98,( #100,#102,#104,#106,#108,#110));
#127=IFCRELNESTS('ZZmdzPB$elOt3RmXmVXbdL',#6,'WBS 7. Handover',$,#112,( #114,#116,#118,#120));
#128=IFCRELNESTS('tjjP5r1vgdnD4TBHzDgTrv',#6,'WBS Hoofd',$,#37,(#40,#50,#60,#72,#82,#98,#112));
#129=IFCRELSEQUENCE('YTm7$TGfS1t3$rg$Vn39mF',#6,$,$,#42,#44,$,.FINISH_START.,$);
#130=IFCRELSEQUENCE('Q5C5Qpw7ALNZltO$7Xj7NT',#6,$,$,#44,#46,$,.FINISH_START.,$);
#131=IFCRELSEQUENCE('8JD7ht4H7387UZBHF9I1AT',#6,$,$,#46,#48,$,.FINISH_START.,$);
#132=IFCRELSEQUENCE('gzPh3Pr1qPajYZ5HWtQv9p',#6,$,$,#52,#54,$,.FINISH_START.,$);
#133=IFCRELSEQUENCE('ypgPlXzlpx9RttiHC3eVaR',#6,$,$,#54,#56,$,.FINISH_START.,$);
#134=IFCRELSEQUENCE('8L6DBZWtJLFhYNal$3m9iV',#6,$,$,#56,#58,$,.FINISH_START.,$);
#135=IFCRELSEQUENCE('V3yrJ3bnIVLHhTBHxlxXer',#6,$,$,#62,#64,$,.FINISH_START.,$);
#136=IFCRELSEQUENCE('FvwtoTPtzZgzz5yHPrqpKJ',#6,$,$,#64,#66,$,.FINISH_START.,$);
#137=IFCRELSEQUENCE('9p$BPtJXTDO9BvslabFZFR',#6,$,$,#66,#68,$,.FINISH_START.,$);
#138=IFCRELSEQUENCE('exKRGfGfelWH1VhF9vix1p',#6,$,$,#68,#70,$,.FINISH_START.,$);
#139=IFCRELSEQUENCE('DdULxr17Ih3NJ$rlBfgTBP',#6,$,$,#74,#76,$,.FINISH_START.,$);
#140=IFCRELSEQUENCE('dRe$2P5XD5drGxaH5L8F7t',#6,$,$,#76,#78,$,.FINISH_START.,$);
#141=IFCRELSEQUENCE('gZJ7P9xnGTyLwX9$8hmNIL',#6,$,$,#78,#80,$,.FINISH_START.,$);
#142=IFCRELSEQUENCE('6rIlLD2fM5PrKXt1Ojdxrd',#6,$,$,#84,#86,$,.FINISH_START.,$);
#143=IFCRELSEQUENCE('8hoby1UN4FFpOVbnmH7R75',#6,$,$,#86,#88,$,.FINISH_START.,$);
#144=IFCRELSEQUENCE('rtAvB7AddDkPqHpl5LGfg9',#6,$,$,#88,#90,$,.FINISH_START.,$);
#145=IFCRELSEQUENCE('KPuVajolPvufpFP$0PyLgD',#6,$,$,#90,#92,$,.FINISH_START.,$);
#146=IFCRELSEQUENCE('uroFbXjFCZgz5n5lu3vpml',#6,$,$,#92,#94,$,.FINISH_START.,$);
#147=IFCRELSEQUENCE('QbOHxLZ1UvOPGBc$Q7aB47',#6,$,$,#94,#96,$,.FINISH_START.,$);
#148=IFCRELSEQUENCE('gZrVmN8Pp7LlthUnv5A3R5',#6,$,$,#100,#102,$,.FINISH_START.,$);
#149=IFCRELSEQUENCE('0nTfiBFP3F4pKXFXZZKjgJ',#6,$,$,#102,#104,$,.FINISH_START.,$);
#150=IFCRELSEQUENCE('jxPhZNX7CzsHL3d$pdijId',#6,$,$,#104,#106,$,.FINISH_START.,$);
#151=IFCRELSEQUENCE('ovEF9XklNRBnFJRnepLXWv',#6,$,$,#106,#108,$,.FINISH_START.,$);
#152=IFCRELSEQUENCE('cxyrdtZ1I$nLwjN$kZSBK1',#6,$,$,#108,#110,$,.FINISH_START.,$);
#153=IFCRELSEQUENCE('_JAZm9a$srLlbLMlEHFTxl',#6,$,$,#114,#116,$,.FINISH_START.,$);
#154=IFCRELSEQUENCE('9jTf0lXv8fxVYNKnEpk5jZ',#6,$,$,#116,#118,$,.FINISH_START.,$);
#155=IFCRELSEQUENCE('d$$TmvAdrNo7U9WXtdGNkv',#6,$,$,#118,#120,$,.FINISH_START.,$);
#156=IFCLAGTIME('Lag',.PREDICTED.,$,IFCDURATION('P11D'),.WORKTIME.);
#157=IFCRELSEQUENCE('tpP32rmf6nyDqrQ$sRQvlF',#6,$,$,#42,#52,#156,.START_START.,$);
#158=IFCLAGTIME('Lag',.PREDICTED.,$,IFCRATIOMEASURE(0.4),.WORKTIME.);
#159=IFCRELSEQUENCE('LvazU9hllpe9bVpHRxMTjz',#6,$,$,#52,#62,#158,.START_START.,$);
#160=IFCLAGTIME('Lag',.PREDICTED.,$,IFCDURATION('-P8D'),.WORKTIME.);
#161=IFCRELSEQUENCE('LZh1g5Fv_TyhoXplT1zf_3',#6,$,$,#68,#74,#160,.FINISH_START.,$);
#162=IFCLAGTIME('Lag',.PREDICTED.,$,IFCDURATION('P2D'),.WORKTIME.);
#163=IFCRELSEQUENCE('uB2XWVpFMd7LIHnXvb_HRx',#6,$,$,#68,#78,#162,.FINISH_FINISH.,$);
#164=IFCRELSEQUENCE('VV3tAhJVB9M3B7oFsbAtm$',#6,$,$,#78,#84,$,.FINISH_START.,$);
#165=IFCLAGTIME('Lag',.PREDICTED.,$,IFCDURATION('P31D'),.WORKTIME.);
#166=IFCRELSEQUENCE('bXJ73h4HLP4LoLonwp3t8D',#6,$,$,#84,#100,#165,.START_START.,$);
#167=IFCRELSEQUENCE('bXrVObolfF9RbXrnn9wPj3',#6,$,$,#110,#114,$,.FINISH_START.,$);
#168=IFCLABORRESOURCE('or1Bt$o9T1sTLZLlLZR$I7',#6,'Electricians','Power distribution from the 10 kV connection down to the PDUs — the dominant discipline here',$,$,$,$,.USERDEFINED.);
#169=IFCLABORRESOURCE('Bpnx_vVdJh15LZJnxHb1AZ',#6,'Mechanical fitters',$,$,$,$,$,.USERDEFINED.);
#170=IFCLABORRESOURCE('6lDv1ZePLPCZPT9$HhlBGF',#6,'ICT cabling technicians',$,$,$,$,$,.USERDEFINED.);
#171=IFCLABORRESOURCE('H5vBZ5gdJ9Pj2vYFr9A9iJ',#6,'Commissioning engineer','Integral testing of the failover scenario and the Tier III certification',$,$,$,$,.USERDEFINED.);
#172=IFCLABORRESOURCE('k5X3M$v9JN3frJ3H_bPxJ3',#6,'Structural crew','Shell and core; secondary on this project',$,$,$,$,.USERDEFINED.);
#173=IFCCONSTRUCTIONEQUIPMENTRESOURCE('Pxqp$vgdFzAHvDblYdijEf',#6,'Mobile crane',$,$,$,$,$,.USERDEFINED.);
#174=IFCSUBCONTRACTRESOURCE('e5CpZfd9zTgzDT91JNgZPd',#6,'UPS and generator supplier',$,$,$,$,$,.USERDEFINED.);
#175=IFCSUBCONTRACTRESOURCE('X34Bhf0tB3mVgrEXKDcD4L',#6,'Cooling contractor',$,$,$,$,$,.USERDEFINED.);
#176=IFCSUBCONTRACTRESOURCE('Q$npdxw7YD_txnrHLPmt0f',#6,'Fire suppression contractor',$,$,$,$,$,.USERDEFINED.);
#177=IFCPROPERTYSINGLEVALUE('MaxUnits',$,IFCREAL(12),$);
#178=IFCPROPERTYSINGLEVALUE('CostPerHour',$,IFCMONETARYMEASURE(49),$);
#179=IFCPROPERTYSET('wLAZq5d9r9ILAxSHTXVbzP',#6,'OPS_Resource',$,(#177,#178));
#180=IFCRELDEFINESBYPROPERTIES('J9q56dQVnFibDTFVfpTf_1',#6,$,$,(#168),#179);
#181=IFCPROPERTYSINGLEVALUE('MaxUnits',$,IFCREAL(8),$);
#182=IFCPROPERTYSINGLEVALUE('CostPerHour',$,IFCMONETARYMEASURE(48),$);
#183=IFCPROPERTYSET('9tQNq5XdTDWl5bSlFRlzzv',#6,'OPS_Resource',$,(#181,#182));
#184=IFCRELDEFINESBYPROPERTIES('G9yTqbr1ednDunrHbXpdfV',#6,$,$,(#169),#183);
#185=IFCPROPERTYSINGLEVALUE('MaxUnits',$,IFCREAL(6),$);
#186=IFCPROPERTYSINGLEVALUE('CostPerHour',$,IFCMONETARYMEASURE(47),$);
#187=IFCPROPERTYSET('EvIll1vtxbhHXnTnoHXDa5',#6,'OPS_Resource',$,(#185,#186));
#188=IFCRELDEFINESBYPROPERTIES('rJZf4Z8dZVw1O$XXyrZ9yP',#6,$,$,(#170),#187);
#189=IFCPROPERTYSINGLEVALUE('MaxUnits',$,IFCREAL(2),$);
#190=IFCPROPERTYSINGLEVALUE('CostPerHour',$,IFCMONETARYMEASURE(85),$);
#191=IFCPROPERTYSET('RRGdb5Nf2TKzDzJlT381Un',#6,'OPS_Resource',$,(#189,#190));
#192=IFCRELDEFINESBYPROPERTIES('qNAZCRh1oFHJYtu1R$H319',#6,$,$,(#171),#191);
#193=IFCPROPERTYSINGLEVALUE('MaxUnits',$,IFCREAL(8),$);
#194=IFCPROPERTYSINGLEVALUE('CostPerHour',$,IFCMONETARYMEASURE(45),$);
#195=IFCPROPERTYSET('c5yZuDtNePtblz91OjfLMt',#6,'OPS_Resource',$,(#193,#194));
#196=IFCRELDEFINESBYPROPERTIES('pPsZWXjFCT_b5l91KJAtC3',#6,$,$,(#172),#195);
#197=IFCPROPERTYSINGLEVALUE('CostPerHour',$,IFCMONETARYMEASURE(95),$);
#198=IFCPROPERTYSET('5FNjJZ9NUpQXARWVrDbntn',#6,'OPS_Resource',$,(#197));
#199=IFCRELDEFINESBYPROPERTIES('Uzaz_779r30nJJN$sboXm$',#6,$,$,(#173),#198);
#200=IFCPROPERTYSINGLEVALUE('MaxUnits',$,IFCREAL(4),$);
#201=IFCPROPERTYSINGLEVALUE('CostPerHour',$,IFCMONETARYMEASURE(95),$);
#202=IFCPROPERTYSET('4nfJP9bFo5fxDn71on5lNz',#6,'OPS_Resource',$,(#200,#201));
#203=IFCRELDEFINESBYPROPERTIES('ZzSzkJpFkhj72DHX9dOXCl',#6,$,$,(#174),#202);
#204=IFCPROPERTYSINGLEVALUE('MaxUnits',$,IFCREAL(6),$);
#205=IFCPROPERTYSINGLEVALUE('CostPerHour',$,IFCMONETARYMEASURE(72),$);
#206=IFCPROPERTYSET('rpXLP5Q7CP4pSJRFObk1Qh',#6,'OPS_Resource',$,(#204,#205));
#207=IFCRELDEFINESBYPROPERTIES('S$FDNJJnCz6149aHlrDdHr',#6,$,$,(#175),#206);
#208=IFCPROPERTYSINGLEVALUE('MaxUnits',$,IFCREAL(3),$);
#209=IFCPROPERTYSINGLEVALUE('CostPerHour',$,IFCMONETARYMEASURE(78),$);
#210=IFCPROPERTYSET('ktKJv7XdnnK3DzZH8Zb1Mf',#6,'OPS_Resource',$,(#208,#209));
#211=IFCRELDEFINESBYPROPERTIES('LT39_Be74lzvcTP$0PqbBz',#6,$,$,(#176),#210);
#212=IFCRELASSIGNSTOPROCESS('h7KRuBGNufTtRXRnSxjvr3',#6,$,$,(#168),$,#44,$);
#213=IFCRELASSIGNSTOPROCESS('6FP3IH097fIPuHP1pPqbZt',#6,$,$,(#172),$,#54,$);
#214=IFCRELASSIGNSTOPROCESS('eZrX0ltf6z6$0TXVK1H3bR',#6,$,$,(#172),$,#56,$);
#215=IFCRELASSIGNSTOPROCESS('ZVpdTN1vcjCZhZpnp7OHRb',#6,$,$,(#168),$,#58,$);
#216=IFCRELASSIGNSTOPROCESS('AtU1E$2fQD8vgroXipYLkL',#6,$,$,(#173,#172),$,#62,$);
#217=IFCRELASSIGNSTOPROCESS('l51Tmt4lVP7hoBA1Lz$5dP',#6,$,$,(#173,#172),$,#64,$);
#218=IFCRELASSIGNSTOPROCESS('PxS3kpNNAtPJoBw$a96dN1',#6,$,$,(#172),$,#66,$);
#219=IFCRELASSIGNSTOPROCESS('zFD71T8dd7mV2D1XYLFh_3',#6,$,$,(#169),$,#68,$);
#220=IFCRELASSIGNSTOPROCESS('kRrXKr9f6nCZx5GXwNQpij',#6,$,$,(#172),$,#74,$);
#221=IFCRELASSIGNSTOPROCESS('CN2B3BmfYjU5Xl$X0vWd3r',#6,$,$,(#168),$,#84,$);
#222=IFCRELASSIGNSTOPROCESS('kNmvfnSljtdjUNKnAVZfob',#6,$,$,(#174,#168),$,#86,$);
#223=IFCRELASSIGNSTOPROCESS('9DF5sBd9NxPri5WVZ13NIL',#6,$,$,(#174,#169),$,#88,$);
#224=IFCRELASSIGNSTOPROCESS('P54BDDXPhdqTDFVXK$NLkL',#6,$,$,(#168),$,#90,$);
#225=IFCRELASSIGNSTOPROCESS('RXBXuJRX5brFb$d$u3FLYF',#6,$,$,(#175,#169),$,#92,$);
#226=IFCRELASSIGNSTOPROCESS('TTeHz7v9hj2RLfClQz7pip',#6,$,$,(#175,#169),$,#94,$);
#227=IFCRELASSIGNSTOPROCESS('tDtD$vYNyRLlPzTlyBb1Mp',#6,$,$,(#175),$,#96,$);
#228=IFCRELASSIGNSTOPROCESS('_D_X0FBlbXR1y9anlLdJYD',#6,$,$,(#170),$,#100,$);
#229=IFCRELASSIGNSTOPROCESS('M3XzkJTl$LVRXR4nJRdx3B',#6,$,$,(#170),$,#102,$);
#230=IFCRELASSIGNSTOPROCESS('vlxXSlmfGJ2bLNynntEV0f',#6,$,$,(#176),$,#104,$);
#231=IFCRELASSIGNSTOPROCESS('LzvBl5VdDbZdqnf1jRvR1t',#6,$,$,(#170),$,#106,$);
#232=IFCRELASSIGNSTOPROCESS('lfe1M$XddDQX_7UnBtUFfX',#6,$,$,(#170),$,#108,$);
#233=IFCRELASSIGNSTOPROCESS('BDvZW1XPR$lrSPIV2toXqH',#6,$,$,(#170,#168),$,#110,$);
#234=IFCRELASSIGNSTOPROCESS('zFDvTb2F4bJN3PYVVFJv$f',#6,$,$,(#171,#168),$,#114,$);
#235=IFCRELASSIGNSTOPROCESS('S$nDPbM1o51ZpF1VU7eHbR',#6,$,$,(#171),$,#118,$);
#236=IFCPROPERTYSINGLEVALUE('or1Bt$o9T1sTLZLlLZR$I7#0',$,IFCTEXT('4|UNIFORM'),$);
#237=IFCPROPERTYSET('ChrFVJA$eFqZndM$rNoRlH',#6,'OPS_Assignments',$,(#236));
#238=IFCRELDEFINESBYPROPERTIES('bXh$YRUn6nq5H9O$bb_lr3',#6,$,$,(#44),#237);
#239=IFCPROPERTYSINGLEVALUE('k5X3M$v9JN3frJ3H_bPxJ3#0',$,IFCTEXT('4|UNIFORM'),$);
#240=IFCPROPERTYSET('3jgzYxAPR$vDadoX0vWdB7',#6,'OPS_Assignments',$,(#239));
#241=IFCRELDEFINESBYPROPERTIES('gvahBzCFePdr4N0X$Vlrmn',#6,$,$,(#54),#240);
#242=IFCPROPERTYSINGLEVALUE('k5X3M$v9JN3frJ3H_bPxJ3#0',$,IFCTEXT('4|UNIFORM'),$);
#243=IFCPROPERTYSET('V3KbmNe7ahHBiX71BNcpSt',#6,'OPS_Assignments',$,(#242));
#244=IFCRELDEFINESBYPROPERTIES('8LgzUNtNsrZ9ZLUnXFj75r',#6,$,$,(#56),#243);
#245=IFCPROPERTYSINGLEVALUE('or1Bt$o9T1sTLZLlLZR$I7#0',$,IFCTEXT('4|UNIFORM'),$);
#246=IFCPROPERTYSET('QR8XuDtfenqxPZf$rtwdvN',#6,'OPS_Assignments',$,(#245));
#247=IFCRELDEFINESBYPROPERTIES('DP2rjZvtxRLlzdoV83NTxn',#6,$,$,(#58),#246);
#248=IFCPROPERTYSINGLEVALUE('Pxqp$vgdFzAHvDblYdijEf#0',$,IFCTEXT('1|UNIFORM'),$);
#249=IFCPROPERTYSINGLEVALUE('k5X3M$v9JN3frJ3H_bPxJ3#1',$,IFCTEXT('4|UNIFORM'),$);
#250=IFCPROPERTYSET('J5FDhDktH1wJIl$XijQ75B',#6,'OPS_Assignments',$,(#248,#249));
#251=IFCRELDEFINESBYPROPERTIES('6HxX41gPnzo7IFBH9TDPf1',#6,$,$,(#62),#250);
#252=IFCPROPERTYSINGLEVALUE('Pxqp$vgdFzAHvDblYdijEf#0',$,IFCTEXT('1|UNIFORM'),$);
#253=IFCPROPERTYSINGLEVALUE('k5X3M$v9JN3frJ3H_bPxJ3#1',$,IFCTEXT('4|UNIFORM'),$);
#254=IFCPROPERTYSET('c$t5Q9iFcVw1uFrHJRdxFR',#6,'OPS_Assignments',$,(#252,#253));
#255=IFCRELDEFINESBYPROPERTIES('1pA7d9T1ANhHVHd1jfcpiD',#6,$,$,(#64),#254);
#256=IFCPROPERTYSINGLEVALUE('k5X3M$v9JN3frJ3H_bPxJ3#0',$,IFCTEXT('4|UNIFORM'),$);
#257=IFCPROPERTYSET('mNWf8pPt1t1xNxan3H$JkB',#6,'OPS_Assignments',$,(#256));
#258=IFCRELDEFINESBYPROPERTIES('NTDd37vtbrnLYTRH6Ns3vR',#6,$,$,(#66),#257);
#259=IFCPROPERTYSINGLEVALUE('Bpnx_vVdJh15LZJnxHb1AZ#0',$,IFCTEXT('4|UNIFORM'),$);
#260=IFCPROPERTYSET('whER8hyHZp8flNyHb$nZBv',#6,'OPS_Assignments',$,(#259));
#261=IFCRELDEFINESBYPROPERTIES('Jfel5LT1MbjN3Pw1aNQDaf',#6,$,$,(#68),#260);
#262=IFCPROPERTYSINGLEVALUE('k5X3M$v9JN3frJ3H_bPxJ3#0',$,IFCTEXT('4|UNIFORM'),$);
#263=IFCPROPERTYSET('bVzto1_fgRp95njFNjH3N3',#6,'OPS_Assignments',$,(#262));
#264=IFCRELDEFINESBYPROPERTIES('2jcJDDXPLPiz9N0V9TDdhN',#6,$,$,(#74),#263);
#265=IFCPROPERTYSINGLEVALUE('or1Bt$o9T1sTLZLlLZR$I7#0',$,IFCTEXT('6|UNIFORM'),$);
#266=IFCPROPERTYSET('LZbHl$$dznCTbBw$exgTjZ',#6,'OPS_Assignments',$,(#265));
#267=IFCRELDEFINESBYPROPERTIES('4nvT8h4$8VkPyN0X5FdjkL',#6,$,$,(#84),#266);
#268=IFCPROPERTYSINGLEVALUE('e5CpZfd9zTgzDT91JNgZPd#0',$,IFCTEXT('4|UNIFORM'),$);
#269=IFCPROPERTYSINGLEVALUE('or1Bt$o9T1sTLZLlLZR$I7#1',$,IFCTEXT('4|UNIFORM'),$);
#270=IFCPROPERTYSET('tDPzoZVvKfgF5FxHa5pPfX',#6,'OPS_Assignments',$,(#268,#269));
#271=IFCRELDEFINESBYPROPERTIES('YXbHnHv9X5fxPZf19ZZtqz',#6,$,$,(#86),#270);
#272=IFCPROPERTYSINGLEVALUE('e5CpZfd9zTgzDT91JNgZPd#0',$,IFCTEXT('4|UNIFORM'),$);
#273=IFCPROPERTYSINGLEVALUE('Bpnx_vVdJh15LZJnxHb1AZ#1',$,IFCTEXT('4|UNIFORM'),$);
#274=IFCPROPERTYSET('0nBFVpMPHpmVMBA$rpxlxh',#6,'OPS_Assignments',$,(#272,#273));
#275=IFCRELDEFINESBYPROPERTIES('dxyZeRcXPj2bxllV$zOHLJ',#6,$,$,(#88),#274);
#276=IFCPROPERTYSINGLEVALUE('or1Bt$o9T1sTLZLlLZR$I7#0',$,IFCTEXT('8|UNIFORM'),$);
#277=IFCPROPERTYSET('GNuVe3T$Af3fnd61uBaBqH',#6,'OPS_Assignments',$,(#276));
#278=IFCRELDEFINESBYPROPERTIES('NZbHTfdtpxPrqnXXaxJ7HH',#6,$,$,(#90),#277);
#279=IFCPROPERTYSINGLEVALUE('X34Bhf0tB3mVgrEXKDcD4L#0',$,IFCTEXT('6|UNIFORM'),$);
#280=IFCPROPERTYSINGLEVALUE('Bpnx_vVdJh15LZJnxHb1AZ#1',$,IFCTEXT('4|UNIFORM'),$);
#281=IFCPROPERTYSET('aZWN8D$djtlr4fe11ZyZ$j',#6,'OPS_Assignments',$,(#279,#280));
#282=IFCRELDEFINESBYPROPERTIES('rNwDLjkHl1MzNvslyrZ9aN',#6,$,$,(#92),#281);
#283=IFCPROPERTYSINGLEVALUE('X34Bhf0tB3mVgrEXKDcD4L#0',$,IFCTEXT('4|UNIFORM'),$);
#284=IFCPROPERTYSINGLEVALUE('Bpnx_vVdJh15LZJnxHb1AZ#1',$,IFCTEXT('4|UNIFORM'),$);
#285=IFCPROPERTYSET('K7a3EVoHLJU57J91qn15nR',#6,'OPS_Assignments',$,(#283,#284));
#286=IFCRELDEFINESBYPROPERTIES('JxlJpDtNKjqxj$ZnQZ3fsP',#6,$,$,(#94),#285);
#287=IFCPROPERTYSINGLEVALUE('X34Bhf0tB3mVgrEXKDcD4L#0',$,IFCTEXT('4|UNIFORM'),$);
#288=IFCPROPERTYSET('0FDvvdzHTDuNBDXXydOlT9',#6,'OPS_Assignments',$,(#287));
#289=IFCRELDEFINESBYPROPERTIES('PxibGPcXDbbVEB2X7VB$oN',#6,$,$,(#96),#288);
#290=IFCPROPERTYSINGLEVALUE('6lDv1ZePLPCZPT9$HhlBGF#0',$,IFCTEXT('4|UNIFORM'),$);
#291=IFCPROPERTYSET('rtklhDUfu$kLUZ5HSN2rCZ',#6,'OPS_Assignments',$,(#290));
#292=IFCRELDEFINESBYPROPERTIES('ohb1AnZ16HOPS7kn8BCbrT',#6,$,$,(#100),#291);
#293=IFCPROPERTYSINGLEVALUE('6lDv1ZePLPCZPT9$HhlBGF#0',$,IFCTEXT('6|UNIFORM'),$);
#294=IFCPROPERTYSET('X$HjbXbVx5PBqlRFy7SBiX',#6,'OPS_Assignments',$,(#293));
#295=IFCRELDEFINESBYPROPERTIES('wrgdfJTlV5HJErM$DLHB4v',#6,$,$,(#102),#294);
#296=IFCPROPERTYSINGLEVALUE('Q$npdxw7YD_txnrHLPmt0f#0',$,IFCTEXT('3|UNIFORM'),$);
#297=IFCPROPERTYSET('2jAZCd5XB96JYtmXEnRnHL',#6,'OPS_Assignments',$,(#296));
#298=IFCRELDEFINESBYPROPERTIES('NPm7xFZ$gPPrWpxlSNQpyr',#6,$,$,(#104),#297);
#299=IFCPROPERTYSINGLEVALUE('6lDv1ZePLPCZPT9$HhlBGF#0',$,IFCTEXT('3|UNIFORM'),$);
#300=IFCPROPERTYSET('U$1TuruPr3GV61hlF5RnvN',#6,'OPS_Assignments',$,(#299));
#301=IFCRELDEFINESBYPROPERTIES('xBIHxBX7q70nz5ClITqD0t',#6,$,$,(#106),#300);
#302=IFCPROPERTYSINGLEVALUE('6lDv1ZePLPCZPT9$HhlBGF#0',$,IFCTEXT('3|UNIFORM'),$);
#303=IFCPROPERTYSET('up9plX5VbXBnp3JlH781kr',#6,'OPS_Assignments',$,(#302));
#304=IFCRELDEFINESBYPROPERTIES('X$1TW$fN6TEBWDjnZTyhUj',#6,$,$,(#108),#303);
#305=IFCPROPERTYSINGLEVALUE('6lDv1ZePLPCZPT9$HhlBGF#0',$,IFCTEXT('2|UNIFORM'),$);
#306=IFCPROPERTYSINGLEVALUE('or1Bt$o9T1sTLZLlLZR$I7#1',$,IFCTEXT('2|UNIFORM'),$);
#307=IFCPROPERTYSET('2nLHDF414F9bZhQHbXDPpJ',#6,'OPS_Assignments',$,(#305,#306));
#308=IFCRELDEFINESBYPROPERTIES('bxyrv7n7MRzvMLclDLvpSt',#6,$,$,(#110),#307);
#309=IFCPROPERTYSINGLEVALUE('H5vBZ5gdJ9Pj2vYFr9A9iJ#0',$,IFCTEXT('2|UNIFORM'),$);
#310=IFCPROPERTYSINGLEVALUE('or1Bt$o9T1sTLZLlLZR$I7#1',$,IFCTEXT('2|UNIFORM'),$);
#311=IFCPROPERTYSET('6LoRqRB1C3QVghonIzG9CH',#6,'OPS_Assignments',$,(#309,#310));
#312=IFCRELDEFINESBYPROPERTIES('JfOlFFBHjLXRlT3FebA9mn',#6,$,$,(#114),#311);
#313=IFCPROPERTYSINGLEVALUE('H5vBZ5gdJ9Pj2vYFr9A9iJ#0',$,IFCTEXT('2|UNIFORM'),$);
#314=IFCPROPERTYSET('bRGdFl1vQ1M3l3d$lhPJkL',#6,'OPS_Assignments',$,(#313));
#315=IFCRELDEFINESBYPROPERTIES('q9QNe5c7yx1T37gl29k$E5',#6,$,$,(#118),#314);
#316=IFCRELASSIGNSTOCONTROL('rDVhNjbXHjyDCF$VkTSruD',#6,$,$,(#40,#42,#44,#46,#48,#50,#52,#54,#56,#58,#60,#62,#64,#66,#68,#70,#72,#74,#76,#78,#80,#82,#84,#86,#88,#90,#92,#94,#96,#98,#100,#102,#104,#106,#108,#110,#112,#114,#116,#118,#120),$,#37);
#317=IFCPROPERTYSINGLEVALUE('wbsAutoNumber',$,IFCBOOLEAN(.T.),$);
#318=IFCPROPERTYSINGLEVALUE('ProjectStartDate',$,IFCDATE('2027-03-01'),$);
#319=IFCPROPERTYSINGLEVALUE('ProjectEndDate',$,$,$);
#320=IFCPROPERTYSINGLEVALUE('CreatedAt',$,IFCTEXT('2026-08-14T12:19:00.753Z'),$);
#321=IFCPROPERTYSINGLEVALUE('ModifiedAt',$,IFCTEXT('2026-08-14T12:19:00.755Z'),$);
#322=IFCPROPERTYSET('e5a3ArlP$tNZvpDF1ZK5n5',#6,'OPS_ProjectSettings',$,(#317,#318,#319,#320,#321));
#323=IFCRELDEFINESBYPROPERTIES('0Hdzo1sPJhdjQlBF$1BF9l',#6,$,$,(#13),#322);
#324=IFCPROPERTYSINGLEVALUE('MilestoneKind',$,IFCLABEL('START'),$);
#325=IFCPROPERTYSET('JfOlDHGNenSru90VnfQD4P',#6,'OPS_Milestone',$,(#324));
#326=IFCRELDEFINESBYPROPERTIES('ibrXeTX78fZtJp5l4delZt',#6,$,$,(#48),#325);
#327=IFCPROPERTYSINGLEVALUE('MilestoneKind',$,IFCLABEL('FINISH'),$);
#328=IFCPROPERTYSET('G7IlnHv9Hpu7oVxnsx2raR',#6,'OPS_Milestone',$,(#327));
#329=IFCRELDEFINESBYPROPERTIES('tj5Xq5PtXP$ZNbe1jfA3$N',#6,$,$,(#70),#328);
#330=IFCPROPERTYSINGLEVALUE('MilestoneKind',$,IFCLABEL('FINISH'),$);
#331=IFCPROPERTYSET('HfWfiNV7Ovzv_pnVXnr1_Z',#6,'OPS_Milestone',$,(#330));
#332=IFCRELDEFINESBYPROPERTIES('gZL16PEHpdtRH37$lPqDS5',#6,$,$,(#80),#331);
#333=IFCPROPERTYSINGLEVALUE('MilestoneKind',$,IFCLABEL('FINISH'),$);
#334=IFCPROPERTYSINGLEVALUE('Mandatory',$,IFCBOOLEAN(.T.),$);
#335=IFCPROPERTYSET('qrHRmvsd1993ZL6lt7armX',#6,'OPS_Milestone',$,(#333,#334));
#336=IFCRELDEFINESBYPROPERTIES('RVpdpnSHtVzN5R4H5HxXCl',#6,$,$,(#120),#335);
ENDSEC;
END-ISO-10303-21;
