ISO-10303-21;
HEADER;
FILE_DESCRIPTION(('ViewDefinition [SchedulingView]'),'2;1');
FILE_NAME('Markermeerdijk Dike Reinforcement.ifc','2026-08-14T12:19:00',('Dirk Waterschap'),('Hydraulic Engineering Holland BV'),'Open Planner Studio 0.1','Open Planner Studio','');
FILE_SCHEMA(('IFC4X3'));
ENDSEC;
DATA;
#1=IFCPERSON($,'Dirk Waterschap',$,$,$,$,$,$);
#2=IFCORGANIZATION($,'Hydraulic Engineering Holland BV',$,$,$);
#3=IFCPERSONANDORGANIZATION(#1,#2,$);
#4=IFCORGANIZATION($,'OpenAEC Foundation',$,$,$);
#5=IFCAPPLICATION(#4,'0.1','Open Planner Studio','OPS');
#6=IFCOWNERHISTORY(#3,#5,$,.NOCHANGE.,$,$,$,1786709940);
#7=IFCSIUNIT(*,.LENGTHUNIT.,$,.METRE.);
#8=IFCSIUNIT(*,.TIMEUNIT.,$,.SECOND.);
#9=IFCUNITASSIGNMENT((#7,#8));
#10=IFCCARTESIANPOINT((0.,0.,0.));
#11=IFCAXIS2PLACEMENT3D(#10,$,$);
#12=IFCGEOMETRICREPRESENTATIONCONTEXT($,'Plan',3,1.0E-05,#11,$);
#13=IFCPROJECT('ZXZfiNP9zTY53vonIVvpS5',#6,'Markermeerdijk Dike Reinforcement','Dike reinforcement over a 5 km stretch, Hoorn-Amsterdam',$,$,$,(#12),#9);
#14=IFCTIMEPERIOD('07:00:00','16:00:00');
#15=IFCRECURRENCEPATTERN(.WEEKLY.,$,(1,2,3,4,5,6),$,$,$,$,(#14));
#16=IFCWORKTIME('Standard work week',.PREDICTED.,$,#15,$,$);
#17=IFCWORKTIME('New Year''s Day',.PREDICTED.,$,$,'2027-01-01','2027-01-01');
#18=IFCWORKTIME('Good Friday',.PREDICTED.,$,$,'2027-03-26','2027-03-26');
#19=IFCWORKTIME('Easter',.PREDICTED.,$,$,'2027-03-28','2027-03-29');
#20=IFCWORKTIME('King''s Day',.PREDICTED.,$,$,'2027-04-27','2027-04-27');
#21=IFCWORKTIME('Liberation Day',.PREDICTED.,$,$,'2027-05-05','2027-05-05');
#22=IFCWORKTIME('Ascension Day',.PREDICTED.,$,$,'2027-05-06','2027-05-06');
#23=IFCWORKTIME('Whitsun',.PREDICTED.,$,$,'2027-05-16','2027-05-17');
#24=IFCWORKTIME('Christmas',.PREDICTED.,$,$,'2027-12-25','2027-12-26');
#25=IFCWORKTIME('Construction holiday (northern region)',.PREDICTED.,$,$,'2027-07-26','2027-08-15');
#26=IFCWORKTIME('New Year''s Day',.PREDICTED.,$,$,'2028-01-01','2028-01-01');
#27=IFCWORKTIME('Good Friday',.PREDICTED.,$,$,'2028-04-14','2028-04-14');
#28=IFCWORKTIME('Easter',.PREDICTED.,$,$,'2028-04-16','2028-04-17');
#29=IFCWORKTIME('King''s Day',.PREDICTED.,$,$,'2028-04-27','2028-04-27');
#30=IFCWORKTIME('Liberation Day',.PREDICTED.,$,$,'2028-05-05','2028-05-05');
#31=IFCWORKTIME('Ascension Day',.PREDICTED.,$,$,'2028-05-25','2028-05-25');
#32=IFCWORKTIME('Whitsun',.PREDICTED.,$,$,'2028-06-04','2028-06-05');
#33=IFCWORKTIME('Christmas',.PREDICTED.,$,$,'2028-12-25','2028-12-26');
#34=IFCWORKTIME('Construction holiday (northern region)',.PREDICTED.,$,$,'2028-07-24','2028-08-13');
#35=IFCWORKCALENDAR('_HlbW$VPl1Yxnv_nBDbFBd',#6,'Infrastructure calendar Mon-Sat','Infrastructure/hydraulic works: Mon-Sat',$,(#16),(#17,#18,#19,#20,#21,#22,#23,#24,#25,#26,#27,#28,#29,#30,#31,#32,#33,#34),.FIRSTSHIFT.);
#36=IFCWORKPLAN('rton9$otjfDdqB_XvXDP5l',#6,'Markermeerdijk Dike Reinforcement','Dike reinforcement over a 5 km stretch, Hoorn-Amsterdam',$,$,'2026-08-14T12:19:00',$,$,$,$,$,'2027-03-01T07:00:00','2027-03-26T07:00:00',.PLANNED.);
#37=IFCWORKSCHEDULE('O5ij9VM$MvZdGBc$Q3vDOL',#6,'Construction schedule v1.0',$,$,$,'2026-08-14T12:19:00',$,$,$,$,$,'2027-03-01T07:00:00','2027-03-26T07:00:00',.PLANNED.);
#38=IFCRELAGGREGATES('X$Ph9TPtbVDd8te$ftI1sz',#6,$,$,#36,(#37));
#39=IFCTASKTIME('1. Preparation Time',.PREDICTED.,$,.WORKTIME.,'P0Y0M5D','2027-03-01T07:00:00','2027-03-05T07:00:00','2027-03-01T07:00:00','2027-04-13T07:00:00','2027-03-01T07:00:00','2027-10-23T07:00:00','P0Y0M0D','P0Y0M0D',.T.,$,$,$,$,$,0.0);
#40=IFCTASK('8LI5UthH1hXRv$xlWfcDC3',#6,'1. Preparation',$,$,'1',$,$,$,.F.,$,#39,.CONSTRUCTION.);
#41=IFCTASKTIME('Ecological survey Time',.PREDICTED.,$,.WORKTIME.,'P0Y0M10D','2027-03-01T07:00:00','2027-03-12T07:00:00','2027-03-01T07:00:00','2027-03-11T07:00:00','2027-03-01T07:00:00','2027-03-11T07:00:00','P0Y0M0D','P0Y0M0D',.T.,$,$,$,$,$,0.0);
#42=IFCTASK('INWfe3LHFZM3D3ZleRQv3v',#6,'Ecological survey',$,$,'1.1',$,$,$,.F.,$,#41,.ATTENDANCE.);
#43=IFCTASKTIME('Water management permits Time',.PREDICTED.,$,.WORKTIME.,'P0Y0M5D','2027-03-01T07:00:00','2027-03-05T07:00:00','2027-03-12T07:00:00','2027-03-17T07:00:00','2027-09-24T07:00:00','2027-09-29T07:00:00','P0Y0M0D','P0Y0M144D',.F.,$,$,$,$,$,0.0);
#44=IFCTASK('3JATitz181cDyZbl_bHzjV',#6,'Water management permits',$,$,'1.2',$,$,$,.F.,$,#43,.ATTENDANCE.);
#45=IFCTASKTIME('Complete land acquisition Time',.PREDICTED.,$,.WORKTIME.,'P0Y0M5D','2027-03-01T07:00:00','2027-03-05T07:00:00','2027-03-18T07:00:00','2027-03-23T07:00:00','2027-09-30T07:00:00','2027-10-05T07:00:00','P0Y0M0D','P0Y0M144D',.F.,$,$,$,$,$,0.0);
#46=IFCTASK('t9U1IFaH$LlByZ5HWtUFb$',#6,'Complete land acquisition',$,$,'1.3',$,$,$,.F.,$,#45,.ATTENDANCE.);
#47=IFCTASKTIME('Construct site roads Time',.PREDICTED.,$,.WORKTIME.,'P0Y0M10D','2027-03-01T07:00:00','2027-03-12T07:00:00','2027-03-24T07:00:00','2027-04-06T07:00:00','2027-10-06T07:00:00','2027-10-16T07:00:00','P0Y0M0D','P0Y0M144D',.F.,$,$,$,$,$,0.0);
#48=IFCTASK('hvibebM123mX276HXJYFtn',#6,'Construct site roads',$,$,'1.4',$,$,$,.F.,$,#47,.CONSTRUCTION.);
#49=IFCTASKTIME('Set up depots Time',.PREDICTED.,$,.WORKTIME.,'P0Y0M5D','2027-03-01T07:00:00','2027-03-05T07:00:00','2027-04-07T07:00:00','2027-04-12T07:00:00','2027-10-18T07:00:00','2027-10-22T07:00:00','P0Y0M0D','P0Y0M144D',.F.,$,$,$,$,$,0.0);
#50=IFCTASK('lNe$EZd9D5PruFRHYBb$UJ',#6,'Set up depots',$,$,'1.5',$,$,$,.F.,$,#49,.LOGISTIC.);
#51=IFCTASKTIME('Start of works Time',.PREDICTED.,$,.WORKTIME.,'P0Y0M0D','2027-03-01T07:00:00','2027-03-01T07:00:00','2027-04-13T07:00:00','2027-04-13T07:00:00','2027-10-23T07:00:00','2027-10-23T07:00:00','P0Y0M144D','P0Y0M144D',.F.,$,$,$,$,$,0.0);
#52=IFCTASK('rjb1UNdtNx9R1Bs$Fx5H1t',#6,'Start of works',$,$,'1.6',$,$,$,.T.,$,#51,.CONSTRUCTION.);
#53=IFCTASKTIME('2. Preloading Time',.PREDICTED.,$,.WORKTIME.,'P0Y0M5D','2027-03-01T07:00:00','2027-03-05T07:00:00','2027-03-22T07:00:00','2027-06-05T07:00:00','2027-03-22T07:00:00','2027-10-23T07:00:00','P0Y0M0D','P0Y0M0D',.T.,$,$,$,$,$,0.0);
#54=IFCTASK('kRz9UbklJrpP4znXJbfLox',#6,'2. Preloading',$,$,'2',$,$,$,.F.,$,#53,.CONSTRUCTION.);
#55=IFCTASKTIME('Deliver soil to depot Time',.PREDICTED.,$,.WORKTIME.,'P0Y0M15D','2027-03-01T07:00:00','2027-03-19T07:00:00','2027-03-22T07:00:00','2027-04-09T07:00:00','2027-03-22T07:00:00','2027-04-09T07:00:00','P0Y0M0D','P0Y0M0D',.T.,$,$,$,$,$,0.0);
#56=IFCTASK('Yzq5kDlv8fT9v$BH3pA3Zt',#6,'Deliver soil to depot',$,$,'2.1',$,$,$,.F.,$,#55,.LOGISTIC.);
#57=IFCTASKTIME('Preloading, km 0-1 Time',.PREDICTED.,$,.WORKTIME.,'P0Y0M10D','2027-03-01T07:00:00','2027-03-12T07:00:00','2027-04-10T07:00:00','2027-04-21T07:00:00','2027-09-02T07:00:00','2027-09-13T07:00:00','P0Y0M0D','P0Y0M102D',.F.,$,$,$,$,$,0.0);
#58=IFCTASK('2JoRiNldH1MzJjt1uzlBql',#6,'Preloading, km 0-1',$,$,'2.2',$,$,$,.F.,$,#57,.CONSTRUCTION.);
#59=IFCTASKTIME('Preloading, km 1-2 Time',.PREDICTED.,$,.WORKTIME.,'P0Y0M10D','2027-03-01T07:00:00','2027-03-12T07:00:00','2027-04-16T07:00:00','2027-04-28T07:00:00','2027-09-08T07:00:00','2027-09-18T07:00:00','P0Y0M0D','P0Y0M102D',.F.,$,$,$,$,$,0.0);
#60=IFCTASK('NzdLDHOvaLtzD3hnpPyhUp',#6,'Preloading, km 1-2',$,$,'2.3',$,$,$,.F.,$,#59,.CONSTRUCTION.);
#61=IFCTASKTIME('Preloading, km 2-3 Time',.PREDICTED.,$,.WORKTIME.,'P0Y0M10D','2027-03-01T07:00:00','2027-03-12T07:00:00','2027-04-29T07:00:00','2027-05-12T07:00:00','2027-09-20T07:00:00','2027-09-30T07:00:00','P0Y0M0D','P0Y0M102D',.F.,$,$,$,$,$,0.0);
#62=IFCTASK('tpnxYxo95R3vELMHA1fLgD',#6,'Preloading, km 2-3',$,$,'2.4',$,$,$,.F.,$,#61,.CONSTRUCTION.);
#63=IFCTASKTIME('Await settlement period Time',.PREDICTED.,$,.WORKTIME.,'P0Y0M20D','2027-03-01T07:00:00','2027-03-26T07:00:00','2027-05-13T07:00:00','2027-06-05T07:00:00','2027-10-01T07:00:00','2027-10-23T07:00:00','P0Y0M0D','P0Y0M102D',.F.,$,$,$,$,$,0.0);
#64=IFCTASK('NZz9sh5F0BdJcF7$QdGNsZ',#6,'Await settlement period',$,$,'2.5',$,$,$,.F.,$,#63,.CONSTRUCTION.);
#65=IFCTASKTIME('Settlement monitoring Time',.PREDICTED.,$,.WORKTIME.,'P0Y0M20D','2027-03-01T07:00:00','2027-03-26T07:00:00','2027-05-13T07:00:00','2027-06-05T07:00:00','2027-10-01T07:00:00','2027-10-23T07:00:00','P0Y0M102D','P0Y0M102D',.F.,$,$,$,$,$,0.0);
#66=IFCTASK('7nvZGdwVlpuNDlhnPlZtGH',#6,'Settlement monitoring',$,$,'2.6',$,$,$,.F.,$,#65,.ATTENDANCE.);
#67=IFCTASKTIME('3. Embankment Time',.PREDICTED.,$,.WORKTIME.,'P0Y0M5D','2027-03-01T07:00:00','2027-03-05T07:00:00','2027-03-31T07:00:00','2027-06-18T07:00:00','2027-03-31T07:00:00','2027-06-18T07:00:00','P0Y0M0D','P0Y0M0D',.T.,$,$,$,$,$,0.0);
#68=IFCTASK('P$1TuBOPJLvpadA$TXdJUD',#6,'3. Embankment',$,$,'3',$,$,$,.F.,$,#67,.CONSTRUCTION.);
#69=IFCTASKTIME('Remove preloading Time',.PREDICTED.,$,.WORKTIME.,'P0Y0M10D','2027-03-01T07:00:00','2027-03-12T07:00:00','2027-03-31T07:00:00','2027-04-10T07:00:00','2027-03-31T07:00:00','2027-04-10T07:00:00','P0Y0M0D','P0Y0M0D',.T.,$,$,$,$,$,0.0);
#70=IFCTASK('0HXLVfGNu$Y5pnnXND3tWd',#6,'Remove preloading',$,$,'3.1',$,$,$,.F.,$,#69,.CONSTRUCTION.);
#71=IFCTASKTIME('Install geotextile Time',.PREDICTED.,$,.WORKTIME.,'P0Y0M8D','2027-03-01T07:00:00','2027-03-10T07:00:00','2027-04-12T07:00:00','2027-04-20T07:00:00','2027-04-12T07:00:00','2027-04-20T07:00:00','P0Y0M0D','P0Y0M0D',.T.,$,$,$,$,$,0.0);
#72=IFCTASK('zJsTq5l7Cd4LcFN1n9At85',#6,'Install geotextile',$,$,'3.2',$,$,$,.F.,$,#71,.CONSTRUCTION.);
#73=IFCTASKTIME('Build up clay core, km 0-2 Time',.PREDICTED.,$,.WORKTIME.,'P0Y0M15D','2027-03-01T07:00:00','2027-03-19T07:00:00','2027-04-21T07:00:00','2027-05-11T07:00:00','2027-04-21T07:00:00','2027-05-11T07:00:00','P0Y0M0D','P0Y0M0D',.T.,$,$,$,$,$,0.0);
#74=IFCTASK('A9Il1767E5HjcTnXFf6j6b',#6,'Build up clay core, km 0-2',$,$,'3.3',$,$,$,.F.,$,#73,.CONSTRUCTION.);
#75=IFCTASKTIME('Build up clay core, km 2-5 Time',.PREDICTED.,$,.WORKTIME.,'P0Y0M15D','2027-03-01T07:00:00','2027-03-19T07:00:00','2027-05-12T07:00:00','2027-05-29T07:00:00','2027-05-12T07:00:00','2027-05-29T07:00:00','P0Y0M0D','P0Y0M0D',.T.,$,$,$,$,$,0.0);
#76=IFCTASK('GPQjJZ7tB3e97$xl8T5Vmn',#6,'Build up clay core, km 2-5',$,$,'3.4',$,$,$,.F.,$,#75,.CONSTRUCTION.);
#77=IFCTASKTIME('Place sand core Time',.PREDICTED.,$,.WORKTIME.,'P0Y0M12D','2027-03-01T07:00:00','2027-03-16T07:00:00','2027-05-31T07:00:00','2027-06-12T07:00:00','2027-05-31T07:00:00','2027-06-12T07:00:00','P0Y0M0D','P0Y0M0D',.T.,$,$,$,$,$,0.0);
#78=IFCTASK('1Dcf8JbXljK3L9mXUveltj',#6,'Place sand core',$,$,'3.5',$,$,$,.F.,$,#77,.CONSTRUCTION.);
#79=IFCTASKTIME('Survey profile check Time',.PREDICTED.,$,.WORKTIME.,'P0Y0M5D','2027-03-01T07:00:00','2027-03-05T07:00:00','2027-06-14T07:00:00','2027-06-18T07:00:00','2027-06-14T07:00:00','2027-06-18T07:00:00','P0Y0M0D','P0Y0M0D',.T.,$,$,$,$,$,0.0);
#80=IFCTASK('ornx_P5XhvuNvpBlBNAztD',#6,'Survey profile check',$,$,'3.6',$,$,$,.F.,$,#79,.ATTENDANCE.);
#81=IFCTASKTIME('4. Revetment & erosion protection Time',.PREDICTED.,$,.WORKTIME.,'P0Y0M5D','2027-03-01T07:00:00','2027-03-05T07:00:00','2027-06-04T07:00:00','2027-07-20T07:00:00','2027-06-04T07:00:00','2027-07-20T07:00:00','P0Y0M0D','P0Y0M0D',.T.,$,$,$,$,$,0.0);
#82=IFCTASK('vnNJjTP9$fR1O$XXGX15FR',#6,'4. Revetment & erosion protection',$,$,'4',$,$,$,.F.,$,#81,.CONSTRUCTION.);
#83=IFCTASKTIME('Stone revetment, inner slope Time',.PREDICTED.,$,.WORKTIME.,'P0Y0M12D','2027-03-01T07:00:00','2027-03-16T07:00:00','2027-06-04T07:00:00','2027-06-17T07:00:00','2027-06-04T07:00:00','2027-06-17T07:00:00','P0Y0M0D','P0Y0M0D',.T.,$,$,$,$,$,0.0);
#84=IFCTASK('nB1BfH0tv9sZrjhF9dOXW7',#6,'Stone revetment, inner slope',$,$,'4.1',$,$,$,.F.,$,#83,.CONSTRUCTION.);
#85=IFCTASKTIME('Grass cover, outer slope Time',.PREDICTED.,$,.WORKTIME.,'P0Y0M10D','2027-03-01T07:00:00','2027-03-12T07:00:00','2027-06-18T07:00:00','2027-06-29T07:00:00','2027-06-18T07:00:00','2027-06-29T07:00:00','P0Y0M0D','P0Y0M0D',.T.,$,$,$,$,$,0.0);
#86=IFCTASK('P1V36dg16ZkL6DznOjlz7R',#6,'Grass cover, outer slope',$,$,'4.2',$,$,$,.F.,$,#85,.CONSTRUCTION.);
#87=IFCTASKTIME('Toe structure, waterside Time',.PREDICTED.,$,.WORKTIME.,'P0Y0M10D','2027-03-01T07:00:00','2027-03-12T07:00:00','2027-06-30T07:00:00','2027-07-10T07:00:00','2027-06-30T07:00:00','2027-07-10T07:00:00','P0Y0M0D','P0Y0M0D',.T.,$,$,$,$,$,0.0);
#88=IFCTASK('qNkxIH8dB3u7UNCFqHTtCT',#6,'Toe structure, waterside',$,$,'4.3',$,$,$,.F.,$,#87,.CONSTRUCTION.);
#89=IFCTASKTIME('Place toe protection berm Time',.PREDICTED.,$,.WORKTIME.,'P0Y0M8D','2027-03-01T07:00:00','2027-03-10T07:00:00','2027-07-12T07:00:00','2027-07-20T07:00:00','2027-07-12T07:00:00','2027-07-20T07:00:00','P0Y0M0D','P0Y0M0D',.T.,$,$,$,$,$,0.0);
#90=IFCTASK('4lLlr3CnC3QVohAHKpwjYD',#6,'Place toe protection berm',$,$,'4.4',$,$,$,.F.,$,#89,.CONSTRUCTION.);
#91=IFCTASKTIME('5. Civil structures Time',.PREDICTED.,$,.WORKTIME.,'P0Y0M5D','2027-03-01T07:00:00','2027-03-05T07:00:00','2027-07-21T07:00:00','2027-09-15T07:00:00','2027-07-21T07:00:00','2027-09-15T07:00:00','P0Y0M0D','P0Y0M0D',.T.,$,$,$,$,$,0.0);
#92=IFCTASK('DrF5QfW9PjQD8nBllvGtqZ',#6,'5. Civil structures',$,$,'5',$,$,$,.F.,$,#91,.CONSTRUCTION.);
#93=IFCTASKTIME('Culvert renovation Time',.PREDICTED.,$,.WORKTIME.,'P0Y0M10D','2027-03-01T07:00:00','2027-03-12T07:00:00','2027-07-21T07:00:00','2027-08-21T07:00:00','2027-07-21T07:00:00','2027-08-21T07:00:00','P0Y0M0D','P0Y0M0D',.T.,$,$,$,$,$,0.0);
#94=IFCTASK('f7ah$7_fIBPJAbWXjfQpKj',#6,'Culvert renovation',$,$,'5.1',$,$,$,.F.,$,#93,.CONSTRUCTION.);
#95=IFCTASKTIME('Modify pumping station Time',.PREDICTED.,$,.WORKTIME.,'P0Y0M8D','2027-03-01T07:00:00','2027-03-10T07:00:00','2027-08-23T07:00:00','2027-08-31T07:00:00','2027-08-23T07:00:00','2027-08-31T07:00:00','P0Y0M0D','P0Y0M0D',.T.,$,$,$,$,$,0.0);
#96=IFCTASK('OxyrVpw7_TCTDnnVHPqDup',#6,'Modify pumping station',$,$,'5.2',$,$,$,.F.,$,#95,.RENOVATION.);
#97=IFCTASKTIME('Barrier lock maintenance Time',.PREDICTED.,$,.WORKTIME.,'P0Y0M5D','2027-03-01T07:00:00','2027-03-05T07:00:00','2027-09-01T07:00:00','2027-09-06T07:00:00','2027-09-01T07:00:00','2027-09-06T07:00:00','P0Y0M0D','P0Y0M0D',.T.,$,$,$,$,$,0.0);
#98=IFCTASK('6H5V0nhHn3Uf$X3lMrCR3d',#6,'Barrier lock maintenance',$,$,'5.3',$,$,$,.F.,$,#97,.MAINTENANCE.);
#99=IFCTASKTIME('Stairs and transitions Time',.PREDICTED.,$,.WORKTIME.,'P0Y0M8D','2027-03-01T07:00:00','2027-03-10T07:00:00','2027-09-07T07:00:00','2027-09-15T07:00:00','2027-09-07T07:00:00','2027-09-15T07:00:00','P0Y0M0D','P0Y0M0D',.T.,$,$,$,$,$,0.0);
#100=IFCTASK('prvZqbzltB$x$1N1xF$xzr',#6,'Stairs and transitions',$,$,'5.4',$,$,$,.F.,$,#99,.CONSTRUCTION.);
#101=IFCTASKTIME('6. Finishing & reinstatement Time',.PREDICTED.,$,.WORKTIME.,'P0Y0M5D','2027-03-01T07:00:00','2027-03-05T07:00:00','2027-09-16T07:00:00','2027-10-23T07:00:00','2027-09-16T07:00:00','2027-10-23T07:00:00','P0Y0M0D','P0Y0M0D',.T.,$,$,$,$,$,0.0);
#102=IFCTASK('aVL1EZdttL5XgNO$9dGta9',#6,'6. Finishing & reinstatement',$,$,'6',$,$,$,.F.,$,#101,.CONSTRUCTION.);
#103=IFCTASKTIME('Reinstate dike road Time',.PREDICTED.,$,.WORKTIME.,'P0Y0M10D','2027-03-01T07:00:00','2027-03-12T07:00:00','2027-09-16T07:00:00','2027-09-27T07:00:00','2027-09-16T07:00:00','2027-09-27T07:00:00','P0Y0M0D','P0Y0M0D',.T.,$,$,$,$,$,0.0);
#104=IFCTASK('cbGPZf9NUPSJ_pf1RVJvfT',#6,'Reinstate dike road',$,$,'6.1',$,$,$,.F.,$,#103,.CONSTRUCTION.);
#105=IFCTASKTIME('Construct cycle path Time',.PREDICTED.,$,.WORKTIME.,'P0Y0M8D','2027-03-01T07:00:00','2027-03-10T07:00:00','2027-09-28T07:00:00','2027-10-06T07:00:00','2027-09-28T07:00:00','2027-10-06T07:00:00','P0Y0M0D','P0Y0M0D',.T.,$,$,$,$,$,0.0);
#106=IFCTASK('ApXLXfWtN5$ZLzf1grSrSx',#6,'Construct cycle path',$,$,'6.2',$,$,$,.F.,$,#105,.CONSTRUCTION.);
#107=IFCTASKTIME('Ecological restoration Time',.PREDICTED.,$,.WORKTIME.,'P0Y0M10D','2027-03-01T07:00:00','2027-03-12T07:00:00','2027-10-07T07:00:00','2027-10-18T07:00:00','2027-10-07T07:00:00','2027-10-18T07:00:00','P0Y0M0D','P0Y0M0D',.T.,$,$,$,$,$,0.0);
#108=IFCTASK('o7EFFLT12ZKb3b0XXHtBGn',#6,'Ecological restoration',$,$,'6.3',$,$,$,.F.,$,#107,.CONSTRUCTION.);
#109=IFCTASKTIME('Fencing and signage Time',.PREDICTED.,$,.WORKTIME.,'P0Y0M5D','2027-03-01T07:00:00','2027-03-05T07:00:00','2027-10-19T07:00:00','2027-10-23T07:00:00','2027-10-19T07:00:00','2027-10-23T07:00:00','P0Y0M0D','P0Y0M0D',.T.,$,$,$,$,$,0.0);
#110=IFCTASK('AJBn3Ly$C7OtlTBHdLeXqH',#6,'Fencing and signage',$,$,'6.4',$,$,$,.F.,$,#109,.INSTALLATION.);
#111=IFCTASKTIME('Handover Time',.PREDICTED.,$,.WORKTIME.,'P0Y0M0D','2027-03-01T07:00:00','2027-03-01T07:00:00','2027-10-23T07:00:00','2027-10-23T07:00:00','2027-10-23T07:00:00','2027-10-23T07:00:00','P0Y0M0D','P0Y0M0D',.T.,$,$,$,$,$,0.0);
#112=IFCTASK('ibRH5BvtVxf5RBIV69wd5H',#6,'Handover',$,$,'6.5',$,$,$,.T.,$,#111,.CONSTRUCTION.);
#113=IFCRELNESTS('nPgzU9JXLvuv_pv1U7mNAP',#6,'WBS 1. Preparation',$,#40,( #42,#44,#46,#48,#50,#52));
#114=IFCRELNESTS('PVBVy$I9$tfTVn5H8hun7t',#6,'WBS 2. Preloading',$,#54,( #56,#58,#60,#62,#64,#66));
#115=IFCRELNESTS('W17BTbkl$9vp8F5HyLVb$t',#6,'WBS 3. Embankment',$,#68,( #70,#72,#74,#76,#78,#80));
#116=IFCRELNESTS('0n3927v9F361i1BHFfMTb1',#6,'WBS 4. Revetment & erosion protection',$,#82,( #84,#86,#88,#90));
#117=IFCRELNESTS('6lxVSFKnUvm1qHbFWf2ri$',#6,'WBS 5. Civil structures',$,#92,( #94,#96,#98,#100));
#118=IFCRELNESTS('TzyB7dL1QXkdCr2XRbster',#6,'WBS 6. Finishing & reinstatement',$,#102,( #104,#106,#108,#110,#112));
#119=IFCRELNESTS('tjjP5r1vgdnD4TBHzDgTrv',#6,'WBS Hoofd',$,#37,(#40,#54,#68,#82,#92,#102));
#120=IFCRELSEQUENCE('W1Vz_dL1Qpuv61zFW9Q7dL',#6,$,$,#42,#44,$,.FINISH_START.,$);
#121=IFCRELSEQUENCE('tNERO56vk1Pjgr2XzFTNAT',#6,$,$,#44,#46,$,.FINISH_START.,$);
#122=IFCRELSEQUENCE('KvKJR1fNYDgFhNiH8hWPht',#6,$,$,#46,#48,$,.FINISH_START.,$);
#123=IFCRELSEQUENCE('pvklxrVvOledGbWVBDxHbb',#6,$,$,#48,#50,$,.FINISH_START.,$);
#124=IFCRELSEQUENCE('wlb$2v9fGTi3tf0XJxj7$N',#6,$,$,#50,#52,$,.FINISH_START.,$);
#125=IFCRELSEQUENCE('7l5V4Xs$OFypWJ$VGlFZHr',#6,$,$,#56,#58,$,.FINISH_START.,$);
#126=IFCLAGTIME('Lag',.PREDICTED.,$,IFCDURATION('P5D'),.WORKTIME.);
#127=IFCRELSEQUENCE('PxSzE3Z12fw10ZXVS96dJZ',#6,$,$,#58,#60,#126,.START_START.,$);
#128=IFCRELSEQUENCE('DrtppHePX7x1e1N1b19BOz',#6,$,$,#60,#62,$,.FINISH_START.,$);
#129=IFCRELSEQUENCE('XzyrTRYF_Nw1apHVlLPJE9',#6,$,$,#62,#64,$,.FINISH_START.,$);
#130=IFCRELSEQUENCE('a3iRmvotbrHr4fe1zlfLgJ',#6,$,$,#64,#66,$,.START_START.,$);
#131=IFCRELSEQUENCE('vL2BXpgPP7ufrpv$glR1Ul',#6,$,$,#70,#72,$,.FINISH_START.,$);
#132=IFCRELSEQUENCE('FrHR0njVbXhljVt$KJs9Sb',#6,$,$,#72,#74,$,.FINISH_START.,$);
#133=IFCRELSEQUENCE('VVrX8L4lRVTt3bO1yLVRR5',#6,$,$,#74,#76,$,.FINISH_START.,$);
#134=IFCRELSEQUENCE('7LATGdIHnniRLfyH93Hrab',#6,$,$,#76,#78,$,.FINISH_START.,$);
#135=IFCRELSEQUENCE('orvZiNdt$9tzz5yFBN2rm$',#6,$,$,#78,#80,$,.FINISH_START.,$);
#136=IFCRELSEQUENCE('JfuVW$$PnzcX2dM$JbVDa9',#6,$,$,#84,#86,$,.FINISH_START.,$);
#137=IFCRELSEQUENCE('bXbldxYfKJyh2jhnF5J7T9',#6,$,$,#86,#88,$,.FINISH_START.,$);
#138=IFCRELSEQUENCE('Fr1Bb1NNc$QDG5aH$38F1J',#6,$,$,#88,#90,$,.FINISH_START.,$);
#139=IFCRELSEQUENCE('4jM3wv6vQjSJ6Vt1CHZ9a5',#6,$,$,#94,#96,$,.FINISH_START.,$);
#140=IFCRELSEQUENCE('m9CDH1VPLvG$G5alxLmteZ',#6,$,$,#96,#98,$,.FINISH_START.,$);
#141=IFCRELSEQUENCE('eZDdZfvtn32tjj$XOJPx3L',#6,$,$,#98,#100,$,.FINISH_START.,$);
#142=IFCRELSEQUENCE('kf8XWXL$MddBGLIn8BKj6X',#6,$,$,#104,#106,$,.FINISH_START.,$);
#143=IFCRELSEQUENCE('_Ds7xnLlPd4LcHLF$zmfUJ',#6,$,$,#106,#108,$,.FINISH_START.,$);
#144=IFCRELSEQUENCE('HfWfuJbVVRjfN5yFfpTf_$',#6,$,$,#108,#110,$,.FINISH_START.,$);
#145=IFCRELSEQUENCE('wBkHhjEHnZErm5KlStc79j',#6,$,$,#110,#112,$,.FINISH_START.,$);
#146=IFCLAGTIME('Lag',.PREDICTED.,$,IFCDURATION('P18D'),.WORKTIME.);
#147=IFCRELSEQUENCE('5r2XKfVva1nL2v2FTXHrKp',#6,$,$,#42,#56,#146,.START_START.,$);
#148=IFCLAGTIME('Lag',.PREDICTED.,$,IFCRATIOMEASURE(0.4),.WORKTIME.);
#149=IFCRELSEQUENCE('NP0tshjX1NzfVl1XK1$JUl',#6,$,$,#56,#70,#148,.START_START.,$);
#150=IFCLAGTIME('Lag',.PREDICTED.,$,IFCDURATION('-P13D'),.WORKTIME.);
#151=IFCRELSEQUENCE('1FLlRRRV9XhHtBkXglZtCT',#6,$,$,#80,#84,#150,.FINISH_START.,$);
#152=IFCLAGTIME('Lag',.PREDICTED.,$,IFCDURATION('P2D'),.WORKTIME.);
#153=IFCRELSEQUENCE('$jM3URIH7ZSBChslK1NLsP',#6,$,$,#80,#90,#152,.FINISH_FINISH.,$);
#154=IFCRELSEQUENCE('g7yZy3KVv9kLU9e$nb7bJV',#6,$,$,#90,#94,$,.FINISH_START.,$);
#155=IFCRELSEQUENCE('_DQfmPEHrZSjoLslmnpPXz',#6,$,$,#100,#104,$,.FINISH_START.,$);
#156=IFCRELASSIGNSTOCONTROL('rDVhNjbXHjyDCF$VkTSruD',#6,$,$,(#40,#42,#44,#46,#48,#50,#52,#54,#56,#58,#60,#62,#64,#66,#68,#70,#72,#74,#76,#78,#80,#82,#84,#86,#88,#90,#92,#94,#96,#98,#100,#102,#104,#106,#108,#110,#112),$,#37);
#157=IFCPROPERTYSINGLEVALUE('wbsAutoNumber',$,IFCBOOLEAN(.T.),$);
#158=IFCPROPERTYSINGLEVALUE('ProjectStartDate',$,IFCDATE('2027-03-01'),$);
#159=IFCPROPERTYSINGLEVALUE('ProjectEndDate',$,$,$);
#160=IFCPROPERTYSINGLEVALUE('CreatedAt',$,IFCTEXT('2026-08-14T12:19:00.906Z'),$);
#161=IFCPROPERTYSINGLEVALUE('ModifiedAt',$,IFCTEXT('2026-08-14T12:19:00.907Z'),$);
#162=IFCPROPERTYSET('e5a3ArlP$tNZvpDF1ZK5n5',#6,'OPS_ProjectSettings',$,(#157,#158,#159,#160,#161));
#163=IFCRELDEFINESBYPROPERTIES('0Hdzo1sPJhdjQlBF$1BF9l',#6,$,$,(#13),#162);
#164=IFCPROPERTYSINGLEVALUE('MilestoneKind',$,IFCLABEL('START'),$);
#165=IFCPROPERTYSET('V3aLBTGfOvbVs7Un3JAtCl',#6,'OPS_Milestone',$,(#164));
#166=IFCRELDEFINESBYPROPERTIES('uBIHrZeP5Fnpi$Tns$nTLN',#6,$,$,(#52),#165);
#167=IFCPROPERTYSINGLEVALUE('MilestoneKind',$,IFCLABEL('FINISH'),$);
#168=IFCPROPERTYSINGLEVALUE('Mandatory',$,IFCBOOLEAN(.T.),$);
#169=IFCPROPERTYSET('0nhHnH9fYv8vEBc1AVxH19',#6,'OPS_Milestone',$,(#167,#168));
#170=IFCRELDEFINESBYPROPERTIES('PRuXC5VdR1nhI581w9k1kL',#6,$,$,(#112),#169);
ENDSEC;
END-ISO-10303-21;
