ISO-10303-21;
HEADER;
FILE_DESCRIPTION(('ViewDefinition [SchedulingView]'),'2;1');
FILE_NAME('120-Room Hotel, Scheveningen.ifc','2026-08-14T12:19:01',('Chantal Zee'),('Coastal Construction BV'),'Open Planner Studio 0.1','Open Planner Studio','');
FILE_SCHEMA(('IFC4X3'));
ENDSEC;
DATA;
#1=IFCPERSON($,'Chantal Zee',$,$,$,$,$,$);
#2=IFCORGANIZATION($,'Coastal Construction BV',$,$,$);
#3=IFCPERSONANDORGANIZATION(#1,#2,$);
#4=IFCORGANIZATION($,'OpenAEC Foundation',$,$,$);
#5=IFCAPPLICATION(#4,'0.1','Open Planner Studio','OPS');
#6=IFCOWNERHISTORY(#3,#5,$,.NOCHANGE.,$,$,$,1786709941);
#7=IFCSIUNIT(*,.LENGTHUNIT.,$,.METRE.);
#8=IFCSIUNIT(*,.TIMEUNIT.,$,.SECOND.);
#9=IFCUNITASSIGNMENT((#7,#8));
#10=IFCCARTESIANPOINT((0.,0.,0.));
#11=IFCAXIS2PLACEMENT3D(#10,$,$);
#12=IFCGEOMETRICREPRESENTATIONCONTEXT($,'Plan',3,1.0E-05,#11,$);
#13=IFCPROJECT('Z3iRmdg$Aht3jjXVcduFlh',#6,'120-Room Hotel, Scheveningen','New-build six-storey seafront hotel with wellness facilities',$,$,$,(#12),#9);
#14=IFCTIMEPERIOD('07:00:00','16:00:00');
#15=IFCRECURRENCEPATTERN(.WEEKLY.,$,(1,2,3,4,5),$,$,$,$,(#14));
#16=IFCWORKTIME('Standard work week',.PREDICTED.,$,#15,$,$);
#17=IFCWORKTIME('New Year''s Day',.PREDICTED.,$,$,'2027-01-01','2027-01-01');
#18=IFCWORKTIME('Good Friday',.PREDICTED.,$,$,'2027-03-26','2027-03-26');
#19=IFCWORKTIME('Easter',.PREDICTED.,$,$,'2027-03-28','2027-03-29');
#20=IFCWORKTIME('King''s Day',.PREDICTED.,$,$,'2027-04-27','2027-04-27');
#21=IFCWORKTIME('Liberation Day',.PREDICTED.,$,$,'2027-05-05','2027-05-05');
#22=IFCWORKTIME('Ascension Day',.PREDICTED.,$,$,'2027-05-06','2027-05-06');
#23=IFCWORKTIME('Whitsun',.PREDICTED.,$,$,'2027-05-16','2027-05-17');
#24=IFCWORKTIME('Christmas',.PREDICTED.,$,$,'2027-12-25','2027-12-26');
#25=IFCWORKTIME('Construction holiday (northern region)',.PREDICTED.,$,$,'2027-07-26','2027-08-15');
#26=IFCWORKTIME('New Year''s Day',.PREDICTED.,$,$,'2028-01-01','2028-01-01');
#27=IFCWORKTIME('Good Friday',.PREDICTED.,$,$,'2028-04-14','2028-04-14');
#28=IFCWORKTIME('Easter',.PREDICTED.,$,$,'2028-04-16','2028-04-17');
#29=IFCWORKTIME('King''s Day',.PREDICTED.,$,$,'2028-04-27','2028-04-27');
#30=IFCWORKTIME('Liberation Day',.PREDICTED.,$,$,'2028-05-05','2028-05-05');
#31=IFCWORKTIME('Ascension Day',.PREDICTED.,$,$,'2028-05-25','2028-05-25');
#32=IFCWORKTIME('Whitsun',.PREDICTED.,$,$,'2028-06-04','2028-06-05');
#33=IFCWORKTIME('Christmas',.PREDICTED.,$,$,'2028-12-25','2028-12-26');
#34=IFCWORKTIME('Construction holiday (northern region)',.PREDICTED.,$,$,'2028-07-24','2028-08-13');
#35=IFCWORKCALENDAR('_HlbW$VPl1Yxnv_nBDbFBd',#6,'Construction calendar NL','Standard construction calendar: Mon-Fri 07:00-16:00',$,(#16),(#17,#18,#19,#20,#21,#22,#23,#24,#25,#26,#27,#28,#29,#30,#31,#32,#33,#34),.FIRSTSHIFT.);
#36=IFCWORKPLAN('5LQJ5FpVDPPBGrQ1oFDPZR',#6,'120-Room Hotel, Scheveningen','New-build six-storey seafront hotel with wellness facilities',$,$,'2026-08-14T12:19:01',$,$,$,$,$,'2027-03-01T07:00:00','2027-03-19T07:00:00',.PLANNED.);
#37=IFCWORKSCHEDULE('YZWNmdg$2NIdO1XVuzdj_z',#6,'Construction schedule v1.0',$,$,$,'2026-08-14T12:19:01',$,$,$,$,$,'2027-03-01T07:00:00','2027-03-19T07:00:00',.PLANNED.);
#38=IFCRELAGGREGATES('X$Ph9TPtbVDd8te$ftI1sz',#6,$,$,#36,(#37));
#39=IFCTASKTIME('1. Preparation Time',.PREDICTED.,$,.WORKTIME.,'P0Y0M5D','2027-03-01T07:00:00','2027-03-05T07:00:00','2027-03-01T07:00:00','2027-03-25T07:00:00','2027-03-01T07:00:00','2028-02-16T07:00:00','P0Y0M0D','P0Y0M0D',.T.,$,$,$,$,$,0.0);
#40=IFCTASK('sjjdzdZH7NQX_jDH3FZNwX',#6,'1. Preparation',$,$,'1',$,$,$,.F.,$,#39,.CONSTRUCTION.);
#41=IFCTASKTIME('Demolish existing building Time',.PREDICTED.,$,.WORKTIME.,'P0Y0M10D','2027-03-01T07:00:00','2027-03-12T07:00:00','2027-03-01T07:00:00','2027-03-12T07:00:00','2027-03-01T07:00:00','2027-03-12T07:00:00','P0Y0M0D','P0Y0M0D',.T.,$,$,$,$,$,0.0);
#42=IFCTASK('tNkxo$_NUPi3FJbnax5Hn$',#6,'Demolish existing building',$,$,'1.1',$,$,$,.F.,$,#41,.DEMOLITION.);
#43=IFCTASKTIME('Set up site Time',.PREDICTED.,$,.WORKTIME.,'P0Y0M5D','2027-03-01T07:00:00','2027-03-05T07:00:00','2027-03-15T07:00:00','2027-03-19T07:00:00','2028-02-04T07:00:00','2028-02-10T07:00:00','P0Y0M0D','P0Y0M213D',.F.,$,$,$,$,$,0.0);
#44=IFCTASK('dXpPJVQXh70FnJrnR1trCF',#6,'Set up site',$,$,'1.2',$,$,$,.F.,$,#43,.LOGISTIC.);
#45=IFCTASKTIME('Foundation survey Time',.PREDICTED.,$,.WORKTIME.,'P0Y0M3D','2027-03-01T07:00:00','2027-03-03T07:00:00','2027-03-22T07:00:00','2027-03-24T07:00:00','2028-02-11T07:00:00','2028-02-15T07:00:00','P0Y0M0D','P0Y0M213D',.F.,$,$,$,$,$,0.0);
#46=IFCTASK('wLYLhDk9nlGVUfKn6jnZ9l',#6,'Foundation survey',$,$,'1.3',$,$,$,.F.,$,#45,.ATTENDANCE.);
#47=IFCTASKTIME('Start of new build Time',.PREDICTED.,$,.WORKTIME.,'P0Y0M0D','2027-03-01T07:00:00','2027-03-01T07:00:00','2027-03-25T07:00:00','2027-03-25T07:00:00','2028-02-16T07:00:00','2028-02-16T07:00:00','P0Y0M213D','P0Y0M213D',.F.,$,$,$,$,$,0.0);
#48=IFCTASK('Lz7B5HNNGDEvM9aFzl$JE5',#6,'Start of new build',$,$,'1.4',$,$,$,.T.,$,#47,.CONSTRUCTION.);
#49=IFCTASKTIME('2. Foundations Time',.PREDICTED.,$,.WORKTIME.,'P0Y0M5D','2027-03-01T07:00:00','2027-03-05T07:00:00','2027-03-12T07:00:00','2027-05-24T07:00:00','2027-03-12T07:00:00','2028-02-16T07:00:00','P0Y0M0D','P0Y0M0D',.T.,$,$,$,$,$,0.0);
#50=IFCTASK('gdGdl$H7OlOdapt15L81g9',#6,'2. Foundations',$,$,'2',$,$,$,.F.,$,#49,.CONSTRUCTION.);
#51=IFCTASKTIME('Sheet piling, boulevard Time',.PREDICTED.,$,.WORKTIME.,'P0Y0M10D','2027-03-01T07:00:00','2027-03-12T07:00:00','2027-03-12T07:00:00','2027-03-25T07:00:00','2027-03-12T07:00:00','2027-03-25T07:00:00','P0Y0M0D','P0Y0M0D',.T.,$,$,$,$,$,0.0);
#52=IFCTASK('SXpddRs$KJiz9NGXydelxB',#6,'Sheet piling, boulevard',$,$,'2.1',$,$,$,.F.,$,#51,.CONSTRUCTION.);
#53=IFCTASKTIME('Excavate basement Time',.PREDICTED.,$,.WORKTIME.,'P0Y0M8D','2027-03-01T07:00:00','2027-03-10T07:00:00','2027-03-30T07:00:00','2027-04-08T07:00:00','2027-12-29T07:00:00','2028-01-07T07:00:00','P0Y0M0D','P0Y0M177D',.F.,$,$,$,$,$,0.0);
#54=IFCTASK('HNO12L4HZpmV_d_VpPixFb',#6,'Excavate basement',$,$,'2.2',$,$,$,.F.,$,#53,.CONSTRUCTION.);
#55=IFCTASKTIME('Foundation piles Time',.PREDICTED.,$,.WORKTIME.,'P0Y0M12D','2027-03-01T07:00:00','2027-03-16T07:00:00','2027-04-09T07:00:00','2027-04-26T07:00:00','2028-01-10T07:00:00','2028-01-25T07:00:00','P0Y0M0D','P0Y0M177D',.F.,$,$,$,$,$,0.0);
#56=IFCTASK('stcf0n5FKfw1CrQ$6NUhMf',#6,'Foundation piles',$,$,'2.3',$,$,$,.F.,$,#55,.CONSTRUCTION.);
#57=IFCTASKTIME('Basement floor, wellness Time',.PREDICTED.,$,.WORKTIME.,'P0Y0M8D','2027-03-01T07:00:00','2027-03-10T07:00:00','2027-04-28T07:00:00','2027-05-11T07:00:00','2028-01-26T07:00:00','2028-02-04T07:00:00','P0Y0M0D','P0Y0M177D',.F.,$,$,$,$,$,0.0);
#58=IFCTASK('Z3Kb0l176nK3Dz5nk$pdBd',#6,'Basement floor, wellness',$,$,'2.4',$,$,$,.F.,$,#57,.CONSTRUCTION.);
#59=IFCTASKTIME('Basement walls Time',.PREDICTED.,$,.WORKTIME.,'P0Y0M8D','2027-03-01T07:00:00','2027-03-10T07:00:00','2027-05-12T07:00:00','2027-05-24T07:00:00','2028-02-07T07:00:00','2028-02-16T07:00:00','P0Y0M177D','P0Y0M177D',.F.,$,$,$,$,$,0.0);
#60=IFCTASK('2lHRKtT16l0nrPUVfjtBup',#6,'Basement walls',$,$,'2.5',$,$,$,.F.,$,#59,.CONSTRUCTION.);
#61=IFCTASKTIME('3. Structural works Time',.PREDICTED.,$,.WORKTIME.,'P0Y0M5D','2027-03-01T07:00:00','2027-03-05T07:00:00','2027-03-18T07:00:00','2027-06-29T07:00:00','2027-03-18T07:00:00','2028-02-16T07:00:00','P0Y0M0D','P0Y0M0D',.T.,$,$,$,$,$,0.0);
#62=IFCTASK('JNe$wzinYDAltLMlkVVbll',#6,'3. Structural works',$,$,'3',$,$,$,.F.,$,#61,.CONSTRUCTION.);
#63=IFCTASKTIME('Ground floor lobby Time',.PREDICTED.,$,.WORKTIME.,'P0Y0M10D','2027-03-01T07:00:00','2027-03-12T07:00:00','2027-03-18T07:00:00','2027-04-02T07:00:00','2027-03-18T07:00:00','2027-04-02T07:00:00','P0Y0M0D','P0Y0M0D',.T.,$,$,$,$,$,0.0);
#64=IFCTASK('mN8Vm9KFAfJvI58$$VdJw1',#6,'Ground floor lobby',$,$,'3.1',$,$,$,.F.,$,#63,.CONSTRUCTION.);
#65=IFCTASKTIME('Floor 1 rooms Time',.PREDICTED.,$,.WORKTIME.,'P0Y0M8D','2027-03-01T07:00:00','2027-03-10T07:00:00','2027-04-05T07:00:00','2027-04-14T07:00:00','2027-04-05T07:00:00','2027-04-14T07:00:00','P0Y0M0D','P0Y0M0D',.T.,$,$,$,$,$,0.0);
#66=IFCTASK('m9SzozRnAtXRVRqnClxX0t',#6,'Floor 1 rooms',$,$,'3.2',$,$,$,.F.,$,#65,.CONSTRUCTION.);
#67=IFCTASKTIME('Floor 2 rooms Time',.PREDICTED.,$,.WORKTIME.,'P0Y0M8D','2027-03-01T07:00:00','2027-03-10T07:00:00','2027-04-15T07:00:00','2027-04-26T07:00:00','2027-04-15T07:00:00','2027-04-26T07:00:00','P0Y0M0D','P0Y0M0D',.T.,$,$,$,$,$,0.0);
#68=IFCTASK('xBU$AlXvWxfxzP_XhTDPf1',#6,'Floor 2 rooms',$,$,'3.3',$,$,$,.F.,$,#67,.CONSTRUCTION.);
#69=IFCTASKTIME('Floor 3 rooms Time',.PREDICTED.,$,.WORKTIME.,'P0Y0M8D','2027-03-01T07:00:00','2027-03-10T07:00:00','2027-04-28T07:00:00','2027-05-11T07:00:00','2027-04-28T07:00:00','2027-05-11T07:00:00','P0Y0M0D','P0Y0M0D',.T.,$,$,$,$,$,0.0);
#70=IFCTASK('PXJ7J3xF8$EBeX5Fk38$o9',#6,'Floor 3 rooms',$,$,'3.4',$,$,$,.F.,$,#69,.CONSTRUCTION.);
#71=IFCTASKTIME('Floor 4 rooms Time',.PREDICTED.,$,.WORKTIME.,'P0Y0M8D','2027-03-01T07:00:00','2027-03-10T07:00:00','2027-05-12T07:00:00','2027-05-24T07:00:00','2027-05-12T07:00:00','2027-05-24T07:00:00','P0Y0M0D','P0Y0M0D',.T.,$,$,$,$,$,0.0);
#72=IFCTASK('V195kpfNg751CB_VPHb$Ef',#6,'Floor 4 rooms',$,$,'3.5',$,$,$,.F.,$,#71,.CONSTRUCTION.);
#73=IFCTASKTIME('Floor 5 rooms Time',.PREDICTED.,$,.WORKTIME.,'P0Y0M8D','2027-03-01T07:00:00','2027-03-10T07:00:00','2027-05-25T07:00:00','2027-06-03T07:00:00','2027-05-25T07:00:00','2027-06-03T07:00:00','P0Y0M0D','P0Y0M0D',.T.,$,$,$,$,$,0.0);
#74=IFCTASK('tjZNiNP9HXE7wpRH6DpPlB',#6,'Floor 5 rooms',$,$,'3.6',$,$,$,.F.,$,#73,.CONSTRUCTION.);
#75=IFCTASKTIME('Penthouse floor Time',.PREDICTED.,$,.WORKTIME.,'P0Y0M10D','2027-03-01T07:00:00','2027-03-12T07:00:00','2027-06-04T07:00:00','2027-06-17T07:00:00','2027-06-04T07:00:00','2027-06-17T07:00:00','P0Y0M0D','P0Y0M0D',.T.,$,$,$,$,$,0.0);
#76=IFCTASK('nd_B$3a1oRZPe$FVJxJ7Xv',#6,'Penthouse floor',$,$,'3.7',$,$,$,.F.,$,#75,.CONSTRUCTION.);
#77=IFCTASKTIME('Roof terrace structure Time',.PREDICTED.,$,.WORKTIME.,'P0Y0M8D','2027-03-01T07:00:00','2027-03-10T07:00:00','2027-06-18T07:00:00','2027-06-29T07:00:00','2027-06-18T07:00:00','2027-06-29T07:00:00','P0Y0M0D','P0Y0M0D',.T.,$,$,$,$,$,0.0);
#78=IFCTASK('S$FpFH79hJUxhZhlR5cp8b',#6,'Roof terrace structure',$,$,'3.8',$,$,$,.F.,$,#77,.CONSTRUCTION.);
#79=IFCTASKTIME('Topping out Time',.PREDICTED.,$,.WORKTIME.,'P0Y0M0D','2027-03-01T07:00:00','2027-03-01T07:00:00','2027-06-29T07:00:00','2027-06-29T07:00:00','2028-02-16T07:00:00','2028-02-16T07:00:00','P0Y0M151D','P0Y0M151D',.F.,$,$,$,$,$,0.0);
#80=IFCTASK('c5SzgXB1mDov27AlSRVpGl',#6,'Topping out',$,$,'3.9',$,$,$,.T.,$,#79,.CONSTRUCTION.);
#81=IFCTASKTIME('4. Facade Time',.PREDICTED.,$,.WORKTIME.,'P0Y0M5D','2027-03-01T07:00:00','2027-03-05T07:00:00','2027-06-10T07:00:00','2027-08-25T07:00:00','2027-06-10T07:00:00','2028-02-16T07:00:00','P0Y0M0D','P0Y0M0D',.T.,$,$,$,$,$,0.0);
#82=IFCTASK('2FJdbbxVN5HJoBc$6fEbLj',#6,'4. Facade',$,$,'4',$,$,$,.F.,$,#81,.INSTALLATION.);
#83=IFCTASKTIME('Curtain wall, sea side Time',.PREDICTED.,$,.WORKTIME.,'P0Y0M12D','2027-03-01T07:00:00','2027-03-16T07:00:00','2027-06-10T07:00:00','2027-06-25T07:00:00','2027-06-10T07:00:00','2027-06-25T07:00:00','P0Y0M0D','P0Y0M0D',.T.,$,$,$,$,$,0.0);
#84=IFCTASK('2FZNqdDFgdHJMBw$exkx1p',#6,'Curtain wall, sea side',$,$,'4.1',$,$,$,.F.,$,#83,.INSTALLATION.);
#85=IFCTASKTIME('Curtain wall, land side Time',.PREDICTED.,$,.WORKTIME.,'P0Y0M10D','2027-03-01T07:00:00','2027-03-12T07:00:00','2027-06-28T07:00:00','2027-07-09T07:00:00','2027-06-28T07:00:00','2027-07-09T07:00:00','P0Y0M0D','P0Y0M0D',.T.,$,$,$,$,$,0.0);
#86=IFCTASK('QXz9cD67shPjIFZnEpcD8x',#6,'Curtain wall, land side',$,$,'4.2',$,$,$,.F.,$,#85,.INSTALLATION.);
#87=IFCTASKTIME('Natural stone cladding Time',.PREDICTED.,$,.WORKTIME.,'P0Y0M10D','2027-03-01T07:00:00','2027-03-12T07:00:00','2027-07-12T07:00:00','2027-07-23T07:00:00','2027-07-12T07:00:00','2027-07-23T07:00:00','P0Y0M0D','P0Y0M0D',.T.,$,$,$,$,$,0.0);
#88=IFCTASK('vhER0nrlV7LlltWXrpDdPv',#6,'Natural stone cladding',$,$,'4.3',$,$,$,.F.,$,#87,.CONSTRUCTION.);
#89=IFCTASKTIME('Window frames and glazing Time',.PREDICTED.,$,.WORKTIME.,'P0Y0M8D','2027-03-01T07:00:00','2027-03-10T07:00:00','2027-08-16T07:00:00','2027-08-25T07:00:00','2027-08-16T07:00:00','2027-08-25T07:00:00','P0Y0M0D','P0Y0M0D',.T.,$,$,$,$,$,0.0);
#90=IFCTASK('yJM3sBHdRVZtZrYXJRXpK1',#6,'Window frames and glazing',$,$,'4.4',$,$,$,.F.,$,#89,.INSTALLATION.);
#91=IFCTASKTIME('Wind and weathertight Time',.PREDICTED.,$,.WORKTIME.,'P0Y0M0D','2027-03-01T07:00:00','2027-03-01T07:00:00','2027-08-25T07:00:00','2027-08-25T07:00:00','2028-02-16T07:00:00','2028-02-16T07:00:00','P0Y0M125D','P0Y0M125D',.F.,$,$,$,$,$,0.0);
#92=IFCTASK('a$NbWX5VHVE7AxSHrD390t',#6,'Wind and weathertight',$,$,'4.5',$,$,$,.T.,$,#91,.INSTALLATION.);
#93=IFCTASKTIME('5. Building services Time',.PREDICTED.,$,.WORKTIME.,'P0Y0M5D','2027-03-01T07:00:00','2027-03-05T07:00:00','2027-08-26T07:00:00','2027-12-02T07:00:00','2027-08-26T07:00:00','2028-02-16T07:00:00','P0Y0M0D','P0Y0M0D',.T.,$,$,$,$,$,0.0);
#94=IFCTASK('X1HJj3xFOvrF5nLl5BCRRR',#6,'5. Building services',$,$,'5',$,$,$,.F.,$,#93,.INSTALLATION.);
#95=IFCTASKTIME('Main electrical distribution Time',.PREDICTED.,$,.WORKTIME.,'P0Y0M8D','2027-03-01T07:00:00','2027-03-10T07:00:00','2027-08-26T07:00:00','2027-09-06T07:00:00','2027-08-26T07:00:00','2027-09-06T07:00:00','P0Y0M0D','P0Y0M0D',.T.,$,$,$,$,$,0.0);
#96=IFCTASK('hTJ7Xj2nWx1ZBpf$1XHBCl',#6,'Main electrical distribution',$,$,'5.1',$,$,$,.F.,$,#95,.INSTALLATION.);
#97=IFCTASKTIME('Risers, all services Time',.PREDICTED.,$,.WORKTIME.,'P0Y0M12D','2027-03-01T07:00:00','2027-03-16T07:00:00','2027-09-07T07:00:00','2027-09-22T07:00:00','2027-11-22T07:00:00','2027-12-07T07:00:00','P0Y0M0D','P0Y0M54D',.F.,$,$,$,$,$,0.0);
#98=IFCTASK('dVbl1vgP1rrFDzTHqnVb3v',#6,'Risers, all services',$,$,'5.2',$,$,$,.F.,$,#97,.INSTALLATION.);
#99=IFCTASKTIME('VRF climate system Time',.PREDICTED.,$,.WORKTIME.,'P0Y0M10D','2027-03-01T07:00:00','2027-03-12T07:00:00','2027-09-14T07:00:00','2027-09-27T07:00:00','2027-11-29T07:00:00','2027-12-10T07:00:00','P0Y0M0D','P0Y0M54D',.F.,$,$,$,$,$,0.0);
#100=IFCTASK('ez$TO5It1NT9v1jFF9gNw1',#6,'VRF climate system',$,$,'5.3',$,$,$,.F.,$,#99,.INSTALLATION.);
#101=IFCTASKTIME('Ventilation and air handling Time',.PREDICTED.,$,.WORKTIME.,'P0Y0M10D','2027-03-01T07:00:00','2027-03-12T07:00:00','2027-09-28T07:00:00','2027-10-11T07:00:00','2027-12-13T07:00:00','2027-12-24T07:00:00','P0Y0M0D','P0Y0M54D',.F.,$,$,$,$,$,0.0);
#102=IFCTASK('UZuXW$nvERz7UtO$ydu$wx',#6,'Ventilation and air handling',$,$,'5.4',$,$,$,.F.,$,#101,.INSTALLATION.);
#103=IFCTASKTIME('Lift installation (2 units) Time',.PREDICTED.,$,.WORKTIME.,'P0Y0M15D','2027-03-01T07:00:00','2027-03-19T07:00:00','2027-10-12T07:00:00','2027-11-01T07:00:00','2027-12-27T07:00:00','2028-01-14T07:00:00','P0Y0M0D','P0Y0M54D',.F.,$,$,$,$,$,0.0);
#104=IFCTASK('$l$BvdRXFZM3Hzf1MnvD0t',#6,'Lift installation (2 units)',$,$,'5.5',$,$,$,.F.,$,#103,.INSTALLATION.);
#105=IFCTASKTIME('Sprinkler and fire alarm Time',.PREDICTED.,$,.WORKTIME.,'P0Y0M8D','2027-03-01T07:00:00','2027-03-10T07:00:00','2027-11-02T07:00:00','2027-11-11T07:00:00','2028-01-17T07:00:00','2028-01-26T07:00:00','P0Y0M0D','P0Y0M54D',.F.,$,$,$,$,$,0.0);
#106=IFCTASK('2Dont$EtLpUfZ9an9vijAT',#6,'Sprinkler and fire alarm',$,$,'5.6',$,$,$,.F.,$,#105,.INSTALLATION.);
#107=IFCTASKTIME('Wellness building services Time',.PREDICTED.,$,.WORKTIME.,'P0Y0M10D','2027-03-01T07:00:00','2027-03-12T07:00:00','2027-11-12T07:00:00','2027-11-25T07:00:00','2028-01-27T07:00:00','2028-02-09T07:00:00','P0Y0M0D','P0Y0M54D',.F.,$,$,$,$,$,0.0);
#108=IFCTASK('Pb0t67ItjhVbl3nXxnlB09',#6,'Wellness building services',$,$,'5.7',$,$,$,.F.,$,#107,.INSTALLATION.);
#109=IFCTASKTIME('Hotel automation Time',.PREDICTED.,$,.WORKTIME.,'P0Y0M5D','2027-03-01T07:00:00','2027-03-05T07:00:00','2027-11-26T07:00:00','2027-12-02T07:00:00','2028-02-10T07:00:00','2028-02-16T07:00:00','P0Y0M54D','P0Y0M54D',.F.,$,$,$,$,$,0.0);
#110=IFCTASK('vhAT4zSl9V3NN54ldBKJYH',#6,'Hotel automation',$,$,'5.8',$,$,$,.F.,$,#109,.INSTALLATION.);
#111=IFCTASKTIME('6. Fit-out Time',.PREDICTED.,$,.WORKTIME.,'P0Y0M5D','2027-03-01T07:00:00','2027-03-05T07:00:00','2027-10-20T07:00:00','2028-01-21T07:00:00','2027-10-20T07:00:00','2028-01-21T07:00:00','P0Y0M0D','P0Y0M0D',.T.,$,$,$,$,$,0.0);
#112=IFCTASK('rfMzU5MdNn9bZhInSfobDH',#6,'6. Fit-out',$,$,'6',$,$,$,.F.,$,#111,.CONSTRUCTION.);
#113=IFCTASKTIME('Prefab room walls Time',.PREDICTED.,$,.WORKTIME.,'P0Y0M12D','2027-03-01T07:00:00','2027-03-16T07:00:00','2027-10-20T07:00:00','2027-11-04T07:00:00','2027-10-20T07:00:00','2027-11-04T07:00:00','P0Y0M0D','P0Y0M0D',.T.,$,$,$,$,$,0.0);
#114=IFCTASK('Lz7r7PDFgbJfjXFVhdm9SN',#6,'Prefab room walls',$,$,'6.1',$,$,$,.F.,$,#113,.CONSTRUCTION.);
#115=IFCTASKTIME('Prefab bathroom pods Time',.PREDICTED.,$,.WORKTIME.,'P0Y0M10D','2027-03-01T07:00:00','2027-03-12T07:00:00','2027-11-05T07:00:00','2027-11-18T07:00:00','2027-11-05T07:00:00','2027-11-18T07:00:00','P0Y0M0D','P0Y0M0D',.T.,$,$,$,$,$,0.0);
#116=IFCTASK('1jsTqPRXt$lrqh2n5BaBCF',#6,'Prefab bathroom pods',$,$,'6.2',$,$,$,.F.,$,#115,.INSTALLATION.);
#117=IFCTASKTIME('Screeds and carpet Time',.PREDICTED.,$,.WORKTIME.,'P0Y0M8D','2027-03-01T07:00:00','2027-03-10T07:00:00','2027-11-19T07:00:00','2027-11-30T07:00:00','2027-11-19T07:00:00','2027-11-30T07:00:00','P0Y0M0D','P0Y0M0D',.T.,$,$,$,$,$,0.0);
#118=IFCTASK('Y$t5AnDVj993rPIXUv07LD',#6,'Screeds and carpet',$,$,'6.3',$,$,$,.F.,$,#117,.CONSTRUCTION.);
#119=IFCTASKTIME('Luxury lobby finishes Time',.PREDICTED.,$,.WORKTIME.,'P0Y0M10D','2027-03-01T07:00:00','2027-03-12T07:00:00','2027-12-01T07:00:00','2027-12-14T07:00:00','2027-12-01T07:00:00','2027-12-14T07:00:00','P0Y0M0D','P0Y0M0D',.T.,$,$,$,$,$,0.0);
#120=IFCTASK('G7ondf1vEnlJkFpFxBKxtF',#6,'Luxury lobby finishes',$,$,'6.4',$,$,$,.F.,$,#119,.CONSTRUCTION.);
#121=IFCTASKTIME('Restaurant kitchen Time',.PREDICTED.,$,.WORKTIME.,'P0Y0M8D','2027-03-01T07:00:00','2027-03-10T07:00:00','2027-12-15T07:00:00','2027-12-24T07:00:00','2027-12-15T07:00:00','2027-12-24T07:00:00','P0Y0M0D','P0Y0M0D',.T.,$,$,$,$,$,0.0);
#122=IFCTASK('DBfJ5FBHZjK3xFLlFb$JUD',#6,'Restaurant kitchen',$,$,'6.5',$,$,$,.F.,$,#121,.INSTALLATION.);
#123=IFCTASKTIME('Painting Time',.PREDICTED.,$,.WORKTIME.,'P0Y0M10D','2027-03-01T07:00:00','2027-03-12T07:00:00','2027-12-27T07:00:00','2028-01-07T07:00:00','2027-12-27T07:00:00','2028-01-07T07:00:00','P0Y0M0D','P0Y0M0D',.T.,$,$,$,$,$,0.0);
#124=IFCTASK('lf8FnLbnwzIP49Cn4d8nzB',#6,'Painting',$,$,'6.6',$,$,$,.F.,$,#123,.CONSTRUCTION.);
#125=IFCTASKTIME('Room furnishing Time',.PREDICTED.,$,.WORKTIME.,'P0Y0M10D','2027-03-01T07:00:00','2027-03-12T07:00:00','2028-01-10T07:00:00','2028-01-21T07:00:00','2028-01-10T07:00:00','2028-01-21T07:00:00','P0Y0M0D','P0Y0M0D',.T.,$,$,$,$,$,0.0);
#126=IFCTASK('aZO$UtrldJATj$DFLZT9mF',#6,'Room furnishing',$,$,'6.7',$,$,$,.F.,$,#125,.LOGISTIC.);
#127=IFCTASKTIME('7. Handover Time',.PREDICTED.,$,.WORKTIME.,'P0Y0M5D','2027-03-01T07:00:00','2027-03-05T07:00:00','2028-01-24T07:00:00','2028-02-16T07:00:00','2028-01-24T07:00:00','2028-02-16T07:00:00','P0Y0M0D','P0Y0M0D',.T.,$,$,$,$,$,0.0);
#128=IFCTASK('MTRHj1Ittr935FZn2bvRtp',#6,'7. Handover',$,$,'7',$,$,$,.F.,$,#127,.CONSTRUCTION.);
#129=IFCTASKTIME('Finish roof terrace Time',.PREDICTED.,$,.WORKTIME.,'P0Y0M5D','2027-03-01T07:00:00','2027-03-05T07:00:00','2028-01-24T07:00:00','2028-01-28T07:00:00','2028-01-24T07:00:00','2028-01-28T07:00:00','P0Y0M0D','P0Y0M0D',.T.,$,$,$,$,$,0.0);
#130=IFCTASK('T1vBt1YfyxPrGRe$8Lu12z',#6,'Finish roof terrace',$,$,'7.1',$,$,$,.F.,$,#129,.CONSTRUCTION.);
#131=IFCTASKTIME('External areas, boulevard Time',.PREDICTED.,$,.WORKTIME.,'P0Y0M8D','2027-03-01T07:00:00','2027-03-10T07:00:00','2028-01-31T07:00:00','2028-02-09T07:00:00','2028-01-31T07:00:00','2028-02-09T07:00:00','P0Y0M0D','P0Y0M0D',.T.,$,$,$,$,$,0.0);
#132=IFCTASK('n7s7FBff4bTd0zTHWf6jI7',#6,'External areas, boulevard',$,$,'7.2',$,$,$,.F.,$,#131,.CONSTRUCTION.);
#133=IFCTASKTIME('Testing and commissioning Time',.PREDICTED.,$,.WORKTIME.,'P0Y0M5D','2027-03-01T07:00:00','2027-03-05T07:00:00','2028-02-10T07:00:00','2028-02-16T07:00:00','2028-02-10T07:00:00','2028-02-16T07:00:00','P0Y0M0D','P0Y0M0D',.T.,$,$,$,$,$,0.0);
#134=IFCTASK('0Fz9kJJFWRp9HzFVpLPjgD',#6,'Testing and commissioning',$,$,'7.3',$,$,$,.F.,$,#133,.ATTENDANCE.);
#135=IFCTASKTIME('Hotel handover Time',.PREDICTED.,$,.WORKTIME.,'P0Y0M0D','2027-03-01T07:00:00','2027-03-01T07:00:00','2028-02-16T07:00:00','2028-02-16T07:00:00','2028-02-16T07:00:00','2028-02-16T07:00:00','P0Y0M0D','P0Y0M0D',.T.,$,$,$,$,$,0.0);
#136=IFCTASK('Ht4rhNu7krlrSJRFeJvbj$',#6,'Hotel handover',$,$,'7.4',$,$,$,.T.,$,#135,.CONSTRUCTION.);
#137=IFCRELNESTS('3llbyX_FedV3Xx8$jxJ775',#6,'WBS 1. Preparation',$,#40,( #42,#44,#46,#48));
#138=IFCRELNESTS('FBFxwzCXpRx$yTbHUvGfgf',#6,'WBS 2. Foundations',$,#50,( #52,#54,#56,#58,#60));
#139=IFCRELNESTS('qr1B5lnPV5fxzvonA5s3rz',#6,'WBS 3. Structural works',$,#62,( #64,#66,#68,#70,#72,#74,#76,#78,#80));
#140=IFCRELNESTS('5Bwtg5NNYjkLo$t$1zWdXZ',#6,'WBS 4. Facade',$,#82,( #84,#86,#88,#90,#92));
#141=IFCRELNESTS('c5yTK9bnQVMnlZhlhTzNQL',#6,'WBS 5. Building services',$,#94,( #96,#98,#100,#102,#104,#106,#108,#110));
#142=IFCRELNESTS('IbBX4TePf5V3jD5l0vuFjz',#6,'WBS 6. Fit-out',$,#112,( #114,#116,#118,#120,#122,#124,#126));
#143=IFCRELNESTS('ZXZfanqFKp876JXXkZKxb1',#6,'WBS 7. Handover',$,#128,( #130,#132,#134,#136));
#144=IFCRELNESTS('tjjP5r1vgdnD4TBHzDgTrv',#6,'WBS Hoofd',$,#37,(#40,#50,#62,#82,#94,#112,#128));
#145=IFCRELSEQUENCE('jRZNKNV74FN59hwHVpI5jZ',#6,$,$,#42,#44,$,.FINISH_START.,$);
#146=IFCRELSEQUENCE('CNk5_Lqn4HD9VbiHqTCbf3',#6,$,$,#44,#46,$,.FINISH_START.,$);
#147=IFCRELSEQUENCE('_lXLHVh12tQpytCFeDTNYl',#6,$,$,#46,#48,$,.FINISH_START.,$);
#148=IFCRELSEQUENCE('I5PhZfNfq7WlXl9$S9Qvhp',#6,$,$,#52,#54,$,.FINISH_START.,$);
#149=IFCRELSEQUENCE('B9wt2vXPZpm18Fbl_fULkB',#6,$,$,#54,#56,$,.FINISH_START.,$);
#150=IFCRELSEQUENCE('$lP3wzKVVRx$eVTHeDDPFx',#6,$,$,#56,#58,$,.FINISH_START.,$);
#151=IFCRELSEQUENCE('YXpP5hhlrzm1iVFVDh1x7N',#6,$,$,#58,#60,$,.FINISH_START.,$);
#152=IFCRELSEQUENCE('D7oFXp2N2tcpqrg1JRVpyv',#6,$,$,#64,#66,$,.FINISH_START.,$);
#153=IFCRELSEQUENCE('qL5VCxl7WRjNNbmXAb_lPB',#6,$,$,#66,#68,$,.FINISH_START.,$);
#154=IFCRELSEQUENCE('xlztABd9TJ4DaP2XdlR$Mj',#6,$,$,#68,#70,$,.FINISH_START.,$);
#155=IFCRELSEQUENCE('d1nDRRDn_TSj61bl_5RnRX',#6,$,$,#70,#72,$,.FINISH_START.,$);
#156=IFCRELSEQUENCE('o7onVjg1s9HBmxaFN9QvRx',#6,$,$,#72,#74,$,.FINISH_START.,$);
#157=IFCRELSEQUENCE('3nBFZbUngRhlxbal7X5H5L',#6,$,$,#74,#76,$,.FINISH_START.,$);
#158=IFCRELSEQUENCE('SzCDz7NNsLfZvpTnghu$kB',#6,$,$,#76,#78,$,.FINISH_START.,$);
#159=IFCRELSEQUENCE('gTZfe3T1Af5VcZVVWtA947',#6,$,$,#78,#80,$,.FINISH_START.,$);
#160=IFCRELSEQUENCE('5r_V4TWtNRx$qhkFSR1JUn',#6,$,$,#84,#86,$,.FINISH_START.,$);
#161=IFCRELSEQUENCE('mPobuhCXnlOtdnFVJxTNMp',#6,$,$,#86,#88,$,.FINISH_START.,$);
#162=IFCRELSEQUENCE('j51Tal8Phjor0TN1vbEVuJ',#6,$,$,#88,#90,$,.FINISH_START.,$);
#163=IFCRELSEQUENCE('1JkxMxNN_3e9DzTlyv4h23',#6,$,$,#90,#92,$,.FINISH_START.,$);
#164=IFCRELSEQUENCE('rDnxQJUnYj6JE$1VUvm9Oh',#6,$,$,#96,#98,$,.FINISH_START.,$);
#165=IFCLAGTIME('Lag',.PREDICTED.,$,IFCDURATION('P5D'),.WORKTIME.);
#166=IFCRELSEQUENCE('lNO1cDQ7qvG1u90VzJYFB7',#6,$,$,#98,#100,#165,.START_START.,$);
#167=IFCRELSEQUENCE('0FTNuB8PZXw1K5O1LZb1UJ',#6,$,$,#100,#102,$,.FINISH_START.,$);
#168=IFCRELSEQUENCE('wlLlfJL12z8vghglsX3te3',#6,$,$,#102,#104,$,.FINISH_START.,$);
#169=IFCRELSEQUENCE('9J5VqxfNUDIdSjZlqTS3NT',#6,$,$,#104,#106,$,.FINISH_START.,$);
#170=IFCRELSEQUENCE('pPYhJ1sPB96J6D3n83VbPh',#6,$,$,#106,#108,$,.FINISH_START.,$);
#171=IFCRELSEQUENCE('4jQJBPYF2tQDWjv175Qp8b',#6,$,$,#108,#110,$,.FINISH_START.,$);
#172=IFCRELSEQUENCE('rfUhrza1k$9zhNCn4BDdV3',#6,$,$,#114,#116,$,.FINISH_START.,$);
#173=IFCRELSEQUENCE('6h2BNFCnePfxzvQHl7GfA3',#6,$,$,#116,#118,$,.FINISH_START.,$);
#174=IFCRELSEQUENCE('_lfj5F3$0BPJQzZlKXxHRx',#6,$,$,#118,#120,$,.FINISH_START.,$);
#175=IFCRELSEQUENCE('uLgzYxYNKJajcTnXhvCbn$',#6,$,$,#120,#122,$,.FINISH_START.,$);
#176=IFCRELSEQUENCE('_JAZSnKnw3AlP3pl5BS3PB',#6,$,$,#122,#124,$,.FINISH_START.,$);
#177=IFCRELSEQUENCE('BJb1o1cvOle9XxO$y74TZR',#6,$,$,#124,#126,$,.FINISH_START.,$);
#178=IFCRELSEQUENCE('Oxa3cfOdH$Y5PZVXGlPx$p',#6,$,$,#130,#132,$,.FINISH_START.,$);
#179=IFCRELSEQUENCE('ypMdX9y$4RhlZN8$PLWddd',#6,$,$,#132,#134,$,.FINISH_START.,$);
#180=IFCRELSEQUENCE('ttwto$2fsBR1OdkVMlb12z',#6,$,$,#134,#136,$,.FINISH_START.,$);
#181=IFCLAGTIME('Lag',.PREDICTED.,$,IFCDURATION('P9D'),.WORKTIME.);
#182=IFCRELSEQUENCE('vnvTmNedRXLHT9CHUdKJUl',#6,$,$,#42,#52,#181,.START_START.,$);
#183=IFCLAGTIME('Lag',.PREDICTED.,$,IFCRATIOMEASURE(0.4),.WORKTIME.);
#184=IFCRELSEQUENCE('i5fby12fQJCZRBM1pr5Xat',#6,$,$,#52,#64,#183,.START_START.,$);
#185=IFCLAGTIME('Lag',.PREDICTED.,$,IFCDURATION('-P14D'),.WORKTIME.);
#186=IFCRELSEQUENCE('VTmvFhZ12Z4L6JFXdheVq3',#6,$,$,#78,#84,#185,.FINISH_START.,$);
#187=IFCLAGTIME('Lag',.PREDICTED.,$,IFCDURATION('P2D'),.WORKTIME.);
#188=IFCRELSEQUENCE('QX39_PZl1hdjYZJn$1LHll',#6,$,$,#78,#90,#187,.FINISH_FINISH.,$);
#189=IFCRELSEQUENCE('V$NRGtKn6najsdIXkTaBWd',#6,$,$,#90,#96,$,.FINISH_START.,$);
#190=IFCLAGTIME('Lag',.PREDICTED.,$,IFCDURATION('P39D'),.WORKTIME.);
#191=IFCRELSEQUENCE('j5dhjXYnwFaJsbWVdnnhA7',#6,$,$,#96,#114,#190,.START_START.,$);
#192=IFCRELSEQUENCE('NPOlhJIHPJEBCBkVcZZte3',#6,$,$,#126,#130,$,.FINISH_START.,$);
#193=IFCRELASSIGNSTOCONTROL('rDVhNjbXHjyDCF$VkTSruD',#6,$,$,(#40,#42,#44,#46,#48,#50,#52,#54,#56,#58,#60,#62,#64,#66,#68,#70,#72,#74,#76,#78,#80,#82,#84,#86,#88,#90,#92,#94,#96,#98,#100,#102,#104,#106,#108,#110,#112,#114,#116,#118,#120,#122,#124,#126,#128,#130,#132,#134,#136),$,#37);
#194=IFCPROPERTYSINGLEVALUE('wbsAutoNumber',$,IFCBOOLEAN(.T.),$);
#195=IFCPROPERTYSINGLEVALUE('ProjectStartDate',$,IFCDATE('2027-03-01'),$);
#196=IFCPROPERTYSINGLEVALUE('ProjectEndDate',$,$,$);
#197=IFCPROPERTYSINGLEVALUE('CreatedAt',$,IFCTEXT('2026-08-14T12:19:00.953Z'),$);
#198=IFCPROPERTYSINGLEVALUE('ModifiedAt',$,IFCTEXT('2026-08-14T12:19:00.954Z'),$);
#199=IFCPROPERTYSET('e5a3ArlP$tNZvpDF1ZK5n5',#6,'OPS_ProjectSettings',$,(#194,#195,#196,#197,#198));
#200=IFCRELDEFINESBYPROPERTIES('0Hdzo1sPJhdjQlBF$1BF9l',#6,$,$,(#13),#199);
#201=IFCPROPERTYSINGLEVALUE('MilestoneKind',$,IFCLABEL('START'),$);
#202=IFCPROPERTYSET('$JwDlVRVn329xnBlDLnLIB',#6,'OPS_Milestone',$,(#201));
#203=IFCRELDEFINESBYPROPERTIES('eR0tU5QvuV291rc$oJgNIL',#6,$,$,(#48),#202);
#204=IFCPROPERTYSINGLEVALUE('MilestoneKind',$,IFCLABEL('FINISH'),$);
#205=IFCPROPERTYSET('IbBVW1F7QjSrCrkVMheXip',#6,'OPS_Milestone',$,(#204));
#206=IFCRELDEFINESBYPROPERTIES('vFtDpHuvkLTtxlv1b1FTNX',#6,$,$,(#80),#205);
#207=IFCPROPERTYSINGLEVALUE('MilestoneKind',$,IFCLABEL('FINISH'),$);
#208=IFCPROPERTYSET('uhERCP3H9rXblTbHMLeVm$',#6,'OPS_Milestone',$,(#207));
#209=IFCRELDEFINESBYPROPERTIES('Ht4BXDw7MdHjAxqHUh7piV',#6,$,$,(#92),#208);
#210=IFCPROPERTYSINGLEVALUE('MilestoneKind',$,IFCLABEL('FINISH'),$);
#211=IFCPROPERTYSINGLEVALUE('Mandatory',$,IFCBOOLEAN(.T.),$);
#212=IFCPROPERTYSET('b$PLhJIlNb3vgfu$xHxV09',#6,'OPS_Milestone',$,(#210,#211));
#213=IFCRELDEFINESBYPROPERTIES('_jATmdwVJtXbxnRlwj9rWv',#6,$,$,(#136),#212);
ENDSEC;
END-ISO-10303-21;
