ISO-10303-21;
HEADER;
FILE_DESCRIPTION(('ViewDefinition [SchedulingView]'),'2;1');
FILE_NAME('Breda Railway Station Extension.ifc','2026-07-28T13:22:48',('Willem Spoor'),('Station Construction BV'),'Open Planner Studio 0.1','Open Planner Studio','');
FILE_SCHEMA(('IFC4X3'));
ENDSEC;
DATA;
#1=IFCPERSON($,'Willem Spoor',$,$,$,$,$,$);
#2=IFCORGANIZATION($,'Station Construction BV',$,$,$);
#3=IFCPERSONANDORGANIZATION(#1,#2,$);
#4=IFCORGANIZATION($,'OpenAEC Foundation',$,$,$);
#5=IFCAPPLICATION(#4,'0.1','Open Planner Studio','OPS');
#6=IFCOWNERHISTORY(#3,#5,$,.NOCHANGE.,$,$,$,1785244968);
#7=IFCSIUNIT(*,.LENGTHUNIT.,$,.METRE.);
#8=IFCSIUNIT(*,.TIMEUNIT.,$,.SECOND.);
#9=IFCUNITASSIGNMENT((#7,#8));
#10=IFCCARTESIANPOINT((0.,0.,0.));
#11=IFCAXIS2PLACEMENT3D(#10,$,$);
#12=IFCGEOMETRICREPRESENTATIONCONTEXT($,'Plan',3,1.0E-05,#11,$);
#13=IFCPROJECT('EhBFxnLH9Xj7Mfu$DBhlbR',#6,'Breda Railway Station Extension','Extension of the station concourse and an extra platform with underpass',$,$,$,(#12),#9);
#14=IFCTIMEPERIOD('07:00:00','16:00:00');
#15=IFCRECURRENCEPATTERN(.WEEKLY.,$,(1,2,3,4,5,6),$,$,$,$,(#14));
#16=IFCWORKTIME('Standaard werkweek',.PREDICTED.,$,#15,$,$);
#17=IFCWORKTIME('New Year''s Day',.PREDICTED.,$,$,'2027-01-01','2027-01-01');
#18=IFCWORKTIME('Good Friday',.PREDICTED.,$,$,'2027-03-26','2027-03-26');
#19=IFCWORKTIME('Easter',.PREDICTED.,$,$,'2027-03-28','2027-03-29');
#20=IFCWORKTIME('King''s Day',.PREDICTED.,$,$,'2027-04-27','2027-04-27');
#21=IFCWORKTIME('Liberation Day',.PREDICTED.,$,$,'2027-05-05','2027-05-05');
#22=IFCWORKTIME('Ascension Day',.PREDICTED.,$,$,'2027-05-06','2027-05-06');
#23=IFCWORKTIME('Whitsun',.PREDICTED.,$,$,'2027-05-16','2027-05-17');
#24=IFCWORKTIME('Christmas',.PREDICTED.,$,$,'2027-12-25','2027-12-26');
#25=IFCWORKTIME('Construction holiday (northern region)',.PREDICTED.,$,$,'2027-07-26','2027-08-15');
#26=IFCWORKTIME('New Year''s Day',.PREDICTED.,$,$,'2028-01-01','2028-01-01');
#27=IFCWORKTIME('Good Friday',.PREDICTED.,$,$,'2028-04-14','2028-04-14');
#28=IFCWORKTIME('Easter',.PREDICTED.,$,$,'2028-04-16','2028-04-17');
#29=IFCWORKTIME('King''s Day',.PREDICTED.,$,$,'2028-04-27','2028-04-27');
#30=IFCWORKTIME('Liberation Day',.PREDICTED.,$,$,'2028-05-05','2028-05-05');
#31=IFCWORKTIME('Ascension Day',.PREDICTED.,$,$,'2028-05-25','2028-05-25');
#32=IFCWORKTIME('Whitsun',.PREDICTED.,$,$,'2028-06-04','2028-06-05');
#33=IFCWORKTIME('Christmas',.PREDICTED.,$,$,'2028-12-25','2028-12-26');
#34=IFCWORKTIME('Construction holiday (northern region)',.PREDICTED.,$,$,'2028-07-24','2028-08-13');
#35=IFCWORKCALENDAR('_HlbW$VPl1Yxnv_nBDbFBd',#6,'Infrastructure calendar Mon-Sat','Infrastructure/hydraulic works: Mon-Sat',$,(#16),(#17,#18,#19,#20,#21,#22,#23,#24,#25,#26,#27,#28,#29,#30,#31,#32,#33,#34),.FIRSTSHIFT.);
#36=IFCWORKPLAN('gTz9YN9fkrlrGhAlG1rnpD',#6,'Breda Railway Station Extension','Extension of the station concourse and an extra platform with underpass',$,$,'2026-07-28T13:22:48',$,$,$,$,$,'2027-03-01T07:00:00','2027-03-16T07:00:00',.PLANNED.);
#37=IFCWORKSCHEDULE('DBF5wZuPP7WlpFf$B9A9uJ',#6,'Bouwplanning v1.0',$,$,$,'2026-07-28T13:22:48',$,$,$,$,$,'2027-03-01T07:00:00','2027-03-16T07:00:00',.PLANNED.);
#38=IFCRELAGGREGATES('X$Ph9TPtbVDd8te$ftI1sz',#6,$,$,#36,(#37));
#39=IFCTASKTIME('1. Preparation Time',.PREDICTED.,$,.WORKTIME.,'P0Y0M5D','2027-03-01T07:00:00','2027-03-05T07:00:00','2027-03-01T07:00:00','2027-04-05T07:00:00','2027-03-01T07:00:00','2027-09-30T07:00:00','P0Y0M0D','P0Y0M0D',.T.,$,$,$,$,$,0.0);
#40=IFCTASK('b$npZN17_tIh_JbnejvRhj',#6,'1. Preparation',$,$,'1',$,$,$,.F.,$,#39,.CONSTRUCTION.);
#41=IFCTASKTIME('Phasing of rail traffic Time',.PREDICTED.,$,.WORKTIME.,'P0Y0M5D','2027-03-01T07:00:00','2027-03-05T07:00:00','2027-03-01T07:00:00','2027-03-05T07:00:00','2027-03-01T07:00:00','2027-03-05T07:00:00','P0Y0M0D','P0Y0M0D',.T.,$,$,$,$,$,0.0);
#42=IFCTASK('8DNJR$HvufLHPZ7$_tAtmH',#6,'Phasing of rail traffic',$,$,'1.1',$,$,$,.F.,$,#41,.ATTENDANCE.);
#43=IFCTASKTIME('Temporary platform facility Time',.PREDICTED.,$,.WORKTIME.,'P0Y0M8D','2027-03-01T07:00:00','2027-03-10T07:00:00','2027-03-06T07:00:00','2027-03-15T07:00:00','2027-09-03T07:00:00','2027-09-11T07:00:00','P0Y0M0D','P0Y0M131D',.F.,$,$,$,$,$,0.0);
#44=IFCTASK('rDvTSFiVnZwjAPc$gHxVOz',#6,'Temporary platform facility',$,$,'1.2',$,$,$,.F.,$,#43,.CONSTRUCTION.);
#45=IFCTASKTIME('Rail cables and pipes Time',.PREDICTED.,$,.WORKTIME.,'P0Y0M10D','2027-03-01T07:00:00','2027-03-12T07:00:00','2027-03-16T07:00:00','2027-03-27T07:00:00','2027-09-13T07:00:00','2027-09-23T07:00:00','P0Y0M0D','P0Y0M131D',.F.,$,$,$,$,$,0.0);
#46=IFCTASK('dXRlvB8PflLHRLYnDBjv7b',#6,'Rail cables and pipes',$,$,'1.3',$,$,$,.F.,$,#45,.INSTALLATION.);
#47=IFCTASKTIME('Set up site Time',.PREDICTED.,$,.WORKTIME.,'P0Y0M5D','2027-03-01T07:00:00','2027-03-05T07:00:00','2027-03-30T07:00:00','2027-04-03T07:00:00','2027-09-24T07:00:00','2027-09-29T07:00:00','P0Y0M0D','P0Y0M131D',.F.,$,$,$,$,$,0.0);
#48=IFCTASK('FLhHXfedjrJ7k50XF9gNsT',#6,'Set up site',$,$,'1.4',$,$,$,.F.,$,#47,.LOGISTIC.);
#49=IFCTASKTIME('Start of works Time',.PREDICTED.,$,.WORKTIME.,'P0Y0M0D','2027-03-01T07:00:00','2027-03-01T07:00:00','2027-04-05T07:00:00','2027-04-05T07:00:00','2027-09-30T07:00:00','2027-09-30T07:00:00','P0Y0M131D','P0Y0M131D',.F.,$,$,$,$,$,0.0);
#50=IFCTASK('zFjd$7ktXvjfbLcH5ljvDF',#6,'Start of works',$,$,'1.5',$,$,$,.T.,$,#49,.CONSTRUCTION.);
#51=IFCTASKTIME('2. Underpass Time',.PREDICTED.,$,.WORKTIME.,'P0Y0M5D','2027-03-01T07:00:00','2027-03-05T07:00:00','2027-03-17T07:00:00','2027-06-05T07:00:00','2027-03-17T07:00:00','2027-09-30T07:00:00','P0Y0M0D','P0Y0M0D',.T.,$,$,$,$,$,0.0);
#52=IFCTASK('5F1BlRB1GDMFb$XVCHR1gJ',#6,'2. Underpass',$,$,'2',$,$,$,.F.,$,#51,.CONSTRUCTION.);
#53=IFCTASKTIME('Sheet piling, tunnel Time',.PREDICTED.,$,.WORKTIME.,'P0Y0M12D','2027-03-01T07:00:00','2027-03-16T07:00:00','2027-03-17T07:00:00','2027-04-01T07:00:00','2027-03-17T07:00:00','2027-04-01T07:00:00','P0Y0M0D','P0Y0M0D',.T.,$,$,$,$,$,0.0);
#54=IFCTASK('q9QNuB09hDo7wJf1gnXRf3',#6,'Sheet piling, tunnel',$,$,'2.1',$,$,$,.F.,$,#53,.CONSTRUCTION.);
#55=IFCTASKTIME('Track possession, weekend 1 Time',.PREDICTED.,$,.WORKTIME.,'P0Y0M3D','2027-03-01T07:00:00','2027-03-03T07:00:00','2027-04-02T07:00:00','2027-04-05T07:00:00','2027-07-12T07:00:00','2027-07-14T07:00:00','P0Y0M0D','P0Y0M82D',.F.,$,$,$,$,$,0.0);
#56=IFCTASK('lN8XKf$vwH0Fp3RnuBarij',#6,'Track possession, weekend 1',$,$,'2.2',$,$,$,.F.,$,#55,.ATTENDANCE.);
#57=IFCTASKTIME('Excavate tunnel box Time',.PREDICTED.,$,.WORKTIME.,'P0Y0M10D','2027-03-01T07:00:00','2027-03-12T07:00:00','2027-04-06T07:00:00','2027-04-16T07:00:00','2027-07-15T07:00:00','2027-08-16T07:00:00','P0Y0M0D','P0Y0M82D',.F.,$,$,$,$,$,0.0);
#58=IFCTASK('2l1B7vP9zzcVo1v1wfs3Xd',#6,'Excavate tunnel box',$,$,'2.3',$,$,$,.F.,$,#57,.CONSTRUCTION.);
#59=IFCTASKTIME('Pour tunnel floor Time',.PREDICTED.,$,.WORKTIME.,'P0Y0M8D','2027-03-01T07:00:00','2027-03-10T07:00:00','2027-04-17T07:00:00','2027-04-26T07:00:00','2027-08-17T07:00:00','2027-08-25T07:00:00','P0Y0M0D','P0Y0M82D',.F.,$,$,$,$,$,0.0);
#60=IFCTASK('CNAZC779$L93$Lknex_r8D',#6,'Pour tunnel floor',$,$,'2.4',$,$,$,.F.,$,#59,.CONSTRUCTION.);
#61=IFCTASKTIME('Pour tunnel walls Time',.PREDICTED.,$,.WORKTIME.,'P0Y0M10D','2027-03-01T07:00:00','2027-03-12T07:00:00','2027-04-28T07:00:00','2027-05-11T07:00:00','2027-08-26T07:00:00','2027-09-06T07:00:00','P0Y0M0D','P0Y0M82D',.F.,$,$,$,$,$,0.0);
#62=IFCTASK('EBtD7Bmf0rFLYTrl5F$5VZ',#6,'Pour tunnel walls',$,$,'2.5',$,$,$,.F.,$,#61,.CONSTRUCTION.);
#63=IFCTASKTIME('Place precast tunnel roof Time',.PREDICTED.,$,.WORKTIME.,'P0Y0M5D','2027-03-01T07:00:00','2027-03-05T07:00:00','2027-05-12T07:00:00','2027-05-18T07:00:00','2027-09-07T07:00:00','2027-09-11T07:00:00','P0Y0M0D','P0Y0M82D',.F.,$,$,$,$,$,0.0);
#64=IFCTASK('ndgzMxHva$NTpHbFeDZfwR',#6,'Place precast tunnel roof',$,$,'2.6',$,$,$,.F.,$,#63,.CONSTRUCTION.);
#65=IFCTASKTIME('Track possession, weekend 2 Time',.PREDICTED.,$,.WORKTIME.,'P0Y0M3D','2027-03-01T07:00:00','2027-03-03T07:00:00','2027-05-19T07:00:00','2027-05-21T07:00:00','2027-09-13T07:00:00','2027-09-15T07:00:00','P0Y0M0D','P0Y0M82D',.F.,$,$,$,$,$,0.0);
#66=IFCTASK('O31ZiLBlfxV3ttSlVpULcl',#6,'Track possession, weekend 2',$,$,'2.7',$,$,$,.F.,$,#65,.ATTENDANCE.);
#67=IFCTASKTIME('Tunnel waterproofing Time',.PREDICTED.,$,.WORKTIME.,'P0Y0M8D','2027-03-01T07:00:00','2027-03-10T07:00:00','2027-05-22T07:00:00','2027-05-31T07:00:00','2027-09-16T07:00:00','2027-09-24T07:00:00','P0Y0M0D','P0Y0M82D',.F.,$,$,$,$,$,0.0);
#68=IFCTASK('4FPzslNfynNxT9SlJfkxzr',#6,'Tunnel waterproofing',$,$,'2.8',$,$,$,.F.,$,#67,.CONSTRUCTION.);
#69=IFCTASKTIME('Backfill over tunnel Time',.PREDICTED.,$,.WORKTIME.,'P0Y0M5D','2027-03-01T07:00:00','2027-03-05T07:00:00','2027-06-01T07:00:00','2027-06-05T07:00:00','2027-09-25T07:00:00','2027-09-30T07:00:00','P0Y0M82D','P0Y0M82D',.F.,$,$,$,$,$,0.0);
#70=IFCTASK('0FxXO3LHPPSrePM$Hvmtip',#6,'Backfill over tunnel',$,$,'2.9',$,$,$,.F.,$,#69,.LOGISTIC.);
#71=IFCTASKTIME('3. Platform structure Time',.PREDICTED.,$,.WORKTIME.,'P0Y0M5D','2027-03-01T07:00:00','2027-03-05T07:00:00','2027-03-23T07:00:00','2027-05-25T07:00:00','2027-03-23T07:00:00','2027-05-25T07:00:00','P0Y0M0D','P0Y0M0D',.T.,$,$,$,$,$,0.0);
#72=IFCTASK('LzljbVDnMRrFv$BldhG9yd',#6,'3. Platform structure',$,$,'3',$,$,$,.F.,$,#71,.CONSTRUCTION.);
#73=IFCTASKTIME('Prefab platform edges Time',.PREDICTED.,$,.WORKTIME.,'P0Y0M8D','2027-03-01T07:00:00','2027-03-10T07:00:00','2027-03-23T07:00:00','2027-04-02T07:00:00','2027-03-23T07:00:00','2027-04-02T07:00:00','P0Y0M0D','P0Y0M0D',.T.,$,$,$,$,$,0.0);
#74=IFCTASK('JNOH7hylvTibJjt$0veX8j',#6,'Prefab platform edges',$,$,'3.1',$,$,$,.F.,$,#73,.CONSTRUCTION.);
#75=IFCTASKTIME('Platform infill Time',.PREDICTED.,$,.WORKTIME.,'P0Y0M5D','2027-03-01T07:00:00','2027-03-05T07:00:00','2027-04-03T07:00:00','2027-04-08T07:00:00','2027-04-03T07:00:00','2027-04-08T07:00:00','P0Y0M0D','P0Y0M0D',.T.,$,$,$,$,$,0.0);
#76=IFCTASK('4FfjnhbnIrtzjDJFFNYhIv',#6,'Platform infill',$,$,'3.2',$,$,$,.F.,$,#75,.CONSTRUCTION.);
#77=IFCTASKTIME('Lay platform tiles Time',.PREDICTED.,$,.WORKTIME.,'P0Y0M8D','2027-03-01T07:00:00','2027-03-10T07:00:00','2027-04-09T07:00:00','2027-04-17T07:00:00','2027-04-09T07:00:00','2027-04-17T07:00:00','P0Y0M0D','P0Y0M0D',.T.,$,$,$,$,$,0.0);
#78=IFCTASK('QR8VuredBNslNxanRxcpax',#6,'Lay platform tiles',$,$,'3.3',$,$,$,.F.,$,#77,.CONSTRUCTION.);
#79=IFCTASKTIME('Steel canopy Time',.PREDICTED.,$,.WORKTIME.,'P0Y0M10D','2027-03-01T07:00:00','2027-03-12T07:00:00','2027-04-19T07:00:00','2027-04-30T07:00:00','2027-04-19T07:00:00','2027-04-30T07:00:00','P0Y0M0D','P0Y0M0D',.T.,$,$,$,$,$,0.0);
#80=IFCTASK('2DonHbjF897D0ZP$OJVDm1',#6,'Steel canopy',$,$,'3.4',$,$,$,.F.,$,#79,.CONSTRUCTION.);
#81=IFCTASKTIME('Glass canopy Time',.PREDICTED.,$,.WORKTIME.,'P0Y0M8D','2027-03-01T07:00:00','2027-03-10T07:00:00','2027-05-01T07:00:00','2027-05-12T07:00:00','2027-05-01T07:00:00','2027-05-12T07:00:00','P0Y0M0D','P0Y0M0D',.T.,$,$,$,$,$,0.0);
#82=IFCTASK('K5fbOR_FWbZd4N0VZT4L_z',#6,'Glass canopy',$,$,'3.5',$,$,$,.F.,$,#81,.CONSTRUCTION.);
#83=IFCTASKTIME('Install stairs and lifts Time',.PREDICTED.,$,.WORKTIME.,'P0Y0M10D','2027-03-01T07:00:00','2027-03-12T07:00:00','2027-05-13T07:00:00','2027-05-25T07:00:00','2027-05-13T07:00:00','2027-05-25T07:00:00','P0Y0M0D','P0Y0M0D',.T.,$,$,$,$,$,0.0);
#84=IFCTASK('X3aLhJ_nOv51qlxFUdazTf',#6,'Install stairs and lifts',$,$,'3.6',$,$,$,.F.,$,#83,.INSTALLATION.);
#85=IFCTASKTIME('4. Station concourse extension Time',.PREDICTED.,$,.WORKTIME.,'P0Y0M5D','2027-03-01T07:00:00','2027-03-05T07:00:00','2027-05-13T07:00:00','2027-06-23T07:00:00','2027-05-13T07:00:00','2027-06-23T07:00:00','P0Y0M0D','P0Y0M0D',.T.,$,$,$,$,$,0.0);
#86=IFCTASK('nLrnL9SlTV2tdFd$4vK5VT',#6,'4. Station concourse extension',$,$,'4',$,$,$,.F.,$,#85,.CONSTRUCTION.);
#87=IFCTASKTIME('Structural steel, hall Time',.PREDICTED.,$,.WORKTIME.,'P0Y0M12D','2027-03-01T07:00:00','2027-03-16T07:00:00','2027-05-13T07:00:00','2027-05-27T07:00:00','2027-05-13T07:00:00','2027-05-27T07:00:00','P0Y0M0D','P0Y0M0D',.T.,$,$,$,$,$,0.0);
#88=IFCTASK('_ps7RVTHJNzNXlv$XltBSb',#6,'Structural steel, hall',$,$,'4.1',$,$,$,.F.,$,#87,.CONSTRUCTION.);
#89=IFCTASKTIME('Glass facade and roof Time',.PREDICTED.,$,.WORKTIME.,'P0Y0M10D','2027-03-01T07:00:00','2027-03-12T07:00:00','2027-05-28T07:00:00','2027-06-08T07:00:00','2027-05-28T07:00:00','2027-06-08T07:00:00','P0Y0M0D','P0Y0M0D',.T.,$,$,$,$,$,0.0);
#90=IFCTASK('7FXh1PIlTjqxrjTlaxbnN1',#6,'Glass facade and roof',$,$,'4.2',$,$,$,.F.,$,#89,.INSTALLATION.);
#91=IFCTASKTIME('Natural stone flooring Time',.PREDICTED.,$,.WORKTIME.,'P0Y0M8D','2027-03-01T07:00:00','2027-03-10T07:00:00','2027-06-09T07:00:00','2027-06-17T07:00:00','2027-06-09T07:00:00','2027-06-17T07:00:00','P0Y0M0D','P0Y0M0D',.T.,$,$,$,$,$,0.0);
#92=IFCTASK('ZXDPxBnPfn7LAdM1fjXpS5',#6,'Natural stone flooring',$,$,'4.3',$,$,$,.F.,$,#91,.CONSTRUCTION.);
#93=IFCTASKTIME('Shopfronts Time',.PREDICTED.,$,.WORKTIME.,'P0Y0M5D','2027-03-01T07:00:00','2027-03-05T07:00:00','2027-06-18T07:00:00','2027-06-23T07:00:00','2027-06-18T07:00:00','2027-06-23T07:00:00','P0Y0M0D','P0Y0M0D',.T.,$,$,$,$,$,0.0);
#94=IFCTASK('1jcjrdwXxbrn5HFXZTa3PB',#6,'Shopfronts',$,$,'4.4',$,$,$,.F.,$,#93,.INSTALLATION.);
#95=IFCTASKTIME('5. Building services Time',.PREDICTED.,$,.WORKTIME.,'P0Y0M5D','2027-03-01T07:00:00','2027-03-05T07:00:00','2027-06-24T07:00:00','2027-08-28T07:00:00','2027-06-24T07:00:00','2027-09-30T07:00:00','P0Y0M0D','P0Y0M0D',.T.,$,$,$,$,$,0.0);
#96=IFCTASK('G9CxAlnPhpsld3hFzFxH1N',#6,'5. Building services',$,$,'5',$,$,$,.F.,$,#95,.INSTALLATION.);
#97=IFCTASKTIME('Platform power and lighting Time',.PREDICTED.,$,.WORKTIME.,'P0Y0M8D','2027-03-01T07:00:00','2027-03-10T07:00:00','2027-06-24T07:00:00','2027-07-02T07:00:00','2027-06-24T07:00:00','2027-07-02T07:00:00','P0Y0M0D','P0Y0M0D',.T.,$,$,$,$,$,0.0);
#98=IFCTASK('TTG7TR2FifUf55mXm$j7HH',#6,'Platform power and lighting',$,$,'5.1',$,$,$,.F.,$,#97,.INSTALLATION.);
#99=IFCTASKTIME('Passenger information systems Time',.PREDICTED.,$,.WORKTIME.,'P0Y0M5D','2027-03-01T07:00:00','2027-03-05T07:00:00','2027-07-03T07:00:00','2027-07-08T07:00:00','2027-08-26T07:00:00','2027-08-31T07:00:00','P0Y0M0D','P0Y0M28D',.F.,$,$,$,$,$,0.0);
#100=IFCTASK('6LwpzdpnYv8vcFXVyhfTvt',#6,'Passenger information systems',$,$,'5.2',$,$,$,.F.,$,#99,.INSTALLATION.);
#101=IFCTASKTIME('Install escalators Time',.PREDICTED.,$,.WORKTIME.,'P0Y0M10D','2027-03-01T07:00:00','2027-03-12T07:00:00','2027-07-09T07:00:00','2027-07-20T07:00:00','2027-09-01T07:00:00','2027-09-11T07:00:00','P0Y0M0D','P0Y0M28D',.F.,$,$,$,$,$,0.0);
#102=IFCTASK('a3ijVJIlB9AZZNe1m15Xat',#6,'Install escalators',$,$,'5.3',$,$,$,.F.,$,#101,.INSTALLATION.);
#103=IFCTASKTIME('Public address system Time',.PREDICTED.,$,.WORKTIME.,'P0Y0M3D','2027-03-01T07:00:00','2027-03-03T07:00:00','2027-07-21T07:00:00','2027-07-23T07:00:00','2027-09-13T07:00:00','2027-09-15T07:00:00','P0Y0M0D','P0Y0M28D',.F.,$,$,$,$,$,0.0);
#104=IFCTASK('KxV3shz$4RJN3dUXr9c77x',#6,'Public address system',$,$,'5.4',$,$,$,.F.,$,#103,.INSTALLATION.);
#105=IFCTASKTIME('CCTV and security Time',.PREDICTED.,$,.WORKTIME.,'P0Y0M5D','2027-03-01T07:00:00','2027-03-05T07:00:00','2027-07-24T07:00:00','2027-08-19T07:00:00','2027-09-16T07:00:00','2027-09-21T07:00:00','P0Y0M0D','P0Y0M28D',.F.,$,$,$,$,$,0.0);
#106=IFCTASK('2Fztg5tN4H5$qH5nwpjvZ9',#6,'CCTV and security',$,$,'5.5',$,$,$,.F.,$,#105,.INSTALLATION.);
#107=IFCTASKTIME('HVAC installation, hall Time',.PREDICTED.,$,.WORKTIME.,'P0Y0M8D','2027-03-01T07:00:00','2027-03-10T07:00:00','2027-08-20T07:00:00','2027-08-28T07:00:00','2027-09-22T07:00:00','2027-09-30T07:00:00','P0Y0M28D','P0Y0M28D',.F.,$,$,$,$,$,0.0);
#108=IFCTASK('s9klfpnv_TqZT9KFoj6Pvf',#6,'HVAC installation, hall',$,$,'5.6',$,$,$,.F.,$,#107,.INSTALLATION.);
#109=IFCTASKTIME('6. Track & finishing Time',.PREDICTED.,$,.WORKTIME.,'P0Y0M5D','2027-03-01T07:00:00','2027-03-05T07:00:00','2027-07-17T07:00:00','2027-09-17T07:00:00','2027-07-17T07:00:00','2027-09-17T07:00:00','P0Y0M0D','P0Y0M0D',.T.,$,$,$,$,$,0.0);
#110=IFCTASK('8jjPTNNN8XUNdZf$NpDPHr',#6,'6. Track & finishing',$,$,'6',$,$,$,.F.,$,#109,.CONSTRUCTION.);
#111=IFCTASKTIME('Lay track at new platform Time',.PREDICTED.,$,.WORKTIME.,'P0Y0M10D','2027-03-01T07:00:00','2027-03-12T07:00:00','2027-07-17T07:00:00','2027-08-18T07:00:00','2027-07-17T07:00:00','2027-08-18T07:00:00','P0Y0M0D','P0Y0M0D',.T.,$,$,$,$,$,0.0);
#112=IFCTASK('P$txArV7q3o7U981QdeHNz',#6,'Lay track at new platform',$,$,'6.1',$,$,$,.F.,$,#111,.CONSTRUCTION.);
#113=IFCTASKTIME('Overhead line portals Time',.PREDICTED.,$,.WORKTIME.,'P0Y0M8D','2027-03-01T07:00:00','2027-03-10T07:00:00','2027-08-19T07:00:00','2027-08-27T07:00:00','2027-08-19T07:00:00','2027-08-27T07:00:00','P0Y0M0D','P0Y0M0D',.T.,$,$,$,$,$,0.0);
#114=IFCTASK('_JcjnrV7e7RXUtmXEDcpS5',#6,'Overhead line portals',$,$,'6.2',$,$,$,.F.,$,#113,.INSTALLATION.);
#115=IFCTASKTIME('Overhead line commissioning Time',.PREDICTED.,$,.WORKTIME.,'P0Y0M5D','2027-03-01T07:00:00','2027-03-05T07:00:00','2027-08-28T07:00:00','2027-09-02T07:00:00','2027-08-28T07:00:00','2027-09-02T07:00:00','P0Y0M0D','P0Y0M0D',.T.,$,$,$,$,$,0.0);
#116=IFCTASK('2j_rzrmNutXbv$rlHPixf$',#6,'Overhead line commissioning',$,$,'6.3',$,$,$,.F.,$,#115,.INSTALLATION.);
#117=IFCTASKTIME('Signalling and safety systems Time',.PREDICTED.,$,.WORKTIME.,'P0Y0M5D','2027-03-01T07:00:00','2027-03-05T07:00:00','2027-09-03T07:00:00','2027-09-08T07:00:00','2027-09-03T07:00:00','2027-09-08T07:00:00','P0Y0M0D','P0Y0M0D',.T.,$,$,$,$,$,0.0);
#118=IFCTASK('DdgzgRbXVbZPWDpnBDhViV',#6,'Signalling and safety systems',$,$,'6.4',$,$,$,.F.,$,#117,.INSTALLATION.);
#119=IFCTASKTIME('Painting and finishing Time',.PREDICTED.,$,.WORKTIME.,'P0Y0M8D','2027-03-01T07:00:00','2027-03-10T07:00:00','2027-09-09T07:00:00','2027-09-17T07:00:00','2027-09-09T07:00:00','2027-09-17T07:00:00','P0Y0M0D','P0Y0M0D',.T.,$,$,$,$,$,0.0);
#120=IFCTASK('SZ09UNffKJyLML6H9vqbZN',#6,'Painting and finishing',$,$,'6.5',$,$,$,.F.,$,#119,.CONSTRUCTION.);
#121=IFCTASKTIME('7. Handover Time',.PREDICTED.,$,.WORKTIME.,'P0Y0M5D','2027-03-01T07:00:00','2027-03-05T07:00:00','2027-09-18T07:00:00','2027-09-30T07:00:00','2027-09-18T07:00:00','2027-09-30T07:00:00','P0Y0M0D','P0Y0M0D',.T.,$,$,$,$,$,0.0);
#122=IFCTASK('Z$fbq7$PBT4LE$f1xlrn79',#6,'7. Handover',$,$,'7',$,$,$,.F.,$,#121,.CONSTRUCTION.);
#123=IFCTASKTIME('Platform trial operation Time',.PREDICTED.,$,.WORKTIME.,'P0Y0M5D','2027-03-01T07:00:00','2027-03-05T07:00:00','2027-09-18T07:00:00','2027-09-23T07:00:00','2027-09-18T07:00:00','2027-09-23T07:00:00','P0Y0M0D','P0Y0M0D',.T.,$,$,$,$,$,0.0);
#124=IFCTASK('TZe$Ub2n0rFLQZt$pvGNYH',#6,'Platform trial operation',$,$,'7.1',$,$,$,.F.,$,#123,.ATTENDANCE.);
#125=IFCTASKTIME('Remove temporary facilities Time',.PREDICTED.,$,.WORKTIME.,'P0Y0M5D','2027-03-01T07:00:00','2027-03-05T07:00:00','2027-09-24T07:00:00','2027-09-29T07:00:00','2027-09-24T07:00:00','2027-09-29T07:00:00','P0Y0M0D','P0Y0M0D',.T.,$,$,$,$,$,0.0);
#126=IFCTASK('T34T43a$oH514TxluThlzv',#6,'Remove temporary facilities',$,$,'7.2',$,$,$,.F.,$,#125,.DEMOLITION.);
#127=IFCTASKTIME('Station in service Time',.PREDICTED.,$,.WORKTIME.,'P0Y0M0D','2027-03-01T07:00:00','2027-03-01T07:00:00','2027-09-30T07:00:00','2027-09-30T07:00:00','2027-09-30T07:00:00','2027-09-30T07:00:00','P0Y0M0D','P0Y0M0D',.T.,$,$,$,$,$,0.0);
#128=IFCTASK('3llbKtz1ufBF71pnv1HzlF',#6,'Station in service',$,$,'7.3',$,$,$,.T.,$,#127,.CONSTRUCTION.);
#129=IFCRELNESTS('Y3a36zqFq3o7clDHXDcpeh',#6,'WBS 1. Preparation',$,#40,( #42,#44,#46,#48,#50));
#130=IFCRELNESTS('2pQNORM1c$or8lXVwJlzhp',#6,'WBS 2. Underpass',$,#52,( #54,#56,#58,#60,#62,#64,#66,#68,#70));
#131=IFCRELNESTS('a$t5g5ffsht3nDlXBpTf_3',#6,'WBS 3. Platform structure',$,#72,( #74,#76,#78,#80,#82,#84));
#132=IFCRELNESTS('8pnxw3KF2z0FTrUV3Jk$s3',#6,'WBS 4. Station concourse extension',$,#86,( #88,#90,#92,#94));
#133=IFCRELNESTS('tjp79Vol1BZ9v1znqZCR5r',#6,'WBS 5. Building services',$,#96,( #98,#100,#102,#104,#106,#108));
#134=IFCRELNESTS('$lNJjTdtpbx$yz7$B9gNwb',#6,'WBS 6. Track & finishing',$,#110,( #112,#114,#116,#118,#120));
#135=IFCRELNESTS('azyZqx1dpPHJUNyHfjNhsv',#6,'WBS 7. Handover',$,#122,( #124,#126,#128));
#136=IFCRELNESTS('tjjP5r1vgdnD4TBHzDgTrv',#6,'WBS Hoofd',$,#37,(#40,#52,#72,#86,#96,#110,#122));
#137=IFCRELSEQUENCE('2lPzsHlPTJ4pyTznqZ4LIv',#6,$,$,#42,#44,$,.FINISH_START.,$);
#138=IFCRELSEQUENCE('P1dhPRUnALlBGhon6DB$M9',#6,$,$,#44,#46,$,.FINISH_START.,$);
#139=IFCRELSEQUENCE('8DVLFnhHBTibz5aF3lFTRV',#6,$,$,#46,#48,$,.FINISH_START.,$);
#140=IFCRELSEQUENCE('gzHjbVpncDWHVHHXpv8nh9',#6,$,$,#48,#50,$,.FINISH_START.,$);
#141=IFCRELSEQUENCE('p7w9g5n7El372vQHh7SB8R',#6,$,$,#54,#56,$,.FINISH_START.,$);
#142=IFCRELSEQUENCE('lNmvjTndXRrnDTt$ZV93Bz',#6,$,$,#56,#58,$,.FINISH_START.,$);
#143=IFCRELSEQUENCE('INmdPbYFYD6$GR0V5lpP$j',#6,$,$,#58,#60,$,.FINISH_START.,$);
#144=IFCRELSEQUENCE('qfQJT5gdhjoButWVjNwJob',#6,$,$,#60,#62,$,.FINISH_START.,$);
#145=IFCRELSEQUENCE('YVpP7LS$UpIdKVN$oj_lVP',#6,$,$,#62,#64,$,.FINISH_START.,$);
#146=IFCRELSEQUENCE('ADlR0Hdt$Nj7ohoFcd0vj1',#6,$,$,#64,#66,$,.FINISH_START.,$);
#147=IFCRELSEQUENCE('Pb8nHb3lxH37_JhF3FTNMD',#6,$,$,#66,#68,$,.FINISH_START.,$);
#148=IFCRELSEQUENCE('P5CDZffNCz_9D35nMl3fcn',#6,$,$,#68,#70,$,.FINISH_START.,$);
#149=IFCRELSEQUENCE('7hIxIlmfSBzNTNu1vb6PpD',#6,$,$,#74,#76,$,.FINISH_START.,$);
#150=IFCRELSEQUENCE('gZrXW1d9$9lrKVf$Qz7pWv',#6,$,$,#76,#78,$,.FINISH_START.,$);
#151=IFCRELSEQUENCE('aVBV8Jr$CPaJsvAHWtgfUl',#6,$,$,#78,#80,$,.FINISH_START.,$);
#152=IFCRELSEQUENCE('QbOlbRzHhvm$8FZFYv079p',#6,$,$,#80,#82,$,.FINISH_START.,$);
#153=IFCRELSEQUENCE('Tz4ZC7v9fnlJ2Ps$PlzNs7',#6,$,$,#82,#84,$,.FINISH_START.,$);
#154=IFCRELSEQUENCE('8rsv7PJF8Xovsv6ltP0vJ$',#6,$,$,#88,#90,$,.FINISH_START.,$);
#155=IFCRELSEQUENCE('PROlH1P9b$$5ZtyH3j6PvN',#6,$,$,#90,#92,$,.FINISH_START.,$);
#156=IFCRELSEQUENCE('oBNJrd2FyHD9l3nVbXDPzL',#6,$,$,#92,#94,$,.FINISH_START.,$);
#157=IFCRELSEQUENCE('BptD176v2tsZ$$1V_5hXeh',#6,$,$,#98,#100,$,.FINISH_START.,$);
#158=IFCRELSEQUENCE('6L_r7vfNoF$Tl9O$Z1zNgf',#6,$,$,#100,#102,$,.FINISH_START.,$);
#159=IFCRELSEQUENCE('iRZfihxFqParKR4HDhvp0N',#6,$,$,#102,#104,$,.FINISH_START.,$);
#160=IFCRELSEQUENCE('KbBVexQ7SLHr8N4HPhGfsT',#6,$,$,#104,#106,$,.FINISH_START.,$);
#161=IFCRELSEQUENCE('DhBFtX2FufLHn7QHVlP5PP',#6,$,$,#106,#108,$,.FINISH_START.,$);
#162=IFCRELSEQUENCE('tjjPd5gdDd1Th39$exI5jZ',#6,$,$,#112,#114,$,.FINISH_START.,$);
#163=IFCRELSEQUENCE('ursv3LaHrTCTDHbF0d4hgD',#6,$,$,#114,#116,$,.FINISH_START.,$);
#164=IFCRELSEQUENCE('qBFxU5k9N5lj6jnXxHjvfT',#6,$,$,#116,#118,$,.FINISH_START.,$);
#165=IFCRELSEQUENCE('V17rjZFdfFHjE$7$2bd53L',#6,$,$,#118,#120,$,.FINISH_START.,$);
#166=IFCRELSEQUENCE('9j3tE$67stnh6j9$Oj1jEx',#6,$,$,#124,#126,$,.FINISH_START.,$);
#167=IFCRELSEQUENCE('nBd3gXL1wHm$SD1X_tUF$p',#6,$,$,#126,#128,$,.FINISH_START.,$);
#168=IFCLAGTIME('Lag',.PREDICTED.,$,IFCDURATION('P14D'),.WORKTIME.);
#169=IFCRELSEQUENCE('5rIHDHGfijajErUVJR1Jgp',#6,$,$,#42,#54,#168,.START_START.,$);
#170=IFCLAGTIME('Lag',.PREDICTED.,$,IFCRATIOMEASURE(0.4),.WORKTIME.);
#171=IFCRELSEQUENCE('TVz9U5YfC7m1aJbFuZJvNZ',#6,$,$,#54,#74,#170,.START_START.,$);
#172=IFCLAGTIME('Lag',.PREDICTED.,$,IFCDURATION('-P10D'),.WORKTIME.);
#173=IFCRELSEQUENCE('wHBndftfkBfZ5RynVnTfMj',#6,$,$,#84,#88,#172,.FINISH_START.,$);
#174=IFCLAGTIME('Lag',.PREDICTED.,$,IFCDURATION('P2D'),.WORKTIME.);
#175=IFCRELSEQUENCE('8pdzg$7t9XLHvJP1zHFZPd',#6,$,$,#84,#94,#174,.FINISH_FINISH.,$);
#176=IFCRELSEQUENCE('bXxnLN09nZ2blTblMHrnvt',#6,$,$,#94,#98,$,.FINISH_START.,$);
#177=IFCLAGTIME('Lag',.PREDICTED.,$,IFCDURATION('P20D'),.WORKTIME.);
#178=IFCRELSEQUENCE('9jrnfFKFwnyLY3d$DPCpuj',#6,$,$,#98,#112,#177,.START_START.,$);
#179=IFCRELSEQUENCE('wLEbSJcVJrhHZN8$UBrFfV',#6,$,$,#120,#124,$,.FINISH_START.,$);
#180=IFCRELASSIGNSTOCONTROL('rDVhNjbXHjyDCF$VkTSruD',#6,$,$,(#40,#42,#44,#46,#48,#50,#52,#54,#56,#58,#60,#62,#64,#66,#68,#70,#72,#74,#76,#78,#80,#82,#84,#86,#88,#90,#92,#94,#96,#98,#100,#102,#104,#106,#108,#110,#112,#114,#116,#118,#120,#122,#124,#126,#128),$,#37);
#181=IFCPROPERTYSINGLEVALUE('wbsAutoNumber',$,IFCBOOLEAN(.T.),$);
#182=IFCPROPERTYSINGLEVALUE('ProjectStartDate',$,IFCDATE('2027-03-01'),$);
#183=IFCPROPERTYSINGLEVALUE('ProjectEndDate',$,$,$);
#184=IFCPROPERTYSINGLEVALUE('CreatedAt',$,IFCTEXT('2026-07-28T13:22:48.710Z'),$);
#185=IFCPROPERTYSINGLEVALUE('ModifiedAt',$,IFCTEXT('2026-07-28T13:22:48.711Z'),$);
#186=IFCPROPERTYSET('e5a3ArlP$tNZvpDF1ZK5n5',#6,'OPS_ProjectSettings',$,(#181,#182,#183,#184,#185));
#187=IFCRELDEFINESBYPROPERTIES('0Hdzo1sPJhdjQlBF$1BF9l',#6,$,$,(#13),#186);
#188=IFCPROPERTYSINGLEVALUE('MilestoneKind',$,IFCLABEL('START'),$);
#189=IFCPROPERTYSET('NviJBvsdD5NxLZJnbVLXW7',#6,'OPS_Milestone',$,(#188));
#190=IFCRELDEFINESBYPROPERTIES('m7cfmNO74brnpTP1WNobBZ',#6,$,$,(#50),#189);
ENDSEC;
END-ISO-10303-21;
