ISO-10303-21;
HEADER;
FILE_DESCRIPTION(('ViewDefinition [SchedulingView]'),'2;1');
FILE_NAME('New-Build Primary School (Integrated Child Centre).ifc','2026-08-14T08:19:55',('Femke Onderwijs'),('School Construction West BV'),'Open Planner Studio 0.1','Open Planner Studio','');
FILE_SCHEMA(('IFC4X3'));
ENDSEC;
DATA;
#1=IFCPERSON($,'Femke Onderwijs',$,$,$,$,$,$);
#2=IFCORGANIZATION($,'School Construction West BV',$,$,$);
#3=IFCPERSONANDORGANIZATION(#1,#2,$);
#4=IFCORGANIZATION($,'OpenAEC Foundation',$,$,$);
#5=IFCAPPLICATION(#4,'0.1','Open Planner Studio','OPS');
#6=IFCOWNERHISTORY(#3,#5,$,.NOCHANGE.,$,$,$,1786695595);
#7=IFCSIUNIT(*,.LENGTHUNIT.,$,.METRE.);
#8=IFCSIUNIT(*,.TIMEUNIT.,$,.SECOND.);
#9=IFCUNITASSIGNMENT((#7,#8));
#10=IFCCARTESIANPOINT((0.,0.,0.));
#11=IFCAXIS2PLACEMENT3D(#10,$,$);
#12=IFCGEOMETRICREPRESENTATIONCONTEXT($,'Plan',3,1.0E-05,#11,$);
#13=IFCPROJECT('vn1BRVJn8NhlNx4nR$lz7b',#6,'New-Build Primary School (Integrated Child Centre)','Integrated child centre with school, after-school care and day care',$,$,$,(#12),#9);
#14=IFCTIMEPERIOD('07:00:00','16:00:00');
#15=IFCRECURRENCEPATTERN(.WEEKLY.,$,(1,2,3,4,5),$,$,$,$,(#14));
#16=IFCWORKTIME('Standard work week',.PREDICTED.,$,#15,$,$);
#17=IFCWORKTIME('New Year''s Day',.PREDICTED.,$,$,'2027-01-01','2027-01-01');
#18=IFCWORKTIME('Good Friday',.PREDICTED.,$,$,'2027-03-26','2027-03-26');
#19=IFCWORKTIME('Easter',.PREDICTED.,$,$,'2027-03-28','2027-03-29');
#20=IFCWORKTIME('King''s Day',.PREDICTED.,$,$,'2027-04-27','2027-04-27');
#21=IFCWORKTIME('Liberation Day',.PREDICTED.,$,$,'2027-05-05','2027-05-05');
#22=IFCWORKTIME('Ascension Day',.PREDICTED.,$,$,'2027-05-06','2027-05-06');
#23=IFCWORKTIME('Whitsun',.PREDICTED.,$,$,'2027-05-16','2027-05-17');
#24=IFCWORKTIME('Christmas',.PREDICTED.,$,$,'2027-12-25','2027-12-26');
#25=IFCWORKTIME('Construction holiday (northern region)',.PREDICTED.,$,$,'2027-07-26','2027-08-15');
#26=IFCWORKTIME('New Year''s Day',.PREDICTED.,$,$,'2028-01-01','2028-01-01');
#27=IFCWORKTIME('Good Friday',.PREDICTED.,$,$,'2028-04-14','2028-04-14');
#28=IFCWORKTIME('Easter',.PREDICTED.,$,$,'2028-04-16','2028-04-17');
#29=IFCWORKTIME('King''s Day',.PREDICTED.,$,$,'2028-04-27','2028-04-27');
#30=IFCWORKTIME('Liberation Day',.PREDICTED.,$,$,'2028-05-05','2028-05-05');
#31=IFCWORKTIME('Ascension Day',.PREDICTED.,$,$,'2028-05-25','2028-05-25');
#32=IFCWORKTIME('Whitsun',.PREDICTED.,$,$,'2028-06-04','2028-06-05');
#33=IFCWORKTIME('Christmas',.PREDICTED.,$,$,'2028-12-25','2028-12-26');
#34=IFCWORKTIME('Construction holiday (northern region)',.PREDICTED.,$,$,'2028-07-24','2028-08-13');
#35=IFCWORKCALENDAR('_HlbW$VPl1Yxnv_nBDbFBd',#6,'Construction calendar NL','Standard construction calendar: Mon-Fri 07:00-16:00',$,(#16),(#17,#18,#19,#20,#21,#22,#23,#24,#25,#26,#27,#28,#29,#30,#31,#32,#33,#34),.FIRSTSHIFT.);
#36=IFCWORKPLAN('H9iJpp9fGTSr4ZJnJ5LVi$',#6,'New-Build Primary School (Integrated Child Centre)','Integrated child centre with school, after-school care and day care',$,$,'2026-08-14T08:19:55',$,$,$,$,$,'2027-03-01T07:00:00','2027-03-16T07:00:00',.PLANNED.);
#37=IFCWORKSCHEDULE('qtoF3hqn4lx1KRaFrjVDSt',#6,'Construction schedule v1.0',$,$,$,'2026-08-14T08:19:55',$,$,$,$,$,'2027-03-01T07:00:00','2027-03-16T07:00:00',.PLANNED.);
#38=IFCRELAGGREGATES('X$Ph9TPtbVDd8te$ftI1sz',#6,$,$,#36,(#37));
#39=IFCTASKTIME('1. Preparation Time',.PREDICTED.,$,.WORKTIME.,'P0Y0M5D','2027-03-01T07:00:00','2027-03-05T07:00:00','2027-03-01T07:00:00','2027-03-11T07:00:00','2027-03-01T07:00:00','2027-10-15T07:00:00','P0Y0M0D','P0Y0M0D',.T.,$,$,$,$,$,0.0);
#40=IFCTASK('RxS3E1MPnZErWprlTzu$Mf',#6,'1. Preparation',$,$,'1',$,$,$,.F.,$,#39,.CONSTRUCTION.);
#41=IFCTASKTIME('Prepare construction site Time',.PREDICTED.,$,.WORKTIME.,'P0Y0M5D','2027-03-01T07:00:00','2027-03-05T07:00:00','2027-03-01T07:00:00','2027-03-05T07:00:00','2027-03-01T07:00:00','2027-03-05T07:00:00','P0Y0M0D','P0Y0M0D',.T.,$,$,$,$,$,0.0);
#42=IFCTASK('b$Nb4VolbLJ7I5mXcduFlL',#6,'Prepare construction site',$,$,'1.1',$,$,$,.F.,$,#41,.CONSTRUCTION.);
#43=IFCTASKTIME('Set up site Time',.PREDICTED.,$,.WORKTIME.,'P0Y0M3D','2027-03-01T07:00:00','2027-03-03T07:00:00','2027-03-08T07:00:00','2027-03-10T07:00:00','2027-10-12T07:00:00','2027-10-14T07:00:00','P0Y0M0D','P0Y0M135D',.F.,$,$,$,$,$,0.0);
#44=IFCTASK('qB1BBvYNijCTLTTn2tYFxl',#6,'Set up site',$,$,'1.2',$,$,$,.F.,$,#43,.LOGISTIC.);
#45=IFCTASKTIME('Start of construction Time',.PREDICTED.,$,.WORKTIME.,'P0Y0M0D','2027-03-01T07:00:00','2027-03-01T07:00:00','2027-03-11T07:00:00','2027-03-11T07:00:00','2027-10-15T07:00:00','2027-10-15T07:00:00','P0Y0M135D','P0Y0M135D',.F.,$,$,$,$,$,0.0);
#46=IFCTASK('LZxn77VdxHBFTh_F$zWPP7',#6,'Start of construction',$,$,'1.3',$,$,$,.T.,$,#45,.CONSTRUCTION.);
#47=IFCTASKTIME('2. Foundations Time',.PREDICTED.,$,.WORKTIME.,'P0Y0M5D','2027-03-01T07:00:00','2027-03-05T07:00:00','2027-03-05T07:00:00','2027-04-15T07:00:00','2027-03-05T07:00:00','2027-10-15T07:00:00','P0Y0M0D','P0Y0M0D',.T.,$,$,$,$,$,0.0);
#48=IFCTASK('AJ5VSnqXTJq51$$VMlpPFx',#6,'2. Foundations',$,$,'2',$,$,$,.F.,$,#47,.CONSTRUCTION.);
#49=IFCTASKTIME('Pile driving, foundation piles Time',.PREDICTED.,$,.WORKTIME.,'P0Y0M10D','2027-03-01T07:00:00','2027-03-12T07:00:00','2027-03-05T07:00:00','2027-03-18T07:00:00','2027-03-05T07:00:00','2027-03-18T07:00:00','P0Y0M0D','P0Y0M0D',.T.,$,$,$,$,$,0.0);
#50=IFCTASK('tfcjpjr$mzOPWJXVAboXO3',#6,'Pile driving, foundation piles',$,$,'2.1',$,$,$,.F.,$,#49,.CONSTRUCTION.);
#51=IFCTASKTIME('Foundation beams and pile caps Time',.PREDICTED.,$,.WORKTIME.,'P0Y0M8D','2027-03-01T07:00:00','2027-03-10T07:00:00','2027-03-19T07:00:00','2027-04-01T07:00:00','2027-09-22T07:00:00','2027-10-01T07:00:00','P0Y0M0D','P0Y0M112D',.F.,$,$,$,$,$,0.0);
#52=IFCTASK('bRWfyzKns9HBWjf$MnNTzh',#6,'Foundation beams and pile caps',$,$,'2.2',$,$,$,.F.,$,#51,.CONSTRUCTION.);
#53=IFCTASKTIME('Below-slab drainage Time',.PREDICTED.,$,.WORKTIME.,'P0Y0M5D','2027-03-01T07:00:00','2027-03-05T07:00:00','2027-04-02T07:00:00','2027-04-08T07:00:00','2027-10-04T07:00:00','2027-10-08T07:00:00','P0Y0M0D','P0Y0M112D',.F.,$,$,$,$,$,0.0);
#54=IFCTASK('vn1Bnh5FKt2RrdYXRVxlpF',#6,'Below-slab drainage',$,$,'2.3',$,$,$,.F.,$,#53,.INSTALLATION.);
#55=IFCTASKTIME('Pour ground floor slab Time',.PREDICTED.,$,.WORKTIME.,'P0Y0M5D','2027-03-01T07:00:00','2027-03-05T07:00:00','2027-04-09T07:00:00','2027-04-15T07:00:00','2027-10-11T07:00:00','2027-10-15T07:00:00','P0Y0M112D','P0Y0M112D',.F.,$,$,$,$,$,0.0);
#56=IFCTASK('SZ8nd95Fq7uN9LongHxViJ',#6,'Pour ground floor slab',$,$,'2.4',$,$,$,.F.,$,#55,.CONSTRUCTION.);
#57=IFCTASKTIME('3. Structural works Time',.PREDICTED.,$,.WORKTIME.,'P0Y0M5D','2027-03-01T07:00:00','2027-03-05T07:00:00','2027-03-11T07:00:00','2027-05-18T07:00:00','2027-03-11T07:00:00','2027-10-15T07:00:00','P0Y0M0D','P0Y0M0D',.T.,$,$,$,$,$,0.0);
#58=IFCTASK('X$txMRpnoHbXcZd1eJ$jA7',#6,'3. Structural works',$,$,'3',$,$,$,.F.,$,#57,.CONSTRUCTION.);
#59=IFCTASKTIME('Ground floor masonry Time',.PREDICTED.,$,.WORKTIME.,'P0Y0M12D','2027-03-01T07:00:00','2027-03-16T07:00:00','2027-03-11T07:00:00','2027-03-30T07:00:00','2027-03-11T07:00:00','2027-03-30T07:00:00','P0Y0M0D','P0Y0M0D',.T.,$,$,$,$,$,0.0);
#60=IFCTASK('Btwt2LCFKtUx7DpnHrJvZ9',#6,'Ground floor masonry',$,$,'3.1',$,$,$,.F.,$,#59,.CONSTRUCTION.);
#61=IFCTASKTIME('Precast upper floor slab Time',.PREDICTED.,$,.WORKTIME.,'P0Y0M5D','2027-03-01T07:00:00','2027-03-05T07:00:00','2027-03-31T07:00:00','2027-04-06T07:00:00','2027-03-31T07:00:00','2027-04-06T07:00:00','P0Y0M0D','P0Y0M0D',.T.,$,$,$,$,$,0.0);
#62=IFCTASK('fvC5gRB$4bjNz7Inij2lRb',#6,'Precast upper floor slab',$,$,'3.2',$,$,$,.F.,$,#61,.CONSTRUCTION.);
#63=IFCTASKTIME('Upper floor masonry Time',.PREDICTED.,$,.WORKTIME.,'P0Y0M10D','2027-03-01T07:00:00','2027-03-12T07:00:00','2027-04-07T07:00:00','2027-04-20T07:00:00','2027-04-07T07:00:00','2027-04-20T07:00:00','P0Y0M0D','P0Y0M0D',.T.,$,$,$,$,$,0.0);
#64=IFCTASK('ZVbHb5tNWx7LARmX_9At4h',#6,'Upper floor masonry',$,$,'3.3',$,$,$,.F.,$,#63,.CONSTRUCTION.);
#65=IFCTASKTIME('CLT roof structure Time',.PREDICTED.,$,.WORKTIME.,'P0Y0M8D','2027-03-01T07:00:00','2027-03-10T07:00:00','2027-04-21T07:00:00','2027-05-03T07:00:00','2027-04-21T07:00:00','2027-05-03T07:00:00','P0Y0M0D','P0Y0M0D',.T.,$,$,$,$,$,0.0);
#66=IFCTASK('md6DDlWtX7x$4NO$xLm90N',#6,'CLT roof structure',$,$,'3.4',$,$,$,.F.,$,#65,.CONSTRUCTION.);
#67=IFCTASKTIME('EPDM roofing Time',.PREDICTED.,$,.WORKTIME.,'P0Y0M5D','2027-03-01T07:00:00','2027-03-05T07:00:00','2027-05-04T07:00:00','2027-05-12T07:00:00','2027-05-04T07:00:00','2027-05-12T07:00:00','P0Y0M0D','P0Y0M0D',.T.,$,$,$,$,$,0.0);
#68=IFCTASK('a3qpZNnd5bD9DzrFhdu$k7',#6,'EPDM roofing',$,$,'3.5',$,$,$,.F.,$,#67,.CONSTRUCTION.);
#69=IFCTASKTIME('Install sedum roof Time',.PREDICTED.,$,.WORKTIME.,'P0Y0M3D','2027-03-01T07:00:00','2027-03-03T07:00:00','2027-05-13T07:00:00','2027-05-18T07:00:00','2027-05-13T07:00:00','2027-05-18T07:00:00','P0Y0M0D','P0Y0M0D',.T.,$,$,$,$,$,0.0);
#70=IFCTASK('or1rJzBlJBb$ixmVQvKjs3',#6,'Install sedum roof',$,$,'3.6',$,$,$,.F.,$,#69,.CONSTRUCTION.);
#71=IFCTASKTIME('Topping out Time',.PREDICTED.,$,.WORKTIME.,'P0Y0M0D','2027-03-01T07:00:00','2027-03-01T07:00:00','2027-05-18T07:00:00','2027-05-18T07:00:00','2027-10-15T07:00:00','2027-10-15T07:00:00','P0Y0M93D','P0Y0M93D',.F.,$,$,$,$,$,0.0);
#72=IFCTASK('p72VajklD51Tz7on_9sty7',#6,'Topping out',$,$,'3.7',$,$,$,.T.,$,#71,.CONSTRUCTION.);
#73=IFCTASKTIME('4. Facade & roof Time',.PREDICTED.,$,.WORKTIME.,'P0Y0M5D','2027-03-01T07:00:00','2027-03-05T07:00:00','2027-05-03T07:00:00','2027-06-17T07:00:00','2027-05-03T07:00:00','2027-10-15T07:00:00','P0Y0M0D','P0Y0M0D',.T.,$,$,$,$,$,0.0);
#74=IFCTASK('uDPzQpUNyHhldZlVnxB1Qn',#6,'4. Facade & roof',$,$,'4',$,$,$,.F.,$,#73,.CONSTRUCTION.);
#75=IFCTASKTIME('ETICS facade insulation Time',.PREDICTED.,$,.WORKTIME.,'P0Y0M10D','2027-03-01T07:00:00','2027-03-12T07:00:00','2027-05-03T07:00:00','2027-05-19T07:00:00','2027-05-03T07:00:00','2027-05-19T07:00:00','P0Y0M0D','P0Y0M0D',.T.,$,$,$,$,$,0.0);
#76=IFCTASK('c54rH5dt7zePyfGXcZJ7XP',#6,'ETICS facade insulation',$,$,'4.1',$,$,$,.F.,$,#75,.INSTALLATION.);
#77=IFCTASKTIME('Aluminium window frames Time',.PREDICTED.,$,.WORKTIME.,'P0Y0M8D','2027-03-01T07:00:00','2027-03-10T07:00:00','2027-05-20T07:00:00','2027-05-31T07:00:00','2027-05-20T07:00:00','2027-05-31T07:00:00','P0Y0M0D','P0Y0M0D',.T.,$,$,$,$,$,0.0);
#78=IFCTASK('fzlJZ5ktnl0FB7glghmfYJ',#6,'Aluminium window frames',$,$,'4.2',$,$,$,.F.,$,#77,.INSTALLATION.);
#79=IFCTASKTIME('Facade finish, brick slips Time',.PREDICTED.,$,.WORKTIME.,'P0Y0M8D','2027-03-01T07:00:00','2027-03-10T07:00:00','2027-06-01T07:00:00','2027-06-10T07:00:00','2027-06-01T07:00:00','2027-06-10T07:00:00','P0Y0M0D','P0Y0M0D',.T.,$,$,$,$,$,0.0);
#80=IFCTASK('cRe$o35nuVsHrDt$BjHz3v',#6,'Facade finish, brick slips',$,$,'4.3',$,$,$,.F.,$,#79,.CONSTRUCTION.);
#81=IFCTASKTIME('Roof solar panels Time',.PREDICTED.,$,.WORKTIME.,'P0Y0M5D','2027-03-01T07:00:00','2027-03-05T07:00:00','2027-06-11T07:00:00','2027-06-17T07:00:00','2027-06-11T07:00:00','2027-06-17T07:00:00','P0Y0M0D','P0Y0M0D',.T.,$,$,$,$,$,0.0);
#82=IFCTASK('HfmvDJDFIrnLAb0XHPyT3L',#6,'Roof solar panels',$,$,'4.4',$,$,$,.F.,$,#81,.INSTALLATION.);
#83=IFCTASKTIME('Wind and weathertight Time',.PREDICTED.,$,.WORKTIME.,'P0Y0M0D','2027-03-01T07:00:00','2027-03-01T07:00:00','2027-06-17T07:00:00','2027-06-17T07:00:00','2027-10-15T07:00:00','2027-10-15T07:00:00','P0Y0M71D','P0Y0M71D',.F.,$,$,$,$,$,0.0);
#84=IFCTASK('urgPxLBlPjQpaplX$zWPxF',#6,'Wind and weathertight',$,$,'4.5',$,$,$,.T.,$,#83,.CONSTRUCTION.);
#85=IFCTASKTIME('5. Building services Time',.PREDICTED.,$,.WORKTIME.,'P0Y0M5D','2027-03-01T07:00:00','2027-03-05T07:00:00','2027-06-18T07:00:00','2027-08-25T07:00:00','2027-06-18T07:00:00','2027-10-15T07:00:00','P0Y0M0D','P0Y0M0D',.T.,$,$,$,$,$,0.0);
#86=IFCTASK('gzHJ77tN0LR1GR0XLdund7',#6,'5. Building services',$,$,'5',$,$,$,.F.,$,#85,.INSTALLATION.);
#87=IFCTASKTIME('Electrical and data Time',.PREDICTED.,$,.WORKTIME.,'P0Y0M8D','2027-03-01T07:00:00','2027-03-10T07:00:00','2027-06-18T07:00:00','2027-06-29T07:00:00','2027-06-18T07:00:00','2027-06-29T07:00:00','P0Y0M0D','P0Y0M0D',.T.,$,$,$,$,$,0.0);
#88=IFCTASK('4DU127l7GzG1ajbnyLPJA3',#6,'Electrical and data',$,$,'5.1',$,$,$,.F.,$,#87,.INSTALLATION.);
#89=IFCTASKTIME('Air-to-water heat pump Time',.PREDICTED.,$,.WORKTIME.,'P0Y0M5D','2027-03-01T07:00:00','2027-03-05T07:00:00','2027-06-30T07:00:00','2027-07-06T07:00:00','2027-09-10T07:00:00','2027-09-16T07:00:00','P0Y0M0D','P0Y0M37D',.F.,$,$,$,$,$,0.0);
#90=IFCTASK('PxyZC51PJNR$y391WNk5Tb',#6,'Air-to-water heat pump',$,$,'5.2',$,$,$,.F.,$,#89,.INSTALLATION.);
#91=IFCTASKTIME('Underfloor heating Time',.PREDICTED.,$,.WORKTIME.,'P0Y0M8D','2027-03-01T07:00:00','2027-03-10T07:00:00','2027-07-02T07:00:00','2027-07-13T07:00:00','2027-09-14T07:00:00','2027-09-23T07:00:00','P0Y0M0D','P0Y0M37D',.F.,$,$,$,$,$,0.0);
#92=IFCTASK('CfobSD_foFnDiX1VStI$gt',#6,'Underfloor heating',$,$,'5.3',$,$,$,.F.,$,#91,.INSTALLATION.);
#93=IFCTASKTIME('CO2-controlled ventilation Time',.PREDICTED.,$,.WORKTIME.,'P0Y0M8D','2027-03-01T07:00:00','2027-03-10T07:00:00','2027-07-14T07:00:00','2027-07-23T07:00:00','2027-09-24T07:00:00','2027-10-05T07:00:00','P0Y0M0D','P0Y0M37D',.F.,$,$,$,$,$,0.0);
#94=IFCTASK('lNuVuLCF4xvh2pv1sRUFrd',#6,'CO2-controlled ventilation',$,$,'5.4',$,$,$,.F.,$,#93,.INSTALLATION.);
#95=IFCTASKTIME('Sanitary pipework Time',.PREDICTED.,$,.WORKTIME.,'P0Y0M5D','2027-03-01T07:00:00','2027-03-05T07:00:00','2027-08-16T07:00:00','2027-08-20T07:00:00','2027-10-06T07:00:00','2027-10-12T07:00:00','P0Y0M0D','P0Y0M37D',.F.,$,$,$,$,$,0.0);
#96=IFCTASK('UVL1YbA$aBJ7Ax4FfJ$Jk7',#6,'Sanitary pipework',$,$,'5.5',$,$,$,.F.,$,#95,.INSTALLATION.);
#97=IFCTASKTIME('Fire alarm and evacuation Time',.PREDICTED.,$,.WORKTIME.,'P0Y0M3D','2027-03-01T07:00:00','2027-03-03T07:00:00','2027-08-23T07:00:00','2027-08-25T07:00:00','2027-10-13T07:00:00','2027-10-15T07:00:00','P0Y0M37D','P0Y0M37D',.F.,$,$,$,$,$,0.0);
#98=IFCTASK('FP2rflGfqTwjkb4l1X9zdB',#6,'Fire alarm and evacuation',$,$,'5.6',$,$,$,.F.,$,#97,.INSTALLATION.);
#99=IFCTASKTIME('6. Fit-out Time',.PREDICTED.,$,.WORKTIME.,'P0Y0M5D','2027-03-01T07:00:00','2027-03-05T07:00:00','2027-07-15T07:00:00','2027-10-05T07:00:00','2027-07-15T07:00:00','2027-10-05T07:00:00','P0Y0M0D','P0Y0M0D',.T.,$,$,$,$,$,0.0);
#100=IFCTASK('3nb12B8Ppv510zBF93Xb$N',#6,'6. Fit-out',$,$,'6',$,$,$,.F.,$,#99,.CONSTRUCTION.);
#101=IFCTASKTIME('Internal walls, metal stud Time',.PREDICTED.,$,.WORKTIME.,'P0Y0M8D','2027-03-01T07:00:00','2027-03-10T07:00:00','2027-07-15T07:00:00','2027-08-16T07:00:00','2027-07-15T07:00:00','2027-08-16T07:00:00','P0Y0M0D','P0Y0M0D',.T.,$,$,$,$,$,0.0);
#102=IFCTASK('UVDd3v1PJNLHnPYXtzlrCz',#6,'Internal walls, metal stud',$,$,'6.1',$,$,$,.F.,$,#101,.CONSTRUCTION.);
#103=IFCTASKTIME('Acoustic ceilings Time',.PREDICTED.,$,.WORKTIME.,'P0Y0M5D','2027-03-01T07:00:00','2027-03-05T07:00:00','2027-08-17T07:00:00','2027-08-23T07:00:00','2027-08-17T07:00:00','2027-08-23T07:00:00','P0Y0M0D','P0Y0M0D',.T.,$,$,$,$,$,0.0);
#104=IFCTASK('G9yZW$lv8t$x5RaF3nDPJz',#6,'Acoustic ceilings',$,$,'6.2',$,$,$,.F.,$,#103,.CONSTRUCTION.);
#105=IFCTASKTIME('Screed floors Time',.PREDICTED.,$,.WORKTIME.,'P0Y0M5D','2027-03-01T07:00:00','2027-03-05T07:00:00','2027-08-24T07:00:00','2027-08-30T07:00:00','2027-08-24T07:00:00','2027-08-30T07:00:00','P0Y0M0D','P0Y0M0D',.T.,$,$,$,$,$,0.0);
#106=IFCTASK('W$fRm7w7Mx$ZhzHVDv07F1',#6,'Screed floors',$,$,'6.3',$,$,$,.F.,$,#105,.CONSTRUCTION.);
#107=IFCTASKTIME('Tiling, sanitary areas Time',.PREDICTED.,$,.WORKTIME.,'P0Y0M5D','2027-03-01T07:00:00','2027-03-05T07:00:00','2027-08-31T07:00:00','2027-09-06T07:00:00','2027-08-31T07:00:00','2027-09-06T07:00:00','P0Y0M0D','P0Y0M0D',.T.,$,$,$,$,$,0.0);
#108=IFCTASK('sjp7JTVvKpmXYfqnuBijIr',#6,'Tiling, sanitary areas',$,$,'6.4',$,$,$,.F.,$,#107,.CONSTRUCTION.);
#109=IFCTASKTIME('Painting Time',.PREDICTED.,$,.WORKTIME.,'P0Y0M8D','2027-03-01T07:00:00','2027-03-10T07:00:00','2027-09-07T07:00:00','2027-09-16T07:00:00','2027-09-07T07:00:00','2027-09-16T07:00:00','P0Y0M0D','P0Y0M0D',.T.,$,$,$,$,$,0.0);
#110=IFCTASK('GPQjxl7tdve9FDd$KjAtyr',#6,'Painting',$,$,'6.5',$,$,$,.F.,$,#109,.CONSTRUCTION.);
#111=IFCTASKTIME('Linoleum floor finish Time',.PREDICTED.,$,.WORKTIME.,'P0Y0M5D','2027-03-01T07:00:00','2027-03-05T07:00:00','2027-09-17T07:00:00','2027-09-23T07:00:00','2027-09-17T07:00:00','2027-09-23T07:00:00','P0Y0M0D','P0Y0M0D',.T.,$,$,$,$,$,0.0);
#112=IFCTASK('jRRl93pVTVovMNe1m$b1ch',#6,'Linoleum floor finish',$,$,'6.6',$,$,$,.F.,$,#111,.CONSTRUCTION.);
#113=IFCTASKTIME('Outdoor playground Time',.PREDICTED.,$,.WORKTIME.,'P0Y0M8D','2027-03-01T07:00:00','2027-03-10T07:00:00','2027-09-24T07:00:00','2027-10-05T07:00:00','2027-09-24T07:00:00','2027-10-05T07:00:00','P0Y0M0D','P0Y0M0D',.T.,$,$,$,$,$,0.0);
#114=IFCTASK('tjjdVt4$ynfxNxCHkXlBmn',#6,'Outdoor playground',$,$,'6.7',$,$,$,.F.,$,#113,.CONSTRUCTION.);
#115=IFCTASKTIME('7. Handover Time',.PREDICTED.,$,.WORKTIME.,'P0Y0M5D','2027-03-01T07:00:00','2027-03-05T07:00:00','2027-10-06T07:00:00','2027-10-15T07:00:00','2027-10-06T07:00:00','2027-10-15T07:00:00','P0Y0M0D','P0Y0M0D',.T.,$,$,$,$,$,0.0);
#116=IFCTASK('urEFLNGNifgF$rA1b5MZLN',#6,'7. Handover',$,$,'7',$,$,$,.F.,$,#115,.CONSTRUCTION.);
#117=IFCTASKTIME('Classroom furnishing Time',.PREDICTED.,$,.WORKTIME.,'P0Y0M5D','2027-03-01T07:00:00','2027-03-05T07:00:00','2027-10-06T07:00:00','2027-10-12T07:00:00','2027-10-06T07:00:00','2027-10-12T07:00:00','P0Y0M0D','P0Y0M0D',.T.,$,$,$,$,$,0.0);
#118=IFCTASK('o7gdtZVv0BFhYfqls5kxbX',#6,'Classroom furnishing',$,$,'7.1',$,$,$,.F.,$,#117,.LOGISTIC.);
#119=IFCTASKTIME('Testing and commissioning Time',.PREDICTED.,$,.WORKTIME.,'P0Y0M3D','2027-03-01T07:00:00','2027-03-03T07:00:00','2027-10-13T07:00:00','2027-10-15T07:00:00','2027-10-13T07:00:00','2027-10-15T07:00:00','P0Y0M0D','P0Y0M0D',.T.,$,$,$,$,$,0.0);
#120=IFCTASK('4JQJxnRFEFNxBJzlgBKjAP',#6,'Testing and commissioning',$,$,'7.2',$,$,$,.F.,$,#119,.ATTENDANCE.);
#121=IFCTASKTIME('Child centre handover Time',.PREDICTED.,$,.WORKTIME.,'P0Y0M0D','2027-03-01T07:00:00','2027-03-01T07:00:00','2027-10-15T07:00:00','2027-10-15T07:00:00','2027-10-15T07:00:00','2027-10-15T07:00:00','P0Y0M0D','P0Y0M0D',.T.,$,$,$,$,$,0.0);
#122=IFCTASK('5l3tMXpnMvTPuFjnVHNLIP',#6,'Child centre handover',$,$,'7.3',$,$,$,.T.,$,#121,.CONSTRUCTION.);
#123=IFCRELNESTS('iPmdfpl7q3Id0TXVKVLVGV',#6,'WBS 1. Preparation',$,#40,( #42,#44,#46));
#124=IFCRELNESTS('3HNJ1TW9BtsT7JFXDr5V4r',#6,'WBS 2. Foundations',$,#48,( #50,#52,#54,#56));
#125=IFCRELNESTS('cxyrZRcVPJg31LkFeRgNMN',#6,'WBS 3. Structural works',$,#58,( #60,#62,#64,#66,#68,#70,#72));
#126=IFCRELNESTS('1nhHbx1dXxPBSjplp781Et',#6,'WBS 4. Facade & roof',$,#74,( #76,#78,#80,#82,#84));
#127=IFCRELNESTS('T19x2rO7WR37_vQHR$9BmH',#6,'WBS 5. Building services',$,#86,( #88,#90,#92,#94,#96,#98));
#128=IFCRELNESTS('yjobiLDXrZCZj$ZFc7qD85',#6,'WBS 6. Fit-out',$,#100,( #102,#104,#106,#108,#110,#112,#114));
#129=IFCRELNESTS('n7w9shxneluvoLoFAXB$YJ',#6,'WBS 7. Handover',$,#116,( #118,#120,#122));
#130=IFCRELNESTS('tjjP5r1vgdnD4TBHzDgTrv',#6,'WBS Hoofd',$,#37,(#40,#48,#58,#74,#86,#100,#116));
#131=IFCRELSEQUENCE('j5XzcJElPdarOPoX0vmfwV',#6,$,$,#42,#44,$,.FINISH_START.,$);
#132=IFCRELSEQUENCE('iRh1ctiVX5ljgrIXk$3NsT',#6,$,$,#44,#46,$,.FINISH_START.,$);
#133=IFCRELSEQUENCE('NvKJ7vF7YjsTjVt1qT4Zjz',#6,$,$,#50,#52,$,.FINISH_START.,$);
#134=IFCRELSEQUENCE('Z$1Tmf8dLpgnpZnVZzGNQF',#6,$,$,#52,#54,$,.FINISH_START.,$);
#135=IFCRELSEQUENCE('jN8X0lV7qdiRfPA1nbnZzh',#6,$,$,#54,#56,$,.FINISH_START.,$);
#136=IFCRELSEQUENCE('UVZNmtqXjrzN5RaFv$VpOz',#6,$,$,#60,#62,$,.FINISH_START.,$);
#137=IFCRELSEQUENCE('5hIx2hKVV5VzVx0VfJH3RR',#6,$,$,#62,#64,$,.FINISH_START.,$);
#138=IFCRELSEQUENCE('_FLlLJwX5RJf5byn7xszDl',#6,$,$,#64,#66,$,.FINISH_START.,$);
#139=IFCRELSEQUENCE('X$Hj3hS$MPnp49ynlvGtKp',#6,$,$,#66,#68,$,.FINISH_START.,$);
#140=IFCRELSEQUENCE('E7gdB3CVRV5XwV7$NjvbjV',#6,$,$,#68,#70,$,.FINISH_START.,$);
#141=IFCRELSEQUENCE('X1PLXNmN2f61mrkV69wd$J',#6,$,$,#70,#72,$,.FINISH_START.,$);
#142=IFCRELSEQUENCE('xHrFBP2nyFdBy3nXBf2reB',#6,$,$,#76,#78,$,.FINISH_START.,$);
#143=IFCRELSEQUENCE('SZuX8JZHx5dBWjN$EpgZ5n',#6,$,$,#78,#80,$,.FINISH_START.,$);
#144=IFCRELSEQUENCE('Y$PhXNGNSL$5brUXvxIx1j',#6,$,$,#80,#82,$,.FINISH_START.,$);
#145=IFCRELSEQUENCE('e3FD$P_nyHLlzvEnolvbvb',#6,$,$,#82,#84,$,.FINISH_START.,$);
#146=IFCRELSEQUENCE('H9ahvrmNkBdJ6JlVzHXDql',#6,$,$,#88,#90,$,.FINISH_START.,$);
#147=IFCLAGTIME('Lag',.PREDICTED.,$,IFCDURATION('P2D'),.WORKTIME.);
#148=IFCRELSEQUENCE('qrHRWXL1Ex1T3vInablzFV',#6,$,$,#90,#92,#147,.START_START.,$);
#149=IFCRELSEQUENCE('TzKj7PZHZXslFPUXL7S3xr',#6,$,$,#92,#94,$,.FINISH_START.,$);
#150=IFCRELSEQUENCE('zn5XKfPtXPvLwpjnJRPx9H',#6,$,$,#94,#96,$,.FINISH_START.,$);
#151=IFCRELSEQUENCE('V1Xz_PL$MbZPWDJFbXDPvf',#6,$,$,#96,#98,$,.FINISH_START.,$);
#152=IFCRELSEQUENCE('wBs75H7t3lufrjzlYLHB0f',#6,$,$,#102,#104,$,.FINISH_START.,$);
#153=IFCRELSEQUENCE('o7MPvhKn_3ePuf4HT3WdzB',#6,$,$,#104,#106,$,.FINISH_START.,$);
#154=IFCRELSEQUENCE('h3FD3vXdhvGXEXxnI$b$gN',#6,$,$,#106,#108,$,.FINISH_START.,$);
#155=IFCRELSEQUENCE('IxdLzv9fGzedePA$xBa3$f',#6,$,$,#108,#110,$,.FINISH_START.,$);
#156=IFCRELSEQUENCE('QxyrHbRV3FyhsPw$mlvR$f',#6,$,$,#110,#112,$,.FINISH_START.,$);
#157=IFCRELSEQUENCE('IfuFHRzHD5vLc3xn2xZNYj',#6,$,$,#112,#114,$,.FINISH_START.,$);
#158=IFCRELSEQUENCE('lRJvdthHrZSJIlv$phPjkB',#6,$,$,#118,#120,$,.FINISH_START.,$);
#159=IFCRELSEQUENCE('ZXbHpFCX$9Vbp3Zlq3WdzL',#6,$,$,#120,#122,$,.FINISH_START.,$);
#160=IFCLAGTIME('Lag',.PREDICTED.,$,IFCDURATION('P4D'),.WORKTIME.);
#161=IFCRELSEQUENCE('ez$Z0FJVnHe9xFrHdhWPTR',#6,$,$,#42,#50,#160,.START_START.,$);
#162=IFCLAGTIME('Lag',.PREDICTED.,$,IFCRATIOMEASURE(0.4),.WORKTIME.);
#163=IFCRELSEQUENCE('rts7zLCVrN2tR11Xcd8F1J',#6,$,$,#50,#60,#162,.START_START.,$);
#164=IFCLAGTIME('Lag',.PREDICTED.,$,IFCDURATION('-P9D'),.WORKTIME.);
#165=IFCRELSEQUENCE('S1$ZGfWt5F9RLfyF9z7pCn',#6,$,$,#70,#76,#164,.FINISH_START.,$);
#166=IFCLAGTIME('Lag',.PREDICTED.,$,IFCDURATION('P2D'),.WORKTIME.);
#167=IFCRELSEQUENCE('O3fbO5It1Nb1a7_FDdSztD',#6,$,$,#70,#82,#166,.FINISH_FINISH.,$);
#168=IFCRELSEQUENCE('bXpdLj6XxbD9zRmXITKJQF',#6,$,$,#82,#88,$,.FINISH_START.,$);
#169=IFCLAGTIME('Lag',.PREDICTED.,$,IFCDURATION('P19D'),.WORKTIME.);
#170=IFCRELSEQUENCE('5r_XqPh1k$dJUzt1ijs947',#6,$,$,#88,#102,#169,.START_START.,$);
#171=IFCRELSEQUENCE('U3KRyZuvg7rnt9aFpPKJoN',#6,$,$,#114,#118,$,.FINISH_START.,$);
#172=IFCRELASSIGNSTOCONTROL('rDVhNjbXHjyDCF$VkTSruD',#6,$,$,(#40,#42,#44,#46,#48,#50,#52,#54,#56,#58,#60,#62,#64,#66,#68,#70,#72,#74,#76,#78,#80,#82,#84,#86,#88,#90,#92,#94,#96,#98,#100,#102,#104,#106,#108,#110,#112,#114,#116,#118,#120,#122),$,#37);
#173=IFCPROPERTYSINGLEVALUE('wbsAutoNumber',$,IFCBOOLEAN(.T.),$);
#174=IFCPROPERTYSINGLEVALUE('ProjectStartDate',$,IFCDATE('2027-03-01'),$);
#175=IFCPROPERTYSINGLEVALUE('ProjectEndDate',$,$,$);
#176=IFCPROPERTYSINGLEVALUE('CreatedAt',$,IFCTEXT('2026-08-14T08:19:55.272Z'),$);
#177=IFCPROPERTYSINGLEVALUE('ModifiedAt',$,IFCTEXT('2026-08-14T08:19:55.273Z'),$);
#178=IFCPROPERTYSET('e5a3ArlP$tNZvpDF1ZK5n5',#6,'OPS_ProjectSettings',$,(#173,#174,#175,#176,#177));
#179=IFCRELDEFINESBYPROPERTIES('0Hdzo1sPJhdjQlBF$1BF9l',#6,$,$,(#13),#178);
#180=IFCPROPERTYSINGLEVALUE('MilestoneKind',$,IFCLABEL('START'),$);
#181=IFCPROPERTYSET('$D69MRZlt1HriV71TZix$D',#6,'OPS_Milestone',$,(#180));
#182=IFCRELDEFINESBYPROPERTIES('Oxa3MRJFm3G1WJf$oFJ7B3',#6,$,$,(#46),#181);
#183=IFCPROPERTYSINGLEVALUE('MilestoneKind',$,IFCLABEL('FINISH'),$);
#184=IFCPROPERTYSET('vHb$wzqFarzfZfe$Opz9Kj',#6,'OPS_Milestone',$,(#183));
#185=IFCRELDEFINESBYPROPERTIES('WXxFH5NfQJizJppFdHhHBZ',#6,$,$,(#72),#184);
#186=IFCPROPERTYSINGLEVALUE('MilestoneKind',$,IFCLABEL('FINISH'),$);
#187=IFCPROPERTYSET('qB1rxldtzTQpqF91BDr1EN',#6,'OPS_Milestone',$,(#186));
#188=IFCRELDEFINESBYPROPERTIES('RXZfSHGNsrxXQZXXmH7RdL',#6,$,$,(#84),#187);
#189=IFCPROPERTYSINGLEVALUE('MilestoneKind',$,IFCLABEL('FINISH'),$);
#190=IFCPROPERTYSINGLEVALUE('Mandatory',$,IFCBOOLEAN(.T.),$);
#191=IFCPROPERTYSET('d5KRq79fWbrnRV3HI1hHln',#6,'OPS_Milestone',$,(#189,#190));
#192=IFCRELDEFINESBYPROPERTIES('EvgPFFpVFT6J6jt1yrJvxL',#6,$,$,(#122),#191);
ENDSEC;
END-ISO-10303-21;
