ISO-10303-21;
HEADER;
FILE_DESCRIPTION(('ViewDefinition [SchedulingView]'),'2;1');
FILE_NAME('60-Home Residential District, Almere.ifc','2026-08-14T12:19:01',('Gerrit Nieuwland'),('Flevoland Housing Construction BV'),'Open Planner Studio 0.1','Open Planner Studio','');
FILE_SCHEMA(('IFC4X3'));
ENDSEC;
DATA;
#1=IFCPERSON($,'Gerrit Nieuwland',$,$,$,$,$,$);
#2=IFCORGANIZATION($,'Flevoland Housing Construction BV',$,$,$);
#3=IFCPERSONANDORGANIZATION(#1,#2,$);
#4=IFCORGANIZATION($,'OpenAEC Foundation',$,$,$);
#5=IFCAPPLICATION(#4,'0.1','Open Planner Studio','OPS');
#6=IFCOWNERHISTORY(#3,#5,$,.NOCHANGE.,$,$,$,1786709941);
#7=IFCSIUNIT(*,.LENGTHUNIT.,$,.METRE.);
#8=IFCSIUNIT(*,.TIMEUNIT.,$,.SECOND.);
#9=IFCUNITASSIGNMENT((#7,#8));
#10=IFCCARTESIANPOINT((0.,0.,0.));
#11=IFCAXIS2PLACEMENT3D(#10,$,$);
#12=IFCGEOMETRICREPRESENTATIONCONTEXT($,'Plan',3,1.0E-05,#11,$);
#13=IFCPROJECT('8p7Zif$7oRZdGb8$YLNTfX',#6,'60-Home Residential District, Almere','New residential district with 40 terraced houses and 20 semi-detached homes',$,$,$,(#12),#9);
#14=IFCTIMEPERIOD('07:00:00','16:00:00');
#15=IFCRECURRENCEPATTERN(.WEEKLY.,$,(1,2,3,4,5),$,$,$,$,(#14));
#16=IFCWORKTIME('Standard work week',.PREDICTED.,$,#15,$,$);
#17=IFCWORKTIME('New Year''s Day',.PREDICTED.,$,$,'2027-01-01','2027-01-01');
#18=IFCWORKTIME('Good Friday',.PREDICTED.,$,$,'2027-03-26','2027-03-26');
#19=IFCWORKTIME('Easter',.PREDICTED.,$,$,'2027-03-28','2027-03-29');
#20=IFCWORKTIME('King''s Day',.PREDICTED.,$,$,'2027-04-27','2027-04-27');
#21=IFCWORKTIME('Liberation Day',.PREDICTED.,$,$,'2027-05-05','2027-05-05');
#22=IFCWORKTIME('Ascension Day',.PREDICTED.,$,$,'2027-05-06','2027-05-06');
#23=IFCWORKTIME('Whitsun',.PREDICTED.,$,$,'2027-05-16','2027-05-17');
#24=IFCWORKTIME('Christmas',.PREDICTED.,$,$,'2027-12-25','2027-12-26');
#25=IFCWORKTIME('Construction holiday (northern region)',.PREDICTED.,$,$,'2027-07-26','2027-08-15');
#26=IFCWORKTIME('New Year''s Day',.PREDICTED.,$,$,'2028-01-01','2028-01-01');
#27=IFCWORKTIME('Good Friday',.PREDICTED.,$,$,'2028-04-14','2028-04-14');
#28=IFCWORKTIME('Easter',.PREDICTED.,$,$,'2028-04-16','2028-04-17');
#29=IFCWORKTIME('King''s Day',.PREDICTED.,$,$,'2028-04-27','2028-04-27');
#30=IFCWORKTIME('Liberation Day',.PREDICTED.,$,$,'2028-05-05','2028-05-05');
#31=IFCWORKTIME('Ascension Day',.PREDICTED.,$,$,'2028-05-25','2028-05-25');
#32=IFCWORKTIME('Whitsun',.PREDICTED.,$,$,'2028-06-04','2028-06-05');
#33=IFCWORKTIME('Christmas',.PREDICTED.,$,$,'2028-12-25','2028-12-26');
#34=IFCWORKTIME('Construction holiday (northern region)',.PREDICTED.,$,$,'2028-07-24','2028-08-13');
#35=IFCWORKCALENDAR('_HlbW$VPl1Yxnv_nBDbFBd',#6,'Construction calendar NL','Standard construction calendar: Mon-Fri 07:00-16:00',$,(#16),(#17,#18,#19,#20,#21,#22,#23,#24,#25,#26,#27,#28,#29,#30,#31,#32,#33,#34),.FIRSTSHIFT.);
#36=IFCWORKPLAN('mPYhPxYfKfQXUtWXzl$J_Z',#6,'60-Home Residential District, Almere','New residential district with 40 terraced houses and 20 semi-detached homes',$,$,'2026-08-14T12:19:01',$,$,$,$,$,'2027-03-01T07:00:00','2027-03-19T07:00:00',.PLANNED.);
#37=IFCWORKSCHEDULE('J9qprT09fHhHVlHXlrrFLt',#6,'Construction schedule v1.0',$,$,$,'2026-08-14T12:19:01',$,$,$,$,$,'2027-03-01T07:00:00','2027-03-19T07:00:00',.PLANNED.);
#38=IFCRELAGGREGATES('X$Ph9TPtbVDd8te$ftI1sz',#6,$,$,#36,(#37));
#39=IFCTASKTIME('1. Site preparation Time',.PREDICTED.,$,.WORKTIME.,'P0Y0M5D','2027-03-01T07:00:00','2027-03-05T07:00:00','2027-03-01T07:00:00','2027-04-26T07:00:00','2027-03-01T07:00:00','2028-06-27T07:00:00','P0Y0M0D','P0Y0M0D',.T.,$,$,$,$,$,0.0);
#40=IFCTASK('vF$rzrmNsLHBy9KnEnLX4h',#6,'1. Site preparation',$,$,'1',$,$,$,.F.,$,#39,.CONSTRUCTION.);
#41=IFCTASKTIME('Clear and level site Time',.PREDICTED.,$,.WORKTIME.,'P0Y0M8D','2027-03-01T07:00:00','2027-03-10T07:00:00','2027-03-01T07:00:00','2027-03-10T07:00:00','2027-03-01T07:00:00','2027-03-10T07:00:00','P0Y0M0D','P0Y0M0D',.T.,$,$,$,$,$,0.0);
#42=IFCTASK('tptDpn4lBtEravInS539Sf',#6,'Clear and level site',$,$,'1.1',$,$,$,.F.,$,#41,.DEMOLITION.);
#43=IFCTASKTIME('Install main sewer Time',.PREDICTED.,$,.WORKTIME.,'P0Y0M12D','2027-03-01T07:00:00','2027-03-16T07:00:00','2027-03-11T07:00:00','2027-03-30T07:00:00','2028-05-12T07:00:00','2028-05-30T07:00:00','P0Y0M0D','P0Y0M281D',.F.,$,$,$,$,$,0.0);
#44=IFCTASK('EdAT4ZWtvT4DWJlX5heVer',#6,'Install main sewer',$,$,'1.2',$,$,$,.F.,$,#43,.INSTALLATION.);
#45=IFCTASKTIME('Utility main Time',.PREDICTED.,$,.WORKTIME.,'P0Y0M10D','2027-03-01T07:00:00','2027-03-12T07:00:00','2027-03-31T07:00:00','2027-04-13T07:00:00','2028-05-31T07:00:00','2028-06-14T07:00:00','P0Y0M0D','P0Y0M281D',.F.,$,$,$,$,$,0.0);
#46=IFCTASK('TT8FXJwXdPypCl5nsXJvNz',#6,'Utility main',$,$,'1.3',$,$,$,.F.,$,#45,.INSTALLATION.);
#47=IFCTASKTIME('Construct site roads Time',.PREDICTED.,$,.WORKTIME.,'P0Y0M8D','2027-03-01T07:00:00','2027-03-10T07:00:00','2027-04-14T07:00:00','2027-04-23T07:00:00','2028-06-15T07:00:00','2028-06-26T07:00:00','P0Y0M0D','P0Y0M281D',.F.,$,$,$,$,$,0.0);
#48=IFCTASK('5hsTifnPv9kLIF3FWNobvx',#6,'Construct site roads',$,$,'1.4',$,$,$,.F.,$,#47,.CONSTRUCTION.);
#49=IFCTASKTIME('Start of construction Time',.PREDICTED.,$,.WORKTIME.,'P0Y0M0D','2027-03-01T07:00:00','2027-03-01T07:00:00','2027-04-26T07:00:00','2027-04-26T07:00:00','2028-06-27T07:00:00','2028-06-27T07:00:00','P0Y0M281D','P0Y0M281D',.F.,$,$,$,$,$,0.0);
#50=IFCTASK('o7Y1kH8PLj_Rv$5Hq30vr3',#6,'Start of construction',$,$,'1.5',$,$,$,.T.,$,#49,.CONSTRUCTION.);
#51=IFCTASKTIME('2. Foundations phase 1 (blocks 1-3) Time',.PREDICTED.,$,.WORKTIME.,'P0Y0M5D','2027-03-01T07:00:00','2027-03-05T07:00:00','2027-03-30T07:00:00','2027-05-27T07:00:00','2027-03-30T07:00:00','2028-06-27T07:00:00','P0Y0M0D','P0Y0M0D',.T.,$,$,$,$,$,0.0);
#52=IFCTASK('Cts7$3qn4bJfvj7$$1JvfT',#6,'2. Foundations phase 1 (blocks 1-3)',$,$,'2',$,$,$,.F.,$,#51,.CONSTRUCTION.);
#53=IFCTASKTIME('Piling block 1 (10 terraced houses) Time',.PREDICTED.,$,.WORKTIME.,'P0Y0M8D','2027-03-01T07:00:00','2027-03-10T07:00:00','2027-03-30T07:00:00','2027-04-08T07:00:00','2027-03-30T07:00:00','2027-04-08T07:00:00','P0Y0M0D','P0Y0M0D',.T.,$,$,$,$,$,0.0);
#54=IFCTASK('cb8VeZFPLDYNvj1VClzN2Z',#6,'Piling block 1 (10 terraced houses)',$,$,'2.1',$,$,$,.F.,$,#53,.CONSTRUCTION.);
#55=IFCTASKTIME('Piling block 2 (10 terraced houses) Time',.PREDICTED.,$,.WORKTIME.,'P0Y0M8D','2027-03-01T07:00:00','2027-03-10T07:00:00','2027-04-09T07:00:00','2027-04-20T07:00:00','2028-05-12T07:00:00','2028-05-23T07:00:00','P0Y0M0D','P0Y0M262D',.F.,$,$,$,$,$,0.0);
#56=IFCTASK('bR09UNnPfFVzxHf1EjwP3L',#6,'Piling block 2 (10 terraced houses)',$,$,'2.2',$,$,$,.F.,$,#55,.CONSTRUCTION.);
#57=IFCTASKTIME('Piling block 3 (10 terraced houses) Time',.PREDICTED.,$,.WORKTIME.,'P0Y0M8D','2027-03-01T07:00:00','2027-03-10T07:00:00','2027-04-14T07:00:00','2027-04-23T07:00:00','2028-05-17T07:00:00','2028-05-29T07:00:00','P0Y0M0D','P0Y0M262D',.F.,$,$,$,$,$,0.0);
#58=IFCTASK('DB7TW$P9l1AZpn71YBTty7',#6,'Piling block 3 (10 terraced houses)',$,$,'2.3',$,$,$,.F.,$,#57,.CONSTRUCTION.);
#59=IFCTASKTIME('Foundation beams, blocks 1-3 Time',.PREDICTED.,$,.WORKTIME.,'P0Y0M10D','2027-03-01T07:00:00','2027-03-12T07:00:00','2027-04-26T07:00:00','2027-05-12T07:00:00','2028-05-30T07:00:00','2028-06-13T07:00:00','P0Y0M0D','P0Y0M262D',.F.,$,$,$,$,$,0.0);
#60=IFCTASK('0HXhnHV789FLEL2nRxwj_$',#6,'Foundation beams, blocks 1-3',$,$,'2.4',$,$,$,.F.,$,#59,.CONSTRUCTION.);
#61=IFCTASKTIME('Ground floor slab, blocks 1-3 Time',.PREDICTED.,$,.WORKTIME.,'P0Y0M10D','2027-03-01T07:00:00','2027-03-12T07:00:00','2027-05-13T07:00:00','2027-05-27T07:00:00','2028-06-14T07:00:00','2028-06-27T07:00:00','P0Y0M262D','P0Y0M262D',.F.,$,$,$,$,$,0.0);
#62=IFCTASK('T3ij5FBldDAHvJnVZz81k7',#6,'Ground floor slab, blocks 1-3',$,$,'2.5',$,$,$,.F.,$,#61,.CONSTRUCTION.);
#63=IFCTASKTIME('3. Foundations phase 2 (blocks 4-5) Time',.PREDICTED.,$,.WORKTIME.,'P0Y0M5D','2027-03-01T07:00:00','2027-03-05T07:00:00','2027-04-02T07:00:00','2027-05-13T07:00:00','2027-04-02T07:00:00','2027-05-13T07:00:00','P0Y0M0D','P0Y0M0D',.T.,$,$,$,$,$,0.0);
#64=IFCTASK('dVzt_vNfU7WHfxSHLZzfA3',#6,'3. Foundations phase 2 (blocks 4-5)',$,$,'3',$,$,$,.F.,$,#63,.CONSTRUCTION.);
#65=IFCTASKTIME('Piling block 4 (10 terraced houses) Time',.PREDICTED.,$,.WORKTIME.,'P0Y0M8D','2027-03-01T07:00:00','2027-03-10T07:00:00','2027-04-02T07:00:00','2027-04-13T07:00:00','2027-04-02T07:00:00','2027-04-13T07:00:00','P0Y0M0D','P0Y0M0D',.T.,$,$,$,$,$,0.0);
#66=IFCTASK('oLb$Iled7zmV2JRFuLmtaf',#6,'Piling block 4 (10 terraced houses)',$,$,'3.1',$,$,$,.F.,$,#65,.CONSTRUCTION.);
#67=IFCTASKTIME('Piling block 5 (10 semi-detached) Time',.PREDICTED.,$,.WORKTIME.,'P0Y0M8D','2027-03-01T07:00:00','2027-03-10T07:00:00','2027-04-07T07:00:00','2027-04-16T07:00:00','2027-04-07T07:00:00','2027-04-16T07:00:00','P0Y0M0D','P0Y0M0D',.T.,$,$,$,$,$,0.0);
#68=IFCTASK('UXTfe5gPpvbXY9u1VF39uD',#6,'Piling block 5 (10 semi-detached)',$,$,'3.2',$,$,$,.F.,$,#67,.CONSTRUCTION.);
#69=IFCTASKTIME('Foundation beams, blocks 4-5 Time',.PREDICTED.,$,.WORKTIME.,'P0Y0M8D','2027-03-01T07:00:00','2027-03-10T07:00:00','2027-04-19T07:00:00','2027-04-29T07:00:00','2027-04-19T07:00:00','2027-04-29T07:00:00','P0Y0M0D','P0Y0M0D',.T.,$,$,$,$,$,0.0);
#70=IFCTASK('pr7Ti9jV7ZCTH9GVCTSBCl',#6,'Foundation beams, blocks 4-5',$,$,'3.3',$,$,$,.F.,$,#69,.CONSTRUCTION.);
#71=IFCTASKTIME('Ground floor slab, blocks 4-5 Time',.PREDICTED.,$,.WORKTIME.,'P0Y0M8D','2027-03-01T07:00:00','2027-03-10T07:00:00','2027-04-30T07:00:00','2027-05-13T07:00:00','2027-04-30T07:00:00','2027-05-13T07:00:00','P0Y0M0D','P0Y0M0D',.T.,$,$,$,$,$,0.0);
#72=IFCTASK('IRh1M$lvOl8fhzd1Ntc7xh',#6,'Ground floor slab, blocks 4-5',$,$,'3.4',$,$,$,.F.,$,#71,.CONSTRUCTION.);
#73=IFCTASKTIME('4. Structural works phase 1 Time',.PREDICTED.,$,.WORKTIME.,'P0Y0M5D','2027-03-01T07:00:00','2027-03-05T07:00:00','2027-05-04T07:00:00','2027-08-23T07:00:00','2027-05-04T07:00:00','2028-06-27T07:00:00','P0Y0M0D','P0Y0M0D',.T.,$,$,$,$,$,0.0);
#74=IFCTASK('Y3KjPt3$iJCTVl$XSfcDWP',#6,'4. Structural works phase 1',$,$,'4',$,$,$,.F.,$,#73,.CONSTRUCTION.);
#75=IFCTASKTIME('Masonry ground floor, blocks 1-3 Time',.PREDICTED.,$,.WORKTIME.,'P0Y0M15D','2027-03-01T07:00:00','2027-03-19T07:00:00','2027-05-04T07:00:00','2027-05-27T07:00:00','2027-05-04T07:00:00','2027-05-27T07:00:00','P0Y0M0D','P0Y0M0D',.T.,$,$,$,$,$,0.0);
#76=IFCTASK('5H39_hy$uNjv2ds1dnt3pF',#6,'Masonry ground floor, blocks 1-3',$,$,'4.1',$,$,$,.F.,$,#75,.CONSTRUCTION.);
#77=IFCTASKTIME('Upper floor slab, blocks 1-3 Time',.PREDICTED.,$,.WORKTIME.,'P0Y0M10D','2027-03-01T07:00:00','2027-03-12T07:00:00','2027-05-28T07:00:00','2027-06-10T07:00:00','2027-05-28T07:00:00','2027-06-10T07:00:00','P0Y0M0D','P0Y0M0D',.T.,$,$,$,$,$,0.0);
#78=IFCTASK('phb1IDlvKtcputu$UL$5b1',#6,'Upper floor slab, blocks 1-3',$,$,'4.2',$,$,$,.F.,$,#77,.CONSTRUCTION.);
#79=IFCTASKTIME('Masonry upper floor, blocks 1-3 Time',.PREDICTED.,$,.WORKTIME.,'P0Y0M15D','2027-03-01T07:00:00','2027-03-19T07:00:00','2027-06-11T07:00:00','2027-07-01T07:00:00','2027-06-11T07:00:00','2027-07-01T07:00:00','P0Y0M0D','P0Y0M0D',.T.,$,$,$,$,$,0.0);
#80=IFCTASK('K5dhPxAPv3O9NdoXuT3fAz',#6,'Masonry upper floor, blocks 1-3',$,$,'4.3',$,$,$,.F.,$,#79,.CONSTRUCTION.);
#81=IFCTASKTIME('Roof structure, blocks 1-3 Time',.PREDICTED.,$,.WORKTIME.,'P0Y0M12D','2027-03-01T07:00:00','2027-03-16T07:00:00','2027-07-02T07:00:00','2027-07-19T07:00:00','2027-07-02T07:00:00','2027-07-19T07:00:00','P0Y0M0D','P0Y0M0D',.T.,$,$,$,$,$,0.0);
#82=IFCTASK('SZmv771dRr$x9h_FlLHrez',#6,'Roof structure, blocks 1-3',$,$,'4.4',$,$,$,.F.,$,#81,.CONSTRUCTION.);
#83=IFCTASKTIME('Roof tiles, blocks 1-3 Time',.PREDICTED.,$,.WORKTIME.,'P0Y0M10D','2027-03-01T07:00:00','2027-03-12T07:00:00','2027-07-20T07:00:00','2027-08-23T07:00:00','2027-07-20T07:00:00','2027-08-23T07:00:00','P0Y0M0D','P0Y0M0D',.T.,$,$,$,$,$,0.0);
#84=IFCTASK('ibRlhpMPt$fTLZ3FeDZfUj',#6,'Roof tiles, blocks 1-3',$,$,'4.5',$,$,$,.F.,$,#83,.CONSTRUCTION.);
#85=IFCTASKTIME('Topping out, phase 1 Time',.PREDICTED.,$,.WORKTIME.,'P0Y0M0D','2027-03-01T07:00:00','2027-03-01T07:00:00','2027-08-23T07:00:00','2027-08-23T07:00:00','2028-06-27T07:00:00','2028-06-27T07:00:00','P0Y0M215D','P0Y0M215D',.F.,$,$,$,$,$,0.0);
#86=IFCTASK('ttklzPZHV5nDGRu$EjUFv9',#6,'Topping out, phase 1',$,$,'4.6',$,$,$,.T.,$,#85,.CONSTRUCTION.);
#87=IFCTASKTIME('5. Structural works phase 2 Time',.PREDICTED.,$,.WORKTIME.,'P0Y0M5D','2027-03-01T07:00:00','2027-03-05T07:00:00','2027-08-24T07:00:00','2027-11-04T07:00:00','2027-08-24T07:00:00','2028-06-27T07:00:00','P0Y0M0D','P0Y0M0D',.T.,$,$,$,$,$,0.0);
#88=IFCTASK('RxiJJZFd$Bb$CHhnrpB$ER',#6,'5. Structural works phase 2',$,$,'5',$,$,$,.F.,$,#87,.CONSTRUCTION.);
#89=IFCTASKTIME('Masonry ground floor, blocks 4-5 Time',.PREDICTED.,$,.WORKTIME.,'P0Y0M15D','2027-03-01T07:00:00','2027-03-19T07:00:00','2027-08-24T07:00:00','2027-09-13T07:00:00','2027-08-24T07:00:00','2027-09-13T07:00:00','P0Y0M0D','P0Y0M0D',.T.,$,$,$,$,$,0.0);
#90=IFCTASK('3jcj91ktl$Y5P35F2RvbZf',#6,'Masonry ground floor, blocks 4-5',$,$,'5.1',$,$,$,.F.,$,#89,.CONSTRUCTION.);
#91=IFCTASKTIME('Upper floor slab, blocks 4-5 Time',.PREDICTED.,$,.WORKTIME.,'P0Y0M8D','2027-03-01T07:00:00','2027-03-10T07:00:00','2027-09-14T07:00:00','2027-09-23T07:00:00','2028-04-28T07:00:00','2028-05-10T07:00:00','P0Y0M0D','P0Y0M160D',.F.,$,$,$,$,$,0.0);
#92=IFCTASK('qhZf4VwXB38fFdA$xBqRzP',#6,'Upper floor slab, blocks 4-5',$,$,'5.2',$,$,$,.F.,$,#91,.CONSTRUCTION.);
#93=IFCTASKTIME('Masonry upper floor, blocks 4-5 Time',.PREDICTED.,$,.WORKTIME.,'P0Y0M12D','2027-03-01T07:00:00','2027-03-16T07:00:00','2027-09-24T07:00:00','2027-10-11T07:00:00','2028-05-11T07:00:00','2028-05-29T07:00:00','P0Y0M0D','P0Y0M160D',.F.,$,$,$,$,$,0.0);
#94=IFCTASK('ttA79VYF29MzR$v1AXjv$N',#6,'Masonry upper floor, blocks 4-5',$,$,'5.3',$,$,$,.F.,$,#93,.CONSTRUCTION.);
#95=IFCTASKTIME('Roof structure, blocks 4-5 Time',.PREDICTED.,$,.WORKTIME.,'P0Y0M10D','2027-03-01T07:00:00','2027-03-12T07:00:00','2027-10-12T07:00:00','2027-10-25T07:00:00','2028-05-30T07:00:00','2028-06-13T07:00:00','P0Y0M0D','P0Y0M160D',.F.,$,$,$,$,$,0.0);
#96=IFCTASK('C9cfmPA$mDIP0zpHft_HhJ',#6,'Roof structure, blocks 4-5',$,$,'5.4',$,$,$,.F.,$,#95,.CONSTRUCTION.);
#97=IFCTASKTIME('Roof tiles, blocks 4-5 Time',.PREDICTED.,$,.WORKTIME.,'P0Y0M8D','2027-03-01T07:00:00','2027-03-10T07:00:00','2027-10-26T07:00:00','2027-11-04T07:00:00','2028-06-14T07:00:00','2028-06-23T07:00:00','P0Y0M0D','P0Y0M160D',.F.,$,$,$,$,$,0.0);
#98=IFCTASK('ivqxIF4$S115PzLn3FhVKX',#6,'Roof tiles, blocks 4-5',$,$,'5.5',$,$,$,.F.,$,#97,.CONSTRUCTION.);
#99=IFCTASKTIME('Topping out, phase 2 Time',.PREDICTED.,$,.WORKTIME.,'P0Y0M0D','2027-03-01T07:00:00','2027-03-01T07:00:00','2027-11-04T07:00:00','2027-11-04T07:00:00','2028-06-27T07:00:00','2028-06-27T07:00:00','P0Y0M162D','P0Y0M162D',.F.,$,$,$,$,$,0.0);
#100=IFCTASK('odkxknKn2fw$uH1Xq3el75',#6,'Topping out, phase 2',$,$,'5.6',$,$,$,.T.,$,#99,.CONSTRUCTION.);
#101=IFCTASKTIME('6. Facades & roofs Time',.PREDICTED.,$,.WORKTIME.,'P0Y0M5D','2027-03-01T07:00:00','2027-03-05T07:00:00','2027-09-30T07:00:00','2027-11-22T07:00:00','2027-09-30T07:00:00','2028-06-27T07:00:00','P0Y0M0D','P0Y0M0D',.T.,$,$,$,$,$,0.0);
#102=IFCTASK('upFxgRL1MPN5NR8$I38FzL',#6,'6. Facades & roofs',$,$,'6',$,$,$,.F.,$,#101,.INSTALLATION.);
#103=IFCTASKTIME('Window frames, blocks 1-3 Time',.PREDICTED.,$,.WORKTIME.,'P0Y0M10D','2027-03-01T07:00:00','2027-03-12T07:00:00','2027-09-30T07:00:00','2027-10-13T07:00:00','2027-09-30T07:00:00','2027-10-13T07:00:00','P0Y0M0D','P0Y0M0D',.T.,$,$,$,$,$,0.0);
#104=IFCTASK('HNmdLjIHX7jNnvoFIzmNMj',#6,'Window frames, blocks 1-3',$,$,'6.1',$,$,$,.F.,$,#103,.INSTALLATION.);
#105=IFCTASKTIME('Window frames, blocks 4-5 Time',.PREDICTED.,$,.WORKTIME.,'P0Y0M8D','2027-03-01T07:00:00','2027-03-10T07:00:00','2027-10-14T07:00:00','2027-10-25T07:00:00','2028-05-17T07:00:00','2028-05-29T07:00:00','P0Y0M0D','P0Y0M150D',.F.,$,$,$,$,$,0.0);
#106=IFCTASK('uBIHLjwX3HmVM9anjNgZvf',#6,'Window frames, blocks 4-5',$,$,'6.2',$,$,$,.F.,$,#105,.INSTALLATION.);
#107=IFCTASKTIME('Facade sealing and insulation Time',.PREDICTED.,$,.WORKTIME.,'P0Y0M12D','2027-03-01T07:00:00','2027-03-16T07:00:00','2027-10-26T07:00:00','2027-11-10T07:00:00','2028-05-30T07:00:00','2028-06-15T07:00:00','P0Y0M0D','P0Y0M150D',.F.,$,$,$,$,$,0.0);
#108=IFCTASK('99gPj$UN4bZP4zXXIVt3LJ',#6,'Facade sealing and insulation',$,$,'6.3',$,$,$,.F.,$,#107,.INSTALLATION.);
#109=IFCTASKTIME('Gutters and rainwater downpipes Time',.PREDICTED.,$,.WORKTIME.,'P0Y0M8D','2027-03-01T07:00:00','2027-03-10T07:00:00','2027-11-11T07:00:00','2027-11-22T07:00:00','2028-06-16T07:00:00','2028-06-27T07:00:00','P0Y0M0D','P0Y0M150D',.F.,$,$,$,$,$,0.0);
#110=IFCTASK('ttgPHXJnaBJ7sd2V1Za3zv',#6,'Gutters and rainwater downpipes',$,$,'6.4',$,$,$,.F.,$,#109,.INSTALLATION.);
#111=IFCTASKTIME('Wind and weathertight, all blocks Time',.PREDICTED.,$,.WORKTIME.,'P0Y0M0D','2027-03-01T07:00:00','2027-03-01T07:00:00','2027-11-22T07:00:00','2027-11-22T07:00:00','2028-06-27T07:00:00','2028-06-27T07:00:00','P0Y0M150D','P0Y0M150D',.F.,$,$,$,$,$,0.0);
#112=IFCTASK('uBY$Y9rlZpm$uFDnhThlDF',#6,'Wind and weathertight, all blocks',$,$,'6.5',$,$,$,.T.,$,#111,.INSTALLATION.);
#113=IFCTASKTIME('7. Building services Time',.PREDICTED.,$,.WORKTIME.,'P0Y0M5D','2027-03-01T07:00:00','2027-03-05T07:00:00','2027-10-06T07:00:00','2027-12-22T07:00:00','2027-10-06T07:00:00','2027-12-22T07:00:00','P0Y0M0D','P0Y0M0D',.T.,$,$,$,$,$,0.0);
#114=IFCTASK('7rA7rv_fAfLlJ1LHHLHr4h',#6,'7. Building services',$,$,'7',$,$,$,.F.,$,#113,.INSTALLATION.);
#115=IFCTASKTIME('Electrical, blocks 1-3 Time',.PREDICTED.,$,.WORKTIME.,'P0Y0M12D','2027-03-01T07:00:00','2027-03-16T07:00:00','2027-10-06T07:00:00','2027-10-21T07:00:00','2027-10-06T07:00:00','2027-10-21T07:00:00','P0Y0M0D','P0Y0M0D',.T.,$,$,$,$,$,0.0);
#116=IFCTASK('_FD7dtbFkh5VQZt1t74TF5',#6,'Electrical, blocks 1-3',$,$,'7.1',$,$,$,.F.,$,#115,.INSTALLATION.);
#117=IFCTASKTIME('Electrical, blocks 4-5 Time',.PREDICTED.,$,.WORKTIME.,'P0Y0M8D','2027-03-01T07:00:00','2027-03-10T07:00:00','2027-10-13T07:00:00','2027-10-22T07:00:00','2027-10-13T07:00:00','2027-10-22T07:00:00','P0Y0M0D','P0Y0M0D',.T.,$,$,$,$,$,0.0);
#118=IFCTASK('BDXL7LylFFajwJ$XOp5H5h',#6,'Electrical, blocks 4-5',$,$,'7.2',$,$,$,.F.,$,#117,.INSTALLATION.);
#119=IFCTASKTIME('Plumbing, blocks 1-3 Time',.PREDICTED.,$,.WORKTIME.,'P0Y0M10D','2027-03-01T07:00:00','2027-03-12T07:00:00','2027-10-25T07:00:00','2027-11-05T07:00:00','2027-10-25T07:00:00','2027-11-05T07:00:00','P0Y0M0D','P0Y0M0D',.T.,$,$,$,$,$,0.0);
#120=IFCTASK('ZXxnjTXvCZgzHz1XKDgTzr',#6,'Plumbing, blocks 1-3',$,$,'7.3',$,$,$,.F.,$,#119,.INSTALLATION.);
#121=IFCTASKTIME('Plumbing, blocks 4-5 Time',.PREDICTED.,$,.WORKTIME.,'P0Y0M8D','2027-03-01T07:00:00','2027-03-10T07:00:00','2027-11-08T07:00:00','2027-11-17T07:00:00','2027-11-08T07:00:00','2027-11-17T07:00:00','P0Y0M0D','P0Y0M0D',.T.,$,$,$,$,$,0.0);
#122=IFCTASK('PbuV8LKnon7hAvsHGX93dr',#6,'Plumbing, blocks 4-5',$,$,'7.4',$,$,$,.F.,$,#121,.INSTALLATION.);
#123=IFCTASKTIME('Heat pumps, all dwellings Time',.PREDICTED.,$,.WORKTIME.,'P0Y0M15D','2027-03-01T07:00:00','2027-03-19T07:00:00','2027-11-18T07:00:00','2027-12-08T07:00:00','2027-11-18T07:00:00','2027-12-08T07:00:00','P0Y0M0D','P0Y0M0D',.T.,$,$,$,$,$,0.0);
#124=IFCTASK('s9Qf4zKXlj4h_7Unfj9BmX',#6,'Heat pumps, all dwellings',$,$,'7.5',$,$,$,.F.,$,#123,.INSTALLATION.);
#125=IFCTASKTIME('Heat recovery ventilation units Time',.PREDICTED.,$,.WORKTIME.,'P0Y0M10D','2027-03-01T07:00:00','2027-03-12T07:00:00','2027-12-09T07:00:00','2027-12-22T07:00:00','2027-12-09T07:00:00','2027-12-22T07:00:00','P0Y0M0D','P0Y0M0D',.T.,$,$,$,$,$,0.0);
#126=IFCTASK('VTWNKBv9$Bb1ibaljfQDip',#6,'Heat recovery ventilation units',$,$,'7.6',$,$,$,.F.,$,#125,.INSTALLATION.);
#127=IFCTASKTIME('8. Fit-out phase 1 Time',.PREDICTED.,$,.WORKTIME.,'P0Y0M5D','2027-03-01T07:00:00','2027-03-05T07:00:00','2027-12-06T07:00:00','2028-02-14T07:00:00','2027-12-06T07:00:00','2028-02-14T07:00:00','P0Y0M0D','P0Y0M0D',.T.,$,$,$,$,$,0.0);
#128=IFCTASK('NvyrJ3BHTjCxBpf1vxkxHr',#6,'8. Fit-out phase 1',$,$,'8',$,$,$,.F.,$,#127,.CONSTRUCTION.);
#129=IFCTASKTIME('Plastering, blocks 1-3 Time',.PREDICTED.,$,.WORKTIME.,'P0Y0M15D','2027-03-01T07:00:00','2027-03-19T07:00:00','2027-12-06T07:00:00','2027-12-24T07:00:00','2027-12-06T07:00:00','2027-12-24T07:00:00','P0Y0M0D','P0Y0M0D',.T.,$,$,$,$,$,0.0);
#130=IFCTASK('ZziRWXJFOHm1qF7$kzOV8j',#6,'Plastering, blocks 1-3',$,$,'8.1',$,$,$,.F.,$,#129,.CONSTRUCTION.);
#131=IFCTASKTIME('Tiling, blocks 1-3 Time',.PREDICTED.,$,.WORKTIME.,'P0Y0M10D','2027-03-01T07:00:00','2027-03-12T07:00:00','2027-12-27T07:00:00','2028-01-07T07:00:00','2027-12-27T07:00:00','2028-01-07T07:00:00','P0Y0M0D','P0Y0M0D',.T.,$,$,$,$,$,0.0);
#132=IFCTASK('FPcjd9BlN5tRv1TnoJwdL9',#6,'Tiling, blocks 1-3',$,$,'8.2',$,$,$,.F.,$,#131,.CONSTRUCTION.);
#133=IFCTASKTIME('Kitchens, blocks 1-3 Time',.PREDICTED.,$,.WORKTIME.,'P0Y0M8D','2027-03-01T07:00:00','2027-03-10T07:00:00','2028-01-10T07:00:00','2028-01-19T07:00:00','2028-01-10T07:00:00','2028-01-19T07:00:00','P0Y0M0D','P0Y0M0D',.T.,$,$,$,$,$,0.0);
#134=IFCTASK('dbO$oZNfaLFL_vMH2tUnT5',#6,'Kitchens, blocks 1-3',$,$,'8.3',$,$,$,.F.,$,#133,.INSTALLATION.);
#135=IFCTASKTIME('Painting, blocks 1-3 Time',.PREDICTED.,$,.WORKTIME.,'P0Y0M10D','2027-03-01T07:00:00','2027-03-12T07:00:00','2028-01-20T07:00:00','2028-02-02T07:00:00','2028-01-20T07:00:00','2028-02-02T07:00:00','P0Y0M0D','P0Y0M0D',.T.,$,$,$,$,$,0.0);
#136=IFCTASK('LvSLZ9Rn6FSj6pDFLzvp0N',#6,'Painting, blocks 1-3',$,$,'8.4',$,$,$,.F.,$,#135,.CONSTRUCTION.);
#137=IFCTASKTIME('Floor finishes, blocks 1-3 Time',.PREDICTED.,$,.WORKTIME.,'P0Y0M8D','2027-03-01T07:00:00','2027-03-10T07:00:00','2028-02-03T07:00:00','2028-02-14T07:00:00','2028-02-03T07:00:00','2028-02-14T07:00:00','P0Y0M0D','P0Y0M0D',.T.,$,$,$,$,$,0.0);
#138=IFCTASK('wF1r77P9p5X3nD71MnvDCZ',#6,'Floor finishes, blocks 1-3',$,$,'8.5',$,$,$,.F.,$,#137,.CONSTRUCTION.);
#139=IFCTASKTIME('9. Fit-out phase 2 Time',.PREDICTED.,$,.WORKTIME.,'P0Y0M5D','2027-03-01T07:00:00','2027-03-05T07:00:00','2028-02-15T07:00:00','2028-04-06T07:00:00','2028-02-15T07:00:00','2028-06-27T07:00:00','P0Y0M0D','P0Y0M0D',.T.,$,$,$,$,$,0.0);
#140=IFCTASK('fTj7Lf87_NkPapf1HdCRnX',#6,'9. Fit-out phase 2',$,$,'9',$,$,$,.F.,$,#139,.CONSTRUCTION.);
#141=IFCTASKTIME('Plastering, blocks 4-5 Time',.PREDICTED.,$,.WORKTIME.,'P0Y0M12D','2027-03-01T07:00:00','2027-03-16T07:00:00','2028-02-15T07:00:00','2028-03-01T07:00:00','2028-02-15T07:00:00','2028-03-01T07:00:00','P0Y0M0D','P0Y0M0D',.T.,$,$,$,$,$,0.0);
#142=IFCTASK('RR8FDJpnYdaJsd2VXpgZzh',#6,'Plastering, blocks 4-5',$,$,'9.1',$,$,$,.F.,$,#141,.CONSTRUCTION.);
#143=IFCTASKTIME('Tiling, blocks 4-5 Time',.PREDICTED.,$,.WORKTIME.,'P0Y0M8D','2027-03-01T07:00:00','2027-03-10T07:00:00','2028-03-02T07:00:00','2028-03-13T07:00:00','2028-05-19T07:00:00','2028-05-31T07:00:00','P0Y0M0D','P0Y0M52D',.F.,$,$,$,$,$,0.0);
#144=IFCTASK('HfG71zqn0hLldZN1bXjv19',#6,'Tiling, blocks 4-5',$,$,'9.2',$,$,$,.F.,$,#143,.CONSTRUCTION.);
#145=IFCTASKTIME('Kitchens, blocks 4-5 Time',.PREDICTED.,$,.WORKTIME.,'P0Y0M5D','2027-03-01T07:00:00','2027-03-05T07:00:00','2028-03-14T07:00:00','2028-03-20T07:00:00','2028-06-01T07:00:00','2028-06-08T07:00:00','P0Y0M0D','P0Y0M52D',.F.,$,$,$,$,$,0.0);
#146=IFCTASK('a1$ZyV2FutlriR4H$$pdnR',#6,'Kitchens, blocks 4-5',$,$,'9.3',$,$,$,.F.,$,#145,.INSTALLATION.);
#147=IFCTASKTIME('Painting, blocks 4-5 Time',.PREDICTED.,$,.WORKTIME.,'P0Y0M8D','2027-03-01T07:00:00','2027-03-10T07:00:00','2028-03-21T07:00:00','2028-03-30T07:00:00','2028-06-09T07:00:00','2028-06-20T07:00:00','P0Y0M0D','P0Y0M52D',.F.,$,$,$,$,$,0.0);
#148=IFCTASK('uJZfGfOP7Zar0Z1VwpTNgf',#6,'Painting, blocks 4-5',$,$,'9.4',$,$,$,.F.,$,#147,.CONSTRUCTION.);
#149=IFCTASKTIME('Floor finishes, blocks 4-5 Time',.PREDICTED.,$,.WORKTIME.,'P0Y0M5D','2027-03-01T07:00:00','2027-03-05T07:00:00','2028-03-31T07:00:00','2028-04-06T07:00:00','2028-06-21T07:00:00','2028-06-27T07:00:00','P0Y0M52D','P0Y0M52D',.F.,$,$,$,$,$,0.0);
#150=IFCTASK('2npvDjzHFHOPKXVX_b9BG1',#6,'Floor finishes, blocks 4-5',$,$,'9.5',$,$,$,.F.,$,#149,.CONSTRUCTION.);
#151=IFCTASKTIME('10. Final site works Time',.PREDICTED.,$,.WORKTIME.,'P0Y0M5D','2027-03-01T07:00:00','2027-03-05T07:00:00','2028-03-13T07:00:00','2028-05-29T07:00:00','2028-03-13T07:00:00','2028-05-29T07:00:00','P0Y0M0D','P0Y0M0D',.T.,$,$,$,$,$,0.0);
#152=IFCTASK('TZO1ETX7iJCxthQlpr3Nwb',#6,'10. Final site works',$,$,'10',$,$,$,.F.,$,#151,.CONSTRUCTION.);
#153=IFCTASKTIME('Connect permanent sewer Time',.PREDICTED.,$,.WORKTIME.,'P0Y0M8D','2027-03-01T07:00:00','2027-03-10T07:00:00','2028-03-13T07:00:00','2028-03-22T07:00:00','2028-03-13T07:00:00','2028-03-22T07:00:00','P0Y0M0D','P0Y0M0D',.T.,$,$,$,$,$,0.0);
#154=IFCTASK('E7onb1H7GpgFJDjnLdu1wb',#6,'Connect permanent sewer',$,$,'10.1',$,$,$,.F.,$,#153,.INSTALLATION.);
#155=IFCTASKTIME('Paving and pavements Time',.PREDICTED.,$,.WORKTIME.,'P0Y0M15D','2027-03-01T07:00:00','2027-03-19T07:00:00','2028-03-23T07:00:00','2028-04-12T07:00:00','2028-03-23T07:00:00','2028-04-12T07:00:00','P0Y0M0D','P0Y0M0D',.T.,$,$,$,$,$,0.0);
#156=IFCTASK('6LYhz7XPfb51edA1zlXDer',#6,'Paving and pavements',$,$,'10.2',$,$,$,.F.,$,#155,.CONSTRUCTION.);
#157=IFCTASKTIME('Construct parking spaces Time',.PREDICTED.,$,.WORKTIME.,'P0Y0M8D','2027-03-01T07:00:00','2027-03-10T07:00:00','2028-04-13T07:00:00','2028-04-26T07:00:00','2028-04-13T07:00:00','2028-04-26T07:00:00','P0Y0M0D','P0Y0M0D',.T.,$,$,$,$,$,0.0);
#158=IFCTASK('dRuFflu7cpe9rPoVqFvpml',#6,'Construct parking spaces',$,$,'10.3',$,$,$,.F.,$,#157,.CONSTRUCTION.);
#159=IFCTASKTIME('Landscaping and trees Time',.PREDICTED.,$,.WORKTIME.,'P0Y0M10D','2027-03-01T07:00:00','2027-03-12T07:00:00','2028-04-28T07:00:00','2028-05-12T07:00:00','2028-04-28T07:00:00','2028-05-12T07:00:00','P0Y0M0D','P0Y0M0D',.T.,$,$,$,$,$,0.0);
#160=IFCTASK('sJb1gx1PLJoBqlLnBDj7$f',#6,'Landscaping and trees',$,$,'10.4',$,$,$,.F.,$,#159,.CONSTRUCTION.);
#161=IFCTASKTIME('Play equipment Time',.PREDICTED.,$,.WORKTIME.,'P0Y0M5D','2027-03-01T07:00:00','2027-03-05T07:00:00','2028-05-15T07:00:00','2028-05-19T07:00:00','2028-05-15T07:00:00','2028-05-19T07:00:00','P0Y0M0D','P0Y0M0D',.T.,$,$,$,$,$,0.0);
#162=IFCTASK('M7ijb$tfO7D91L_F1zWdlh',#6,'Play equipment',$,$,'10.5',$,$,$,.F.,$,#161,.INSTALLATION.);
#163=IFCTASKTIME('Street lighting Time',.PREDICTED.,$,.WORKTIME.,'P0Y0M5D','2027-03-01T07:00:00','2027-03-05T07:00:00','2028-05-22T07:00:00','2028-05-29T07:00:00','2028-05-22T07:00:00','2028-05-29T07:00:00','P0Y0M0D','P0Y0M0D',.T.,$,$,$,$,$,0.0);
#164=IFCTASK('i7q5IpXPL7mVQTVVSxJvz7',#6,'Street lighting',$,$,'10.6',$,$,$,.F.,$,#163,.INSTALLATION.);
#165=IFCTASKTIME('11. Handover Time',.PREDICTED.,$,.WORKTIME.,'P0Y0M5D','2027-03-01T07:00:00','2027-03-05T07:00:00','2028-05-30T07:00:00','2028-06-27T07:00:00','2028-05-30T07:00:00','2028-06-27T07:00:00','P0Y0M0D','P0Y0M0D',.T.,$,$,$,$,$,0.0);
#166=IFCTASK('OxqpLj_FuX_txFRHA1XpuJ',#6,'11. Handover',$,$,'11',$,$,$,.F.,$,#165,.CONSTRUCTION.);
#167=IFCTASKTIME('Pre-handover inspection, phase 1 Time',.PREDICTED.,$,.WORKTIME.,'P0Y0M5D','2027-03-01T07:00:00','2027-03-05T07:00:00','2028-05-30T07:00:00','2028-06-06T07:00:00','2028-05-30T07:00:00','2028-06-06T07:00:00','P0Y0M0D','P0Y0M0D',.T.,$,$,$,$,$,0.0);
#168=IFCTASK('xlBnT5_fAhfZVHv1jblzhp',#6,'Pre-handover inspection, phase 1',$,$,'11.1',$,$,$,.F.,$,#167,.ATTENDANCE.);
#169=IFCTASKTIME('Pre-handover inspection, phase 2 Time',.PREDICTED.,$,.WORKTIME.,'P0Y0M5D','2027-03-01T07:00:00','2027-03-05T07:00:00','2028-06-07T07:00:00','2028-06-13T07:00:00','2028-06-07T07:00:00','2028-06-13T07:00:00','P0Y0M0D','P0Y0M0D',.T.,$,$,$,$,$,0.0);
#170=IFCTASK('kRRl5BnPd7m$KbCnCF93Pr',#6,'Pre-handover inspection, phase 2',$,$,'11.2',$,$,$,.F.,$,#169,.ATTENDANCE.);
#171=IFCTASKTIME('Handover of dwellings Time',.PREDICTED.,$,.WORKTIME.,'P0Y0M10D','2027-03-01T07:00:00','2027-03-12T07:00:00','2028-06-14T07:00:00','2028-06-27T07:00:00','2028-06-14T07:00:00','2028-06-27T07:00:00','P0Y0M0D','P0Y0M0D',.T.,$,$,$,$,$,0.0);
#172=IFCTASK('1nzt_BudbhxVkRCHoJYFXT',#6,'Handover of dwellings',$,$,'11.3',$,$,$,.F.,$,#171,.ATTENDANCE.);
#173=IFCTASKTIME('Residential district complete Time',.PREDICTED.,$,.WORKTIME.,'P0Y0M0D','2027-03-01T07:00:00','2027-03-01T07:00:00','2028-06-27T07:00:00','2028-06-27T07:00:00','2028-06-27T07:00:00','2028-06-27T07:00:00','P0Y0M0D','P0Y0M0D',.T.,$,$,$,$,$,0.0);
#174=IFCTASK('O5Kb4VM1wlOdWpLHVJoVql',#6,'Residential district complete',$,$,'11.4',$,$,$,.T.,$,#173,.CONSTRUCTION.);
#175=IFCRELNESTS('0nhHvrOvutNZfb0VJ539ml',#6,'WBS 1. Site preparation',$,#40,( #42,#44,#46,#48,#50));
#176=IFCRELNESTS('jxHJhNW9JhXRfds$JfERVd',#6,'WBS 2. Foundations phase 1 (blocks 1-3)',$,#52,( #54,#56,#58,#60,#62));
#177=IFCRELNESTS('WXDdbbDFUvm189O1JNcpK1',#6,'WBS 3. Foundations phase 2 (blocks 4-5)',$,#64,( #66,#68,#70,#72));
#178=IFCRELNESTS('fd0tkJjFO7jNxbKlqTSBO3',#6,'WBS 4. Structural works phase 1',$,#74,( #76,#78,#80,#82,#84,#86));
#179=IFCRELNESTS('iP0tABV7m3O9nD9$TX7Dm$',#6,'WBS 5. Structural works phase 2',$,#88,( #90,#92,#94,#96,#98,#100));
#180=IFCRELNESTS('1njPLDwv_Nw149SFrjdx5l',#6,'WBS 6. Facades & roofs',$,#102,( #104,#106,#108,#110,#112));
#181=IFCRELNESTS('E76toXcVpRp9np7$Q7qbBz',#6,'WBS 7. Building services',$,#114,( #116,#118,#120,#122,#124,#126));
#182=IFCRELNESTS('Gfelz79N8XYfpl3lMHZ9qn',#6,'WBS 8. Fit-out phase 1',$,#128,( #130,#132,#134,#136,#138));
#183=IFCRELNESTS('UXRHlXB1ifUfBjZHi$Xpij',#6,'WBS 9. Fit-out phase 2',$,#140,( #142,#144,#146,#148,#150));
#184=IFCRELNESTS('MvaL37NfcDOdmBkXkV93bb',#6,'WBS 10. Final site works',$,#152,( #154,#156,#158,#160,#162,#164));
#185=IFCRELNESTS('Hf8VKLhHHj4pmrkXUdyZ9l',#6,'WBS 11. Handover',$,#166,( #168,#170,#172,#174));
#186=IFCRELNESTS('tjjP5r1vgdnD4TBHzDgTrv',#6,'WBS Hoofd',$,#37,(#40,#52,#64,#74,#88,#102,#114,#128,#140,#152,#166));
#187=IFCRELSEQUENCE('_poFj35Fmp_tfP6$8ZzNEf',#6,$,$,#42,#44,$,.FINISH_START.,$);
#188=IFCRELSEQUENCE('BjR$YRYFc$wJE$1Vwt6PJZ',#6,$,$,#44,#46,$,.FINISH_START.,$);
#189=IFCRELSEQUENCE('JN8V0FLHtXhHDlrnrfwJ2X',#6,$,$,#46,#48,$,.FINISH_START.,$);
#190=IFCRELSEQUENCE('2JULZ9BHLPSBCnt1DPCbXP',#6,$,$,#48,#50,$,.FINISH_START.,$);
#191=IFCRELSEQUENCE('$Dkl5LJVpRbXoXDlBjtr8D',#6,$,$,#54,#56,$,.FINISH_START.,$);
#192=IFCLAGTIME('Lag',.PREDICTED.,$,IFCDURATION('P3D'),.WORKTIME.);
#193=IFCRELSEQUENCE('3H7ZK9JVRXR10TVXa9gNgD',#6,$,$,#56,#58,#192,.START_START.,$);
#194=IFCRELSEQUENCE('sDXhNJr18frn9NWV7VbFnb',#6,$,$,#58,#60,$,.FINISH_START.,$);
#195=IFCRELSEQUENCE('KdOH7rWtfbRV_dw$83PjUJ',#6,$,$,#60,#62,$,.FINISH_START.,$);
#196=IFCLAGTIME('Lag',.PREDICTED.,$,IFCDURATION('P3D'),.WORKTIME.);
#197=IFCRELSEQUENCE('R5ibe5ktL7G1Wp3F47aruD',#6,$,$,#66,#68,#196,.START_START.,$);
#198=IFCRELSEQUENCE('ItibOxAdLP4DWpTFA$H3j1',#6,$,$,#68,#70,$,.FINISH_START.,$);
#199=IFCRELSEQUENCE('prF5cD2Ngb37oVbFGXHB8j',#6,$,$,#70,#72,$,.FINISH_START.,$);
#200=IFCRELSEQUENCE('jbpPrZedJhdJgh_nBDJv3v',#6,$,$,#76,#78,$,.FINISH_START.,$);
#201=IFCRELSEQUENCE('f7az_rWt3zMnJJFVvxIxhf',#6,$,$,#78,#80,$,.FINISH_START.,$);
#202=IFCRELSEQUENCE('$FhlZ9jV7Zi3LN4FPBij2T',#6,$,$,#80,#82,$,.FINISH_START.,$);
#203=IFCRELSEQUENCE('IfWNGv67EFVz71JnXHvb75',#6,$,$,#82,#84,$,.FINISH_START.,$);
#204=IFCRELSEQUENCE('n7QN8LCXPpw1SvMlEFxlVd',#6,$,$,#84,#86,$,.FINISH_START.,$);
#205=IFCRELSEQUENCE('uDtpbRr$GTi3fv2FXpgT$p',#6,$,$,#90,#92,$,.FINISH_START.,$);
#206=IFCRELSEQUENCE('ST8Vqbh1U7O9rvIFaxxHn$',#6,$,$,#92,#94,$,.FINISH_START.,$);
#207=IFCRELSEQUENCE('PxiRuD1Plp0Fv1RHQ31x9l',#6,$,$,#94,#96,$,.FINISH_START.,$);
#208=IFCRELSEQUENCE('0F5VaFiVNnnpK1JFNJVDCZ',#6,$,$,#96,#98,$,.FINISH_START.,$);
#209=IFCRELSEQUENCE('TXL$U5E9rZypSJplhzVR$N',#6,$,$,#98,#100,$,.FINISH_START.,$);
#210=IFCRELSEQUENCE('s9IlP5gPbrPjcZFVVnDPP7',#6,$,$,#104,#106,$,.FINISH_START.,$);
#211=IFCRELSEQUENCE('aTGd1PwXrTaBy9anVJgfEt',#6,$,$,#106,#108,$,.FINISH_START.,$);
#212=IFCRELSEQUENCE('kxV3_PzlfbrF$LEn_9MNId',#6,$,$,#108,#110,$,.FINISH_START.,$);
#213=IFCRELSEQUENCE('HfWfyXM1EHTdqrM$PBqRJ1',#6,$,$,#110,#112,$,.FINISH_START.,$);
#214=IFCLAGTIME('Lag',.PREDICTED.,$,IFCDURATION('P5D'),.WORKTIME.);
#215=IFCRELSEQUENCE('P$Fpnl9Nk$NZj$5HmXdjgt',#6,$,$,#116,#118,#214,.START_START.,$);
#216=IFCRELSEQUENCE('ixNRKtbnsNrn71zFWtgNEt',#6,$,$,#118,#120,$,.FINISH_START.,$);
#217=IFCRELSEQUENCE('UTGvFBvtjfZtPFFVZz8$MJ',#6,$,$,#120,#122,$,.FINISH_START.,$);
#218=IFCRELSEQUENCE('AD9p3vPtD5VzXRiHyvCRv5',#6,$,$,#122,#124,$,.FINISH_START.,$);
#219=IFCRELSEQUENCE('Nvq5QD_Nwl0FNPs1Xjgfs3',#6,$,$,#124,#126,$,.FINISH_START.,$);
#220=IFCRELSEQUENCE('2lF563yl5lbXk5GXI3G9eT',#6,$,$,#130,#132,$,.FINISH_START.,$);
#221=IFCRELSEQUENCE('yFfjZ52NAfDPO1VVSfs3hJ',#6,$,$,#132,#134,$,.FINISH_START.,$);
#222=IFCRELSEQUENCE('mfO1o1Q7SXrFdFN$DBDdV3',#6,$,$,#134,#136,$,.FINISH_START.,$);
#223=IFCRELSEQUENCE('MP8VaJg$UDEv_7clbXjv3v',#6,$,$,#136,#138,$,.FINISH_START.,$);
#224=IFCRELSEQUENCE('vHJd9zpVD7D9Bd61ClpPjZ',#6,$,$,#142,#144,$,.FINISH_START.,$);
#225=IFCRELSEQUENCE('rJ39sFT1U7mXcFnXpBpdPv',#6,$,$,#144,#146,$,.FINISH_START.,$);
#226=IFCRELSEQUENCE('mf09QJs1qd4pCl5nYBJ73d',#6,$,$,#146,#148,$,.FINISH_START.,$);
#227=IFCRELSEQUENCE('0HVhXNmNcXEvU98$bVLXGn',#6,$,$,#148,#150,$,.FINISH_START.,$);
#228=IFCRELSEQUENCE('YzCxg$l7OPPBi$TFgLeVCn',#6,$,$,#154,#156,$,.FINISH_START.,$);
#229=IFCRELSEQUENCE('b$$TiBXvO7x1eVZluri5B7',#6,$,$,#156,#158,$,.FINISH_START.,$);
#230=IFCRELSEQUENCE('_jM36ZmfybBnPlDllLFL6$',#6,$,$,#158,#160,$,.FINISH_START.,$);
#231=IFCRELSEQUENCE('XVjv1zKF63UNXl$V8z$5RX',#6,$,$,#160,#162,$,.FINISH_START.,$);
#232=IFCRELSEQUENCE('6nn5wPkHHVAlJVf1cZR1UF',#6,$,$,#162,#164,$,.FINISH_START.,$);
#233=IFCRELSEQUENCE('tp1rTRIlp5drGRGXiXhXij',#6,$,$,#168,#170,$,.FINISH_START.,$);
#234=IFCRELSEQUENCE('KvCxYbcVXvbV_PYVbXztGV',#6,$,$,#170,#172,$,.FINISH_START.,$);
#235=IFCRELSEQUENCE('J9iRSJ2F8tVbB7wlbRk1Iv',#6,$,$,#172,#174,$,.FINISH_START.,$);
#236=IFCLAGTIME('Lag',.PREDICTED.,$,IFCDURATION('P19D'),.WORKTIME.);
#237=IFCRELSEQUENCE('nPgzY5o9$rxV6pblczvp8p',#6,$,$,#42,#54,#236,.START_START.,$);
#238=IFCLAGTIME('Lag',.PREDICTED.,$,IFCRATIOMEASURE(0.4),.WORKTIME.);
#239=IFCRELSEQUENCE('S$nDTtLlZ$wjUNClsx_r0t',#6,$,$,#54,#66,#238,.START_START.,$);
#240=IFCLAGTIME('Lag',.PREDICTED.,$,IFCDURATION('-P6D'),.WORKTIME.);
#241=IFCRELSEQUENCE('2lfjbXZl91FhczDlxBS3FV',#6,$,$,#72,#76,#240,.FINISH_START.,$);
#242=IFCRELSEQUENCE('tJJdBT87_Zq5PZXXe5_riJ',#6,$,$,#84,#90,$,.FINISH_START.,$);
#243=IFCLAGTIME('Lag',.PREDICTED.,$,IFCDURATION('P27D'),.WORKTIME.);
#244=IFCRELSEQUENCE('J9iJNna1cDufbBUXzD2r09',#6,$,$,#90,#104,#243,.START_START.,$);
#245=IFCLAGTIME('Lag',.PREDICTED.,$,IFCDURATION('P2D'),.WORKTIME.);
#246=IFCRELSEQUENCE('_pkHB3CVRVb$avcHJ5ztmX',#6,$,$,#98,#110,#245,.FINISH_FINISH.,$);
#247=IFCLAGTIME('Lag',.PREDICTED.,$,IFCRATIOMEASURE(0.4),.WORKTIME.);
#248=IFCRELSEQUENCE('9JJPjVQVjhfZBDnXrtMNQl',#6,$,$,#104,#116,#247,.START_START.,$);
#249=IFCLAGTIME('Lag',.PREDICTED.,$,IFCDURATION('-P13D'),.WORKTIME.);
#250=IFCRELSEQUENCE('gvCpJVQXL78fhZDn$3Wd$J',#6,$,$,#126,#130,#249,.FINISH_START.,$);
#251=IFCRELSEQUENCE('MPGvpDfNQDG1OXZl4hNZlB',#6,$,$,#138,#142,$,.FINISH_START.,$);
#252=IFCLAGTIME('Lag',.PREDICTED.,$,IFCDURATION('P19D'),.WORKTIME.);
#253=IFCRELSEQUENCE('hz$ZKLZ1YvetfvYFXFztCZ',#6,$,$,#142,#154,#252,.START_START.,$);
#254=IFCRELSEQUENCE('xHZfG7gPjNTtjpLHlLNZZx',#6,$,$,#164,#168,$,.FINISH_START.,$);
#255=IFCCREWRESOURCE('jNO1Yt3$ufzffRe$G1xX4d',#6,'Structural works crew','Overarching structural works crew moving from block to block',$,$,$,$,.USERDEFINED.);
#256=IFCLABORRESOURCE('0nhlplevijizlZBHPB4h21',#6,'Bricklayers',$,$,$,$,$,.USERDEFINED.);
#257=IFCLABORRESOURCE('NTBX8LaH1BrnzRWVHBjvz7',#6,'Carpenters','Roof structures plus window frames; the two overlap across the phase boundary',$,$,$,$,.USERDEFINED.);
#258=IFCLABORRESOURCE('nh5XSjUFIhpdyNO1vV3tyh',#6,'MEP fitters','Electrical and plumbing gangs moving from block to block, with a staggered start',$,$,$,$,.USERDEFINED.);
#259=IFCLABORRESOURCE('NPG7BPYnwZU5Z9aFHrZtKD',#6,'Plasterers',$,$,$,$,$,.USERDEFINED.);
#260=IFCLABORRESOURCE('gZ5n91c70rnhUfCl2xRFFb',#6,'Tilers',$,$,$,$,$,.USERDEFINED.);
#261=IFCLABORRESOURCE('ib39Ahz1elm1O17$2tc7$9',#6,'Kitchen fitters',$,$,$,$,$,.USERDEFINED.);
#262=IFCLABORRESOURCE('YzyB3r0tjt7DWjN1kXfZHh',#6,'Painters',$,$,$,$,$,.USERDEFINED.);
#263=IFCSUBCONTRACTRESOURCE('T$9xIjxXJBLl55WVTVfTjT',#6,'Civils contractor','Sewers, roads, paving and public space',$,$,$,$,.USERDEFINED.);
#264=IFCCONSTRUCTIONMATERIALRESOURCE('Z3KJHRB1mp2tVRqHUBj7$N',#6,'Concrete C20/25',$,$,$,$,$,.USERDEFINED.);
#265=IFCPROPERTYSINGLEVALUE('MaxUnits',$,IFCREAL(8),$);
#266=IFCPROPERTYSINGLEVALUE('CostPerHour',$,IFCMONETARYMEASURE(46),$);
#267=IFCPROPERTYSINGLEVALUE('ParentGuid',$,IFCTEXT('jNO1Yt3$ufzffRe$G1xX4d'),$);
#268=IFCPROPERTYSET('K5Fp1v67Q$wj_jpHpPKJE9',#6,'OPS_Resource',$,(#265,#266,#267));
#269=IFCRELDEFINESBYPROPERTIES('xlb1w3qFipWlN5iFwtQvTN',#6,$,$,(#256),#268);
#270=IFCPROPERTYSINGLEVALUE('MaxUnits',$,IFCREAL(8),$);
#271=IFCPROPERTYSINGLEVALUE('CostPerHour',$,IFCMONETARYMEASURE(45),$);
#272=IFCPROPERTYSINGLEVALUE('ParentGuid',$,IFCTEXT('jNO1Yt3$ufzffRe$G1xX4d'),$);
#273=IFCPROPERTYSET('L7SzwvMPlJq5J1Dnb56jgD',#6,'OPS_Resource',$,(#270,#271,#272));
#274=IFCRELDEFINESBYPROPERTIES('k5FDV9SlvtgzNPoVqzOH3v',#6,$,$,(#257),#273);
#275=IFCPROPERTYSINGLEVALUE('MaxUnits',$,IFCREAL(10),$);
#276=IFCPROPERTYSINGLEVALUE('CostPerHour',$,IFCMONETARYMEASURE(48),$);
#277=IFCPROPERTYSET('5hobKNXvSBZ91B61qTSB09',#6,'OPS_Resource',$,(#275,#276));
#278=IFCRELDEFINESBYPROPERTIES('id8nfFSHRBdj6Jv$ph7D4L',#6,$,$,(#258),#277);
#279=IFCPROPERTYSINGLEVALUE('MaxUnits',$,IFCREAL(6),$);
#280=IFCPROPERTYSINGLEVALUE('CostPerHour',$,IFCMONETARYMEASURE(42),$);
#281=IFCPROPERTYSET('znJdvhCFKtU55xO$717bz7',#6,'OPS_Resource',$,(#279,#280));
#282=IFCRELDEFINESBYPROPERTIES('aTWNKhBlHXMFDZt$j9QvvR',#6,$,$,(#259),#281);
#283=IFCPROPERTYSINGLEVALUE('MaxUnits',$,IFCREAL(4),$);
#284=IFCPROPERTYSINGLEVALUE('CostPerHour',$,IFCMONETARYMEASURE(43),$);
#285=IFCPROPERTYSET('gdOH9Z9Nc1UxLzHXFbfLwb',#6,'OPS_Resource',$,(#283,#284));
#286=IFCRELDEFINESBYPROPERTIES('lx1ZKL5nGjM3p33HEllzZN',#6,$,$,(#260),#285);
#287=IFCPROPERTYSINGLEVALUE('MaxUnits',$,IFCREAL(4),$);
#288=IFCPROPERTYSINGLEVALUE('CostPerHour',$,IFCMONETARYMEASURE(46),$);
#289=IFCPROPERTYSET('ORWfyX2nybp9bVrnVFxHPB',#6,'OPS_Resource',$,(#287,#288));
#290=IFCRELDEFINESBYPROPERTIES('nv_XCb3HL7GV2D$Vk1xV0N',#6,$,$,(#261),#289);
#291=IFCPROPERTYSINGLEVALUE('MaxUnits',$,IFCREAL(6),$);
#292=IFCPROPERTYSINGLEVALUE('CostPerHour',$,IFCMONETARYMEASURE(38),$);
#293=IFCPROPERTYSET('ADXLFnBlfRx1WjlX13elLJ',#6,'OPS_Resource',$,(#291,#292));
#294=IFCRELDEFINESBYPROPERTIES('ZVRHvrOdLvuvw$pFNfQDqT',#6,$,$,(#262),#293);
#295=IFCPROPERTYSINGLEVALUE('MaxUnits',$,IFCREAL(6),$);
#296=IFCPROPERTYSINGLEVALUE('CostPerHour',$,IFCMONETARYMEASURE(58),$);
#297=IFCPROPERTYSET('FLztU931GJsTP3JllPSz$t',#6,'OPS_Resource',$,(#295,#296));
#298=IFCRELDEFINESBYPROPERTIES('eTj7PtT$w3YfVnDF9dOXuj',#6,$,$,(#263),#297);
#299=IFCPROPERTYSINGLEVALUE('MaxUnits',$,IFCREAL(999),$);
#300=IFCPROPERTYSINGLEVALUE('UnitOfMeasure',$,IFCLABEL('m³'),$);
#301=IFCPROPERTYSET('tD9DhJA1C78vQFFVZT4Lgt',#6,'OPS_Resource',$,(#299,#300));
#302=IFCRELDEFINESBYPROPERTIES('U$X3cNmfeFSrOP2VBDbFrP',#6,$,$,(#264),#301);
#303=IFCRELNESTS('dRuVWXbXddyhIFzFO5YLQB',#6,'Ploeg Structural works crew',$,#255,(#256,#257));
#304=IFCRELASSIGNSTOPROCESS('Y1XzoVkHnl8vcTXV0vmtqH',#6,$,$,(#263),$,#44,$);
#305=IFCRELASSIGNSTOPROCESS('pBvZyVUn63sHF7AH4vi5Bv',#6,$,$,(#263),$,#46,$);
#306=IFCRELASSIGNSTOPROCESS('L3X3E1otpvz7_vQH5lTtOr',#6,$,$,(#263),$,#48,$);
#307=IFCRELASSIGNSTOPROCESS('GvU1UxYfybJN1$VVKJA9up',#6,$,$,(#264),$,#60,$);
#308=IFCRELASSIGNSTOPROCESS('pLJdLjM$UpgnPn716ppdRX',#6,$,$,(#264),$,#62,$);
#309=IFCRELASSIGNSTOPROCESS('zjMzQta16TILAv6H9delJX',#6,$,$,(#264),$,#70,$);
#310=IFCRELASSIGNSTOPROCESS('UzKR4TGNmpMFzbWVDPCDWP',#6,$,$,(#264),$,#72,$);
#311=IFCRELASSIGNSTOPROCESS('B9AvdN$7_30FfPQ$sbwP1D',#6,$,$,(#256),$,#76,$);
#312=IFCRELASSIGNSTOPROCESS('aZe$ozhHljK3Xx817xI5Vz',#6,$,$,(#256),$,#80,$);
#313=IFCRELASSIGNSTOPROCESS('CBHbq79feFyDaJDlffYLA7',#6,$,$,(#257),$,#82,$);
#314=IFCRELASSIGNSTOPROCESS('a3SzcJUFwZM3Hzd17XDdh9',#6,$,$,(#257),$,#84,$);
#315=IFCRELASSIGNSTOPROCESS('jxNRiffNG3e9DTlX5huFN1',#6,$,$,(#256),$,#90,$);
#316=IFCRELASSIGNSTOPROCESS('PXZfqPr$u1sZBJjl7RoVqn',#6,$,$,(#256),$,#94,$);
#317=IFCRELASSIGNSTOPROCESS('aVblxLbnUvOd8FpFlh1xtn',#6,$,$,(#257),$,#96,$);
#318=IFCRELASSIGNSTOPROCESS('4lBFpj5XXvz7oBEVGXlrSx',#6,$,$,(#257),$,#98,$);
#319=IFCRELASSIGNSTOPROCESS('$HFxslNf0B9zJpBHtThHfT',#6,$,$,(#257),$,#104,$);
#320=IFCRELASSIGNSTOPROCESS('eZjv5FjV19NZthYFPhunxF',#6,$,$,(#257),$,#106,$);
#321=IFCRELASSIGNSTOPROCESS('EPER8r0tbrnL_7knKJ6dvt',#6,$,$,(#258),$,#116,$);
#322=IFCRELASSIGNSTOPROCESS('xLwpfp$P5RRXoVxFoHtBij',#6,$,$,(#258),$,#118,$);
#323=IFCRELASSIGNSTOPROCESS('JNmdXtqFenCxxRCF0dCbxh',#6,$,$,(#258),$,#120,$);
#324=IFCRELASSIGNSTOPROCESS('tptDzdh$YvOtX5mVElfhgj',#6,$,$,(#258),$,#122,$);
#325=IFCRELASSIGNSTOPROCESS('QVpdnFbnwzcXcTVXmHFTXT',#6,$,$,(#258),$,#124,$);
#326=IFCRELASSIGNSTOPROCESS('nB9pXNedb1HrmBM1vRgNYp',#6,$,$,(#258),$,#126,$);
#327=IFCRELASSIGNSTOPROCESS('DLLHhpI9DRx$ufiHatI1QB',#6,$,$,(#259),$,#130,$);
#328=IFCRELASSIGNSTOPROCESS('V$dhVfOvijSJgNe$y7KjUp',#6,$,$,(#260),$,#132,$);
#329=IFCRELASSIGNSTOPROCESS('tDNJlRTlZ1gz1Bg$dh8F1J',#6,$,$,(#261),$,#134,$);
#330=IFCRELASSIGNSTOPROCESS('5Hb$_B8voRTdeVLn9v4TjZ',#6,$,$,(#262),$,#136,$);
#331=IFCRELASSIGNSTOPROCESS('rDXLj1gdLjQpiVnXfjXpmn',#6,$,$,(#259),$,#142,$);
#332=IFCRELASSIGNSTOPROCESS('$llbSna1krNTJ1Bl7xoRpn',#6,$,$,(#260),$,#144,$);
#333=IFCRELASSIGNSTOPROCESS('KP0tM1PtDbZPWDxHi$XpCn',#6,$,$,(#261),$,#146,$);
#334=IFCRELASSIGNSTOPROCESS('uL_B7dpF6HOt7VFVBts9qF',#6,$,$,(#262),$,#148,$);
#335=IFCRELASSIGNSTOPROCESS('YXBVm7sd$tPjczhnVpwJ_T',#6,$,$,(#263),$,#154,$);
#336=IFCRELASSIGNSTOPROCESS('g3PhpHW91fxVQFVX4L$5Pv',#6,$,$,(#263),$,#156,$);
#337=IFCRELASSIGNSTOPROCESS('tp7ZqxP97zGVgBYXbVTfUJ',#6,$,$,(#263),$,#158,$);
#338=IFCRELASSIGNSTOPROCESS('6hQjB7UfC7O9ttyF$1BF1J',#6,$,$,(#263),$,#160,$);
#339=IFCPROPERTYSINGLEVALUE('T$9xIjxXJBLl55WVTVfTjT#0',$,IFCTEXT('6|UNIFORM'),$);
#340=IFCPROPERTYSET('Pb09U5cvWbTdmbGXwpRFd7',#6,'OPS_Assignments',$,(#339));
#341=IFCRELDEFINESBYPROPERTIES('E7gPLpAPPD6$SjJHXFz90N',#6,$,$,(#44),#340);
#342=IFCPROPERTYSINGLEVALUE('T$9xIjxXJBLl55WVTVfTjT#0',$,IFCTEXT('4|UNIFORM'),$);
#343=IFCPROPERTYSET('yHz9_7VPN5vLklt1WfAzvR',#6,'OPS_Assignments',$,(#342));
#344=IFCRELDEFINESBYPROPERTIES('Tzyrr7_fABTttNe$PlrFb$',#6,$,$,(#46),#343);
#345=IFCPROPERTYSINGLEVALUE('T$9xIjxXJBLl55WVTVfTjT#0',$,IFCTEXT('4|UNIFORM'),$);
#346=IFCPROPERTYSET('Y$fRGvMPzFaBGbmV0vWdXz',#6,'OPS_Assignments',$,(#345));
#347=IFCRELDEFINESBYPROPERTIES('xrgPhjoH55N5Z9SnXjs9iJ',#6,$,$,(#48),#346);
#348=IFCPROPERTYSINGLEVALUE('Z3KJHRB1mp2tVRqHUBj7$N#0',$,IFCTEXT('45|FRONT_LOADED'),$);
#349=IFCPROPERTYSET('P1t527tfKfsH9L2n3FTNYp',#6,'OPS_Assignments',$,(#348));
#350=IFCRELDEFINESBYPROPERTIES('0FjPjXkHZjq5jVVXgryLkd',#6,$,$,(#60),#349);
#351=IFCPROPERTYSINGLEVALUE('Z3KJHRB1mp2tVRqHUBj7$N#0',$,IFCTEXT('60|FRONT_LOADED'),$);
#352=IFCPROPERTYSET('yFnxUxQ7OF4LIF3Fipkx9F',#6,'OPS_Assignments',$,(#351));
#353=IFCRELDEFINESBYPROPERTIES('TZuFv7vtlDuN5RqHwjNhMj',#6,$,$,(#62),#352);
#354=IFCPROPERTYSINGLEVALUE('Z3KJHRB1mp2tVRqHUBj7$N#0',$,IFCTEXT('35|FRONT_LOADED'),$);
#355=IFCPROPERTYSET('qNobuLCnC7uv_DP1Kjk$E5',#6,'OPS_Assignments',$,(#354));
#356=IFCRELDEFINESBYPROPERTIES('phxVmtKVn3sHlf4lFfgTvt',#6,$,$,(#70),#355);
#357=IFCPROPERTYSINGLEVALUE('Z3KJHRB1mp2tVRqHUBj7$N#0',$,IFCTEXT('45|FRONT_LOADED'),$);
#358=IFCPROPERTYSET('LdOH93Z$kXBnLfileJXDiD',#6,'OPS_Assignments',$,(#357));
#359=IFCRELDEFINESBYPROPERTIES('IxV36TWt33UN$VDHHLdJwV',#6,$,$,(#72),#358);
#360=IFCPROPERTYSINGLEVALUE('0nhlplevijizlZBHPB4h21#0',$,IFCTEXT('8|UNIFORM'),$);
#361=IFCPROPERTYSET('KxXz67wvsB5VcnP$8TR$kP',#6,'OPS_Assignments',$,(#360));
#362=IFCRELDEFINESBYPROPERTIES('5Ftp$dg129wJcZlXjNYLEx',#6,$,$,(#76),#361);
#363=IFCPROPERTYSINGLEVALUE('0nhlplevijizlZBHPB4h21#0',$,IFCTEXT('8|UNIFORM'),$);
#364=IFCPROPERTYSET('jtKbuJzHdDsHpnVXWN6jEN',#6,'OPS_Assignments',$,(#363));
#365=IFCRELDEFINESBYPROPERTIES('ibDPT9jXJrJ7YfKHaR7bfZ',#6,$,$,(#80),#364);
#366=IFCPROPERTYSINGLEVALUE('NTBX8LaH1BrnzRWVHBjvz7#0',$,IFCTEXT('6|UNIFORM'),$);
#367=IFCPROPERTYSET('znLH17sdBfUfJXXX2RNLcH',#6,'OPS_Assignments',$,(#366));
#368=IFCRELDEFINESBYPROPERTIES('azSzsFJVTDWl55WXftA9SR',#6,$,$,(#82),#367);
#369=IFCPROPERTYSINGLEVALUE('NTBX8LaH1BrnzRWVHBjvz7#0',$,IFCTEXT('4|UNIFORM'),$);
#370=IFCPROPERTYSET('jNWfi93$ij4hErQ$UvG90f',#6,'OPS_Assignments',$,(#369));
#371=IFCRELDEFINESBYPROPERTIES('i5PhNjL1kXrn$LwlvVr$kL',#6,$,$,(#84),#370);
#372=IFCPROPERTYSINGLEVALUE('0nhlplevijizlZBHPB4h21#0',$,IFCTEXT('6|UNIFORM'),$);
#373=IFCPROPERTYSET('a1npfjbXdPKbLfiFw9EXeT',#6,'OPS_Assignments',$,(#372));
#374=IFCRELDEFINESBYPROPERTIES('3DY$MVJFWRJfLTTn2Rtry7',#6,$,$,(#90),#373);
#375=IFCPROPERTYSINGLEVALUE('0nhlplevijizlZBHPB4h21#0',$,IFCTEXT('6|UNIFORM'),$);
#376=IFCPROPERTYSET('YZ8nH5XdFFC51VDHLZ3fkr',#6,'OPS_Assignments',$,(#375));
#377=IFCRELDEFINESBYPROPERTIES('tN2BLNevKpG$ut81MlpPJz',#6,$,$,(#94),#376);
#378=IFCPROPERTYSINGLEVALUE('NTBX8LaH1BrnzRWVHBjvz7#0',$,IFCTEXT('5|UNIFORM'),$);
#379=IFCPROPERTYSET('RxahhDEtnZAZVlP$DPK59H',#6,'OPS_Assignments',$,(#378));
#380=IFCRELDEFINESBYPROPERTIES('Cfg3MVbXF3cVkxe1L3HBa9',#6,$,$,(#96),#379);
#381=IFCPROPERTYSINGLEVALUE('NTBX8LaH1BrnzRWVHBjvz7#0',$,IFCTEXT('3|UNIFORM'),$);
#382=IFCPROPERTYSET('xrA7PtBHb19zxlFVZzGfAZ',#6,'OPS_Assignments',$,(#381));
#383=IFCRELDEFINESBYPROPERTIES('iP09MXzH9LR$Wj1VuzvDCn',#6,$,$,(#98),#382);
#384=IFCPROPERTYSINGLEVALUE('NTBX8LaH1BrnzRWVHBjvz7#0',$,IFCTEXT('3|UNIFORM'),$);
#385=IFCPROPERTYSET('8BIl3v1dpvLlRhQltTpd9H',#6,'OPS_Assignments',$,(#384));
#386=IFCRELDEFINESBYPROPERTIES('HtyTqPjF4HhHVFhlL3XRbb',#6,$,$,(#104),#385);
#387=IFCPROPERTYSINGLEVALUE('NTBX8LaH1BrnzRWVHBjvz7#0',$,IFCTEXT('3|UNIFORM'),$);
#388=IFCPROPERTYSET('X3SzAr79$BR$WJN$gnlr8j',#6,'OPS_Assignments',$,(#387));
#389=IFCRELDEFINESBYPROPERTIES('8L_rxHFPBTCx7pjFDhFhsd',#6,$,$,(#106),#388);
#390=IFCPROPERTYSINGLEVALUE('nh5XSjUFIhpdyNO1vV3tyh#0',$,IFCTEXT('6|UNIFORM'),$);
#391=IFCPROPERTYSET('fTZNm72NobJf7Jf$glhHxh',#6,'OPS_Assignments',$,(#390));
#392=IFCRELDEFINESBYPROPERTIES('2l1BT5kttBPj_pP$uThHLp',#6,$,$,(#116),#391);
#393=IFCPROPERTYSINGLEVALUE('nh5XSjUFIhpdyNO1vV3tyh#0',$,IFCTEXT('4|UNIFORM'),$);
#394=IFCPROPERTYSET('EP2BHRB$iJyhcZN$fJtrOZ',#6,'OPS_Assignments',$,(#393));
#395=IFCRELDEFINESBYPROPERTIES('rJ5XO3bnwz61KX1VCFNZFx',#6,$,$,(#118),#394);
#396=IFCPROPERTYSINGLEVALUE('nh5XSjUFIhpdyNO1vV3tyh#0',$,IFCTEXT('6|UNIFORM'),$);
#397=IFCPROPERTYSET('ADvZ41gdHjSrK5WX5BSBmH',#6,'OPS_Assignments',$,(#396));
#398=IFCRELDEFINESBYPROPERTIES('T1HJFrfNitU5ZfWVLzPJYD',#6,$,$,(#120),#397);
#399=IFCPROPERTYSINGLEVALUE('nh5XSjUFIhpdyNO1vV3tyh#0',$,IFCTEXT('4|UNIFORM'),$);
#400=IFCPROPERTYSET('0nDvh9qnCPajML_nzHVDSx',#6,'OPS_Assignments',$,(#399));
#401=IFCRELDEFINESBYPROPERTIES('P5ibyzKXpPfxHfKnMhunxl',#6,$,$,(#122),#400);
#402=IFCPROPERTYSINGLEVALUE('nh5XSjUFIhpdyNO1vV3tyh#0',$,IFCTEXT('6|UNIFORM'),$);
#403=IFCPROPERTYSET('Zz4ZSJg16HWHf5CnyB5XaR',#6,'OPS_Assignments',$,(#402));
#404=IFCRELDEFINESBYPROPERTIES('sfERWXDnYd4pCrw1WtYnn5',#6,$,$,(#124),#403);
#405=IFCPROPERTYSINGLEVALUE('nh5XSjUFIhpdyNO1vV3tyh#0',$,IFCTEXT('4|UNIFORM'),$);
#406=IFCPROPERTYSET('wHb1_vPtf57LUfqn8z7DC3',#6,'OPS_Assignments',$,(#405));
#407=IFCRELDEFINESBYPROPERTIES('VzibGtqnGzO9DZHV$ZSBC3',#6,$,$,(#126),#406);
#408=IFCPROPERTYSINGLEVALUE('NPG7BPYnwZU5Z9aFHrZtKD#0',$,IFCTEXT('6|UNIFORM'),$);
#409=IFCPROPERTYSET('4FP3U5Yfut7DixGVydOV8J',#6,'OPS_Assignments',$,(#408));
#410=IFCRELDEFINESBYPROPERTIES('ZZWfCvHvipGX6V1V0dCRll',#6,$,$,(#130),#409);
#411=IFCPROPERTYSINGLEVALUE('gZ5n91c70rnhUfCl2xRFFb#0',$,IFCTEXT('4|UNIFORM'),$);
#412=IFCPROPERTYSET('OxyZKhbnI$t3JDZFI$R1wR',#6,'OPS_Assignments',$,(#411));
#413=IFCRELDEFINESBYPROPERTIES('nvEFB7YfGjYx7DhHT$LHTt',#6,$,$,(#132),#412);
#414=IFCPROPERTYSINGLEVALUE('ib39Ahz1elm1O17$2tc7$9#0',$,IFCTEXT('4|UNIFORM'),$);
#415=IFCPROPERTYSET('0FjdxB1vgbrn7$TFYLdJER',#6,'OPS_Assignments',$,(#414));
#416=IFCRELDEFINESBYPROPERTIES('Pxq5sLJXbXrFPHjlbVpdzB',#6,$,$,(#134),#415);
#417=IFCPROPERTYSINGLEVALUE('YzyB3r0tjt7DWjN1kXfZHh#0',$,IFCTEXT('6|UNIFORM'),$);
#418=IFCPROPERTYSET('4jM3srldZpuf7DZnczXbzP',#6,'OPS_Assignments',$,(#417));
#419=IFCRELDEFINESBYPROPERTIES('hdGPvhqXrf_tjphHdHxV0f',#6,$,$,(#136),#418);
#420=IFCPROPERTYSINGLEVALUE('NPG7BPYnwZU5Z9aFHrZtKD#0',$,IFCTEXT('4|UNIFORM'),$);
#421=IFCPROPERTYSET('_F396dElnzAHpnHXv$$Jw5',#6,'OPS_Assignments',$,(#420));
#422=IFCRELDEFINESBYPROPERTIES('RxKJlRxVTDO9N7QHrfob9j',#6,$,$,(#142),#421);
#423=IFCPROPERTYSINGLEVALUE('gZ5n91c70rnhUfCl2xRFFb#0',$,IFCTEXT('3|UNIFORM'),$);
#424=IFCPROPERTYSET('8rondtbn_3Otzxqnmll3fz',#6,'OPS_Assignments',$,(#423));
#425=IFCRELDEFINESBYPROPERTIES('H9Sz67sdD59RL981lPqDSt',#6,$,$,(#144),#424);
#426=IFCPROPERTYSINGLEVALUE('ib39Ahz1elm1O17$2tc7$9#0',$,IFCTEXT('3|UNIFORM'),$);
#427=IFCPROPERTYSET('Bp9p$ds1aLXbbVxnMBazvR',#6,'OPS_Assignments',$,(#426));
#428=IFCRELDEFINESBYPROPERTIES('SVrX0FpV9Vb1ulf12t_H7x',#6,$,$,(#146),#427);
#429=IFCPROPERTYSINGLEVALUE('YzyB3r0tjt7DWjN1kXfZHh#0',$,IFCTEXT('4|UNIFORM'),$);
#430=IFCPROPERTYSET('lbBXm9S1c$_Rfd_XL3FLkd',#6,'OPS_Assignments',$,(#429));
#431=IFCRELDEFINESBYPROPERTIES('upNjJTVv0LrnHZxHqZqRdr',#6,$,$,(#148),#430);
#432=IFCPROPERTYSINGLEVALUE('T$9xIjxXJBLl55WVTVfTjT#0',$,IFCTEXT('4|UNIFORM'),$);
#433=IFCPROPERTYSET('PxiRW19NWR51ulVV2bVpK$',#6,'OPS_Assignments',$,(#432));
#434=IFCRELDEFINESBYPROPERTIES('EdgzE12fkXjv_jzH2Nk5TR',#6,$,$,(#154),#433);
#435=IFCPROPERTYSINGLEVALUE('T$9xIjxXJBLl55WVTVfTjT#0',$,IFCTEXT('6|UNIFORM'),$);
#436=IFCPROPERTYSET('X19x2Ly1CT_bdnXV4rZ98D',#6,'OPS_Assignments',$,(#435));
#437=IFCRELDEFINESBYPROPERTIES('6roFVpsP$fJvklVXoHVDCH',#6,$,$,(#156),#436);
#438=IFCPROPERTYSINGLEVALUE('T$9xIjxXJBLl55WVTVfTjT#0',$,IFCTEXT('4|UNIFORM'),$);
#439=IFCPROPERTYSET('0F3t6Tu7_3G$iX7$$XNZb1',#6,'OPS_Assignments',$,(#438));
#440=IFCRELDEFINESBYPROPERTIES('P5yr3hqVR1FhAv2FbRQvXd',#6,$,$,(#158),#439);
#441=IFCPROPERTYSINGLEVALUE('T$9xIjxXJBLl55WVTVfTjT#0',$,IFCTEXT('4|UNIFORM'),$);
#442=IFCPROPERTYSET('ndYLdbA1aLvDmxCFq3Wd7t',#6,'OPS_Assignments',$,(#441));
#443=IFCRELDEFINESBYPROPERTIES('ADd3QNmfGpkPCljHNpJ7JV',#6,$,$,(#160),#442);
#444=IFCRELASSIGNSTOCONTROL('rDVhNjbXHjyDCF$VkTSruD',#6,$,$,(#40,#42,#44,#46,#48,#50,#52,#54,#56,#58,#60,#62,#64,#66,#68,#70,#72,#74,#76,#78,#80,#82,#84,#86,#88,#90,#92,#94,#96,#98,#100,#102,#104,#106,#108,#110,#112,#114,#116,#118,#120,#122,#124,#126,#128,#130,#132,#134,#136,#138,#140,#142,#144,#146,#148,#150,#152,#154,#156,#158,#160,#162,#164,#166,#168,#170,#172,#174),$,#37);
#445=IFCPROPERTYSINGLEVALUE('wbsAutoNumber',$,IFCBOOLEAN(.T.),$);
#446=IFCPROPERTYSINGLEVALUE('ProjectStartDate',$,IFCDATE('2027-03-01'),$);
#447=IFCPROPERTYSINGLEVALUE('ProjectEndDate',$,$,$);
#448=IFCPROPERTYSINGLEVALUE('CreatedAt',$,IFCTEXT('2026-08-14T12:19:01.134Z'),$);
#449=IFCPROPERTYSINGLEVALUE('ModifiedAt',$,IFCTEXT('2026-08-14T12:19:01.135Z'),$);
#450=IFCPROPERTYSET('e5a3ArlP$tNZvpDF1ZK5n5',#6,'OPS_ProjectSettings',$,(#445,#446,#447,#448,#449));
#451=IFCRELDEFINESBYPROPERTIES('0Hdzo1sPJhdjQlBF$1BF9l',#6,$,$,(#13),#450);
#452=IFCPROPERTYSINGLEVALUE('MilestoneKind',$,IFCLABEL('START'),$);
#453=IFCPROPERTYSET('wn7Tif9NIrtzJppn3FDPBP',#6,'OPS_Milestone',$,(#452));
#454=IFCRELDEFINESBYPROPERTIES('X3KJFr$vcDmVgroVGXHBOr',#6,$,$,(#50),#453);
#455=IFCPROPERTYSINGLEVALUE('MilestoneKind',$,IFCLABEL('FINISH'),$);
#456=IFCPROPERTYSET('rjBFDDP9h7uvAds$1Z4Tj3',#6,'OPS_Milestone',$,(#455));
#457=IFCRELDEFINESBYPROPERTIES('aVrXSluvstNZfx4F5HZt8b',#6,$,$,(#86),#456);
#458=IFCPROPERTYSINGLEVALUE('MilestoneKind',$,IFCLABEL('FINISH'),$);
#459=IFCPROPERTYSET('wH5VC77tfFVzjDblMhWPBv',#6,'OPS_Milestone',$,(#458));
#460=IFCRELDEFINESBYPROPERTIES('XZuFFLLl9XzfdzBFzDMT1p',#6,$,$,(#100),#459);
#461=IFCPROPERTYSINGLEVALUE('MilestoneKind',$,IFCLABEL('FINISH'),$);
#462=IFCPROPERTYSET('CBvZSHO7qZEr49il07WdHr',#6,'OPS_Milestone',$,(#461));
#463=IFCRELDEFINESBYPROPERTIES('bXblPxkth7ufHfKnA1Vp8D',#6,$,$,(#112),#462);
#464=IFCPROPERTYSINGLEVALUE('MilestoneKind',$,IFCLABEL('FINISH'),$);
#465=IFCPROPERTYSET('KRh1UN$723ufdZd$SfgZBd',#6,'OPS_Milestone',$,(#464));
#466=IFCRELDEFINESBYPROPERTIES('xn1rHbjneHuflNSHVpcDOr',#6,$,$,(#174),#465);
ENDSEC;
END-ISO-10303-21;
