ISO-10303-21;
HEADER;
FILE_DESCRIPTION(('ViewDefinition [SchedulingView]'),'2;1');
FILE_NAME('Refurbishment & Extension of a Family Home.ifc','2026-07-28T14:38:18',('Contractor'),('Van Dijk Construction BV'),'Open Planner Studio 0.1','Open Planner Studio','');
FILE_SCHEMA(('IFC4X3'));
ENDSEC;
DATA;
#1=IFCPERSON($,'Contractor',$,$,$,$,$,$);
#2=IFCORGANIZATION($,'Van Dijk Construction BV',$,$,$);
#3=IFCPERSONANDORGANIZATION(#1,#2,$);
#4=IFCORGANIZATION($,'OpenAEC Foundation',$,$,$);
#5=IFCAPPLICATION(#4,'0.1','Open Planner Studio','OPS');
#6=IFCOWNERHISTORY(#3,#5,$,.NOCHANGE.,$,$,$,1785249498);
#7=IFCSIUNIT(*,.LENGTHUNIT.,$,.METRE.);
#8=IFCSIUNIT(*,.TIMEUNIT.,$,.SECOND.);
#9=IFCUNITASSIGNMENT((#7,#8));
#10=IFCCARTESIANPOINT((0.,0.,0.));
#11=IFCAXIS2PLACEMENT3D(#10,$,$);
#12=IFCGEOMETRICREPRESENTATIONCONTEXT($,'Plan',3,1.0E-05,#11,$);
#13=IFCPROJECT('hde$oZP9zzkPmrg1b$FZP7',#6,'Refurbishment & Extension of a Family Home','Extension plus internal refurbishment of a family home — entry-level schedule.',$,$,$,(#12),#9);
#14=IFCTIMEPERIOD('07:00:00','16:00:00');
#15=IFCRECURRENCEPATTERN(.WEEKLY.,$,(1,2,3,4,5),$,$,$,$,(#14));
#16=IFCWORKTIME('Standard work week',.PREDICTED.,$,#15,$,$);
#17=IFCWORKTIME('New Year''s Day',.PREDICTED.,$,$,'2027-01-01','2027-01-01');
#18=IFCWORKTIME('Good Friday',.PREDICTED.,$,$,'2027-03-26','2027-03-26');
#19=IFCWORKTIME('Easter',.PREDICTED.,$,$,'2027-03-28','2027-03-29');
#20=IFCWORKTIME('King''s Day',.PREDICTED.,$,$,'2027-04-27','2027-04-27');
#21=IFCWORKTIME('Liberation Day',.PREDICTED.,$,$,'2027-05-05','2027-05-05');
#22=IFCWORKTIME('Ascension Day',.PREDICTED.,$,$,'2027-05-06','2027-05-06');
#23=IFCWORKTIME('Whitsun',.PREDICTED.,$,$,'2027-05-16','2027-05-17');
#24=IFCWORKTIME('Christmas',.PREDICTED.,$,$,'2027-12-25','2027-12-26');
#25=IFCWORKTIME('Construction holiday (northern region)',.PREDICTED.,$,$,'2027-07-26','2027-08-15');
#26=IFCWORKTIME('New Year''s Day',.PREDICTED.,$,$,'2028-01-01','2028-01-01');
#27=IFCWORKTIME('Good Friday',.PREDICTED.,$,$,'2028-04-14','2028-04-14');
#28=IFCWORKTIME('Easter',.PREDICTED.,$,$,'2028-04-16','2028-04-17');
#29=IFCWORKTIME('King''s Day',.PREDICTED.,$,$,'2028-04-27','2028-04-27');
#30=IFCWORKTIME('Liberation Day',.PREDICTED.,$,$,'2028-05-05','2028-05-05');
#31=IFCWORKTIME('Ascension Day',.PREDICTED.,$,$,'2028-05-25','2028-05-25');
#32=IFCWORKTIME('Whitsun',.PREDICTED.,$,$,'2028-06-04','2028-06-05');
#33=IFCWORKTIME('Christmas',.PREDICTED.,$,$,'2028-12-25','2028-12-26');
#34=IFCWORKTIME('Construction holiday (northern region)',.PREDICTED.,$,$,'2028-07-24','2028-08-13');
#35=IFCWORKCALENDAR('_HlbW$VPl1Yxnv_nBDbFBd',#6,'Construction calendar NL','Standard construction calendar: Mon-Fri 07:00-16:00',$,(#16),(#17,#18,#19,#20,#21,#22,#23,#24,#25,#26,#27,#28,#29,#30,#31,#32,#33,#34),.FIRSTSHIFT.);
#36=IFCWORKPLAN('zH$rNFS$2fcXghonkz0vxh',#6,'Refurbishment & Extension of a Family Home','Extension plus internal refurbishment of a family home — entry-level schedule.',$,$,'2026-07-28T14:38:18',$,$,$,$,$,'2027-03-01T07:00:00','2027-03-08T07:00:00',.PLANNED.);
#37=IFCWORKSCHEDULE('Q$vr771d5xdrO$$X6NULgt',#6,'Construction schedule v1.0',$,$,$,'2026-07-28T14:38:18',$,$,$,$,$,'2027-03-01T07:00:00','2027-03-08T07:00:00',.PLANNED.);
#38=IFCWORKSCHEDULE('dVh1MRh1cpeP4tSFhZhl5h',#6,'Baseline plan',$,$,$,'2026-07-28T14:38:18.929Z',$,$,$,$,$,$,'2027-05-04T07:00:00',.BASELINE.);
#39=IFCRELAGGREGATES('X$Ph9TPtbVDd8te$ftI1sz',#6,$,$,#36,(#37,#38));
#40=IFCTASKTIME('Start of refurbishment Time',.PREDICTED.,$,.WORKTIME.,'P0Y0M0D','2027-03-01T07:00:00','2027-03-01T07:00:00','2027-03-01T07:00:00','2027-03-01T07:00:00','2027-03-05T07:00:00','2027-03-05T07:00:00','P0Y0M0D','P0Y0M4D',.F.,$,$,$,$,$,0.0);
#41=IFCTASK('ndATyVM$YJAZPZ1XkTazZt',#6,'Start of refurbishment',$,$,'1',$,$,$,.T.,$,#40,.CONSTRUCTION.);
#42=IFCTASKTIME('1. Preparation Time',.PREDICTED.,$,.WORKTIME.,'P0Y0M5D','2027-03-01T07:00:00','2027-03-05T07:00:00','2027-03-01T07:00:00','2027-03-11T07:00:00','2027-03-05T07:00:00','2027-03-11T07:00:00','P0Y0M0D','P0Y0M0D',.T.,$,$,$,$,$,0.0);
#43=IFCTASK('TVBXitBHf51TRBYV7x2B8b',#6,'1. Preparation',$,$,'2',$,$,$,.F.,$,#42,.LOGISTIC.);
#44=IFCTASKTIME('Set up site Time',.PREDICTED.,$,.WORKTIME.,'P0Y0M2D','2027-03-01T07:00:00','2027-03-02T07:00:00','2027-03-01T07:00:00','2027-03-02T07:00:00','2027-03-05T07:00:00','2027-03-08T07:00:00','P0Y0M4D','P0Y0M4D',.F.,$,$,$,$,$,0.0);
#45=IFCTASK('4nFxM$Hve7jNzd2XHBBF$J',#6,'Set up site',$,$,'2.1',$,$,$,.F.,$,#44,.LOGISTIC.);
#46=IFCTASKTIME('Demolish existing extension Time',.PREDICTED.,$,.WORKTIME.,'P0Y0M3D','2027-03-01T07:00:00','2027-03-03T07:00:00','2027-03-09T07:00:00','2027-03-11T07:00:00','2027-03-09T07:00:00','2027-03-11T07:00:00','P0Y0M0D','P0Y0M0D',.T.,$,$,$,$,$,0.0);
#47=IFCTASK('XTuVKLz$0B$5LzFX$$j7nV',#6,'Demolish existing extension',$,$,'2.2',$,$,$,.F.,$,#46,.DEMOLITION.);
#48=IFCTASKTIME('2. Foundations & structure Time',.PREDICTED.,$,.WORKTIME.,'P0Y0M5D','2027-03-01T07:00:00','2027-03-05T07:00:00','2027-03-12T07:00:00','2027-04-06T07:00:00','2027-03-12T07:00:00','2027-04-06T07:00:00','P0Y0M0D','P0Y0M0D',.T.,$,$,$,$,$,0.0);
#49=IFCTASK('8DF563CXtrHBSjjlb1VDGF',#6,'2. Foundations & structure',$,$,'3',$,$,$,.F.,$,#48,.CONSTRUCTION.);
#50=IFCTASKTIME('Earthworks for extension Time',.PREDICTED.,$,.WORKTIME.,'P0Y0M3D','2027-03-01T07:00:00','2027-03-03T07:00:00','2027-03-12T07:00:00','2027-03-16T07:00:00','2027-03-12T07:00:00','2027-03-16T07:00:00','P0Y0M0D','P0Y0M0D',.T.,$,$,$,$,$,0.0);
#51=IFCTASK('gz9xwT09fHzv2JjlfpZfIv',#6,'Earthworks for extension',$,$,'3.1',$,$,$,.F.,$,#50,.CONSTRUCTION.);
#52=IFCTASKTIME('Extension foundations Time',.PREDICTED.,$,.WORKTIME.,'P0Y0M4D','2027-03-01T07:00:00','2027-03-04T07:00:00','2027-03-17T07:00:00','2027-03-22T07:00:00','2027-03-17T07:00:00','2027-03-22T07:00:00','P0Y0M0D','P0Y0M0D',.T.,$,$,$,$,$,0.0);
#53=IFCTASK('_jIx6Tu7E5FpiRSnVpULk7',#6,'Extension foundations',$,$,'3.2',$,$,$,.F.,$,#52,.CONSTRUCTION.);
#54=IFCTASKTIME('Pour ground floor slab Time',.PREDICTED.,$,.WORKTIME.,'P0Y0M3D','2027-03-01T07:00:00','2027-03-03T07:00:00','2027-03-23T07:00:00','2027-03-25T07:00:00','2027-03-23T07:00:00','2027-03-25T07:00:00','P0Y0M0D','P0Y0M0D',.T.,$,$,$,$,$,0.0);
#55=IFCTASK('e3HJZ5c7edN5VFjndhWd9l',#6,'Pour ground floor slab',$,$,'3.3',$,$,$,.F.,$,#54,.CONSTRUCTION.);
#56=IFCTASKTIME('Build masonry walls Time',.PREDICTED.,$,.WORKTIME.,'P0Y0M6D','2027-03-01T07:00:00','2027-03-08T07:00:00','2027-03-30T07:00:00','2027-04-06T07:00:00','2027-03-30T07:00:00','2027-04-06T07:00:00','P0Y0M0D','P0Y0M0D',.T.,$,$,$,$,$,0.0);
#57=IFCTASK('Mz1TuBWt$NJv_JZHSfUhYF',#6,'Build masonry walls',$,$,'3.4',$,$,$,.F.,$,#56,.CONSTRUCTION.);
#58=IFCTASKTIME('Install roof structure Time',.PREDICTED.,$,.WORKTIME.,'P0Y0M4D','2027-03-01T07:00:00','2027-03-04T07:00:00','2027-04-01T07:00:00','2027-04-06T07:00:00','2027-04-01T07:00:00','2027-04-06T07:00:00','P0Y0M0D','P0Y0M0D',.T.,$,$,$,$,$,0.0);
#59=IFCTASK('4HrFFLBH1N3fL3N1wpztax',#6,'Install roof structure',$,$,'3.5',$,$,$,.F.,$,#58,.CONSTRUCTION.);
#60=IFCTASKTIME('3. Fit-out Time',.PREDICTED.,$,.WORKTIME.,'P0Y0M5D','2027-03-01T07:00:00','2027-03-05T07:00:00','2027-04-07T07:00:00','2027-04-30T07:00:00','2027-04-07T07:00:00','2027-04-30T07:00:00','P0Y0M0D','P0Y0M0D',.T.,$,$,$,$,$,0.0);
#61=IFCTASK('LP8Vi95nC36$4fGVc3VRDl',#6,'3. Fit-out',$,$,'4',$,$,$,.F.,$,#60,.CONSTRUCTION.);
#62=IFCTASKTIME('Apply roofing Time',.PREDICTED.,$,.WORKTIME.,'P0Y0M3D','2027-03-01T07:00:00','2027-03-03T07:00:00','2027-04-07T07:00:00','2027-04-09T07:00:00','2027-04-07T07:00:00','2027-04-09T07:00:00','P0Y0M0D','P0Y0M0D',.T.,$,$,$,$,$,0.0);
#63=IFCTASK('HtyBvPbXt1Vbz5ilmlnTf$',#6,'Apply roofing',$,$,'4.1',$,$,$,.F.,$,#62,.CONSTRUCTION.);
#64=IFCTASKTIME('Install window frames Time',.PREDICTED.,$,.WORKTIME.,'P0Y0M4D','2027-03-01T07:00:00','2027-03-04T07:00:00','2027-04-12T07:00:00','2027-04-15T07:00:00','2027-04-12T07:00:00','2027-04-15T07:00:00','P0Y0M0D','P0Y0M0D',.T.,$,$,$,$,$,0.0);
#65=IFCTASK('VXRHDnqFynHJEh_nzHtryh',#6,'Install window frames',$,$,'4.2',$,$,$,.F.,$,#64,.INSTALLATION.);
#66=IFCTASKTIME('Plastering Time',.PREDICTED.,$,.WORKTIME.,'P0Y0M5D','2027-03-01T07:00:00','2027-03-05T07:00:00','2027-04-16T07:00:00','2027-04-22T07:00:00','2027-04-16T07:00:00','2027-04-22T07:00:00','P0Y0M0D','P0Y0M0D',.T.,$,$,$,$,$,0.0);
#67=IFCTASK('_HNJv7lv8XUNP3zlQTJvfz',#6,'Plastering',$,$,'4.3',$,$,$,.F.,$,#66,.CONSTRUCTION.);
#68=IFCTASKTIME('Tiling Time',.PREDICTED.,$,.WORKTIME.,'P0Y0M4D','2027-03-01T07:00:00','2027-03-04T07:00:00','2027-04-23T07:00:00','2027-04-29T07:00:00','2027-04-23T07:00:00','2027-04-29T07:00:00','P0Y0M0D','P0Y0M0D',.T.,$,$,$,$,$,0.0);
#69=IFCTASK('4D_XCvtfiJizhfqniVB$YJ',#6,'Tiling',$,$,'4.4',$,$,$,.F.,$,#68,.INSTALLATION.);
#70=IFCTASKTIME('Painting Time',.PREDICTED.,$,.WORKTIME.,'P0Y0M3D','2027-03-01T07:00:00','2027-03-03T07:00:00','2027-04-28T07:00:00','2027-04-30T07:00:00','2027-04-28T07:00:00','2027-04-30T07:00:00','P0Y0M0D','P0Y0M0D',.T.,$,$,$,$,$,0.0);
#71=IFCTASK('K7C5wZu7_fIPytSFlLXbll',#6,'Painting',$,$,'4.5',$,$,$,.F.,$,#70,.CONSTRUCTION.);
#72=IFCTASKTIME('4. Handover Time',.PREDICTED.,$,.WORKTIME.,'P0Y0M5D','2027-03-01T07:00:00','2027-03-05T07:00:00','2027-05-03T07:00:00','2027-05-04T07:00:00','2027-05-03T07:00:00','2027-05-04T07:00:00','P0Y0M0D','P0Y0M0D',.T.,$,$,$,$,$,0.0);
#73=IFCTASK('PxyTSJcXLdaBCBYVXlNhch',#6,'4. Handover',$,$,'5',$,$,$,.F.,$,#72,.ATTENDANCE.);
#74=IFCTASKTIME('Final cleaning Time',.PREDICTED.,$,.WORKTIME.,'P0Y0M1D','2027-03-01T07:00:00','2027-03-01T07:00:00','2027-05-03T07:00:00','2027-05-03T07:00:00','2027-05-03T07:00:00','2027-05-03T07:00:00','P0Y0M0D','P0Y0M0D',.T.,$,$,$,$,$,0.0);
#75=IFCTASK('lbL$g$$dV5$TFvgHQZhlv5',#6,'Final cleaning',$,$,'5.1',$,$,$,.F.,$,#74,.LOGISTIC.);
#76=IFCTASKTIME('Handover inspection Time',.PREDICTED.,$,.WORKTIME.,'P0Y0M0D','2027-03-01T07:00:00','2027-03-01T07:00:00','2027-05-03T07:00:00','2027-05-03T07:00:00','2027-05-03T07:00:00','2027-05-03T07:00:00','P0Y0M0D','P0Y0M0D',.T.,$,$,$,$,$,0.0);
#77=IFCTASK('7FXhTtRno5NxDlJHdBqRPL',#6,'Handover inspection','Mandatory handover inspection; the deadline has ample margin (no conflict).',$,'5.2',$,$,$,.T.,$,#76,.CONSTRUCTION.);
#78=IFCTASKTIME('Final handover with the occupant Time',.PREDICTED.,$,.WORKTIME.,'P0Y0M1D','2027-03-01T07:00:00','2027-03-01T07:00:00','2027-05-04T07:00:00','2027-05-04T07:00:00','2027-05-04T07:00:00','2027-05-04T07:00:00','P0Y0M0D','P0Y0M0D',.T.,$,$,$,$,$,0.0);
#79=IFCTASK('ItSLNjpF_zGVARO$qHDdVZ',#6,'Final handover with the occupant',$,$,'5.3',$,$,$,.F.,$,#78,.ATTENDANCE.);
#80=IFCRELNESTS('Sz4B1Zu7wnCTnvYFzJ2l37',#6,'WBS 1. Preparation',$,#43,( #45,#47));
#81=IFCRELNESTS('1ldzcjElnTYxbhwlXJk$wV',#6,'WBS 2. Foundations & structure',$,#49,( #51,#53,#55,#57,#59));
#82=IFCRELNESTS('EhR$_hCnmZaB4371NDjvnV',#6,'WBS 3. Fit-out',$,#61,( #63,#65,#67,#69,#71));
#83=IFCRELNESTS('ktaLnHlPFnqZJ13FW9_lXP',#6,'WBS 4. Handover',$,#73,( #75,#77,#79));
#84=IFCRELNESTS('tjjP5r1vgdnD4TBHzDgTrv',#6,'WBS Hoofd',$,#37,(#41,#43,#49,#61,#73));
#85=IFCRELSEQUENCE('n7QfeR_FelO9$hwHHLlBuJ',#6,$,$,#41,#45,$,.FINISH_START.,$);
#86=IFCRELSEQUENCE('hPe$UtRnk1vDKVnXHPSr8J',#6,$,$,#45,#47,$,.FINISH_START.,$);
#87=IFCRELSEQUENCE('RbuFvdr$4HrnfvMHcPOXeh',#6,$,$,#47,#51,$,.FINISH_START.,$);
#88=IFCRELSEQUENCE('BDPzoZndhpgnjpzn4BhH3P',#6,$,$,#51,#53,$,.FINISH_START.,$);
#89=IFCRELSEQUENCE('2H$r9VwXznq57phlFbtrCn',#6,$,$,#53,#55,$,.FINISH_START.,$);
#90=IFCRELSEQUENCE('RxqDVfe7ev37oBQ1oltBOZ',#6,$,$,#55,#57,$,.FINISH_START.,$);
#91=IFCLAGTIME('Lag',.PREDICTED.,$,IFCDURATION('P2D'),.WORKTIME.);
#92=IFCRELSEQUENCE('Q1tx67otzn4hoVplJfAztj',#6,$,$,#57,#59,#91,.START_START.,$);
#93=IFCRELSEQUENCE('P5CxY9bFwZ6JYt8$wpTNkh',#6,$,$,#59,#63,$,.FINISH_START.,$);
#94=IFCRELSEQUENCE('t9Y1QjA1Cve9pZd$eRk1gj',#6,$,$,#63,#65,$,.FINISH_START.,$);
#95=IFCRELSEQUENCE('h74TW$H7Czsl9hUn$$3f6b',#6,$,$,#65,#67,$,.FINISH_START.,$);
#96=IFCRELSEQUENCE('azShbx1dj9vDCnf1ldCDip',#6,$,$,#67,#69,$,.FINISH_START.,$);
#97=IFCRELSEQUENCE('qfg3knqVTJyhA7En6pDPfX',#6,$,$,#67,#71,$,.FINISH_START.,$);
#98=IFCLAGTIME('Lag',.PREDICTED.,$,IFCDURATION('P1D'),.WORKTIME.);
#99=IFCRELSEQUENCE('Sz4Bh9ylZj4LAvEnMBaz7x',#6,$,$,#69,#71,#98,.FINISH_FINISH.,$);
#100=IFCRELSEQUENCE('I5FDVf8PRBFhsRu$gF9zZt',#6,$,$,#71,#75,$,.FINISH_START.,$);
#101=IFCRELSEQUENCE('2pQNGdM$c$UxLzP$dlJ7DH',#6,$,$,#75,#77,$,.FINISH_START.,$);
#102=IFCRELSEQUENCE('qr$B3hylNbLlBDnXT3u$2z',#6,$,$,#77,#79,$,.FINISH_START.,$);
#103=IFCRELASSIGNSTOCONTROL('rDVhNjbXHjyDCF$VkTSruD',#6,$,$,(#41,#43,#45,#47,#49,#51,#53,#55,#57,#59,#61,#63,#65,#67,#69,#71,#73,#75,#77,#79),$,#37);
#104=IFCPROPERTYSINGLEVALUE('wbsAutoNumber',$,IFCBOOLEAN(.T.),$);
#105=IFCPROPERTYSINGLEVALUE('ProjectStartDate',$,IFCDATE('2027-03-01'),$);
#106=IFCPROPERTYSINGLEVALUE('ProjectEndDate',$,$,$);
#107=IFCPROPERTYSINGLEVALUE('CreatedAt',$,IFCTEXT('2026-07-28T14:38:18.909Z'),$);
#108=IFCPROPERTYSINGLEVALUE('ModifiedAt',$,IFCTEXT('2026-07-28T14:38:18.910Z'),$);
#109=IFCPROPERTYSET('e5a3ArlP$tNZvpDF1ZK5n5',#6,'OPS_ProjectSettings',$,(#104,#105,#106,#107,#108));
#110=IFCRELDEFINESBYPROPERTIES('0Hdzo1sPJhdjQlBF$1BF9l',#6,$,$,(#13),#109);
#111=IFCPROPERTYSINGLEVALUE('ConstraintType',$,IFCLABEL('SNET'),$);
#112=IFCPROPERTYSINGLEVALUE('ConstraintDate',$,IFCDATE('2027-03-09'),$);
#113=IFCPROPERTYSET('fPe$YfVv8VIPWj7$PByZj3',#6,'OPS_Constraints',$,(#111,#112));
#114=IFCRELDEFINESBYPROPERTIES('Y3Shbb3HRVR18l7$3poRBT',#6,$,$,(#47),#113);
#115=IFCPROPERTYSINGLEVALUE('Deadline',$,IFCDATE('2027-05-24'),$);
#116=IFCPROPERTYSET('$DMdtTP9dDIdmR0VNpxl7b',#6,'OPS_Constraints',$,(#115));
#117=IFCRELDEFINESBYPROPERTIES('wljPH$NNkBHr4z91Cn$5jT',#6,$,$,(#77),#116);
#118=IFCPROPERTYSINGLEVALUE('MilestoneKind',$,IFCLABEL('START'),$);
#119=IFCPROPERTYSET('5FF5Q9y$CTAZJ$xHKjAtK1',#6,'OPS_Milestone',$,(#118));
#120=IFCRELDEFINESBYPROPERTIES('UZO1URg1AhVRFj5FA1nZpj',#6,$,$,(#41),#119);
#121=IFCPROPERTYSINGLEVALUE('MilestoneKind',$,IFCLABEL('FINISH'),$);
#122=IFCPROPERTYSINGLEVALUE('Mandatory',$,IFCBOOLEAN(.T.),$);
#123=IFCPROPERTYSET('bb0tsHHd5HbXAxCHARQvLp',#6,'OPS_Milestone',$,(#121,#122));
#124=IFCRELDEFINESBYPROPERTIES('C92XyzCXVPFpmRe1qzOVuR',#6,$,$,(#77),#123);
#125=IFCPROPERTYSINGLEVALUE('Baselines',$,IFCTEXT('[{"id":"baseline-ms4rghf5j8gr72","name":"Baseline plan","createdAt":"2026-07-28T14:38:18.929Z","tasks":[{"taskId":"task-ms4rghemesju36","start":"2027-03-01","finish":"2027-03-01","duration":0,"isMilestone":true,"milestoneKind":"START"},{"taskId":"task-ms4rghen6sam38","start":"2027-03-01","finish":"2027-03-02","duration":2,"isMilestone":false},{"taskId":"task-ms4rghenc64d39","start":"2027-03-09","finish":"2027-03-11","duration":3,"isMilestone":false},{"taskId":"task-ms4rgheo2v4f41","start":"2027-03-12","finish":"2027-03-16","duration":3,"isMilestone":false},{"taskId":"task-ms4rghepl7jg42","start":"2027-03-17","finish":"2027-03-22","duration":4,"isMilestone":false},{"taskId":"task-ms4rghepgp9a43","start":"2027-03-23","finish":"2027-03-25","duration":3,"isMilestone":false},{"taskId":"task-ms4rgheq82lc44","start":"2027-03-30","finish":"2027-04-06","duration":6,"isMilestone":false},{"taskId":"task-ms4rgheqsbv145","start":"2027-04-01","finish":"2027-04-06","duration":4,"isMilestone":false},{"taskId":"task-ms4rgherg9v847","start":"2027-04-07","finish":"2027-04-09","duration":3,"isMilestone":false},{"taskId":"task-ms4rghesjrzt48","start":"2027-04-12","finish":"2027-04-15","duration":4,"isMilestone":false},{"taskId":"task-ms4rghetmae249","start":"2027-04-16","finish":"2027-04-22","duration":5,"isMilestone":false},{"taskId":"task-ms4rghetv0xc50","start":"2027-04-23","finish":"2027-04-29","duration":4,"isMilestone":false},{"taskId":"task-ms4rgheuhenl51","start":"2027-04-28","finish":"2027-04-30","duration":3,"isMilestone":false},{"taskId":"task-ms4rgheuuo7q53","start":"2027-05-03","finish":"2027-05-03","duration":1,"isMilestone":false},{"taskId":"task-ms4rghevbawb54","start":"2027-05-03","finish":"2027-05-03","duration":0,"isMilestone":true,"milestoneKind":"FINISH"},{"taskId":"task-ms4rghew5j3q55","start":"2027-05-04","finish":"2027-05-04","duration":1,"isMilestone":false}],"projectEnd":"2027-05-04","projectDuration":44}]'),$);
#126=IFCPROPERTYSINGLEVALUE('ActiveBaselineId',$,IFCTEXT('baseline-ms4rghf5j8gr72'),$);
#127=IFCPROPERTYSET('XXh1w34HTJCTF7clPLWdrv',#6,'OPS_Baselines',$,(#125,#126));
#128=IFCRELDEFINESBYPROPERTIES('Oz1Z43KV$BzN1$1VwJtr4B',#6,$,$,(#37),#127);
ENDSEC;
END-ISO-10303-21;
